<?xml version="1.0" encoding="utf-8" standalone="no"?>
<!DOCTYPE svg PUBLIC "-//W3C//DTD SVG 1.1//EN"
  "http://www.w3.org/Graphics/SVG/1.1/DTD/svg11.dtd">
<!-- Created with matplotlib (http://matplotlib.org/) -->
<svg height="345.6pt" version="1.1" viewBox="0 0 460.8 345.6" width="460.8pt" xmlns="http://www.w3.org/2000/svg" xmlns:xlink="http://www.w3.org/1999/xlink">
 <defs>
  <style type="text/css">
*{stroke-linecap:butt;stroke-linejoin:round;}
  </style>
 </defs>
 <g id="figure_1">
  <g id="patch_1">
   <path d="M 0 345.6 
L 460.8 345.6 
L 460.8 0 
L 0 0 
z
" style="fill:#ffffff;"/>
  </g>
  <g id="axes_1">
   <g id="patch_2">
    <path d="M 57.6 307.584 
L 414.72 307.584 
L 414.72 41.472 
L 57.6 41.472 
z
" style="fill:#ffffff;"/>
   </g>
   <g id="matplotlib.axis_1">
    <g id="xtick_1">
     <g id="line2d_1">
      <defs>
       <path d="M 0 0 
L 0 3.5 
" id="m2d8b5f66a8" style="stroke:#000000;stroke-width:0.8;"/>
      </defs>
      <g>
       <use style="stroke:#000000;stroke-width:0.8;" x="73.832727" xlink:href="#m2d8b5f66a8" y="307.584"/>
      </g>
     </g>
     <g id="text_1">
      <!-- 0 -->
      <defs>
       <path d="M 31.78125 66.40625 
Q 24.171875 66.40625 20.328125 58.90625 
Q 16.5 51.421875 16.5 36.375 
Q 16.5 21.390625 20.328125 13.890625 
Q 24.171875 6.390625 31.78125 6.390625 
Q 39.453125 6.390625 43.28125 13.890625 
Q 47.125 21.390625 47.125 36.375 
Q 47.125 51.421875 43.28125 58.90625 
Q 39.453125 66.40625 31.78125 66.40625 
z
M 31.78125 74.21875 
Q 44.046875 74.21875 50.515625 64.515625 
Q 56.984375 54.828125 56.984375 36.375 
Q 56.984375 17.96875 50.515625 8.265625 
Q 44.046875 -1.421875 31.78125 -1.421875 
Q 19.53125 -1.421875 13.0625 8.265625 
Q 6.59375 17.96875 6.59375 36.375 
Q 6.59375 54.828125 13.0625 64.515625 
Q 19.53125 74.21875 31.78125 74.21875 
z
" id="DejaVuSans-30"/>
      </defs>
      <g transform="translate(70.651477 322.182437)scale(0.1 -0.1)">
       <use xlink:href="#DejaVuSans-30"/>
      </g>
     </g>
    </g>
    <g id="xtick_2">
     <g id="line2d_2">
      <g>
       <use style="stroke:#000000;stroke-width:0.8;" x="136.098655" xlink:href="#m2d8b5f66a8" y="307.584"/>
      </g>
     </g>
     <g id="text_2">
      <!-- 500 -->
      <defs>
       <path d="M 10.796875 72.90625 
L 49.515625 72.90625 
L 49.515625 64.59375 
L 19.828125 64.59375 
L 19.828125 46.734375 
Q 21.96875 47.46875 24.109375 47.828125 
Q 26.265625 48.1875 28.421875 48.1875 
Q 40.625 48.1875 47.75 41.5 
Q 54.890625 34.8125 54.890625 23.390625 
Q 54.890625 11.625 47.5625 5.09375 
Q 40.234375 -1.421875 26.90625 -1.421875 
Q 22.3125 -1.421875 17.546875 -0.640625 
Q 12.796875 0.140625 7.71875 1.703125 
L 7.71875 11.625 
Q 12.109375 9.234375 16.796875 8.0625 
Q 21.484375 6.890625 26.703125 6.890625 
Q 35.15625 6.890625 40.078125 11.328125 
Q 45.015625 15.765625 45.015625 23.390625 
Q 45.015625 31 40.078125 35.4375 
Q 35.15625 39.890625 26.703125 39.890625 
Q 22.75 39.890625 18.8125 39.015625 
Q 14.890625 38.140625 10.796875 36.28125 
z
" id="DejaVuSans-35"/>
      </defs>
      <g transform="translate(126.554905 322.182437)scale(0.1 -0.1)">
       <use xlink:href="#DejaVuSans-35"/>
       <use x="63.623047" xlink:href="#DejaVuSans-30"/>
       <use x="127.246094" xlink:href="#DejaVuSans-30"/>
      </g>
     </g>
    </g>
    <g id="xtick_3">
     <g id="line2d_3">
      <g>
       <use style="stroke:#000000;stroke-width:0.8;" x="198.364582" xlink:href="#m2d8b5f66a8" y="307.584"/>
      </g>
     </g>
     <g id="text_3">
      <!-- 1000 -->
      <defs>
       <path d="M 12.40625 8.296875 
L 28.515625 8.296875 
L 28.515625 63.921875 
L 10.984375 60.40625 
L 10.984375 69.390625 
L 28.421875 72.90625 
L 38.28125 72.90625 
L 38.28125 8.296875 
L 54.390625 8.296875 
L 54.390625 0 
L 12.40625 0 
z
" id="DejaVuSans-31"/>
      </defs>
      <g transform="translate(185.639582 322.182437)scale(0.1 -0.1)">
       <use xlink:href="#DejaVuSans-31"/>
       <use x="63.623047" xlink:href="#DejaVuSans-30"/>
       <use x="127.246094" xlink:href="#DejaVuSans-30"/>
       <use x="190.869141" xlink:href="#DejaVuSans-30"/>
      </g>
     </g>
    </g>
    <g id="xtick_4">
     <g id="line2d_4">
      <g>
       <use style="stroke:#000000;stroke-width:0.8;" x="260.630509" xlink:href="#m2d8b5f66a8" y="307.584"/>
      </g>
     </g>
     <g id="text_4">
      <!-- 1500 -->
      <g transform="translate(247.905509 322.182437)scale(0.1 -0.1)">
       <use xlink:href="#DejaVuSans-31"/>
       <use x="63.623047" xlink:href="#DejaVuSans-35"/>
       <use x="127.246094" xlink:href="#DejaVuSans-30"/>
       <use x="190.869141" xlink:href="#DejaVuSans-30"/>
      </g>
     </g>
    </g>
    <g id="xtick_5">
     <g id="line2d_5">
      <g>
       <use style="stroke:#000000;stroke-width:0.8;" x="322.896437" xlink:href="#m2d8b5f66a8" y="307.584"/>
      </g>
     </g>
     <g id="text_5">
      <!-- 2000 -->
      <defs>
       <path d="M 19.1875 8.296875 
L 53.609375 8.296875 
L 53.609375 0 
L 7.328125 0 
L 7.328125 8.296875 
Q 12.9375 14.109375 22.625 23.890625 
Q 32.328125 33.6875 34.8125 36.53125 
Q 39.546875 41.84375 41.421875 45.53125 
Q 43.3125 49.21875 43.3125 52.78125 
Q 43.3125 58.59375 39.234375 62.25 
Q 35.15625 65.921875 28.609375 65.921875 
Q 23.96875 65.921875 18.8125 64.3125 
Q 13.671875 62.703125 7.8125 59.421875 
L 7.8125 69.390625 
Q 13.765625 71.78125 18.9375 73 
Q 24.125 74.21875 28.421875 74.21875 
Q 39.75 74.21875 46.484375 68.546875 
Q 53.21875 62.890625 53.21875 53.421875 
Q 53.21875 48.921875 51.53125 44.890625 
Q 49.859375 40.875 45.40625 35.40625 
Q 44.1875 33.984375 37.640625 27.21875 
Q 31.109375 20.453125 19.1875 8.296875 
z
" id="DejaVuSans-32"/>
      </defs>
      <g transform="translate(310.171437 322.182437)scale(0.1 -0.1)">
       <use xlink:href="#DejaVuSans-32"/>
       <use x="63.623047" xlink:href="#DejaVuSans-30"/>
       <use x="127.246094" xlink:href="#DejaVuSans-30"/>
       <use x="190.869141" xlink:href="#DejaVuSans-30"/>
      </g>
     </g>
    </g>
    <g id="xtick_6">
     <g id="line2d_6">
      <g>
       <use style="stroke:#000000;stroke-width:0.8;" x="385.162364" xlink:href="#m2d8b5f66a8" y="307.584"/>
      </g>
     </g>
     <g id="text_6">
      <!-- 2500 -->
      <g transform="translate(372.437364 322.182437)scale(0.1 -0.1)">
       <use xlink:href="#DejaVuSans-32"/>
       <use x="63.623047" xlink:href="#DejaVuSans-35"/>
       <use x="127.246094" xlink:href="#DejaVuSans-30"/>
       <use x="190.869141" xlink:href="#DejaVuSans-30"/>
      </g>
     </g>
    </g>
   </g>
   <g id="matplotlib.axis_2">
    <g id="ytick_1">
     <g id="line2d_7">
      <defs>
       <path d="M 0 0 
L -3.5 0 
" id="mcce662022a" style="stroke:#000000;stroke-width:0.8;"/>
      </defs>
      <g>
       <use style="stroke:#000000;stroke-width:0.8;" x="57.6" xlink:href="#mcce662022a" y="286.074583"/>
      </g>
     </g>
     <g id="text_7">
      <!-- 0 -->
      <g transform="translate(44.2375 289.873801)scale(0.1 -0.1)">
       <use xlink:href="#DejaVuSans-30"/>
      </g>
     </g>
    </g>
    <g id="ytick_2">
     <g id="line2d_8">
      <g>
       <use style="stroke:#000000;stroke-width:0.8;" x="57.6" xlink:href="#mcce662022a" y="247.733357"/>
      </g>
     </g>
     <g id="text_8">
      <!-- 500 -->
      <g transform="translate(31.5125 251.532576)scale(0.1 -0.1)">
       <use xlink:href="#DejaVuSans-35"/>
       <use x="63.623047" xlink:href="#DejaVuSans-30"/>
       <use x="127.246094" xlink:href="#DejaVuSans-30"/>
      </g>
     </g>
    </g>
    <g id="ytick_3">
     <g id="line2d_9">
      <g>
       <use style="stroke:#000000;stroke-width:0.8;" x="57.6" xlink:href="#mcce662022a" y="209.392132"/>
      </g>
     </g>
     <g id="text_9">
      <!-- 1000 -->
      <g transform="translate(25.15 213.191351)scale(0.1 -0.1)">
       <use xlink:href="#DejaVuSans-31"/>
       <use x="63.623047" xlink:href="#DejaVuSans-30"/>
       <use x="127.246094" xlink:href="#DejaVuSans-30"/>
       <use x="190.869141" xlink:href="#DejaVuSans-30"/>
      </g>
     </g>
    </g>
    <g id="ytick_4">
     <g id="line2d_10">
      <g>
       <use style="stroke:#000000;stroke-width:0.8;" x="57.6" xlink:href="#mcce662022a" y="171.050906"/>
      </g>
     </g>
     <g id="text_10">
      <!-- 1500 -->
      <g transform="translate(25.15 174.850125)scale(0.1 -0.1)">
       <use xlink:href="#DejaVuSans-31"/>
       <use x="63.623047" xlink:href="#DejaVuSans-35"/>
       <use x="127.246094" xlink:href="#DejaVuSans-30"/>
       <use x="190.869141" xlink:href="#DejaVuSans-30"/>
      </g>
     </g>
    </g>
    <g id="ytick_5">
     <g id="line2d_11">
      <g>
       <use style="stroke:#000000;stroke-width:0.8;" x="57.6" xlink:href="#mcce662022a" y="132.709681"/>
      </g>
     </g>
     <g id="text_11">
      <!-- 2000 -->
      <g transform="translate(25.15 136.5089)scale(0.1 -0.1)">
       <use xlink:href="#DejaVuSans-32"/>
       <use x="63.623047" xlink:href="#DejaVuSans-30"/>
       <use x="127.246094" xlink:href="#DejaVuSans-30"/>
       <use x="190.869141" xlink:href="#DejaVuSans-30"/>
      </g>
     </g>
    </g>
    <g id="ytick_6">
     <g id="line2d_12">
      <g>
       <use style="stroke:#000000;stroke-width:0.8;" x="57.6" xlink:href="#mcce662022a" y="94.368456"/>
      </g>
     </g>
     <g id="text_12">
      <!-- 2500 -->
      <g transform="translate(25.15 98.167674)scale(0.1 -0.1)">
       <use xlink:href="#DejaVuSans-32"/>
       <use x="63.623047" xlink:href="#DejaVuSans-35"/>
       <use x="127.246094" xlink:href="#DejaVuSans-30"/>
       <use x="190.869141" xlink:href="#DejaVuSans-30"/>
      </g>
     </g>
    </g>
    <g id="ytick_7">
     <g id="line2d_13">
      <g>
       <use style="stroke:#000000;stroke-width:0.8;" x="57.6" xlink:href="#mcce662022a" y="56.02723"/>
      </g>
     </g>
     <g id="text_13">
      <!-- 3000 -->
      <defs>
       <path d="M 40.578125 39.3125 
Q 47.65625 37.796875 51.625 33 
Q 55.609375 28.21875 55.609375 21.1875 
Q 55.609375 10.40625 48.1875 4.484375 
Q 40.765625 -1.421875 27.09375 -1.421875 
Q 22.515625 -1.421875 17.65625 -0.515625 
Q 12.796875 0.390625 7.625 2.203125 
L 7.625 11.71875 
Q 11.71875 9.328125 16.59375 8.109375 
Q 21.484375 6.890625 26.8125 6.890625 
Q 36.078125 6.890625 40.9375 10.546875 
Q 45.796875 14.203125 45.796875 21.1875 
Q 45.796875 27.640625 41.28125 31.265625 
Q 36.765625 34.90625 28.71875 34.90625 
L 20.21875 34.90625 
L 20.21875 43.015625 
L 29.109375 43.015625 
Q 36.375 43.015625 40.234375 45.921875 
Q 44.09375 48.828125 44.09375 54.296875 
Q 44.09375 59.90625 40.109375 62.90625 
Q 36.140625 65.921875 28.71875 65.921875 
Q 24.65625 65.921875 20.015625 65.03125 
Q 15.375 64.15625 9.8125 62.3125 
L 9.8125 71.09375 
Q 15.4375 72.65625 20.34375 73.4375 
Q 25.25 74.21875 29.59375 74.21875 
Q 40.828125 74.21875 47.359375 69.109375 
Q 53.90625 64.015625 53.90625 55.328125 
Q 53.90625 49.265625 50.4375 45.09375 
Q 46.96875 40.921875 40.578125 39.3125 
z
" id="DejaVuSans-33"/>
      </defs>
      <g transform="translate(25.15 59.826449)scale(0.1 -0.1)">
       <use xlink:href="#DejaVuSans-33"/>
       <use x="63.623047" xlink:href="#DejaVuSans-30"/>
       <use x="127.246094" xlink:href="#DejaVuSans-30"/>
       <use x="190.869141" xlink:href="#DejaVuSans-30"/>
      </g>
     </g>
    </g>
   </g>
   <g id="line2d_14">
    <path clip-path="url(#pa9a9a7959f)" d="M 73.832727 179.818008 
L 73.957259 180.433002 
L 74.081791 180.467515 
L 74.206323 178.408584 
L 74.330855 181.734301 
L 74.455387 181.651488 
L 74.579918 181.906079 
L 74.70445 183.665937 
L 74.828982 183.330068 
L 74.953514 181.784147 
L 75.078046 181.775713 
L 75.32711 183.488029 
L 75.451641 183.103091 
L 75.576173 185.012476 
L 75.700705 185.007112 
L 75.825237 185.291601 
L 75.949769 184.702685 
L 76.198833 188.045271 
L 76.323364 187.921046 
L 76.447896 187.544532 
L 76.572428 189.338136 
L 76.69696 189.232314 
L 76.946024 190.044378 
L 77.070555 188.404149 
L 77.195087 190.628707 
L 77.319619 189.961565 
L 77.693215 192.912304 
L 77.942278 189.43016 
L 78.191342 189.454695 
L 78.440406 187.753116 
L 78.564938 190.026743 
L 78.68947 189.626463 
L 78.814001 191.420066 
L 79.063065 187.594378 
L 79.312129 189.430919 
L 79.436661 190.297434 
L 79.685724 187.216338 
L 79.810256 188.989236 
L 80.05932 185.97945 
L 80.308384 187.47399 
L 80.557447 186.525429 
L 80.806511 188.941694 
L 81.180107 186.985523 
L 81.304639 188.930189 
L 81.42917 188.572079 
L 81.678234 186.335248 
L 81.927298 187.905329 
L 82.176362 188.305993 
L 82.300893 191.23143 
L 82.425425 190.811203 
L 82.549957 188.857335 
L 82.674489 192.176154 
L 82.799021 191.598733 
L 83.048085 190.091163 
L 83.172616 194.615427 
L 83.297148 193.01353 
L 83.42168 197.399762 
L 83.670744 189.831976 
L 83.919808 194.958963 
L 84.044339 195.139165 
L 84.293403 193.058002 
L 84.417935 201.233885 
L 84.542467 196.63524 
L 84.666999 197.041652 
L 85.165126 209.681226 
L 85.289658 210.546969 
L 85.538722 217.120191 
L 85.663253 209.135248 
L 85.787785 209.544729 
L 85.912317 216.459184 
L 86.036849 213.500011 
L 86.161381 213.950904 
L 86.285913 210.511694 
L 86.410445 212.839009 
L 86.534976 217.307292 
L 86.659508 216.438483 
L 86.908572 220.977318 
L 87.033104 213.95397 
L 87.157636 214.753 
L 87.406699 211.788458 
L 87.531231 211.976331 
L 87.655763 208.951208 
L 87.904827 216.686166 
L 88.029359 214.683989 
L 88.278422 217.140893 
L 88.402954 220.718131 
L 88.527486 216.194634 
L 88.77655 220.836988 
L 88.901082 220.195156 
L 89.150145 228.375639 
L 89.523741 220.327815 
L 89.772805 217.676907 
L 89.897337 217.348704 
L 90.021868 223.485598 
L 90.270932 219.304106 
L 90.395464 221.261044 
L 90.644528 216.316556 
L 90.76906 217.92919 
L 90.893591 217.118656 
L 91.018123 219.085558 
L 91.142655 218.614732 
L 91.267187 219.470506 
L 91.391719 216.049703 
L 91.516251 216.721442 
L 91.640783 218.18914 
L 91.765314 217.989768 
L 92.014378 219.88536 
L 92.263442 219.324428 
L 92.387974 219.146141 
L 92.512505 219.405328 
L 92.886101 215.716515 
L 93.010633 214.621876 
L 93.135165 214.955443 
L 93.259697 214.399495 
L 93.384228 216.550437 
L 93.50876 216.314258 
L 93.757824 219.340912 
L 93.882356 219.223591 
L 94.006888 221.460416 
L 94.13142 221.374532 
L 94.255951 220.885298 
L 94.505015 224.328342 
L 94.629547 221.642921 
L 94.754079 222.619855 
L 95.003143 221.924344 
L 95.127674 221.223466 
L 95.252206 219.047217 
L 95.50127 222.74408 
L 95.625802 222.77782 
L 95.750334 221.77558 
L 95.874866 222.257148 
L 96.248461 219.369284 
L 96.372993 222.645929 
L 96.622057 222.030166 
L 96.746589 222.670463 
L 96.995652 225.559094 
L 97.120184 225.616606 
L 97.369248 227.025262 
L 97.49378 229.074215 
L 97.618312 226.788312 
L 97.867375 228.345732 
L 97.991907 229.706078 
L 98.240971 232.67829 
L 98.365503 231.409964 
L 98.490035 233.734977 
L 98.614566 233.671329 
L 98.739098 234.196602 
L 98.86363 230.893893 
L 98.988162 230.758931 
L 99.237226 228.060475 
L 99.361758 228.264449 
L 99.610821 225.16188 
L 99.859885 227.141054 
L 99.984417 222.971062 
L 100.108949 224.259326 
L 100.23348 223.664269 
L 100.358012 222.208838 
L 100.607076 225.68485 
L 100.85614 223.878979 
L 101.105203 221.469618 
L 101.229735 222.00793 
L 101.354267 223.536211 
L 101.478799 222.799294 
L 101.603331 220.391463 
L 101.852395 220.225063 
L 101.976926 221.5463 
L 102.350522 219.391525 
L 102.475054 222.244876 
L 102.599586 220.888364 
L 102.724118 221.389102 
L 102.973181 219.649945 
L 103.222245 220.49882 
L 103.346777 219.081725 
L 103.471309 219.145373 
L 103.595841 218.784197 
L 103.720372 216.505197 
L 103.844904 216.768985 
L 103.969436 215.562766 
L 104.093968 216.493692 
L 104.2185 214.81895 
L 104.343032 216.351832 
L 104.467564 216.42008 
L 104.592095 218.293432 
L 104.716627 217.591786 
L 104.841159 218.37318 
L 104.965691 216.315789 
L 105.090223 216.436948 
L 105.214755 216.794291 
L 105.339287 217.95526 
L 105.463818 218.057249 
L 105.712882 216.268246 
L 105.837414 217.592553 
L 106.335541 213.629605 
L 106.460073 214.624942 
L 106.584605 213.804438 
L 106.833669 214.059025 
L 106.958201 213.806741 
L 107.082733 214.058257 
L 107.331796 213.516879 
L 107.58086 216.14249 
L 107.705392 216.239106 
L 107.954455 215.43241 
L 108.078987 217.594088 
L 108.203519 217.436123 
L 108.328051 216.988295 
L 108.452583 215.50679 
L 108.577115 215.611077 
L 108.701647 214.972315 
L 108.826178 215.578871 
L 108.95071 215.271374 
L 109.075242 217.334901 
L 109.324306 217.158533 
L 109.448838 218.515041 
L 109.57337 218.627766 
L 109.697901 218.388518 
L 109.822433 218.660739 
L 110.196029 214.554395 
L 110.320561 213.936335 
L 110.445093 213.963939 
L 110.694156 212.875047 
L 110.818688 212.914156 
L 111.067752 210.982525 
L 111.192284 210.758614 
L 111.441347 211.297689 
L 111.565879 210.408174 
L 111.690411 210.352198 
L 111.939475 208.958874 
L 112.188539 209.616043 
L 112.31307 208.588501 
L 112.437602 208.847688 
L 112.562134 209.82539 
L 112.811198 208.415966 
L 112.93573 209.078499 
L 113.060262 210.946487 
L 113.558389 207.388419 
L 113.682921 207.431366 
L 114.056516 207.016511 
L 114.181048 207.173704 
L 114.30558 207.81094 
L 114.554644 209.794715 
L 115.301835 206.007367 
L 115.426367 206.115492 
L 115.67543 205.356334 
L 115.799962 204.119446 
L 115.924494 204.370199 
L 116.049026 204.154717 
L 116.173558 204.433842 
L 116.29809 203.897065 
L 116.671685 205.988964 
L 116.796217 204.562673 
L 117.045281 205.015101 
L 117.294345 207.45897 
L 117.66794 204.97676 
L 118.041536 203.5497 
L 118.166068 203.779748 
L 118.415131 201.98767 
L 118.539663 202.66861 
L 118.664195 201.88415 
L 118.913259 203.150178 
L 119.037791 202.267563 
L 119.535918 206.123159 
L 119.66045 204.322656 
L 119.784982 206.616998 
L 120.034045 205.909979 
L 120.158577 205.826398 
L 120.532173 202.254533 
L 120.656705 202.259896 
L 120.781237 201.838143 
L 120.905768 202.702356 
L 121.0303 202.223858 
L 121.154832 201.010736 
L 121.403896 200.972395 
L 121.65296 202.384889 
L 121.777491 201.245389 
L 121.902023 201.290629 
L 122.026555 200.908752 
L 122.275619 202.376455 
L 122.400151 202.058989 
L 122.524682 201.044481 
L 122.649214 201.015342 
L 122.773746 201.730018 
L 122.898278 201.265327 
L 123.02281 201.474669 
L 123.147342 202.341952 
L 123.520937 201.23235 
L 123.645469 200.641899 
L 123.770001 201.115791 
L 123.894533 201.019938 
L 124.019065 202.024485 
L 124.641724 199.693337 
L 124.890788 199.593646 
L 125.139851 199.697933 
L 125.264383 200.565984 
L 125.637979 198.923442 
L 125.762511 198.875899 
L 126.136106 198.121347 
L 126.260638 198.946451 
L 126.509702 198.007858 
L 126.634234 198.961016 
L 126.883297 197.872129 
L 127.132361 200.460161 
L 127.256893 202.355749 
L 127.381425 201.970802 
L 127.505957 202.324307 
L 127.630489 201.915593 
L 127.879552 203.7276 
L 128.128616 201.469305 
L 128.253148 201.932461 
L 128.37768 204.552703 
L 128.502212 204.316525 
L 128.626743 205.04117 
L 128.751275 203.984484 
L 128.875807 204.167756 
L 129.000339 203.374862 
L 129.124871 203.601839 
L 129.622998 201.20628 
L 129.74753 201.020705 
L 129.872062 201.10966 
L 129.996594 202.137974 
L 130.121126 201.322071 
L 130.245657 201.498445 
L 130.370189 201.379583 
L 130.619253 200.319827 
L 130.743785 200.283021 
L 130.868317 199.962493 
L 130.992849 198.75628 
L 131.11738 198.771612 
L 131.241912 198.622085 
L 131.490976 197.871361 
L 131.74004 197.850655 
L 131.989103 196.646745 
L 132.113635 196.675884 
L 132.238167 197.130606 
L 132.487231 196.036346 
L 132.736295 196.683551 
L 132.860826 196.617605 
L 132.985358 196.1092 
L 133.10989 196.105362 
L 133.234422 196.39982 
L 133.483486 195.376879 
L 133.732549 194.865413 
L 133.857081 195.401422 
L 133.981613 195.09546 
L 134.230677 194.325565 
L 134.355209 194.262681 
L 134.479741 193.238972 
L 134.604272 193.160754 
L 134.728804 194.659132 
L 135.351464 192.730567 
L 135.475995 193.131614 
L 135.600527 195.304802 
L 135.725059 194.718179 
L 135.849591 193.535732 
L 135.974123 195.07629 
L 136.098655 193.882339 
L 136.596782 200.889581 
L 136.721314 197.143645 
L 136.845846 197.44577 
L 136.970378 196.228052 
L 137.468505 200.128888 
L 137.593037 200.569812 
L 137.717569 203.902438 
L 137.842101 202.667852 
L 137.966632 203.744467 
L 138.091164 203.715328 
L 138.215696 204.181563 
L 138.340228 201.489234 
L 138.713824 203.969919 
L 138.962887 201.506879 
L 139.211951 205.521971 
L 139.336483 204.63782 
L 139.461015 205.121691 
L 139.710078 202.368021 
L 139.83461 202.519083 
L 139.959142 200.556015 
L 140.083674 200.603557 
L 140.332738 200.381176 
L 140.45727 200.711682 
L 140.830865 203.741407 
L 140.955397 203.505986 
L 141.079929 203.673926 
L 141.328993 207.037217 
L 141.578056 207.660641 
L 141.82712 207.240418 
L 142.076184 204.00519 
L 142.574311 202.09426 
L 142.698843 201.99381 
L 142.823375 204.416974 
L 143.072439 202.990682 
L 143.19697 204.055803 
L 143.446034 201.519909 
L 143.570566 200.572882 
L 143.695098 200.662604 
L 143.944162 201.60656 
L 144.068693 201.601197 
L 144.193225 199.74088 
L 144.317757 200.154967 
L 144.442289 199.635058 
L 144.566821 199.744708 
L 144.691353 200.064477 
L 144.815885 199.592878 
L 144.940416 200.10895 
L 145.18948 202.980713 
L 145.314012 203.315048 
L 145.438544 203.305079 
L 145.687607 202.17171 
L 145.936671 203.894771 
L 146.061203 204.226803 
L 146.185735 205.414613 
L 146.310267 205.149295 
L 146.434799 205.771189 
L 146.55933 204.439215 
L 146.683862 205.640823 
L 146.808394 205.60939 
L 147.057458 202.483045 
L 147.18199 201.378048 
L 147.431053 202.349618 
L 147.929181 200.044539 
L 148.053713 200.105889 
L 148.178245 199.801462 
L 148.427308 199.761585 
L 148.55184 198.448782 
L 148.800904 199.09521 
L 148.925436 199.819865 
L 149.049968 197.991749 
L 149.174499 198.490952 
L 149.299031 198.066138 
L 149.548095 198.564574 
L 149.672627 198.178091 
L 149.797159 198.884333 
L 149.921691 197.065428 
L 150.170754 197.271699 
L 150.295286 196.728023 
L 150.419818 196.714993 
L 150.668882 195.734989 
L 150.793414 196.063951 
L 150.917945 195.881455 
L 151.042477 195.228119 
L 151.167009 196.670511 
L 151.416073 195.569353 
L 151.665137 195.158336 
L 151.789668 195.156801 
L 151.9142 195.401422 
L 152.163264 195.339305 
L 152.287796 195.253421 
L 152.53686 194.212077 
L 152.785923 192.073402 
L 152.910455 192.272775 
L 153.034987 193.028095 
L 153.159519 192.620916 
L 153.284051 193.017358 
L 153.408582 194.116224 
L 153.533114 194.228177 
L 153.657646 195.716586 
L 153.782178 195.697416 
L 154.031242 194.076347 
L 154.155774 194.221278 
L 154.280305 195.533314 
L 154.404837 194.18217 
L 154.902965 195.547112 
L 155.152028 192.404666 
L 155.27656 192.160821 
L 155.401092 192.282744 
L 155.525624 192.234433 
L 156.023751 190.953073 
L 156.148283 190.866421 
L 156.272815 191.35412 
L 156.521879 190.688513 
L 156.646411 190.445435 
L 156.895474 189.543649 
L 157.020006 189.702377 
L 157.767197 189.635664 
L 157.891729 188.544474 
L 158.016261 188.672537 
L 158.140793 188.184829 
L 158.514389 188.707041 
L 158.63892 188.344334 
L 158.763452 187.464021 
L 158.887984 187.632719 
L 159.012516 186.905771 
L 159.26158 186.769274 
L 159.510643 187.901107 
L 159.635175 187.664161 
L 159.759707 187.08981 
L 159.884239 187.063732 
L 160.133303 186.422668 
L 160.257835 188.201706 
L 160.382366 187.451749 
L 160.506898 185.805379 
L 160.63143 186.078364 
L 160.880494 185.553859 
L 161.129557 184.503313 
L 161.254089 184.786267 
L 161.378621 184.710352 
L 161.627685 183.909024 
L 161.752217 184.23952 
L 162.00128 183.287121 
L 162.125812 183.089284 
L 162.499408 185.819945 
L 162.62394 185.919636 
L 162.873003 184.300103 
L 162.997535 185.902 
L 163.122067 185.740201 
L 163.246599 184.012543 
L 163.495663 185.610603 
L 163.620195 184.71419 
L 163.744726 184.852212 
L 163.869258 186.762375 
L 163.99379 186.059193 
L 164.242854 187.77765 
L 164.367386 189.693943 
L 164.740981 186.511622 
L 164.865513 186.865127 
L 164.990045 186.576032 
L 165.239109 185.329175 
L 165.363641 185.606007 
L 165.612704 184.22035 
L 165.737236 184.406692 
L 165.861768 183.902116 
L 166.110832 183.885248 
L 166.235364 183.662099 
L 166.359895 183.817767 
L 166.858023 185.2824 
L 166.982555 185.273966 
L 167.107087 184.878282 
L 167.231618 185.993248 
L 167.35615 185.419664 
L 167.605214 183.521006 
L 167.854278 183.68434 
L 168.227873 181.749643 
L 168.352405 181.509627 
L 168.601469 182.045637 
L 168.850532 183.695844 
L 169.099596 182.837763 
L 169.224128 182.004225 
L 169.34866 183.160602 
L 169.473192 182.656793 
L 169.722255 184.127567 
L 169.846787 184.165141 
L 170.095851 183.044044 
L 170.469447 185.139004 
L 170.843042 184.002574 
L 171.092106 182.921354 
L 171.216638 185.271663 
L 171.34117 185.39513 
L 171.714765 187.542239 
L 171.839297 187.954781 
L 171.963829 187.230904 
L 172.088361 188.612723 
L 172.212893 188.547545 
L 172.337424 187.317555 
L 172.461956 189.039072 
L 172.71102 188.572846 
L 172.835552 188.046806 
L 172.960084 186.730932 
L 173.333679 188.806732 
L 173.831807 184.80467 
L 173.956339 183.3454 
L 174.205402 183.482665 
L 174.329934 183.379913 
L 174.454466 182.306359 
L 174.578998 183.028702 
L 174.828062 185.341447 
L 174.952593 185.028586 
L 175.077125 185.707224 
L 175.201657 185.149741 
L 175.326189 185.970249 
L 175.450721 184.337676 
L 175.575253 184.405925 
L 175.699784 183.028702 
L 175.824316 182.935151 
L 176.07338 183.938164 
L 176.322444 186.336016 
L 176.571507 187.388874 
L 176.696039 189.910951 
L 176.820571 189.428625 
L 176.945103 194.050278 
L 177.069635 194.103184 
L 177.194167 200.231649 
L 177.318699 196.162106 
L 177.44323 200.131958 
L 177.692294 195.680538 
L 177.816826 193.711338 
L 177.941358 194.610822 
L 178.06589 194.52417 
L 178.314953 199.919546 
L 178.439485 199.897315 
L 178.688549 195.77333 
L 178.813081 197.178916 
L 178.937613 195.834671 
L 179.062145 193.282686 
L 179.186676 193.064901 
L 179.311208 192.607109 
L 179.43574 193.716702 
L 179.684804 196.386406 
L 179.809336 196.721124 
L 179.933868 194.161464 
L 180.058399 195.136862 
L 180.182931 197.565399 
L 180.431995 196.136037 
L 180.805591 192.827955 
L 181.054654 193.895378 
L 181.303718 199.457149 
L 181.42825 198.930341 
L 181.677314 195.943563 
L 181.801845 197.808476 
L 181.926377 197.092265 
L 182.175441 201.782934 
L 182.549037 196.74183 
L 182.673568 197.471081 
L 182.7981 194.447488 
L 182.922632 194.397642 
L 183.047164 193.499694 
L 183.171696 193.774981 
L 183.296228 192.17079 
L 183.420759 193.989696 
L 183.545291 192.109441 
L 183.669823 193.298019 
L 183.794355 192.875498 
L 184.043419 189.900224 
L 184.167951 191.828013 
L 184.292482 190.834979 
L 184.417014 187.569076 
L 184.541546 187.530735 
L 184.79061 192.653884 
L 185.039674 189.366508 
L 185.164205 189.973836 
L 185.413269 188.233907 
L 185.537801 191.824184 
L 185.662333 191.01212 
L 185.786865 189.159469 
L 185.911397 190.085022 
L 186.035928 189.622625 
L 186.284992 192.818753 
L 186.409524 192.855559 
L 186.78312 196.985675 
L 187.032183 197.224924 
L 187.156715 194.626922 
L 187.281247 194.424489 
L 187.405779 190.454637 
L 187.654843 190.660141 
L 187.903906 189.572021 
L 188.028438 189.377245 
L 188.15297 191.421601 
L 188.277502 189.823542 
L 188.651097 193.149259 
L 188.900161 192.548062 
L 189.024693 193.645392 
L 189.149225 190.888653 
L 189.273757 190.703087 
L 189.647352 189.042143 
L 189.771884 189.038305 
L 189.896416 190.249124 
L 190.020948 189.223112 
L 190.14548 189.638734 
L 190.394543 188.146488 
L 190.519075 188.128084 
L 190.643607 187.839758 
L 190.768139 188.088976 
L 190.892671 187.867372 
L 191.017203 186.994725 
L 191.141734 186.96405 
L 191.266266 186.732468 
L 191.390798 187.224005 
L 191.639862 186.872793 
L 191.888926 185.275501 
L 192.137989 185.160477 
L 192.262521 185.263997 
L 192.387053 184.389815 
L 192.636117 185.135176 
L 192.88518 185.435765 
L 193.258776 182.944353 
L 193.383308 182.988067 
L 193.756903 182.403747 
L 193.881435 183.117656 
L 194.005967 182.417545 
L 194.130499 182.514933 
L 194.255031 183.072416 
L 194.504095 181.692132 
L 194.753158 181.616984 
L 194.87769 181.965884 
L 195.126754 181.346293 
L 195.251286 181.204432 
L 195.375818 180.852453 
L 195.500349 181.350889 
L 195.624881 180.705996 
L 195.873945 181.454418 
L 195.998477 183.062447 
L 196.372072 180.952912 
L 196.496604 180.936044 
L 196.621136 179.029719 
L 196.745668 179.157773 
L 196.994732 178.399382 
L 197.119264 177.971498 
L 197.368327 178.497538 
L 197.492859 179.272797 
L 197.617391 178.940765 
L 197.741923 177.453123 
L 198.115518 178.467631 
L 198.24005 178.069653 
L 198.364582 177.259115 
L 198.489114 177.69314 
L 198.613646 178.798904 
L 198.738178 178.866385 
L 198.987241 180.084103 
L 199.111773 181.894574 
L 199.360837 179.672318 
L 199.485369 180.999687 
L 199.609901 181.052603 
L 199.734432 179.426161 
L 200.23256 181.254278 
L 200.357092 180.868563 
L 200.606155 178.720687 
L 200.730687 178.4615 
L 200.855219 178.879415 
L 200.979751 178.272864 
L 201.104283 178.542011 
L 201.228815 179.365589 
L 201.353347 181.088641 
L 201.477878 181.051835 
L 201.726942 182.202072 
L 201.851474 181.940582 
L 201.976006 182.293319 
L 202.22507 184.03631 
L 202.349601 184.485668 
L 202.598665 186.753941 
L 202.723197 185.161245 
L 202.847729 185.112167 
L 203.096793 184.801599 
L 203.221324 185.020919 
L 203.470388 183.901348 
L 203.843984 188.07134 
L 203.968516 188.060604 
L 204.093047 187.499292 
L 204.217579 185.227191 
L 204.342111 185.237927 
L 204.466643 184.419722 
L 204.591175 185.702618 
L 204.715707 184.533211 
L 204.840239 185.246361 
L 205.213834 182.953554 
L 205.338366 181.94135 
L 205.462898 182.116955 
L 205.58743 184.431227 
L 205.711962 183.701976 
L 205.836493 185.335316 
L 206.085557 183.945062 
L 206.210089 184.160535 
L 206.334621 181.620813 
L 206.459153 181.363928 
L 206.583684 180.71136 
L 206.832748 181.2052 
L 207.081812 182.364638 
L 207.206344 183.207378 
L 207.330876 183.208913 
L 207.455407 183.721914 
L 207.579939 182.033365 
L 207.704471 182.274149 
L 208.078067 180.520422 
L 208.451662 183.449687 
L 208.576194 183.481897 
L 208.825258 179.795009 
L 208.94979 179.84638 
L 209.323385 181.403037 
L 209.572449 179.161611 
L 209.821513 178.548919 
L 209.946045 178.504437 
L 210.070576 178.269026 
L 210.31964 178.417785 
L 210.444172 178.295095 
L 210.693236 177.326596 
L 210.817768 177.328898 
L 210.942299 177.70924 
L 211.066831 177.684706 
L 211.191363 178.559655 
L 211.315895 177.865675 
L 211.689491 177.914753 
L 211.814022 178.759028 
L 211.938554 178.214584 
L 212.31215 178.455368 
L 212.561214 175.81135 
L 212.685745 176.489229 
L 212.934809 175.915637 
L 213.183873 173.675745 
L 213.432936 174.170353 
L 213.557468 174.037684 
L 213.806532 174.1067 
L 213.931064 174.356686 
L 214.180128 176.164096 
L 214.304659 175.103572 
L 214.429191 175.600473 
L 214.802787 174.809114 
L 214.927319 174.010847 
L 215.051851 174.046886 
L 215.176382 174.434136 
L 215.425446 176.222366 
L 215.549978 176.200902 
L 215.67451 176.526803 
L 216.048105 174.048421 
L 216.172637 174.322182 
L 216.297169 176.174065 
L 216.421701 176.125755 
L 216.670765 178.04818 
L 216.795297 177.724582 
L 217.04436 177.797942 
L 217.293424 177.78669 
L 217.417956 176.603485 
L 217.542488 177.630264 
L 217.66702 177.395612 
L 217.791551 176.542136 
L 218.040615 180.443739 
L 218.289679 180.250498 
L 218.414211 180.672251 
L 218.663274 182.297925 
L 218.787806 181.795651 
L 218.912338 179.724457 
L 219.03687 179.653906 
L 219.161402 179.406991 
L 219.410466 178.017505 
L 219.534997 178.236816 
L 219.659529 178.800439 
L 219.908593 177.49607 
L 220.033125 177.478425 
L 220.282189 178.178536 
L 220.531252 177.650203 
L 221.02938 176.535237 
L 221.278443 177.677807 
L 221.527507 175.131177 
L 221.652039 175.973148 
L 221.776571 175.3689 
L 222.025634 176.674795 
L 222.39923 177.331201 
L 222.523762 178.532809 
L 222.897357 173.93263 
L 223.021889 174.166515 
L 223.146421 173.622071 
L 223.395485 174.336748 
L 223.520017 174.039987 
L 223.644549 173.188814 
L 224.142676 173.149705 
L 224.39174 172.125996 
L 224.765335 171.448884 
L 224.889867 171.448126 
L 225.014399 170.823929 
L 225.138931 171.037099 
L 225.263463 170.449719 
L 225.512526 171.195837 
L 225.637058 170.040995 
L 225.76159 171.379877 
L 225.886122 170.185159 
L 226.010654 170.121515 
L 226.135186 170.330857 
L 226.259718 169.675986 
L 226.384249 169.746537 
L 226.633313 169.491956 
L 226.757845 169.411435 
L 226.882377 169.533358 
L 227.131441 168.678356 
L 227.380504 170.865332 
L 227.505036 169.854662 
L 227.629568 171.9826 
L 227.7541 171.285559 
L 227.878632 169.824755 
L 228.003164 169.925204 
L 228.127695 169.65529 
L 228.252227 169.118512 
L 228.501291 167.871655 
L 228.625823 167.65694 
L 228.874886 166.739821 
L 228.999418 167.026613 
L 229.12395 166.870178 
L 229.248482 166.202277 
L 229.373014 166.396285 
L 229.622078 167.344079 
L 229.746609 166.548883 
L 229.871141 167.538846 
L 229.995673 166.688441 
L 230.120205 167.087195 
L 230.244737 166.160865 
L 230.369269 166.231416 
L 230.493801 165.745252 
L 230.742864 166.283555 
L 230.867396 165.663964 
L 230.991928 166.93383 
L 231.11646 166.451495 
L 231.240992 166.965263 
L 231.739119 163.891066 
L 231.863651 164.237673 
L 231.988183 167.035814 
L 232.112715 165.3327 
L 232.361778 167.860151 
L 232.735374 165.009861 
L 232.859906 165.009093 
L 232.984438 164.520626 
L 233.10897 164.744542 
L 233.358033 163.569004 
L 233.482565 164.709271 
L 233.856161 162.040718 
L 234.105224 160.875917 
L 234.229756 161.337537 
L 234.354288 160.798466 
L 234.47882 160.793093 
L 234.727884 158.875265 
L 234.852416 159.5125 
L 234.976947 158.208899 
L 235.101479 158.299379 
L 235.226011 158.0793 
L 235.475075 159.50943 
L 235.599607 159.579214 
L 235.84867 158.777109 
L 235.973202 159.674299 
L 236.097734 159.210367 
L 236.222266 161.025444 
L 236.346798 160.283153 
L 236.47133 160.976366 
L 236.595861 162.700186 
L 236.844925 160.056176 
L 236.969457 160.099881 
L 237.218521 162.422596 
L 237.343053 160.594489 
L 237.467584 161.332941 
L 237.716648 159.409739 
L 238.214776 165.446189 
L 238.588371 162.370457 
L 238.712903 162.901093 
L 238.837435 162.235495 
L 238.961967 162.302976 
L 239.086499 162.200982 
L 239.709158 159.347631 
L 239.958222 157.2335 
L 240.082753 157.056359 
L 240.207285 157.534857 
L 240.705413 156.057185 
L 240.829945 156.297969 
L 240.954476 156.792576 
L 241.20354 156.354713 
L 241.328072 156.839351 
L 241.577136 156.808676 
L 241.826199 154.972894 
L 241.950731 155.166902 
L 242.199795 156.411457 
L 242.324327 155.907658 
L 242.573391 156.521885 
L 242.697922 156.162239 
L 242.822454 156.834746 
L 243.071518 159.101483 
L 243.19605 159.850663 
L 243.320582 159.368337 
L 243.445114 160.100649 
L 243.694177 158.513326 
L 243.818709 159.02863 
L 243.943241 161.045382 
L 244.192305 160.455689 
L 244.316836 160.854443 
L 244.5659 160.332999 
L 244.814964 159.158995 
L 244.939496 159.152087 
L 245.188559 156.942103 
L 245.313091 156.547954 
L 245.437623 156.985808 
L 245.562155 156.635373 
L 245.811219 155.349407 
L 245.935751 153.757479 
L 246.060282 154.001333 
L 246.309346 155.573323 
L 246.55841 156.268829 
L 246.682942 155.816401 
L 246.932005 157.129204 
L 247.056537 156.097829 
L 247.181069 156.18448 
L 247.305601 157.350817 
L 247.430133 156.4429 
L 247.679197 159.130623 
L 247.803728 159.057769 
L 248.052792 155.469036 
L 248.177324 154.936855 
L 248.301856 155.863176 
L 248.55092 153.172391 
L 248.675451 152.302047 
L 248.799983 152.289775 
L 248.924515 151.522183 
L 249.049047 152.157884 
L 249.547174 150.197118 
L 249.796238 151.378787 
L 250.045302 150.505373 
L 250.169834 150.885725 
L 250.294366 150.309071 
L 250.418897 152.098837 
L 250.543429 150.29987 
L 250.667961 150.201714 
L 250.792493 150.523786 
L 251.166089 148.185729 
L 251.539684 149.474766 
L 251.788748 147.681162 
L 251.91328 147.856 
L 252.037811 147.835294 
L 252.162343 147.491759 
L 252.411407 147.600642 
L 252.909534 149.194105 
L 253.158598 147.404339 
L 253.28313 147.845264 
L 253.532194 149.924891 
L 253.656726 149.938698 
L 253.781257 149.078314 
L 253.905789 149.503138 
L 254.030321 147.229501 
L 254.154853 147.310022 
L 254.65298 145.157549 
L 254.777512 144.823973 
L 255.026576 144.896827 
L 255.151108 144.337809 
L 255.400172 145.593868 
L 255.524703 145.640643 
L 255.649235 145.99338 
L 255.773767 145.14144 
L 256.022831 145.122269 
L 256.147363 144.797136 
L 256.271895 146.573872 
L 256.520958 144.336274 
L 256.64549 144.527212 
L 256.770022 145.078564 
L 257.143618 144.606198 
L 257.268149 145.863792 
L 257.517213 149.460191 
L 257.641745 148.62129 
L 257.766277 150.024582 
L 257.890809 148.491701 
L 258.015341 149.381215 
L 258.139872 152.502187 
L 258.264404 151.481549 
L 258.388936 151.754533 
L 258.887064 146.531693 
L 259.011595 146.569266 
L 259.260659 145.083928 
L 259.509723 144.920594 
L 259.634255 145.841551 
L 259.758786 144.995741 
L 259.883318 145.266432 
L 260.00785 144.395321 
L 260.256914 144.583189 
L 260.505978 143.487403 
L 260.630509 144.539484 
L 260.755041 142.378569 
L 260.879573 142.386235 
L 261.128637 142.06187 
L 261.253169 142.128583 
L 261.377701 142.860137 
L 261.502232 142.816432 
L 261.751296 144.892222 
L 262.00036 142.505864 
L 262.124892 143.386177 
L 262.249424 142.524267 
L 262.498487 143.641536 
L 262.623019 143.014269 
L 262.872083 144.285661 
L 263.121147 142.498965 
L 263.37021 141.075735 
L 263.494742 141.239069 
L 263.743806 144.592391 
L 263.868338 144.061754 
L 263.99287 142.511228 
L 264.241933 146.843028 
L 264.740061 143.073316 
L 264.989124 142.533469 
L 265.113656 141.946078 
L 265.238188 142.26508 
L 265.36272 142.018165 
L 265.487252 143.184502 
L 265.985379 141.62938 
L 266.109911 141.824156 
L 266.234443 141.554232 
L 266.358975 142.853238 
L 266.483507 142.04884 
L 266.608038 142.246677 
L 266.73257 142.028134 
L 266.857102 140.63481 
L 266.981634 140.57347 
L 267.106166 141.257472 
L 267.230698 142.613221 
L 267.479761 141.522032 
L 267.604293 142.461392 
L 267.853357 140.953812 
L 268.226953 139.464635 
L 268.351484 139.627969 
L 268.600548 138.570525 
L 268.72508 138.463168 
L 268.849612 138.519144 
L 268.974144 138.240019 
L 269.223207 136.58675 
L 269.347739 136.446415 
L 269.472271 136.483221 
L 269.596803 137.012332 
L 269.721335 138.069019 
L 269.970399 137.480861 
L 270.09493 137.158031 
L 270.343994 135.816855 
L 270.468526 135.556901 
L 270.593058 135.576839 
L 270.71759 136.545339 
L 270.842122 135.813018 
L 270.966653 135.990158 
L 271.091185 135.703367 
L 271.215717 135.759344 
L 271.340249 134.755573 
L 271.464781 134.655882 
L 271.589313 133.826182 
L 271.838376 134.423532 
L 271.962908 135.49249 
L 272.08744 134.793147 
L 272.211972 135.418101 
L 272.336504 135.196497 
L 272.461036 134.465711 
L 272.585568 134.758634 
L 272.710099 134.122943 
L 272.834631 135.921142 
L 272.959163 134.379827 
L 273.083695 134.731797 
L 273.332759 133.705785 
L 273.457291 133.631406 
L 273.581822 134.370626 
L 273.706354 134.326911 
L 273.830886 135.013992 
L 273.955418 135.004791 
L 274.204482 138.449361 
L 274.329013 137.388078 
L 274.453545 138.828177 
L 274.578077 138.825874 
L 274.702609 139.644079 
L 274.951673 137.546807 
L 275.076205 137.789893 
L 275.325268 136.146584 
L 275.4498 136.155786 
L 275.698864 134.12064 
L 275.947928 133.294768 
L 276.072459 133.599196 
L 276.321523 132.708146 
L 276.446055 132.700479 
L 276.570587 132.959667 
L 276.695119 132.451262 
L 277.068714 132.654472 
L 277.193246 132.889883 
L 277.317778 132.118462 
L 277.44231 132.591587 
L 277.566842 133.596135 
L 277.815905 132.905225 
L 278.064969 133.926631 
L 278.314033 132.589294 
L 278.438565 131.838569 
L 278.563097 131.912182 
L 278.81216 134.030918 
L 278.936692 132.840037 
L 279.061224 135.317652 
L 279.185756 134.024787 
L 279.43482 134.834549 
L 279.559351 136.838262 
L 279.683883 136.837494 
L 279.808415 135.171186 
L 279.932947 135.407374 
L 280.057479 137.686374 
L 280.182011 135.095271 
L 280.555606 142.314926 
L 280.680138 142.087948 
L 280.80467 143.254286 
L 280.929202 143.23358 
L 281.302797 137.212472 
L 281.427329 138.299066 
L 281.676393 135.425777 
L 281.800925 135.651986 
L 281.925457 133.85608 
L 282.049988 134.066957 
L 282.299052 131.325559 
L 282.423584 131.343962 
L 282.548116 131.781825 
L 282.79718 130.316425 
L 282.921711 130.261974 
L 283.170775 129.666917 
L 283.295307 129.776577 
L 283.668903 129.541166 
L 283.793434 128.737526 
L 283.917966 128.973714 
L 284.042498 128.664682 
L 284.291562 127.387159 
L 284.416094 127.569654 
L 284.540626 127.124892 
L 284.789689 127.52901 
L 284.914221 128.611775 
L 285.163285 127.009868 
L 285.287817 127.194685 
L 285.412349 126.930116 
L 285.53688 128.084958 
L 285.661412 128.122532 
L 285.785944 130.705201 
L 285.910476 130.000493 
L 286.15954 133.504878 
L 286.284072 134.800045 
L 286.657667 127.292073 
L 286.906731 126.40869 
L 287.031263 126.430931 
L 287.404858 125.764546 
L 287.52939 126.548239 
L 287.653922 128.193092 
L 287.902986 128.246766 
L 288.152049 132.509541 
L 288.401113 127.944642 
L 288.774709 130.943682 
L 289.023772 133.27176 
L 289.148304 131.220504 
L 289.397368 130.980488 
L 289.5219 130.246641 
L 289.646432 127.867192 
L 289.770963 128.735991 
L 289.895495 128.331873 
L 290.144559 132.544044 
L 290.269091 131.080179 
L 290.393623 133.093861 
L 290.642686 128.873256 
L 290.767218 129.526592 
L 290.89175 127.915493 
L 291.140814 129.125544 
L 291.265346 127.450025 
L 291.389878 127.45463 
L 291.638941 125.272251 
L 291.888005 125.015357 
L 292.012537 125.06598 
L 292.137069 125.23698 
L 292.261601 124.251603 
L 292.386132 124.30069 
L 292.510664 123.854393 
L 292.759728 124.217867 
L 292.88426 124.696365 
L 293.008792 123.707936 
L 293.257855 125.154157 
L 293.382387 124.961683 
L 293.506919 127.245289 
L 293.631451 126.618799 
L 293.880515 129.62398 
L 294.005047 127.652477 
L 294.129578 128.614846 
L 294.25411 126.483837 
L 294.378642 127.013706 
L 294.503174 125.079777 
L 294.627706 125.864237 
L 294.752238 124.420301 
L 294.87677 124.702505 
L 295.001301 125.693237 
L 295.250365 128.403969 
L 295.374897 128.030516 
L 295.499429 126.096587 
L 295.748493 128.13251 
L 296.122088 126.527533 
L 296.24662 126.856504 
L 296.495684 125.71778 
L 296.620216 124.883466 
L 296.744747 125.621927 
L 296.869279 125.360428 
L 296.993811 124.53304 
L 297.118343 124.658791 
L 297.242875 126.484605 
L 297.367407 125.01077 
L 297.491938 125.249242 
L 297.741002 124.049937 
L 297.865534 123.684928 
L 297.990066 124.357434 
L 298.114598 123.909602 
L 298.23913 124.516154 
L 298.363661 126.152564 
L 298.612725 123.930308 
L 298.861789 126.56359 
L 298.986321 125.961625 
L 299.110853 123.806841 
L 299.359916 125.108907 
L 299.484448 125.157995 
L 299.60898 123.423429 
L 299.733512 123.298445 
L 299.858044 122.802312 
L 300.107107 123.059187 
L 300.231639 122.678078 
L 300.356171 123.043087 
L 300.605235 124.719373 
L 300.729767 123.240933 
L 300.854299 123.447205 
L 300.97883 124.474761 
L 301.103362 124.141952 
L 301.227894 124.305277 
L 301.352426 123.962509 
L 301.60149 125.591243 
L 301.726022 126.630294 
L 301.850553 126.56359 
L 302.099617 124.362021 
L 302.348681 126.235387 
L 302.722276 123.412701 
L 302.846808 124.275379 
L 303.095872 123.185724 
L 303.344936 124.864295 
L 303.469468 124.92718 
L 303.593999 128.289713 
L 303.718531 127.870243 
L 303.843063 126.772932 
L 303.967595 126.822 
L 304.216659 127.436995 
L 304.341191 126.472324 
L 304.465722 129.13014 
L 304.590254 128.7751 
L 304.96385 124.355132 
L 305.088382 124.473993 
L 305.337445 122.998624 
L 305.461977 122.872854 
L 305.835573 124.876576 
L 306.084636 127.522888 
L 306.3337 124.384262 
L 306.458232 124.379675 
L 306.831828 125.553669 
L 306.956359 125.053698 
L 307.205423 126.761418 
L 307.329955 124.720909 
L 307.454487 126.262982 
L 307.579019 126.111152 
L 307.703551 126.31514 
L 307.952614 124.854335 
L 308.077146 125.277624 
L 308.201678 126.604983 
L 308.450742 134.941906 
L 308.699805 142.861672 
L 308.948869 133.65594 
L 309.073401 133.563157 
L 309.197933 134.842983 
L 309.322465 139.315876 
L 309.446997 136.631223 
L 309.571528 136.457152 
L 309.69606 138.750727 
L 309.945124 135.055395 
L 310.069656 137.154193 
L 310.31872 135.696459 
L 310.443251 136.311453 
L 310.692315 133.069317 
L 310.816847 133.461173 
L 310.941379 135.928041 
L 311.065911 135.242505 
L 311.314974 137.405714 
L 311.564038 137.974701 
L 311.68857 141.775846 
L 311.813102 141.597947 
L 311.937634 138.841974 
L 312.062165 138.551354 
L 312.311229 133.702715 
L 312.435761 134.249461 
L 312.809357 131.567878 
L 312.933888 131.370808 
L 313.182952 133.151373 
L 313.432016 130.170726 
L 313.556548 130.128547 
L 313.68108 130.35016 
L 313.805611 131.25732 
L 314.054675 126.947002 
L 314.303739 127.657083 
L 314.428271 125.781414 
L 314.552803 125.85351 
L 314.677334 126.624153 
L 314.926398 124.290712 
L 315.175462 125.046809 
L 315.299994 125.102786 
L 315.424526 126.683968 
L 315.549057 126.443193 
L 315.673589 126.958497 
L 315.922653 130.942914 
L 316.047185 128.630946 
L 316.171717 128.841823 
L 316.296249 126.300556 
L 316.42078 126.479999 
L 316.545312 125.871913 
L 316.669844 126.069741 
L 316.794376 125.874216 
L 317.04344 125.847351 
L 317.167972 125.799817 
L 317.292503 126.543652 
L 317.417035 124.83977 
L 317.666099 128.904689 
L 317.790631 125.678672 
L 318.164226 129.058063 
L 318.288758 128.704558 
L 318.41329 131.761119 
L 318.537822 131.027273 
L 318.786886 127.106489 
L 319.035949 132.28409 
L 319.409545 127.779763 
L 319.534077 128.032819 
L 319.78314 128.377123 
L 319.907672 126.700836 
L 320.654863 133.456567 
L 320.903927 138.688609 
L 321.028459 138.562849 
L 321.152991 137.411845 
L 321.277523 141.123277 
L 321.402055 138.703184 
L 321.526586 141.886273 
L 321.77565 141.809591 
L 321.900182 143.496605 
L 322.024714 142.75585 
L 322.149246 139.848815 
L 322.273778 142.135491 
L 322.398309 140.099568 
L 322.522841 141.685366 
L 322.647373 140.887099 
L 322.771905 137.292225 
L 322.896437 137.358171 
L 323.020969 140.145576 
L 323.270032 139.193186 
L 323.519096 143.948265 
L 323.76816 144.06942 
L 323.892692 145.816249 
L 324.141755 141.897778 
L 324.266287 140.716866 
L 324.390819 138.321307 
L 324.515351 139.010681 
L 324.639883 139.01451 
L 324.764415 136.888875 
L 324.888947 138.746889 
L 325.013478 138.092785 
L 325.13801 136.413447 
L 325.262542 136.693331 
L 325.387074 137.906452 
L 325.636138 133.748732 
L 326.009733 132.574719 
L 326.134265 134.300074 
L 326.258797 133.53325 
L 326.383329 133.509483 
L 326.507861 131.008102 
L 326.756924 131.488125 
L 327.255052 128.752859 
L 327.379584 128.890891 
L 327.504115 129.894671 
L 327.753179 129.911155 
L 327.877711 129.868592 
L 328.126775 127.805842 
L 328.251307 128.128672 
L 328.375838 127.12873 
L 328.50037 127.63868 
L 328.624902 129.245931 
L 328.749434 127.598036 
L 328.873966 129.495917 
L 328.998498 129.059598 
L 329.12303 129.489786 
L 329.372093 126.389519 
L 329.496625 126.361905 
L 329.621157 126.519108 
L 329.870221 124.980086 
L 329.994753 124.857406 
L 330.119284 125.694772 
L 330.243816 125.687096 
L 330.368348 125.977726 
L 330.617412 125.413353 
L 330.866476 127.702313 
L 330.991007 126.465434 
L 331.240071 128.789665 
L 331.364603 128.827258 
L 331.613667 128.209192 
L 331.738199 126.238457 
L 331.86273 127.766733 
L 331.987262 127.793561 
L 332.111794 129.135513 
L 332.236326 127.598036 
L 332.360858 129.089505 
L 332.48539 129.057295 
L 332.609922 129.639313 
L 332.734453 128.69765 
L 332.858985 129.025853 
L 333.108049 125.766849 
L 333.232581 125.800585 
L 333.357113 125.113513 
L 333.606176 125.274554 
L 333.730708 125.092807 
L 333.85524 124.638085 
L 333.979772 125.108159 
L 334.228836 124.111287 
L 334.353368 123.575258 
L 334.477899 123.854393 
L 334.726963 126.647162 
L 334.976027 127.226886 
L 335.100559 126.729217 
L 335.22509 127.248359 
L 335.474154 125.892619 
L 335.598686 126.157169 
L 335.723218 124.02002 
L 335.972282 132.668269 
L 336.345877 125.128846 
L 336.470409 124.815226 
L 336.719473 125.919446 
L 336.844005 125.062142 
L 336.968536 125.202477 
L 337.2176 122.191923 
L 337.342132 121.043221 
L 337.466664 121.02098 
L 337.591196 120.15293 
L 337.715728 120.307062 
L 337.840259 119.912155 
L 337.964791 120.150627 
L 338.089323 119.442082 
L 338.213855 120.044047 
L 338.338387 119.287949 
L 338.462919 119.790223 
L 338.587451 119.736549 
L 338.711982 119.935912 
L 338.961046 119.3976 
L 339.085578 119.609244 
L 339.21011 120.668234 
L 339.334642 120.149859 
L 339.459174 120.114588 
L 339.583705 118.686752 
L 339.708237 118.838601 
L 339.832769 118.773413 
L 339.957301 119.252678 
L 340.081833 118.462845 
L 340.206365 118.596272 
L 340.330897 118.12852 
L 340.455428 119.04871 
L 340.704492 118.368528 
L 340.953556 118.704406 
L 341.078088 118.377738 
L 341.327151 119.484261 
L 341.451683 119.747277 
L 341.576215 118.87771 
L 341.949811 119.607709 
L 342.198874 118.659157 
L 342.323406 118.409939 
L 342.447938 118.434483 
L 342.57247 118.807149 
L 342.697002 122.908892 
L 342.821534 120.514101 
L 342.946065 122.969475 
L 343.070597 123.065328 
L 343.195129 121.417423 
L 343.319661 122.038558 
L 343.568725 121.992541 
L 343.817788 119.12309 
L 344.066852 121.506367 
L 344.315916 119.5686 
L 344.440448 121.120671 
L 344.56498 119.806324 
L 344.814043 121.16974 
L 345.063107 120.381442 
L 345.187639 120.920522 
L 345.312171 120.159838 
L 345.436703 122.224891 
L 345.561234 122.037023 
L 345.685766 122.545418 
L 345.810298 122.51245 
L 345.93483 123.009351 
L 346.183894 121.645167 
L 346.432957 121.885193 
L 346.557489 121.10532 
L 346.931085 122.507845 
L 347.055617 123.016259 
L 347.180149 123.036197 
L 347.553744 125.911022 
L 347.678276 126.177875 
L 347.92734 122.007874 
L 348.176403 119.866906 
L 348.425467 120.118426 
L 348.549999 118.876942 
L 348.674531 119.141493 
L 348.799063 118.360852 
L 348.923595 118.761151 
L 349.172658 117.147749 
L 349.29719 117.011252 
L 349.546254 116.349473 
L 349.670786 117.241299 
L 349.795318 117.015857 
L 350.044381 118.057192 
L 350.168913 117.990488 
L 350.791572 112.808282 
L 350.916104 113.005361 
L 351.040636 111.873528 
L 351.165168 113.287548 
L 351.2897 112.616576 
L 351.414232 112.920236 
L 351.663295 111.94714 
L 351.912359 112.698632 
L 352.285955 112.091313 
L 352.410486 113.545209 
L 352.535018 113.595813 
L 352.65955 114.395605 
L 353.033146 111.947907 
L 353.157678 112.082102 
L 353.282209 111.470177 
L 353.406741 112.089777 
L 353.531273 112.089777 
L 353.655805 111.597463 
L 353.780337 111.971683 
L 353.904869 111.649621 
L 354.153932 112.167227 
L 354.278464 111.860498 
L 354.402996 112.48929 
L 354.527528 111.904961 
L 354.65206 112.373499 
L 354.901124 109.829929 
L 355.025655 109.959537 
L 355.150187 110.112134 
L 355.399251 111.325237 
L 355.648315 111.173407 
L 355.772847 109.902792 
L 355.897378 110.275459 
L 356.146442 110.113669 
L 356.769101 105.928335 
L 356.893633 106.084003 
L 357.142697 105.236658 
L 357.267229 104.691456 
L 357.391761 104.887749 
L 357.516292 104.811834 
L 357.765356 104.356345 
L 357.889888 104.824883 
L 358.01442 102.346501 
L 358.138952 103.423125 
L 358.263484 103.331091 
L 358.637079 104.875486 
L 358.761611 104.730546 
L 359.010675 104.071088 
L 359.135207 104.686083 
L 359.259738 103.166999 
L 359.633334 104.071088 
L 359.757866 106.329383 
L 359.882398 105.989685 
L 360.255993 106.515716 
L 360.505057 105.017357 
L 360.629589 104.485934 
L 360.878653 105.192944 
L 361.003184 105.091736 
L 361.127716 105.644614 
L 361.252248 105.296472 
L 361.37678 105.445999 
L 361.501312 105.321784 
L 361.625844 105.580961 
L 361.874907 107.484993 
L 362.123971 105.946738 
L 362.373035 106.777983 
L 362.497567 105.422991 
L 362.622099 105.971282 
L 362.871162 102.910106 
L 362.995694 102.999069 
L 363.120226 102.897843 
L 363.244758 103.248287 
L 363.493822 102.713813 
L 363.618353 102.94693 
L 363.742885 102.840331 
L 363.867417 102.091142 
L 363.991949 102.084253 
L 364.116481 102.272889 
L 364.241013 102.065082 
L 364.490076 102.734518 
L 364.614608 101.858792 
L 364.73914 101.985329 
L 364.863672 105.331743 
L 365.112736 103.437691 
L 365.361799 102.157865 
L 365.735395 100.823579 
L 366.10899 101.131844 
L 366.358054 99.040712 
L 366.482586 99.268457 
L 366.607118 99.787598 
L 366.856182 99.445598 
L 367.105245 99.783012 
L 367.229777 98.942556 
L 367.354309 99.128908 
L 367.478841 99.547591 
L 367.603373 99.494685 
L 367.727905 97.93726 
L 367.852436 99.197147 
L 368.1015 99.391156 
L 368.350564 99.040712 
L 368.475096 100.550604 
L 368.599628 98.916496 
L 368.724159 100.52606 
L 369.222287 99.541451 
L 369.346819 101.289047 
L 369.595882 99.933306 
L 369.720414 100.078995 
L 369.969478 98.368973 
L 370.09401 97.49173 
L 370.218542 97.501709 
L 370.343074 97.388969 
L 370.467605 96.375229 
L 370.716669 96.474153 
L 370.841201 96.675837 
L 371.090265 96.0685 
L 371.46386 96.645921 
L 371.712924 96.088438 
L 371.837456 96.503302 
L 372.08652 95.83233 
L 372.335583 96.360664 
L 372.460115 99.106667 
L 372.584647 98.868177 
L 372.709179 96.987921 
L 372.833711 97.082239 
L 372.958242 96.813851 
L 373.207306 100.07746 
L 373.331838 99.861211 
L 373.45637 98.010104 
L 373.705434 99.048388 
L 373.954497 98.64427 
L 374.079029 98.486299 
L 374.452625 96.166655 
L 374.701688 97.600613 
L 374.82622 97.01093 
L 374.950752 97.044666 
L 375.075284 97.326103 
L 375.324348 94.638379 
L 375.44888 94.493439 
L 375.573411 94.704316 
L 375.947007 93.858525 
L 376.071539 93.736593 
L 376.196071 94.322439 
L 376.320603 94.198223 
L 376.445134 94.624582 
L 376.569666 94.610765 
L 377.067794 92.135454 
L 377.316857 91.474461 
L 377.441389 90.375595 
L 377.690453 90.938451 
L 377.939517 90.132518 
L 378.064049 90.463024 
L 378.686708 89.606468 
L 378.81124 88.601171 
L 378.935772 89.385631 
L 379.060303 89.067407 
L 379.184835 89.986061 
L 379.309367 89.736843 
L 379.433899 88.151804 
L 379.558431 88.783667 
L 379.932026 88.245354 
L 380.18109 87.380393 
L 380.305622 87.417966 
L 380.430154 87.131175 
L 380.679217 88.057486 
L 380.803749 87.86271 
L 380.928281 88.320502 
L 381.052813 89.413227 
L 381.177345 87.801379 
L 381.301877 88.322037 
L 381.426409 88.069767 
L 381.55094 86.77459 
L 381.675472 86.924117 
L 381.924536 86.514645 
L 382.049068 86.591327 
L 382.1736 84.626714 
L 382.298132 84.701094 
L 382.422663 83.051653 
L 382.920791 84.455714 
L 383.169855 82.751064 
L 383.418918 81.78409 
L 383.54345 81.880711 
L 383.667982 82.711955 
L 383.917046 79.786527 
L 384.166109 80.623126 
L 384.290641 80.21517 
L 384.664237 80.527273 
L 384.788769 80.364697 
L 384.913301 79.987426 
L 385.037832 81.055607 
L 385.53596 77.192354 
L 385.785024 75.373449 
L 385.909555 75.09892 
L 386.034087 75.333572 
L 386.283151 72.418872 
L 386.532215 73.171899 
L 386.656747 71.167409 
L 386.781278 71.514783 
L 387.154874 68.363145 
L 387.279406 68.485058 
L 387.403938 68.353934 
L 387.52847 65.775861 
L 387.777533 69.643738 
L 387.902065 69.537907 
L 388.026597 69.678242 
L 388.275661 82.947376 
L 388.400192 79.40465 
L 388.524724 80.438328 
L 388.649256 88.157177 
L 389.022852 81.873822 
L 389.271915 76.639477 
L 389.396447 76.561259 
L 389.770043 78.929972 
L 389.894575 78.728306 
L 390.143638 72.928035 
L 390.517234 80.744291 
L 390.641766 79.702937 
L 390.89083 76.875646 
L 391.015361 76.976872 
L 391.139893 76.043653 
L 391.264425 72.39356 
L 391.388957 72.665787 
L 391.638021 75.237719 
L 391.762553 75.402579 
L 391.887084 75.04371 
L 392.011616 78.041234 
L 392.136148 77.732969 
L 392.26068 78.117149 
L 392.509744 87.600462 
L 392.634276 82.210449 
L 392.883339 86.316798 
L 393.007871 83.56619 
L 393.256935 88.089705 
L 393.63053 81.881479 
L 393.755062 86.357442 
L 393.879594 85.691076 
L 394.004126 82.339271 
L 394.128658 83.464982 
L 394.25319 81.793301 
L 394.377722 82.382985 
L 394.751317 78.369437 
L 395.249445 84.050061 
L 395.373976 83.678929 
L 395.62304 81.339347 
L 395.747572 83.015615 
L 395.872104 82.498008 
L 396.121167 84.420443 
L 396.370231 81.130773 
L 396.494763 81.185215 
L 396.868359 76.90633 
L 396.99289 76.721532 
L 397.117422 78.153955 
L 397.241954 77.309681 
L 397.366486 77.488357 
L 397.491018 78.037396 
L 397.61555 76.500677 
L 397.740082 77.157851 
L 397.864613 76.479204 
L 398.113677 77.396323 
L 398.362741 79.809517 
L 398.487273 77.190819 
L 398.487273 77.190819 
" style="fill:none;stroke:#1f77b4;stroke-linecap:square;stroke-width:1.5;"/>
   </g>
   <g id="line2d_15">
    <path clip-path="url(#pa9a9a7959f)" d="M 396.619295 284.165255 
L 396.99289 295.488 
L 397.117422 288.738202 
L 397.366486 243.091865 
L 397.864613 54.126644 
L 397.989145 54.792223 
L 398.113677 53.568 
L 398.362741 74.039743 
L 398.487273 69.348035 
L 398.487273 69.348035 
" style="fill:none;stroke:#ff7f0e;stroke-linecap:square;stroke-width:1.5;"/>
   </g>
   <g id="patch_3">
    <path d="M 57.6 307.584 
L 57.6 41.472 
" style="fill:none;stroke:#000000;stroke-linecap:square;stroke-linejoin:miter;stroke-width:0.8;"/>
   </g>
   <g id="patch_4">
    <path d="M 414.72 307.584 
L 414.72 41.472 
" style="fill:none;stroke:#000000;stroke-linecap:square;stroke-linejoin:miter;stroke-width:0.8;"/>
   </g>
   <g id="patch_5">
    <path d="M 57.6 307.584 
L 414.72 307.584 
" style="fill:none;stroke:#000000;stroke-linecap:square;stroke-linejoin:miter;stroke-width:0.8;"/>
   </g>
   <g id="patch_6">
    <path d="M 57.6 41.472 
L 414.72 41.472 
" style="fill:none;stroke:#000000;stroke-linecap:square;stroke-linejoin:miter;stroke-width:0.8;"/>
   </g>
  </g>
 </g>
 <defs>
  <clipPath id="pa9a9a7959f">
   <rect height="266.112" width="357.12" x="57.6" y="41.472"/>
  </clipPath>
 </defs>
</svg>
