<?xml version="1.0" encoding="utf-8" standalone="no"?>
<!DOCTYPE svg PUBLIC "-//W3C//DTD SVG 1.1//EN"
  "http://www.w3.org/Graphics/SVG/1.1/DTD/svg11.dtd">
<!-- Created with matplotlib (http://matplotlib.org/) -->
<svg height="345.6pt" version="1.1" viewBox="0 0 460.8 345.6" width="460.8pt" xmlns="http://www.w3.org/2000/svg" xmlns:xlink="http://www.w3.org/1999/xlink">
 <defs>
  <style type="text/css">
*{stroke-linecap:butt;stroke-linejoin:round;}
  </style>
 </defs>
 <g id="figure_1">
  <g id="patch_1">
   <path d="M 0 345.6 
L 460.8 345.6 
L 460.8 0 
L 0 0 
z
" style="fill:#ffffff;"/>
  </g>
  <g id="axes_1">
   <g id="patch_2">
    <path d="M 57.6 307.584 
L 414.72 307.584 
L 414.72 41.472 
L 57.6 41.472 
z
" style="fill:#ffffff;"/>
   </g>
   <g id="matplotlib.axis_1">
    <g id="xtick_1">
     <g id="line2d_1">
      <defs>
       <path d="M 0 0 
L 0 3.5 
" id="ma8c6c5a1b5" style="stroke:#000000;stroke-width:0.8;"/>
      </defs>
      <g>
       <use style="stroke:#000000;stroke-width:0.8;" x="73.832727" xlink:href="#ma8c6c5a1b5" y="307.584"/>
      </g>
     </g>
     <g id="text_1">
      <!-- 0 -->
      <defs>
       <path d="M 31.78125 66.40625 
Q 24.171875 66.40625 20.328125 58.90625 
Q 16.5 51.421875 16.5 36.375 
Q 16.5 21.390625 20.328125 13.890625 
Q 24.171875 6.390625 31.78125 6.390625 
Q 39.453125 6.390625 43.28125 13.890625 
Q 47.125 21.390625 47.125 36.375 
Q 47.125 51.421875 43.28125 58.90625 
Q 39.453125 66.40625 31.78125 66.40625 
z
M 31.78125 74.21875 
Q 44.046875 74.21875 50.515625 64.515625 
Q 56.984375 54.828125 56.984375 36.375 
Q 56.984375 17.96875 50.515625 8.265625 
Q 44.046875 -1.421875 31.78125 -1.421875 
Q 19.53125 -1.421875 13.0625 8.265625 
Q 6.59375 17.96875 6.59375 36.375 
Q 6.59375 54.828125 13.0625 64.515625 
Q 19.53125 74.21875 31.78125 74.21875 
z
" id="DejaVuSans-30"/>
      </defs>
      <g transform="translate(70.651477 322.182437)scale(0.1 -0.1)">
       <use xlink:href="#DejaVuSans-30"/>
      </g>
     </g>
    </g>
    <g id="xtick_2">
     <g id="line2d_2">
      <g>
       <use style="stroke:#000000;stroke-width:0.8;" x="136.098655" xlink:href="#ma8c6c5a1b5" y="307.584"/>
      </g>
     </g>
     <g id="text_2">
      <!-- 500 -->
      <defs>
       <path d="M 10.796875 72.90625 
L 49.515625 72.90625 
L 49.515625 64.59375 
L 19.828125 64.59375 
L 19.828125 46.734375 
Q 21.96875 47.46875 24.109375 47.828125 
Q 26.265625 48.1875 28.421875 48.1875 
Q 40.625 48.1875 47.75 41.5 
Q 54.890625 34.8125 54.890625 23.390625 
Q 54.890625 11.625 47.5625 5.09375 
Q 40.234375 -1.421875 26.90625 -1.421875 
Q 22.3125 -1.421875 17.546875 -0.640625 
Q 12.796875 0.140625 7.71875 1.703125 
L 7.71875 11.625 
Q 12.109375 9.234375 16.796875 8.0625 
Q 21.484375 6.890625 26.703125 6.890625 
Q 35.15625 6.890625 40.078125 11.328125 
Q 45.015625 15.765625 45.015625 23.390625 
Q 45.015625 31 40.078125 35.4375 
Q 35.15625 39.890625 26.703125 39.890625 
Q 22.75 39.890625 18.8125 39.015625 
Q 14.890625 38.140625 10.796875 36.28125 
z
" id="DejaVuSans-35"/>
      </defs>
      <g transform="translate(126.554905 322.182437)scale(0.1 -0.1)">
       <use xlink:href="#DejaVuSans-35"/>
       <use x="63.623047" xlink:href="#DejaVuSans-30"/>
       <use x="127.246094" xlink:href="#DejaVuSans-30"/>
      </g>
     </g>
    </g>
    <g id="xtick_3">
     <g id="line2d_3">
      <g>
       <use style="stroke:#000000;stroke-width:0.8;" x="198.364582" xlink:href="#ma8c6c5a1b5" y="307.584"/>
      </g>
     </g>
     <g id="text_3">
      <!-- 1000 -->
      <defs>
       <path d="M 12.40625 8.296875 
L 28.515625 8.296875 
L 28.515625 63.921875 
L 10.984375 60.40625 
L 10.984375 69.390625 
L 28.421875 72.90625 
L 38.28125 72.90625 
L 38.28125 8.296875 
L 54.390625 8.296875 
L 54.390625 0 
L 12.40625 0 
z
" id="DejaVuSans-31"/>
      </defs>
      <g transform="translate(185.639582 322.182437)scale(0.1 -0.1)">
       <use xlink:href="#DejaVuSans-31"/>
       <use x="63.623047" xlink:href="#DejaVuSans-30"/>
       <use x="127.246094" xlink:href="#DejaVuSans-30"/>
       <use x="190.869141" xlink:href="#DejaVuSans-30"/>
      </g>
     </g>
    </g>
    <g id="xtick_4">
     <g id="line2d_4">
      <g>
       <use style="stroke:#000000;stroke-width:0.8;" x="260.630509" xlink:href="#ma8c6c5a1b5" y="307.584"/>
      </g>
     </g>
     <g id="text_4">
      <!-- 1500 -->
      <g transform="translate(247.905509 322.182437)scale(0.1 -0.1)">
       <use xlink:href="#DejaVuSans-31"/>
       <use x="63.623047" xlink:href="#DejaVuSans-35"/>
       <use x="127.246094" xlink:href="#DejaVuSans-30"/>
       <use x="190.869141" xlink:href="#DejaVuSans-30"/>
      </g>
     </g>
    </g>
    <g id="xtick_5">
     <g id="line2d_5">
      <g>
       <use style="stroke:#000000;stroke-width:0.8;" x="322.896437" xlink:href="#ma8c6c5a1b5" y="307.584"/>
      </g>
     </g>
     <g id="text_5">
      <!-- 2000 -->
      <defs>
       <path d="M 19.1875 8.296875 
L 53.609375 8.296875 
L 53.609375 0 
L 7.328125 0 
L 7.328125 8.296875 
Q 12.9375 14.109375 22.625 23.890625 
Q 32.328125 33.6875 34.8125 36.53125 
Q 39.546875 41.84375 41.421875 45.53125 
Q 43.3125 49.21875 43.3125 52.78125 
Q 43.3125 58.59375 39.234375 62.25 
Q 35.15625 65.921875 28.609375 65.921875 
Q 23.96875 65.921875 18.8125 64.3125 
Q 13.671875 62.703125 7.8125 59.421875 
L 7.8125 69.390625 
Q 13.765625 71.78125 18.9375 73 
Q 24.125 74.21875 28.421875 74.21875 
Q 39.75 74.21875 46.484375 68.546875 
Q 53.21875 62.890625 53.21875 53.421875 
Q 53.21875 48.921875 51.53125 44.890625 
Q 49.859375 40.875 45.40625 35.40625 
Q 44.1875 33.984375 37.640625 27.21875 
Q 31.109375 20.453125 19.1875 8.296875 
z
" id="DejaVuSans-32"/>
      </defs>
      <g transform="translate(310.171437 322.182437)scale(0.1 -0.1)">
       <use xlink:href="#DejaVuSans-32"/>
       <use x="63.623047" xlink:href="#DejaVuSans-30"/>
       <use x="127.246094" xlink:href="#DejaVuSans-30"/>
       <use x="190.869141" xlink:href="#DejaVuSans-30"/>
      </g>
     </g>
    </g>
    <g id="xtick_6">
     <g id="line2d_6">
      <g>
       <use style="stroke:#000000;stroke-width:0.8;" x="385.162364" xlink:href="#ma8c6c5a1b5" y="307.584"/>
      </g>
     </g>
     <g id="text_6">
      <!-- 2500 -->
      <g transform="translate(372.437364 322.182437)scale(0.1 -0.1)">
       <use xlink:href="#DejaVuSans-32"/>
       <use x="63.623047" xlink:href="#DejaVuSans-35"/>
       <use x="127.246094" xlink:href="#DejaVuSans-30"/>
       <use x="190.869141" xlink:href="#DejaVuSans-30"/>
      </g>
     </g>
    </g>
   </g>
   <g id="matplotlib.axis_2">
    <g id="ytick_1">
     <g id="line2d_7">
      <defs>
       <path d="M 0 0 
L -3.5 0 
" id="mbfbac6f5ed" style="stroke:#000000;stroke-width:0.8;"/>
      </defs>
      <g>
       <use style="stroke:#000000;stroke-width:0.8;" x="57.6" xlink:href="#mbfbac6f5ed" y="263.90895"/>
      </g>
     </g>
     <g id="text_7">
      <!-- 500 -->
      <g transform="translate(31.5125 267.708169)scale(0.1 -0.1)">
       <use xlink:href="#DejaVuSans-35"/>
       <use x="63.623047" xlink:href="#DejaVuSans-30"/>
       <use x="127.246094" xlink:href="#DejaVuSans-30"/>
      </g>
     </g>
    </g>
    <g id="ytick_2">
     <g id="line2d_8">
      <g>
       <use style="stroke:#000000;stroke-width:0.8;" x="57.6" xlink:href="#mbfbac6f5ed" y="219.586897"/>
      </g>
     </g>
     <g id="text_8">
      <!-- 1000 -->
      <g transform="translate(25.15 223.386116)scale(0.1 -0.1)">
       <use xlink:href="#DejaVuSans-31"/>
       <use x="63.623047" xlink:href="#DejaVuSans-30"/>
       <use x="127.246094" xlink:href="#DejaVuSans-30"/>
       <use x="190.869141" xlink:href="#DejaVuSans-30"/>
      </g>
     </g>
    </g>
    <g id="ytick_3">
     <g id="line2d_9">
      <g>
       <use style="stroke:#000000;stroke-width:0.8;" x="57.6" xlink:href="#mbfbac6f5ed" y="175.264844"/>
      </g>
     </g>
     <g id="text_9">
      <!-- 1500 -->
      <g transform="translate(25.15 179.064063)scale(0.1 -0.1)">
       <use xlink:href="#DejaVuSans-31"/>
       <use x="63.623047" xlink:href="#DejaVuSans-35"/>
       <use x="127.246094" xlink:href="#DejaVuSans-30"/>
       <use x="190.869141" xlink:href="#DejaVuSans-30"/>
      </g>
     </g>
    </g>
    <g id="ytick_4">
     <g id="line2d_10">
      <g>
       <use style="stroke:#000000;stroke-width:0.8;" x="57.6" xlink:href="#mbfbac6f5ed" y="130.942791"/>
      </g>
     </g>
     <g id="text_10">
      <!-- 2000 -->
      <g transform="translate(25.15 134.74201)scale(0.1 -0.1)">
       <use xlink:href="#DejaVuSans-32"/>
       <use x="63.623047" xlink:href="#DejaVuSans-30"/>
       <use x="127.246094" xlink:href="#DejaVuSans-30"/>
       <use x="190.869141" xlink:href="#DejaVuSans-30"/>
      </g>
     </g>
    </g>
    <g id="ytick_5">
     <g id="line2d_11">
      <g>
       <use style="stroke:#000000;stroke-width:0.8;" x="57.6" xlink:href="#mbfbac6f5ed" y="86.620738"/>
      </g>
     </g>
     <g id="text_11">
      <!-- 2500 -->
      <g transform="translate(25.15 90.419957)scale(0.1 -0.1)">
       <use xlink:href="#DejaVuSans-32"/>
       <use x="63.623047" xlink:href="#DejaVuSans-35"/>
       <use x="127.246094" xlink:href="#DejaVuSans-30"/>
       <use x="190.869141" xlink:href="#DejaVuSans-30"/>
      </g>
     </g>
    </g>
    <g id="ytick_6">
     <g id="line2d_12">
      <g>
       <use style="stroke:#000000;stroke-width:0.8;" x="57.6" xlink:href="#mbfbac6f5ed" y="42.298685"/>
      </g>
     </g>
     <g id="text_12">
      <!-- 3000 -->
      <defs>
       <path d="M 40.578125 39.3125 
Q 47.65625 37.796875 51.625 33 
Q 55.609375 28.21875 55.609375 21.1875 
Q 55.609375 10.40625 48.1875 4.484375 
Q 40.765625 -1.421875 27.09375 -1.421875 
Q 22.515625 -1.421875 17.65625 -0.515625 
Q 12.796875 0.390625 7.625 2.203125 
L 7.625 11.71875 
Q 11.71875 9.328125 16.59375 8.109375 
Q 21.484375 6.890625 26.8125 6.890625 
Q 36.078125 6.890625 40.9375 10.546875 
Q 45.796875 14.203125 45.796875 21.1875 
Q 45.796875 27.640625 41.28125 31.265625 
Q 36.765625 34.90625 28.71875 34.90625 
L 20.21875 34.90625 
L 20.21875 43.015625 
L 29.109375 43.015625 
Q 36.375 43.015625 40.234375 45.921875 
Q 44.09375 48.828125 44.09375 54.296875 
Q 44.09375 59.90625 40.109375 62.90625 
Q 36.140625 65.921875 28.71875 65.921875 
Q 24.65625 65.921875 20.015625 65.03125 
Q 15.375 64.15625 9.8125 62.3125 
L 9.8125 71.09375 
Q 15.4375 72.65625 20.34375 73.4375 
Q 25.25 74.21875 29.59375 74.21875 
Q 40.828125 74.21875 47.359375 69.109375 
Q 53.90625 64.015625 53.90625 55.328125 
Q 53.90625 49.265625 50.4375 45.09375 
Q 46.96875 40.921875 40.578125 39.3125 
z
" id="DejaVuSans-33"/>
      </defs>
      <g transform="translate(25.15 46.097904)scale(0.1 -0.1)">
       <use xlink:href="#DejaVuSans-33"/>
       <use x="63.623047" xlink:href="#DejaVuSans-30"/>
       <use x="127.246094" xlink:href="#DejaVuSans-30"/>
       <use x="190.869141" xlink:href="#DejaVuSans-30"/>
      </g>
     </g>
    </g>
   </g>
   <g id="line2d_13">
    <path clip-path="url(#pd446d1ccc3)" d="M 73.832727 185.399521 
L 73.957259 186.110448 
L 74.081791 186.150345 
L 74.206323 183.770242 
L 74.330855 187.614736 
L 74.455387 187.519004 
L 74.579918 187.813309 
L 74.70445 189.847687 
L 74.828982 189.459425 
L 74.953514 187.672357 
L 75.078046 187.662607 
L 75.32711 189.642026 
L 75.451641 189.197042 
L 75.576173 191.404272 
L 75.700705 191.398071 
L 75.825237 191.726937 
L 75.949769 191.046157 
L 76.198833 194.91015 
L 76.323364 194.766547 
L 76.447896 194.331302 
L 76.572428 196.404689 
L 76.69696 196.282359 
L 76.946024 197.221097 
L 77.070555 195.325009 
L 77.195087 197.896576 
L 77.319619 197.125366 
L 77.693215 200.536389 
L 77.942278 196.511068 
L 78.191342 196.539429 
L 78.440406 194.572422 
L 78.564938 197.200711 
L 78.68947 196.737991 
L 78.814001 198.811378 
L 79.063065 194.388923 
L 79.312129 196.511945 
L 79.436661 197.513627 
L 79.685724 193.951913 
L 79.810256 196.001364 
L 80.05932 192.522083 
L 80.308384 194.249756 
L 80.557447 193.153229 
L 80.806511 195.946406 
L 81.180107 193.685094 
L 81.304639 195.933107 
L 81.42917 195.519135 
L 81.678234 192.933382 
L 81.927298 194.748379 
L 82.176362 195.211542 
L 82.300893 198.593317 
L 82.425425 198.107538 
L 82.549957 195.848888 
L 82.674489 199.685408 
L 82.799021 199.017915 
L 83.048085 197.27518 
L 83.172616 202.505182 
L 83.297148 200.653405 
L 83.42168 205.723844 
L 83.670744 196.975562 
L 83.919808 202.902306 
L 84.044339 203.110617 
L 84.293403 200.704815 
L 84.417935 210.156049 
L 84.542467 204.840065 
L 84.666999 205.309872 
L 85.165126 219.921087 
L 85.289658 220.921877 
L 85.538722 228.520452 
L 85.663253 219.289941 
L 85.787785 219.763298 
L 85.912317 227.756335 
L 86.036849 224.335562 
L 86.161381 224.85679 
L 86.285913 220.881099 
L 86.410445 223.571451 
L 86.534976 228.736739 
L 86.659508 227.732405 
L 86.908572 232.97925 
L 87.033104 224.860334 
L 87.157636 225.784004 
L 87.406699 222.357025 
L 87.531231 222.574204 
L 87.655763 219.077193 
L 87.904827 228.018724 
L 88.029359 225.704228 
L 88.278422 228.544383 
L 88.402954 232.679632 
L 88.527486 227.450517 
L 88.77655 232.81703 
L 88.901082 232.075079 
L 89.150145 241.531632 
L 89.523741 232.228432 
L 89.772805 229.16401 
L 89.897337 228.78461 
L 90.021868 235.878795 
L 90.270932 231.045035 
L 90.395464 233.307234 
L 90.644528 227.591459 
L 90.76906 229.455647 
L 90.893591 228.518678 
L 91.018123 230.792396 
L 91.142655 230.248125 
L 91.267187 231.237391 
L 91.391719 227.282979 
L 91.516251 228.059502 
L 91.640783 229.756146 
L 91.765314 229.525674 
L 92.014378 231.716959 
L 92.263442 231.068527 
L 92.387974 230.862428 
L 92.512505 231.162046 
L 92.886101 226.897817 
L 93.010633 225.632426 
L 93.135165 226.018026 
L 93.259697 225.375356 
L 93.384228 227.861822 
L 93.50876 227.588802 
L 93.757824 231.087582 
L 93.882356 230.95196 
L 94.006888 233.537707 
L 94.13142 233.438426 
L 94.255951 232.872876 
L 94.505015 236.852998 
L 94.629547 233.74868 
L 94.754079 234.878005 
L 95.003143 234.074002 
L 95.127674 233.263794 
L 95.252206 230.748074 
L 95.50127 235.021608 
L 95.625802 235.060612 
L 95.750334 233.902033 
L 95.874866 234.45872 
L 96.248461 231.12038 
L 96.372993 234.908147 
L 96.622057 234.196332 
L 96.746589 234.936508 
L 96.995652 238.275735 
L 97.120184 238.342218 
L 97.369248 239.97061 
L 97.49378 242.339178 
L 97.618312 239.696697 
L 97.867375 241.497059 
L 97.991907 243.069605 
L 98.240971 246.505451 
L 98.365503 245.039279 
L 98.490035 247.726969 
L 98.614566 247.653393 
L 98.739098 248.260603 
L 98.86363 244.442706 
L 98.988162 244.286692 
L 99.237226 241.167306 
L 99.361758 241.403097 
L 99.610821 237.816559 
L 99.859885 240.104464 
L 99.984417 235.283997 
L 100.108949 236.773217 
L 100.23348 236.085337 
L 100.358012 234.402874 
L 100.607076 238.421107 
L 100.85614 236.33354 
L 101.105203 233.548344 
L 101.229735 234.170627 
L 101.354267 235.937303 
L 101.478799 235.085435 
L 101.603331 232.302008 
L 101.852395 232.109651 
L 101.976926 233.636988 
L 102.350522 231.14609 
L 102.475054 234.444534 
L 102.599586 232.87642 
L 102.724118 233.455268 
L 102.973181 231.444821 
L 103.222245 232.426112 
L 103.346777 230.787965 
L 103.471309 230.861541 
L 103.595841 230.444025 
L 103.720372 227.809525 
L 103.844904 228.114461 
L 103.969436 226.720086 
L 104.093968 227.796226 
L 104.2185 225.860242 
L 104.343032 227.632237 
L 104.467564 227.711131 
L 104.592095 229.876706 
L 104.716627 229.06561 
L 104.841159 229.968894 
L 104.965691 227.590571 
L 105.090223 227.73063 
L 105.214755 228.143715 
L 105.339287 229.485783 
L 105.463818 229.603681 
L 105.712882 227.535612 
L 105.837414 229.066498 
L 106.335541 224.485371 
L 106.460073 225.63597 
L 106.584605 224.687477 
L 106.833669 224.981776 
L 106.958201 224.690139 
L 107.082733 224.980889 
L 107.331796 224.355061 
L 107.58086 227.39024 
L 107.705392 227.501927 
L 107.954455 226.569395 
L 108.078987 229.068272 
L 108.203519 228.885666 
L 108.328051 228.367982 
L 108.452583 226.655377 
L 108.577115 226.775932 
L 108.701647 226.03753 
L 108.826178 226.738703 
L 108.95071 226.383239 
L 109.075242 228.768655 
L 109.324306 228.564775 
L 109.448838 230.132884 
L 109.57337 230.263193 
L 109.697901 229.986624 
L 109.822433 230.30131 
L 110.196029 225.554419 
L 110.320561 224.839947 
L 110.445093 224.871858 
L 110.694156 223.613111 
L 110.818688 223.65832 
L 111.067752 221.425375 
L 111.192284 221.166536 
L 111.441347 221.789701 
L 111.565879 220.761431 
L 111.690411 220.696723 
L 111.939475 219.086056 
L 112.188539 219.845736 
L 112.31307 218.657908 
L 112.437602 218.957526 
L 112.562134 220.087738 
L 112.811198 218.458459 
L 112.93573 219.22434 
L 113.060262 221.383715 
L 113.558389 217.270626 
L 113.682921 217.320272 
L 114.056516 216.840704 
L 114.181048 217.022418 
L 114.30558 217.759056 
L 114.554644 220.052278 
L 115.301835 215.674145 
L 115.426367 215.799136 
L 115.67543 214.921557 
L 115.799962 213.491727 
L 115.924494 213.781595 
L 116.049026 213.5325 
L 116.173558 213.855166 
L 116.29809 213.234657 
L 116.671685 215.652871 
L 116.796217 214.004093 
L 117.045281 214.527095 
L 117.294345 217.352182 
L 117.66794 214.482773 
L 118.041536 212.833108 
L 118.166068 213.09904 
L 118.415131 211.027417 
L 118.539663 211.814577 
L 118.664195 210.907749 
L 118.913259 212.371265 
L 119.037791 211.35097 
L 119.535918 215.807998 
L 119.66045 213.726636 
L 119.784982 216.378872 
L 120.034045 215.561565 
L 120.158577 215.464946 
L 120.532173 211.335907 
L 120.656705 211.342108 
L 120.781237 210.854565 
L 120.905768 211.853586 
L 121.0303 211.300448 
L 121.154832 209.898092 
L 121.403896 209.85377 
L 121.65296 211.486598 
L 121.777491 210.169348 
L 121.902023 210.221645 
L 122.026555 209.780199 
L 122.275619 211.476849 
L 122.400151 211.109861 
L 122.524682 209.937101 
L 122.649214 209.903416 
L 122.773746 210.729574 
L 122.898278 210.192396 
L 123.02281 210.434393 
L 123.147342 211.436963 
L 123.520937 210.154275 
L 123.645469 209.471719 
L 123.770001 210.019534 
L 123.894533 209.908729 
L 124.019065 211.069975 
L 124.641724 208.375192 
L 124.890788 208.25995 
L 125.139851 208.380505 
L 125.264383 209.383962 
L 125.637979 207.485202 
L 125.762511 207.430243 
L 126.136106 206.557988 
L 126.260638 207.511799 
L 126.509702 206.426796 
L 126.634234 207.528637 
L 126.883297 206.269895 
L 127.132361 209.261633 
L 127.256893 211.452913 
L 127.381425 211.007918 
L 127.505957 211.416566 
L 127.630489 210.944097 
L 127.879552 213.038757 
L 128.128616 210.428193 
L 128.253148 210.963596 
L 128.37768 213.992569 
L 128.502212 213.719549 
L 128.626743 214.557231 
L 128.751275 213.335713 
L 128.875807 213.547574 
L 129.000339 212.630997 
L 129.124871 212.89338 
L 129.622998 210.124139 
L 129.74753 209.909616 
L 129.872062 210.012446 
L 129.996594 211.201167 
L 130.121126 210.257992 
L 130.245657 210.461878 
L 130.370189 210.324475 
L 130.619253 209.099408 
L 130.743785 209.05686 
L 130.868317 208.686334 
L 130.992849 207.291964 
L 131.11738 207.309688 
L 131.241912 207.136837 
L 131.490976 206.269007 
L 131.74004 206.245072 
L 131.989103 204.853364 
L 132.113635 204.887049 
L 132.238167 205.412702 
L 132.487231 204.147749 
L 132.736295 204.895911 
L 132.860826 204.819678 
L 132.985358 204.231967 
L 133.10989 204.227531 
L 133.234422 204.567921 
L 133.483486 203.385412 
L 133.732549 202.794163 
L 133.857081 203.413784 
L 133.981613 203.060095 
L 134.230677 202.170105 
L 134.355209 202.09741 
L 134.479741 200.914014 
L 134.604272 200.823595 
L 134.728804 202.555704 
L 134.977868 201.222494 
L 135.1024 201.331535 
L 135.226932 201.089527 
L 135.351464 200.326303 
L 135.475995 200.78991 
L 135.600527 203.302092 
L 135.725059 202.623962 
L 135.849591 201.257066 
L 135.974123 203.037934 
L 136.098655 201.657739 
L 136.596782 209.758038 
L 136.721314 205.427776 
L 136.845846 205.777028 
L 136.970378 204.369359 
L 137.468505 208.878685 
L 137.593037 209.388388 
L 137.717569 213.240868 
L 137.842101 211.8137 
L 137.966632 213.058256 
L 138.091164 213.024571 
L 138.215696 213.563534 
L 138.340228 210.45123 
L 138.713824 213.318876 
L 138.962887 210.471627 
L 139.211951 215.113031 
L 139.336483 214.090962 
L 139.461015 214.650312 
L 139.710078 211.467099 
L 139.83461 211.641725 
L 139.959142 209.372438 
L 140.083674 209.427397 
L 140.332738 209.170327 
L 140.45727 209.552388 
L 140.830865 213.054718 
L 140.955397 212.782574 
L 141.079929 212.976711 
L 141.328993 216.86464 
L 141.578056 217.585311 
L 141.82712 217.099538 
L 142.076184 213.359648 
L 142.574311 211.150633 
L 142.698843 211.034515 
L 142.823375 213.835667 
L 142.947907 213.271004 
L 143.072439 212.186889 
L 143.19697 213.418157 
L 143.446034 210.48669 
L 143.570566 209.391937 
L 143.695098 209.495655 
L 143.944162 210.586858 
L 144.068693 210.580658 
L 144.193225 208.430151 
L 144.317757 208.908831 
L 144.442289 208.307822 
L 144.566821 208.434577 
L 144.691353 208.804227 
L 144.815885 208.259063 
L 144.940416 208.855636 
L 145.18948 212.175365 
L 145.314012 212.561852 
L 145.438544 212.550327 
L 145.687607 211.240165 
L 145.936671 213.232006 
L 146.061203 213.615831 
L 146.185735 214.988928 
L 146.310267 214.682222 
L 146.434799 215.401125 
L 146.55933 213.861377 
L 146.683862 215.250423 
L 146.808394 215.214087 
L 147.057458 211.600065 
L 147.18199 210.322701 
L 147.431053 211.445825 
L 147.929181 208.781178 
L 148.053713 208.852098 
L 148.178245 208.500183 
L 148.302776 208.53652 
L 148.427308 208.454087 
L 148.55184 206.9365 
L 148.800904 207.683764 
L 148.925436 208.521457 
L 149.049968 206.408174 
L 149.174499 206.985248 
L 149.299031 206.494167 
L 149.548095 207.070353 
L 149.672627 206.623584 
L 149.797159 207.439992 
L 149.921691 205.337357 
L 150.170754 205.575804 
L 150.295286 204.947321 
L 150.419818 204.932258 
L 150.668882 203.799384 
L 150.793414 204.17966 
L 150.917945 203.968697 
L 151.042477 203.213448 
L 151.167009 204.880838 
L 151.416073 203.60791 
L 151.665137 203.132778 
L 151.789668 203.131004 
L 151.9142 203.413784 
L 152.038732 203.295881 
L 152.163264 203.341977 
L 152.287796 203.242696 
L 152.53686 202.038913 
L 152.785923 199.566628 
L 152.910455 199.7971 
L 153.034987 200.670243 
L 153.159519 200.199548 
L 153.284051 200.657831 
L 153.408582 201.928108 
L 153.533114 202.057525 
L 153.657646 203.77811 
L 153.782178 203.755949 
L 154.031242 201.882011 
L 154.155774 202.04955 
L 154.280305 203.566249 
L 154.404837 202.004341 
L 154.902965 203.582199 
L 155.152028 199.949566 
L 155.27656 199.667683 
L 155.401092 199.808624 
L 155.525624 199.752778 
L 156.023751 198.271539 
L 156.148283 198.17137 
L 156.272815 198.735146 
L 156.521879 197.96571 
L 156.646411 197.684715 
L 156.895474 196.64226 
L 157.020006 196.825748 
L 157.393602 196.671508 
L 157.518134 196.558928 
L 157.767197 196.748628 
L 157.891729 195.487224 
L 158.016261 195.635264 
L 158.140793 195.071478 
L 158.514389 195.675149 
L 158.63892 195.255864 
L 158.763452 194.238232 
L 158.887984 194.433245 
L 159.012516 193.5929 
L 159.26158 193.435111 
L 159.510643 194.743499 
L 159.635175 194.469592 
L 159.759707 193.805648 
L 159.884239 193.775501 
L 160.133303 193.034438 
L 160.257835 195.090988 
L 160.382366 194.224046 
L 160.506898 192.320859 
L 160.63143 192.636427 
L 160.880494 192.030104 
L 161.129557 190.815684 
L 161.254089 191.142776 
L 161.378621 191.055019 
L 161.627685 190.128692 
L 161.752217 190.510743 
L 162.00128 189.409779 
L 162.125812 189.181081 
L 162.499408 192.337697 
L 162.62394 192.452938 
L 162.873003 190.580775 
L 162.997535 192.432552 
L 163.122067 192.245514 
L 163.246599 190.24836 
L 163.495663 192.0957 
L 163.620195 191.059456 
L 163.744726 191.219008 
L 163.869258 193.427136 
L 163.99379 192.614266 
L 164.242854 194.600783 
L 164.367386 196.815999 
L 164.740981 193.137268 
L 164.865513 193.545916 
L 164.990045 193.211726 
L 165.239109 191.770372 
L 165.363641 192.090387 
L 165.612704 190.488582 
L 165.737236 190.703992 
L 165.861768 190.120707 
L 166.110832 190.101208 
L 166.235364 189.84325 
L 166.359895 190.0232 
L 166.858023 191.716301 
L 166.982555 191.706551 
L 167.107087 191.249144 
L 167.231618 192.538033 
L 167.35615 191.874977 
L 167.605214 189.680148 
L 167.854278 189.86896 
L 168.227873 187.632471 
L 168.352405 187.355015 
L 168.601469 187.974636 
L 168.850532 189.882259 
L 169.099596 188.890326 
L 169.224128 187.926765 
L 169.34866 189.263525 
L 169.473192 188.681127 
L 169.722255 190.381326 
L 169.846787 190.424761 
L 170.095851 189.128784 
L 170.469447 191.550537 
L 170.843042 190.236836 
L 171.092106 188.986956 
L 171.216638 191.703889 
L 171.34117 191.846616 
L 171.714765 194.328651 
L 171.839297 194.805545 
L 171.963829 193.96875 
L 172.088361 195.566119 
L 172.212893 195.490774 
L 172.337424 194.068919 
L 172.461956 196.058974 
L 172.71102 195.520022 
L 172.835552 194.911925 
L 172.960084 193.390789 
L 173.333679 195.790391 
L 173.831807 191.16405 
L 173.956339 189.47715 
L 174.205402 189.635826 
L 174.329934 189.517046 
L 174.454466 188.276028 
L 174.578998 189.111049 
L 174.828062 191.784558 
L 174.952593 191.422894 
L 175.077125 192.207392 
L 175.201657 191.562948 
L 175.326189 192.511446 
L 175.450721 190.62421 
L 175.575253 190.703104 
L 175.699784 189.111049 
L 175.824316 189.002906 
L 176.07338 190.162378 
L 176.322444 192.93427 
L 176.571507 194.151362 
L 176.696039 197.066857 
L 176.820571 196.509293 
L 176.945103 201.851875 
L 177.069635 201.913035 
L 177.194167 208.997475 
L 177.318699 204.293127 
L 177.44323 208.882234 
L 177.692294 203.736439 
L 177.816826 201.460065 
L 177.941358 202.499858 
L 178.06589 202.39969 
L 178.314953 208.636688 
L 178.439485 208.610988 
L 178.688549 203.843706 
L 178.813081 205.468548 
L 178.937613 203.914615 
L 179.062145 200.964547 
L 179.186676 200.71279 
L 179.311208 200.183587 
L 179.43574 201.466265 
L 179.684804 204.552415 
L 179.809336 204.939346 
L 179.933868 201.980405 
L 180.058399 203.107955 
L 180.182931 205.915318 
L 180.431995 204.262991 
L 180.805591 200.438883 
L 181.054654 201.672813 
L 181.303718 208.102161 
L 181.42825 207.493177 
L 181.677314 204.040493 
L 181.801845 206.196313 
L 181.926377 205.36838 
L 182.175441 210.790744 
L 182.549037 204.963281 
L 182.673568 205.806288 
L 182.7981 202.311046 
L 182.922632 202.253425 
L 183.047164 201.215406 
L 183.171696 201.533635 
L 183.296228 199.679208 
L 183.420759 201.781843 
L 183.545291 199.608288 
L 183.669823 200.982272 
L 183.794355 200.493842 
L 184.043419 197.054457 
L 184.167951 199.28296 
L 184.292482 198.135023 
L 184.417014 194.359674 
L 184.541546 194.315352 
L 184.79061 200.237659 
L 185.039674 196.437487 
L 185.164205 197.139552 
L 185.413269 195.128211 
L 185.537801 199.278534 
L 185.662333 198.339796 
L 185.786865 196.198152 
L 185.911397 197.268081 
L 186.035928 196.733555 
L 186.284992 200.428246 
L 186.409524 200.470793 
L 186.78312 205.245164 
L 187.032183 205.521733 
L 187.156715 202.51847 
L 187.281247 202.284459 
L 187.405779 197.695352 
L 187.654843 197.932912 
L 187.903906 196.675057 
L 188.028438 196.449898 
L 188.15297 198.813153 
L 188.277502 196.965813 
L 188.651097 200.810307 
L 188.900161 200.11533 
L 189.024693 201.383832 
L 189.149225 198.19707 
L 189.273757 197.982558 
L 189.647352 196.062524 
L 189.771884 196.058087 
L 189.896416 197.457781 
L 190.020948 196.271722 
L 190.14548 196.752177 
L 190.394543 195.027156 
L 190.519075 195.005882 
L 190.643607 194.672579 
L 190.768139 194.960673 
L 190.892671 194.704501 
L 191.017203 193.69573 
L 191.141734 193.660271 
L 191.266266 193.392564 
L 191.390798 193.960775 
L 191.639862 193.554778 
L 191.888926 191.708326 
L 192.137989 191.575359 
L 192.262521 191.695027 
L 192.387053 190.684482 
L 192.636117 191.546111 
L 192.88518 191.893589 
L 193.258776 189.013543 
L 193.383308 189.064076 
L 193.756903 188.388608 
L 193.881435 189.213879 
L 194.005967 188.404558 
L 194.130499 188.517138 
L 194.255031 189.161582 
L 194.504095 187.565988 
L 194.753158 187.479119 
L 194.87769 187.882443 
L 195.126754 187.166203 
L 195.251286 187.002213 
L 195.375818 186.595329 
L 195.500349 187.171516 
L 195.624881 186.426026 
L 195.873945 187.291194 
L 195.998477 189.150058 
L 196.372072 186.711458 
L 196.496604 186.691959 
L 196.621136 184.488268 
L 196.745668 184.636296 
L 196.994732 183.759605 
L 197.119264 183.264975 
L 197.368327 183.873072 
L 197.492859 184.769262 
L 197.617391 184.385437 
L 197.741923 182.66574 
L 198.115518 183.838499 
L 198.24005 183.378442 
L 198.364582 182.441467 
L 198.489114 182.943196 
L 198.613646 184.221448 
L 198.738178 184.299455 
L 198.987241 185.707124 
L 199.111773 187.80001 
L 199.360837 185.231106 
L 199.485369 186.765529 
L 199.609901 186.826699 
L 199.734432 184.946551 
L 200.23256 187.059834 
L 200.357092 186.613951 
L 200.606155 184.131029 
L 200.730687 183.831412 
L 200.855219 184.314518 
L 200.979751 183.613351 
L 201.104283 183.924481 
L 201.228815 184.876529 
L 201.353347 186.86836 
L 201.477878 186.825812 
L 201.726942 188.155474 
L 201.851474 187.853194 
L 201.976006 188.260955 
L 202.22507 190.275834 
L 202.349601 190.795287 
L 202.598665 193.417387 
L 202.723197 191.576247 
L 202.847729 191.519513 
L 203.096793 191.1605 
L 203.221324 191.414032 
L 203.470388 190.119819 
L 203.843984 194.940286 
L 203.968516 194.927875 
L 204.093047 194.279005 
L 204.217579 191.652479 
L 204.342111 191.664891 
L 204.466643 190.719054 
L 204.591175 192.202069 
L 204.715707 190.850246 
L 204.840239 191.67464 
L 205.089302 189.196155 
L 205.213834 189.024179 
L 205.338366 187.854082 
L 205.462898 188.05708 
L 205.58743 190.732353 
L 205.711962 189.889347 
L 205.836493 191.777471 
L 206.085557 190.170353 
L 206.210089 190.419437 
L 206.334621 187.483545 
L 206.459153 187.186589 
L 206.583684 186.432227 
L 206.832748 187.0031 
L 207.081812 188.343399 
L 207.206344 189.317597 
L 207.330876 189.319371 
L 207.455407 189.912395 
L 207.579939 187.96045 
L 207.704471 188.238794 
L 208.078067 186.211504 
L 208.451662 189.597704 
L 208.576194 189.634939 
L 208.825258 185.372934 
L 208.94979 185.432319 
L 209.323385 187.231798 
L 209.572449 184.640733 
L 209.821513 183.932467 
L 209.946045 183.881047 
L 210.070576 183.608914 
L 210.31964 183.780878 
L 210.444172 183.63905 
L 210.693236 182.519475 
L 210.817768 182.522136 
L 210.942299 182.961808 
L 211.066831 182.933446 
L 211.191363 183.944879 
L 211.315895 183.142645 
L 211.564959 183.30486 
L 211.689491 183.199379 
L 211.814022 184.175351 
L 211.938554 183.54598 
L 212.31215 183.824324 
L 212.561214 180.767866 
L 212.685745 181.551488 
L 212.934809 180.888421 
L 213.183873 178.29913 
L 213.432936 178.870891 
L 213.557468 178.717528 
L 213.806532 178.797309 
L 213.931064 179.08629 
L 214.180128 181.175638 
L 214.304659 179.949683 
L 214.429191 180.524095 
L 214.802787 179.609292 
L 214.927319 178.686504 
L 215.051851 178.728164 
L 215.176382 179.175822 
L 215.425446 181.242997 
L 215.549978 181.218185 
L 215.67451 181.594923 
L 216.048105 178.729939 
L 216.172637 179.046405 
L 216.297169 181.187162 
L 216.421701 181.131316 
L 216.670765 183.353619 
L 216.795297 182.979543 
L 217.04436 183.064346 
L 217.293424 183.051339 
L 217.417956 181.683567 
L 217.542488 182.870513 
L 217.66702 182.599256 
L 217.791551 181.612647 
L 218.040615 186.12286 
L 218.289679 185.899475 
L 218.414211 186.387017 
L 218.663274 188.266279 
L 218.787806 187.685656 
L 218.912338 185.291377 
L 219.03687 185.209821 
L 219.161402 184.92439 
L 219.410466 183.318159 
L 219.534997 183.57168 
L 219.659529 184.223223 
L 219.908593 182.715385 
L 220.033125 182.694988 
L 220.282189 183.504309 
L 220.40672 183.306635 
L 220.655784 182.52746 
L 220.780316 182.484902 
L 220.904848 181.661406 
L 221.02938 181.604672 
L 221.278443 182.925472 
L 221.527507 179.981593 
L 221.652039 180.954904 
L 221.776571 180.256399 
L 222.025634 181.766 
L 222.39923 182.524798 
L 222.523762 183.913845 
L 222.897357 178.596086 
L 223.021889 178.866454 
L 223.146421 178.237083 
L 223.395485 179.063242 
L 223.520017 178.72019 
L 223.644549 177.736242 
L 223.76908 177.742442 
L 223.893612 177.863884 
L 224.142676 177.691033 
L 224.39174 176.507636 
L 224.765335 175.724902 
L 224.889867 175.724025 
L 225.014399 175.002461 
L 225.138931 175.248883 
L 225.263463 174.569877 
L 225.512526 175.432383 
L 225.637058 174.097397 
L 225.76159 175.645131 
L 225.886122 174.264049 
L 226.010654 174.190478 
L 226.135186 174.432475 
L 226.259718 173.67545 
L 226.384249 173.757007 
L 226.633313 173.462713 
L 226.757845 173.369633 
L 226.882377 173.510574 
L 227.131441 172.522201 
L 227.380504 175.050321 
L 227.505036 173.881998 
L 227.629568 176.341872 
L 227.7541 175.5361 
L 227.878632 173.847426 
L 228.003164 173.963544 
L 228.127695 173.651526 
L 228.252227 173.031017 
L 228.501291 171.589663 
L 228.625823 171.341455 
L 228.874886 170.281275 
L 228.999418 170.612803 
L 229.12395 170.431966 
L 229.248482 169.659879 
L 229.373014 169.884151 
L 229.622078 170.979791 
L 229.746609 170.060552 
L 229.871141 171.20494 
L 229.995673 170.22188 
L 230.120205 170.682835 
L 230.244737 169.612008 
L 230.369269 169.693564 
L 230.493801 169.131563 
L 230.742864 169.753836 
L 230.867396 169.037596 
L 230.991928 170.505547 
L 231.11646 169.947972 
L 231.240992 170.541883 
L 231.739119 166.988144 
L 231.863651 167.388817 
L 231.988183 170.62344 
L 232.112715 168.654658 
L 232.361778 171.576364 
L 232.735374 168.281459 
L 232.859906 168.280571 
L 232.984438 167.715909 
L 233.10897 167.974754 
L 233.358033 166.615843 
L 233.482565 167.933981 
L 233.856161 164.849162 
L 234.105224 163.502663 
L 234.229756 164.036291 
L 234.354288 163.413131 
L 234.47882 163.40692 
L 234.727884 161.18993 
L 234.852416 161.926568 
L 234.976947 160.419618 
L 235.101479 160.524212 
L 235.226011 160.269804 
L 235.475075 161.923019 
L 235.599607 162.003688 
L 235.84867 161.076463 
L 235.973202 162.113606 
L 236.097734 161.577305 
L 236.222266 163.675514 
L 236.346798 162.817435 
L 236.47133 163.618781 
L 236.595861 165.611499 
L 236.844925 162.555052 
L 236.969457 162.605574 
L 237.218521 165.290607 
L 237.343053 163.177335 
L 237.467584 164.030978 
L 237.716648 161.807777 
L 238.214776 168.785849 
L 238.588371 165.230336 
L 238.712903 165.843746 
L 238.837435 165.074321 
L 238.961967 165.152328 
L 239.086499 165.034425 
L 239.709158 161.735981 
L 239.958222 159.292068 
L 240.082753 159.087295 
L 240.207285 159.640433 
L 240.705413 157.932259 
L 240.829945 158.210603 
L 240.954476 158.782364 
L 241.20354 158.276199 
L 241.328072 158.836436 
L 241.577136 158.800976 
L 241.826199 156.67883 
L 241.950731 156.903103 
L 242.199795 158.341795 
L 242.324327 157.759408 
L 242.573391 158.469448 
L 242.697922 158.053701 
L 242.822454 158.831112 
L 243.071518 161.451437 
L 243.19605 162.317481 
L 243.320582 161.759917 
L 243.445114 162.606461 
L 243.694177 160.771533 
L 243.818709 161.367218 
L 243.943241 163.698563 
L 244.192305 163.016884 
L 244.316836 163.47784 
L 244.5659 162.875056 
L 244.814964 161.51792 
L 244.939496 161.509934 
L 245.188559 158.955216 
L 245.313091 158.499584 
L 245.437623 159.005738 
L 245.562155 158.600639 
L 245.811219 157.114076 
L 245.935751 155.273824 
L 246.060282 155.555717 
L 246.309346 157.372921 
L 246.55841 158.176918 
L 246.682942 157.653916 
L 246.932005 159.171502 
L 247.056537 157.979243 
L 247.181069 158.079412 
L 247.305601 159.427685 
L 247.430133 158.378142 
L 247.679197 161.485122 
L 247.803728 161.400904 
L 248.052792 157.252366 
L 248.177324 156.63717 
L 248.301856 157.707987 
L 248.55092 154.597469 
L 248.675451 153.59136 
L 248.799983 153.577174 
L 248.924515 152.689846 
L 249.049047 153.424709 
L 249.547174 151.158084 
L 249.796238 152.524082 
L 250.045302 151.514424 
L 250.169834 151.954106 
L 250.294366 151.287501 
L 250.418897 153.356451 
L 250.543429 151.276864 
L 250.667961 151.163397 
L 250.792493 151.535708 
L 251.166089 148.83294 
L 251.539684 150.323052 
L 251.788748 148.249665 
L 251.91328 148.451777 
L 252.037811 148.427841 
L 252.162343 148.030717 
L 252.411407 148.156585 
L 252.909534 149.998612 
L 253.158598 147.929661 
L 253.28313 148.439365 
L 253.532194 150.843393 
L 253.656726 150.859354 
L 253.781257 149.864758 
L 253.905789 150.35585 
L 254.030321 147.72755 
L 254.154853 147.820631 
L 254.65298 145.332396 
L 254.777512 144.946785 
L 255.026576 145.031004 
L 255.151108 144.384785 
L 255.400172 145.836775 
L 255.524703 145.890847 
L 255.649235 146.298608 
L 255.773767 145.313773 
L 256.022831 145.291612 
L 256.147363 144.915762 
L 256.271895 146.96965 
L 256.520958 144.38301 
L 256.64549 144.603733 
L 256.770022 145.24109 
L 257.143618 144.695039 
L 257.268149 146.148804 
L 257.517213 150.306204 
L 257.641745 149.336443 
L 257.766277 150.958634 
L 257.890809 149.18664 
L 258.015341 150.214909 
L 258.139872 153.82272 
L 258.264404 152.642873 
L 258.388936 152.95844 
L 258.887064 146.920891 
L 259.011595 146.964326 
L 259.260659 145.24729 
L 259.509723 145.058478 
L 259.634255 146.123094 
L 259.758786 145.145347 
L 259.883318 145.458263 
L 260.00785 144.451268 
L 260.256914 144.668441 
L 260.505978 143.401724 
L 260.630509 144.617919 
L 260.755041 142.119923 
L 260.879573 142.128786 
L 261.128637 141.753823 
L 261.253169 141.830943 
L 261.377701 142.676611 
L 261.502232 142.626089 
L 261.751296 145.02568 
L 262.00036 142.267076 
L 262.124892 143.284708 
L 262.249424 142.288349 
L 262.498487 143.5799 
L 262.623019 142.854786 
L 262.872083 144.324502 
L 263.121147 142.259101 
L 263.37021 140.613861 
L 263.494742 140.802673 
L 263.743806 144.679078 
L 263.868338 144.065668 
L 263.99287 142.273276 
L 264.241933 147.280791 
L 264.740061 142.923044 
L 264.989124 142.298986 
L 265.113656 141.619969 
L 265.238188 141.988732 
L 265.36272 141.7033 
L 265.487252 143.051574 
L 265.985379 141.253869 
L 266.109911 141.479028 
L 266.234443 141.166999 
L 266.358975 142.668636 
L 266.483507 141.73876 
L 266.608038 141.967458 
L 266.73257 141.714825 
L 266.857102 140.104157 
L 266.981634 140.033248 
L 267.106166 140.823947 
L 267.230698 142.391179 
L 267.479761 141.129776 
L 267.604293 142.215666 
L 267.853357 140.47292 
L 268.226953 138.751447 
L 268.351484 138.94026 
L 268.600548 137.717865 
L 268.72508 137.593761 
L 268.849612 137.658469 
L 268.974144 137.335804 
L 269.223207 135.424642 
L 269.347739 135.262417 
L 269.472271 135.304964 
L 269.596803 135.916611 
L 269.721335 137.138129 
L 269.970399 136.458225 
L 270.09493 136.085037 
L 270.343994 134.534652 
L 270.468526 134.234147 
L 270.593058 134.257195 
L 270.71759 135.376771 
L 270.842122 134.530215 
L 270.966653 134.734989 
L 271.091185 134.40346 
L 271.215717 134.468169 
L 271.340249 133.307821 
L 271.464781 133.192579 
L 271.589313 132.233454 
L 271.838376 132.923985 
L 271.962908 134.159689 
L 272.08744 133.351255 
L 272.211972 134.073696 
L 272.336504 133.817524 
L 272.461036 132.972743 
L 272.585568 133.311359 
L 272.710099 132.576507 
L 272.834631 134.655207 
L 272.959163 132.873462 
L 273.083695 133.280336 
L 273.332759 132.094277 
L 273.457291 132.008295 
L 273.581822 132.862825 
L 273.706354 132.812292 
L 273.830886 133.606551 
L 273.955418 133.595914 
L 274.204482 137.5778 
L 274.329013 136.350969 
L 274.453545 138.015708 
L 274.578077 138.013046 
L 274.702609 138.958882 
L 274.951673 136.534457 
L 275.076205 136.815463 
L 275.325268 134.915815 
L 275.4498 134.926452 
L 275.698864 132.573845 
L 275.947928 131.619146 
L 276.072459 131.971061 
L 276.321523 130.941016 
L 276.446055 130.932154 
L 276.570587 131.231772 
L 276.695119 130.644061 
L 277.068714 130.87897 
L 277.193246 131.151103 
L 277.317778 130.259348 
L 277.44231 130.806276 
L 277.566842 131.967522 
L 277.815905 131.168838 
L 278.064969 132.349573 
L 278.314033 130.803625 
L 278.438565 129.935795 
L 278.563097 130.02089 
L 278.81216 132.470127 
L 278.936692 131.093482 
L 279.061224 133.957578 
L 279.185756 132.46304 
L 279.43482 133.399116 
L 279.559351 135.715387 
L 279.683883 135.714499 
L 279.808415 133.788265 
L 279.932947 134.061295 
L 280.057479 136.695796 
L 280.182011 133.700508 
L 280.555606 142.046353 
L 280.680138 141.78397 
L 280.80467 143.132243 
L 280.929202 143.108307 
L 281.302797 136.14797 
L 281.427329 137.404061 
L 281.676393 134.082569 
L 281.800925 134.344065 
L 281.925457 132.268016 
L 282.049988 132.511787 
L 282.299052 129.342761 
L 282.423584 129.364034 
L 282.548116 129.8702 
L 282.79718 128.176212 
L 282.921711 128.113267 
L 283.170775 127.425388 
L 283.295307 127.552154 
L 283.668903 127.280021 
L 283.793434 126.351022 
L 283.917966 126.624053 
L 284.042498 126.266814 
L 284.291562 124.790011 
L 284.416094 125.000974 
L 284.540626 124.486834 
L 284.789689 124.95399 
L 284.914221 126.205655 
L 285.163285 124.353868 
L 285.287817 124.567514 
L 285.412349 124.261674 
L 285.53688 125.59666 
L 285.661412 125.640095 
L 285.785944 128.625633 
L 285.910476 127.810999 
L 286.15954 131.86203 
L 286.284072 133.35923 
L 286.657667 124.680094 
L 286.906731 123.658912 
L 287.031263 123.684622 
L 287.404858 122.914288 
L 287.52939 123.820228 
L 287.653922 125.721662 
L 287.902986 125.783708 
L 288.152049 130.711431 
L 288.401113 125.434456 
L 288.774709 128.901315 
L 289.023772 131.592548 
L 289.148304 129.221319 
L 289.397368 128.943862 
L 289.5219 128.095543 
L 289.646432 125.344924 
L 289.770963 126.349247 
L 289.895495 125.882091 
L 290.144559 130.751317 
L 290.269091 129.059104 
L 290.393623 131.386899 
L 290.642686 126.507924 
L 290.767218 127.263173 
L 290.89175 125.40076 
L 291.140814 126.799566 
L 291.265346 124.862684 
L 291.389878 124.868008 
L 291.638941 122.3452 
L 291.888005 122.048234 
L 292.012537 122.106753 
L 292.137069 122.304427 
L 292.261601 121.165342 
L 292.386132 121.222086 
L 292.510664 120.706171 
L 292.759728 121.126344 
L 292.88426 121.679482 
L 293.008792 120.536869 
L 293.257855 122.208685 
L 293.382387 121.986187 
L 293.506919 124.626011 
L 293.631451 123.901796 
L 293.880515 127.375753 
L 294.005047 125.096717 
L 294.129578 126.209204 
L 294.25411 123.745781 
L 294.378642 124.358304 
L 294.503174 122.122703 
L 294.627706 123.02953 
L 294.752238 121.360355 
L 294.87677 121.68658 
L 295.001301 122.831855 
L 295.250365 125.965433 
L 295.374897 125.533726 
L 295.499429 123.298124 
L 295.748493 125.65163 
L 296.122088 123.796293 
L 296.24662 124.17658 
L 296.495684 122.860228 
L 296.620216 121.895768 
L 296.744747 122.749422 
L 296.869279 122.447132 
L 296.993811 121.49068 
L 297.118343 121.636047 
L 297.242875 123.746669 
L 297.367407 122.042931 
L 297.491938 122.318603 
L 297.741002 120.932218 
L 297.865534 120.510271 
L 297.990066 121.287682 
L 298.114598 120.769993 
L 298.23913 121.47116 
L 298.363661 123.362833 
L 298.612725 120.793928 
L 298.861789 123.837975 
L 298.986321 123.14211 
L 299.110853 120.651202 
L 299.359916 122.156377 
L 299.484448 122.213121 
L 299.60898 120.207981 
L 299.733512 120.063502 
L 299.858044 119.489977 
L 300.107107 119.786922 
L 300.231639 119.346363 
L 300.356171 119.76831 
L 300.605235 121.70608 
L 300.729767 119.997019 
L 300.854299 120.235466 
L 300.97883 121.42331 
L 301.103362 121.038587 
L 301.227894 121.227388 
L 301.352426 120.831152 
L 301.60149 122.713952 
L 301.726022 123.915084 
L 301.850553 123.837975 
L 302.099617 121.292984 
L 302.348681 123.458575 
L 302.722276 120.195581 
L 302.846808 121.192827 
L 303.095872 119.933197 
L 303.344936 121.873607 
L 303.469468 121.946302 
L 303.593999 125.833354 
L 303.718531 125.348452 
L 303.843063 124.079971 
L 303.967595 124.136694 
L 304.216659 124.847621 
L 304.341191 123.732472 
L 304.465722 126.804879 
L 304.590254 126.394457 
L 304.96385 121.28502 
L 305.088382 121.422423 
L 305.337445 119.716911 
L 305.461977 119.571523 
L 305.835573 121.887804 
L 306.084636 124.946913 
L 306.3337 121.318694 
L 306.458232 121.313392 
L 306.831828 122.670517 
L 306.956359 122.092556 
L 307.205423 124.066662 
L 307.329955 121.707854 
L 307.454487 123.490475 
L 307.579019 123.314961 
L 307.703551 123.550769 
L 307.952614 121.862094 
L 308.077146 122.351411 
L 308.201678 123.885824 
L 308.450742 133.52322 
L 308.699805 142.678386 
L 308.948869 132.036656 
L 309.073401 131.9294 
L 309.197933 133.408865 
L 309.322465 138.579483 
L 309.446997 135.476052 
L 309.571528 135.274828 
L 309.69606 137.926176 
L 309.945124 133.654411 
L 310.069656 136.0806 
L 310.31872 134.395475 
L 310.443251 135.106402 
L 310.692315 131.358527 
L 310.816847 131.811508 
L 310.941379 134.663182 
L 311.065911 133.870708 
L 311.314974 136.371355 
L 311.564038 137.029098 
L 311.68857 141.423182 
L 311.813102 141.217532 
L 311.937634 138.031658 
L 312.062165 137.695704 
L 312.311229 132.090728 
L 312.435761 132.722761 
L 312.809357 129.622879 
L 312.933888 129.395068 
L 313.182952 131.453382 
L 313.432016 128.007786 
L 313.556548 127.959027 
L 313.68108 128.21521 
L 313.805611 129.263877 
L 314.054675 124.281195 
L 314.303739 125.10204 
L 314.428271 122.933787 
L 314.552803 123.017129 
L 314.677334 123.907985 
L 314.926398 121.210551 
L 315.175462 122.084592 
L 315.299994 122.1493 
L 315.424526 123.97713 
L 315.549057 123.698797 
L 315.673589 124.294483 
L 315.922653 128.900427 
L 316.047185 126.227816 
L 316.171717 126.471588 
L 316.296249 123.53391 
L 316.42078 123.741345 
L 316.545312 123.038403 
L 316.669844 123.26709 
L 316.794376 123.041065 
L 317.04344 123.010009 
L 317.167972 122.955061 
L 317.292503 123.814926 
L 317.417035 121.845257 
L 317.666099 126.54426 
L 317.790631 122.815018 
L 318.164226 126.721559 
L 318.288758 126.312911 
L 318.41329 129.846264 
L 318.537822 128.997945 
L 318.786886 124.46556 
L 319.035949 130.450812 
L 319.409545 125.243858 
L 319.534077 125.536388 
L 319.78314 125.934399 
L 319.907672 123.996629 
L 320.654863 131.806184 
L 320.903927 137.854369 
L 321.028459 137.708992 
L 321.152991 136.378443 
L 321.277523 140.66882 
L 321.402055 137.871217 
L 321.526586 141.550835 
L 321.77565 141.462191 
L 321.900182 143.412361 
L 322.024714 142.556056 
L 322.149246 139.195555 
L 322.273778 141.838928 
L 322.398309 139.485423 
L 322.522841 141.318588 
L 322.647373 140.3958 
L 322.771905 136.240164 
L 322.896437 136.316396 
L 323.020969 139.538607 
L 323.270032 138.437655 
L 323.519096 143.934476 
L 323.76816 144.07453 
L 323.892692 146.093846 
L 324.141755 141.564134 
L 324.266287 140.199012 
L 324.390819 137.429771 
L 324.515351 138.226681 
L 324.639883 138.231107 
L 324.764415 135.773895 
L 324.888947 137.92174 
L 325.013478 137.165603 
L 325.13801 135.224306 
L 325.262542 135.547848 
L 325.387074 136.950204 
L 325.636138 132.143923 
L 326.009733 130.786777 
L 326.134265 132.781269 
L 326.258797 131.894828 
L 326.383329 131.867354 
L 326.507861 128.975784 
L 326.756924 129.530686 
L 327.255052 126.368747 
L 327.379584 126.52831 
L 327.504115 127.688669 
L 327.753179 127.707725 
L 327.877711 127.658523 
L 328.126775 125.274005 
L 328.251307 125.647193 
L 328.375838 124.49127 
L 328.50037 125.080767 
L 328.624902 126.938733 
L 328.749434 125.033783 
L 328.873966 127.227714 
L 328.998498 126.723334 
L 329.12303 127.220626 
L 329.372093 123.636751 
L 329.496625 123.604829 
L 329.621157 123.786554 
L 329.870221 122.007461 
L 329.994753 121.865643 
L 330.119284 122.83363 
L 330.243816 122.824757 
L 330.368348 123.160722 
L 330.617412 122.508313 
L 330.866476 125.154327 
L 330.991007 123.724508 
L 331.240071 126.411294 
L 331.364603 126.45475 
L 331.613667 125.740274 
L 331.738199 123.462124 
L 331.86273 125.228795 
L 331.987262 125.259808 
L 332.111794 126.811091 
L 332.236326 125.033783 
L 332.360858 126.757906 
L 332.48539 126.720672 
L 332.609922 127.393478 
L 332.734453 126.304925 
L 332.858985 126.684325 
L 333.108049 122.91695 
L 333.232581 122.955948 
L 333.357113 122.161701 
L 333.606176 122.347862 
L 333.730708 122.137765 
L 333.85524 121.612112 
L 333.979772 122.155511 
L 334.228836 121.003138 
L 334.353368 120.383495 
L 334.477899 120.706171 
L 334.726963 123.934583 
L 334.976027 124.604737 
L 335.100559 124.029438 
L 335.22509 124.62956 
L 335.474154 123.062339 
L 335.598686 123.368157 
L 335.723218 120.897635 
L 335.972282 130.89492 
L 336.345877 122.179425 
L 336.470409 121.816885 
L 336.719473 123.093351 
L 336.844005 122.102316 
L 336.968536 122.264542 
L 337.2176 118.784373 
L 337.342132 117.456486 
L 337.466664 117.430776 
L 337.591196 116.427319 
L 337.715728 116.605494 
L 337.840259 116.148986 
L 337.964791 116.424657 
L 338.089323 115.605586 
L 338.213855 116.301451 
L 338.338387 115.427411 
L 338.462919 116.008034 
L 338.587451 115.945987 
L 338.711982 116.176449 
L 338.961046 115.554166 
L 339.085578 115.798824 
L 339.21011 117.023005 
L 339.334642 116.42377 
L 339.459174 116.382997 
L 339.583705 114.732433 
L 339.708237 114.907968 
L 339.832769 114.832612 
L 339.957301 115.386638 
L 340.081833 114.473599 
L 340.206365 114.627839 
L 340.330897 114.087123 
L 340.455428 115.150852 
L 340.704492 114.364569 
L 340.953556 114.752841 
L 341.078088 114.375216 
L 341.327151 115.654345 
L 341.451683 115.958388 
L 341.576215 114.953178 
L 341.949811 115.79705 
L 342.198874 114.700533 
L 342.323406 114.41244 
L 342.447938 114.440812 
L 342.57247 114.87161 
L 342.697002 119.613183 
L 342.821534 116.844829 
L 342.946065 119.683215 
L 343.070597 119.79402 
L 343.195129 117.889059 
L 343.319661 118.607085 
L 343.568725 118.55389 
L 343.817788 115.236834 
L 344.066852 117.991879 
L 344.315916 115.75184 
L 344.440448 117.546018 
L 344.56498 116.026646 
L 344.814043 117.60274 
L 345.063107 116.691476 
L 345.187639 117.314647 
L 345.312171 116.435304 
L 345.436703 118.822484 
L 345.561234 118.60531 
L 345.685766 119.193011 
L 345.810298 119.1549 
L 345.93483 119.729312 
L 346.183894 118.15233 
L 346.432957 118.429797 
L 346.557489 117.528272 
L 346.931085 119.149576 
L 347.055617 119.737297 
L 347.180149 119.760346 
L 347.553744 123.083612 
L 347.678276 123.392092 
L 347.92734 118.571614 
L 348.176403 116.096678 
L 348.425467 116.387433 
L 348.549999 114.95229 
L 348.674531 115.258108 
L 348.799063 114.355696 
L 348.923595 114.818437 
L 349.172658 112.953361 
L 349.29719 112.795572 
L 349.546254 112.030562 
L 349.670786 113.061505 
L 349.795318 112.800896 
L 350.044381 114.004668 
L 350.168913 113.927559 
L 350.791572 107.936984 
L 350.916104 108.164805 
L 351.040636 106.856417 
L 351.165168 108.491009 
L 351.2897 107.715373 
L 351.414232 108.066401 
L 351.663295 106.941512 
L 351.912359 107.810229 
L 352.285955 107.108174 
L 352.410486 108.788863 
L 352.535018 108.84736 
L 352.65955 109.771912 
L 353.033146 106.942399 
L 353.157678 107.097527 
L 353.282209 106.390148 
L 353.406741 107.1064 
L 353.531273 107.1064 
L 353.655805 106.53729 
L 353.780337 106.969884 
L 353.904869 106.597583 
L 354.153932 107.195931 
L 354.278464 106.841355 
L 354.402996 107.568232 
L 354.527528 106.892754 
L 354.65206 107.434379 
L 354.901124 104.494039 
L 355.025655 104.643864 
L 355.150187 104.820265 
L 355.399251 106.222599 
L 355.648315 106.047085 
L 355.772847 104.578268 
L 355.897378 105.009066 
L 356.146442 104.822039 
L 356.769101 99.983837 
L 356.893633 100.163787 
L 357.142697 99.184266 
L 357.267229 98.554018 
L 357.391761 98.780931 
L 357.516292 98.693174 
L 357.765356 98.166633 
L 357.889888 98.708258 
L 358.01442 95.843274 
L 358.138952 97.087841 
L 358.263484 96.981451 
L 358.637079 98.766755 
L 358.761611 98.599206 
L 359.010675 97.836879 
L 359.135207 98.547807 
L 359.259738 96.791762 
L 359.633334 97.836879 
L 359.757866 100.447444 
L 359.882398 100.054757 
L 360.255993 100.662843 
L 360.505057 98.930756 
L 360.629589 98.316436 
L 360.878653 99.133732 
L 361.003184 99.016738 
L 361.127716 99.655858 
L 361.252248 99.253411 
L 361.37678 99.426262 
L 361.501312 99.28267 
L 361.625844 99.582277 
L 361.874907 101.783317 
L 362.123971 100.005111 
L 362.373035 100.966021 
L 362.497567 99.399665 
L 362.622099 100.033483 
L 362.871162 96.494796 
L 362.995694 96.597637 
L 363.120226 96.48062 
L 363.244758 96.88573 
L 363.493822 96.267883 
L 363.618353 96.537365 
L 363.742885 96.414137 
L 363.867417 95.548083 
L 363.991949 95.540118 
L 364.116481 95.758179 
L 364.241013 95.517957 
L 364.490076 96.291819 
L 364.614608 95.279488 
L 364.73914 95.425764 
L 364.863672 99.294183 
L 365.112736 97.104678 
L 365.361799 95.625213 
L 365.735395 94.082793 
L 366.10899 94.439144 
L 366.358054 92.021817 
L 366.482586 92.285088 
L 366.607118 92.88521 
L 366.856182 92.489861 
L 367.105245 92.879908 
L 367.229777 91.90835 
L 367.354309 92.123771 
L 367.478841 92.607765 
L 367.603373 92.546605 
L 367.727905 90.746238 
L 367.852436 92.202655 
L 368.1015 92.426927 
L 368.350564 92.021817 
L 368.475096 93.767236 
L 368.599628 91.878225 
L 368.724159 93.738864 
L 369.222287 92.600666 
L 369.346819 94.620869 
L 369.595882 93.053647 
L 369.720414 93.222062 
L 369.969478 91.245294 
L 370.09401 90.231211 
L 370.218542 90.242746 
L 370.343074 90.11242 
L 370.467605 88.940547 
L 370.716669 89.054902 
L 370.841201 89.288047 
L 371.090265 88.585971 
L 371.46386 89.253464 
L 371.712924 88.609019 
L 371.837456 89.088598 
L 372.08652 88.312962 
L 372.335583 88.92371 
L 372.460115 92.098061 
L 372.584647 91.822368 
L 372.709179 89.648813 
L 372.833711 89.757844 
L 372.958242 89.447589 
L 373.207306 93.220287 
L 373.331838 92.970305 
L 373.45637 90.830446 
L 373.705434 92.030691 
L 373.954497 91.563534 
L 374.079029 91.380922 
L 374.452625 88.699438 
L 374.701688 90.357079 
L 374.82622 89.675411 
L 374.950752 89.714409 
L 375.075284 90.039747 
L 375.324348 86.932767 
L 375.44888 86.765218 
L 375.573411 87.008989 
L 375.947007 86.031263 
L 376.071539 85.890312 
L 376.196071 86.567543 
L 376.320603 86.423951 
L 376.445134 86.916817 
L 376.569666 86.900846 
L 377.067794 84.039411 
L 377.316857 83.27531 
L 377.441389 82.005033 
L 377.690453 82.655689 
L 377.939517 81.724039 
L 378.064049 82.1061 
L 378.686708 81.115931 
L 378.81124 79.953818 
L 378.935772 80.860646 
L 379.060303 80.492781 
L 379.184835 81.554736 
L 379.309367 81.266643 
L 379.433899 79.434354 
L 379.558431 80.164781 
L 379.932026 79.542498 
L 380.18109 78.542611 
L 380.305622 78.586046 
L 380.430154 78.254518 
L 380.679217 79.325324 
L 380.803749 79.100164 
L 380.928281 79.629367 
L 381.052813 80.892546 
L 381.177345 79.029266 
L 381.301877 79.631142 
L 381.426409 79.339521 
L 381.55094 77.84231 
L 381.675472 78.015161 
L 381.924536 77.541816 
L 382.049068 77.63046 
L 382.1736 75.359387 
L 382.298132 75.44537 
L 382.422663 73.538634 
L 382.920791 75.161713 
L 383.169855 73.191156 
L 383.418918 72.073344 
L 383.54345 72.185037 
L 383.667982 73.145947 
L 383.917046 69.764183 
L 384.166109 70.731282 
L 384.290641 70.259689 
L 384.664237 70.620477 
L 384.788769 70.432541 
L 384.913301 69.996419 
L 385.037832 71.231225 
L 385.53596 66.765346 
L 385.785024 64.66271 
L 385.909555 64.345357 
L 386.034087 64.616613 
L 386.283151 61.24725 
L 386.532215 62.117741 
L 386.656747 59.800572 
L 386.781278 60.202133 
L 387.154874 56.558873 
L 387.279406 56.699803 
L 387.403938 56.548225 
L 387.52847 53.568 
L 387.777533 58.039225 
L 387.902065 57.916885 
L 388.026597 58.079111 
L 388.275661 73.41809 
L 388.400192 69.322737 
L 388.524724 70.517658 
L 388.649256 79.440566 
L 389.022852 72.177073 
L 389.271915 66.126225 
L 389.396447 66.035806 
L 389.770043 68.774013 
L 389.894575 68.54089 
L 390.143638 61.835837 
L 390.517234 70.871347 
L 390.641766 69.667553 
L 390.89083 66.399234 
L 391.015361 66.516251 
L 391.139893 65.437459 
L 391.264425 61.217991 
L 391.388957 61.532682 
L 391.638021 64.505808 
L 391.762553 64.696385 
L 391.887084 64.281536 
L 392.011616 67.746642 
L 392.136148 67.390291 
L 392.26068 67.834399 
L 392.509744 78.797008 
L 392.634276 72.566211 
L 392.883339 77.313107 
L 393.007871 74.133433 
L 393.256935 79.362569 
L 393.63053 72.185924 
L 393.755062 77.360091 
L 393.879594 76.589779 
L 394.004126 72.715127 
L 394.128658 74.016438 
L 394.25319 72.083992 
L 394.377722 72.76566 
L 394.751317 68.126041 
L 395.249445 74.692782 
L 395.373976 74.263758 
L 395.62304 71.559226 
L 395.747572 73.496974 
L 395.872104 72.898626 
L 396.121167 75.12094 
L 396.370231 71.318117 
L 396.494763 71.38105 
L 396.868359 66.434705 
L 396.99289 66.22108 
L 397.117422 67.876946 
L 397.241954 66.900974 
L 397.366486 67.107522 
L 397.491018 67.742206 
L 397.61555 65.965774 
L 397.740082 66.72546 
L 397.864613 65.940951 
L 398.113677 67.001131 
L 398.362741 69.790759 
L 398.487273 66.763571 
L 398.487273 66.763571 
" style="fill:none;stroke:#1f77b4;stroke-linecap:square;stroke-width:1.5;"/>
   </g>
   <g id="line2d_14">
    <path clip-path="url(#pd446d1ccc3)" d="M 396.619295 295.488 
L 396.743827 289.108697 
L 396.99289 267.619458 
L 397.117422 273.815992 
L 397.366486 264.11365 
L 397.491018 249.724914 
L 397.61555 214.368408 
L 397.740082 239.948195 
L 397.989145 113.140129 
L 398.113677 104.437078 
L 398.238209 107.592644 
L 398.362741 77.231193 
L 398.487273 134.971542 
L 398.487273 134.971542 
" style="fill:none;stroke:#ff7f0e;stroke-linecap:square;stroke-width:1.5;"/>
   </g>
   <g id="patch_3">
    <path d="M 57.6 307.584 
L 57.6 41.472 
" style="fill:none;stroke:#000000;stroke-linecap:square;stroke-linejoin:miter;stroke-width:0.8;"/>
   </g>
   <g id="patch_4">
    <path d="M 414.72 307.584 
L 414.72 41.472 
" style="fill:none;stroke:#000000;stroke-linecap:square;stroke-linejoin:miter;stroke-width:0.8;"/>
   </g>
   <g id="patch_5">
    <path d="M 57.6 307.584 
L 414.72 307.584 
" style="fill:none;stroke:#000000;stroke-linecap:square;stroke-linejoin:miter;stroke-width:0.8;"/>
   </g>
   <g id="patch_6">
    <path d="M 57.6 41.472 
L 414.72 41.472 
" style="fill:none;stroke:#000000;stroke-linecap:square;stroke-linejoin:miter;stroke-width:0.8;"/>
   </g>
  </g>
 </g>
 <defs>
  <clipPath id="pd446d1ccc3">
   <rect height="266.112" width="357.12" x="57.6" y="41.472"/>
  </clipPath>
 </defs>
</svg>
