<?xml version="1.0" encoding="utf-8" standalone="no"?>
<!DOCTYPE svg PUBLIC "-//W3C//DTD SVG 1.1//EN"
  "http://www.w3.org/Graphics/SVG/1.1/DTD/svg11.dtd">
<!-- Created with matplotlib (http://matplotlib.org/) -->
<svg height="345.6pt" version="1.1" viewBox="0 0 460.8 345.6" width="460.8pt" xmlns="http://www.w3.org/2000/svg" xmlns:xlink="http://www.w3.org/1999/xlink">
 <defs>
  <style type="text/css">
*{stroke-linecap:butt;stroke-linejoin:round;}
  </style>
 </defs>
 <g id="figure_1">
  <g id="patch_1">
   <path d="M 0 345.6 
L 460.8 345.6 
L 460.8 0 
L 0 0 
z
" style="fill:#ffffff;"/>
  </g>
  <g id="axes_1">
   <g id="patch_2">
    <path d="M 57.6 307.584 
L 414.72 307.584 
L 414.72 41.472 
L 57.6 41.472 
z
" style="fill:#ffffff;"/>
   </g>
   <g id="matplotlib.axis_1">
    <g id="xtick_1">
     <g id="line2d_1">
      <defs>
       <path d="M 0 0 
L 0 3.5 
" id="m757c374eae" style="stroke:#000000;stroke-width:0.8;"/>
      </defs>
      <g>
       <use style="stroke:#000000;stroke-width:0.8;" x="73.832727" xlink:href="#m757c374eae" y="307.584"/>
      </g>
     </g>
     <g id="text_1">
      <!-- 0 -->
      <defs>
       <path d="M 31.78125 66.40625 
Q 24.171875 66.40625 20.328125 58.90625 
Q 16.5 51.421875 16.5 36.375 
Q 16.5 21.390625 20.328125 13.890625 
Q 24.171875 6.390625 31.78125 6.390625 
Q 39.453125 6.390625 43.28125 13.890625 
Q 47.125 21.390625 47.125 36.375 
Q 47.125 51.421875 43.28125 58.90625 
Q 39.453125 66.40625 31.78125 66.40625 
z
M 31.78125 74.21875 
Q 44.046875 74.21875 50.515625 64.515625 
Q 56.984375 54.828125 56.984375 36.375 
Q 56.984375 17.96875 50.515625 8.265625 
Q 44.046875 -1.421875 31.78125 -1.421875 
Q 19.53125 -1.421875 13.0625 8.265625 
Q 6.59375 17.96875 6.59375 36.375 
Q 6.59375 54.828125 13.0625 64.515625 
Q 19.53125 74.21875 31.78125 74.21875 
z
" id="DejaVuSans-30"/>
      </defs>
      <g transform="translate(70.651477 322.182437)scale(0.1 -0.1)">
       <use xlink:href="#DejaVuSans-30"/>
      </g>
     </g>
    </g>
    <g id="xtick_2">
     <g id="line2d_2">
      <g>
       <use style="stroke:#000000;stroke-width:0.8;" x="113.667641" xlink:href="#m757c374eae" y="307.584"/>
      </g>
     </g>
     <g id="text_2">
      <!-- 100 -->
      <defs>
       <path d="M 12.40625 8.296875 
L 28.515625 8.296875 
L 28.515625 63.921875 
L 10.984375 60.40625 
L 10.984375 69.390625 
L 28.421875 72.90625 
L 38.28125 72.90625 
L 38.28125 8.296875 
L 54.390625 8.296875 
L 54.390625 0 
L 12.40625 0 
z
" id="DejaVuSans-31"/>
      </defs>
      <g transform="translate(104.123891 322.182437)scale(0.1 -0.1)">
       <use xlink:href="#DejaVuSans-31"/>
       <use x="63.623047" xlink:href="#DejaVuSans-30"/>
       <use x="127.246094" xlink:href="#DejaVuSans-30"/>
      </g>
     </g>
    </g>
    <g id="xtick_3">
     <g id="line2d_3">
      <g>
       <use style="stroke:#000000;stroke-width:0.8;" x="153.502554" xlink:href="#m757c374eae" y="307.584"/>
      </g>
     </g>
     <g id="text_3">
      <!-- 200 -->
      <defs>
       <path d="M 19.1875 8.296875 
L 53.609375 8.296875 
L 53.609375 0 
L 7.328125 0 
L 7.328125 8.296875 
Q 12.9375 14.109375 22.625 23.890625 
Q 32.328125 33.6875 34.8125 36.53125 
Q 39.546875 41.84375 41.421875 45.53125 
Q 43.3125 49.21875 43.3125 52.78125 
Q 43.3125 58.59375 39.234375 62.25 
Q 35.15625 65.921875 28.609375 65.921875 
Q 23.96875 65.921875 18.8125 64.3125 
Q 13.671875 62.703125 7.8125 59.421875 
L 7.8125 69.390625 
Q 13.765625 71.78125 18.9375 73 
Q 24.125 74.21875 28.421875 74.21875 
Q 39.75 74.21875 46.484375 68.546875 
Q 53.21875 62.890625 53.21875 53.421875 
Q 53.21875 48.921875 51.53125 44.890625 
Q 49.859375 40.875 45.40625 35.40625 
Q 44.1875 33.984375 37.640625 27.21875 
Q 31.109375 20.453125 19.1875 8.296875 
z
" id="DejaVuSans-32"/>
      </defs>
      <g transform="translate(143.958804 322.182437)scale(0.1 -0.1)">
       <use xlink:href="#DejaVuSans-32"/>
       <use x="63.623047" xlink:href="#DejaVuSans-30"/>
       <use x="127.246094" xlink:href="#DejaVuSans-30"/>
      </g>
     </g>
    </g>
    <g id="xtick_4">
     <g id="line2d_4">
      <g>
       <use style="stroke:#000000;stroke-width:0.8;" x="193.337468" xlink:href="#m757c374eae" y="307.584"/>
      </g>
     </g>
     <g id="text_4">
      <!-- 300 -->
      <defs>
       <path d="M 40.578125 39.3125 
Q 47.65625 37.796875 51.625 33 
Q 55.609375 28.21875 55.609375 21.1875 
Q 55.609375 10.40625 48.1875 4.484375 
Q 40.765625 -1.421875 27.09375 -1.421875 
Q 22.515625 -1.421875 17.65625 -0.515625 
Q 12.796875 0.390625 7.625 2.203125 
L 7.625 11.71875 
Q 11.71875 9.328125 16.59375 8.109375 
Q 21.484375 6.890625 26.8125 6.890625 
Q 36.078125 6.890625 40.9375 10.546875 
Q 45.796875 14.203125 45.796875 21.1875 
Q 45.796875 27.640625 41.28125 31.265625 
Q 36.765625 34.90625 28.71875 34.90625 
L 20.21875 34.90625 
L 20.21875 43.015625 
L 29.109375 43.015625 
Q 36.375 43.015625 40.234375 45.921875 
Q 44.09375 48.828125 44.09375 54.296875 
Q 44.09375 59.90625 40.109375 62.90625 
Q 36.140625 65.921875 28.71875 65.921875 
Q 24.65625 65.921875 20.015625 65.03125 
Q 15.375 64.15625 9.8125 62.3125 
L 9.8125 71.09375 
Q 15.4375 72.65625 20.34375 73.4375 
Q 25.25 74.21875 29.59375 74.21875 
Q 40.828125 74.21875 47.359375 69.109375 
Q 53.90625 64.015625 53.90625 55.328125 
Q 53.90625 49.265625 50.4375 45.09375 
Q 46.96875 40.921875 40.578125 39.3125 
z
" id="DejaVuSans-33"/>
      </defs>
      <g transform="translate(183.793718 322.182437)scale(0.1 -0.1)">
       <use xlink:href="#DejaVuSans-33"/>
       <use x="63.623047" xlink:href="#DejaVuSans-30"/>
       <use x="127.246094" xlink:href="#DejaVuSans-30"/>
      </g>
     </g>
    </g>
    <g id="xtick_5">
     <g id="line2d_5">
      <g>
       <use style="stroke:#000000;stroke-width:0.8;" x="233.172381" xlink:href="#m757c374eae" y="307.584"/>
      </g>
     </g>
     <g id="text_5">
      <!-- 400 -->
      <defs>
       <path d="M 37.796875 64.3125 
L 12.890625 25.390625 
L 37.796875 25.390625 
z
M 35.203125 72.90625 
L 47.609375 72.90625 
L 47.609375 25.390625 
L 58.015625 25.390625 
L 58.015625 17.1875 
L 47.609375 17.1875 
L 47.609375 0 
L 37.796875 0 
L 37.796875 17.1875 
L 4.890625 17.1875 
L 4.890625 26.703125 
z
" id="DejaVuSans-34"/>
      </defs>
      <g transform="translate(223.628631 322.182437)scale(0.1 -0.1)">
       <use xlink:href="#DejaVuSans-34"/>
       <use x="63.623047" xlink:href="#DejaVuSans-30"/>
       <use x="127.246094" xlink:href="#DejaVuSans-30"/>
      </g>
     </g>
    </g>
    <g id="xtick_6">
     <g id="line2d_6">
      <g>
       <use style="stroke:#000000;stroke-width:0.8;" x="273.007295" xlink:href="#m757c374eae" y="307.584"/>
      </g>
     </g>
     <g id="text_6">
      <!-- 500 -->
      <defs>
       <path d="M 10.796875 72.90625 
L 49.515625 72.90625 
L 49.515625 64.59375 
L 19.828125 64.59375 
L 19.828125 46.734375 
Q 21.96875 47.46875 24.109375 47.828125 
Q 26.265625 48.1875 28.421875 48.1875 
Q 40.625 48.1875 47.75 41.5 
Q 54.890625 34.8125 54.890625 23.390625 
Q 54.890625 11.625 47.5625 5.09375 
Q 40.234375 -1.421875 26.90625 -1.421875 
Q 22.3125 -1.421875 17.546875 -0.640625 
Q 12.796875 0.140625 7.71875 1.703125 
L 7.71875 11.625 
Q 12.109375 9.234375 16.796875 8.0625 
Q 21.484375 6.890625 26.703125 6.890625 
Q 35.15625 6.890625 40.078125 11.328125 
Q 45.015625 15.765625 45.015625 23.390625 
Q 45.015625 31 40.078125 35.4375 
Q 35.15625 39.890625 26.703125 39.890625 
Q 22.75 39.890625 18.8125 39.015625 
Q 14.890625 38.140625 10.796875 36.28125 
z
" id="DejaVuSans-35"/>
      </defs>
      <g transform="translate(263.463545 322.182437)scale(0.1 -0.1)">
       <use xlink:href="#DejaVuSans-35"/>
       <use x="63.623047" xlink:href="#DejaVuSans-30"/>
       <use x="127.246094" xlink:href="#DejaVuSans-30"/>
      </g>
     </g>
    </g>
    <g id="xtick_7">
     <g id="line2d_7">
      <g>
       <use style="stroke:#000000;stroke-width:0.8;" x="312.842209" xlink:href="#m757c374eae" y="307.584"/>
      </g>
     </g>
     <g id="text_7">
      <!-- 600 -->
      <defs>
       <path d="M 33.015625 40.375 
Q 26.375 40.375 22.484375 35.828125 
Q 18.609375 31.296875 18.609375 23.390625 
Q 18.609375 15.53125 22.484375 10.953125 
Q 26.375 6.390625 33.015625 6.390625 
Q 39.65625 6.390625 43.53125 10.953125 
Q 47.40625 15.53125 47.40625 23.390625 
Q 47.40625 31.296875 43.53125 35.828125 
Q 39.65625 40.375 33.015625 40.375 
z
M 52.59375 71.296875 
L 52.59375 62.3125 
Q 48.875 64.0625 45.09375 64.984375 
Q 41.3125 65.921875 37.59375 65.921875 
Q 27.828125 65.921875 22.671875 59.328125 
Q 17.53125 52.734375 16.796875 39.40625 
Q 19.671875 43.65625 24.015625 45.921875 
Q 28.375 48.1875 33.59375 48.1875 
Q 44.578125 48.1875 50.953125 41.515625 
Q 57.328125 34.859375 57.328125 23.390625 
Q 57.328125 12.15625 50.6875 5.359375 
Q 44.046875 -1.421875 33.015625 -1.421875 
Q 20.359375 -1.421875 13.671875 8.265625 
Q 6.984375 17.96875 6.984375 36.375 
Q 6.984375 53.65625 15.1875 63.9375 
Q 23.390625 74.21875 37.203125 74.21875 
Q 40.921875 74.21875 44.703125 73.484375 
Q 48.484375 72.75 52.59375 71.296875 
z
" id="DejaVuSans-36"/>
      </defs>
      <g transform="translate(303.298459 322.182437)scale(0.1 -0.1)">
       <use xlink:href="#DejaVuSans-36"/>
       <use x="63.623047" xlink:href="#DejaVuSans-30"/>
       <use x="127.246094" xlink:href="#DejaVuSans-30"/>
      </g>
     </g>
    </g>
    <g id="xtick_8">
     <g id="line2d_8">
      <g>
       <use style="stroke:#000000;stroke-width:0.8;" x="352.677122" xlink:href="#m757c374eae" y="307.584"/>
      </g>
     </g>
     <g id="text_8">
      <!-- 700 -->
      <defs>
       <path d="M 8.203125 72.90625 
L 55.078125 72.90625 
L 55.078125 68.703125 
L 28.609375 0 
L 18.3125 0 
L 43.21875 64.59375 
L 8.203125 64.59375 
z
" id="DejaVuSans-37"/>
      </defs>
      <g transform="translate(343.133372 322.182437)scale(0.1 -0.1)">
       <use xlink:href="#DejaVuSans-37"/>
       <use x="63.623047" xlink:href="#DejaVuSans-30"/>
       <use x="127.246094" xlink:href="#DejaVuSans-30"/>
      </g>
     </g>
    </g>
    <g id="xtick_9">
     <g id="line2d_9">
      <g>
       <use style="stroke:#000000;stroke-width:0.8;" x="392.512036" xlink:href="#m757c374eae" y="307.584"/>
      </g>
     </g>
     <g id="text_9">
      <!-- 800 -->
      <defs>
       <path d="M 31.78125 34.625 
Q 24.75 34.625 20.71875 30.859375 
Q 16.703125 27.09375 16.703125 20.515625 
Q 16.703125 13.921875 20.71875 10.15625 
Q 24.75 6.390625 31.78125 6.390625 
Q 38.8125 6.390625 42.859375 10.171875 
Q 46.921875 13.96875 46.921875 20.515625 
Q 46.921875 27.09375 42.890625 30.859375 
Q 38.875 34.625 31.78125 34.625 
z
M 21.921875 38.8125 
Q 15.578125 40.375 12.03125 44.71875 
Q 8.5 49.078125 8.5 55.328125 
Q 8.5 64.0625 14.71875 69.140625 
Q 20.953125 74.21875 31.78125 74.21875 
Q 42.671875 74.21875 48.875 69.140625 
Q 55.078125 64.0625 55.078125 55.328125 
Q 55.078125 49.078125 51.53125 44.71875 
Q 48 40.375 41.703125 38.8125 
Q 48.828125 37.15625 52.796875 32.3125 
Q 56.78125 27.484375 56.78125 20.515625 
Q 56.78125 9.90625 50.3125 4.234375 
Q 43.84375 -1.421875 31.78125 -1.421875 
Q 19.734375 -1.421875 13.25 4.234375 
Q 6.78125 9.90625 6.78125 20.515625 
Q 6.78125 27.484375 10.78125 32.3125 
Q 14.796875 37.15625 21.921875 38.8125 
z
M 18.3125 54.390625 
Q 18.3125 48.734375 21.84375 45.5625 
Q 25.390625 42.390625 31.78125 42.390625 
Q 38.140625 42.390625 41.71875 45.5625 
Q 45.3125 48.734375 45.3125 54.390625 
Q 45.3125 60.0625 41.71875 63.234375 
Q 38.140625 66.40625 31.78125 66.40625 
Q 25.390625 66.40625 21.84375 63.234375 
Q 18.3125 60.0625 18.3125 54.390625 
z
" id="DejaVuSans-38"/>
      </defs>
      <g transform="translate(382.968286 322.182437)scale(0.1 -0.1)">
       <use xlink:href="#DejaVuSans-38"/>
       <use x="63.623047" xlink:href="#DejaVuSans-30"/>
       <use x="127.246094" xlink:href="#DejaVuSans-30"/>
      </g>
     </g>
    </g>
   </g>
   <g id="matplotlib.axis_2">
    <g id="ytick_1">
     <g id="line2d_10">
      <defs>
       <path d="M 0 0 
L -3.5 0 
" id="mdf3aed7c18" style="stroke:#000000;stroke-width:0.8;"/>
      </defs>
      <g>
       <use style="stroke:#000000;stroke-width:0.8;" x="57.6" xlink:href="#mdf3aed7c18" y="264.267882"/>
      </g>
     </g>
     <g id="text_10">
      <!-- 50 -->
      <g transform="translate(37.875 268.067101)scale(0.1 -0.1)">
       <use xlink:href="#DejaVuSans-35"/>
       <use x="63.623047" xlink:href="#DejaVuSans-30"/>
      </g>
     </g>
    </g>
    <g id="ytick_2">
     <g id="line2d_11">
      <g>
       <use style="stroke:#000000;stroke-width:0.8;" x="57.6" xlink:href="#mdf3aed7c18" y="209.26415"/>
      </g>
     </g>
     <g id="text_11">
      <!-- 100 -->
      <g transform="translate(31.5125 213.063368)scale(0.1 -0.1)">
       <use xlink:href="#DejaVuSans-31"/>
       <use x="63.623047" xlink:href="#DejaVuSans-30"/>
       <use x="127.246094" xlink:href="#DejaVuSans-30"/>
      </g>
     </g>
    </g>
    <g id="ytick_3">
     <g id="line2d_12">
      <g>
       <use style="stroke:#000000;stroke-width:0.8;" x="57.6" xlink:href="#mdf3aed7c18" y="154.260417"/>
      </g>
     </g>
     <g id="text_12">
      <!-- 150 -->
      <g transform="translate(31.5125 158.059636)scale(0.1 -0.1)">
       <use xlink:href="#DejaVuSans-31"/>
       <use x="63.623047" xlink:href="#DejaVuSans-35"/>
       <use x="127.246094" xlink:href="#DejaVuSans-30"/>
      </g>
     </g>
    </g>
    <g id="ytick_4">
     <g id="line2d_13">
      <g>
       <use style="stroke:#000000;stroke-width:0.8;" x="57.6" xlink:href="#mdf3aed7c18" y="99.256684"/>
      </g>
     </g>
     <g id="text_13">
      <!-- 200 -->
      <g transform="translate(31.5125 103.055903)scale(0.1 -0.1)">
       <use xlink:href="#DejaVuSans-32"/>
       <use x="63.623047" xlink:href="#DejaVuSans-30"/>
       <use x="127.246094" xlink:href="#DejaVuSans-30"/>
      </g>
     </g>
    </g>
    <g id="ytick_5">
     <g id="line2d_14">
      <g>
       <use style="stroke:#000000;stroke-width:0.8;" x="57.6" xlink:href="#mdf3aed7c18" y="44.252951"/>
      </g>
     </g>
     <g id="text_14">
      <!-- 250 -->
      <g transform="translate(31.5125 48.05217)scale(0.1 -0.1)">
       <use xlink:href="#DejaVuSans-32"/>
       <use x="63.623047" xlink:href="#DejaVuSans-35"/>
       <use x="127.246094" xlink:href="#DejaVuSans-30"/>
      </g>
     </g>
    </g>
   </g>
   <g id="line2d_15">
    <path clip-path="url(#p03f153f4e2)" d="M 73.832727 295.488 
L 74.231076 295.069973 
L 75.426124 294.981967 
L 76.222822 294.629943 
L 76.621171 294.14591 
L 77.417869 293.903894 
L 78.214568 293.221847 
L 78.612917 293.232848 
L 79.011266 293.419861 
L 79.807964 292.858822 
L 80.206313 292.704812 
L 80.604663 292.429794 
L 81.401361 292.473796 
L 82.198059 292.693811 
L 83.393107 292.96883 
L 84.986503 292.957829 
L 85.384852 293.199845 
L 87.376598 293.298852 
L 87.774947 293.40886 
L 88.571645 293.265851 
L 88.969994 293.25485 
L 90.96174 292.495798 
L 91.758438 292.209778 
L 92.953486 290.856687 
L 94.546882 290.746679 
L 95.343581 290.823684 
L 96.936977 290.15264 
L 98.928723 290.15264 
L 100.920468 289.910622 
L 104.505611 289.800614 
L 105.700658 289.624602 
L 106.099007 289.73461 
L 108.887451 289.635603 
L 109.684149 289.73461 
L 111.277546 289.822616 
L 115.261037 289.767613 
L 116.057736 289.712608 
L 116.854434 289.723609 
L 118.049481 289.536596 
L 119.244529 289.228577 
L 119.642878 289.184573 
L 120.041227 289.008561 
L 120.439576 289.008561 
L 121.634624 288.68954 
L 123.626369 288.26051 
L 124.423067 288.117501 
L 125.219766 288.018494 
L 125.618115 287.95249 
L 126.813162 287.512459 
L 127.609861 287.435454 
L 129.203257 287.468457 
L 131.991701 287.391452 
L 135.178494 286.91842 
L 135.975192 286.91842 
L 136.373542 286.91842 
L 137.17024 286.742408 
L 138.365287 286.698404 
L 138.763636 286.698404 
L 139.161985 286.544394 
L 141.153731 286.445387 
L 142.348779 286.445387 
L 143.543826 286.291377 
L 145.137223 286.225371 
L 146.730619 286.005358 
L 147.527317 286.02736 
L 149.120714 285.851348 
L 150.315761 285.74134 
L 154.299253 285.301311 
L 155.095951 285.268308 
L 160.672839 284.751273 
L 161.867886 284.531257 
L 162.664584 284.487253 
L 163.461283 284.344245 
L 168.241472 283.101159 
L 170.631567 282.859146 
L 171.428265 282.52912 
L 175.411757 281.319039 
L 176.606804 280.769002 
L 177.801852 280.328971 
L 178.59855 279.998949 
L 178.996899 279.888943 
L 179.793597 279.338906 
L 180.590296 279.008884 
L 184.573787 276.918741 
L 186.167183 276.368703 
L 188.158929 275.378635 
L 188.955627 275.268629 
L 189.752326 274.938607 
L 190.549024 274.608586 
L 196.524261 272.848464 
L 198.117658 271.968405 
L 198.914356 271.198352 
L 200.109403 270.648314 
L 200.507752 269.768256 
L 200.906102 269.54824 
L 202.897847 267.238085 
L 203.296196 266.688047 
L 203.694545 266.358026 
L 204.491244 265.367957 
L 204.889593 265.037935 
L 206.08464 263.167808 
L 206.881339 262.177739 
L 207.678037 261.40769 
L 209.271433 260.417621 
L 209.669782 259.867584 
L 210.068132 259.647568 
L 211.263179 258.437487 
L 212.059877 257.88745 
L 213.254925 257.557429 
L 216.840067 254.697232 
L 217.238416 254.037189 
L 222.018606 249.966912 
L 222.815304 248.976843 
L 223.612002 247.766762 
L 226.400446 243.916501 
L 228.392192 239.846228 
L 231.180636 233.465792 
L 232.375683 230.275574 
L 233.172381 228.515456 
L 233.570731 228.40545 
L 234.367429 226.97535 
L 236.757524 221.805002 
L 237.554222 220.594922 
L 239.147619 216.854666 
L 241.139364 215.094549 
L 241.537713 215.094549 
L 241.936062 214.764523 
L 243.13111 212.014336 
L 243.529459 211.794325 
L 243.927808 211.794325 
L 244.326157 211.354293 
L 244.724506 211.464299 
L 245.122856 211.794325 
L 245.919554 211.464299 
L 246.317903 211.354293 
L 246.716252 210.584236 
L 247.114601 210.144213 
L 247.51295 209.924193 
L 248.309649 209.154144 
L 249.903045 207.724043 
L 250.699743 206.403957 
L 254.683235 203.213739 
L 255.081584 202.993727 
L 255.878282 201.783639 
L 258.268377 200.353546 
L 259.065075 199.363478 
L 259.861774 198.373409 
L 260.260123 198.593429 
L 260.658472 199.253472 
L 261.056821 199.693503 
L 262.251868 198.81344 
L 262.650218 198.703435 
L 263.048567 198.263403 
L 263.845265 197.823371 
L 264.243614 197.38334 
L 264.641963 196.723297 
L 268.625455 192.322998 
L 269.023804 192.102987 
L 269.422153 191.662955 
L 270.218851 191.112918 
L 270.6172 190.342869 
L 271.015549 190.012843 
L 273.007295 187.372662 
L 274.600692 185.502539 
L 274.999041 184.842496 
L 275.39739 183.852427 
L 275.795739 183.192384 
L 276.592437 182.31232 
L 276.990786 182.31232 
L 277.389136 181.982295 
L 278.185834 180.772214 
L 278.584183 180.332183 
L 278.982532 179.012097 
L 280.177579 177.471999 
L 280.575929 177.25197 
L 282.169325 173.511723 
L 282.567674 172.521663 
L 282.966023 172.191637 
L 283.762722 171.091562 
L 284.957769 170.651522 
L 285.754467 169.661462 
L 286.152817 169.44145 
L 286.949515 168.561387 
L 287.347864 168.341376 
L 287.746213 167.681324 
L 288.144562 167.241301 
L 288.542911 167.131287 
L 288.94126 166.801261 
L 289.33961 166.251224 
L 290.534657 165.151149 
L 291.331355 164.3811 
L 291.729704 164.051074 
L 292.128054 163.39104 
L 292.526403 162.951 
L 292.924752 162.730988 
L 293.323101 162.180951 
L 294.518148 161.080876 
L 294.916497 160.640853 
L 295.713196 160.310827 
L 296.509894 159.76079 
L 296.908243 159.100739 
L 297.704941 158.33069 
L 298.103291 158.33069 
L 298.899989 157.450627 
L 299.298338 157.340629 
L 300.095036 156.57058 
L 301.290084 155.030466 
L 301.688433 154.920468 
L 303.281829 153.270356 
L 303.680178 152.940331 
L 304.078528 152.280279 
L 305.671924 151.070207 
L 306.070273 150.850179 
L 306.468622 150.410155 
L 307.265321 149.970132 
L 307.66367 149.090069 
L 308.062019 148.760044 
L 309.257066 147.219946 
L 310.850463 145.789845 
L 312.04551 144.249731 
L 312.842209 143.589696 
L 314.435605 143.039659 
L 314.833954 142.819647 
L 316.029002 141.609558 
L 317.224049 141.059521 
L 318.020747 141.059521 
L 318.419096 140.839509 
L 318.817446 140.399469 
L 319.215795 140.179458 
L 319.614144 139.739435 
L 321.20754 138.749357 
L 322.004239 138.089323 
L 322.800937 137.979309 
L 323.199286 136.769236 
L 323.995984 136.659222 
L 324.394334 135.889173 
L 324.792683 135.449133 
L 325.191032 134.679085 
L 326.386079 133.57901 
L 326.784428 133.028973 
L 327.182777 132.258924 
L 327.581127 131.158849 
L 327.979476 131.268863 
L 328.377825 130.938837 
L 328.776174 129.838763 
L 329.174523 129.288725 
L 329.572872 129.288725 
L 329.971221 128.298648 
L 331.166269 127.198574 
L 331.564618 126.098499 
L 331.962967 125.658476 
L 332.361316 125.548462 
L 332.759665 125.218453 
L 333.158015 124.228375 
L 333.556364 123.788352 
L 333.954713 124.118378 
L 334.353062 124.118378 
L 334.751411 123.348312 
L 335.14976 123.89835 
L 335.946458 124.118378 
L 336.743157 123.458326 
L 337.141506 122.908289 
L 337.539855 122.028226 
L 338.734902 121.258177 
L 339.133252 120.70814 
L 340.726648 119.278039 
L 341.523346 117.297902 
L 341.921695 116.967893 
L 342.320045 117.737942 
L 342.718394 118.067967 
L 343.116743 117.847939 
L 343.515092 117.187904 
L 344.31179 115.64779 
L 344.710139 115.867818 
L 345.108489 115.757804 
L 345.506838 115.207767 
L 345.905187 114.327703 
L 347.100234 113.117631 
L 347.896933 111.467519 
L 348.693631 111.137494 
L 349.09198 110.477442 
L 349.888678 108.387307 
L 350.685376 108.497304 
L 351.482075 106.847192 
L 351.880424 106.187158 
L 352.278773 106.297155 
L 352.677122 106.187158 
L 353.47382 103.546969 
L 353.87217 100.57677 
L 354.270519 100.246745 
L 354.668868 101.346819 
L 355.067217 101.346819 
L 355.465566 100.026733 
L 355.863915 99.916736 
L 356.262264 99.58671 
L 356.660613 98.486635 
L 357.457312 97.276546 
L 358.25401 95.076397 
L 359.050708 97.166549 
L 359.449057 97.056535 
L 359.847407 95.846446 
L 360.245756 95.475731 
L 360.644105 94.607771 
L 361.042454 93.439495 
L 361.440803 92.761836 
L 361.839152 91.825674 
L 362.635851 90.89282 
L 363.0342 90.822404 
L 363.830898 89.146995 
L 364.229247 87.338476 
L 366.220993 83.919442 
L 366.619342 82.526757 
L 367.017691 80.046083 
L 367.41604 78.337657 
L 367.814389 78.696286 
L 368.212738 78.490576 
L 368.611088 80.560921 
L 369.009437 84.787402 
L 369.407786 86.718039 
L 369.806135 86.129495 
L 370.204484 85.280234 
L 370.602833 85.511257 
L 371.399532 84.931508 
L 371.797881 82.986587 
L 372.19623 83.056987 
L 372.594579 82.266023 
L 372.992928 81.808408 
L 373.789626 80.298005 
L 374.586325 80.018571 
L 374.984674 80.246288 
L 375.781372 80.112085 
L 376.57807 80.336494 
L 377.773118 79.152826 
L 380.163212 73.904358 
L 380.561562 72.752583 
L 380.959911 71.968232 
L 381.35826 71.968232 
L 382.553307 69.997998 
L 382.951656 69.829687 
L 383.350006 69.368749 
L 383.748355 69.309344 
L 384.545053 68.092675 
L 385.341751 67.148809 
L 385.7401 67.670243 
L 386.13845 67.878152 
L 386.536799 67.805554 
L 387.333497 65.137869 
L 387.731846 64.452522 
L 388.130195 64.880459 
L 388.528544 64.911261 
L 388.926893 64.407418 
L 389.325243 63.023529 
L 390.121941 64.277614 
L 390.52029 64.171997 
L 391.715337 62.452593 
L 392.512036 62.218264 
L 392.910385 61.744132 
L 393.707083 60.372345 
L 394.105432 60.179829 
L 395.698829 58.347104 
L 396.097178 58.020385 
L 397.292225 58.062182 
L 397.690574 58.507711 
L 398.088924 59.356972 
L 398.487273 60.934485 
L 398.487273 60.934485 
" style="fill:none;opacity:0.6;stroke:#1f77b4;stroke-linecap:square;stroke-width:0.3;"/>
   </g>
   <g id="line2d_16">
    <path clip-path="url(#p03f153f4e2)" d="M 379.764863 71.847694 
L 380.163212 65.37084 
L 380.561562 62.90581 
L 380.959911 62.483781 
L 381.35826 62.617279 
L 381.756609 61.755512 
L 382.553307 62.688652 
L 382.951656 63.989452 
L 383.350006 63.939917 
L 383.748355 63.46085 
L 384.146704 63.516008 
L 384.545053 63.085972 
L 384.943402 63.111302 
L 386.13845 64.363389 
L 387.731846 62.033586 
L 388.130195 62.075349 
L 389.723592 59.026845 
L 390.121941 58.800808 
L 390.52029 58.315798 
L 392.113687 57.167817 
L 392.512036 56.560305 
L 392.910385 56.524518 
L 393.308734 56.659073 
L 393.707083 56.492625 
L 394.105432 56.613348 
L 394.902131 56.577292 
L 395.698829 55.842779 
L 396.097178 55.740285 
L 397.690574 54.112733 
L 398.088924 53.956994 
L 398.487273 53.568 
L 398.487273 53.568 
" style="fill:none;opacity:0.8;stroke:#ff7f0e;stroke-linecap:square;stroke-width:0.3;"/>
   </g>
   <g id="patch_3">
    <path d="M 57.6 307.584 
L 57.6 41.472 
" style="fill:none;stroke:#000000;stroke-linecap:square;stroke-linejoin:miter;stroke-width:0.8;"/>
   </g>
   <g id="patch_4">
    <path d="M 414.72 307.584 
L 414.72 41.472 
" style="fill:none;stroke:#000000;stroke-linecap:square;stroke-linejoin:miter;stroke-width:0.8;"/>
   </g>
   <g id="patch_5">
    <path d="M 57.6 307.584 
L 414.72 307.584 
" style="fill:none;stroke:#000000;stroke-linecap:square;stroke-linejoin:miter;stroke-width:0.8;"/>
   </g>
   <g id="patch_6">
    <path d="M 57.6 41.472 
L 414.72 41.472 
" style="fill:none;stroke:#000000;stroke-linecap:square;stroke-linejoin:miter;stroke-width:0.8;"/>
   </g>
  </g>
 </g>
 <defs>
  <clipPath id="p03f153f4e2">
   <rect height="266.112" width="357.12" x="57.6" y="41.472"/>
  </clipPath>
 </defs>
</svg>
