<?xml version="1.0" encoding="utf-8" standalone="no"?>
<!DOCTYPE svg PUBLIC "-//W3C//DTD SVG 1.1//EN"
  "http://www.w3.org/Graphics/SVG/1.1/DTD/svg11.dtd">
<!-- Created with matplotlib (http://matplotlib.org/) -->
<svg height="345.6pt" version="1.1" viewBox="0 0 460.8 345.6" width="460.8pt" xmlns="http://www.w3.org/2000/svg" xmlns:xlink="http://www.w3.org/1999/xlink">
 <defs>
  <style type="text/css">
*{stroke-linecap:butt;stroke-linejoin:round;}
  </style>
 </defs>
 <g id="figure_1">
  <g id="patch_1">
   <path d="M 0 345.6 
L 460.8 345.6 
L 460.8 0 
L 0 0 
z
" style="fill:#ffffff;"/>
  </g>
  <g id="axes_1">
   <g id="patch_2">
    <path d="M 57.6 307.584 
L 414.72 307.584 
L 414.72 41.472 
L 57.6 41.472 
z
" style="fill:#ffffff;"/>
   </g>
   <g id="matplotlib.axis_1">
    <g id="xtick_1">
     <g id="line2d_1">
      <defs>
       <path d="M 0 0 
L 0 3.5 
" id="m555d30d4fa" style="stroke:#000000;stroke-width:0.8;"/>
      </defs>
      <g>
       <use style="stroke:#000000;stroke-width:0.8;" x="73.832727" xlink:href="#m555d30d4fa" y="307.584"/>
      </g>
     </g>
     <g id="text_1">
      <!-- 0 -->
      <defs>
       <path d="M 31.78125 66.40625 
Q 24.171875 66.40625 20.328125 58.90625 
Q 16.5 51.421875 16.5 36.375 
Q 16.5 21.390625 20.328125 13.890625 
Q 24.171875 6.390625 31.78125 6.390625 
Q 39.453125 6.390625 43.28125 13.890625 
Q 47.125 21.390625 47.125 36.375 
Q 47.125 51.421875 43.28125 58.90625 
Q 39.453125 66.40625 31.78125 66.40625 
z
M 31.78125 74.21875 
Q 44.046875 74.21875 50.515625 64.515625 
Q 56.984375 54.828125 56.984375 36.375 
Q 56.984375 17.96875 50.515625 8.265625 
Q 44.046875 -1.421875 31.78125 -1.421875 
Q 19.53125 -1.421875 13.0625 8.265625 
Q 6.59375 17.96875 6.59375 36.375 
Q 6.59375 54.828125 13.0625 64.515625 
Q 19.53125 74.21875 31.78125 74.21875 
z
" id="DejaVuSans-30"/>
      </defs>
      <g transform="translate(70.651477 322.182437)scale(0.1 -0.1)">
       <use xlink:href="#DejaVuSans-30"/>
      </g>
     </g>
    </g>
    <g id="xtick_2">
     <g id="line2d_2">
      <g>
       <use style="stroke:#000000;stroke-width:0.8;" x="151.223561" xlink:href="#m555d30d4fa" y="307.584"/>
      </g>
     </g>
     <g id="text_2">
      <!-- 200 -->
      <defs>
       <path d="M 19.1875 8.296875 
L 53.609375 8.296875 
L 53.609375 0 
L 7.328125 0 
L 7.328125 8.296875 
Q 12.9375 14.109375 22.625 23.890625 
Q 32.328125 33.6875 34.8125 36.53125 
Q 39.546875 41.84375 41.421875 45.53125 
Q 43.3125 49.21875 43.3125 52.78125 
Q 43.3125 58.59375 39.234375 62.25 
Q 35.15625 65.921875 28.609375 65.921875 
Q 23.96875 65.921875 18.8125 64.3125 
Q 13.671875 62.703125 7.8125 59.421875 
L 7.8125 69.390625 
Q 13.765625 71.78125 18.9375 73 
Q 24.125 74.21875 28.421875 74.21875 
Q 39.75 74.21875 46.484375 68.546875 
Q 53.21875 62.890625 53.21875 53.421875 
Q 53.21875 48.921875 51.53125 44.890625 
Q 49.859375 40.875 45.40625 35.40625 
Q 44.1875 33.984375 37.640625 27.21875 
Q 31.109375 20.453125 19.1875 8.296875 
z
" id="DejaVuSans-32"/>
      </defs>
      <g transform="translate(141.679811 322.182437)scale(0.1 -0.1)">
       <use xlink:href="#DejaVuSans-32"/>
       <use x="63.623047" xlink:href="#DejaVuSans-30"/>
       <use x="127.246094" xlink:href="#DejaVuSans-30"/>
      </g>
     </g>
    </g>
    <g id="xtick_3">
     <g id="line2d_3">
      <g>
       <use style="stroke:#000000;stroke-width:0.8;" x="228.614394" xlink:href="#m555d30d4fa" y="307.584"/>
      </g>
     </g>
     <g id="text_3">
      <!-- 400 -->
      <defs>
       <path d="M 37.796875 64.3125 
L 12.890625 25.390625 
L 37.796875 25.390625 
z
M 35.203125 72.90625 
L 47.609375 72.90625 
L 47.609375 25.390625 
L 58.015625 25.390625 
L 58.015625 17.1875 
L 47.609375 17.1875 
L 47.609375 0 
L 37.796875 0 
L 37.796875 17.1875 
L 4.890625 17.1875 
L 4.890625 26.703125 
z
" id="DejaVuSans-34"/>
      </defs>
      <g transform="translate(219.070644 322.182437)scale(0.1 -0.1)">
       <use xlink:href="#DejaVuSans-34"/>
       <use x="63.623047" xlink:href="#DejaVuSans-30"/>
       <use x="127.246094" xlink:href="#DejaVuSans-30"/>
      </g>
     </g>
    </g>
    <g id="xtick_4">
     <g id="line2d_4">
      <g>
       <use style="stroke:#000000;stroke-width:0.8;" x="306.005227" xlink:href="#m555d30d4fa" y="307.584"/>
      </g>
     </g>
     <g id="text_4">
      <!-- 600 -->
      <defs>
       <path d="M 33.015625 40.375 
Q 26.375 40.375 22.484375 35.828125 
Q 18.609375 31.296875 18.609375 23.390625 
Q 18.609375 15.53125 22.484375 10.953125 
Q 26.375 6.390625 33.015625 6.390625 
Q 39.65625 6.390625 43.53125 10.953125 
Q 47.40625 15.53125 47.40625 23.390625 
Q 47.40625 31.296875 43.53125 35.828125 
Q 39.65625 40.375 33.015625 40.375 
z
M 52.59375 71.296875 
L 52.59375 62.3125 
Q 48.875 64.0625 45.09375 64.984375 
Q 41.3125 65.921875 37.59375 65.921875 
Q 27.828125 65.921875 22.671875 59.328125 
Q 17.53125 52.734375 16.796875 39.40625 
Q 19.671875 43.65625 24.015625 45.921875 
Q 28.375 48.1875 33.59375 48.1875 
Q 44.578125 48.1875 50.953125 41.515625 
Q 57.328125 34.859375 57.328125 23.390625 
Q 57.328125 12.15625 50.6875 5.359375 
Q 44.046875 -1.421875 33.015625 -1.421875 
Q 20.359375 -1.421875 13.671875 8.265625 
Q 6.984375 17.96875 6.984375 36.375 
Q 6.984375 53.65625 15.1875 63.9375 
Q 23.390625 74.21875 37.203125 74.21875 
Q 40.921875 74.21875 44.703125 73.484375 
Q 48.484375 72.75 52.59375 71.296875 
z
" id="DejaVuSans-36"/>
      </defs>
      <g transform="translate(296.461477 322.182437)scale(0.1 -0.1)">
       <use xlink:href="#DejaVuSans-36"/>
       <use x="63.623047" xlink:href="#DejaVuSans-30"/>
       <use x="127.246094" xlink:href="#DejaVuSans-30"/>
      </g>
     </g>
    </g>
    <g id="xtick_5">
     <g id="line2d_5">
      <g>
       <use style="stroke:#000000;stroke-width:0.8;" x="383.39606" xlink:href="#m555d30d4fa" y="307.584"/>
      </g>
     </g>
     <g id="text_5">
      <!-- 800 -->
      <defs>
       <path d="M 31.78125 34.625 
Q 24.75 34.625 20.71875 30.859375 
Q 16.703125 27.09375 16.703125 20.515625 
Q 16.703125 13.921875 20.71875 10.15625 
Q 24.75 6.390625 31.78125 6.390625 
Q 38.8125 6.390625 42.859375 10.171875 
Q 46.921875 13.96875 46.921875 20.515625 
Q 46.921875 27.09375 42.890625 30.859375 
Q 38.875 34.625 31.78125 34.625 
z
M 21.921875 38.8125 
Q 15.578125 40.375 12.03125 44.71875 
Q 8.5 49.078125 8.5 55.328125 
Q 8.5 64.0625 14.71875 69.140625 
Q 20.953125 74.21875 31.78125 74.21875 
Q 42.671875 74.21875 48.875 69.140625 
Q 55.078125 64.0625 55.078125 55.328125 
Q 55.078125 49.078125 51.53125 44.71875 
Q 48 40.375 41.703125 38.8125 
Q 48.828125 37.15625 52.796875 32.3125 
Q 56.78125 27.484375 56.78125 20.515625 
Q 56.78125 9.90625 50.3125 4.234375 
Q 43.84375 -1.421875 31.78125 -1.421875 
Q 19.734375 -1.421875 13.25 4.234375 
Q 6.78125 9.90625 6.78125 20.515625 
Q 6.78125 27.484375 10.78125 32.3125 
Q 14.796875 37.15625 21.921875 38.8125 
z
M 18.3125 54.390625 
Q 18.3125 48.734375 21.84375 45.5625 
Q 25.390625 42.390625 31.78125 42.390625 
Q 38.140625 42.390625 41.71875 45.5625 
Q 45.3125 48.734375 45.3125 54.390625 
Q 45.3125 60.0625 41.71875 63.234375 
Q 38.140625 66.40625 31.78125 66.40625 
Q 25.390625 66.40625 21.84375 63.234375 
Q 18.3125 60.0625 18.3125 54.390625 
z
" id="DejaVuSans-38"/>
      </defs>
      <g transform="translate(373.85231 322.182437)scale(0.1 -0.1)">
       <use xlink:href="#DejaVuSans-38"/>
       <use x="63.623047" xlink:href="#DejaVuSans-30"/>
       <use x="127.246094" xlink:href="#DejaVuSans-30"/>
      </g>
     </g>
    </g>
   </g>
   <g id="matplotlib.axis_2">
    <g id="ytick_1">
     <g id="line2d_6">
      <defs>
       <path d="M 0 0 
L -3.5 0 
" id="m563c402669" style="stroke:#000000;stroke-width:0.8;"/>
      </defs>
      <g>
       <use style="stroke:#000000;stroke-width:0.8;" x="57.6" xlink:href="#m563c402669" y="269.417917"/>
      </g>
     </g>
     <g id="text_6">
      <!-- 0 -->
      <g transform="translate(44.2375 273.217136)scale(0.1 -0.1)">
       <use xlink:href="#DejaVuSans-30"/>
      </g>
     </g>
    </g>
    <g id="ytick_2">
     <g id="line2d_7">
      <g>
       <use style="stroke:#000000;stroke-width:0.8;" x="57.6" xlink:href="#m563c402669" y="222.972145"/>
      </g>
     </g>
     <g id="text_7">
      <!-- 10 -->
      <defs>
       <path d="M 12.40625 8.296875 
L 28.515625 8.296875 
L 28.515625 63.921875 
L 10.984375 60.40625 
L 10.984375 69.390625 
L 28.421875 72.90625 
L 38.28125 72.90625 
L 38.28125 8.296875 
L 54.390625 8.296875 
L 54.390625 0 
L 12.40625 0 
z
" id="DejaVuSans-31"/>
      </defs>
      <g transform="translate(37.875 226.771364)scale(0.1 -0.1)">
       <use xlink:href="#DejaVuSans-31"/>
       <use x="63.623047" xlink:href="#DejaVuSans-30"/>
      </g>
     </g>
    </g>
    <g id="ytick_3">
     <g id="line2d_8">
      <g>
       <use style="stroke:#000000;stroke-width:0.8;" x="57.6" xlink:href="#m563c402669" y="176.526372"/>
      </g>
     </g>
     <g id="text_8">
      <!-- 20 -->
      <g transform="translate(37.875 180.325591)scale(0.1 -0.1)">
       <use xlink:href="#DejaVuSans-32"/>
       <use x="63.623047" xlink:href="#DejaVuSans-30"/>
      </g>
     </g>
    </g>
    <g id="ytick_4">
     <g id="line2d_9">
      <g>
       <use style="stroke:#000000;stroke-width:0.8;" x="57.6" xlink:href="#m563c402669" y="130.0806"/>
      </g>
     </g>
     <g id="text_9">
      <!-- 30 -->
      <defs>
       <path d="M 40.578125 39.3125 
Q 47.65625 37.796875 51.625 33 
Q 55.609375 28.21875 55.609375 21.1875 
Q 55.609375 10.40625 48.1875 4.484375 
Q 40.765625 -1.421875 27.09375 -1.421875 
Q 22.515625 -1.421875 17.65625 -0.515625 
Q 12.796875 0.390625 7.625 2.203125 
L 7.625 11.71875 
Q 11.71875 9.328125 16.59375 8.109375 
Q 21.484375 6.890625 26.8125 6.890625 
Q 36.078125 6.890625 40.9375 10.546875 
Q 45.796875 14.203125 45.796875 21.1875 
Q 45.796875 27.640625 41.28125 31.265625 
Q 36.765625 34.90625 28.71875 34.90625 
L 20.21875 34.90625 
L 20.21875 43.015625 
L 29.109375 43.015625 
Q 36.375 43.015625 40.234375 45.921875 
Q 44.09375 48.828125 44.09375 54.296875 
Q 44.09375 59.90625 40.109375 62.90625 
Q 36.140625 65.921875 28.71875 65.921875 
Q 24.65625 65.921875 20.015625 65.03125 
Q 15.375 64.15625 9.8125 62.3125 
L 9.8125 71.09375 
Q 15.4375 72.65625 20.34375 73.4375 
Q 25.25 74.21875 29.59375 74.21875 
Q 40.828125 74.21875 47.359375 69.109375 
Q 53.90625 64.015625 53.90625 55.328125 
Q 53.90625 49.265625 50.4375 45.09375 
Q 46.96875 40.921875 40.578125 39.3125 
z
" id="DejaVuSans-33"/>
      </defs>
      <g transform="translate(37.875 133.879818)scale(0.1 -0.1)">
       <use xlink:href="#DejaVuSans-33"/>
       <use x="63.623047" xlink:href="#DejaVuSans-30"/>
      </g>
     </g>
    </g>
    <g id="ytick_5">
     <g id="line2d_10">
      <g>
       <use style="stroke:#000000;stroke-width:0.8;" x="57.6" xlink:href="#m563c402669" y="83.634827"/>
      </g>
     </g>
     <g id="text_10">
      <!-- 40 -->
      <g transform="translate(37.875 87.434046)scale(0.1 -0.1)">
       <use xlink:href="#DejaVuSans-34"/>
       <use x="63.623047" xlink:href="#DejaVuSans-30"/>
      </g>
     </g>
    </g>
   </g>
   <g id="line2d_11">
    <path clip-path="url(#p673918a0f2)" d="M 73.832727 124.002549 
L 74.219681 160.266241 
L 74.99359 125.322948 
L 75.380544 125.458666 
L 75.767498 120.195919 
L 76.154452 129.712923 
L 76.541406 162.487849 
L 76.928361 169.895291 
L 77.315315 188.147206 
L 77.702269 215.86849 
L 78.089223 234.114686 
L 78.476177 239.282959 
L 78.863131 229.33494 
L 79.250086 247.371083 
L 79.63704 258.756289 
L 80.023994 266.051691 
L 80.410948 292.141786 
L 80.797902 293.765618 
L 81.184856 287.176354 
L 81.571811 288.926381 
L 81.958765 279.006275 
L 82.345719 277.992741 
L 82.732673 281.436305 
L 83.119627 270.167496 
L 83.506581 268.459259 
L 83.893536 268.452861 
L 84.667444 255.362822 
L 85.054398 231.833041 
L 85.441352 224.3657 
L 85.828306 219.267263 
L 86.215261 205.349517 
L 86.602215 201.389041 
L 87.763077 125.080216 
L 88.150031 124.090916 
L 88.536986 122.418608 
L 88.92394 125.94195 
L 90.084802 159.703732 
L 90.471756 158.56291 
L 90.858711 160.847141 
L 91.245665 157.901696 
L 91.632619 171.88424 
L 92.406527 222.517651 
L 92.793481 226.258947 
L 93.180436 224.724691 
L 93.56739 227.943901 
L 93.954344 221.585526 
L 94.341298 212.628993 
L 94.728252 209.392217 
L 95.115206 221.70655 
L 95.502161 225.505296 
L 96.276069 240.74302 
L 96.663023 243.307146 
L 97.049977 243.807854 
L 97.436931 240.705583 
L 97.823886 241.25285 
L 98.21084 241.257342 
L 98.597794 240.770928 
L 98.984748 247.473593 
L 99.371702 244.92526 
L 99.758656 239.794831 
L 100.145611 239.824646 
L 100.532565 244.92526 
L 100.919519 244.931386 
L 101.693427 232.607113 
L 102.080381 237.74993 
L 102.467336 244.415293 
L 102.85429 241.359309 
L 103.241244 244.44116 
L 103.628198 249.52925 
L 104.402106 257.13654 
L 104.789061 264.704623 
L 105.176015 256.635559 
L 105.562969 258.152797 
L 105.949923 261.676954 
L 106.336877 261.661026 
L 106.723831 260.163664 
L 107.110786 256.634198 
L 107.884694 264.70898 
L 108.271648 258.154703 
L 108.658602 259.677658 
L 109.045556 251.0552 
L 109.432511 247.991455 
L 110.206419 248.000985 
L 110.593373 250.035132 
L 110.980327 251.056017 
L 111.367281 248.004797 
L 111.754236 245.972147 
L 112.14119 239.86426 
L 112.528144 230.660363 
L 112.915098 226.123629 
L 113.302052 223.026392 
L 113.689006 227.735072 
L 114.075961 218.062458 
L 114.462915 221.179432 
L 114.849869 214.581187 
L 115.623777 205.443722 
L 116.397686 202.534492 
L 116.78464 204.232384 
L 117.171594 204.949825 
L 117.558548 208.189861 
L 117.945502 204.733364 
L 118.332456 204.804022 
L 118.719411 213.002685 
L 119.106365 208.548856 
L 119.493319 211.698639 
L 119.880273 205.362451 
L 120.267227 209.013484 
L 120.654181 203.733308 
L 121.041136 203.857057 
L 121.42809 207.383526 
L 121.815044 214.342539 
L 122.201998 219.281694 
L 122.588952 221.314888 
L 122.975906 224.724691 
L 123.362861 224.724691 
L 124.136769 229.177705 
L 124.523723 235.498917 
L 124.910677 238.856037 
L 125.297631 248.370866 
L 125.684586 251.204677 
L 126.07154 248.382302 
L 126.458494 243.668449 
L 126.845448 240.834503 
L 127.232402 241.796579 
L 128.006311 232.366967 
L 128.393265 234.27655 
L 128.780219 232.409853 
L 129.167173 236.192533 
L 129.554127 233.839553 
L 129.941081 232.409853 
L 130.328036 226.779802 
L 131.101944 229.703326 
L 131.488898 234.40561 
L 131.875852 233.025187 
L 132.262806 236.331118 
L 133.036715 233.141309 
L 133.423669 234.570743 
L 133.810623 231.300887 
L 134.197577 233.182015 
L 134.584531 233.182015 
L 134.971486 240.643367 
L 135.35844 240.655894 
L 135.745394 242.511836 
L 136.132348 236.040467 
L 136.519302 237.914109 
L 136.906256 236.075047 
L 137.293211 242.561527 
L 137.680165 243.943582 
L 138.454073 243.96196 
L 139.614936 234.819188 
L 140.00189 234.837568 
L 140.388844 236.206144 
L 140.775798 239.436383 
L 141.162752 237.626728 
L 141.549706 233.106325 
L 141.936661 234.922788 
L 142.323615 234.922788 
L 142.710569 236.301848 
L 143.097523 234.959003 
L 143.871431 237.744484 
L 144.258386 240.919315 
L 144.64534 240.931297 
L 145.032294 235.061105 
L 145.419248 231.913635 
L 145.806202 231.955563 
L 146.193156 239.660737 
L 146.580111 236.506188 
L 146.967065 235.161844 
L 147.354019 230.680787 
L 147.740973 230.724895 
L 148.127927 233.880804 
L 148.514881 233.899726 
L 148.901836 232.094288 
L 149.28879 232.114845 
L 150.062698 238.448035 
L 150.449652 239.804769 
L 150.836606 237.132824 
L 151.223561 236.705765 
L 151.610515 234.067991 
L 151.997469 236.774651 
L 152.384423 238.126346 
L 152.771377 236.790577 
L 153.158331 236.80637 
L 153.93224 231.11479 
L 154.319194 226.745904 
L 154.706148 228.50982 
L 155.093102 231.164204 
L 155.480056 229.433371 
L 155.867011 229.901268 
L 156.253965 229.531934 
L 156.640919 226.948204 
L 157.027873 226.973252 
L 157.414827 218.26898 
L 157.801781 215.258732 
L 158.188736 214.041542 
L 158.57569 215.462941 
L 158.962644 219.924393 
L 159.349598 215.582057 
L 159.736552 205.622059 
L 160.123506 204.435499 
L 160.510461 201.470724 
L 161.284369 207.3514 
L 161.671323 209.529577 
L 162.445231 218.396534 
L 162.832186 218.504084 
L 163.21914 221.524674 
L 163.606094 214.406522 
L 163.993048 213.231394 
L 164.380002 217.645066 
L 165.15391 217.86084 
L 165.540865 210.854318 
L 165.927819 208.424425 
L 166.314773 203.431767 
L 166.701727 203.582336 
L 167.088681 199.456997 
L 167.475635 199.618998 
L 167.86259 195.506053 
L 168.249544 195.851977 
L 168.636498 191.947315 
L 169.410406 192.311209 
L 169.79736 188.45202 
L 170.184315 192.849082 
L 170.571269 189.02229 
L 171.345177 189.396938 
L 171.732131 181.644666 
L 172.119085 177.894787 
L 172.50604 178.112749 
L 173.279948 178.972038 
L 173.666902 179.18387 
L 174.053856 175.51581 
L 174.44081 175.955394 
L 174.827765 172.327642 
L 175.214719 172.781241 
L 175.988627 165.624566 
L 176.375581 170.122503 
L 176.762535 170.579512 
L 177.14949 170.806174 
L 177.536444 171.255839 
L 177.923398 175.399955 
L 178.310352 175.610423 
L 179.858169 177.254541 
L 180.245123 181.246737 
L 180.632077 188.770034 
L 181.405985 196.510334 
L 181.79294 193.129933 
L 182.179894 193.439098 
L 182.953802 193.744993 
L 184.501619 208.61978 
L 184.888573 208.73114 
L 185.275527 201.907313 
L 185.662481 205.438686 
L 186.049435 205.557531 
L 186.823344 212.749744 
L 187.597252 212.94796 
L 187.984206 209.709686 
L 188.37116 209.81574 
L 188.758115 206.60088 
L 189.145069 206.713874 
L 189.918977 200.473392 
L 190.305931 187.320039 
L 190.692885 180.917835 
L 191.07984 177.818689 
L 191.466794 171.469975 
L 191.853748 174.921985 
L 192.240702 152.365035 
L 192.627656 152.843553 
L 193.01461 143.403187 
L 193.401565 140.709741 
L 194.175473 122.37015 
L 194.562427 116.950169 
L 194.949381 115.068075 
L 195.336335 116.01558 
L 195.72329 107.336905 
L 196.110244 105.246133 
L 196.497198 96.006145 
L 196.884152 104.849151 
L 197.271106 90.445795 
L 197.65806 91.872386 
L 198.045015 86.994201 
L 198.431969 88.429225 
L 198.818923 93.097189 
L 199.205877 100.544806 
L 199.592831 110.684497 
L 199.979785 114.402919 
L 200.36674 127.034306 
L 200.753694 128.063365 
L 201.140648 123.301319 
L 201.914556 145.468783 
L 203.075419 156.033635 
L 203.849327 167.677776 
L 204.623235 173.459473 
L 205.01019 168.481927 
L 205.397144 171.659075 
L 205.784098 177.45507 
L 206.171052 175.222432 
L 206.558006 178.286178 
L 206.94496 178.695004 
L 207.331915 184.156649 
L 207.718869 184.528569 
L 208.105823 182.334601 
L 208.492777 170.284371 
L 208.879731 165.570252 
L 209.266685 158.446239 
L 209.65364 161.363363 
L 210.814502 162.804092 
L 211.201456 165.637765 
L 211.58841 166.090832 
L 211.975365 161.704109 
L 212.362319 162.173512 
L 212.749273 160.318925 
L 213.136227 168.144716 
L 213.910135 164.597827 
L 214.29709 155.846173 
L 215.070998 147.849531 
L 215.457952 146.138165 
L 215.844906 137.603782 
L 216.23186 131.536203 
L 216.618815 132.320342 
L 217.005769 130.716796 
L 217.392723 127.154936 
L 217.779677 119.111049 
L 218.166631 113.514503 
L 218.94054 107.452353 
L 220.101402 91.953922 
L 220.488356 91.360646 
L 220.87531 88.749011 
L 221.649219 72.640685 
L 222.036173 64.284365 
L 222.423127 60.292311 
L 222.810081 54.432746 
L 223.197035 54.473992 
L 223.970944 58.875412 
L 224.357898 74.058009 
L 224.744852 77.60558 
L 225.51876 81.105773 
L 225.905715 81.12482 
L 226.292669 84.907646 
L 227.840485 115.099117 
L 228.22744 119.782885 
L 228.614394 121.075495 
L 229.001348 106.402051 
L 229.388302 105.823605 
L 229.775256 103.807034 
L 232.096981 159.358211 
L 232.483935 162.940093 
L 233.257844 155.308974 
L 234.031752 171.877162 
L 234.418706 185.822552 
L 234.80566 184.580987 
L 235.579569 201.004457 
L 235.966523 202.612091 
L 236.353477 205.647112 
L 236.740431 204.20951 
L 237.127385 198.631877 
L 237.51434 206.2408 
L 237.901294 219.403127 
L 238.288248 220.972233 
L 238.675202 219.644494 
L 239.062156 215.464301 
L 239.44911 215.617727 
L 239.836065 210.022802 
L 240.609973 194.6827 
L 240.996927 189.185655 
L 241.383881 186.475323 
L 241.770835 191.080948 
L 242.15779 194.075666 
L 242.544744 194.194375 
L 244.09256 195.012417 
L 244.866469 198.041183 
L 245.253423 205.085413 
L 245.640377 203.992376 
L 246.027331 201.489509 
L 246.414285 204.325091 
L 246.80124 204.4193 
L 247.188194 203.200335 
L 247.575148 206.0076 
L 248.349056 208.877895 
L 248.73601 209.04616 
L 249.509919 201.470724 
L 249.896873 198.992502 
L 250.283827 209.543331 
L 250.670781 223.768607 
L 251.057735 231.45717 
L 251.831644 229.025099 
L 252.605552 231.637687 
L 252.992506 229.158645 
L 253.37946 231.756262 
L 253.766415 235.60102 
L 254.153369 236.924128 
L 254.540323 234.505395 
L 254.927277 227.025665 
L 255.701185 202.990274 
L 256.08814 203.128184 
L 256.475094 202.066458 
L 256.862048 199.626488 
L 257.249002 194.706796 
L 257.635956 194.919036 
L 258.02291 193.789234 
L 258.409865 191.430411 
L 259.570727 199.508595 
L 259.957681 200.912976 
L 260.344635 198.728535 
L 261.118544 199.111618 
L 261.505498 196.861422 
L 261.892452 197.107286 
L 262.66636 195.080488 
L 263.053315 195.281565 
L 263.440269 193.026329 
L 263.827223 192.05976 
L 264.214177 189.821684 
L 264.601131 186.478991 
L 264.988085 184.553622 
L 265.37504 181.252734 
L 266.148948 184.156649 
L 266.535902 190.166248 
L 266.922856 192.707908 
L 267.30981 190.638503 
L 267.696765 189.714545 
L 268.083719 189.924606 
L 268.470673 182.322491 
L 268.857627 181.435696 
L 269.244581 181.787471 
L 269.631535 188.944155 
L 270.01849 193.657459 
L 270.405444 189.461067 
L 270.792398 187.478506 
L 271.179352 175.450468 
L 271.566306 169.092088 
L 271.95326 166.237038 
L 272.340215 168.744662 
L 272.727169 167.933841 
L 273.114123 176.20943 
L 273.501077 180.764001 
L 273.888031 187.453055 
L 274.274985 187.605798 
L 274.66194 184.543683 
L 275.435848 193.624513 
L 275.822802 201.362903 
L 276.209756 206.851372 
L 276.59671 214.306873 
L 276.983665 211.339237 
L 277.370619 212.509191 
L 277.757573 216.702455 
L 278.144527 214.709697 
L 278.531481 209.660134 
L 278.918435 209.756518 
L 279.30539 211.924212 
L 279.692344 212.045241 
L 280.079298 210.106526 
L 280.853206 212.344873 
L 281.24016 208.435317 
L 282.014069 212.69869 
L 282.401023 208.790361 
L 282.787977 208.886334 
L 283.174931 211.981258 
L 283.561885 210.116599 
L 283.94884 209.234299 
L 284.335794 212.274632 
L 284.722748 214.328653 
L 285.109702 214.411288 
L 285.496656 215.458313 
L 286.270565 215.723094 
L 286.657519 214.819015 
L 287.044473 219.719644 
L 287.431427 218.838301 
L 287.818381 216.986031 
L 288.205335 220.898448 
L 288.59229 221.93172 
L 289.753152 213.599372 
L 290.140106 212.714893 
L 290.52706 217.556305 
L 291.300969 217.726337 
L 291.687923 214.004238 
L 292.074877 214.110699 
L 292.461831 215.142203 
L 292.848785 210.543794 
L 293.23574 210.630375 
L 293.622694 211.665556 
L 294.396602 217.453383 
L 294.783556 218.436832 
L 295.17051 215.726363 
L 295.557465 217.643701 
L 295.944419 218.621433 
L 296.331373 215.094826 
L 296.718327 216.097739 
L 297.105281 214.370311 
L 297.87919 214.599427 
L 298.266144 214.675254 
L 298.653098 213.833391 
L 299.040052 214.800771 
L 299.427006 212.183284 
L 299.81396 211.402949 
L 300.200915 208.800026 
L 300.587869 207.088386 
L 300.974823 211.72627 
L 301.361777 211.806323 
L 302.52264 222.621114 
L 302.909594 222.679378 
L 303.296548 223.604563 
L 303.683502 221.910073 
L 304.070456 222.872288 
L 304.45741 224.688751 
L 305.231319 229.983362 
L 305.618273 230.880908 
L 306.005227 233.480017 
L 306.392181 234.344209 
L 306.779135 233.504521 
L 307.16609 230.098939 
L 307.553044 230.991856 
L 307.939998 229.321874 
L 308.326952 231.074221 
L 308.713906 233.662438 
L 309.10086 232.855563 
L 309.487814 232.880611 
L 309.874769 231.210354 
L 310.261723 230.396941 
L 310.648677 230.396941 
L 311.035631 229.556575 
L 311.422585 222.031918 
L 311.809539 224.620002 
L 312.196494 226.327422 
L 312.583448 223.890451 
L 312.970402 222.259944 
L 313.357356 217.282943 
L 313.74431 218.200908 
L 314.518219 216.650862 
L 314.905173 215.064059 
L 315.679081 201.870013 
L 316.066035 212.056811 
L 316.452989 210.441284 
L 316.839944 202.240303 
L 317.226898 204.087125 
L 317.613852 207.463167 
L 318.000806 206.030876 
L 319.161669 206.309686 
L 319.548623 202.427353 
L 319.935577 205.038311 
L 320.322531 212.48428 
L 320.709485 209.274186 
L 321.096439 204.579938 
L 321.870348 216.037162 
L 322.257302 216.037162 
L 322.644256 217.797535 
L 323.03121 224.121197 
L 323.805119 231.2546 
L 324.192073 236.805825 
L 324.579027 237.616379 
L 325.352935 230.705698 
L 325.739889 236.194167 
L 326.126844 238.5304 
L 326.513798 233.134098 
L 326.900752 229.297096 
L 327.287706 232.448105 
L 327.67466 225.491139 
L 328.835523 215.54734 
L 329.222477 210.256954 
L 329.609431 211.902299 
L 329.996385 223.474963 
L 330.383339 227.300116 
L 330.770294 226.556404 
L 331.157248 225.102742 
L 331.931156 220.708812 
L 332.31811 225.288157 
L 332.705064 226.834257 
L 333.092019 225.379912 
L 333.478973 225.501212 
L 333.865927 230.100436 
L 334.252881 229.397568 
L 335.026789 213.637354 
L 335.413744 209.962898 
L 335.800698 213.068033 
L 336.187652 218.40661 
L 336.574606 218.51906 
L 336.96156 209.646518 
L 337.348514 203.782997 
L 337.735469 207.585282 
L 338.122423 214.357377 
L 338.896331 209.429654 
L 339.283285 207.320226 
L 339.670239 214.024932 
L 340.057194 218.493737 
L 340.831102 203.438438 
L 341.218056 188.532884 
L 341.60501 193.865748 
L 341.991964 207.636605 
L 342.378919 207.636605 
L 342.765873 198.376078 
L 343.152827 203.556601 
L 343.539781 206.55609 
L 343.926735 203.888909 
L 344.313689 198.941316 
L 344.700644 196.158014 
L 345.087598 197.206939 
L 345.474552 199.631525 
L 345.861506 225.694799 
L 346.24846 233.94111 
L 347.022369 218.725852 
L 347.409323 224.827613 
L 348.183231 214.992724 
L 348.570185 217.787325 
L 348.957139 216.194942 
L 349.344094 216.428009 
L 350.118002 227.255189 
L 350.89191 203.931662 
L 351.278864 193.55032 
L 351.665819 197.150579 
L 352.052773 194.619935 
L 352.826681 198.97358 
L 353.213635 199.942053 
L 353.600589 197.428299 
L 353.987544 185.889941 
L 354.374498 178.245339 
L 354.761452 180.824986 
L 355.148406 185.653738 
L 355.53536 202.293124 
L 355.922314 238.11246 
L 356.309269 253.388983 
L 356.696223 254.632724 
L 357.083177 252.971181 
L 357.470131 259.164561 
L 357.857085 260.932153 
L 358.244039 266.914521 
L 358.630994 269.819804 
L 359.017948 279.752164 
L 359.404902 273.286786 
L 359.791856 271.845102 
L 360.17881 256.135395 
L 360.565764 227.021852 
L 360.952719 214.775997 
L 361.339673 217.403561 
L 361.726627 223.798828 
L 362.113581 221.963306 
L 362.500535 223.044225 
L 362.887489 225.810784 
L 363.274444 237.817862 
L 363.661398 234.833482 
L 364.048352 237.42824 
L 364.435306 237.862107 
L 364.82226 237.203343 
L 365.209214 238.321836 
L 366.370077 224.158772 
L 367.143985 211.194116 
L 367.530939 205.997253 
L 367.917894 205.407104 
L 368.304848 204.351229 
L 368.691802 201.967212 
L 369.078756 201.182799 
L 369.46571 205.13551 
L 369.852664 206.0999 
L 370.239619 211.4005 
L 370.626573 212.126104 
L 371.013527 213.631636 
L 371.787435 222.140416 
L 372.174389 229.4267 
L 372.561344 230.571194 
L 372.948298 233.788911 
L 374.10916 223.739745 
L 374.496114 228.636019 
L 374.883069 229.13319 
L 375.270023 230.160202 
L 375.656977 225.61216 
L 376.430885 237.583028 
L 376.817839 234.158112 
L 377.204794 229.728241 
L 377.591748 227.41828 
L 378.75261 241.149931 
L 379.526519 232.491124 
L 379.913473 231.53286 
L 380.300427 237.978774 
L 381.074335 225.682548 
L 381.461289 223.885822 
L 381.848244 225.308036 
L 382.235198 226.285763 
L 382.622152 229.860158 
L 383.009106 230.306001 
L 383.39606 231.075581 
L 383.783014 235.977711 
L 384.169969 244.090608 
L 384.556923 256.042277 
L 385.330831 253.086352 
L 385.717785 254.801941 
L 386.491694 250.618339 
L 386.878648 250.174264 
L 387.265602 249.932894 
L 387.652556 253.000314 
L 388.03951 251.268934 
L 388.813419 244.115113 
L 389.200373 234.802445 
L 389.587327 240.020953 
L 389.974281 241.166401 
L 390.361235 237.64919 
L 390.748189 238.79777 
L 391.135144 239.015451 
L 391.522098 241.274222 
L 391.909052 238.328099 
L 392.296006 232.734808 
L 392.68296 230.739051 
L 393.069914 230.161832 
L 393.843823 218.54751 
L 394.230777 215.4319 
L 394.617731 220.51386 
L 395.004685 223.196561 
L 395.391639 227.660197 
L 395.778594 230.642123 
L 396.165548 229.393072 
L 396.552502 226.52904 
L 396.939456 222.72621 
L 397.32641 225.393528 
L 397.713364 223.112703 
L 398.100319 224.343372 
L 398.487273 223.982202 
L 398.487273 223.982202 
" style="fill:none;opacity:0.6;stroke:#1f77b4;stroke-linecap:square;stroke-width:0.5;"/>
   </g>
   <g id="line2d_12">
    <path clip-path="url(#p673918a0f2)" d="M 73.832727 121.870831 
L 74.219681 131.130805 
L 74.606636 153.192892 
L 74.99359 130.350431 
L 75.380544 121.904601 
L 75.767498 122.131006 
L 76.154452 127.361825 
L 76.541406 142.344354 
L 76.928361 170.61306 
L 77.315315 187.058722 
L 78.089223 229.459992 
L 78.476177 234.621185 
L 78.863131 235.870244 
L 79.250086 234.730485 
L 79.63704 261.809411 
L 80.023994 276.004831 
L 80.410948 281.326301 
L 80.797902 295.488 
L 81.184856 292.212741 
L 81.571811 283.683334 
L 81.958765 281.042597 
L 82.345719 273.353911 
L 82.732673 273.733906 
L 83.119627 280.536574 
L 83.506581 268.067708 
L 83.893536 264.369834 
L 84.28049 263.105516 
L 84.667444 256.132125 
L 85.054398 245.645075 
L 85.441352 225.286585 
L 85.828306 216.514059 
L 86.215261 212.896145 
L 86.989169 179.241709 
L 87.376123 143.381111 
L 87.763077 125.627497 
L 88.150031 120.759748 
L 88.536986 125.628029 
L 88.92394 128.756745 
L 89.310894 134.668534 
L 90.084802 157.124865 
L 90.471756 160.158252 
L 90.858711 154.303515 
L 91.245665 162.957314 
L 91.632619 168.942817 
L 92.019573 188.762549 
L 92.406527 192.892074 
L 92.793481 225.161418 
L 93.180436 227.222907 
L 93.56739 225.680825 
L 93.954344 226.676792 
L 94.341298 220.910691 
L 94.728252 210.046579 
L 95.115206 215.064733 
L 95.502161 229.081064 
L 96.276069 237.234792 
L 96.663023 241.96669 
L 97.049977 238.966252 
L 97.436931 239.751416 
L 97.823886 239.930245 
L 98.21084 240.894433 
L 98.597794 242.376227 
L 98.984748 242.941135 
L 99.371702 245.835097 
L 99.758656 240.72505 
L 100.145611 238.162714 
L 100.532565 241.416849 
L 100.919519 246.193219 
L 101.306473 243.150969 
L 101.693427 242.019704 
L 102.080381 232.1523 
L 102.467336 236.311551 
L 102.85429 243.779078 
L 103.241244 240.931612 
L 103.628198 244.185973 
L 104.015152 249.247347 
L 104.789061 255.871921 
L 105.176015 262.31655 
L 105.562969 255.432749 
L 105.949923 258.654941 
L 106.336877 260.757337 
L 106.723831 258.19382 
L 107.110786 257.648959 
L 107.49774 257.747414 
L 107.884694 260.044137 
L 108.271648 261.663111 
L 108.658602 254.320966 
L 109.045556 254.780051 
L 109.432511 247.611766 
L 109.819465 247.617134 
L 110.206419 248.077665 
L 110.593373 247.834709 
L 110.980327 254.995455 
L 111.367281 251.282339 
L 111.754236 244.711669 
L 112.14119 242.614426 
L 112.528144 237.407452 
L 112.915098 227.410776 
L 113.689006 221.670655 
L 114.075961 227.30801 
L 114.462915 214.575805 
L 114.849869 216.260041 
L 115.236823 208.545601 
L 115.623777 208.784461 
L 116.010731 207.101705 
L 116.397686 206.887459 
L 116.78464 204.230585 
L 117.171594 207.024677 
L 117.558548 205.499621 
L 117.945502 208.398841 
L 118.332456 203.11005 
L 118.719411 205.031955 
L 119.106365 213.928783 
L 119.493319 207.340592 
L 119.880273 210.30814 
L 120.267227 204.133386 
L 120.654181 210.173455 
L 121.041136 204.716169 
L 121.42809 204.447795 
L 121.815044 207.347072 
L 122.201998 214.989517 
L 122.975906 222.50152 
L 123.362861 226.518958 
L 123.749815 227.025918 
L 124.136769 228.155658 
L 124.523723 231.502262 
L 125.297631 240.562043 
L 125.684586 250.58798 
L 126.07154 250.711738 
L 126.845448 240.872178 
L 127.232402 238.608468 
L 127.619356 239.245252 
L 128.393265 231.095318 
L 128.780219 234.212926 
L 129.167173 231.758844 
L 129.554127 240.279549 
L 129.941081 233.721199 
L 130.328036 230.494747 
L 130.71499 224.956097 
L 131.101944 228.324711 
L 131.488898 230.228911 
L 131.875852 234.265698 
L 132.262806 232.18619 
L 132.649761 235.590241 
L 133.036715 233.333979 
L 133.423669 232.537398 
L 133.810623 234.390962 
L 134.197577 230.21103 
L 134.971486 235.301151 
L 135.35844 241.926504 
L 135.745394 239.58738 
L 136.132348 240.933171 
L 136.519302 234.742121 
L 136.906256 238.290534 
L 137.293211 236.477105 
L 137.680165 242.79878 
L 138.067119 242.763876 
L 138.454073 243.889406 
L 138.841027 248.745293 
L 139.227981 240.695874 
L 139.614936 235.114347 
L 140.00189 232.416533 
L 140.775798 236.02185 
L 141.162752 239.067754 
L 141.549706 236.422986 
L 141.936661 231.432698 
L 142.323615 233.448103 
L 142.710569 233.015868 
L 143.097523 234.469942 
L 143.484477 234.364319 
L 144.258386 240.748637 
L 144.64534 243.165002 
L 145.032294 239.739475 
L 145.419248 232.299693 
L 145.806202 231.763455 
L 146.193156 234.833117 
L 146.580111 241.486351 
L 146.967065 234.860045 
L 147.740973 229.348517 
L 148.127927 234.071557 
L 148.514881 234.343119 
L 149.28879 230.943797 
L 149.675744 231.663763 
L 150.062698 235.846206 
L 150.836606 239.886979 
L 151.223561 236.032006 
L 151.610515 235.955603 
L 151.997469 234.323347 
L 152.384423 237.957889 
L 152.771377 236.346634 
L 153.158331 235.479227 
L 153.545286 237.961625 
L 153.93224 235.348222 
L 154.706148 223.983854 
L 155.093102 227.698533 
L 155.480056 232.669488 
L 155.867011 231.001113 
L 156.253965 230.828596 
L 156.640919 229.594978 
L 157.027873 226.186703 
L 157.414827 229.72239 
L 157.801781 217.004448 
L 158.188736 214.323298 
L 158.57569 214.718441 
L 158.962644 216.761424 
L 159.349598 220.608087 
L 159.736552 213.22118 
L 160.123506 202.40653 
L 160.510461 203.761245 
L 160.897415 200.778712 
L 161.671323 207.997093 
L 162.058277 209.943493 
L 162.832186 220.745252 
L 163.21914 217.74083 
L 163.606094 220.0029 
L 163.993048 214.223047 
L 164.380002 216.654839 
L 164.766956 221.245254 
L 165.540865 214.650237 
L 165.927819 206.85088 
L 166.314773 206.428266 
L 166.701727 201.863697 
L 167.088681 204.372738 
L 167.475635 200.641378 
L 167.86259 200.315364 
L 168.249544 194.395337 
L 168.636498 195.101519 
L 169.023452 189.113394 
L 169.410406 193.376492 
L 169.79736 193.168912 
L 170.184315 189.458808 
L 170.571269 193.590663 
L 170.958223 190.062307 
L 171.345177 188.004286 
L 171.732131 188.018558 
L 172.119085 179.104832 
L 172.50604 177.700867 
L 172.892994 179.561345 
L 173.279948 179.846386 
L 174.053856 177.671588 
L 174.44081 173.649689 
L 174.827765 175.287722 
L 175.214719 170.074993 
L 175.601673 170.724894 
L 175.988627 164.643185 
L 176.375581 168.329928 
L 176.762535 170.114042 
L 177.14949 167.599544 
L 177.536444 171.13178 
L 177.923398 173.132095 
L 178.310352 178.347092 
L 178.697306 179.590322 
L 179.08426 175.707418 
L 179.471215 178.739343 
L 180.632077 182.949997 
L 181.019031 189.983969 
L 181.79294 198.665558 
L 182.179894 192.95421 
L 182.566848 193.344388 
L 183.340756 195.873295 
L 184.114665 203.717438 
L 184.888573 209.421938 
L 185.275527 208.114831 
L 185.662481 201.310574 
L 186.049435 206.996227 
L 186.43639 206.92929 
L 187.210298 213.57458 
L 187.597252 211.114856 
L 187.984206 213.651479 
L 188.37116 210.763577 
L 188.758115 210.266375 
L 189.145069 205.384293 
L 189.532023 207.913399 
L 190.305931 199.205645 
L 190.692885 183.548473 
L 191.07984 177.693372 
L 191.466794 175.580639 
L 191.853748 170.064211 
L 192.240702 174.371383 
L 192.627656 146.79525 
L 193.01461 149.184609 
L 193.401565 139.150312 
L 193.788519 136.063489 
L 194.175473 126.097042 
L 194.562427 127.150374 
L 194.949381 122.57238 
L 195.336335 109.27077 
L 196.110244 105.874809 
L 196.497198 104.807975 
L 196.884152 100.228812 
L 197.271106 102.766529 
L 197.65806 82.011075 
L 198.045015 85.918775 
L 198.431969 87.884903 
L 198.818923 93.623563 
L 199.205877 97.364168 
L 199.592831 103.197706 
L 199.979785 114.912496 
L 200.36674 117.98589 
L 200.753694 127.651527 
L 201.140648 128.595895 
L 201.527602 126.558595 
L 202.30151 156.830097 
L 202.688465 160.476745 
L 203.462373 159.249336 
L 203.849327 157.799722 
L 204.236281 172.078771 
L 204.623235 170.640735 
L 205.01019 169.965586 
L 205.397144 166.700745 
L 206.171052 181.16675 
L 206.558006 180.374922 
L 206.94496 180.205089 
L 207.331915 183.76663 
L 207.718869 189.791847 
L 208.105823 188.634246 
L 208.492777 180.046259 
L 208.879731 164.635132 
L 209.266685 163.419585 
L 209.65364 157.953148 
L 210.040594 161.406877 
L 210.427548 161.39094 
L 210.814502 163.575022 
L 211.201456 164.269749 
L 211.58841 164.139507 
L 212.362319 156.708474 
L 212.749273 162.517402 
L 213.136227 156.277536 
L 213.523181 172.894979 
L 214.684044 152.332124 
L 215.070998 149.725946 
L 215.457952 149.154401 
L 215.844906 149.38799 
L 216.23186 134.411743 
L 216.618815 132.251278 
L 217.005769 134.193426 
L 217.392723 130.244444 
L 218.166631 112.394888 
L 218.553585 110.660542 
L 218.94054 109.735734 
L 219.714448 98.015363 
L 220.101402 94.952954 
L 220.488356 90.97713 
L 220.87531 88.255822 
L 221.649219 80.184331 
L 222.036173 74.211763 
L 222.423127 99.67207 
L 223.197035 54.520997 
L 223.58399 53.568 
L 223.970944 61.095151 
L 224.357898 66.02167 
L 224.744852 81.575309 
L 225.131806 81.866906 
L 225.51876 77.757951 
L 225.905715 79.172653 
L 226.292669 83.389402 
L 227.453531 106.764767 
L 227.840485 117.990868 
L 228.22744 121.443738 
L 228.614394 120.756789 
L 229.001348 118.996345 
L 229.388302 105.24973 
L 229.775256 107.137723 
L 230.16221 107.176259 
L 230.936119 129.05892 
L 231.323073 137.031396 
L 231.710027 139.892115 
L 232.096981 155.390404 
L 232.483935 156.925294 
L 232.87089 156.913981 
L 233.257844 157.897816 
L 233.644798 157.0007 
L 234.418706 181.47634 
L 234.80566 191.487569 
L 235.192615 191.820359 
L 235.966523 207.824678 
L 236.353477 202.111376 
L 236.740431 202.252502 
L 237.127385 204.784869 
L 237.51434 203.540044 
L 238.288248 225.492459 
L 239.062156 216.829819 
L 239.44911 213.572822 
L 239.836065 214.332453 
L 240.223019 206.825163 
L 240.609973 196.335815 
L 240.996927 191.739833 
L 241.770835 187.749914 
L 242.544744 195.378521 
L 242.931698 195.111463 
L 243.318652 192.722418 
L 243.705606 195.161214 
L 244.09256 194.958174 
L 244.479515 196.055344 
L 244.866469 196.515959 
L 245.253423 200.999554 
L 245.640377 208.996187 
L 246.027331 205.730004 
L 246.414285 200.179452 
L 246.80124 203.646368 
L 247.188194 205.358651 
L 247.575148 205.459464 
L 247.962102 207.424242 
L 248.349056 206.557352 
L 248.73601 207.903349 
L 249.122965 208.63958 
L 249.896873 198.007201 
L 250.283827 196.689437 
L 251.057735 225.729575 
L 251.44469 233.059037 
L 251.831644 229.394596 
L 252.218598 230.115102 
L 252.605552 231.364246 
L 252.992506 237.378663 
L 253.37946 234.558991 
L 254.153369 237.233449 
L 254.540323 237.737822 
L 255.701185 209.048911 
L 256.08814 202.739631 
L 256.475094 204.565072 
L 256.862048 201.512639 
L 257.635956 192.695904 
L 258.02291 195.978596 
L 258.409865 196.190517 
L 258.796819 191.305865 
L 259.183773 191.529595 
L 259.570727 194.244241 
L 259.957681 201.03246 
L 260.344635 202.788833 
L 260.73159 198.834793 
L 261.118544 197.933447 
L 261.505498 198.846982 
L 261.892452 194.776763 
L 262.279406 199.593024 
L 262.66636 198.584704 
L 263.053315 197.949526 
L 263.827223 193.458277 
L 264.214177 189.566682 
L 264.988085 184.494711 
L 265.37504 184.764126 
L 265.761994 181.691485 
L 266.148948 183.720449 
L 266.535902 183.807346 
L 266.922856 190.4096 
L 267.30981 193.128622 
L 267.696765 190.533561 
L 268.083719 188.986881 
L 268.470673 189.36657 
L 268.857627 178.077571 
L 269.244581 183.51752 
L 269.631535 183.060334 
L 270.405444 194.867566 
L 271.179352 186.020547 
L 271.566306 174.474074 
L 271.95326 167.932893 
L 272.340215 167.848362 
L 272.727169 170.325538 
L 273.114123 170.142364 
L 273.501077 178.738679 
L 273.888031 181.86806 
L 274.274985 186.884371 
L 274.66194 184.835138 
L 275.048894 183.386046 
L 275.822802 201.069809 
L 276.209756 207.829604 
L 276.59671 210.802361 
L 276.983665 216.89867 
L 277.370619 211.860539 
L 277.757573 211.795869 
L 278.144527 217.591532 
L 278.531481 214.648284 
L 278.918435 209.675487 
L 279.30539 210.603011 
L 279.692344 212.591459 
L 280.079298 211.908505 
L 280.466252 207.595979 
L 280.853206 211.307602 
L 281.24016 212.762416 
L 281.627115 207.99118 
L 282.014069 209.802102 
L 282.401023 214.068801 
L 282.787977 208.595507 
L 283.174931 209.471016 
L 283.561885 212.792762 
L 283.94884 209.378539 
L 284.335794 208.46922 
L 284.722748 212.865236 
L 285.109702 213.923029 
L 285.496656 213.299948 
L 285.88361 214.605748 
L 286.270565 214.511712 
L 286.657519 215.407702 
L 287.044473 215.582487 
L 287.431427 221.176549 
L 288.205335 217.07729 
L 288.59229 222.075521 
L 288.979244 222.380774 
L 289.753152 214.254035 
L 290.140106 213.975766 
L 290.52706 213.341859 
L 290.914015 218.712758 
L 291.300969 217.151346 
L 291.687923 218.199783 
L 292.074877 213.034196 
L 292.461831 213.434948 
L 292.848785 214.219361 
L 293.23574 208.68192 
L 293.622694 209.567409 
L 294.396602 216.580584 
L 294.783556 217.292994 
L 295.557465 212.965563 
L 295.944419 218.797285 
L 296.331373 220.96566 
L 296.718327 215.678605 
L 297.105281 216.516128 
L 297.492235 214.949789 
L 297.87919 215.287528 
L 298.266144 214.445058 
L 298.653098 214.469335 
L 299.040052 212.014417 
L 299.427006 215.908359 
L 299.81396 212.623798 
L 300.200915 211.830654 
L 300.587869 207.917537 
L 300.974823 207.814739 
L 301.361777 211.423675 
L 301.748731 210.923124 
L 302.135685 215.210784 
L 302.52264 220.76941 
L 302.909594 223.018547 
L 303.296548 222.81921 
L 303.683502 223.135076 
L 304.070456 221.06526 
L 305.231319 228.469898 
L 305.618273 228.924914 
L 306.005227 234.25101 
L 306.392181 233.886442 
L 306.779135 233.311806 
L 307.16609 232.512155 
L 307.553044 229.278036 
L 307.939998 231.24971 
L 308.326952 228.518763 
L 308.713906 231.283781 
L 309.10086 233.081919 
L 309.487814 232.050016 
L 309.874769 233.011996 
L 310.261723 232.555758 
L 310.648677 228.78215 
L 311.035631 228.602032 
L 311.422585 229.504215 
L 311.809539 221.72732 
L 312.196494 224.866326 
L 312.583448 226.790805 
L 312.970402 222.60717 
L 313.357356 220.008641 
L 313.74431 215.737592 
L 314.131264 219.214336 
L 314.518219 219.858856 
L 314.905173 216.401902 
L 315.292127 215.641992 
L 316.066035 201.695091 
L 316.452989 214.733258 
L 316.839944 211.583165 
L 317.226898 200.414437 
L 317.613852 201.536718 
L 318.000806 208.54879 
L 318.38776 206.411682 
L 318.774714 205.979947 
L 319.161669 204.493808 
L 319.548623 208.180772 
L 319.935577 204.683599 
L 320.322531 205.439302 
L 320.709485 210.292743 
L 321.483394 204.606045 
L 321.870348 211.744949 
L 322.257302 216.083547 
L 322.644256 213.984899 
L 323.03121 215.976195 
L 323.418164 225.187246 
L 323.805119 230.673447 
L 324.192073 234.555536 
L 324.579027 240.964321 
L 324.965981 237.860061 
L 325.352935 232.348196 
L 325.739889 228.698039 
L 326.126844 236.372934 
L 326.513798 239.037545 
L 326.900752 231.943874 
L 327.287706 228.057927 
L 327.67466 231.904887 
L 328.061614 223.93226 
L 328.835523 217.885485 
L 329.609431 211.525378 
L 329.996385 214.588101 
L 330.383339 223.675159 
L 330.770294 226.236579 
L 331.157248 226.032768 
L 331.544202 225.352162 
L 331.931156 222.622159 
L 332.31811 221.13749 
L 332.705064 226.121201 
L 333.092019 226.955052 
L 333.478973 226.707036 
L 333.865927 228.000345 
L 334.252881 230.743986 
L 334.639835 228.841619 
L 335.413744 211.751527 
L 335.800698 209.669923 
L 336.187652 212.971777 
L 336.574606 220.396972 
L 336.96156 218.064642 
L 337.348514 207.439997 
L 337.735469 203.025258 
L 338.122423 211.09076 
L 338.509377 214.241367 
L 338.896331 207.554878 
L 339.283285 207.22529 
L 339.670239 209.420685 
L 340.057194 218.669257 
L 340.444148 218.419726 
L 340.831102 204.498202 
L 341.218056 198.046353 
L 341.60501 189.569056 
L 342.378919 209.538737 
L 343.152827 195.97666 
L 343.539781 205.298761 
L 343.926735 208.516699 
L 344.313689 204.102841 
L 344.700644 196.856864 
L 345.087598 195.033146 
L 345.474552 196.131783 
L 345.861506 204.151976 
L 346.24846 231.875196 
L 346.635414 239.389967 
L 347.022369 226.921384 
L 347.409323 220.452393 
L 347.796277 225.03568 
L 348.183231 217.125588 
L 348.570185 213.558918 
L 348.957139 218.528969 
L 349.344094 220.064062 
L 349.731048 222.837008 
L 350.118002 221.680346 
L 350.504956 216.675821 
L 350.89191 202.695607 
L 351.278864 201.839951 
L 351.665819 195.499435 
L 352.052773 196.816061 
L 352.439727 191.668368 
L 352.826681 198.282688 
L 353.213635 200.905708 
L 353.600589 200.481729 
L 353.987544 196.257574 
L 354.374498 183.499785 
L 354.761452 174.74953 
L 355.148406 184.896742 
L 355.53536 190.110712 
L 355.922314 210.350056 
L 356.309269 244.082225 
L 356.696223 256.93203 
L 357.083177 256.030877 
L 357.470131 254.464833 
L 357.857085 261.011554 
L 358.244039 264.496382 
L 358.630994 273.438783 
L 359.017948 276.196479 
L 359.404902 281.595133 
L 360.17881 256.582839 
L 360.952719 212.946733 
L 361.339673 216.754448 
L 361.726627 218.425369 
L 362.113581 224.78463 
L 362.500535 222.193485 
L 362.887489 223.411534 
L 363.274444 225.633213 
L 363.661398 238.706356 
L 364.048352 234.107705 
L 364.435306 238.625435 
L 364.82226 238.930796 
L 365.209214 238.502038 
L 365.596169 238.749833 
L 365.983123 233.726709 
L 366.370077 225.872636 
L 366.757031 223.228829 
L 367.143985 218.383591 
L 367.917894 200.176267 
L 368.304848 204.018226 
L 368.691802 205.893693 
L 369.46571 200.379985 
L 369.852664 205.32376 
L 370.239619 207.138376 
L 370.626573 212.927514 
L 371.013527 212.146179 
L 371.400481 214.215818 
L 372.561344 230.04044 
L 372.948298 231.158016 
L 373.335252 233.451886 
L 373.722206 231.897232 
L 374.496114 224.687489 
L 374.883069 229.558382 
L 375.270023 230.009779 
L 375.656977 228.321482 
L 376.043931 223.029187 
L 376.430885 232.602289 
L 376.817839 237.024543 
L 377.591748 226.960992 
L 377.978702 228.280319 
L 378.75261 239.939739 
L 379.139564 239.104538 
L 379.526519 234.31288 
L 379.913473 233.204109 
L 380.300427 234.999576 
L 380.687381 238.705443 
L 381.074335 229.542901 
L 381.461289 223.385919 
L 381.848244 223.277309 
L 382.235198 226.097096 
L 382.622152 225.754269 
L 383.009106 229.937584 
L 383.39606 228.88248 
L 383.783014 230.800106 
L 384.556923 245.260518 
L 384.943877 254.43082 
L 385.330831 254.395231 
L 385.717785 254.683952 
L 386.104739 255.741113 
L 386.878648 246.778702 
L 387.265602 247.083191 
L 387.652556 249.701158 
L 388.03951 254.74496 
L 388.426464 250.73961 
L 388.813419 241.449299 
L 389.200373 237.31164 
L 389.587327 238.718229 
L 389.974281 240.63306 
L 390.361235 239.616629 
L 390.748189 235.609578 
L 391.135144 237.952286 
L 391.909052 240.550773 
L 392.296006 237.531026 
L 392.68296 230.701264 
L 393.069914 229.354576 
L 393.456869 230.943305 
L 393.843823 224.715894 
L 394.230777 215.404447 
L 394.617731 214.197086 
L 395.004685 224.04727 
L 395.391639 226.302683 
L 395.778594 227.231691 
L 396.165548 228.847209 
L 396.552502 229.375505 
L 396.939456 228.189352 
L 397.32641 222.728372 
L 397.713364 223.941766 
L 398.100319 222.867504 
L 398.487273 225.79121 
L 398.487273 225.79121 
" style="fill:none;opacity:0.6;stroke:#ff7f0e;stroke-linecap:square;stroke-width:0.5;"/>
   </g>
   <g id="patch_3">
    <path d="M 57.6 307.584 
L 57.6 41.472 
" style="fill:none;stroke:#000000;stroke-linecap:square;stroke-linejoin:miter;stroke-width:0.8;"/>
   </g>
   <g id="patch_4">
    <path d="M 414.72 307.584 
L 414.72 41.472 
" style="fill:none;stroke:#000000;stroke-linecap:square;stroke-linejoin:miter;stroke-width:0.8;"/>
   </g>
   <g id="patch_5">
    <path d="M 57.6 307.584 
L 414.72 307.584 
" style="fill:none;stroke:#000000;stroke-linecap:square;stroke-linejoin:miter;stroke-width:0.8;"/>
   </g>
   <g id="patch_6">
    <path d="M 57.6 41.472 
L 414.72 41.472 
" style="fill:none;stroke:#000000;stroke-linecap:square;stroke-linejoin:miter;stroke-width:0.8;"/>
   </g>
  </g>
 </g>
 <defs>
  <clipPath id="p673918a0f2">
   <rect height="266.112" width="357.12" x="57.6" y="41.472"/>
  </clipPath>
 </defs>
</svg>
