<?xml version="1.0" encoding="utf-8" standalone="no"?>
<!DOCTYPE svg PUBLIC "-//W3C//DTD SVG 1.1//EN"
  "http://www.w3.org/Graphics/SVG/1.1/DTD/svg11.dtd">
<!-- Created with matplotlib (http://matplotlib.org/) -->
<svg height="345.6pt" version="1.1" viewBox="0 0 460.8 345.6" width="460.8pt" xmlns="http://www.w3.org/2000/svg" xmlns:xlink="http://www.w3.org/1999/xlink">
 <defs>
  <style type="text/css">
*{stroke-linecap:butt;stroke-linejoin:round;}
  </style>
 </defs>
 <g id="figure_1">
  <g id="patch_1">
   <path d="M 0 345.6 
L 460.8 345.6 
L 460.8 0 
L 0 0 
z
" style="fill:#ffffff;"/>
  </g>
  <g id="axes_1">
   <g id="patch_2">
    <path d="M 57.6 307.584 
L 414.72 307.584 
L 414.72 41.472 
L 57.6 41.472 
z
" style="fill:#ffffff;"/>
   </g>
   <g id="matplotlib.axis_1">
    <g id="xtick_1">
     <g id="line2d_1">
      <defs>
       <path d="M 0 0 
L 0 3.5 
" id="m61098f53a9" style="stroke:#000000;stroke-width:0.8;"/>
      </defs>
      <g>
       <use style="stroke:#000000;stroke-width:0.8;" x="73.832727" xlink:href="#m61098f53a9" y="307.584"/>
      </g>
     </g>
     <g id="text_1">
      <!-- 0 -->
      <defs>
       <path d="M 31.78125 66.40625 
Q 24.171875 66.40625 20.328125 58.90625 
Q 16.5 51.421875 16.5 36.375 
Q 16.5 21.390625 20.328125 13.890625 
Q 24.171875 6.390625 31.78125 6.390625 
Q 39.453125 6.390625 43.28125 13.890625 
Q 47.125 21.390625 47.125 36.375 
Q 47.125 51.421875 43.28125 58.90625 
Q 39.453125 66.40625 31.78125 66.40625 
z
M 31.78125 74.21875 
Q 44.046875 74.21875 50.515625 64.515625 
Q 56.984375 54.828125 56.984375 36.375 
Q 56.984375 17.96875 50.515625 8.265625 
Q 44.046875 -1.421875 31.78125 -1.421875 
Q 19.53125 -1.421875 13.0625 8.265625 
Q 6.59375 17.96875 6.59375 36.375 
Q 6.59375 54.828125 13.0625 64.515625 
Q 19.53125 74.21875 31.78125 74.21875 
z
" id="DejaVuSans-30"/>
      </defs>
      <g transform="translate(70.651477 322.182437)scale(0.1 -0.1)">
       <use xlink:href="#DejaVuSans-30"/>
      </g>
     </g>
    </g>
    <g id="xtick_2">
     <g id="line2d_2">
      <g>
       <use style="stroke:#000000;stroke-width:0.8;" x="151.223561" xlink:href="#m61098f53a9" y="307.584"/>
      </g>
     </g>
     <g id="text_2">
      <!-- 200 -->
      <defs>
       <path d="M 19.1875 8.296875 
L 53.609375 8.296875 
L 53.609375 0 
L 7.328125 0 
L 7.328125 8.296875 
Q 12.9375 14.109375 22.625 23.890625 
Q 32.328125 33.6875 34.8125 36.53125 
Q 39.546875 41.84375 41.421875 45.53125 
Q 43.3125 49.21875 43.3125 52.78125 
Q 43.3125 58.59375 39.234375 62.25 
Q 35.15625 65.921875 28.609375 65.921875 
Q 23.96875 65.921875 18.8125 64.3125 
Q 13.671875 62.703125 7.8125 59.421875 
L 7.8125 69.390625 
Q 13.765625 71.78125 18.9375 73 
Q 24.125 74.21875 28.421875 74.21875 
Q 39.75 74.21875 46.484375 68.546875 
Q 53.21875 62.890625 53.21875 53.421875 
Q 53.21875 48.921875 51.53125 44.890625 
Q 49.859375 40.875 45.40625 35.40625 
Q 44.1875 33.984375 37.640625 27.21875 
Q 31.109375 20.453125 19.1875 8.296875 
z
" id="DejaVuSans-32"/>
      </defs>
      <g transform="translate(141.679811 322.182437)scale(0.1 -0.1)">
       <use xlink:href="#DejaVuSans-32"/>
       <use x="63.623047" xlink:href="#DejaVuSans-30"/>
       <use x="127.246094" xlink:href="#DejaVuSans-30"/>
      </g>
     </g>
    </g>
    <g id="xtick_3">
     <g id="line2d_3">
      <g>
       <use style="stroke:#000000;stroke-width:0.8;" x="228.614394" xlink:href="#m61098f53a9" y="307.584"/>
      </g>
     </g>
     <g id="text_3">
      <!-- 400 -->
      <defs>
       <path d="M 37.796875 64.3125 
L 12.890625 25.390625 
L 37.796875 25.390625 
z
M 35.203125 72.90625 
L 47.609375 72.90625 
L 47.609375 25.390625 
L 58.015625 25.390625 
L 58.015625 17.1875 
L 47.609375 17.1875 
L 47.609375 0 
L 37.796875 0 
L 37.796875 17.1875 
L 4.890625 17.1875 
L 4.890625 26.703125 
z
" id="DejaVuSans-34"/>
      </defs>
      <g transform="translate(219.070644 322.182437)scale(0.1 -0.1)">
       <use xlink:href="#DejaVuSans-34"/>
       <use x="63.623047" xlink:href="#DejaVuSans-30"/>
       <use x="127.246094" xlink:href="#DejaVuSans-30"/>
      </g>
     </g>
    </g>
    <g id="xtick_4">
     <g id="line2d_4">
      <g>
       <use style="stroke:#000000;stroke-width:0.8;" x="306.005227" xlink:href="#m61098f53a9" y="307.584"/>
      </g>
     </g>
     <g id="text_4">
      <!-- 600 -->
      <defs>
       <path d="M 33.015625 40.375 
Q 26.375 40.375 22.484375 35.828125 
Q 18.609375 31.296875 18.609375 23.390625 
Q 18.609375 15.53125 22.484375 10.953125 
Q 26.375 6.390625 33.015625 6.390625 
Q 39.65625 6.390625 43.53125 10.953125 
Q 47.40625 15.53125 47.40625 23.390625 
Q 47.40625 31.296875 43.53125 35.828125 
Q 39.65625 40.375 33.015625 40.375 
z
M 52.59375 71.296875 
L 52.59375 62.3125 
Q 48.875 64.0625 45.09375 64.984375 
Q 41.3125 65.921875 37.59375 65.921875 
Q 27.828125 65.921875 22.671875 59.328125 
Q 17.53125 52.734375 16.796875 39.40625 
Q 19.671875 43.65625 24.015625 45.921875 
Q 28.375 48.1875 33.59375 48.1875 
Q 44.578125 48.1875 50.953125 41.515625 
Q 57.328125 34.859375 57.328125 23.390625 
Q 57.328125 12.15625 50.6875 5.359375 
Q 44.046875 -1.421875 33.015625 -1.421875 
Q 20.359375 -1.421875 13.671875 8.265625 
Q 6.984375 17.96875 6.984375 36.375 
Q 6.984375 53.65625 15.1875 63.9375 
Q 23.390625 74.21875 37.203125 74.21875 
Q 40.921875 74.21875 44.703125 73.484375 
Q 48.484375 72.75 52.59375 71.296875 
z
" id="DejaVuSans-36"/>
      </defs>
      <g transform="translate(296.461477 322.182437)scale(0.1 -0.1)">
       <use xlink:href="#DejaVuSans-36"/>
       <use x="63.623047" xlink:href="#DejaVuSans-30"/>
       <use x="127.246094" xlink:href="#DejaVuSans-30"/>
      </g>
     </g>
    </g>
    <g id="xtick_5">
     <g id="line2d_5">
      <g>
       <use style="stroke:#000000;stroke-width:0.8;" x="383.39606" xlink:href="#m61098f53a9" y="307.584"/>
      </g>
     </g>
     <g id="text_5">
      <!-- 800 -->
      <defs>
       <path d="M 31.78125 34.625 
Q 24.75 34.625 20.71875 30.859375 
Q 16.703125 27.09375 16.703125 20.515625 
Q 16.703125 13.921875 20.71875 10.15625 
Q 24.75 6.390625 31.78125 6.390625 
Q 38.8125 6.390625 42.859375 10.171875 
Q 46.921875 13.96875 46.921875 20.515625 
Q 46.921875 27.09375 42.890625 30.859375 
Q 38.875 34.625 31.78125 34.625 
z
M 21.921875 38.8125 
Q 15.578125 40.375 12.03125 44.71875 
Q 8.5 49.078125 8.5 55.328125 
Q 8.5 64.0625 14.71875 69.140625 
Q 20.953125 74.21875 31.78125 74.21875 
Q 42.671875 74.21875 48.875 69.140625 
Q 55.078125 64.0625 55.078125 55.328125 
Q 55.078125 49.078125 51.53125 44.71875 
Q 48 40.375 41.703125 38.8125 
Q 48.828125 37.15625 52.796875 32.3125 
Q 56.78125 27.484375 56.78125 20.515625 
Q 56.78125 9.90625 50.3125 4.234375 
Q 43.84375 -1.421875 31.78125 -1.421875 
Q 19.734375 -1.421875 13.25 4.234375 
Q 6.78125 9.90625 6.78125 20.515625 
Q 6.78125 27.484375 10.78125 32.3125 
Q 14.796875 37.15625 21.921875 38.8125 
z
M 18.3125 54.390625 
Q 18.3125 48.734375 21.84375 45.5625 
Q 25.390625 42.390625 31.78125 42.390625 
Q 38.140625 42.390625 41.71875 45.5625 
Q 45.3125 48.734375 45.3125 54.390625 
Q 45.3125 60.0625 41.71875 63.234375 
Q 38.140625 66.40625 31.78125 66.40625 
Q 25.390625 66.40625 21.84375 63.234375 
Q 18.3125 60.0625 18.3125 54.390625 
z
" id="DejaVuSans-38"/>
      </defs>
      <g transform="translate(373.85231 322.182437)scale(0.1 -0.1)">
       <use xlink:href="#DejaVuSans-38"/>
       <use x="63.623047" xlink:href="#DejaVuSans-30"/>
       <use x="127.246094" xlink:href="#DejaVuSans-30"/>
      </g>
     </g>
    </g>
   </g>
   <g id="matplotlib.axis_2">
    <g id="ytick_1">
     <g id="line2d_6">
      <defs>
       <path d="M 0 0 
L -3.5 0 
" id="me325667807" style="stroke:#000000;stroke-width:0.8;"/>
      </defs>
      <g>
       <use style="stroke:#000000;stroke-width:0.8;" x="57.6" xlink:href="#me325667807" y="288.770946"/>
      </g>
     </g>
     <g id="text_6">
      <!-- −2.5 -->
      <defs>
       <path d="M 10.59375 35.5 
L 73.1875 35.5 
L 73.1875 27.203125 
L 10.59375 27.203125 
z
" id="DejaVuSans-2212"/>
       <path d="M 10.6875 12.40625 
L 21 12.40625 
L 21 0 
L 10.6875 0 
z
" id="DejaVuSans-2e"/>
       <path d="M 10.796875 72.90625 
L 49.515625 72.90625 
L 49.515625 64.59375 
L 19.828125 64.59375 
L 19.828125 46.734375 
Q 21.96875 47.46875 24.109375 47.828125 
Q 26.265625 48.1875 28.421875 48.1875 
Q 40.625 48.1875 47.75 41.5 
Q 54.890625 34.8125 54.890625 23.390625 
Q 54.890625 11.625 47.5625 5.09375 
Q 40.234375 -1.421875 26.90625 -1.421875 
Q 22.3125 -1.421875 17.546875 -0.640625 
Q 12.796875 0.140625 7.71875 1.703125 
L 7.71875 11.625 
Q 12.109375 9.234375 16.796875 8.0625 
Q 21.484375 6.890625 26.703125 6.890625 
Q 35.15625 6.890625 40.078125 11.328125 
Q 45.015625 15.765625 45.015625 23.390625 
Q 45.015625 31 40.078125 35.4375 
Q 35.15625 39.890625 26.703125 39.890625 
Q 22.75 39.890625 18.8125 39.015625 
Q 14.890625 38.140625 10.796875 36.28125 
z
" id="DejaVuSans-35"/>
      </defs>
      <g transform="translate(26.317187 292.570165)scale(0.1 -0.1)">
       <use xlink:href="#DejaVuSans-2212"/>
       <use x="83.789062" xlink:href="#DejaVuSans-32"/>
       <use x="147.412109" xlink:href="#DejaVuSans-2e"/>
       <use x="179.199219" xlink:href="#DejaVuSans-35"/>
      </g>
     </g>
    </g>
    <g id="ytick_2">
     <g id="line2d_7">
      <g>
       <use style="stroke:#000000;stroke-width:0.8;" x="57.6" xlink:href="#me325667807" y="254.368999"/>
      </g>
     </g>
     <g id="text_7">
      <!-- 0.0 -->
      <g transform="translate(34.696875 258.168218)scale(0.1 -0.1)">
       <use xlink:href="#DejaVuSans-30"/>
       <use x="63.623047" xlink:href="#DejaVuSans-2e"/>
       <use x="95.410156" xlink:href="#DejaVuSans-30"/>
      </g>
     </g>
    </g>
    <g id="ytick_3">
     <g id="line2d_8">
      <g>
       <use style="stroke:#000000;stroke-width:0.8;" x="57.6" xlink:href="#me325667807" y="219.967052"/>
      </g>
     </g>
     <g id="text_8">
      <!-- 2.5 -->
      <g transform="translate(34.696875 223.766271)scale(0.1 -0.1)">
       <use xlink:href="#DejaVuSans-32"/>
       <use x="63.623047" xlink:href="#DejaVuSans-2e"/>
       <use x="95.410156" xlink:href="#DejaVuSans-35"/>
      </g>
     </g>
    </g>
    <g id="ytick_4">
     <g id="line2d_9">
      <g>
       <use style="stroke:#000000;stroke-width:0.8;" x="57.6" xlink:href="#me325667807" y="185.565105"/>
      </g>
     </g>
     <g id="text_9">
      <!-- 5.0 -->
      <g transform="translate(34.696875 189.364324)scale(0.1 -0.1)">
       <use xlink:href="#DejaVuSans-35"/>
       <use x="63.623047" xlink:href="#DejaVuSans-2e"/>
       <use x="95.410156" xlink:href="#DejaVuSans-30"/>
      </g>
     </g>
    </g>
    <g id="ytick_5">
     <g id="line2d_10">
      <g>
       <use style="stroke:#000000;stroke-width:0.8;" x="57.6" xlink:href="#me325667807" y="151.163158"/>
      </g>
     </g>
     <g id="text_10">
      <!-- 7.5 -->
      <defs>
       <path d="M 8.203125 72.90625 
L 55.078125 72.90625 
L 55.078125 68.703125 
L 28.609375 0 
L 18.3125 0 
L 43.21875 64.59375 
L 8.203125 64.59375 
z
" id="DejaVuSans-37"/>
      </defs>
      <g transform="translate(34.696875 154.962376)scale(0.1 -0.1)">
       <use xlink:href="#DejaVuSans-37"/>
       <use x="63.623047" xlink:href="#DejaVuSans-2e"/>
       <use x="95.410156" xlink:href="#DejaVuSans-35"/>
      </g>
     </g>
    </g>
    <g id="ytick_6">
     <g id="line2d_11">
      <g>
       <use style="stroke:#000000;stroke-width:0.8;" x="57.6" xlink:href="#me325667807" y="116.761211"/>
      </g>
     </g>
     <g id="text_11">
      <!-- 10.0 -->
      <defs>
       <path d="M 12.40625 8.296875 
L 28.515625 8.296875 
L 28.515625 63.921875 
L 10.984375 60.40625 
L 10.984375 69.390625 
L 28.421875 72.90625 
L 38.28125 72.90625 
L 38.28125 8.296875 
L 54.390625 8.296875 
L 54.390625 0 
L 12.40625 0 
z
" id="DejaVuSans-31"/>
      </defs>
      <g transform="translate(28.334375 120.560429)scale(0.1 -0.1)">
       <use xlink:href="#DejaVuSans-31"/>
       <use x="63.623047" xlink:href="#DejaVuSans-30"/>
       <use x="127.246094" xlink:href="#DejaVuSans-2e"/>
       <use x="159.033203" xlink:href="#DejaVuSans-30"/>
      </g>
     </g>
    </g>
    <g id="ytick_7">
     <g id="line2d_12">
      <g>
       <use style="stroke:#000000;stroke-width:0.8;" x="57.6" xlink:href="#me325667807" y="82.359263"/>
      </g>
     </g>
     <g id="text_12">
      <!-- 12.5 -->
      <g transform="translate(28.334375 86.158482)scale(0.1 -0.1)">
       <use xlink:href="#DejaVuSans-31"/>
       <use x="63.623047" xlink:href="#DejaVuSans-32"/>
       <use x="127.246094" xlink:href="#DejaVuSans-2e"/>
       <use x="159.033203" xlink:href="#DejaVuSans-35"/>
      </g>
     </g>
    </g>
    <g id="ytick_8">
     <g id="line2d_13">
      <g>
       <use style="stroke:#000000;stroke-width:0.8;" x="57.6" xlink:href="#me325667807" y="47.957316"/>
      </g>
     </g>
     <g id="text_13">
      <!-- 15.0 -->
      <g transform="translate(28.334375 51.756535)scale(0.1 -0.1)">
       <use xlink:href="#DejaVuSans-31"/>
       <use x="63.623047" xlink:href="#DejaVuSans-35"/>
       <use x="127.246094" xlink:href="#DejaVuSans-2e"/>
       <use x="159.033203" xlink:href="#DejaVuSans-30"/>
      </g>
     </g>
    </g>
   </g>
   <g id="line2d_14">
    <path clip-path="url(#p2acd80c71f)" d="M 73.832727 123.88984 
L 74.219681 160.545531 
L 74.99359 125.224493 
L 75.380544 125.361697 
L 75.767498 120.042049 
L 76.154452 129.661941 
L 76.541406 162.791151 
L 76.928361 170.27867 
L 77.315315 188.72788 
L 77.702269 216.748818 
L 78.089223 235.192254 
L 78.476177 240.416394 
L 78.863131 230.360845 
L 79.250086 248.591948 
L 79.63704 260.10023 
L 80.023994 267.474489 
L 80.410948 293.84661 
L 80.797902 295.488 
L 81.184856 288.827498 
L 81.571811 290.596447 
L 81.958765 280.569109 
L 82.345719 279.544619 
L 82.732673 283.025404 
L 83.119627 271.634786 
L 83.506581 269.908087 
L 83.893536 269.901617 
L 84.667444 256.670075 
L 85.054398 232.885948 
L 85.441352 225.337885 
L 85.828306 220.184335 
L 86.215261 206.116139 
L 86.602215 202.112853 
L 87.763077 124.979153 
L 88.150031 123.979158 
L 88.536986 122.288771 
L 88.92394 125.850199 
L 90.084802 159.976938 
L 90.471756 158.823787 
L 90.858711 161.132707 
L 91.245665 158.155423 
L 91.632619 172.28912 
L 92.406527 223.469858 
L 92.793481 227.251595 
L 93.180436 225.700757 
L 93.56739 228.954767 
L 93.954344 222.527658 
L 94.341298 213.474305 
L 94.728252 210.202542 
L 95.115206 222.64999 
L 95.502161 226.489799 
L 96.276069 241.89224 
L 96.663023 244.484082 
L 97.049977 244.990202 
L 97.436931 241.854396 
L 97.823886 242.407579 
L 98.21084 242.41212 
L 98.597794 241.920449 
L 98.984748 248.695566 
L 99.371702 246.119689 
L 99.758656 240.9338 
L 100.145611 240.963937 
L 100.532565 246.119689 
L 100.919519 246.12588 
L 101.693427 233.668386 
L 102.080381 238.866794 
L 102.467336 245.604209 
L 102.85429 242.51519 
L 103.241244 245.630354 
L 103.628198 250.773448 
L 104.402106 258.462967 
L 104.789061 266.112861 
L 105.176015 257.956572 
L 105.562969 259.49021 
L 105.949923 263.052461 
L 106.336877 263.036366 
L 106.723831 261.522816 
L 107.110786 257.955194 
L 107.884694 266.117264 
L 108.271648 259.492133 
L 108.658602 261.031558 
L 109.045556 252.315892 
L 109.432511 249.219029 
L 110.206419 249.228661 
L 110.593373 251.284797 
L 110.980327 252.316718 
L 111.367281 249.232513 
L 111.754236 247.177889 
L 112.14119 241.00398 
L 112.528144 231.700593 
L 112.915098 227.114814 
L 113.302052 223.984098 
L 113.689006 228.743677 
L 114.075961 218.966505 
L 114.462915 222.117174 
L 114.849869 215.4476 
L 115.623777 206.211365 
L 116.397686 203.270686 
L 116.78464 204.986932 
L 117.171594 205.712125 
L 117.558548 208.987189 
L 117.945502 205.493327 
L 118.332456 205.564747 
L 118.719411 213.852037 
L 119.106365 209.350062 
L 119.493319 212.533893 
L 119.880273 206.129213 
L 120.267227 209.819715 
L 120.654181 204.482462 
L 121.041136 204.607547 
L 121.42809 208.172137 
L 121.815044 215.206374 
L 122.201998 220.198921 
L 122.588952 222.254092 
L 122.975906 225.700757 
L 123.362861 225.700757 
L 124.136769 230.201907 
L 124.523723 236.59145 
L 124.910677 239.984857 
L 125.297631 249.602541 
L 125.684586 252.466983 
L 126.07154 249.614099 
L 126.458494 244.849294 
L 126.845448 241.98471 
L 127.232402 242.957186 
L 128.006311 233.425644 
L 128.393265 235.355868 
L 128.780219 233.46899 
L 129.167173 237.292563 
L 129.554127 234.914148 
L 129.941081 233.46899 
L 130.328036 227.778084 
L 131.101944 230.733212 
L 131.488898 235.486321 
L 131.875852 234.090976 
L 132.262806 237.432647 
L 133.036715 234.208357 
L 133.423669 235.653239 
L 133.810623 232.348037 
L 134.197577 234.249502 
L 134.584531 234.249502 
L 134.971486 241.791509 
L 135.35844 241.80417 
L 135.745394 243.680179 
L 136.132348 237.138853 
L 136.519302 239.032748 
L 136.906256 237.173803 
L 137.293211 243.730405 
L 137.680165 245.127397 
L 138.454073 245.145976 
L 139.614936 235.904373 
L 140.00189 235.922949 
L 140.388844 237.306322 
L 140.775798 240.571478 
L 141.162752 238.742261 
L 141.549706 234.17299 
L 141.936661 236.009091 
L 142.323615 236.009091 
L 142.710569 237.403061 
L 143.097523 236.045698 
L 143.871431 238.861289 
L 144.258386 242.070442 
L 144.64534 242.082551 
L 145.032294 236.148903 
L 145.419248 232.967409 
L 145.806202 233.009791 
L 146.193156 240.798256 
L 146.580111 237.609608 
L 146.967065 236.25073 
L 147.354019 231.721234 
L 147.740973 231.765817 
L 148.127927 234.955841 
L 148.514881 234.974971 
L 148.901836 233.150015 
L 149.28879 233.170793 
L 150.062698 239.572447 
L 150.449652 240.943846 
L 150.836606 238.243018 
L 151.223561 237.81134 
L 151.610515 235.145052 
L 151.997469 237.880972 
L 152.384423 239.247278 
L 152.771377 237.897071 
L 153.158331 237.913032 
L 153.93224 232.159928 
L 154.319194 227.743817 
L 154.706148 229.526803 
L 155.093102 232.20988 
L 155.480056 230.460334 
L 155.867011 230.933291 
L 156.253965 230.559963 
L 156.640919 227.948304 
L 157.027873 227.973624 
L 157.414827 219.175258 
L 157.801781 216.132473 
L 158.188736 214.902124 
L 158.57569 216.338886 
L 158.962644 220.848567 
L 159.349598 216.459292 
L 159.736552 206.39163 
L 160.123506 205.192242 
L 160.510461 202.195418 
L 161.284369 208.139664 
L 161.671323 210.341386 
L 162.445231 219.304194 
L 162.832186 219.412904 
L 163.21914 222.466149 
L 163.606094 215.271049 
L 163.993048 214.083217 
L 164.380002 218.544601 
L 165.15391 218.76271 
L 165.540865 211.680448 
L 165.927819 209.224288 
L 166.314773 204.17766 
L 166.701727 204.329854 
L 167.088681 200.159925 
L 167.475635 200.323678 
L 167.86259 196.166272 
L 168.249544 196.515936 
L 168.636498 192.569063 
L 169.410406 192.93689 
L 169.79736 189.035988 
L 170.184315 193.480582 
L 170.571269 189.612423 
L 171.345177 189.991122 
L 171.732131 182.155048 
L 172.119085 178.364638 
L 172.50604 178.584952 
L 173.279948 179.453531 
L 173.666902 179.667651 
L 174.053856 175.959944 
L 174.44081 176.404279 
L 174.827765 172.737307 
L 175.214719 173.195816 
L 175.988627 165.961773 
L 176.375581 170.508334 
L 176.762535 170.970288 
L 177.14949 171.199401 
L 177.536444 171.65392 
L 177.923398 175.842838 
L 178.310352 176.05558 
L 179.858169 177.717469 
L 180.245123 181.752819 
L 180.632077 189.357437 
L 181.405985 197.181405 
L 181.79294 193.764465 
L 182.179894 194.07697 
L 182.953802 194.386175 
L 184.501619 209.421754 
L 184.888573 209.534316 
L 185.275527 202.636729 
L 185.662481 206.206273 
L 186.049435 206.326404 
L 186.823344 213.596362 
L 187.597252 213.796719 
L 187.984206 210.523442 
L 188.37116 210.63064 
L 188.758115 207.381032 
L 189.145069 207.495244 
L 189.918977 201.187306 
L 190.305931 187.891774 
L 190.692885 181.42036 
L 191.07984 178.287716 
L 191.466794 171.870376 
L 191.853748 175.359697 
L 192.240702 152.558913 
L 192.627656 153.042605 
L 193.01461 143.500186 
L 193.401565 140.777626 
L 194.175473 122.239795 
L 194.562427 116.761211 
L 194.949381 114.858765 
L 195.336335 115.81653 
L 195.72329 107.044023 
L 196.110244 104.930646 
L 196.497198 95.590806 
L 196.884152 104.529375 
L 197.271106 89.970345 
L 197.65806 91.412347 
L 198.045015 86.481437 
L 198.431969 87.931968 
L 198.818923 92.650399 
L 199.205877 100.178515 
L 199.592831 110.427813 
L 199.979785 114.186432 
L 200.36674 126.954367 
L 200.753694 127.994547 
L 201.140648 123.181025 
L 201.914556 145.588117 
L 203.075419 156.267177 
L 203.849327 168.037177 
L 204.623235 173.881377 
L 205.01019 168.850022 
L 205.397144 172.061517 
L 205.784098 177.920165 
L 206.171052 175.663397 
L 206.558006 178.76026 
L 206.94496 179.173499 
L 207.331915 184.694184 
L 207.718869 185.070127 
L 208.105823 182.85244 
L 208.492777 170.671949 
L 208.879731 165.906872 
L 209.266685 158.705854 
L 209.65364 161.654515 
L 210.814502 163.110815 
L 211.201456 165.97512 
L 211.58841 166.433083 
L 211.975365 161.998943 
L 212.362319 162.473416 
L 212.749273 160.598785 
L 213.136227 168.50917 
L 213.910135 164.923937 
L 214.29709 156.077683 
L 215.070998 147.994602 
L 215.457952 146.264741 
L 215.844906 137.6381 
L 216.23186 131.504925 
L 216.618815 132.297546 
L 217.005769 130.676661 
L 217.392723 127.076296 
L 217.779677 118.945453 
L 218.166631 113.288404 
L 218.94054 107.160728 
L 220.101402 91.494774 
L 220.488356 90.895079 
L 220.87531 88.255208 
L 221.649219 71.972761 
L 222.036173 63.526119 
L 222.423127 59.490913 
L 222.810081 53.568 
L 223.197035 53.609693 
L 223.970944 58.058689 
L 224.357898 73.405405 
L 224.744852 76.991321 
L 225.51876 80.52935 
L 225.905715 80.548615 
L 226.292669 84.372325 
L 227.840485 114.890143 
L 228.22744 119.624557 
L 228.614394 120.93114 
L 229.001348 106.099079 
L 229.388302 105.514384 
L 229.775256 103.476007 
L 232.096981 159.627687 
L 232.483935 163.248288 
L 233.257844 155.53468 
L 234.031752 172.281962 
L 234.418706 186.378093 
L 234.80566 185.123106 
L 235.579569 201.724111 
L 235.966523 203.349124 
L 236.353477 206.416951 
L 236.740431 204.963812 
L 237.127385 199.325884 
L 237.51434 207.017057 
L 237.901294 220.321667 
L 238.288248 221.907736 
L 238.675202 220.565645 
L 239.062156 216.34026 
L 239.44911 216.495345 
L 239.836065 210.83994 
L 240.609973 195.334018 
L 240.996927 189.777553 
L 241.383881 187.03792 
L 241.770835 191.693332 
L 242.15779 194.720425 
L 242.544744 194.840418 
L 244.09256 195.667304 
L 244.866469 198.728806 
L 245.253423 205.849182 
L 245.640377 204.744328 
L 246.027331 202.214408 
L 246.414285 205.080642 
L 246.80124 205.175868 
L 247.188194 203.943727 
L 247.575148 206.781336 
L 248.349056 209.682659 
L 248.73601 209.852743 
L 249.509919 202.195418 
L 249.896873 199.690406 
L 250.283827 210.355287 
L 250.670781 224.734337 
L 251.057735 232.506011 
L 251.831644 230.047649 
L 252.605552 232.688479 
L 252.992506 230.182642 
L 253.37946 232.808337 
L 253.766415 236.694655 
L 254.153369 238.032067 
L 254.540323 235.58719 
L 254.927277 228.026603 
L 255.701185 203.731396 
L 256.08814 203.870795 
L 256.475094 202.797591 
L 256.862048 200.331247 
L 257.249002 195.358375 
L 257.635956 195.572908 
L 258.02291 194.430899 
L 258.409865 192.046572 
L 259.570727 200.212077 
L 259.957681 201.631641 
L 260.344635 199.423587 
L 261.118544 199.810813 
L 261.505498 197.536292 
L 261.892452 197.784815 
L 262.66636 195.73611 
L 263.053315 195.939357 
L 263.440269 193.659748 
L 263.827223 192.682731 
L 264.214177 190.420457 
L 264.601131 187.041634 
L 264.988085 185.095448 
L 265.37504 181.758875 
L 266.148948 184.694184 
L 266.535902 190.768743 
L 266.922856 193.337879 
L 267.30981 191.246103 
L 267.696765 190.312164 
L 268.083719 190.524492 
L 268.470673 182.840196 
L 268.857627 181.943815 
L 269.244581 182.299398 
L 269.631535 189.53344 
L 270.01849 194.297697 
L 270.405444 190.055938 
L 270.792398 188.051951 
L 271.179352 175.893895 
L 271.566306 169.466784 
L 271.95326 166.580872 
L 272.340215 169.115604 
L 272.727169 168.296015 
L 273.114123 176.661056 
L 273.501077 181.264862 
L 273.888031 188.026223 
L 274.274985 188.180618 
L 274.66194 185.085402 
L 275.435848 194.264397 
L 275.822802 202.086433 
L 276.209756 207.634229 
L 276.59671 215.170321 
L 276.983665 212.170607 
L 277.370619 213.35321 
L 277.757573 217.591803 
L 278.144527 215.577501 
L 278.531481 210.473354 
L 278.918435 210.570778 
L 279.30539 212.761907 
L 279.692344 212.884242 
L 280.079298 210.924569 
L 280.853206 213.187115 
L 281.24016 209.235295 
L 282.014069 213.544758 
L 282.401023 209.594178 
L 282.787977 209.691189 
L 283.174931 212.819567 
L 283.561885 210.934753 
L 283.94884 210.042916 
L 284.335794 213.116111 
L 284.722748 215.192336 
L 285.109702 215.275866 
L 285.496656 216.334207 
L 286.270565 216.601854 
L 286.657519 215.688 
L 287.044473 220.641606 
L 287.431427 219.750734 
L 287.818381 217.878443 
L 288.205335 221.833153 
L 288.59229 222.877594 
L 289.753152 214.455174 
L 290.140106 213.561136 
L 290.52706 218.45488 
L 291.300969 218.626753 
L 291.687923 214.864417 
L 292.074877 214.972028 
L 292.461831 216.014681 
L 292.848785 211.366565 
L 293.23574 211.454085 
L 293.622694 212.500455 
L 294.396602 218.350849 
L 294.783556 219.344929 
L 295.17051 216.605158 
L 295.557465 218.543223 
L 295.944419 219.531523 
L 296.331373 215.966794 
L 296.718327 216.98055 
L 297.105281 215.234445 
L 297.87919 215.466039 
L 298.266144 215.542685 
L 298.653098 214.691721 
L 299.040052 215.669561 
L 299.427006 213.023776 
L 299.81396 212.23501 
L 300.200915 209.603948 
L 300.587869 207.873805 
L 300.974823 212.561826 
L 301.361777 212.642741 
L 302.52264 223.574441 
L 302.909594 223.633335 
L 303.296548 224.568518 
L 303.683502 222.855714 
L 304.070456 223.828328 
L 304.45741 225.664428 
L 305.231319 231.016271 
L 305.618273 231.923518 
L 306.005227 234.550724 
L 306.392181 235.42426 
L 306.779135 234.575495 
L 307.16609 231.133097 
L 307.553044 232.03567 
L 307.939998 230.347633 
L 308.326952 232.118921 
L 308.713906 234.73512 
L 309.10086 233.91952 
L 309.487814 233.944838 
L 309.874769 232.256528 
L 310.261723 231.434322 
L 310.648677 231.434322 
L 311.035631 230.584869 
L 311.422585 222.978873 
L 311.809539 225.594934 
L 312.196494 227.320811 
L 312.583448 224.857496 
L 312.970402 223.209367 
L 313.357356 218.178563 
L 313.74431 219.106452 
L 314.518219 217.539651 
L 314.905173 215.935695 
L 315.679081 202.599022 
L 316.066035 212.895938 
L 316.452989 211.262947 
L 316.839944 202.973315 
L 317.226898 204.840101 
L 317.613852 208.252639 
L 318.000806 206.804866 
L 319.161669 207.086689 
L 319.548623 203.162389 
L 319.935577 205.80157 
L 320.322531 213.328026 
L 320.709485 210.083234 
L 321.096439 205.338242 
L 321.870348 216.919316 
L 322.257302 216.919316 
L 322.644256 218.698721 
L 323.03121 225.09074 
L 323.805119 232.301251 
L 324.192073 237.912484 
L 324.579027 238.731802 
L 325.352935 231.746416 
L 325.739889 237.294213 
L 326.126844 239.655702 
L 326.513798 234.201064 
L 326.900752 230.322587 
L 327.287706 233.507658 
L 327.67466 226.475488 
L 328.835523 216.4242 
L 329.222477 211.076626 
L 329.609431 212.739755 
L 329.996385 224.437518 
L 330.383339 228.304021 
L 330.770294 227.552269 
L 331.157248 226.082891 
L 331.931156 221.641464 
L 332.31811 226.270315 
L 332.705064 227.833128 
L 333.092019 226.36306 
L 333.478973 226.485671 
L 333.865927 231.134612 
L 334.252881 230.424143 
L 335.026789 214.493566 
L 335.413744 210.779393 
L 335.800698 213.918089 
L 336.187652 219.314378 
L 336.574606 219.428042 
L 336.96156 210.459591 
L 337.348514 204.532688 
L 337.735469 208.376073 
L 338.122423 215.221371 
L 338.896331 210.240383 
L 339.283285 208.108151 
L 339.670239 214.885333 
L 340.057194 219.402448 
L 340.831102 204.184402 
L 341.218056 189.117727 
L 341.60501 194.508235 
L 341.991964 208.42795 
L 342.378919 208.42795 
L 342.765873 199.067322 
L 343.152827 204.303844 
L 343.539781 207.335756 
L 343.926735 204.639745 
L 344.313689 199.638668 
L 344.700644 196.825278 
L 345.087598 197.885542 
L 345.474552 200.336339 
L 345.861506 226.68135 
L 346.24846 235.016805 
L 347.022369 219.63707 
L 347.409323 225.804789 
L 348.183231 215.863589 
L 348.570185 218.6884 
L 348.957139 217.078804 
L 349.344094 217.314387 
L 350.118002 228.25861 
L 350.89191 204.682956 
L 351.278864 194.189397 
L 351.665819 197.828574 
L 352.052773 195.27058 
L 352.826681 199.671279 
L 353.213635 200.650222 
L 353.600589 198.109295 
L 353.987544 186.44621 
L 354.374498 178.71898 
L 354.761452 181.326508 
L 355.148406 186.207458 
L 355.53536 203.026707 
L 355.922314 239.233243 
L 356.309269 254.674903 
L 356.696223 255.932086 
L 357.083177 254.252582 
L 357.470131 260.512909 
L 357.857085 262.29961 
L 358.244039 268.346651 
L 358.630994 271.283337 
L 359.017948 281.323063 
L 359.404902 274.78779 
L 359.791856 273.330526 
L 360.17881 257.451 
L 360.565764 228.02275 
L 360.952719 215.644515 
L 361.339673 218.300485 
L 361.726627 224.764885 
L 362.113581 222.909519 
L 362.500535 224.002126 
L 362.887489 226.79859 
L 363.274444 238.935462 
L 363.661398 235.918822 
L 364.048352 238.541625 
L 364.435306 238.980183 
L 364.82226 238.314297 
L 365.209214 239.444882 
L 366.370077 225.128719 
L 367.143985 212.023918 
L 367.530939 206.770877 
L 367.917894 206.174348 
L 368.304848 205.107062 
L 368.691802 202.697273 
L 369.078756 201.90438 
L 369.46571 205.899821 
L 369.852664 206.874633 
L 370.239619 212.232533 
L 370.626573 212.965981 
L 371.013527 214.487785 
L 371.787435 223.088547 
L 372.174389 230.453592 
L 372.561344 231.61046 
L 372.948298 234.862957 
L 374.10916 224.705164 
L 374.496114 229.654365 
L 374.883069 230.156907 
L 375.270023 231.195022 
L 375.656977 226.59782 
L 376.430885 238.698088 
L 376.817839 235.236148 
L 377.204794 230.758392 
L 377.591748 228.423463 
L 378.75261 242.303548 
L 379.526519 233.551142 
L 379.913473 232.582519 
L 380.300427 239.098112 
L 381.074335 226.668965 
L 381.461289 224.852818 
L 381.848244 226.290407 
L 382.235198 227.278703 
L 382.622152 230.891735 
L 383.009106 231.3424 
L 383.39606 232.120299 
L 383.783014 237.075418 
L 384.169969 245.276015 
L 384.556923 257.356876 
L 385.330831 254.369003 
L 385.717785 256.103132 
L 386.491694 251.874306 
L 386.878648 251.42543 
L 387.265602 251.181448 
L 387.652556 254.282031 
L 388.03951 252.531937 
L 388.813419 245.300782 
L 389.200373 235.887447 
L 389.587327 241.162368 
L 389.974281 242.320198 
L 390.361235 238.764964 
L 390.748189 239.925963 
L 391.135144 240.145995 
L 391.522098 242.429183 
L 391.909052 239.451214 
L 392.296006 233.79746 
L 392.68296 231.78013 
L 393.069914 231.196674 
L 393.843823 219.456802 
L 394.230777 216.307511 
L 394.617731 221.444408 
L 395.004685 224.156108 
L 395.391639 228.667993 
L 395.778594 231.682156 
L 396.165548 230.419603 
L 396.552502 227.524609 
L 396.939456 223.680674 
L 397.32641 226.376824 
L 397.713364 224.071342 
L 398.100319 225.315316 
L 398.487273 224.950242 
L 398.487273 224.950242 
" style="fill:none;opacity:0.6;stroke:#1f77b4;stroke-linecap:square;stroke-width:0.5;"/>
   </g>
   <g id="line2d_15">
    <path clip-path="url(#p2acd80c71f)" d="M 389.587327 240.010385 
L 389.974281 239.444433 
L 390.361235 242.016046 
L 390.748189 237.536397 
L 391.135144 229.239084 
L 391.522098 236.9982 
L 391.909052 232.471313 
L 392.296006 231.418225 
L 392.68296 218.441016 
L 393.456869 208.949174 
L 393.843823 214.838486 
L 394.230777 218.832369 
L 394.617731 218.106713 
L 395.004685 232.594969 
L 395.391639 238.96662 
L 395.778594 220.75674 
L 396.165548 213.008372 
L 396.552502 212.923268 
L 396.939456 215.572377 
L 397.32641 214.235142 
L 397.713364 226.123629 
L 398.487273 233.034222 
L 398.487273 233.034222 
" style="fill:none;opacity:0.8;stroke:#ff7f0e;stroke-linecap:square;stroke-width:0.5;"/>
   </g>
   <g id="patch_3">
    <path d="M 57.6 307.584 
L 57.6 41.472 
" style="fill:none;stroke:#000000;stroke-linecap:square;stroke-linejoin:miter;stroke-width:0.8;"/>
   </g>
   <g id="patch_4">
    <path d="M 414.72 307.584 
L 414.72 41.472 
" style="fill:none;stroke:#000000;stroke-linecap:square;stroke-linejoin:miter;stroke-width:0.8;"/>
   </g>
   <g id="patch_5">
    <path d="M 57.6 307.584 
L 414.72 307.584 
" style="fill:none;stroke:#000000;stroke-linecap:square;stroke-linejoin:miter;stroke-width:0.8;"/>
   </g>
   <g id="patch_6">
    <path d="M 57.6 41.472 
L 414.72 41.472 
" style="fill:none;stroke:#000000;stroke-linecap:square;stroke-linejoin:miter;stroke-width:0.8;"/>
   </g>
  </g>
 </g>
 <defs>
  <clipPath id="p2acd80c71f">
   <rect height="266.112" width="357.12" x="57.6" y="41.472"/>
  </clipPath>
 </defs>
</svg>
