<?xml version="1.0" encoding="utf-8" standalone="no"?>
<!DOCTYPE svg PUBLIC "-//W3C//DTD SVG 1.1//EN"
  "http://www.w3.org/Graphics/SVG/1.1/DTD/svg11.dtd">
<!-- Created with matplotlib (http://matplotlib.org/) -->
<svg height="345.6pt" version="1.1" viewBox="0 0 460.8 345.6" width="460.8pt" xmlns="http://www.w3.org/2000/svg" xmlns:xlink="http://www.w3.org/1999/xlink">
 <defs>
  <style type="text/css">
*{stroke-linecap:butt;stroke-linejoin:round;}
  </style>
 </defs>
 <g id="figure_1">
  <g id="patch_1">
   <path d="M 0 345.6 
L 460.8 345.6 
L 460.8 0 
L 0 0 
z
" style="fill:#ffffff;"/>
  </g>
  <g id="axes_1">
   <g id="patch_2">
    <path d="M 57.6 307.584 
L 414.72 307.584 
L 414.72 41.472 
L 57.6 41.472 
z
" style="fill:#ffffff;"/>
   </g>
   <g id="matplotlib.axis_1">
    <g id="xtick_1">
     <g id="line2d_1">
      <defs>
       <path d="M 0 0 
L 0 3.5 
" id="me8bc05938e" style="stroke:#000000;stroke-width:0.8;"/>
      </defs>
      <g>
       <use style="stroke:#000000;stroke-width:0.8;" x="73.832727" xlink:href="#me8bc05938e" y="307.584"/>
      </g>
     </g>
     <g id="text_1">
      <!-- 0 -->
      <defs>
       <path d="M 31.78125 66.40625 
Q 24.171875 66.40625 20.328125 58.90625 
Q 16.5 51.421875 16.5 36.375 
Q 16.5 21.390625 20.328125 13.890625 
Q 24.171875 6.390625 31.78125 6.390625 
Q 39.453125 6.390625 43.28125 13.890625 
Q 47.125 21.390625 47.125 36.375 
Q 47.125 51.421875 43.28125 58.90625 
Q 39.453125 66.40625 31.78125 66.40625 
z
M 31.78125 74.21875 
Q 44.046875 74.21875 50.515625 64.515625 
Q 56.984375 54.828125 56.984375 36.375 
Q 56.984375 17.96875 50.515625 8.265625 
Q 44.046875 -1.421875 31.78125 -1.421875 
Q 19.53125 -1.421875 13.0625 8.265625 
Q 6.59375 17.96875 6.59375 36.375 
Q 6.59375 54.828125 13.0625 64.515625 
Q 19.53125 74.21875 31.78125 74.21875 
z
" id="DejaVuSans-30"/>
      </defs>
      <g transform="translate(70.651477 322.182437)scale(0.1 -0.1)">
       <use xlink:href="#DejaVuSans-30"/>
      </g>
     </g>
    </g>
    <g id="xtick_2">
     <g id="line2d_2">
      <g>
       <use style="stroke:#000000;stroke-width:0.8;" x="113.667641" xlink:href="#me8bc05938e" y="307.584"/>
      </g>
     </g>
     <g id="text_2">
      <!-- 100 -->
      <defs>
       <path d="M 12.40625 8.296875 
L 28.515625 8.296875 
L 28.515625 63.921875 
L 10.984375 60.40625 
L 10.984375 69.390625 
L 28.421875 72.90625 
L 38.28125 72.90625 
L 38.28125 8.296875 
L 54.390625 8.296875 
L 54.390625 0 
L 12.40625 0 
z
" id="DejaVuSans-31"/>
      </defs>
      <g transform="translate(104.123891 322.182437)scale(0.1 -0.1)">
       <use xlink:href="#DejaVuSans-31"/>
       <use x="63.623047" xlink:href="#DejaVuSans-30"/>
       <use x="127.246094" xlink:href="#DejaVuSans-30"/>
      </g>
     </g>
    </g>
    <g id="xtick_3">
     <g id="line2d_3">
      <g>
       <use style="stroke:#000000;stroke-width:0.8;" x="153.502554" xlink:href="#me8bc05938e" y="307.584"/>
      </g>
     </g>
     <g id="text_3">
      <!-- 200 -->
      <defs>
       <path d="M 19.1875 8.296875 
L 53.609375 8.296875 
L 53.609375 0 
L 7.328125 0 
L 7.328125 8.296875 
Q 12.9375 14.109375 22.625 23.890625 
Q 32.328125 33.6875 34.8125 36.53125 
Q 39.546875 41.84375 41.421875 45.53125 
Q 43.3125 49.21875 43.3125 52.78125 
Q 43.3125 58.59375 39.234375 62.25 
Q 35.15625 65.921875 28.609375 65.921875 
Q 23.96875 65.921875 18.8125 64.3125 
Q 13.671875 62.703125 7.8125 59.421875 
L 7.8125 69.390625 
Q 13.765625 71.78125 18.9375 73 
Q 24.125 74.21875 28.421875 74.21875 
Q 39.75 74.21875 46.484375 68.546875 
Q 53.21875 62.890625 53.21875 53.421875 
Q 53.21875 48.921875 51.53125 44.890625 
Q 49.859375 40.875 45.40625 35.40625 
Q 44.1875 33.984375 37.640625 27.21875 
Q 31.109375 20.453125 19.1875 8.296875 
z
" id="DejaVuSans-32"/>
      </defs>
      <g transform="translate(143.958804 322.182437)scale(0.1 -0.1)">
       <use xlink:href="#DejaVuSans-32"/>
       <use x="63.623047" xlink:href="#DejaVuSans-30"/>
       <use x="127.246094" xlink:href="#DejaVuSans-30"/>
      </g>
     </g>
    </g>
    <g id="xtick_4">
     <g id="line2d_4">
      <g>
       <use style="stroke:#000000;stroke-width:0.8;" x="193.337468" xlink:href="#me8bc05938e" y="307.584"/>
      </g>
     </g>
     <g id="text_4">
      <!-- 300 -->
      <defs>
       <path d="M 40.578125 39.3125 
Q 47.65625 37.796875 51.625 33 
Q 55.609375 28.21875 55.609375 21.1875 
Q 55.609375 10.40625 48.1875 4.484375 
Q 40.765625 -1.421875 27.09375 -1.421875 
Q 22.515625 -1.421875 17.65625 -0.515625 
Q 12.796875 0.390625 7.625 2.203125 
L 7.625 11.71875 
Q 11.71875 9.328125 16.59375 8.109375 
Q 21.484375 6.890625 26.8125 6.890625 
Q 36.078125 6.890625 40.9375 10.546875 
Q 45.796875 14.203125 45.796875 21.1875 
Q 45.796875 27.640625 41.28125 31.265625 
Q 36.765625 34.90625 28.71875 34.90625 
L 20.21875 34.90625 
L 20.21875 43.015625 
L 29.109375 43.015625 
Q 36.375 43.015625 40.234375 45.921875 
Q 44.09375 48.828125 44.09375 54.296875 
Q 44.09375 59.90625 40.109375 62.90625 
Q 36.140625 65.921875 28.71875 65.921875 
Q 24.65625 65.921875 20.015625 65.03125 
Q 15.375 64.15625 9.8125 62.3125 
L 9.8125 71.09375 
Q 15.4375 72.65625 20.34375 73.4375 
Q 25.25 74.21875 29.59375 74.21875 
Q 40.828125 74.21875 47.359375 69.109375 
Q 53.90625 64.015625 53.90625 55.328125 
Q 53.90625 49.265625 50.4375 45.09375 
Q 46.96875 40.921875 40.578125 39.3125 
z
" id="DejaVuSans-33"/>
      </defs>
      <g transform="translate(183.793718 322.182437)scale(0.1 -0.1)">
       <use xlink:href="#DejaVuSans-33"/>
       <use x="63.623047" xlink:href="#DejaVuSans-30"/>
       <use x="127.246094" xlink:href="#DejaVuSans-30"/>
      </g>
     </g>
    </g>
    <g id="xtick_5">
     <g id="line2d_5">
      <g>
       <use style="stroke:#000000;stroke-width:0.8;" x="233.172381" xlink:href="#me8bc05938e" y="307.584"/>
      </g>
     </g>
     <g id="text_5">
      <!-- 400 -->
      <defs>
       <path d="M 37.796875 64.3125 
L 12.890625 25.390625 
L 37.796875 25.390625 
z
M 35.203125 72.90625 
L 47.609375 72.90625 
L 47.609375 25.390625 
L 58.015625 25.390625 
L 58.015625 17.1875 
L 47.609375 17.1875 
L 47.609375 0 
L 37.796875 0 
L 37.796875 17.1875 
L 4.890625 17.1875 
L 4.890625 26.703125 
z
" id="DejaVuSans-34"/>
      </defs>
      <g transform="translate(223.628631 322.182437)scale(0.1 -0.1)">
       <use xlink:href="#DejaVuSans-34"/>
       <use x="63.623047" xlink:href="#DejaVuSans-30"/>
       <use x="127.246094" xlink:href="#DejaVuSans-30"/>
      </g>
     </g>
    </g>
    <g id="xtick_6">
     <g id="line2d_6">
      <g>
       <use style="stroke:#000000;stroke-width:0.8;" x="273.007295" xlink:href="#me8bc05938e" y="307.584"/>
      </g>
     </g>
     <g id="text_6">
      <!-- 500 -->
      <defs>
       <path d="M 10.796875 72.90625 
L 49.515625 72.90625 
L 49.515625 64.59375 
L 19.828125 64.59375 
L 19.828125 46.734375 
Q 21.96875 47.46875 24.109375 47.828125 
Q 26.265625 48.1875 28.421875 48.1875 
Q 40.625 48.1875 47.75 41.5 
Q 54.890625 34.8125 54.890625 23.390625 
Q 54.890625 11.625 47.5625 5.09375 
Q 40.234375 -1.421875 26.90625 -1.421875 
Q 22.3125 -1.421875 17.546875 -0.640625 
Q 12.796875 0.140625 7.71875 1.703125 
L 7.71875 11.625 
Q 12.109375 9.234375 16.796875 8.0625 
Q 21.484375 6.890625 26.703125 6.890625 
Q 35.15625 6.890625 40.078125 11.328125 
Q 45.015625 15.765625 45.015625 23.390625 
Q 45.015625 31 40.078125 35.4375 
Q 35.15625 39.890625 26.703125 39.890625 
Q 22.75 39.890625 18.8125 39.015625 
Q 14.890625 38.140625 10.796875 36.28125 
z
" id="DejaVuSans-35"/>
      </defs>
      <g transform="translate(263.463545 322.182437)scale(0.1 -0.1)">
       <use xlink:href="#DejaVuSans-35"/>
       <use x="63.623047" xlink:href="#DejaVuSans-30"/>
       <use x="127.246094" xlink:href="#DejaVuSans-30"/>
      </g>
     </g>
    </g>
    <g id="xtick_7">
     <g id="line2d_7">
      <g>
       <use style="stroke:#000000;stroke-width:0.8;" x="312.842209" xlink:href="#me8bc05938e" y="307.584"/>
      </g>
     </g>
     <g id="text_7">
      <!-- 600 -->
      <defs>
       <path d="M 33.015625 40.375 
Q 26.375 40.375 22.484375 35.828125 
Q 18.609375 31.296875 18.609375 23.390625 
Q 18.609375 15.53125 22.484375 10.953125 
Q 26.375 6.390625 33.015625 6.390625 
Q 39.65625 6.390625 43.53125 10.953125 
Q 47.40625 15.53125 47.40625 23.390625 
Q 47.40625 31.296875 43.53125 35.828125 
Q 39.65625 40.375 33.015625 40.375 
z
M 52.59375 71.296875 
L 52.59375 62.3125 
Q 48.875 64.0625 45.09375 64.984375 
Q 41.3125 65.921875 37.59375 65.921875 
Q 27.828125 65.921875 22.671875 59.328125 
Q 17.53125 52.734375 16.796875 39.40625 
Q 19.671875 43.65625 24.015625 45.921875 
Q 28.375 48.1875 33.59375 48.1875 
Q 44.578125 48.1875 50.953125 41.515625 
Q 57.328125 34.859375 57.328125 23.390625 
Q 57.328125 12.15625 50.6875 5.359375 
Q 44.046875 -1.421875 33.015625 -1.421875 
Q 20.359375 -1.421875 13.671875 8.265625 
Q 6.984375 17.96875 6.984375 36.375 
Q 6.984375 53.65625 15.1875 63.9375 
Q 23.390625 74.21875 37.203125 74.21875 
Q 40.921875 74.21875 44.703125 73.484375 
Q 48.484375 72.75 52.59375 71.296875 
z
" id="DejaVuSans-36"/>
      </defs>
      <g transform="translate(303.298459 322.182437)scale(0.1 -0.1)">
       <use xlink:href="#DejaVuSans-36"/>
       <use x="63.623047" xlink:href="#DejaVuSans-30"/>
       <use x="127.246094" xlink:href="#DejaVuSans-30"/>
      </g>
     </g>
    </g>
    <g id="xtick_8">
     <g id="line2d_8">
      <g>
       <use style="stroke:#000000;stroke-width:0.8;" x="352.677122" xlink:href="#me8bc05938e" y="307.584"/>
      </g>
     </g>
     <g id="text_8">
      <!-- 700 -->
      <defs>
       <path d="M 8.203125 72.90625 
L 55.078125 72.90625 
L 55.078125 68.703125 
L 28.609375 0 
L 18.3125 0 
L 43.21875 64.59375 
L 8.203125 64.59375 
z
" id="DejaVuSans-37"/>
      </defs>
      <g transform="translate(343.133372 322.182437)scale(0.1 -0.1)">
       <use xlink:href="#DejaVuSans-37"/>
       <use x="63.623047" xlink:href="#DejaVuSans-30"/>
       <use x="127.246094" xlink:href="#DejaVuSans-30"/>
      </g>
     </g>
    </g>
    <g id="xtick_9">
     <g id="line2d_9">
      <g>
       <use style="stroke:#000000;stroke-width:0.8;" x="392.512036" xlink:href="#me8bc05938e" y="307.584"/>
      </g>
     </g>
     <g id="text_9">
      <!-- 800 -->
      <defs>
       <path d="M 31.78125 34.625 
Q 24.75 34.625 20.71875 30.859375 
Q 16.703125 27.09375 16.703125 20.515625 
Q 16.703125 13.921875 20.71875 10.15625 
Q 24.75 6.390625 31.78125 6.390625 
Q 38.8125 6.390625 42.859375 10.171875 
Q 46.921875 13.96875 46.921875 20.515625 
Q 46.921875 27.09375 42.890625 30.859375 
Q 38.875 34.625 31.78125 34.625 
z
M 21.921875 38.8125 
Q 15.578125 40.375 12.03125 44.71875 
Q 8.5 49.078125 8.5 55.328125 
Q 8.5 64.0625 14.71875 69.140625 
Q 20.953125 74.21875 31.78125 74.21875 
Q 42.671875 74.21875 48.875 69.140625 
Q 55.078125 64.0625 55.078125 55.328125 
Q 55.078125 49.078125 51.53125 44.71875 
Q 48 40.375 41.703125 38.8125 
Q 48.828125 37.15625 52.796875 32.3125 
Q 56.78125 27.484375 56.78125 20.515625 
Q 56.78125 9.90625 50.3125 4.234375 
Q 43.84375 -1.421875 31.78125 -1.421875 
Q 19.734375 -1.421875 13.25 4.234375 
Q 6.78125 9.90625 6.78125 20.515625 
Q 6.78125 27.484375 10.78125 32.3125 
Q 14.796875 37.15625 21.921875 38.8125 
z
M 18.3125 54.390625 
Q 18.3125 48.734375 21.84375 45.5625 
Q 25.390625 42.390625 31.78125 42.390625 
Q 38.140625 42.390625 41.71875 45.5625 
Q 45.3125 48.734375 45.3125 54.390625 
Q 45.3125 60.0625 41.71875 63.234375 
Q 38.140625 66.40625 31.78125 66.40625 
Q 25.390625 66.40625 21.84375 63.234375 
Q 18.3125 60.0625 18.3125 54.390625 
z
" id="DejaVuSans-38"/>
      </defs>
      <g transform="translate(382.968286 322.182437)scale(0.1 -0.1)">
       <use xlink:href="#DejaVuSans-38"/>
       <use x="63.623047" xlink:href="#DejaVuSans-30"/>
       <use x="127.246094" xlink:href="#DejaVuSans-30"/>
      </g>
     </g>
    </g>
   </g>
   <g id="matplotlib.axis_2">
    <g id="ytick_1">
     <g id="line2d_10">
      <defs>
       <path d="M 0 0 
L -3.5 0 
" id="maba1dc88e6" style="stroke:#000000;stroke-width:0.8;"/>
      </defs>
      <g>
       <use style="stroke:#000000;stroke-width:0.8;" x="57.6" xlink:href="#maba1dc88e6" y="288.770946"/>
      </g>
     </g>
     <g id="text_10">
      <!-- −2.5 -->
      <defs>
       <path d="M 10.59375 35.5 
L 73.1875 35.5 
L 73.1875 27.203125 
L 10.59375 27.203125 
z
" id="DejaVuSans-2212"/>
       <path d="M 10.6875 12.40625 
L 21 12.40625 
L 21 0 
L 10.6875 0 
z
" id="DejaVuSans-2e"/>
      </defs>
      <g transform="translate(26.317187 292.570165)scale(0.1 -0.1)">
       <use xlink:href="#DejaVuSans-2212"/>
       <use x="83.789062" xlink:href="#DejaVuSans-32"/>
       <use x="147.412109" xlink:href="#DejaVuSans-2e"/>
       <use x="179.199219" xlink:href="#DejaVuSans-35"/>
      </g>
     </g>
    </g>
    <g id="ytick_2">
     <g id="line2d_11">
      <g>
       <use style="stroke:#000000;stroke-width:0.8;" x="57.6" xlink:href="#maba1dc88e6" y="254.368999"/>
      </g>
     </g>
     <g id="text_11">
      <!-- 0.0 -->
      <g transform="translate(34.696875 258.168218)scale(0.1 -0.1)">
       <use xlink:href="#DejaVuSans-30"/>
       <use x="63.623047" xlink:href="#DejaVuSans-2e"/>
       <use x="95.410156" xlink:href="#DejaVuSans-30"/>
      </g>
     </g>
    </g>
    <g id="ytick_3">
     <g id="line2d_12">
      <g>
       <use style="stroke:#000000;stroke-width:0.8;" x="57.6" xlink:href="#maba1dc88e6" y="219.967052"/>
      </g>
     </g>
     <g id="text_12">
      <!-- 2.5 -->
      <g transform="translate(34.696875 223.766271)scale(0.1 -0.1)">
       <use xlink:href="#DejaVuSans-32"/>
       <use x="63.623047" xlink:href="#DejaVuSans-2e"/>
       <use x="95.410156" xlink:href="#DejaVuSans-35"/>
      </g>
     </g>
    </g>
    <g id="ytick_4">
     <g id="line2d_13">
      <g>
       <use style="stroke:#000000;stroke-width:0.8;" x="57.6" xlink:href="#maba1dc88e6" y="185.565105"/>
      </g>
     </g>
     <g id="text_13">
      <!-- 5.0 -->
      <g transform="translate(34.696875 189.364324)scale(0.1 -0.1)">
       <use xlink:href="#DejaVuSans-35"/>
       <use x="63.623047" xlink:href="#DejaVuSans-2e"/>
       <use x="95.410156" xlink:href="#DejaVuSans-30"/>
      </g>
     </g>
    </g>
    <g id="ytick_5">
     <g id="line2d_14">
      <g>
       <use style="stroke:#000000;stroke-width:0.8;" x="57.6" xlink:href="#maba1dc88e6" y="151.163158"/>
      </g>
     </g>
     <g id="text_14">
      <!-- 7.5 -->
      <g transform="translate(34.696875 154.962376)scale(0.1 -0.1)">
       <use xlink:href="#DejaVuSans-37"/>
       <use x="63.623047" xlink:href="#DejaVuSans-2e"/>
       <use x="95.410156" xlink:href="#DejaVuSans-35"/>
      </g>
     </g>
    </g>
    <g id="ytick_6">
     <g id="line2d_15">
      <g>
       <use style="stroke:#000000;stroke-width:0.8;" x="57.6" xlink:href="#maba1dc88e6" y="116.761211"/>
      </g>
     </g>
     <g id="text_15">
      <!-- 10.0 -->
      <g transform="translate(28.334375 120.560429)scale(0.1 -0.1)">
       <use xlink:href="#DejaVuSans-31"/>
       <use x="63.623047" xlink:href="#DejaVuSans-30"/>
       <use x="127.246094" xlink:href="#DejaVuSans-2e"/>
       <use x="159.033203" xlink:href="#DejaVuSans-30"/>
      </g>
     </g>
    </g>
    <g id="ytick_7">
     <g id="line2d_16">
      <g>
       <use style="stroke:#000000;stroke-width:0.8;" x="57.6" xlink:href="#maba1dc88e6" y="82.359263"/>
      </g>
     </g>
     <g id="text_16">
      <!-- 12.5 -->
      <g transform="translate(28.334375 86.158482)scale(0.1 -0.1)">
       <use xlink:href="#DejaVuSans-31"/>
       <use x="63.623047" xlink:href="#DejaVuSans-32"/>
       <use x="127.246094" xlink:href="#DejaVuSans-2e"/>
       <use x="159.033203" xlink:href="#DejaVuSans-35"/>
      </g>
     </g>
    </g>
    <g id="ytick_8">
     <g id="line2d_17">
      <g>
       <use style="stroke:#000000;stroke-width:0.8;" x="57.6" xlink:href="#maba1dc88e6" y="47.957316"/>
      </g>
     </g>
     <g id="text_17">
      <!-- 15.0 -->
      <g transform="translate(28.334375 51.756535)scale(0.1 -0.1)">
       <use xlink:href="#DejaVuSans-31"/>
       <use x="63.623047" xlink:href="#DejaVuSans-35"/>
       <use x="127.246094" xlink:href="#DejaVuSans-2e"/>
       <use x="159.033203" xlink:href="#DejaVuSans-30"/>
      </g>
     </g>
    </g>
   </g>
   <g id="line2d_18">
    <path clip-path="url(#p843ef689d2)" d="M 73.832727 123.88984 
L 74.231076 160.545531 
L 75.027775 125.224493 
L 75.426124 125.361697 
L 75.824473 120.042049 
L 76.222822 129.661941 
L 76.621171 162.791151 
L 77.01952 170.27867 
L 77.417869 188.72788 
L 77.816219 216.748818 
L 78.214568 235.192254 
L 78.612917 240.416394 
L 79.011266 230.360845 
L 79.409615 248.591948 
L 79.807964 260.10023 
L 80.206313 267.474489 
L 80.604663 293.84661 
L 81.003012 295.488 
L 81.401361 288.827498 
L 81.79971 290.596447 
L 82.198059 280.569109 
L 82.596408 279.544619 
L 82.994757 283.025404 
L 83.393107 271.634786 
L 83.791456 269.908087 
L 84.189805 269.901617 
L 84.986503 256.670075 
L 85.384852 232.885948 
L 85.783201 225.337885 
L 86.18155 220.184335 
L 86.5799 206.116139 
L 86.978249 202.112853 
L 88.173296 124.979153 
L 88.571645 123.979158 
L 88.969994 122.288771 
L 89.368344 125.850199 
L 90.165042 149.176513 
L 90.563391 159.976938 
L 90.96174 158.823787 
L 91.360089 161.132707 
L 91.758438 158.155423 
L 92.156788 172.28912 
L 92.953486 223.469858 
L 93.351835 227.251595 
L 93.750184 225.700757 
L 94.148533 228.954767 
L 94.546882 222.527658 
L 94.945231 213.474305 
L 95.343581 210.202542 
L 95.74193 222.64999 
L 96.140279 226.489799 
L 96.936977 241.89224 
L 97.335326 244.484082 
L 97.733675 244.990202 
L 98.132025 241.854396 
L 98.530374 242.407579 
L 98.928723 242.41212 
L 99.327072 241.920449 
L 99.725421 248.695566 
L 100.12377 246.119689 
L 100.522119 240.9338 
L 100.920468 240.963937 
L 101.318818 246.119689 
L 101.717167 246.12588 
L 102.115516 238.872575 
L 102.513865 233.668386 
L 102.912214 238.866794 
L 103.310563 245.604209 
L 103.708912 242.51519 
L 104.107262 245.630354 
L 104.505611 250.773448 
L 105.302309 258.462967 
L 105.700658 266.112861 
L 106.099007 257.956572 
L 106.497356 259.49021 
L 106.895706 263.052461 
L 107.294055 263.036366 
L 107.692404 261.522816 
L 108.090753 257.955194 
L 108.887451 266.117264 
L 109.2858 259.492133 
L 109.684149 261.031558 
L 110.082499 252.315892 
L 110.480848 249.219029 
L 111.277546 249.228661 
L 111.675895 251.284797 
L 112.074244 252.316718 
L 112.472593 249.232513 
L 112.870943 247.177889 
L 113.269292 241.00398 
L 113.667641 231.700593 
L 114.06599 227.114814 
L 114.464339 223.984098 
L 114.862688 228.743677 
L 115.261037 218.966505 
L 115.659387 222.117174 
L 116.057736 215.4476 
L 116.854434 206.211365 
L 117.651132 203.270686 
L 118.049481 204.986932 
L 118.44783 205.712125 
L 118.84618 208.987189 
L 119.244529 205.493327 
L 119.642878 205.564747 
L 120.041227 213.852037 
L 120.439576 209.350062 
L 120.837925 212.533893 
L 121.236274 206.129213 
L 121.634624 209.819715 
L 122.032973 204.482462 
L 122.431322 204.607547 
L 122.829671 208.172137 
L 123.22802 215.206374 
L 123.626369 220.198921 
L 124.024718 222.254092 
L 124.423067 225.700757 
L 124.821417 225.700757 
L 125.618115 230.201907 
L 126.016464 236.59145 
L 126.414813 239.984857 
L 126.813162 249.602541 
L 127.211511 252.466983 
L 127.609861 249.614099 
L 128.00821 244.849294 
L 128.406559 241.98471 
L 128.804908 242.957186 
L 129.601606 233.425644 
L 129.999955 235.355868 
L 130.398305 233.46899 
L 130.796654 237.292563 
L 131.195003 234.914148 
L 131.593352 233.46899 
L 131.991701 227.778084 
L 132.788399 230.733212 
L 133.186748 235.486321 
L 133.585098 234.090976 
L 133.983447 237.432647 
L 134.780145 234.208357 
L 135.178494 235.653239 
L 135.576843 232.348037 
L 135.975192 234.249502 
L 136.373542 234.249502 
L 136.771891 241.791509 
L 137.17024 241.80417 
L 137.568589 243.680179 
L 137.966938 237.138853 
L 138.365287 239.032748 
L 138.763636 237.173803 
L 139.161985 243.730405 
L 139.560335 245.127397 
L 140.357033 245.145976 
L 141.55208 235.904373 
L 141.950429 235.922949 
L 142.348779 237.306322 
L 142.747128 240.571478 
L 143.145477 238.742261 
L 143.543826 234.17299 
L 143.942175 236.009091 
L 144.340524 236.009091 
L 144.738873 237.403061 
L 145.137223 236.045698 
L 145.933921 238.861289 
L 146.33227 242.070442 
L 146.730619 242.082551 
L 147.128968 236.148903 
L 147.527317 232.967409 
L 147.925666 233.009791 
L 148.324016 240.798256 
L 148.722365 237.609608 
L 149.120714 236.25073 
L 149.519063 231.721234 
L 149.917412 231.765817 
L 150.315761 234.955841 
L 150.71411 234.974971 
L 151.11246 233.150015 
L 151.510809 233.170793 
L 152.307507 239.572447 
L 152.705856 240.943846 
L 153.104205 238.243018 
L 153.502554 237.81134 
L 153.900904 235.145052 
L 154.299253 237.880972 
L 154.697602 239.247278 
L 155.095951 237.897071 
L 155.4943 237.913032 
L 156.290998 232.159928 
L 156.689347 227.743817 
L 157.087697 229.526803 
L 157.486046 232.20988 
L 157.884395 230.460334 
L 158.282744 230.933291 
L 158.681093 230.559963 
L 159.079442 227.948304 
L 159.477791 227.973624 
L 159.876141 219.175258 
L 160.27449 216.132473 
L 160.672839 214.902124 
L 161.071188 216.338886 
L 161.469537 220.848567 
L 161.867886 216.459292 
L 162.266235 206.39163 
L 162.664584 205.192242 
L 163.062934 202.195418 
L 163.859632 208.139664 
L 164.257981 210.341386 
L 165.054679 219.304194 
L 165.453028 219.412904 
L 165.851378 222.466149 
L 166.249727 215.271049 
L 166.648076 214.083217 
L 167.046425 218.544601 
L 167.843123 218.76271 
L 168.241472 211.680448 
L 168.639822 209.224288 
L 169.038171 204.17766 
L 169.43652 204.329854 
L 169.834869 200.159925 
L 170.233218 200.323678 
L 170.631567 196.166272 
L 171.029916 196.515936 
L 171.428265 192.569063 
L 172.224964 192.93689 
L 172.623313 189.035988 
L 173.021662 193.480582 
L 173.420011 189.612423 
L 174.216709 189.991122 
L 174.615059 182.155048 
L 175.013408 178.364638 
L 175.411757 178.584952 
L 176.208455 179.453531 
L 176.606804 179.667651 
L 177.005153 175.959944 
L 177.403503 176.404279 
L 177.801852 172.737307 
L 178.200201 173.195816 
L 178.996899 165.961773 
L 179.395248 170.508334 
L 179.793597 170.970288 
L 180.191946 171.199401 
L 180.590296 171.65392 
L 180.988645 175.842838 
L 181.386994 176.05558 
L 182.98039 177.717469 
L 183.37874 181.752819 
L 183.777089 189.357437 
L 184.573787 197.181405 
L 184.972136 193.764465 
L 185.370485 194.07697 
L 186.167183 194.386175 
L 187.76058 209.421754 
L 188.158929 209.534316 
L 188.557278 202.636729 
L 188.955627 206.206273 
L 189.353977 206.326404 
L 190.150675 213.596362 
L 190.947373 213.796719 
L 191.345722 210.523442 
L 191.744071 210.63064 
L 192.142421 207.381032 
L 192.54077 207.495244 
L 193.337468 201.187306 
L 193.735817 187.891774 
L 194.134166 181.42036 
L 194.532515 178.287716 
L 194.930864 171.870376 
L 195.329214 175.359697 
L 195.727563 152.558913 
L 196.125912 153.042605 
L 196.524261 143.500186 
L 196.92261 140.777626 
L 197.719308 122.239795 
L 198.117658 116.761211 
L 198.516007 114.858765 
L 198.914356 115.81653 
L 199.312705 107.044023 
L 199.711054 104.930646 
L 200.109403 95.590806 
L 200.507752 104.529375 
L 200.906102 89.970345 
L 201.304451 91.412347 
L 201.7028 86.481437 
L 202.101149 87.931968 
L 202.499498 92.650399 
L 202.897847 100.178515 
L 203.296196 110.427813 
L 203.694545 114.186432 
L 204.092895 126.954367 
L 204.491244 127.994547 
L 204.889593 123.181025 
L 205.686291 145.588117 
L 206.881339 156.267177 
L 207.678037 168.037177 
L 208.474735 173.881377 
L 208.873084 168.850022 
L 209.271433 172.061517 
L 209.669782 177.920165 
L 210.068132 175.663397 
L 210.466481 178.76026 
L 210.86483 179.173499 
L 211.263179 184.694184 
L 211.661528 185.070127 
L 212.059877 182.85244 
L 212.458226 170.671949 
L 212.856576 165.906872 
L 213.254925 158.705854 
L 213.653274 161.654515 
L 214.848321 163.110815 
L 215.24667 165.97512 
L 215.64502 166.433083 
L 216.043369 161.998943 
L 216.441718 162.473416 
L 216.840067 160.598785 
L 217.238416 168.50917 
L 218.035114 164.923937 
L 218.433463 156.077683 
L 219.230162 147.994602 
L 219.628511 146.264741 
L 220.02686 137.6381 
L 220.425209 131.504925 
L 220.823558 132.297546 
L 221.221907 130.676661 
L 221.620257 127.076296 
L 222.018606 118.945453 
L 222.416955 113.288404 
L 223.213653 107.160728 
L 224.408701 91.494774 
L 224.80705 90.895079 
L 225.205399 88.255208 
L 226.002097 71.972761 
L 226.400446 63.526119 
L 226.798795 59.490913 
L 227.197144 53.568 
L 227.595494 53.609693 
L 228.392192 58.058689 
L 228.790541 73.405405 
L 229.18889 76.991321 
L 229.985588 80.52935 
L 230.383938 80.548615 
L 230.782287 84.372325 
L 231.180636 92.062396 
L 231.578985 97.600561 
L 231.977334 108.34319 
L 232.774032 119.624557 
L 233.172381 120.93114 
L 233.570731 106.099079 
L 233.96908 105.514384 
L 234.367429 103.476007 
L 236.757524 159.627687 
L 237.155873 163.248288 
L 237.952571 155.53468 
L 238.749269 172.281962 
L 239.147619 186.378093 
L 239.545968 185.123106 
L 240.342666 201.724111 
L 240.741015 203.349124 
L 241.139364 206.416951 
L 241.537713 204.963812 
L 241.936062 199.325884 
L 242.334412 207.017057 
L 242.732761 220.321667 
L 243.13111 221.907736 
L 243.529459 220.565645 
L 243.927808 216.34026 
L 244.326157 216.495345 
L 244.724506 210.83994 
L 245.521205 195.334018 
L 245.919554 189.777553 
L 246.317903 187.03792 
L 246.716252 191.693332 
L 247.114601 194.720425 
L 247.51295 194.840418 
L 249.106347 195.667304 
L 249.903045 198.728806 
L 250.301394 205.849182 
L 250.699743 204.744328 
L 251.098093 202.214408 
L 251.496442 205.080642 
L 251.894791 205.175868 
L 252.29314 203.943727 
L 252.691489 206.781336 
L 253.488187 209.682659 
L 253.886537 209.852743 
L 254.683235 202.195418 
L 255.081584 199.690406 
L 255.479933 210.355287 
L 255.878282 224.734337 
L 256.276631 232.506011 
L 257.07333 230.047649 
L 257.870028 232.688479 
L 258.268377 230.182642 
L 258.666726 232.808337 
L 259.065075 236.694655 
L 259.463424 238.032067 
L 259.861774 235.58719 
L 260.260123 228.026603 
L 261.056821 203.731396 
L 261.45517 203.870795 
L 261.853519 202.797591 
L 262.251868 200.331247 
L 262.650218 195.358375 
L 263.048567 195.572908 
L 263.446916 194.430899 
L 263.845265 192.046572 
L 265.040312 200.212077 
L 265.438661 201.631641 
L 265.837011 199.423587 
L 266.633709 199.810813 
L 267.032058 197.536292 
L 267.430407 197.784815 
L 268.227105 195.73611 
L 268.625455 195.939357 
L 269.023804 193.659748 
L 269.422153 192.682731 
L 269.820502 190.420457 
L 270.218851 187.041634 
L 270.6172 185.095448 
L 271.015549 181.758875 
L 271.812248 184.694184 
L 272.210597 190.768743 
L 272.608946 193.337879 
L 273.007295 191.246103 
L 273.405644 190.312164 
L 273.803993 190.524492 
L 274.202342 182.840196 
L 274.600692 181.943815 
L 274.999041 182.299398 
L 275.39739 189.53344 
L 275.795739 194.297697 
L 276.194088 190.055938 
L 276.592437 188.051951 
L 276.990786 175.893895 
L 277.389136 169.466784 
L 277.787485 166.580872 
L 278.185834 169.115604 
L 278.584183 168.296015 
L 278.982532 176.661056 
L 279.380881 181.264862 
L 279.77923 188.026223 
L 280.177579 188.180618 
L 280.575929 185.085402 
L 281.372627 194.264397 
L 281.770976 202.086433 
L 282.169325 207.634229 
L 282.567674 215.170321 
L 282.966023 212.170607 
L 283.364373 213.35321 
L 283.762722 217.591803 
L 284.161071 215.577501 
L 284.55942 210.473354 
L 284.957769 210.570778 
L 285.356118 212.761907 
L 285.754467 212.884242 
L 286.152817 210.924569 
L 286.949515 213.187115 
L 287.347864 209.235295 
L 288.144562 213.544758 
L 288.542911 209.594178 
L 288.94126 209.691189 
L 289.33961 212.819567 
L 289.737959 210.934753 
L 290.136308 210.042916 
L 290.534657 213.116111 
L 290.933006 215.192336 
L 291.331355 215.275866 
L 291.729704 216.334207 
L 292.526403 216.601854 
L 292.924752 215.688 
L 293.323101 220.641606 
L 293.72145 219.750734 
L 294.119799 217.878443 
L 294.518148 221.833153 
L 294.916497 222.877594 
L 296.111545 214.455174 
L 296.509894 213.561136 
L 296.908243 218.45488 
L 297.704941 218.626753 
L 298.103291 214.864417 
L 298.50164 214.972028 
L 298.899989 216.014681 
L 299.298338 211.366565 
L 299.696687 211.454085 
L 300.095036 212.500455 
L 300.891735 218.350849 
L 301.290084 219.344929 
L 301.688433 216.605158 
L 302.086782 218.543223 
L 302.485131 219.531523 
L 302.88348 215.966794 
L 303.281829 216.98055 
L 303.680178 215.234445 
L 304.476877 215.466039 
L 304.875226 215.542685 
L 305.273575 214.691721 
L 305.671924 215.669561 
L 306.070273 213.023776 
L 306.468622 212.23501 
L 306.866972 209.603948 
L 307.265321 207.873805 
L 307.66367 212.561826 
L 308.062019 212.642741 
L 309.257066 223.574441 
L 309.655416 223.633335 
L 310.053765 224.568518 
L 310.452114 222.855714 
L 310.850463 223.828328 
L 311.248812 225.664428 
L 312.04551 231.016271 
L 312.443859 231.923518 
L 312.842209 234.550724 
L 313.240558 235.42426 
L 313.638907 234.575495 
L 314.037256 231.133097 
L 314.435605 232.03567 
L 314.833954 230.347633 
L 315.232303 232.118921 
L 315.630653 234.73512 
L 316.029002 233.91952 
L 316.427351 233.944838 
L 316.8257 232.256528 
L 317.224049 231.434322 
L 317.622398 231.434322 
L 318.020747 230.584869 
L 318.419096 222.978873 
L 318.817446 225.594934 
L 319.215795 227.320811 
L 319.614144 224.857496 
L 320.012493 223.209367 
L 320.410842 218.178563 
L 320.809191 219.106452 
L 321.60589 217.539651 
L 322.004239 215.935695 
L 322.402588 210.087227 
L 322.800937 202.599022 
L 323.199286 212.895938 
L 323.597635 211.262947 
L 323.995984 202.973315 
L 324.394334 204.840101 
L 324.792683 208.252639 
L 325.191032 206.804866 
L 326.386079 207.086689 
L 326.784428 203.162389 
L 327.182777 205.80157 
L 327.581127 213.328026 
L 327.979476 210.083234 
L 328.377825 205.338242 
L 328.776174 210.417623 
L 329.174523 216.919316 
L 329.572872 216.919316 
L 329.971221 218.698721 
L 330.369571 225.09074 
L 331.166269 232.301251 
L 331.564618 237.912484 
L 331.962967 238.731802 
L 332.759665 231.746416 
L 333.158015 237.294213 
L 333.556364 239.655702 
L 333.954713 234.201064 
L 334.353062 230.322587 
L 334.751411 233.507658 
L 335.14976 226.475488 
L 336.344808 216.4242 
L 336.743157 211.076626 
L 337.141506 212.739755 
L 337.539855 224.437518 
L 337.938204 228.304021 
L 338.336553 227.552269 
L 338.734902 226.082891 
L 339.531601 221.641464 
L 339.92995 226.270315 
L 340.328299 227.833128 
L 340.726648 226.36306 
L 341.124997 226.485671 
L 341.523346 231.134612 
L 341.921695 230.424143 
L 342.718394 214.493566 
L 343.116743 210.779393 
L 343.515092 213.918089 
L 343.913441 219.314378 
L 344.31179 219.428042 
L 344.710139 210.459591 
L 345.108489 204.532688 
L 345.506838 208.376073 
L 345.905187 215.221371 
L 346.701885 210.240383 
L 347.100234 208.108151 
L 347.498583 214.885333 
L 347.896933 219.402448 
L 348.693631 204.184402 
L 349.09198 189.117727 
L 349.490329 194.508235 
L 349.888678 208.42795 
L 350.287027 208.42795 
L 350.685376 199.067322 
L 351.083726 204.303844 
L 351.482075 207.335756 
L 351.880424 204.639745 
L 352.278773 199.638668 
L 352.677122 196.825278 
L 353.075471 197.885542 
L 353.47382 200.336339 
L 353.87217 226.68135 
L 354.270519 235.016805 
L 355.067217 219.63707 
L 355.465566 225.804789 
L 356.262264 215.863589 
L 356.660613 218.6884 
L 357.058963 217.078804 
L 357.457312 217.314387 
L 358.25401 228.25861 
L 359.050708 204.682956 
L 359.449057 194.189397 
L 359.847407 197.828574 
L 360.245756 195.27058 
L 361.042454 199.671279 
L 361.440803 200.650222 
L 361.839152 198.109295 
L 362.237501 186.44621 
L 362.635851 178.71898 
L 363.0342 181.326508 
L 363.432549 186.207458 
L 363.830898 203.026707 
L 364.229247 239.233243 
L 364.627596 254.674903 
L 365.025945 255.932086 
L 365.424294 254.252582 
L 365.822644 260.512909 
L 366.220993 262.29961 
L 366.619342 268.346651 
L 367.017691 271.283337 
L 367.41604 281.323063 
L 367.814389 274.78779 
L 368.212738 273.330526 
L 368.611088 257.451 
L 369.009437 228.02275 
L 369.407786 215.644515 
L 369.806135 218.300485 
L 370.204484 224.764885 
L 370.602833 222.909519 
L 371.001182 224.002126 
L 371.399532 226.79859 
L 371.797881 238.935462 
L 372.19623 235.918822 
L 372.594579 238.541625 
L 372.992928 238.980183 
L 373.391277 238.314297 
L 373.789626 239.444882 
L 374.984674 225.128719 
L 375.781372 212.023918 
L 376.179721 206.770877 
L 376.57807 206.174348 
L 376.976419 205.107062 
L 377.374769 202.697273 
L 377.773118 201.90438 
L 378.171467 205.899821 
L 378.569816 206.874633 
L 378.968165 212.232533 
L 379.366514 212.965981 
L 379.764863 214.487785 
L 380.561562 223.088547 
L 380.959911 230.453592 
L 381.35826 231.61046 
L 381.756609 234.862957 
L 382.951656 224.705164 
L 383.350006 229.654365 
L 383.748355 230.156907 
L 384.146704 231.195022 
L 384.545053 226.59782 
L 385.341751 238.698088 
L 385.7401 235.236148 
L 386.13845 230.758392 
L 386.536799 228.423463 
L 386.935148 233.193775 
L 387.333497 239.30466 
L 387.731846 242.303548 
L 388.528544 233.551142 
L 388.926893 232.582519 
L 389.325243 239.098112 
L 390.121941 226.668965 
L 390.52029 224.852818 
L 390.918639 226.290407 
L 391.316988 227.278703 
L 391.715337 230.891735 
L 392.113687 231.3424 
L 392.512036 232.120299 
L 392.910385 237.075418 
L 393.308734 245.276015 
L 393.707083 257.356876 
L 394.503781 254.369003 
L 394.902131 256.103132 
L 395.698829 251.874306 
L 396.097178 251.42543 
L 396.495527 251.181448 
L 396.893876 254.282031 
L 397.292225 252.531937 
L 398.088924 245.300782 
L 398.487273 235.887447 
L 398.487273 235.887447 
" style="fill:none;opacity:0.6;stroke:#1f77b4;stroke-linecap:square;stroke-width:0.5;"/>
   </g>
   <g id="line2d_19">
    <path clip-path="url(#p843ef689d2)" d="M 379.764863 229.044182 
L 380.163212 222.56166 
L 380.561562 229.242869 
L 380.959911 251.706367 
L 381.35826 230.141987 
L 381.756609 239.107315 
L 382.154958 227.628162 
L 382.951656 253.716925 
L 383.350006 252.129327 
L 383.748355 241.266285 
L 384.146704 247.205265 
L 384.545053 244.638731 
L 385.341751 245.626082 
L 385.7401 250.925904 
L 386.13845 246.379871 
L 386.536799 236.021732 
L 386.935148 234.791612 
L 387.333497 230.872622 
L 387.731846 231.283096 
L 388.130195 239.892243 
L 388.528544 235.271469 
L 388.926893 226.389455 
L 389.325243 229.602989 
L 389.723592 237.157543 
L 390.121941 235.912552 
L 390.52029 236.748648 
L 390.918639 229.912467 
L 391.316988 238.76961 
L 391.715337 231.773698 
L 392.113687 229.137436 
L 392.512036 235.517337 
L 392.910385 229.00466 
L 393.308734 237.032459 
L 393.707083 226.013626 
L 394.105432 224.680535 
L 394.503781 227.759778 
L 394.902131 223.369265 
L 395.30048 222.861226 
L 395.698829 219.167554 
L 396.097178 233.871823 
L 396.495527 228.98921 
L 396.893876 231.05894 
L 397.292225 220.811012 
L 397.690574 214.650753 
L 398.088924 225.329791 
L 398.487273 232.28453 
L 398.487273 232.28453 
" style="fill:none;opacity:0.8;stroke:#ff7f0e;stroke-linecap:square;stroke-width:0.5;"/>
   </g>
   <g id="line2d_20">
    <path clip-path="url(#p843ef689d2)" d="M 73.832727 123.88984 
L 74.231076 160.545531 
L 75.027775 125.224493 
L 75.426124 125.361697 
L 75.824473 120.042049 
L 76.222822 129.661941 
L 76.621171 162.791151 
L 77.01952 170.27867 
L 77.417869 188.72788 
L 77.816219 216.748818 
L 78.214568 235.192254 
L 78.612917 240.416394 
L 79.011266 230.360845 
L 79.409615 248.591948 
L 79.807964 260.10023 
L 80.206313 267.474489 
L 80.604663 293.84661 
L 81.003012 295.488 
L 81.401361 288.827498 
L 81.79971 290.596447 
L 82.198059 280.569109 
L 82.596408 279.544619 
L 82.994757 283.025404 
L 83.393107 271.634786 
L 83.791456 269.908087 
L 84.189805 269.901617 
L 84.986503 256.670075 
L 85.384852 232.885948 
L 85.783201 225.337885 
L 86.18155 220.184335 
L 86.5799 206.116139 
L 86.978249 202.112853 
L 88.173296 124.979153 
L 88.571645 123.979158 
L 88.969994 122.288771 
L 89.368344 125.850199 
L 90.165042 149.176513 
L 90.563391 159.976938 
L 90.96174 158.823787 
L 91.360089 161.132707 
L 91.758438 158.155423 
L 92.156788 172.28912 
L 92.953486 223.469858 
L 93.351835 227.251595 
L 93.750184 225.700757 
L 94.148533 228.954767 
L 94.546882 222.527658 
L 94.945231 213.474305 
L 95.343581 210.202542 
L 95.74193 222.64999 
L 96.140279 226.489799 
L 96.936977 241.89224 
L 97.335326 244.484082 
L 97.733675 244.990202 
L 98.132025 241.854396 
L 98.530374 242.407579 
L 98.928723 242.41212 
L 99.327072 241.920449 
L 99.725421 248.695566 
L 100.12377 246.119689 
L 100.522119 240.9338 
L 100.920468 240.963937 
L 101.318818 246.119689 
L 101.717167 246.12588 
L 102.115516 238.872575 
L 102.513865 233.668386 
L 102.912214 238.866794 
L 103.310563 245.604209 
L 103.708912 242.51519 
L 104.107262 245.630354 
L 104.505611 250.773448 
L 105.302309 258.462967 
L 105.700658 266.112861 
L 106.099007 257.956572 
L 106.497356 259.49021 
L 106.895706 263.052461 
L 107.294055 263.036366 
L 107.692404 261.522816 
L 108.090753 257.955194 
L 108.887451 266.117264 
L 109.2858 259.492133 
L 109.684149 261.031558 
L 110.082499 252.315892 
L 110.480848 249.219029 
L 111.277546 249.228661 
L 111.675895 251.284797 
L 112.074244 252.316718 
L 112.472593 249.232513 
L 112.870943 247.177889 
L 113.269292 241.00398 
L 113.667641 231.700593 
L 114.06599 227.114814 
L 114.464339 223.984098 
L 114.862688 228.743677 
L 115.261037 218.966505 
L 115.659387 222.117174 
L 116.057736 215.4476 
L 116.854434 206.211365 
L 117.651132 203.270686 
L 118.049481 204.986932 
L 118.44783 205.712125 
L 118.84618 208.987189 
L 119.244529 205.493327 
L 119.642878 205.564747 
L 120.041227 213.852037 
L 120.439576 209.350062 
L 120.837925 212.533893 
L 121.236274 206.129213 
L 121.634624 209.819715 
L 122.032973 204.482462 
L 122.431322 204.607547 
L 122.829671 208.172137 
L 123.22802 215.206374 
L 123.626369 220.198921 
L 124.024718 222.254092 
L 124.423067 225.700757 
L 124.821417 225.700757 
L 125.618115 230.201907 
L 126.016464 236.59145 
L 126.414813 239.984857 
L 126.813162 249.602541 
L 127.211511 252.466983 
L 127.609861 249.614099 
L 128.00821 244.849294 
L 128.406559 241.98471 
L 128.804908 242.957186 
L 129.601606 233.425644 
L 129.999955 235.355868 
L 130.398305 233.46899 
L 130.796654 237.292563 
L 131.195003 234.914148 
L 131.593352 233.46899 
L 131.991701 227.778084 
L 132.788399 230.733212 
L 133.186748 235.486321 
L 133.585098 234.090976 
L 133.983447 237.432647 
L 134.780145 234.208357 
L 135.178494 235.653239 
L 135.576843 232.348037 
L 135.975192 234.249502 
L 136.373542 234.249502 
L 136.771891 241.791509 
L 137.17024 241.80417 
L 137.568589 243.680179 
L 137.966938 237.138853 
L 138.365287 239.032748 
L 138.763636 237.173803 
L 139.161985 243.730405 
L 139.560335 245.127397 
L 140.357033 245.145976 
L 141.55208 235.904373 
L 141.950429 235.922949 
L 142.348779 237.306322 
L 142.747128 240.571478 
L 143.145477 238.742261 
L 143.543826 234.17299 
L 143.942175 236.009091 
L 144.340524 236.009091 
L 144.738873 237.403061 
L 145.137223 236.045698 
L 145.933921 238.861289 
L 146.33227 242.070442 
L 146.730619 242.082551 
L 147.128968 236.148903 
L 147.527317 232.967409 
L 147.925666 233.009791 
L 148.324016 240.798256 
L 148.722365 237.609608 
L 149.120714 236.25073 
L 149.519063 231.721234 
L 149.917412 231.765817 
L 150.315761 234.955841 
L 150.71411 234.974971 
L 151.11246 233.150015 
L 151.510809 233.170793 
L 152.307507 239.572447 
L 152.705856 240.943846 
L 153.104205 238.243018 
L 153.502554 237.81134 
L 153.900904 235.145052 
L 154.299253 237.880972 
L 154.697602 239.247278 
L 155.095951 237.897071 
L 155.4943 237.913032 
L 156.290998 232.159928 
L 156.689347 227.743817 
L 157.087697 229.526803 
L 157.486046 232.20988 
L 157.884395 230.460334 
L 158.282744 230.933291 
L 158.681093 230.559963 
L 159.079442 227.948304 
L 159.477791 227.973624 
L 159.876141 219.175258 
L 160.27449 216.132473 
L 160.672839 214.902124 
L 161.071188 216.338886 
L 161.469537 220.848567 
L 161.867886 216.459292 
L 162.266235 206.39163 
L 162.664584 205.192242 
L 163.062934 202.195418 
L 163.859632 208.139664 
L 164.257981 210.341386 
L 165.054679 219.304194 
L 165.453028 219.412904 
L 165.851378 222.466149 
L 166.249727 215.271049 
L 166.648076 214.083217 
L 167.046425 218.544601 
L 167.843123 218.76271 
L 168.241472 211.680448 
L 168.639822 209.224288 
L 169.038171 204.17766 
L 169.43652 204.329854 
L 169.834869 200.159925 
L 170.233218 200.323678 
L 170.631567 196.166272 
L 171.029916 196.515936 
L 171.428265 192.569063 
L 172.224964 192.93689 
L 172.623313 189.035988 
L 173.021662 193.480582 
L 173.420011 189.612423 
L 174.216709 189.991122 
L 174.615059 182.155048 
L 175.013408 178.364638 
L 175.411757 178.584952 
L 176.208455 179.453531 
L 176.606804 179.667651 
L 177.005153 175.959944 
L 177.403503 176.404279 
L 177.801852 172.737307 
L 178.200201 173.195816 
L 178.996899 165.961773 
L 179.395248 170.508334 
L 179.793597 170.970288 
L 180.191946 171.199401 
L 180.590296 171.65392 
L 180.988645 175.842838 
L 181.386994 176.05558 
L 182.98039 177.717469 
L 183.37874 181.752819 
L 183.777089 189.357437 
L 184.573787 197.181405 
L 184.972136 193.764465 
L 185.370485 194.07697 
L 186.167183 194.386175 
L 187.76058 209.421754 
L 188.158929 209.534316 
L 188.557278 202.636729 
L 188.955627 206.206273 
L 189.353977 206.326404 
L 190.150675 213.596362 
L 190.947373 213.796719 
L 191.345722 210.523442 
L 191.744071 210.63064 
L 192.142421 207.381032 
L 192.54077 207.495244 
L 193.337468 201.187306 
L 193.735817 187.891774 
L 194.134166 181.42036 
L 194.532515 178.287716 
L 194.930864 171.870376 
L 195.329214 175.359697 
L 195.727563 152.558913 
L 196.125912 153.042605 
L 196.524261 143.500186 
L 196.92261 140.777626 
L 197.719308 122.239795 
L 198.117658 116.761211 
L 198.516007 114.858765 
L 198.914356 115.81653 
L 199.312705 107.044023 
L 199.711054 104.930646 
L 200.109403 95.590806 
L 200.507752 104.529375 
L 200.906102 89.970345 
L 201.304451 91.412347 
L 201.7028 86.481437 
L 202.101149 87.931968 
L 202.499498 92.650399 
L 202.897847 100.178515 
L 203.296196 110.427813 
L 203.694545 114.186432 
L 204.092895 126.954367 
L 204.491244 127.994547 
L 204.889593 123.181025 
L 205.686291 145.588117 
L 206.881339 156.267177 
L 207.678037 168.037177 
L 208.474735 173.881377 
L 208.873084 168.850022 
L 209.271433 172.061517 
L 209.669782 177.920165 
L 210.068132 175.663397 
L 210.466481 178.76026 
L 210.86483 179.173499 
L 211.263179 184.694184 
L 211.661528 185.070127 
L 212.059877 182.85244 
L 212.458226 170.671949 
L 212.856576 165.906872 
L 213.254925 158.705854 
L 213.653274 161.654515 
L 214.848321 163.110815 
L 215.24667 165.97512 
L 215.64502 166.433083 
L 216.043369 161.998943 
L 216.441718 162.473416 
L 216.840067 160.598785 
L 217.238416 168.50917 
L 218.035114 164.923937 
L 218.433463 156.077683 
L 219.230162 147.994602 
L 219.628511 146.264741 
L 220.02686 137.6381 
L 220.425209 131.504925 
L 220.823558 132.297546 
L 221.221907 130.676661 
L 221.620257 127.076296 
L 222.018606 118.945453 
L 222.416955 113.288404 
L 223.213653 107.160728 
L 224.408701 91.494774 
L 224.80705 90.895079 
L 225.205399 88.255208 
L 226.002097 71.972761 
L 226.400446 63.526119 
L 226.798795 59.490913 
L 227.197144 53.568 
L 227.595494 53.609693 
L 228.392192 58.058689 
L 228.790541 73.405405 
L 229.18889 76.991321 
L 229.985588 80.52935 
L 230.383938 80.548615 
L 230.782287 84.372325 
L 231.180636 92.062396 
L 231.578985 97.600561 
L 231.977334 108.34319 
L 232.774032 119.624557 
L 233.172381 120.93114 
L 233.570731 106.099079 
L 233.96908 105.514384 
L 234.367429 103.476007 
L 236.757524 159.627687 
L 237.155873 163.248288 
L 237.952571 155.53468 
L 238.749269 172.281962 
L 239.147619 186.378093 
L 239.545968 185.123106 
L 240.342666 201.724111 
L 240.741015 203.349124 
L 241.139364 206.416951 
L 241.537713 204.963812 
L 241.936062 199.325884 
L 242.334412 207.017057 
L 242.732761 220.321667 
L 243.13111 221.907736 
L 243.529459 220.565645 
L 243.927808 216.34026 
L 244.326157 216.495345 
L 244.724506 210.83994 
L 245.521205 195.334018 
L 245.919554 189.777553 
L 246.317903 187.03792 
L 246.716252 191.693332 
L 247.114601 194.720425 
L 247.51295 194.840418 
L 249.106347 195.667304 
L 249.903045 198.728806 
L 250.301394 205.849182 
L 250.699743 204.744328 
L 251.098093 202.214408 
L 251.496442 205.080642 
L 251.894791 205.175868 
L 252.29314 203.943727 
L 252.691489 206.781336 
L 253.488187 209.682659 
L 253.886537 209.852743 
L 254.683235 202.195418 
L 255.081584 199.690406 
L 255.479933 210.355287 
L 255.878282 224.734337 
L 256.276631 232.506011 
L 257.07333 230.047649 
L 257.870028 232.688479 
L 258.268377 230.182642 
L 258.666726 232.808337 
L 259.065075 236.694655 
L 259.463424 238.032067 
L 259.861774 235.58719 
L 260.260123 228.026603 
L 261.056821 203.731396 
L 261.45517 203.870795 
L 261.853519 202.797591 
L 262.251868 200.331247 
L 262.650218 195.358375 
L 263.048567 195.572908 
L 263.446916 194.430899 
L 263.845265 192.046572 
L 265.040312 200.212077 
L 265.438661 201.631641 
L 265.837011 199.423587 
L 266.633709 199.810813 
L 267.032058 197.536292 
L 267.430407 197.784815 
L 268.227105 195.73611 
L 268.625455 195.939357 
L 269.023804 193.659748 
L 269.422153 192.682731 
L 269.820502 190.420457 
L 270.218851 187.041634 
L 270.6172 185.095448 
L 271.015549 181.758875 
L 271.812248 184.694184 
L 272.210597 190.768743 
L 272.608946 193.337879 
L 273.007295 191.246103 
L 273.405644 190.312164 
L 273.803993 190.524492 
L 274.202342 182.840196 
L 274.600692 181.943815 
L 274.999041 182.299398 
L 275.39739 189.53344 
L 275.795739 194.297697 
L 276.194088 190.055938 
L 276.592437 188.051951 
L 276.990786 175.893895 
L 277.389136 169.466784 
L 277.787485 166.580872 
L 278.185834 169.115604 
L 278.584183 168.296015 
L 278.982532 176.661056 
L 279.380881 181.264862 
L 279.77923 188.026223 
L 280.177579 188.180618 
L 280.575929 185.085402 
L 281.372627 194.264397 
L 281.770976 202.086433 
L 282.169325 207.634229 
L 282.567674 215.170321 
L 282.966023 212.170607 
L 283.364373 213.35321 
L 283.762722 217.591803 
L 284.161071 215.577501 
L 284.55942 210.473354 
L 284.957769 210.570778 
L 285.356118 212.761907 
L 285.754467 212.884242 
L 286.152817 210.924569 
L 286.949515 213.187115 
L 287.347864 209.235295 
L 288.144562 213.544758 
L 288.542911 209.594178 
L 288.94126 209.691189 
L 289.33961 212.819567 
L 289.737959 210.934753 
L 290.136308 210.042916 
L 290.534657 213.116111 
L 290.933006 215.192336 
L 291.331355 215.275866 
L 291.729704 216.334207 
L 292.526403 216.601854 
L 292.924752 215.688 
L 293.323101 220.641606 
L 293.72145 219.750734 
L 294.119799 217.878443 
L 294.518148 221.833153 
L 294.916497 222.877594 
L 296.111545 214.455174 
L 296.509894 213.561136 
L 296.908243 218.45488 
L 297.704941 218.626753 
L 298.103291 214.864417 
L 298.50164 214.972028 
L 298.899989 216.014681 
L 299.298338 211.366565 
L 299.696687 211.454085 
L 300.095036 212.500455 
L 300.891735 218.350849 
L 301.290084 219.344929 
L 301.688433 216.605158 
L 302.086782 218.543223 
L 302.485131 219.531523 
L 302.88348 215.966794 
L 303.281829 216.98055 
L 303.680178 215.234445 
L 304.476877 215.466039 
L 304.875226 215.542685 
L 305.273575 214.691721 
L 305.671924 215.669561 
L 306.070273 213.023776 
L 306.468622 212.23501 
L 306.866972 209.603948 
L 307.265321 207.873805 
L 307.66367 212.561826 
L 308.062019 212.642741 
L 309.257066 223.574441 
L 309.655416 223.633335 
L 310.053765 224.568518 
L 310.452114 222.855714 
L 310.850463 223.828328 
L 311.248812 225.664428 
L 312.04551 231.016271 
L 312.443859 231.923518 
L 312.842209 234.550724 
L 313.240558 235.42426 
L 313.638907 234.575495 
L 314.037256 231.133097 
L 314.435605 232.03567 
L 314.833954 230.347633 
L 315.232303 232.118921 
L 315.630653 234.73512 
L 316.029002 233.91952 
L 316.427351 233.944838 
L 316.8257 232.256528 
L 317.224049 231.434322 
L 317.622398 231.434322 
L 318.020747 230.584869 
L 318.419096 222.978873 
L 318.817446 225.594934 
L 319.215795 227.320811 
L 319.614144 224.857496 
L 320.012493 223.209367 
L 320.410842 218.178563 
L 320.809191 219.106452 
L 321.60589 217.539651 
L 322.004239 215.935695 
L 322.402588 210.087227 
L 322.800937 202.599022 
L 323.199286 212.895938 
L 323.597635 211.262947 
L 323.995984 202.973315 
L 324.394334 204.840101 
L 324.792683 208.252639 
L 325.191032 206.804866 
L 326.386079 207.086689 
L 326.784428 203.162389 
L 327.182777 205.80157 
L 327.581127 213.328026 
L 327.979476 210.083234 
L 328.377825 205.338242 
L 328.776174 210.417623 
L 329.174523 216.919316 
L 329.572872 216.919316 
L 329.971221 218.698721 
L 330.369571 225.09074 
L 331.166269 232.301251 
L 331.564618 237.912484 
L 331.962967 238.731802 
L 332.759665 231.746416 
L 333.158015 237.294213 
L 333.556364 239.655702 
L 333.954713 234.201064 
L 334.353062 230.322587 
L 334.751411 233.507658 
L 335.14976 226.475488 
L 336.344808 216.4242 
L 336.743157 211.076626 
L 337.141506 212.739755 
L 337.539855 224.437518 
L 337.938204 228.304021 
L 338.336553 227.552269 
L 338.734902 226.082891 
L 339.531601 221.641464 
L 339.92995 226.270315 
L 340.328299 227.833128 
L 340.726648 226.36306 
L 341.124997 226.485671 
L 341.523346 231.134612 
L 341.921695 230.424143 
L 342.718394 214.493566 
L 343.116743 210.779393 
L 343.515092 213.918089 
L 343.913441 219.314378 
L 344.31179 219.428042 
L 344.710139 210.459591 
L 345.108489 204.532688 
L 345.506838 208.376073 
L 345.905187 215.221371 
L 346.701885 210.240383 
L 347.100234 208.108151 
L 347.498583 214.885333 
L 347.896933 219.402448 
L 348.693631 204.184402 
L 349.09198 189.117727 
L 349.490329 194.508235 
L 349.888678 208.42795 
L 350.287027 208.42795 
L 350.685376 199.067322 
L 351.083726 204.303844 
L 351.482075 207.335756 
L 351.880424 204.639745 
L 352.278773 199.638668 
L 352.677122 196.825278 
L 353.075471 197.885542 
L 353.47382 200.336339 
L 353.87217 226.68135 
L 354.270519 235.016805 
L 355.067217 219.63707 
L 355.465566 225.804789 
L 356.262264 215.863589 
L 356.660613 218.6884 
L 357.058963 217.078804 
L 357.457312 217.314387 
L 358.25401 228.25861 
L 359.050708 204.682956 
L 359.449057 194.189397 
L 359.847407 197.828574 
L 360.245756 195.27058 
L 361.042454 199.671279 
L 361.440803 200.650222 
L 361.839152 198.109295 
L 362.237501 186.44621 
L 362.635851 178.71898 
L 363.0342 181.326508 
L 363.432549 186.207458 
L 363.830898 203.026707 
L 364.229247 239.233243 
L 364.627596 254.674903 
L 365.025945 255.932086 
L 365.424294 254.252582 
L 365.822644 260.512909 
L 366.220993 262.29961 
L 366.619342 268.346651 
L 367.017691 271.283337 
L 367.41604 281.323063 
L 367.814389 274.78779 
L 368.212738 273.330526 
L 368.611088 257.451 
L 369.009437 228.02275 
L 369.407786 215.644515 
L 369.806135 218.300485 
L 370.204484 224.764885 
L 370.602833 222.909519 
L 371.001182 224.002126 
L 371.399532 226.79859 
L 371.797881 238.935462 
L 372.19623 235.918822 
L 372.594579 238.541625 
L 372.992928 238.980183 
L 373.391277 238.314297 
L 373.789626 239.444882 
L 374.984674 225.128719 
L 375.781372 212.023918 
L 376.179721 206.770877 
L 376.57807 206.174348 
L 376.976419 205.107062 
L 377.374769 202.697273 
L 377.773118 201.90438 
L 378.171467 205.899821 
L 378.569816 206.874633 
L 378.968165 212.232533 
L 379.366514 212.965981 
L 379.764863 214.487785 
L 380.561562 223.088547 
L 380.959911 230.453592 
L 381.35826 231.61046 
L 381.756609 234.862957 
L 382.951656 224.705164 
L 383.350006 229.654365 
L 383.748355 230.156907 
L 384.146704 231.195022 
L 384.545053 226.59782 
L 385.341751 238.698088 
L 385.7401 235.236148 
L 386.13845 230.758392 
L 386.536799 228.423463 
L 386.935148 233.193775 
L 387.333497 239.30466 
L 387.731846 242.303548 
L 388.528544 233.551142 
L 388.926893 232.582519 
L 389.325243 239.098112 
L 390.121941 226.668965 
L 390.52029 224.852818 
L 390.918639 226.290407 
L 391.316988 227.278703 
L 391.715337 230.891735 
L 392.113687 231.3424 
L 392.512036 232.120299 
L 392.910385 237.075418 
L 393.308734 245.276015 
L 393.707083 257.356876 
L 394.503781 254.369003 
L 394.902131 256.103132 
L 395.698829 251.874306 
L 396.097178 251.42543 
L 396.495527 251.181448 
L 396.893876 254.282031 
L 397.292225 252.531937 
L 398.088924 245.300782 
L 398.487273 235.887447 
L 398.487273 235.887447 
" style="fill:none;opacity:0.6;stroke:#2ca02c;stroke-linecap:square;stroke-width:0.5;"/>
   </g>
   <g id="line2d_21">
    <path clip-path="url(#p843ef689d2)" d="M 73.832727 123.874355 
L 74.231076 160.54118 
L 75.027775 125.196711 
L 75.426124 125.321724 
L 75.824473 120.017561 
L 76.222822 129.595747 
L 76.621171 162.672628 
L 77.01952 170.147319 
L 77.417869 188.598543 
L 77.816219 216.55188 
L 78.214568 235.068763 
L 78.612917 240.322356 
L 79.011266 230.238332 
L 79.409615 248.458048 
L 79.807964 259.975497 
L 80.206313 267.342685 
L 80.604663 293.680672 
L 81.003012 295.419857 
L 81.401361 288.750819 
L 81.79971 290.554249 
L 82.198059 280.506774 
L 82.596408 279.477664 
L 82.994757 283.009079 
L 83.393107 271.593952 
L 83.791456 269.845929 
L 84.189805 269.860765 
L 84.986503 256.674566 
L 85.384852 232.842963 
L 85.783201 225.213554 
L 86.18155 220.066156 
L 86.5799 206.015063 
L 86.978249 202.030203 
L 88.173296 124.788209 
L 88.571645 123.831639 
L 88.969994 122.158588 
L 89.368344 125.754071 
L 90.165042 149.060411 
L 90.563391 159.942568 
L 90.96174 158.71628 
L 91.360089 160.952229 
L 91.758438 158.00507 
L 92.156788 172.064062 
L 92.555137 196.181672 
L 92.953486 206.92585 
L 93.351835 227.249487 
L 93.750184 225.638871 
L 94.148533 228.847331 
L 94.546882 222.438764 
L 94.945231 213.328761 
L 95.343581 210.012283 
L 95.74193 222.522904 
L 96.140279 226.379458 
L 96.936977 241.758632 
L 97.335326 244.250527 
L 97.733675 244.886331 
L 98.132025 241.735679 
L 98.530374 242.231228 
L 98.928723 242.265506 
L 99.327072 241.786621 
L 99.725421 248.595977 
L 100.12377 245.979417 
L 100.522119 240.842091 
L 100.920468 240.860805 
L 101.318818 246.026513 
L 101.717167 246.007353 
L 102.115516 238.739223 
L 102.513865 233.594882 
L 102.912214 238.79689 
L 103.310563 245.468297 
L 103.708912 242.331028 
L 104.107262 245.511014 
L 104.90396 254.271867 
L 105.302309 258.369113 
L 105.700658 265.965185 
L 106.099007 257.839968 
L 106.497356 259.256668 
L 106.895706 262.930297 
L 107.294055 262.839641 
L 107.692404 261.371216 
L 108.090753 257.791077 
L 108.887451 266.043669 
L 109.2858 259.387494 
L 109.684149 260.951286 
L 110.082499 252.169068 
L 110.480848 249.061109 
L 110.879197 249.160269 
L 111.277546 249.105926 
L 111.675895 251.213511 
L 112.074244 252.18206 
L 112.472593 249.183652 
L 112.870943 247.101128 
L 113.269292 240.974213 
L 113.667641 231.578756 
L 114.06599 226.935551 
L 114.464339 223.875125 
L 114.862688 228.60736 
L 115.261037 218.870131 
L 115.659387 221.908979 
L 116.057736 215.343857 
L 116.854434 206.112376 
L 117.651132 203.171684 
L 118.049481 204.98974 
L 118.44783 205.646899 
L 118.84618 208.797239 
L 119.244529 205.338249 
L 119.642878 205.446851 
L 120.041227 213.781499 
L 120.439576 209.27853 
L 120.837925 212.37287 
L 121.236274 206.026054 
L 121.634624 209.643965 
L 122.032973 204.332712 
L 122.431322 204.393092 
L 122.829671 207.957 
L 123.22802 215.021588 
L 123.626369 220.018764 
L 124.024718 222.107105 
L 124.423067 225.545636 
L 124.821417 225.539206 
L 125.618115 230.039325 
L 126.016464 236.424663 
L 126.414813 239.811203 
L 126.813162 249.386229 
L 127.211511 252.255629 
L 127.609861 249.464074 
L 128.00821 244.737959 
L 128.406559 241.851693 
L 128.804908 242.754284 
L 129.601606 233.294831 
L 129.999955 235.201709 
L 130.398305 233.300902 
L 130.796654 237.153846 
L 131.593352 233.542743 
L 131.991701 227.696089 
L 132.788399 230.633448 
L 133.186748 235.354435 
L 133.585098 233.896912 
L 133.983447 237.322037 
L 134.780145 234.070064 
L 135.178494 235.532639 
L 135.576843 232.211683 
L 135.975192 234.062777 
L 136.373542 234.21439 
L 136.771891 241.731772 
L 137.17024 241.717116 
L 137.568589 243.665018 
L 137.966938 237.094548 
L 138.365287 238.968972 
L 138.763636 237.063666 
L 139.161985 243.637282 
L 139.560335 245.017663 
L 139.958684 245.090438 
L 140.357033 245.044631 
L 141.55208 235.748714 
L 141.950429 235.834209 
L 142.348779 237.237701 
L 142.747128 240.490232 
L 143.145477 238.693416 
L 143.543826 234.134394 
L 143.942175 235.980016 
L 144.340524 235.852179 
L 144.738873 237.321493 
L 145.137223 235.981745 
L 145.933921 238.775535 
L 146.33227 241.948605 
L 146.730619 241.941253 
L 147.128968 235.990298 
L 147.527317 232.811106 
L 147.925666 232.852715 
L 148.324016 240.627823 
L 148.722365 237.427956 
L 149.120714 236.135225 
L 149.519063 231.565874 
L 149.917412 231.653931 
L 150.315761 234.38976 
L 150.71411 234.793604 
L 151.11246 232.91851 
L 151.510809 233.10703 
L 152.307507 239.422419 
L 152.705856 240.734959 
L 153.104205 238.135902 
L 153.502554 237.713634 
L 153.900904 235.03312 
L 154.299253 237.774447 
L 154.697602 239.098611 
L 155.095951 237.766396 
L 155.4943 237.860086 
L 156.290998 232.113525 
L 156.689347 227.710049 
L 157.087697 229.401677 
L 157.486046 232.146094 
L 157.884395 230.355982 
L 158.282744 230.799516 
L 158.681093 230.485746 
L 159.079442 227.893224 
L 159.477791 227.90235 
L 159.876141 218.959225 
L 160.27449 215.870607 
L 160.672839 214.784208 
L 161.071188 216.214552 
L 161.469537 220.697902 
L 161.867886 216.248279 
L 162.266235 206.215512 
L 162.664584 205.131544 
L 163.062934 202.072259 
L 163.859632 207.954868 
L 164.257981 210.108375 
L 165.054679 219.164454 
L 165.453028 219.273945 
L 165.851378 222.326025 
L 166.249727 215.154583 
L 166.648076 213.951636 
L 167.046425 218.359707 
L 167.843123 218.565401 
L 168.241472 211.504557 
L 168.639822 209.136155 
L 169.038171 203.993317 
L 169.43652 204.09791 
L 169.834869 200.095077 
L 170.233218 200.244167 
L 170.631567 196.062152 
L 171.029916 196.429604 
L 171.428265 192.448053 
L 172.224964 192.774351 
L 172.623313 188.906265 
L 173.021662 193.325431 
L 173.420011 189.441735 
L 174.216709 189.851287 
L 174.615059 181.912227 
L 175.013408 178.172323 
L 175.411757 178.426462 
L 176.208455 179.292856 
L 176.606804 179.523668 
L 177.005153 175.809846 
L 177.403503 176.275901 
L 177.801852 172.605425 
L 178.200201 173.068756 
L 178.996899 165.849221 
L 179.395248 170.369437 
L 179.793597 170.80853 
L 180.191946 171.043253 
L 180.590296 171.500404 
L 180.988645 175.654296 
L 181.386994 175.902175 
L 182.98039 177.605705 
L 183.37874 181.627097 
L 183.777089 189.212615 
L 184.573787 197.060769 
L 184.972136 193.605876 
L 185.768834 194.103925 
L 186.167183 194.232599 
L 187.76058 209.278035 
L 188.158929 209.39888 
L 188.557278 204.841496 
L 188.955627 206.254305 
L 189.353977 206.260876 
L 190.150675 213.486572 
L 190.947373 213.598842 
L 191.345722 210.291901 
L 191.744071 210.445585 
L 192.142421 207.167243 
L 192.54077 207.329903 
L 193.337468 201.020174 
L 193.735817 187.674676 
L 194.134166 181.308057 
L 194.532515 178.162559 
L 194.930864 171.701899 
L 195.329214 175.170007 
L 195.727563 152.425042 
L 196.125912 152.910145 
L 196.524261 143.388297 
L 196.92261 140.618848 
L 197.719308 122.132827 
L 198.117658 116.619558 
L 198.516007 114.70202 
L 198.914356 115.653893 
L 199.312705 106.888551 
L 199.711054 104.793915 
L 200.109403 95.42788 
L 200.507752 104.383181 
L 200.906102 89.800569 
L 201.304451 91.256192 
L 201.7028 86.367579 
L 202.101149 87.861011 
L 202.499498 92.670451 
L 202.897847 100.240326 
L 203.296196 110.412577 
L 203.694545 114.163046 
L 204.092895 126.890431 
L 204.491244 127.827015 
L 204.889593 123.009674 
L 205.686291 145.460047 
L 206.881339 156.137165 
L 207.678037 168.060209 
L 208.474735 173.871568 
L 208.873084 168.805875 
L 209.271433 172.019693 
L 209.669782 177.88716 
L 210.068132 175.60612 
L 210.466481 178.676999 
L 210.86483 179.027168 
L 211.263179 184.560726 
L 211.661528 184.936433 
L 212.059877 182.69204 
L 212.458226 170.502823 
L 212.856576 165.733539 
L 213.254925 158.509779 
L 213.653274 161.485225 
L 214.848321 162.942633 
L 215.24667 165.852837 
L 215.64502 166.310269 
L 216.043369 161.868911 
L 216.441718 162.332183 
L 216.840067 160.441581 
L 217.238416 168.3694 
L 218.035114 164.764541 
L 218.433463 155.895551 
L 219.230162 147.852779 
L 219.628511 146.093679 
L 220.02686 137.46314 
L 220.425209 131.379991 
L 220.823558 132.180237 
L 221.221907 130.525743 
L 221.620257 126.957976 
L 222.018606 118.826976 
L 222.416955 113.181108 
L 223.213653 107.022041 
L 224.408701 91.375982 
L 224.80705 90.776313 
L 225.205399 88.134264 
L 226.002097 71.822538 
L 226.400446 63.401526 
L 226.798795 59.521294 
L 227.197144 53.585257 
L 227.595494 53.632068 
L 228.392192 58.080487 
L 228.790541 73.398581 
L 229.18889 76.956466 
L 229.985588 80.457028 
L 230.383938 80.502001 
L 230.782287 84.293782 
L 231.180636 91.963538 
L 231.578985 97.484157 
L 231.977334 108.21785 
L 232.375683 114.792374 
L 232.774032 119.521159 
L 233.172381 120.815655 
L 233.570731 105.977794 
L 233.96908 105.317456 
L 234.367429 103.338934 
L 236.757524 159.464814 
L 237.155873 163.075651 
L 237.952571 155.383631 
L 238.749269 172.126044 
L 239.147619 186.242536 
L 239.545968 184.986466 
L 240.342666 201.552052 
L 240.741015 203.224036 
L 241.139364 206.295348 
L 241.537713 204.816811 
L 241.936062 199.178293 
L 242.334412 206.886211 
L 242.732761 220.023131 
L 243.13111 221.714439 
L 243.529459 220.448999 
L 243.927808 216.289805 
L 244.326157 216.419509 
L 244.724506 210.722283 
L 245.521205 195.232529 
L 245.919554 197.084673 
L 246.317903 187.020814 
L 246.716252 191.641443 
L 247.114601 194.65038 
L 247.51295 194.757781 
L 248.309649 195.152792 
L 249.106347 195.50367 
L 249.903045 198.561589 
L 250.301394 205.696407 
L 250.699743 204.618118 
L 251.098093 202.109146 
L 251.496442 204.841056 
L 251.894791 204.974235 
L 252.29314 203.822366 
L 252.691489 206.563453 
L 253.488187 209.529356 
L 253.886537 209.771786 
L 254.683235 201.984291 
L 255.081584 199.462996 
L 255.479933 210.23448 
L 255.878282 224.526136 
L 256.276631 232.376779 
L 257.07333 229.807842 
L 257.870028 232.560379 
L 258.268377 230.024954 
L 258.666726 232.661553 
L 259.065075 236.595397 
L 259.463424 237.9519 
L 259.861774 235.498555 
L 260.260123 227.940572 
L 261.056821 203.619753 
L 261.45517 203.781957 
L 261.853519 202.685544 
L 262.251868 200.215824 
L 262.650218 195.261925 
L 263.048567 195.519608 
L 263.446916 194.353386 
L 263.845265 192.050824 
L 264.641963 197.39624 
L 265.040312 210.824419 
L 265.438661 201.487705 
L 265.837011 199.426828 
L 266.23536 199.480358 
L 266.633709 199.725587 
L 267.032058 197.462519 
L 267.430407 197.620439 
L 268.227105 195.555527 
L 268.625455 195.820735 
L 269.023804 193.506015 
L 269.422153 192.496761 
L 269.820502 190.25469 
L 270.218851 186.838374 
L 270.6172 184.858428 
L 271.015549 181.532124 
L 271.812248 184.565667 
L 272.210597 190.645096 
L 272.608946 193.215714 
L 273.007295 191.090953 
L 273.405644 190.160741 
L 273.803993 190.410241 
L 274.202342 182.754068 
L 274.600692 181.791808 
L 274.999041 182.104405 
L 275.39739 189.31787 
L 275.795739 194.109201 
L 276.194088 189.850322 
L 276.592437 187.896696 
L 276.990786 175.772117 
L 277.389136 169.353116 
L 277.787485 166.446738 
L 278.185834 169.002632 
L 278.584183 168.194591 
L 278.982532 176.571831 
L 279.380881 181.140492 
L 279.77923 187.854701 
L 280.177579 188.0022 
L 280.575929 184.906893 
L 281.372627 194.140592 
L 282.169325 207.458069 
L 282.567674 215.01652 
L 282.966023 212.030575 
L 283.364373 213.118815 
L 283.762722 217.431053 
L 284.161071 217.128347 
L 284.55942 210.133657 
L 284.957769 210.45796 
L 285.356118 212.655769 
L 285.754467 212.803094 
L 286.152817 210.755551 
L 286.949515 213.014757 
L 287.347864 209.078163 
L 288.144562 213.324368 
L 288.542911 209.359898 
L 288.94126 209.508913 
L 289.33961 212.580996 
L 289.737959 210.704774 
L 290.136308 209.839551 
L 290.534657 212.922333 
L 290.933006 215.009141 
L 291.331355 215.080417 
L 291.729704 216.166321 
L 292.526403 216.392734 
L 292.924752 215.490248 
L 293.323101 220.498329 
L 293.72145 219.590262 
L 294.119799 217.700008 
L 294.518148 221.663088 
L 294.916497 222.689212 
L 296.111545 214.269174 
L 296.509894 213.446208 
L 296.908243 218.322942 
L 297.704941 218.493174 
L 298.103291 214.74426 
L 298.50164 214.847206 
L 298.899989 215.857182 
L 299.298338 211.20837 
L 299.696687 211.272061 
L 300.095036 212.362073 
L 300.891735 218.197349 
L 301.290084 219.16783 
L 301.688433 216.441973 
L 302.086782 218.406606 
L 302.485131 219.381441 
L 302.88348 215.787235 
L 303.281829 214.237314 
L 303.680178 215.705962 
L 304.078528 215.280413 
L 304.875226 215.404723 
L 305.273575 214.484839 
L 305.671924 215.427748 
L 306.070273 212.904022 
L 306.468622 212.056379 
L 306.866972 209.477269 
L 307.265321 207.697087 
L 307.66367 212.317237 
L 308.062019 212.465202 
L 309.257066 223.356693 
L 309.655416 223.412857 
L 310.053765 224.343804 
L 310.452114 222.66995 
L 310.850463 223.674785 
L 311.248812 225.480564 
L 312.04551 230.82246 
L 312.443859 231.737942 
L 312.842209 234.359026 
L 313.240558 235.205019 
L 313.638907 234.317156 
L 314.037256 230.997131 
L 314.435605 231.844424 
L 314.833954 230.164554 
L 315.232303 231.972045 
L 315.630653 234.595941 
L 316.029002 233.765295 
L 316.427351 233.770597 
L 316.8257 232.074092 
L 317.224049 231.301324 
L 317.622398 231.305993 
L 318.020747 230.451199 
L 318.419096 222.804881 
L 318.817446 225.47624 
L 319.215795 227.11108 
L 319.614144 224.723169 
L 320.012493 223.045746 
L 320.410842 218.055998 
L 320.809191 218.948428 
L 321.60589 217.443704 
L 322.402588 214.183233 
L 322.800937 202.543481 
L 323.199286 212.788947 
L 323.597635 211.107377 
L 323.995984 202.868463 
L 324.394334 204.478374 
L 324.792683 208.119824 
L 325.191032 206.652584 
L 326.386079 206.853259 
L 326.784428 203.016419 
L 327.182777 205.638228 
L 327.581127 213.099842 
L 327.979476 209.859282 
L 328.377825 205.159972 
L 328.776174 210.209271 
L 329.174523 216.783329 
L 329.572872 216.806049 
L 329.971221 218.587718 
L 330.369571 224.94976 
L 331.166269 232.201652 
L 331.564618 237.777334 
L 331.962967 238.628547 
L 332.759665 231.625002 
L 333.158015 237.180234 
L 333.556364 239.514023 
L 333.954713 234.041576 
L 334.353062 230.186554 
L 334.751411 233.397491 
L 335.14976 226.29438 
L 336.344808 216.286471 
L 336.743157 210.865232 
L 337.141506 212.58965 
L 337.539855 224.319723 
L 337.938204 228.203006 
L 338.336553 227.40969 
L 338.734902 225.982541 
L 339.531601 221.538161 
L 339.92995 226.202034 
L 340.328299 227.749383 
L 340.726648 226.220732 
L 341.124997 226.328677 
L 341.523346 230.952428 
L 341.921695 230.443548 
L 342.718394 214.377651 
L 343.116743 210.666158 
L 343.515092 213.745492 
L 343.913441 219.196304 
L 344.31179 219.200441 
L 344.710139 210.412482 
L 345.108489 204.336705 
L 345.506838 208.294961 
L 345.905187 215.111473 
L 346.701885 210.13911 
L 347.100234 207.984609 
L 347.498583 214.775566 
L 347.896933 219.305283 
L 348.693631 204.01083 
L 349.09198 188.950169 
L 349.490329 194.405991 
L 349.888678 208.271185 
L 350.287027 208.22821 
L 350.685376 198.91105 
L 351.083726 204.148612 
L 351.482075 207.221512 
L 351.880424 204.427475 
L 352.278773 199.501516 
L 352.677122 196.68709 
L 353.075471 197.703896 
L 353.47382 200.141172 
L 353.87217 226.494494 
L 354.270519 234.87776 
L 355.067217 219.493258 
L 355.465566 225.761843 
L 356.262264 215.748842 
L 356.660613 218.551845 
L 357.058963 216.931554 
L 357.457312 217.212409 
L 358.25401 228.142598 
L 359.050708 204.546304 
L 359.449057 194.023171 
L 359.847407 197.659369 
L 360.245756 195.119203 
L 360.644105 196.311265 
L 361.042454 199.651778 
L 361.440803 200.549218 
L 361.839152 198.014512 
L 362.237501 186.391532 
L 362.635851 178.658259 
L 363.0342 181.203458 
L 363.432549 186.119656 
L 363.830898 202.907876 
L 364.229247 239.069851 
L 364.627596 254.479189 
L 365.025945 255.723186 
L 365.424294 254.090205 
L 365.822644 260.337608 
L 366.220993 262.07679 
L 366.619342 268.087183 
L 367.017691 271.163705 
L 367.41604 281.189126 
L 367.814389 274.721156 
L 368.212738 273.308203 
L 368.611088 257.435186 
L 369.009437 227.953601 
L 369.407786 215.52403 
L 369.806135 218.213313 
L 370.204484 224.62314 
L 370.602833 222.744701 
L 371.001182 223.87086 
L 371.399532 226.70342 
L 371.797881 238.799889 
L 372.19623 235.712209 
L 372.594579 238.338578 
L 372.992928 238.848789 
L 373.391277 238.171771 
L 373.789626 239.310674 
L 374.984674 224.96409 
L 375.781372 211.860254 
L 376.179721 206.616409 
L 376.57807 206.051671 
L 376.976419 204.978562 
L 377.374769 202.556834 
L 377.773118 201.820715 
L 378.171467 205.809539 
L 378.569816 206.784515 
L 378.968165 212.115437 
L 379.366514 212.781247 
L 379.764863 209.36478 
L 380.163212 218.434159 
L 380.561562 222.931754 
L 380.959911 230.328891 
L 381.35826 231.482183 
L 381.756609 234.638568 
L 382.951656 224.549007 
L 383.350006 229.46482 
L 383.748355 229.994798 
L 384.146704 230.990074 
L 384.545053 226.456833 
L 385.341751 238.57591 
L 385.7401 235.130233 
L 386.13845 230.676347 
L 386.536799 228.311853 
L 386.935148 233.017878 
L 387.333497 239.205884 
L 387.731846 242.203925 
L 388.528544 233.441126 
L 388.926893 232.399756 
L 389.325243 238.951574 
L 390.121941 226.473847 
L 390.52029 224.635486 
L 390.918639 226.204662 
L 391.316988 227.095034 
L 391.715337 230.761827 
L 392.113687 231.191709 
L 392.512036 231.935824 
L 392.910385 236.883083 
L 393.308734 245.053555 
L 393.707083 257.161802 
L 394.503781 254.178856 
L 394.902131 255.917129 
L 395.698829 251.708063 
L 396.097178 251.274751 
L 396.495527 251.012046 
L 396.893876 254.091097 
L 397.292225 252.358982 
L 398.088924 245.171599 
L 398.487273 235.79981 
L 398.487273 235.79981 
" style="fill:none;opacity:0.6;stroke:#d62728;stroke-linecap:square;stroke-width:0.5;"/>
   </g>
   <g id="patch_3">
    <path d="M 57.6 307.584 
L 57.6 41.472 
" style="fill:none;stroke:#000000;stroke-linecap:square;stroke-linejoin:miter;stroke-width:0.8;"/>
   </g>
   <g id="patch_4">
    <path d="M 414.72 307.584 
L 414.72 41.472 
" style="fill:none;stroke:#000000;stroke-linecap:square;stroke-linejoin:miter;stroke-width:0.8;"/>
   </g>
   <g id="patch_5">
    <path d="M 57.6 307.584 
L 414.72 307.584 
" style="fill:none;stroke:#000000;stroke-linecap:square;stroke-linejoin:miter;stroke-width:0.8;"/>
   </g>
   <g id="patch_6">
    <path d="M 57.6 41.472 
L 414.72 41.472 
" style="fill:none;stroke:#000000;stroke-linecap:square;stroke-linejoin:miter;stroke-width:0.8;"/>
   </g>
  </g>
 </g>
 <defs>
  <clipPath id="p843ef689d2">
   <rect height="266.112" width="357.12" x="57.6" y="41.472"/>
  </clipPath>
 </defs>
</svg>
