<?xml version="1.0" encoding="utf-8" standalone="no"?>
<!DOCTYPE svg PUBLIC "-//W3C//DTD SVG 1.1//EN"
  "http://www.w3.org/Graphics/SVG/1.1/DTD/svg11.dtd">
<!-- Created with matplotlib (http://matplotlib.org/) -->
<svg height="345.6pt" version="1.1" viewBox="0 0 460.8 345.6" width="460.8pt" xmlns="http://www.w3.org/2000/svg" xmlns:xlink="http://www.w3.org/1999/xlink">
 <defs>
  <style type="text/css">
*{stroke-linecap:butt;stroke-linejoin:round;}
  </style>
 </defs>
 <g id="figure_1">
  <g id="patch_1">
   <path d="M 0 345.6 
L 460.8 345.6 
L 460.8 0 
L 0 0 
z
" style="fill:#ffffff;"/>
  </g>
  <g id="axes_1">
   <g id="patch_2">
    <path d="M 57.6 307.584 
L 414.72 307.584 
L 414.72 41.472 
L 57.6 41.472 
z
" style="fill:#ffffff;"/>
   </g>
   <g id="matplotlib.axis_1">
    <g id="xtick_1">
     <g id="line2d_1">
      <defs>
       <path d="M 0 0 
L 0 3.5 
" id="m4c43c1deb8" style="stroke:#000000;stroke-width:0.8;"/>
      </defs>
      <g>
       <use style="stroke:#000000;stroke-width:0.8;" x="73.832727" xlink:href="#m4c43c1deb8" y="307.584"/>
      </g>
     </g>
     <g id="text_1">
      <!-- 0 -->
      <defs>
       <path d="M 31.78125 66.40625 
Q 24.171875 66.40625 20.328125 58.90625 
Q 16.5 51.421875 16.5 36.375 
Q 16.5 21.390625 20.328125 13.890625 
Q 24.171875 6.390625 31.78125 6.390625 
Q 39.453125 6.390625 43.28125 13.890625 
Q 47.125 21.390625 47.125 36.375 
Q 47.125 51.421875 43.28125 58.90625 
Q 39.453125 66.40625 31.78125 66.40625 
z
M 31.78125 74.21875 
Q 44.046875 74.21875 50.515625 64.515625 
Q 56.984375 54.828125 56.984375 36.375 
Q 56.984375 17.96875 50.515625 8.265625 
Q 44.046875 -1.421875 31.78125 -1.421875 
Q 19.53125 -1.421875 13.0625 8.265625 
Q 6.59375 17.96875 6.59375 36.375 
Q 6.59375 54.828125 13.0625 64.515625 
Q 19.53125 74.21875 31.78125 74.21875 
z
" id="DejaVuSans-30"/>
      </defs>
      <g transform="translate(70.651477 322.182437)scale(0.1 -0.1)">
       <use xlink:href="#DejaVuSans-30"/>
      </g>
     </g>
    </g>
    <g id="xtick_2">
     <g id="line2d_2">
      <g>
       <use style="stroke:#000000;stroke-width:0.8;" x="113.667641" xlink:href="#m4c43c1deb8" y="307.584"/>
      </g>
     </g>
     <g id="text_2">
      <!-- 100 -->
      <defs>
       <path d="M 12.40625 8.296875 
L 28.515625 8.296875 
L 28.515625 63.921875 
L 10.984375 60.40625 
L 10.984375 69.390625 
L 28.421875 72.90625 
L 38.28125 72.90625 
L 38.28125 8.296875 
L 54.390625 8.296875 
L 54.390625 0 
L 12.40625 0 
z
" id="DejaVuSans-31"/>
      </defs>
      <g transform="translate(104.123891 322.182437)scale(0.1 -0.1)">
       <use xlink:href="#DejaVuSans-31"/>
       <use x="63.623047" xlink:href="#DejaVuSans-30"/>
       <use x="127.246094" xlink:href="#DejaVuSans-30"/>
      </g>
     </g>
    </g>
    <g id="xtick_3">
     <g id="line2d_3">
      <g>
       <use style="stroke:#000000;stroke-width:0.8;" x="153.502554" xlink:href="#m4c43c1deb8" y="307.584"/>
      </g>
     </g>
     <g id="text_3">
      <!-- 200 -->
      <defs>
       <path d="M 19.1875 8.296875 
L 53.609375 8.296875 
L 53.609375 0 
L 7.328125 0 
L 7.328125 8.296875 
Q 12.9375 14.109375 22.625 23.890625 
Q 32.328125 33.6875 34.8125 36.53125 
Q 39.546875 41.84375 41.421875 45.53125 
Q 43.3125 49.21875 43.3125 52.78125 
Q 43.3125 58.59375 39.234375 62.25 
Q 35.15625 65.921875 28.609375 65.921875 
Q 23.96875 65.921875 18.8125 64.3125 
Q 13.671875 62.703125 7.8125 59.421875 
L 7.8125 69.390625 
Q 13.765625 71.78125 18.9375 73 
Q 24.125 74.21875 28.421875 74.21875 
Q 39.75 74.21875 46.484375 68.546875 
Q 53.21875 62.890625 53.21875 53.421875 
Q 53.21875 48.921875 51.53125 44.890625 
Q 49.859375 40.875 45.40625 35.40625 
Q 44.1875 33.984375 37.640625 27.21875 
Q 31.109375 20.453125 19.1875 8.296875 
z
" id="DejaVuSans-32"/>
      </defs>
      <g transform="translate(143.958804 322.182437)scale(0.1 -0.1)">
       <use xlink:href="#DejaVuSans-32"/>
       <use x="63.623047" xlink:href="#DejaVuSans-30"/>
       <use x="127.246094" xlink:href="#DejaVuSans-30"/>
      </g>
     </g>
    </g>
    <g id="xtick_4">
     <g id="line2d_4">
      <g>
       <use style="stroke:#000000;stroke-width:0.8;" x="193.337468" xlink:href="#m4c43c1deb8" y="307.584"/>
      </g>
     </g>
     <g id="text_4">
      <!-- 300 -->
      <defs>
       <path d="M 40.578125 39.3125 
Q 47.65625 37.796875 51.625 33 
Q 55.609375 28.21875 55.609375 21.1875 
Q 55.609375 10.40625 48.1875 4.484375 
Q 40.765625 -1.421875 27.09375 -1.421875 
Q 22.515625 -1.421875 17.65625 -0.515625 
Q 12.796875 0.390625 7.625 2.203125 
L 7.625 11.71875 
Q 11.71875 9.328125 16.59375 8.109375 
Q 21.484375 6.890625 26.8125 6.890625 
Q 36.078125 6.890625 40.9375 10.546875 
Q 45.796875 14.203125 45.796875 21.1875 
Q 45.796875 27.640625 41.28125 31.265625 
Q 36.765625 34.90625 28.71875 34.90625 
L 20.21875 34.90625 
L 20.21875 43.015625 
L 29.109375 43.015625 
Q 36.375 43.015625 40.234375 45.921875 
Q 44.09375 48.828125 44.09375 54.296875 
Q 44.09375 59.90625 40.109375 62.90625 
Q 36.140625 65.921875 28.71875 65.921875 
Q 24.65625 65.921875 20.015625 65.03125 
Q 15.375 64.15625 9.8125 62.3125 
L 9.8125 71.09375 
Q 15.4375 72.65625 20.34375 73.4375 
Q 25.25 74.21875 29.59375 74.21875 
Q 40.828125 74.21875 47.359375 69.109375 
Q 53.90625 64.015625 53.90625 55.328125 
Q 53.90625 49.265625 50.4375 45.09375 
Q 46.96875 40.921875 40.578125 39.3125 
z
" id="DejaVuSans-33"/>
      </defs>
      <g transform="translate(183.793718 322.182437)scale(0.1 -0.1)">
       <use xlink:href="#DejaVuSans-33"/>
       <use x="63.623047" xlink:href="#DejaVuSans-30"/>
       <use x="127.246094" xlink:href="#DejaVuSans-30"/>
      </g>
     </g>
    </g>
    <g id="xtick_5">
     <g id="line2d_5">
      <g>
       <use style="stroke:#000000;stroke-width:0.8;" x="233.172381" xlink:href="#m4c43c1deb8" y="307.584"/>
      </g>
     </g>
     <g id="text_5">
      <!-- 400 -->
      <defs>
       <path d="M 37.796875 64.3125 
L 12.890625 25.390625 
L 37.796875 25.390625 
z
M 35.203125 72.90625 
L 47.609375 72.90625 
L 47.609375 25.390625 
L 58.015625 25.390625 
L 58.015625 17.1875 
L 47.609375 17.1875 
L 47.609375 0 
L 37.796875 0 
L 37.796875 17.1875 
L 4.890625 17.1875 
L 4.890625 26.703125 
z
" id="DejaVuSans-34"/>
      </defs>
      <g transform="translate(223.628631 322.182437)scale(0.1 -0.1)">
       <use xlink:href="#DejaVuSans-34"/>
       <use x="63.623047" xlink:href="#DejaVuSans-30"/>
       <use x="127.246094" xlink:href="#DejaVuSans-30"/>
      </g>
     </g>
    </g>
    <g id="xtick_6">
     <g id="line2d_6">
      <g>
       <use style="stroke:#000000;stroke-width:0.8;" x="273.007295" xlink:href="#m4c43c1deb8" y="307.584"/>
      </g>
     </g>
     <g id="text_6">
      <!-- 500 -->
      <defs>
       <path d="M 10.796875 72.90625 
L 49.515625 72.90625 
L 49.515625 64.59375 
L 19.828125 64.59375 
L 19.828125 46.734375 
Q 21.96875 47.46875 24.109375 47.828125 
Q 26.265625 48.1875 28.421875 48.1875 
Q 40.625 48.1875 47.75 41.5 
Q 54.890625 34.8125 54.890625 23.390625 
Q 54.890625 11.625 47.5625 5.09375 
Q 40.234375 -1.421875 26.90625 -1.421875 
Q 22.3125 -1.421875 17.546875 -0.640625 
Q 12.796875 0.140625 7.71875 1.703125 
L 7.71875 11.625 
Q 12.109375 9.234375 16.796875 8.0625 
Q 21.484375 6.890625 26.703125 6.890625 
Q 35.15625 6.890625 40.078125 11.328125 
Q 45.015625 15.765625 45.015625 23.390625 
Q 45.015625 31 40.078125 35.4375 
Q 35.15625 39.890625 26.703125 39.890625 
Q 22.75 39.890625 18.8125 39.015625 
Q 14.890625 38.140625 10.796875 36.28125 
z
" id="DejaVuSans-35"/>
      </defs>
      <g transform="translate(263.463545 322.182437)scale(0.1 -0.1)">
       <use xlink:href="#DejaVuSans-35"/>
       <use x="63.623047" xlink:href="#DejaVuSans-30"/>
       <use x="127.246094" xlink:href="#DejaVuSans-30"/>
      </g>
     </g>
    </g>
    <g id="xtick_7">
     <g id="line2d_7">
      <g>
       <use style="stroke:#000000;stroke-width:0.8;" x="312.842209" xlink:href="#m4c43c1deb8" y="307.584"/>
      </g>
     </g>
     <g id="text_7">
      <!-- 600 -->
      <defs>
       <path d="M 33.015625 40.375 
Q 26.375 40.375 22.484375 35.828125 
Q 18.609375 31.296875 18.609375 23.390625 
Q 18.609375 15.53125 22.484375 10.953125 
Q 26.375 6.390625 33.015625 6.390625 
Q 39.65625 6.390625 43.53125 10.953125 
Q 47.40625 15.53125 47.40625 23.390625 
Q 47.40625 31.296875 43.53125 35.828125 
Q 39.65625 40.375 33.015625 40.375 
z
M 52.59375 71.296875 
L 52.59375 62.3125 
Q 48.875 64.0625 45.09375 64.984375 
Q 41.3125 65.921875 37.59375 65.921875 
Q 27.828125 65.921875 22.671875 59.328125 
Q 17.53125 52.734375 16.796875 39.40625 
Q 19.671875 43.65625 24.015625 45.921875 
Q 28.375 48.1875 33.59375 48.1875 
Q 44.578125 48.1875 50.953125 41.515625 
Q 57.328125 34.859375 57.328125 23.390625 
Q 57.328125 12.15625 50.6875 5.359375 
Q 44.046875 -1.421875 33.015625 -1.421875 
Q 20.359375 -1.421875 13.671875 8.265625 
Q 6.984375 17.96875 6.984375 36.375 
Q 6.984375 53.65625 15.1875 63.9375 
Q 23.390625 74.21875 37.203125 74.21875 
Q 40.921875 74.21875 44.703125 73.484375 
Q 48.484375 72.75 52.59375 71.296875 
z
" id="DejaVuSans-36"/>
      </defs>
      <g transform="translate(303.298459 322.182437)scale(0.1 -0.1)">
       <use xlink:href="#DejaVuSans-36"/>
       <use x="63.623047" xlink:href="#DejaVuSans-30"/>
       <use x="127.246094" xlink:href="#DejaVuSans-30"/>
      </g>
     </g>
    </g>
    <g id="xtick_8">
     <g id="line2d_8">
      <g>
       <use style="stroke:#000000;stroke-width:0.8;" x="352.677122" xlink:href="#m4c43c1deb8" y="307.584"/>
      </g>
     </g>
     <g id="text_8">
      <!-- 700 -->
      <defs>
       <path d="M 8.203125 72.90625 
L 55.078125 72.90625 
L 55.078125 68.703125 
L 28.609375 0 
L 18.3125 0 
L 43.21875 64.59375 
L 8.203125 64.59375 
z
" id="DejaVuSans-37"/>
      </defs>
      <g transform="translate(343.133372 322.182437)scale(0.1 -0.1)">
       <use xlink:href="#DejaVuSans-37"/>
       <use x="63.623047" xlink:href="#DejaVuSans-30"/>
       <use x="127.246094" xlink:href="#DejaVuSans-30"/>
      </g>
     </g>
    </g>
    <g id="xtick_9">
     <g id="line2d_9">
      <g>
       <use style="stroke:#000000;stroke-width:0.8;" x="392.512036" xlink:href="#m4c43c1deb8" y="307.584"/>
      </g>
     </g>
     <g id="text_9">
      <!-- 800 -->
      <defs>
       <path d="M 31.78125 34.625 
Q 24.75 34.625 20.71875 30.859375 
Q 16.703125 27.09375 16.703125 20.515625 
Q 16.703125 13.921875 20.71875 10.15625 
Q 24.75 6.390625 31.78125 6.390625 
Q 38.8125 6.390625 42.859375 10.171875 
Q 46.921875 13.96875 46.921875 20.515625 
Q 46.921875 27.09375 42.890625 30.859375 
Q 38.875 34.625 31.78125 34.625 
z
M 21.921875 38.8125 
Q 15.578125 40.375 12.03125 44.71875 
Q 8.5 49.078125 8.5 55.328125 
Q 8.5 64.0625 14.71875 69.140625 
Q 20.953125 74.21875 31.78125 74.21875 
Q 42.671875 74.21875 48.875 69.140625 
Q 55.078125 64.0625 55.078125 55.328125 
Q 55.078125 49.078125 51.53125 44.71875 
Q 48 40.375 41.703125 38.8125 
Q 48.828125 37.15625 52.796875 32.3125 
Q 56.78125 27.484375 56.78125 20.515625 
Q 56.78125 9.90625 50.3125 4.234375 
Q 43.84375 -1.421875 31.78125 -1.421875 
Q 19.734375 -1.421875 13.25 4.234375 
Q 6.78125 9.90625 6.78125 20.515625 
Q 6.78125 27.484375 10.78125 32.3125 
Q 14.796875 37.15625 21.921875 38.8125 
z
M 18.3125 54.390625 
Q 18.3125 48.734375 21.84375 45.5625 
Q 25.390625 42.390625 31.78125 42.390625 
Q 38.140625 42.390625 41.71875 45.5625 
Q 45.3125 48.734375 45.3125 54.390625 
Q 45.3125 60.0625 41.71875 63.234375 
Q 38.140625 66.40625 31.78125 66.40625 
Q 25.390625 66.40625 21.84375 63.234375 
Q 18.3125 60.0625 18.3125 54.390625 
z
" id="DejaVuSans-38"/>
      </defs>
      <g transform="translate(382.968286 322.182437)scale(0.1 -0.1)">
       <use xlink:href="#DejaVuSans-38"/>
       <use x="63.623047" xlink:href="#DejaVuSans-30"/>
       <use x="127.246094" xlink:href="#DejaVuSans-30"/>
      </g>
     </g>
    </g>
   </g>
   <g id="matplotlib.axis_2">
    <g id="ytick_1">
     <g id="line2d_10">
      <defs>
       <path d="M 0 0 
L -3.5 0 
" id="m40a7ae1db1" style="stroke:#000000;stroke-width:0.8;"/>
      </defs>
      <g>
       <use style="stroke:#000000;stroke-width:0.8;" x="57.6" xlink:href="#m40a7ae1db1" y="288.776551"/>
      </g>
     </g>
     <g id="text_10">
      <!-- −2.5 -->
      <defs>
       <path d="M 10.59375 35.5 
L 73.1875 35.5 
L 73.1875 27.203125 
L 10.59375 27.203125 
z
" id="DejaVuSans-2212"/>
       <path d="M 10.6875 12.40625 
L 21 12.40625 
L 21 0 
L 10.6875 0 
z
" id="DejaVuSans-2e"/>
      </defs>
      <g transform="translate(26.317187 292.575769)scale(0.1 -0.1)">
       <use xlink:href="#DejaVuSans-2212"/>
       <use x="83.789062" xlink:href="#DejaVuSans-32"/>
       <use x="147.412109" xlink:href="#DejaVuSans-2e"/>
       <use x="179.199219" xlink:href="#DejaVuSans-35"/>
      </g>
     </g>
    </g>
    <g id="ytick_2">
     <g id="line2d_11">
      <g>
       <use style="stroke:#000000;stroke-width:0.8;" x="57.6" xlink:href="#m40a7ae1db1" y="254.403306"/>
      </g>
     </g>
     <g id="text_11">
      <!-- 0.0 -->
      <g transform="translate(34.696875 258.202524)scale(0.1 -0.1)">
       <use xlink:href="#DejaVuSans-30"/>
       <use x="63.623047" xlink:href="#DejaVuSans-2e"/>
       <use x="95.410156" xlink:href="#DejaVuSans-30"/>
      </g>
     </g>
    </g>
    <g id="ytick_3">
     <g id="line2d_12">
      <g>
       <use style="stroke:#000000;stroke-width:0.8;" x="57.6" xlink:href="#m40a7ae1db1" y="220.030061"/>
      </g>
     </g>
     <g id="text_12">
      <!-- 2.5 -->
      <g transform="translate(34.696875 223.829279)scale(0.1 -0.1)">
       <use xlink:href="#DejaVuSans-32"/>
       <use x="63.623047" xlink:href="#DejaVuSans-2e"/>
       <use x="95.410156" xlink:href="#DejaVuSans-35"/>
      </g>
     </g>
    </g>
    <g id="ytick_4">
     <g id="line2d_13">
      <g>
       <use style="stroke:#000000;stroke-width:0.8;" x="57.6" xlink:href="#m40a7ae1db1" y="185.656816"/>
      </g>
     </g>
     <g id="text_13">
      <!-- 5.0 -->
      <g transform="translate(34.696875 189.456034)scale(0.1 -0.1)">
       <use xlink:href="#DejaVuSans-35"/>
       <use x="63.623047" xlink:href="#DejaVuSans-2e"/>
       <use x="95.410156" xlink:href="#DejaVuSans-30"/>
      </g>
     </g>
    </g>
    <g id="ytick_5">
     <g id="line2d_14">
      <g>
       <use style="stroke:#000000;stroke-width:0.8;" x="57.6" xlink:href="#m40a7ae1db1" y="151.283571"/>
      </g>
     </g>
     <g id="text_14">
      <!-- 7.5 -->
      <g transform="translate(34.696875 155.082789)scale(0.1 -0.1)">
       <use xlink:href="#DejaVuSans-37"/>
       <use x="63.623047" xlink:href="#DejaVuSans-2e"/>
       <use x="95.410156" xlink:href="#DejaVuSans-35"/>
      </g>
     </g>
    </g>
    <g id="ytick_6">
     <g id="line2d_15">
      <g>
       <use style="stroke:#000000;stroke-width:0.8;" x="57.6" xlink:href="#m40a7ae1db1" y="116.910326"/>
      </g>
     </g>
     <g id="text_15">
      <!-- 10.0 -->
      <g transform="translate(28.334375 120.709544)scale(0.1 -0.1)">
       <use xlink:href="#DejaVuSans-31"/>
       <use x="63.623047" xlink:href="#DejaVuSans-30"/>
       <use x="127.246094" xlink:href="#DejaVuSans-2e"/>
       <use x="159.033203" xlink:href="#DejaVuSans-30"/>
      </g>
     </g>
    </g>
    <g id="ytick_7">
     <g id="line2d_16">
      <g>
       <use style="stroke:#000000;stroke-width:0.8;" x="57.6" xlink:href="#m40a7ae1db1" y="82.537081"/>
      </g>
     </g>
     <g id="text_16">
      <!-- 12.5 -->
      <g transform="translate(28.334375 86.336299)scale(0.1 -0.1)">
       <use xlink:href="#DejaVuSans-31"/>
       <use x="63.623047" xlink:href="#DejaVuSans-32"/>
       <use x="127.246094" xlink:href="#DejaVuSans-2e"/>
       <use x="159.033203" xlink:href="#DejaVuSans-35"/>
      </g>
     </g>
    </g>
    <g id="ytick_8">
     <g id="line2d_17">
      <g>
       <use style="stroke:#000000;stroke-width:0.8;" x="57.6" xlink:href="#m40a7ae1db1" y="48.163836"/>
      </g>
     </g>
     <g id="text_17">
      <!-- 15.0 -->
      <g transform="translate(28.334375 51.963055)scale(0.1 -0.1)">
       <use xlink:href="#DejaVuSans-31"/>
       <use x="63.623047" xlink:href="#DejaVuSans-35"/>
       <use x="127.246094" xlink:href="#DejaVuSans-2e"/>
       <use x="159.033203" xlink:href="#DejaVuSans-30"/>
      </g>
     </g>
    </g>
   </g>
   <g id="line2d_18">
    <path clip-path="url(#pcdb4a67602)" d="M 73.832727 124.033008 
L 74.231076 160.658116 
L 75.027775 125.366547 
L 75.426124 125.503637 
L 75.824473 120.188427 
L 76.222822 129.800293 
L 76.621171 162.901862 
L 77.01952 170.383135 
L 77.417869 188.816952 
L 77.816219 216.814512 
L 78.214568 235.242559 
L 78.612917 240.462341 
L 79.011266 230.415181 
L 79.409615 248.631074 
L 79.807964 260.129755 
L 80.206313 267.497861 
L 80.604663 293.847979 
L 81.003012 295.488 
L 81.401361 288.833055 
L 81.79971 290.600528 
L 82.198059 280.581557 
L 82.596408 279.557921 
L 82.994757 283.035802 
L 83.393107 271.654687 
L 83.791456 269.929429 
L 84.189805 269.922965 
L 84.986503 256.702462 
L 85.384852 232.938178 
L 85.783201 225.396412 
L 86.18155 220.247162 
L 86.5799 206.190704 
L 86.978249 202.190758 
L 88.173296 125.121412 
L 88.571645 124.122251 
L 88.969994 122.433275 
L 89.368344 125.991731 
L 90.165042 149.298583 
L 90.563391 160.089997 
L 90.96174 158.937808 
L 91.360089 161.244802 
L 91.758438 158.270002 
L 92.156788 172.391908 
L 92.953486 223.529944 
L 93.351835 227.308526 
L 93.750184 225.758982 
L 94.148533 229.010276 
L 94.546882 222.58853 
L 94.945231 213.542731 
L 95.343581 210.273697 
L 95.74193 222.71076 
L 96.140279 226.547365 
L 96.936977 241.936956 
L 97.335326 244.526636 
L 97.733675 245.032334 
L 98.132025 241.899144 
L 98.530374 242.451865 
L 98.928723 242.456402 
L 99.327072 241.965141 
L 99.725421 248.734606 
L 100.12377 246.160878 
L 100.522119 240.979315 
L 100.920468 241.009428 
L 101.318818 246.160878 
L 101.717167 246.167063 
L 102.115516 238.919811 
L 102.513865 233.719963 
L 102.912214 238.914035 
L 103.310563 245.645828 
L 103.708912 242.559387 
L 104.107262 245.671951 
L 104.505611 250.810754 
L 105.302309 258.493858 
L 105.700658 266.137369 
L 106.099007 257.987885 
L 106.497356 259.520244 
L 106.895706 263.079523 
L 107.294055 263.063441 
L 107.692404 261.551154 
L 108.090753 257.986508 
L 108.887451 266.141769 
L 109.2858 259.522165 
L 109.684149 261.060306 
L 110.082499 252.351911 
L 110.480848 249.257632 
L 111.277546 249.267256 
L 111.675895 251.321677 
L 112.074244 252.352737 
L 112.472593 249.271105 
L 112.870943 247.218195 
L 113.269292 241.049437 
L 113.667641 231.753812 
L 114.06599 227.171859 
L 114.464339 224.043755 
L 114.862688 228.799363 
L 115.261037 219.030349 
L 115.659387 222.178388 
L 116.057736 215.51438 
L 116.854434 206.28585 
L 117.651132 203.347625 
L 118.049481 205.062438 
L 118.44783 205.787027 
L 118.84618 209.059359 
L 119.244529 205.568411 
L 119.642878 205.639772 
L 120.041227 213.920147 
L 120.439576 209.421928 
L 120.837925 212.603103 
L 121.236274 206.203767 
L 121.634624 209.89119 
L 122.032973 204.55839 
L 122.431322 204.68337 
L 122.829671 208.244986 
L 123.22802 215.273355 
L 123.626369 220.261736 
L 124.024718 222.315193 
L 124.423067 225.758982 
L 124.821417 225.758982 
L 125.618115 230.256376 
L 126.016464 236.640589 
L 126.414813 240.031164 
L 126.813162 249.640824 
L 127.211511 252.502877 
L 127.609861 249.652373 
L 128.00821 244.891543 
L 128.406559 242.029349 
L 128.804908 243.001014 
L 129.601606 233.477424 
L 129.999955 235.406038 
L 130.398305 233.520734 
L 130.796654 237.341116 
L 131.195003 234.964686 
L 131.593352 233.520734 
L 131.991701 227.834575 
L 132.788399 230.787238 
L 133.186748 235.536381 
L 133.585098 234.1422 
L 133.983447 237.481084 
L 134.780145 234.259484 
L 135.178494 235.70316 
L 135.576843 232.400716 
L 135.975192 234.300594 
L 136.373542 234.300594 
L 136.771891 241.836309 
L 137.17024 241.848959 
L 137.568589 243.723403 
L 137.966938 237.187534 
L 138.365287 239.07985 
L 138.763636 237.222456 
L 139.161985 243.773587 
L 139.560335 245.169413 
L 140.357033 245.187977 
L 141.55208 235.954085 
L 141.950429 235.972645 
L 142.348779 237.354864 
L 142.747128 240.617296 
L 143.145477 238.789605 
L 143.543826 234.224146 
L 143.942175 236.058715 
L 144.340524 236.058715 
L 144.738873 237.451522 
L 145.137223 236.095292 
L 145.933921 238.908534 
L 146.33227 242.115009 
L 146.730619 242.127108 
L 147.128968 236.198411 
L 147.527317 233.019572 
L 147.925666 233.061918 
L 148.324016 240.843884 
L 148.722365 237.657897 
L 149.120714 236.300153 
L 149.519063 231.774436 
L 149.917412 231.818982 
L 150.315761 235.006344 
L 150.71411 235.025458 
L 151.11246 233.202025 
L 151.510809 233.222785 
L 152.307507 239.619099 
L 152.705856 240.989353 
L 153.104205 238.290778 
L 153.502554 237.85946 
L 153.900904 235.195398 
L 154.299253 237.929035 
L 154.697602 239.294201 
L 155.095951 237.94512 
L 155.4943 237.961068 
L 156.290998 232.212764 
L 156.689347 227.800337 
L 157.087697 229.581836 
L 157.486046 232.262674 
L 157.884395 230.514588 
L 158.282744 230.98715 
L 158.681093 230.614133 
L 159.079442 228.004654 
L 159.477791 228.029953 
L 159.876141 219.238927 
L 160.27449 216.19868 
L 160.672839 214.969358 
L 161.071188 216.404921 
L 161.469537 220.91084 
L 161.867886 216.525227 
L 162.266235 206.465965 
L 162.664584 205.267578 
L 163.062934 202.273254 
L 163.859632 208.21254 
L 164.257981 210.412426 
L 165.054679 219.367756 
L 165.453028 219.476375 
L 165.851378 222.527072 
L 166.249727 215.337976 
L 166.648076 214.151134 
L 167.046425 218.608796 
L 167.843123 218.826724 
L 168.241472 211.750371 
L 168.639822 209.29626 
L 169.038171 204.253842 
L 169.43652 204.405909 
L 169.834869 200.239459 
L 170.233218 200.403075 
L 170.631567 196.249138 
L 171.029916 196.59851 
L 171.428265 192.654931 
L 172.224964 193.02245 
L 172.623313 189.124803 
L 173.021662 193.565688 
L 173.420011 189.700757 
L 174.216709 190.07914 
L 174.615059 182.249604 
L 175.013408 178.462356 
L 175.411757 178.682487 
L 176.208455 179.550341 
L 176.606804 179.764282 
L 177.005153 176.059669 
L 177.403503 176.503633 
L 177.801852 172.839721 
L 178.200201 173.297847 
L 178.996899 166.069839 
L 179.395248 170.612607 
L 179.793597 171.074175 
L 180.191946 171.303097 
L 180.590296 171.757237 
L 180.988645 175.942661 
L 181.386994 176.155225 
L 182.98039 177.815727 
L 183.37874 181.84771 
L 183.777089 189.445984 
L 184.573787 197.263424 
L 184.972136 193.849335 
L 185.370485 194.161579 
L 186.167183 194.470526 
L 187.76058 209.493561 
L 188.158929 209.606029 
L 188.557278 202.714196 
L 188.955627 206.280763 
L 189.353977 206.400793 
L 190.150675 213.664686 
L 190.947373 213.864875 
L 191.345722 210.59433 
L 191.744071 210.701438 
L 192.142421 207.454541 
L 192.54077 207.568658 
L 193.337468 201.265983 
L 193.735817 187.981544 
L 194.134166 181.515528 
L 194.532515 178.385498 
L 194.930864 171.973512 
L 195.329214 175.459923 
L 195.727563 152.678161 
L 196.125912 153.16145 
L 196.524261 143.626993 
L 196.92261 140.906704 
L 197.719308 122.384339 
L 198.117658 116.910326 
L 198.516007 115.009467 
L 198.914356 115.966433 
L 199.312705 107.201245 
L 199.711054 105.089632 
L 200.109403 95.757584 
L 200.507752 104.688695 
L 200.906102 90.141812 
L 201.304451 91.582611 
L 201.7028 86.655815 
L 202.101149 88.105136 
L 202.499498 92.81963 
L 202.897847 100.341465 
L 203.296196 110.582213 
L 203.694545 114.337695 
L 204.092895 127.094978 
L 204.491244 128.13429 
L 204.889593 123.324784 
L 205.686291 145.713181 
L 206.881339 156.383332 
L 207.678037 168.143512 
L 208.474735 173.982836 
L 208.873084 168.955678 
L 209.271433 172.164494 
L 209.669782 178.018254 
L 210.068132 175.763369 
L 210.466481 178.857648 
L 210.86483 179.270543 
L 211.263179 184.786621 
L 211.661528 185.162251 
L 212.059877 182.946414 
L 212.458226 170.776086 
L 212.856576 166.014984 
L 213.254925 158.819974 
L 213.653274 161.766175 
L 214.848321 163.22126 
L 215.24667 166.083175 
L 215.64502 166.540756 
L 216.043369 162.110315 
L 216.441718 162.584393 
L 216.840067 160.711326 
L 217.238416 168.615111 
L 218.035114 165.032869 
L 218.433463 156.193996 
L 219.230162 148.117659 
L 219.628511 146.389241 
L 220.02686 137.769797 
L 220.425209 131.641739 
L 220.823558 132.433699 
L 221.221907 130.814166 
L 221.620257 127.216805 
L 222.018606 119.092746 
L 222.416955 113.440417 
L 223.213653 107.317853 
L 224.408701 91.664969 
L 224.80705 91.065774 
L 225.205399 88.428107 
L 226.002097 72.159244 
L 226.400446 63.719649 
L 226.798795 59.68781 
L 227.197144 53.769838 
L 227.595494 53.811496 
L 228.392192 58.256781 
L 228.790541 73.590693 
L 229.18889 77.173617 
L 229.985588 80.708694 
L 230.383938 80.727943 
L 230.782287 84.548463 
L 231.180636 92.232118 
L 231.578985 97.765662 
L 231.977334 108.499329 
L 232.774032 119.771284 
L 233.172381 121.076776 
L 233.570731 106.25709 
L 233.96908 105.672882 
L 234.367429 103.636206 
L 236.757524 159.741038 
L 237.155873 163.358618 
L 237.952571 155.651446 
L 238.749269 172.384755 
L 239.147619 186.469126 
L 239.545968 185.215185 
L 240.342666 201.80234 
L 240.741015 203.425997 
L 241.139364 206.491265 
L 241.537713 205.039338 
L 241.936062 199.406114 
L 242.334412 207.09087 
L 242.732761 220.384379 
L 243.13111 221.969125 
L 243.529459 220.628154 
L 243.927808 216.406295 
L 244.326157 216.56125 
L 244.724506 210.910564 
L 245.521205 195.417579 
L 245.919554 189.86575 
L 246.317903 187.128402 
L 246.716252 191.77993 
L 247.114601 194.804498 
L 247.51295 194.92439 
L 249.106347 195.750587 
L 249.903045 198.809534 
L 250.301394 205.923969 
L 250.699743 204.820037 
L 251.098093 202.292228 
L 251.496442 205.15607 
L 251.894791 205.251217 
L 252.29314 204.020105 
L 252.691489 206.855346 
L 253.488187 209.754248 
L 253.886537 209.92419 
L 254.683235 202.273254 
L 255.081584 199.770332 
L 255.479933 210.426315 
L 255.878282 224.793369 
L 256.276631 232.558558 
L 257.07333 230.102247 
L 257.870028 232.740873 
L 258.268377 230.237127 
L 258.666726 232.860632 
L 259.065075 236.743707 
L 259.463424 238.080004 
L 259.861774 235.637166 
L 260.260123 228.082887 
L 261.056821 203.80795 
L 261.45517 203.947233 
L 261.853519 202.874924 
L 262.251868 200.410638 
L 262.650218 195.441915 
L 263.048567 195.656269 
L 263.446916 194.515213 
L 263.845265 192.132875 
L 265.040312 200.291568 
L 265.438661 201.709947 
L 265.837011 199.503735 
L 266.633709 199.890638 
L 267.032058 197.618015 
L 267.430407 197.86633 
L 268.227105 195.819335 
L 268.625455 196.022412 
L 269.023804 193.744705 
L 269.422153 192.768503 
L 269.820502 190.508117 
L 270.218851 187.132113 
L 270.6172 185.187551 
L 271.015549 181.853761 
L 271.812248 184.786621 
L 272.210597 190.856113 
L 272.608946 193.423105 
L 273.007295 191.333074 
L 273.405644 190.399914 
L 273.803993 190.612065 
L 274.202342 182.93418 
L 274.600692 182.038547 
L 274.999041 182.393833 
L 275.39739 189.62184 
L 275.795739 194.382122 
L 276.194088 190.143902 
L 276.592437 188.141587 
L 276.990786 175.993674 
L 277.389136 169.571926 
L 277.787485 166.688421 
L 278.185834 169.221039 
L 278.584183 168.402134 
L 278.982532 176.760196 
L 279.380881 181.36016 
L 279.77923 188.11588 
L 280.177579 188.270147 
L 280.575929 185.177513 
L 281.372627 194.34885 
L 281.770976 202.164359 
L 282.169325 207.707528 
L 282.567674 215.237332 
L 282.966023 212.24012 
L 283.364373 213.421737 
L 283.762722 217.656794 
L 284.161071 215.644172 
L 284.55942 210.544283 
L 284.957769 210.641626 
L 285.356118 212.830927 
L 285.754467 212.95316 
L 286.152817 210.995122 
L 286.949515 213.25578 
L 287.347864 209.307257 
L 288.144562 213.613125 
L 288.542911 209.665841 
L 288.94126 209.762771 
L 289.33961 212.888539 
L 289.737959 211.005297 
L 290.136308 210.114205 
L 290.534657 213.184836 
L 290.933006 215.259328 
L 291.331355 215.342788 
L 291.729704 216.400247 
L 292.526403 216.66767 
L 292.924752 215.754578 
L 293.323101 220.704052 
L 293.72145 219.813923 
L 294.119799 217.943194 
L 294.518148 221.894604 
L 294.916497 222.938174 
L 296.111545 214.522781 
L 296.509894 213.629489 
L 296.908243 218.519151 
L 297.704941 218.69088 
L 298.103291 214.931683 
L 298.50164 215.039204 
L 298.899989 216.080987 
L 299.298338 211.436749 
L 299.696687 211.524196 
L 300.095036 212.569693 
L 300.891735 218.415206 
L 301.290084 219.408456 
L 301.688433 216.670971 
L 302.086782 218.60742 
L 302.485131 219.594894 
L 302.88348 216.03314 
L 303.281829 217.04605 
L 303.680178 215.301402 
L 304.476877 215.532802 
L 304.875226 215.609385 
L 305.273575 214.759131 
L 305.671924 215.736155 
L 306.070273 213.092577 
L 306.468622 212.304469 
L 306.866972 209.675603 
L 307.265321 207.946903 
L 307.66367 212.631013 
L 308.062019 212.71186 
L 309.257066 223.63444 
L 309.655416 223.693285 
L 310.053765 224.627687 
L 310.452114 222.916312 
L 310.850463 223.888115 
L 311.248812 225.722684 
L 312.04551 231.070061 
L 312.443859 231.976551 
L 312.842209 234.601565 
L 313.240558 235.474373 
L 313.638907 234.626315 
L 314.037256 231.186789 
L 314.435605 232.088609 
L 314.833954 230.401981 
L 315.232303 232.171791 
L 315.630653 234.785807 
L 316.029002 233.970888 
L 316.427351 233.996185 
L 316.8257 232.309284 
L 317.224049 231.487764 
L 317.622398 231.487764 
L 318.020747 230.639019 
L 318.419096 223.039368 
L 318.817446 225.653247 
L 319.215795 227.377684 
L 319.614144 224.916425 
L 320.012493 223.269671 
L 320.410842 218.243063 
L 320.809191 219.170179 
L 321.60589 217.604685 
L 322.004239 216.002067 
L 322.402588 210.158479 
L 322.800937 202.676521 
L 323.199286 212.964847 
L 323.597635 211.333218 
L 323.995984 203.050502 
L 324.394334 204.915731 
L 324.792683 208.325421 
L 325.191032 206.878856 
L 326.386079 207.160444 
L 326.784428 203.239418 
L 327.182777 205.876397 
L 327.581127 213.396574 
L 327.979476 210.154489 
L 328.377825 205.413456 
L 328.776174 210.488598 
L 329.174523 216.984868 
L 329.572872 216.984868 
L 329.971221 218.762788 
L 330.369571 225.149474 
L 331.166269 232.353969 
L 331.564618 237.960521 
L 331.962967 238.779154 
L 332.759665 231.799597 
L 333.158015 237.342765 
L 333.556364 239.702284 
L 333.954713 234.252197 
L 334.353062 230.376956 
L 334.751411 233.559369 
L 335.14976 226.533066 
L 336.344808 216.490165 
L 336.743157 211.147052 
L 337.141506 212.808793 
L 337.539855 224.496797 
L 337.938204 228.360074 
L 338.336553 227.60895 
L 338.734902 226.140797 
L 339.531601 221.703076 
L 339.92995 226.328064 
L 340.328299 227.889574 
L 340.726648 226.420733 
L 341.124997 226.543241 
L 341.523346 231.188304 
L 341.921695 230.478427 
L 342.718394 214.561141 
L 343.116743 210.850067 
L 343.515092 213.986145 
L 343.913441 219.377931 
L 344.31179 219.4915 
L 344.710139 210.530532 
L 345.108489 204.608574 
L 345.506838 208.448752 
L 345.905187 215.288339 
L 346.701885 210.311506 
L 347.100234 208.181054 
L 347.498583 214.952581 
L 347.896933 219.465928 
L 348.693631 204.260579 
L 349.09198 189.206474 
L 349.490329 194.592484 
L 349.888678 208.500586 
L 350.287027 208.500586 
L 350.685376 199.147768 
L 351.083726 204.379921 
L 351.482075 207.409303 
L 351.880424 204.715541 
L 352.278773 199.718637 
L 352.677122 196.907594 
L 353.075471 197.966974 
L 353.47382 200.415725 
L 353.87217 226.738756 
L 354.270519 235.067257 
L 355.067217 219.700354 
L 355.465566 225.862927 
L 356.262264 215.930021 
L 356.660613 218.752475 
L 357.058963 217.144222 
L 357.457312 217.379608 
L 358.25401 228.314701 
L 359.050708 204.758717 
L 359.449057 194.273913 
L 359.847407 197.910053 
L 360.245756 195.354194 
L 361.042454 199.751221 
L 361.440803 200.729347 
L 361.839152 198.19054 
L 362.237501 186.537186 
L 362.635851 178.816403 
L 363.0342 181.421755 
L 363.432549 186.298633 
L 363.830898 203.103849 
L 364.229247 239.280177 
L 364.627596 254.708955 
L 365.025945 255.965088 
L 365.424294 254.286986 
L 365.822644 260.542089 
L 366.220993 262.3273 
L 366.619342 268.369295 
L 367.017691 271.303531 
L 367.41604 281.334881 
L 367.814389 274.805061 
L 368.212738 273.349012 
L 368.611088 257.482735 
L 369.009437 228.079037 
L 369.407786 215.71113 
L 369.806135 218.364884 
L 370.204484 224.823891 
L 370.602833 222.970073 
L 371.001182 224.061768 
L 371.399532 226.855899 
L 371.797881 238.982645 
L 372.19623 235.968522 
L 372.594579 238.589137 
L 372.992928 239.027329 
L 373.391277 238.361998 
L 373.789626 239.49164 
L 374.984674 225.187421 
L 375.781372 212.093554 
L 376.179721 206.844895 
L 376.57807 206.248864 
L 376.976419 205.182469 
L 377.374769 202.77469 
L 377.773118 201.982458 
L 378.171467 205.974566 
L 378.569816 206.948565 
L 378.968165 212.301994 
L 379.366514 213.03483 
L 379.764863 214.555365 
L 380.561562 223.148952 
L 380.959911 230.507851 
L 381.35826 231.663754 
L 381.756609 234.913538 
L 382.951656 224.76422 
L 383.350006 229.709291 
L 383.748355 230.211414 
L 384.146704 231.248663 
L 384.545053 226.655296 
L 385.341751 238.745469 
L 385.7401 235.286417 
L 386.13845 230.812397 
L 386.536799 228.479416 
L 386.935148 233.245748 
L 387.333497 239.351535 
L 387.731846 242.34792 
L 388.528544 233.602817 
L 388.926893 232.635003 
L 389.325243 239.145159 
L 390.121941 226.726382 
L 390.52029 224.91175 
L 390.918639 226.348139 
L 391.316988 227.335611 
L 391.715337 230.945629 
L 392.113687 231.395918 
L 392.512036 232.173168 
L 392.910385 237.124153 
L 393.308734 245.317907 
L 393.707083 257.38869 
L 394.503781 254.403309 
L 394.902131 256.135992 
L 395.698829 251.910693 
L 396.097178 251.462192 
L 396.495527 251.218414 
L 396.893876 254.31641 
L 397.292225 252.567776 
L 398.088924 245.342654 
L 398.487273 235.937173 
L 398.487273 235.937173 
" style="fill:none;opacity:0.6;stroke:#1f77b4;stroke-linecap:square;stroke-width:0.5;"/>
   </g>
   <g id="line2d_19">
    <path clip-path="url(#pcdb4a67602)" d="M 379.764863 226.784319 
L 380.163212 224.252232 
L 380.561562 227.050975 
L 380.959911 231.231589 
L 381.35826 232.375457 
L 382.154958 237.579525 
L 382.553307 243.524026 
L 382.951656 252.434824 
L 383.350006 254.559241 
L 383.748355 252.038755 
L 384.146704 252.451676 
L 384.545053 254.534967 
L 384.943402 257.534706 
L 385.341751 258.883718 
L 385.7401 256.043192 
L 386.13845 257.409578 
L 386.536799 255.718478 
L 386.935148 254.906443 
L 387.333497 250.151684 
L 388.130195 242.948879 
L 388.528544 246.14924 
L 388.926893 233.927315 
L 389.325243 231.20279 
L 389.723592 235.485554 
L 390.121941 234.910768 
L 390.52029 231.929829 
L 390.918639 230.246122 
L 391.316988 232.82999 
L 391.715337 236.232214 
L 392.113687 227.856588 
L 392.512036 223.67831 
L 392.910385 214.444802 
L 393.308734 218.972566 
L 393.707083 219.999791 
L 394.105432 211.749577 
L 394.503781 210.048168 
L 394.902131 221.922757 
L 395.698829 216.284491 
L 396.495527 221.92275 
L 398.088924 241.764014 
L 398.487273 231.228541 
L 398.487273 231.228541 
" style="fill:none;opacity:0.8;stroke:#ff7f0e;stroke-linecap:square;stroke-width:0.5;"/>
   </g>
   <g id="line2d_20">
    <path clip-path="url(#pcdb4a67602)" d="M 73.832727 124.033008 
L 74.231076 160.658116 
L 75.027775 125.366547 
L 75.426124 125.503637 
L 75.824473 120.188427 
L 76.222822 129.800293 
L 76.621171 162.901862 
L 77.01952 170.383135 
L 77.417869 188.816952 
L 77.816219 216.814512 
L 78.214568 235.242559 
L 78.612917 240.462341 
L 79.011266 230.415181 
L 79.409615 248.631074 
L 79.807964 260.129755 
L 80.206313 267.497861 
L 80.604663 293.847979 
L 81.003012 295.488 
L 81.401361 288.833055 
L 81.79971 290.600528 
L 82.198059 280.581557 
L 82.596408 279.557921 
L 82.994757 283.035802 
L 83.393107 271.654687 
L 83.791456 269.929429 
L 84.189805 269.922965 
L 84.986503 256.702462 
L 85.384852 232.938178 
L 85.783201 225.396412 
L 86.18155 220.247162 
L 86.5799 206.190704 
L 86.978249 202.190758 
L 88.173296 125.121412 
L 88.571645 124.122251 
L 88.969994 122.433275 
L 89.368344 125.991731 
L 90.165042 149.298583 
L 90.563391 160.089997 
L 90.96174 158.937808 
L 91.360089 161.244802 
L 91.758438 158.270002 
L 92.156788 172.391908 
L 92.953486 223.529944 
L 93.351835 227.308526 
L 93.750184 225.758982 
L 94.148533 229.010276 
L 94.546882 222.58853 
L 94.945231 213.542731 
L 95.343581 210.273697 
L 95.74193 222.71076 
L 96.140279 226.547365 
L 96.936977 241.936956 
L 97.335326 244.526636 
L 97.733675 245.032334 
L 98.132025 241.899144 
L 98.530374 242.451865 
L 98.928723 242.456402 
L 99.327072 241.965141 
L 99.725421 248.734606 
L 100.12377 246.160878 
L 100.522119 240.979315 
L 100.920468 241.009428 
L 101.318818 246.160878 
L 101.717167 246.167063 
L 102.115516 238.919811 
L 102.513865 233.719963 
L 102.912214 238.914035 
L 103.310563 245.645828 
L 103.708912 242.559387 
L 104.107262 245.671951 
L 104.505611 250.810754 
L 105.302309 258.493858 
L 105.700658 266.137369 
L 106.099007 257.987885 
L 106.497356 259.520244 
L 106.895706 263.079523 
L 107.294055 263.063441 
L 107.692404 261.551154 
L 108.090753 257.986508 
L 108.887451 266.141769 
L 109.2858 259.522165 
L 109.684149 261.060306 
L 110.082499 252.351911 
L 110.480848 249.257632 
L 111.277546 249.267256 
L 111.675895 251.321677 
L 112.074244 252.352737 
L 112.472593 249.271105 
L 112.870943 247.218195 
L 113.269292 241.049437 
L 113.667641 231.753812 
L 114.06599 227.171859 
L 114.464339 224.043755 
L 114.862688 228.799363 
L 115.261037 219.030349 
L 115.659387 222.178388 
L 116.057736 215.51438 
L 116.854434 206.28585 
L 117.651132 203.347625 
L 118.049481 205.062438 
L 118.44783 205.787027 
L 118.84618 209.059359 
L 119.244529 205.568411 
L 119.642878 205.639772 
L 120.041227 213.920147 
L 120.439576 209.421928 
L 120.837925 212.603103 
L 121.236274 206.203767 
L 121.634624 209.89119 
L 122.032973 204.55839 
L 122.431322 204.68337 
L 122.829671 208.244986 
L 123.22802 215.273355 
L 123.626369 220.261736 
L 124.024718 222.315193 
L 124.423067 225.758982 
L 124.821417 225.758982 
L 125.618115 230.256376 
L 126.016464 236.640589 
L 126.414813 240.031164 
L 126.813162 249.640824 
L 127.211511 252.502877 
L 127.609861 249.652373 
L 128.00821 244.891543 
L 128.406559 242.029349 
L 128.804908 243.001014 
L 129.601606 233.477424 
L 129.999955 235.406038 
L 130.398305 233.520734 
L 130.796654 237.341116 
L 131.195003 234.964686 
L 131.593352 233.520734 
L 131.991701 227.834575 
L 132.788399 230.787238 
L 133.186748 235.536381 
L 133.585098 234.1422 
L 133.983447 237.481084 
L 134.780145 234.259484 
L 135.178494 235.70316 
L 135.576843 232.400716 
L 135.975192 234.300594 
L 136.373542 234.300594 
L 136.771891 241.836309 
L 137.17024 241.848959 
L 137.568589 243.723403 
L 137.966938 237.187534 
L 138.365287 239.07985 
L 138.763636 237.222456 
L 139.161985 243.773587 
L 139.560335 245.169413 
L 140.357033 245.187977 
L 141.55208 235.954085 
L 141.950429 235.972645 
L 142.348779 237.354864 
L 142.747128 240.617296 
L 143.145477 238.789605 
L 143.543826 234.224146 
L 143.942175 236.058715 
L 144.340524 236.058715 
L 144.738873 237.451522 
L 145.137223 236.095292 
L 145.933921 238.908534 
L 146.33227 242.115009 
L 146.730619 242.127108 
L 147.128968 236.198411 
L 147.527317 233.019572 
L 147.925666 233.061918 
L 148.324016 240.843884 
L 148.722365 237.657897 
L 149.120714 236.300153 
L 149.519063 231.774436 
L 149.917412 231.818982 
L 150.315761 235.006344 
L 150.71411 235.025458 
L 151.11246 233.202025 
L 151.510809 233.222785 
L 152.307507 239.619099 
L 152.705856 240.989353 
L 153.104205 238.290778 
L 153.502554 237.85946 
L 153.900904 235.195398 
L 154.299253 237.929035 
L 154.697602 239.294201 
L 155.095951 237.94512 
L 155.4943 237.961068 
L 156.290998 232.212764 
L 156.689347 227.800337 
L 157.087697 229.581836 
L 157.486046 232.262674 
L 157.884395 230.514588 
L 158.282744 230.98715 
L 158.681093 230.614133 
L 159.079442 228.004654 
L 159.477791 228.029953 
L 159.876141 219.238927 
L 160.27449 216.19868 
L 160.672839 214.969358 
L 161.071188 216.404921 
L 161.469537 220.91084 
L 161.867886 216.525227 
L 162.266235 206.465965 
L 162.664584 205.267578 
L 163.062934 202.273254 
L 163.859632 208.21254 
L 164.257981 210.412426 
L 165.054679 219.367756 
L 165.453028 219.476375 
L 165.851378 222.527072 
L 166.249727 215.337976 
L 166.648076 214.151134 
L 167.046425 218.608796 
L 167.843123 218.826724 
L 168.241472 211.750371 
L 168.639822 209.29626 
L 169.038171 204.253842 
L 169.43652 204.405909 
L 169.834869 200.239459 
L 170.233218 200.403075 
L 170.631567 196.249138 
L 171.029916 196.59851 
L 171.428265 192.654931 
L 172.224964 193.02245 
L 172.623313 189.124803 
L 173.021662 193.565688 
L 173.420011 189.700757 
L 174.216709 190.07914 
L 174.615059 182.249604 
L 175.013408 178.462356 
L 175.411757 178.682487 
L 176.208455 179.550341 
L 176.606804 179.764282 
L 177.005153 176.059669 
L 177.403503 176.503633 
L 177.801852 172.839721 
L 178.200201 173.297847 
L 178.996899 166.069839 
L 179.395248 170.612607 
L 179.793597 171.074175 
L 180.191946 171.303097 
L 180.590296 171.757237 
L 180.988645 175.942661 
L 181.386994 176.155225 
L 182.98039 177.815727 
L 183.37874 181.84771 
L 183.777089 189.445984 
L 184.573787 197.263424 
L 184.972136 193.849335 
L 185.370485 194.161579 
L 186.167183 194.470526 
L 187.76058 209.493561 
L 188.158929 209.606029 
L 188.557278 202.714196 
L 188.955627 206.280763 
L 189.353977 206.400793 
L 190.150675 213.664686 
L 190.947373 213.864875 
L 191.345722 210.59433 
L 191.744071 210.701438 
L 192.142421 207.454541 
L 192.54077 207.568658 
L 193.337468 201.265983 
L 193.735817 187.981544 
L 194.134166 181.515528 
L 194.532515 178.385498 
L 194.930864 171.973512 
L 195.329214 175.459923 
L 195.727563 152.678161 
L 196.125912 153.16145 
L 196.524261 143.626993 
L 196.92261 140.906704 
L 197.719308 122.384339 
L 198.117658 116.910326 
L 198.516007 115.009467 
L 198.914356 115.966433 
L 199.312705 107.201245 
L 199.711054 105.089632 
L 200.109403 95.757584 
L 200.507752 104.688695 
L 200.906102 90.141812 
L 201.304451 91.582611 
L 201.7028 86.655815 
L 202.101149 88.105136 
L 202.499498 92.81963 
L 202.897847 100.341465 
L 203.296196 110.582213 
L 203.694545 114.337695 
L 204.092895 127.094978 
L 204.491244 128.13429 
L 204.889593 123.324784 
L 205.686291 145.713181 
L 206.881339 156.383332 
L 207.678037 168.143512 
L 208.474735 173.982836 
L 208.873084 168.955678 
L 209.271433 172.164494 
L 209.669782 178.018254 
L 210.068132 175.763369 
L 210.466481 178.857648 
L 210.86483 179.270543 
L 211.263179 184.786621 
L 211.661528 185.162251 
L 212.059877 182.946414 
L 212.458226 170.776086 
L 212.856576 166.014984 
L 213.254925 158.819974 
L 213.653274 161.766175 
L 214.848321 163.22126 
L 215.24667 166.083175 
L 215.64502 166.540756 
L 216.043369 162.110315 
L 216.441718 162.584393 
L 216.840067 160.711326 
L 217.238416 168.615111 
L 218.035114 165.032869 
L 218.433463 156.193996 
L 219.230162 148.117659 
L 219.628511 146.389241 
L 220.02686 137.769797 
L 220.425209 131.641739 
L 220.823558 132.433699 
L 221.221907 130.814166 
L 221.620257 127.216805 
L 222.018606 119.092746 
L 222.416955 113.440417 
L 223.213653 107.317853 
L 224.408701 91.664969 
L 224.80705 91.065774 
L 225.205399 88.428107 
L 226.002097 72.159244 
L 226.400446 63.719649 
L 226.798795 59.68781 
L 227.197144 53.769838 
L 227.595494 53.811496 
L 228.392192 58.256781 
L 228.790541 73.590693 
L 229.18889 77.173617 
L 229.985588 80.708694 
L 230.383938 80.727943 
L 230.782287 84.548463 
L 231.180636 92.232118 
L 231.578985 97.765662 
L 231.977334 108.499329 
L 232.774032 119.771284 
L 233.172381 121.076776 
L 233.570731 106.25709 
L 233.96908 105.672882 
L 234.367429 103.636206 
L 236.757524 159.741038 
L 237.155873 163.358618 
L 237.952571 155.651446 
L 238.749269 172.384755 
L 239.147619 186.469126 
L 239.545968 185.215185 
L 240.342666 201.80234 
L 240.741015 203.425997 
L 241.139364 206.491265 
L 241.537713 205.039338 
L 241.936062 199.406114 
L 242.334412 207.09087 
L 242.732761 220.384379 
L 243.13111 221.969125 
L 243.529459 220.628154 
L 243.927808 216.406295 
L 244.326157 216.56125 
L 244.724506 210.910564 
L 245.521205 195.417579 
L 245.919554 189.86575 
L 246.317903 187.128402 
L 246.716252 191.77993 
L 247.114601 194.804498 
L 247.51295 194.92439 
L 249.106347 195.750587 
L 249.903045 198.809534 
L 250.301394 205.923969 
L 250.699743 204.820037 
L 251.098093 202.292228 
L 251.496442 205.15607 
L 251.894791 205.251217 
L 252.29314 204.020105 
L 252.691489 206.855346 
L 253.488187 209.754248 
L 253.886537 209.92419 
L 254.683235 202.273254 
L 255.081584 199.770332 
L 255.479933 210.426315 
L 255.878282 224.793369 
L 256.276631 232.558558 
L 257.07333 230.102247 
L 257.870028 232.740873 
L 258.268377 230.237127 
L 258.666726 232.860632 
L 259.065075 236.743707 
L 259.463424 238.080004 
L 259.861774 235.637166 
L 260.260123 228.082887 
L 261.056821 203.80795 
L 261.45517 203.947233 
L 261.853519 202.874924 
L 262.251868 200.410638 
L 262.650218 195.441915 
L 263.048567 195.656269 
L 263.446916 194.515213 
L 263.845265 192.132875 
L 265.040312 200.291568 
L 265.438661 201.709947 
L 265.837011 199.503735 
L 266.633709 199.890638 
L 267.032058 197.618015 
L 267.430407 197.86633 
L 268.227105 195.819335 
L 268.625455 196.022412 
L 269.023804 193.744705 
L 269.422153 192.768503 
L 269.820502 190.508117 
L 270.218851 187.132113 
L 270.6172 185.187551 
L 271.015549 181.853761 
L 271.812248 184.786621 
L 272.210597 190.856113 
L 272.608946 193.423105 
L 273.007295 191.333074 
L 273.405644 190.399914 
L 273.803993 190.612065 
L 274.202342 182.93418 
L 274.600692 182.038547 
L 274.999041 182.393833 
L 275.39739 189.62184 
L 275.795739 194.382122 
L 276.194088 190.143902 
L 276.592437 188.141587 
L 276.990786 175.993674 
L 277.389136 169.571926 
L 277.787485 166.688421 
L 278.185834 169.221039 
L 278.584183 168.402134 
L 278.982532 176.760196 
L 279.380881 181.36016 
L 279.77923 188.11588 
L 280.177579 188.270147 
L 280.575929 185.177513 
L 281.372627 194.34885 
L 281.770976 202.164359 
L 282.169325 207.707528 
L 282.567674 215.237332 
L 282.966023 212.24012 
L 283.364373 213.421737 
L 283.762722 217.656794 
L 284.161071 215.644172 
L 284.55942 210.544283 
L 284.957769 210.641626 
L 285.356118 212.830927 
L 285.754467 212.95316 
L 286.152817 210.995122 
L 286.949515 213.25578 
L 287.347864 209.307257 
L 288.144562 213.613125 
L 288.542911 209.665841 
L 288.94126 209.762771 
L 289.33961 212.888539 
L 289.737959 211.005297 
L 290.136308 210.114205 
L 290.534657 213.184836 
L 290.933006 215.259328 
L 291.331355 215.342788 
L 291.729704 216.400247 
L 292.526403 216.66767 
L 292.924752 215.754578 
L 293.323101 220.704052 
L 293.72145 219.813923 
L 294.119799 217.943194 
L 294.518148 221.894604 
L 294.916497 222.938174 
L 296.111545 214.522781 
L 296.509894 213.629489 
L 296.908243 218.519151 
L 297.704941 218.69088 
L 298.103291 214.931683 
L 298.50164 215.039204 
L 298.899989 216.080987 
L 299.298338 211.436749 
L 299.696687 211.524196 
L 300.095036 212.569693 
L 300.891735 218.415206 
L 301.290084 219.408456 
L 301.688433 216.670971 
L 302.086782 218.60742 
L 302.485131 219.594894 
L 302.88348 216.03314 
L 303.281829 217.04605 
L 303.680178 215.301402 
L 304.476877 215.532802 
L 304.875226 215.609385 
L 305.273575 214.759131 
L 305.671924 215.736155 
L 306.070273 213.092577 
L 306.468622 212.304469 
L 306.866972 209.675603 
L 307.265321 207.946903 
L 307.66367 212.631013 
L 308.062019 212.71186 
L 309.257066 223.63444 
L 309.655416 223.693285 
L 310.053765 224.627687 
L 310.452114 222.916312 
L 310.850463 223.888115 
L 311.248812 225.722684 
L 312.04551 231.070061 
L 312.443859 231.976551 
L 312.842209 234.601565 
L 313.240558 235.474373 
L 313.638907 234.626315 
L 314.037256 231.186789 
L 314.435605 232.088609 
L 314.833954 230.401981 
L 315.232303 232.171791 
L 315.630653 234.785807 
L 316.029002 233.970888 
L 316.427351 233.996185 
L 316.8257 232.309284 
L 317.224049 231.487764 
L 317.622398 231.487764 
L 318.020747 230.639019 
L 318.419096 223.039368 
L 318.817446 225.653247 
L 319.215795 227.377684 
L 319.614144 224.916425 
L 320.012493 223.269671 
L 320.410842 218.243063 
L 320.809191 219.170179 
L 321.60589 217.604685 
L 322.004239 216.002067 
L 322.402588 210.158479 
L 322.800937 202.676521 
L 323.199286 212.964847 
L 323.597635 211.333218 
L 323.995984 203.050502 
L 324.394334 204.915731 
L 324.792683 208.325421 
L 325.191032 206.878856 
L 326.386079 207.160444 
L 326.784428 203.239418 
L 327.182777 205.876397 
L 327.581127 213.396574 
L 327.979476 210.154489 
L 328.377825 205.413456 
L 328.776174 210.488598 
L 329.174523 216.984868 
L 329.572872 216.984868 
L 329.971221 218.762788 
L 330.369571 225.149474 
L 331.166269 232.353969 
L 331.564618 237.960521 
L 331.962967 238.779154 
L 332.759665 231.799597 
L 333.158015 237.342765 
L 333.556364 239.702284 
L 333.954713 234.252197 
L 334.353062 230.376956 
L 334.751411 233.559369 
L 335.14976 226.533066 
L 336.344808 216.490165 
L 336.743157 211.147052 
L 337.141506 212.808793 
L 337.539855 224.496797 
L 337.938204 228.360074 
L 338.336553 227.60895 
L 338.734902 226.140797 
L 339.531601 221.703076 
L 339.92995 226.328064 
L 340.328299 227.889574 
L 340.726648 226.420733 
L 341.124997 226.543241 
L 341.523346 231.188304 
L 341.921695 230.478427 
L 342.718394 214.561141 
L 343.116743 210.850067 
L 343.515092 213.986145 
L 343.913441 219.377931 
L 344.31179 219.4915 
L 344.710139 210.530532 
L 345.108489 204.608574 
L 345.506838 208.448752 
L 345.905187 215.288339 
L 346.701885 210.311506 
L 347.100234 208.181054 
L 347.498583 214.952581 
L 347.896933 219.465928 
L 348.693631 204.260579 
L 349.09198 189.206474 
L 349.490329 194.592484 
L 349.888678 208.500586 
L 350.287027 208.500586 
L 350.685376 199.147768 
L 351.083726 204.379921 
L 351.482075 207.409303 
L 351.880424 204.715541 
L 352.278773 199.718637 
L 352.677122 196.907594 
L 353.075471 197.966974 
L 353.47382 200.415725 
L 353.87217 226.738756 
L 354.270519 235.067257 
L 355.067217 219.700354 
L 355.465566 225.862927 
L 356.262264 215.930021 
L 356.660613 218.752475 
L 357.058963 217.144222 
L 357.457312 217.379608 
L 358.25401 228.314701 
L 359.050708 204.758717 
L 359.449057 194.273913 
L 359.847407 197.910053 
L 360.245756 195.354194 
L 361.042454 199.751221 
L 361.440803 200.729347 
L 361.839152 198.19054 
L 362.237501 186.537186 
L 362.635851 178.816403 
L 363.0342 181.421755 
L 363.432549 186.298633 
L 363.830898 203.103849 
L 364.229247 239.280177 
L 364.627596 254.708955 
L 365.025945 255.965088 
L 365.424294 254.286986 
L 365.822644 260.542089 
L 366.220993 262.3273 
L 366.619342 268.369295 
L 367.017691 271.303531 
L 367.41604 281.334881 
L 367.814389 274.805061 
L 368.212738 273.349012 
L 368.611088 257.482735 
L 369.009437 228.079037 
L 369.407786 215.71113 
L 369.806135 218.364884 
L 370.204484 224.823891 
L 370.602833 222.970073 
L 371.001182 224.061768 
L 371.399532 226.855899 
L 371.797881 238.982645 
L 372.19623 235.968522 
L 372.594579 238.589137 
L 372.992928 239.027329 
L 373.391277 238.361998 
L 373.789626 239.49164 
L 374.984674 225.187421 
L 375.781372 212.093554 
L 376.179721 206.844895 
L 376.57807 206.248864 
L 376.976419 205.182469 
L 377.374769 202.77469 
L 377.773118 201.982458 
L 378.171467 205.974566 
L 378.569816 206.948565 
L 378.968165 212.301994 
L 379.366514 213.03483 
L 379.764863 214.555365 
L 380.561562 223.148952 
L 380.959911 230.507851 
L 381.35826 231.663754 
L 381.756609 234.913538 
L 382.951656 224.76422 
L 383.350006 229.709291 
L 383.748355 230.211414 
L 384.146704 231.248663 
L 384.545053 226.655296 
L 385.341751 238.745469 
L 385.7401 235.286417 
L 386.13845 230.812397 
L 386.536799 228.479416 
L 386.935148 233.245748 
L 387.333497 239.351535 
L 387.731846 242.34792 
L 388.528544 233.602817 
L 388.926893 232.635003 
L 389.325243 239.145159 
L 390.121941 226.726382 
L 390.52029 224.91175 
L 390.918639 226.348139 
L 391.316988 227.335611 
L 391.715337 230.945629 
L 392.113687 231.395918 
L 392.512036 232.173168 
L 392.910385 237.124153 
L 393.308734 245.317907 
L 393.707083 257.38869 
L 394.503781 254.403309 
L 394.902131 256.135992 
L 395.698829 251.910693 
L 396.097178 251.462192 
L 396.495527 251.218414 
L 396.893876 254.31641 
L 397.292225 252.567776 
L 398.088924 245.342654 
L 398.487273 235.937173 
L 398.487273 235.937173 
" style="fill:none;opacity:0.6;stroke:#2ca02c;stroke-linecap:square;stroke-width:0.5;"/>
   </g>
   <g id="line2d_21">
    <path clip-path="url(#pcdb4a67602)" d="M 73.832727 112.072681 
L 74.231076 149.203008 
L 74.629426 142.344841 
L 75.027775 124.833701 
L 75.426124 125.655924 
L 75.824473 120.501865 
L 76.222822 129.455411 
L 76.621171 162.977868 
L 77.01952 170.142189 
L 77.417869 188.735917 
L 77.816219 216.592684 
L 78.214568 234.829058 
L 78.612917 239.841642 
L 79.011266 230.255694 
L 79.409615 248.005212 
L 79.807964 260.19532 
L 80.206313 266.82683 
L 80.604663 293.697436 
L 81.003012 295.139565 
L 81.401361 288.391687 
L 81.79971 290.580283 
L 82.198059 280.213919 
L 82.596408 279.33724 
L 82.994757 282.857166 
L 83.393107 271.649383 
L 83.791456 269.760509 
L 84.189805 270.061798 
L 84.986503 256.593973 
L 85.384852 233.259552 
L 86.18155 219.987157 
L 86.5799 206.487807 
L 86.978249 202.434051 
L 88.173296 125.357106 
L 88.571645 124.146233 
L 88.969994 122.525835 
L 89.368344 126.104052 
L 89.766693 136.201573 
L 90.563391 160.199997 
L 90.96174 158.608996 
L 91.360089 161.314953 
L 91.758438 158.232436 
L 92.156788 172.067213 
L 92.555137 196.383841 
L 92.953486 199.945008 
L 93.351835 225.058707 
L 93.750184 225.547129 
L 94.148533 225.182205 
L 94.546882 222.393359 
L 94.945231 215.457767 
L 95.343581 211.735682 
L 95.74193 221.764025 
L 96.140279 226.940051 
L 96.538628 235.574223 
L 96.936977 241.549099 
L 97.335326 244.725069 
L 97.733675 244.624372 
L 98.132025 242.558177 
L 98.530374 242.296284 
L 98.928723 242.322312 
L 99.327072 241.69367 
L 99.725421 248.103715 
L 100.12377 246.892675 
L 100.522119 241.594603 
L 100.920468 240.693633 
L 101.318818 246.169656 
L 101.717167 245.135885 
L 102.513865 234.838578 
L 102.912214 238.127274 
L 103.310563 244.383531 
L 103.708912 244.029802 
L 104.107262 245.805281 
L 105.700658 265.556269 
L 106.099007 258.733388 
L 106.497356 259.862948 
L 106.895706 263.895892 
L 107.692404 261.390121 
L 108.090753 258.387409 
L 108.887451 266.2012 
L 109.2858 259.30708 
L 109.684149 261.107596 
L 110.082499 252.642317 
L 110.480848 249.155634 
L 110.879197 248.845094 
L 111.675895 251.189144 
L 112.074244 246.525926 
L 112.472593 250.499696 
L 112.870943 245.262662 
L 113.269292 242.092298 
L 113.667641 233.462295 
L 114.06599 228.058749 
L 114.464339 224.66632 
L 114.862688 227.501114 
L 115.261037 220.818369 
L 115.659387 220.801637 
L 116.854434 206.521492 
L 117.252783 204.746916 
L 117.651132 204.015528 
L 118.049481 204.809068 
L 118.44783 205.989527 
L 118.84618 209.233592 
L 119.244529 205.58827 
L 119.642878 205.531405 
L 120.041227 214.041682 
L 120.439576 209.433156 
L 120.837925 212.156201 
L 121.236274 206.390149 
L 121.634624 209.120505 
L 122.032973 204.950662 
L 122.431322 204.54415 
L 122.829671 208.132558 
L 123.22802 215.257971 
L 123.626369 220.288354 
L 124.024718 222.261095 
L 124.423067 225.901418 
L 124.821417 225.547398 
L 125.618115 230.397698 
L 126.016464 236.215981 
L 126.414813 240.093677 
L 126.813162 250.080061 
L 127.211511 252.252516 
L 127.609861 249.841164 
L 128.00821 245.113017 
L 128.406559 242.121578 
L 128.804908 242.81885 
L 129.601606 233.76267 
L 129.999955 235.016794 
L 130.398305 233.902035 
L 130.796654 236.784274 
L 131.195003 237.017162 
L 131.593352 232.974408 
L 131.991701 231.902981 
L 132.39005 225.914019 
L 132.788399 227.628888 
L 133.186748 234.138499 
L 133.585098 235.111502 
L 133.983447 237.895667 
L 134.381796 232.925476 
L 134.780145 234.61732 
L 135.178494 235.099618 
L 135.576843 234.544832 
L 135.975192 232.855126 
L 136.373542 235.900154 
L 136.771891 240.208866 
L 137.17024 240.698577 
L 137.568589 242.505518 
L 137.966938 238.276407 
L 138.365287 238.699615 
L 138.763636 238.395621 
L 139.161985 244.443179 
L 139.560335 243.794934 
L 139.958684 245.779567 
L 140.357033 244.842713 
L 140.755382 241.473926 
L 141.153731 240.588177 
L 141.55208 235.350202 
L 141.950429 235.641526 
L 142.348779 238.272326 
L 142.747128 239.574694 
L 143.145477 239.681592 
L 143.543826 235.137471 
L 143.942175 236.359266 
L 144.340524 236.207055 
L 144.738873 237.453827 
L 145.137223 236.427556 
L 145.535572 238.153407 
L 145.933921 238.923085 
L 146.33227 242.055531 
L 146.730619 241.928371 
L 147.527317 232.350004 
L 147.925666 233.596369 
L 148.324016 240.919316 
L 148.722365 237.756909 
L 149.120714 235.841942 
L 149.519063 231.484363 
L 149.917412 232.209479 
L 150.71411 233.149415 
L 151.11246 233.73539 
L 151.510809 231.246873 
L 151.909158 232.137568 
L 152.307507 238.198389 
L 153.104205 240.041333 
L 153.502554 237.810932 
L 153.900904 236.552329 
L 154.299253 238.691862 
L 154.697602 238.083279 
L 155.095951 237.734483 
L 155.4943 236.480929 
L 155.892649 237.540929 
L 156.689347 229.526621 
L 157.087697 227.692121 
L 157.486046 232.208343 
L 157.884395 231.846142 
L 158.282744 230.423345 
L 158.681093 230.769525 
L 159.477791 227.034119 
L 159.876141 220.143332 
L 160.27449 216.079165 
L 160.672839 214.493462 
L 161.071188 216.990886 
L 161.469537 220.636638 
L 161.867886 217.215966 
L 162.266235 206.387032 
L 162.664584 205.439753 
L 163.062934 202.47326 
L 163.461283 205.754394 
L 164.257981 210.522936 
L 165.054679 219.368444 
L 165.453028 219.739668 
L 165.851378 222.445067 
L 166.249727 215.170964 
L 166.648076 214.276105 
L 167.046425 218.51624 
L 167.843123 218.849067 
L 168.241472 212.052096 
L 169.038171 204.851965 
L 169.43652 207.539748 
L 170.233218 200.945301 
L 170.631567 201.315387 
L 171.029916 193.334249 
L 171.428265 195.734701 
L 171.826615 191.391221 
L 172.224964 194.790179 
L 172.623313 191.487957 
L 173.021662 191.59717 
L 173.420011 191.003246 
L 174.216709 188.077303 
L 175.013408 178.755942 
L 175.810106 177.970761 
L 176.208455 180.528883 
L 176.606804 179.402669 
L 177.005153 176.278245 
L 177.403503 176.240167 
L 177.801852 172.851273 
L 178.200201 173.073658 
L 178.59855 169.06337 
L 178.996899 167.154795 
L 179.395248 169.958648 
L 179.793597 170.525043 
L 180.191946 171.322235 
L 180.590296 172.385607 
L 180.988645 175.334077 
L 181.386994 176.372195 
L 181.785343 176.873395 
L 182.183692 176.446739 
L 182.582041 177.876601 
L 182.98039 177.063032 
L 183.37874 181.964489 
L 183.777089 188.937841 
L 184.175438 193.949802 
L 184.573787 196.623541 
L 184.972136 193.709623 
L 185.370485 194.67163 
L 185.768834 193.8949 
L 186.167183 194.574507 
L 187.76058 208.499074 
L 188.158929 209.943456 
L 188.557278 212.670386 
L 188.955627 201.177638 
L 189.353977 209.176101 
L 189.752326 206.676733 
L 190.549024 212.923838 
L 190.947373 213.494235 
L 191.345722 208.382338 
L 191.744071 208.783134 
L 192.142421 207.899417 
L 192.54077 208.87415 
L 192.939119 203.452448 
L 193.337468 200.954115 
L 193.735817 188.624574 
L 194.134166 180.584787 
L 194.532515 178.718428 
L 194.930864 172.608478 
L 195.329214 174.975533 
L 195.727563 152.830946 
L 196.125912 153.018368 
L 196.524261 143.782243 
L 196.92261 141.021962 
L 197.719308 122.319276 
L 198.117658 116.703819 
L 198.516007 115.365048 
L 198.914356 116.337172 
L 199.312705 106.520334 
L 199.711054 105.540054 
L 200.109403 96.64289 
L 200.507752 103.618387 
L 200.906102 90.600299 
L 201.304451 91.559913 
L 201.7028 86.423818 
L 202.101149 88.329148 
L 202.499498 92.591357 
L 202.897847 100.125138 
L 203.296196 110.489692 
L 203.694545 114.359645 
L 204.092895 126.839746 
L 204.491244 127.426904 
L 204.889593 123.886137 
L 205.686291 145.715096 
L 206.08464 148.823628 
L 206.482989 152.991914 
L 206.881339 155.808407 
L 207.279688 162.370471 
L 207.678037 164.903397 
L 208.076386 182.333785 
L 208.474735 169.748811 
L 209.271433 172.114417 
L 209.669782 176.892552 
L 210.068132 176.430335 
L 210.466481 178.363057 
L 210.86483 179.412674 
L 211.263179 184.599304 
L 211.661528 184.951358 
L 212.059877 182.871693 
L 212.458226 170.447234 
L 212.856576 166.021986 
L 213.254925 158.760811 
L 213.653274 161.622497 
L 214.051623 162.286605 
L 214.449972 162.679188 
L 214.848321 162.858742 
L 215.24667 166.319361 
L 215.64502 165.86035 
L 216.043369 162.743662 
L 216.441718 161.658654 
L 216.840067 161.344967 
L 217.238416 167.909076 
L 217.636765 167.006481 
L 218.035114 165.140318 
L 218.433463 156.105245 
L 219.230162 148.146926 
L 219.628511 146.239655 
L 220.425209 131.796373 
L 220.823558 132.326387 
L 221.221907 131.431849 
L 221.620257 127.149617 
L 222.018606 119.12609 
L 222.416955 113.741844 
L 222.815304 110.061351 
L 223.213653 107.520033 
L 223.612002 102.802195 
L 224.408701 92.1153 
L 224.80705 90.951435 
L 225.205399 88.536624 
L 225.603748 81.5929 
L 226.400446 63.861747 
L 226.798795 68.494053 
L 227.197144 58.905724 
L 227.595494 53.568 
L 228.392192 58.239695 
L 228.790541 73.505161 
L 229.18889 77.325157 
L 229.587239 78.969892 
L 230.383938 81.507682 
L 230.782287 84.269209 
L 232.774032 119.982642 
L 233.172381 120.203808 
L 233.570731 106.068587 
L 233.96908 105.804675 
L 234.367429 103.69491 
L 236.757524 160.035391 
L 237.155873 162.86265 
L 237.952571 155.341568 
L 238.749269 172.602656 
L 239.147619 186.216294 
L 239.545968 185.142575 
L 240.342666 201.766232 
L 240.741015 203.564762 
L 241.139364 206.125657 
L 241.537713 205.192952 
L 241.936062 198.902435 
L 242.334412 206.985391 
L 242.732761 220.196706 
L 243.13111 221.858755 
L 243.529459 220.476759 
L 243.927808 216.177101 
L 244.326157 216.346067 
L 244.724506 210.595385 
L 245.521205 195.296742 
L 245.919554 198.945254 
L 246.317903 191.268929 
L 246.716252 190.511225 
L 247.114601 192.699362 
L 247.911299 194.143156 
L 248.309649 197.316864 
L 248.707998 195.505399 
L 249.106347 195.375599 
L 249.903045 199.299458 
L 250.301394 205.536902 
L 250.699743 204.418625 
L 251.098093 202.636427 
L 251.496442 204.596694 
L 251.894791 205.316139 
L 252.29314 204.20726 
L 252.691489 205.624542 
L 253.089838 209.243974 
L 253.488187 209.362169 
L 253.886537 209.812909 
L 254.284886 206.49712 
L 254.683235 201.477459 
L 255.081584 200.132787 
L 255.479933 210.341717 
L 255.878282 224.639793 
L 256.276631 232.555748 
L 257.07333 230.357295 
L 257.471679 231.624106 
L 257.870028 231.67866 
L 258.268377 231.208305 
L 258.666726 232.535582 
L 259.065075 236.693087 
L 259.463424 238.019123 
L 259.861774 236.033261 
L 260.260123 228.534547 
L 261.056821 204.31645 
L 261.45517 204.036662 
L 261.853519 203.148477 
L 262.251868 200.180719 
L 262.650218 195.584138 
L 263.048567 195.408472 
L 263.446916 194.675033 
L 263.845265 191.763068 
L 264.243614 194.972939 
L 264.641963 197.274989 
L 265.040312 201.110365 
L 265.438661 201.47325 
L 265.837011 202.728007 
L 266.23536 198.6506 
L 266.633709 197.624329 
L 267.032058 197.288305 
L 267.430407 196.759031 
L 267.828756 197.698499 
L 268.227105 195.497361 
L 268.625455 196.551135 
L 269.023804 193.765711 
L 269.422153 193.285077 
L 270.218851 187.152765 
L 270.6172 185.295177 
L 271.015549 181.373076 
L 271.413898 183.534962 
L 271.812248 184.46228 
L 272.210597 191.164554 
L 272.608946 193.11779 
L 273.007295 191.869304 
L 273.405644 189.898727 
L 273.803993 190.278468 
L 274.202342 184.179283 
L 274.600692 181.164471 
L 274.999041 182.848701 
L 275.795739 194.721857 
L 276.194088 190.048221 
L 276.592437 187.714524 
L 276.990786 176.709386 
L 277.389136 169.012835 
L 277.787485 167.25022 
L 278.185834 168.366317 
L 278.584183 168.77044 
L 278.982532 177.149698 
L 279.380881 181.170188 
L 279.77923 187.577592 
L 280.177579 188.606164 
L 280.575929 185.840841 
L 281.372627 193.359228 
L 281.770976 203.21159 
L 282.169325 207.533691 
L 282.567674 214.590991 
L 282.966023 212.750194 
L 283.364373 212.899698 
L 283.762722 217.756766 
L 284.161071 220.2342 
L 284.55942 213.522974 
L 284.957769 210.153788 
L 285.356118 211.509103 
L 285.754467 213.40416 
L 286.152817 213.590355 
L 286.551166 212.747034 
L 286.949515 211.588384 
L 287.746213 210.320918 
L 288.542911 212.123922 
L 288.94126 209.063938 
L 289.33961 213.409054 
L 289.737959 211.297329 
L 290.136308 209.939988 
L 290.534657 212.142237 
L 290.933006 216.833374 
L 291.331355 214.454993 
L 291.729704 215.424773 
L 292.128054 217.099463 
L 292.526403 216.488929 
L 292.924752 217.720126 
L 293.323101 218.199924 
L 293.72145 220.853307 
L 294.119799 219.162767 
L 294.518148 220.622631 
L 294.916497 222.713477 
L 295.314847 220.88298 
L 296.111545 214.150187 
L 296.509894 214.585602 
L 296.908243 218.292648 
L 297.306592 217.693528 
L 297.704941 218.62618 
L 298.103291 216.135194 
L 298.50164 214.369291 
L 298.899989 215.869793 
L 299.298338 212.03326 
L 299.696687 210.503576 
L 300.891735 218.23971 
L 301.290084 219.493411 
L 301.688433 217.564473 
L 302.086782 218.352686 
L 302.485131 218.82657 
L 302.88348 217.150044 
L 303.281829 218.728542 
L 303.680178 215.162562 
L 304.078528 215.246134 
L 304.476877 215.799419 
L 304.875226 216.028335 
L 305.273575 216.944465 
L 305.671924 216.541785 
L 306.070273 214.167774 
L 306.468622 210.70628 
L 306.866972 212.05202 
L 307.265321 209.936952 
L 307.66367 210.956788 
L 308.062019 212.623476 
L 308.858717 220.189989 
L 309.257066 223.566777 
L 309.655416 224.809461 
L 310.053765 223.922715 
L 310.452114 223.635597 
L 310.850463 223.895192 
L 311.248812 225.417716 
L 312.04551 231.139678 
L 312.443859 232.280951 
L 312.842209 234.638677 
L 313.240558 235.19387 
L 313.638907 234.041845 
L 314.037256 231.85608 
L 314.435605 231.907211 
L 314.833954 231.36236 
L 315.232303 232.191387 
L 315.630653 233.754258 
L 316.029002 234.793717 
L 316.427351 233.369465 
L 317.224049 231.725084 
L 317.622398 231.540284 
L 318.020747 229.715285 
L 318.419096 224.249701 
L 318.817446 225.668408 
L 319.215795 226.651474 
L 319.614144 225.330886 
L 320.012493 223.210055 
L 320.410842 217.947832 
L 320.809191 219.652877 
L 321.20754 218.207142 
L 321.60589 218.252501 
L 322.004239 215.608995 
L 322.402588 218.699613 
L 322.800937 207.954292 
L 323.199286 202.691128 
L 323.597635 216.512364 
L 324.394334 201.672 
L 324.792683 207.770165 
L 325.191032 206.705832 
L 325.589381 206.320923 
L 325.98773 208.259151 
L 326.386079 207.704348 
L 326.784428 202.62874 
L 327.182777 206.462595 
L 327.581127 212.226493 
L 327.979476 210.308264 
L 328.377825 205.617251 
L 329.174523 215.804277 
L 329.572872 217.277709 
L 329.971221 219.413682 
L 330.76792 229.012248 
L 331.166269 232.064065 
L 331.564618 238.384318 
L 331.962967 238.542876 
L 332.361316 234.981312 
L 332.759665 232.912362 
L 333.556364 239.943535 
L 333.954713 233.707487 
L 334.353062 230.972363 
L 334.751411 233.397463 
L 335.548109 223.032848 
L 335.946458 220.346839 
L 336.344808 216.810073 
L 336.743157 210.676561 
L 337.141506 212.873919 
L 337.539855 224.255097 
L 337.938204 228.104496 
L 338.336553 228.385075 
L 338.734902 225.451625 
L 339.531601 222.462923 
L 340.328299 228.554063 
L 340.726648 226.061992 
L 341.124997 226.830074 
L 341.921695 229.267047 
L 342.320045 229.515887 
L 343.116743 212.814268 
L 343.515092 215.192527 
L 343.913441 218.617175 
L 344.31179 219.086906 
L 345.108489 204.723022 
L 345.506838 207.815006 
L 345.905187 214.863489 
L 346.303536 213.828747 
L 346.701885 208.934401 
L 347.100234 208.746868 
L 347.498583 215.463907 
L 347.896933 218.487176 
L 348.295282 212.978837 
L 348.693631 203.626508 
L 349.09198 190.144604 
L 349.490329 194.13818 
L 349.888678 208.737585 
L 350.287027 207.805883 
L 350.685376 199.696015 
L 351.083726 204.827701 
L 351.482075 206.43126 
L 351.880424 205.058865 
L 352.278773 199.828017 
L 352.677122 197.023049 
L 353.075471 197.736426 
L 353.47382 200.690052 
L 353.87217 227.172234 
L 354.270519 234.25873 
L 355.067217 219.121788 
L 355.465566 225.858036 
L 356.262264 216.07328 
L 356.660613 218.55717 
L 357.058963 217.488913 
L 357.457312 217.083443 
L 358.25401 228.538025 
L 359.050708 205.439664 
L 359.449057 194.470775 
L 359.847407 198.180745 
L 360.245756 195.52194 
L 360.644105 198.883042 
L 361.042454 199.214214 
L 361.440803 201.03867 
L 361.839152 200.135442 
L 362.237501 194.581155 
L 362.635851 179.295135 
L 363.0342 178.81856 
L 363.432549 186.115433 
L 363.830898 202.376127 
L 364.229247 238.853095 
L 364.627596 254.951815 
L 365.025945 255.559359 
L 365.424294 254.40584 
L 365.822644 259.775869 
L 366.619342 266.959042 
L 367.017691 272.295717 
L 367.41604 280.496169 
L 367.814389 275.196418 
L 368.212738 273.087447 
L 368.611088 257.623218 
L 369.009437 228.393852 
L 369.407786 215.539916 
L 369.806135 218.644531 
L 370.204484 224.622987 
L 370.602833 223.396257 
L 371.001182 223.912845 
L 371.399532 227.158278 
L 371.797881 239.012312 
L 372.19623 236.122792 
L 372.594579 238.914244 
L 372.992928 238.983107 
L 373.391277 238.554028 
L 373.789626 239.395219 
L 374.984674 225.572757 
L 375.781372 212.528179 
L 376.179721 206.978864 
L 376.57807 206.312357 
L 376.976419 205.15868 
L 377.374769 203.081581 
L 377.773118 201.834443 
L 378.171467 206.161607 
L 378.569816 206.979962 
L 378.968165 212.321279 
L 379.366514 212.876305 
L 379.764863 215.919548 
L 380.163212 212.933885 
L 380.561562 219.89104 
L 380.959911 224.31522 
L 381.35826 232.361627 
L 381.756609 232.898935 
L 382.154958 233.632808 
L 382.553307 227.159079 
L 382.951656 225.602279 
L 383.350006 227.694867 
L 383.748355 230.683709 
L 384.146704 230.753413 
L 384.545053 227.315072 
L 384.943402 234.557544 
L 385.341751 236.655019 
L 385.7401 235.952508 
L 386.13845 231.327645 
L 386.536799 228.366247 
L 387.333497 239.763581 
L 387.731846 241.817785 
L 388.130195 238.058565 
L 388.528544 232.511942 
L 388.926893 233.812208 
L 389.325243 238.660501 
L 390.121941 226.565178 
L 390.52029 225.181799 
L 390.918639 226.183635 
L 391.316988 228.331778 
L 391.715337 229.5779 
L 392.113687 232.020209 
L 392.512036 232.70233 
L 392.910385 236.535352 
L 393.308734 245.354917 
L 393.707083 257.941015 
L 394.105432 255.458683 
L 394.503781 254.792759 
L 394.902131 255.489415 
L 395.30048 254.909249 
L 395.698829 251.701102 
L 396.097178 251.640966 
L 396.495527 251.434531 
L 396.893876 254.807497 
L 397.690574 248.917147 
L 398.088924 245.135246 
L 398.487273 236.060747 
L 398.487273 236.060747 
" style="fill:none;opacity:0.6;stroke:#d62728;stroke-linecap:square;stroke-width:0.5;"/>
   </g>
   <g id="patch_3">
    <path d="M 57.6 307.584 
L 57.6 41.472 
" style="fill:none;stroke:#000000;stroke-linecap:square;stroke-linejoin:miter;stroke-width:0.8;"/>
   </g>
   <g id="patch_4">
    <path d="M 414.72 307.584 
L 414.72 41.472 
" style="fill:none;stroke:#000000;stroke-linecap:square;stroke-linejoin:miter;stroke-width:0.8;"/>
   </g>
   <g id="patch_5">
    <path d="M 57.6 307.584 
L 414.72 307.584 
" style="fill:none;stroke:#000000;stroke-linecap:square;stroke-linejoin:miter;stroke-width:0.8;"/>
   </g>
   <g id="patch_6">
    <path d="M 57.6 41.472 
L 414.72 41.472 
" style="fill:none;stroke:#000000;stroke-linecap:square;stroke-linejoin:miter;stroke-width:0.8;"/>
   </g>
  </g>
 </g>
 <defs>
  <clipPath id="pcdb4a67602">
   <rect height="266.112" width="357.12" x="57.6" y="41.472"/>
  </clipPath>
 </defs>
</svg>
