<?xml version="1.0" encoding="utf-8" standalone="no"?>
<!DOCTYPE svg PUBLIC "-//W3C//DTD SVG 1.1//EN"
  "http://www.w3.org/Graphics/SVG/1.1/DTD/svg11.dtd">
<!-- Created with matplotlib (http://matplotlib.org/) -->
<svg height="345.6pt" version="1.1" viewBox="0 0 460.8 345.6" width="460.8pt" xmlns="http://www.w3.org/2000/svg" xmlns:xlink="http://www.w3.org/1999/xlink">
 <defs>
  <style type="text/css">
*{stroke-linecap:butt;stroke-linejoin:round;}
  </style>
 </defs>
 <g id="figure_1">
  <g id="patch_1">
   <path d="M 0 345.6 
L 460.8 345.6 
L 460.8 0 
L 0 0 
z
" style="fill:#ffffff;"/>
  </g>
  <g id="axes_1">
   <g id="patch_2">
    <path d="M 57.6 307.584 
L 414.72 307.584 
L 414.72 41.472 
L 57.6 41.472 
z
" style="fill:#ffffff;"/>
   </g>
   <g id="matplotlib.axis_1">
    <g id="xtick_1">
     <g id="line2d_1">
      <defs>
       <path d="M 0 0 
L 0 3.5 
" id="mae71fcea9e" style="stroke:#000000;stroke-width:0.8;"/>
      </defs>
      <g>
       <use style="stroke:#000000;stroke-width:0.8;" x="73.832727" xlink:href="#mae71fcea9e" y="307.584"/>
      </g>
     </g>
     <g id="text_1">
      <!-- 0 -->
      <defs>
       <path d="M 31.78125 66.40625 
Q 24.171875 66.40625 20.328125 58.90625 
Q 16.5 51.421875 16.5 36.375 
Q 16.5 21.390625 20.328125 13.890625 
Q 24.171875 6.390625 31.78125 6.390625 
Q 39.453125 6.390625 43.28125 13.890625 
Q 47.125 21.390625 47.125 36.375 
Q 47.125 51.421875 43.28125 58.90625 
Q 39.453125 66.40625 31.78125 66.40625 
z
M 31.78125 74.21875 
Q 44.046875 74.21875 50.515625 64.515625 
Q 56.984375 54.828125 56.984375 36.375 
Q 56.984375 17.96875 50.515625 8.265625 
Q 44.046875 -1.421875 31.78125 -1.421875 
Q 19.53125 -1.421875 13.0625 8.265625 
Q 6.59375 17.96875 6.59375 36.375 
Q 6.59375 54.828125 13.0625 64.515625 
Q 19.53125 74.21875 31.78125 74.21875 
z
" id="DejaVuSans-30"/>
      </defs>
      <g transform="translate(70.651477 322.182437)scale(0.1 -0.1)">
       <use xlink:href="#DejaVuSans-30"/>
      </g>
     </g>
    </g>
    <g id="xtick_2">
     <g id="line2d_2">
      <g>
       <use style="stroke:#000000;stroke-width:0.8;" x="113.667641" xlink:href="#mae71fcea9e" y="307.584"/>
      </g>
     </g>
     <g id="text_2">
      <!-- 100 -->
      <defs>
       <path d="M 12.40625 8.296875 
L 28.515625 8.296875 
L 28.515625 63.921875 
L 10.984375 60.40625 
L 10.984375 69.390625 
L 28.421875 72.90625 
L 38.28125 72.90625 
L 38.28125 8.296875 
L 54.390625 8.296875 
L 54.390625 0 
L 12.40625 0 
z
" id="DejaVuSans-31"/>
      </defs>
      <g transform="translate(104.123891 322.182437)scale(0.1 -0.1)">
       <use xlink:href="#DejaVuSans-31"/>
       <use x="63.623047" xlink:href="#DejaVuSans-30"/>
       <use x="127.246094" xlink:href="#DejaVuSans-30"/>
      </g>
     </g>
    </g>
    <g id="xtick_3">
     <g id="line2d_3">
      <g>
       <use style="stroke:#000000;stroke-width:0.8;" x="153.502554" xlink:href="#mae71fcea9e" y="307.584"/>
      </g>
     </g>
     <g id="text_3">
      <!-- 200 -->
      <defs>
       <path d="M 19.1875 8.296875 
L 53.609375 8.296875 
L 53.609375 0 
L 7.328125 0 
L 7.328125 8.296875 
Q 12.9375 14.109375 22.625 23.890625 
Q 32.328125 33.6875 34.8125 36.53125 
Q 39.546875 41.84375 41.421875 45.53125 
Q 43.3125 49.21875 43.3125 52.78125 
Q 43.3125 58.59375 39.234375 62.25 
Q 35.15625 65.921875 28.609375 65.921875 
Q 23.96875 65.921875 18.8125 64.3125 
Q 13.671875 62.703125 7.8125 59.421875 
L 7.8125 69.390625 
Q 13.765625 71.78125 18.9375 73 
Q 24.125 74.21875 28.421875 74.21875 
Q 39.75 74.21875 46.484375 68.546875 
Q 53.21875 62.890625 53.21875 53.421875 
Q 53.21875 48.921875 51.53125 44.890625 
Q 49.859375 40.875 45.40625 35.40625 
Q 44.1875 33.984375 37.640625 27.21875 
Q 31.109375 20.453125 19.1875 8.296875 
z
" id="DejaVuSans-32"/>
      </defs>
      <g transform="translate(143.958804 322.182437)scale(0.1 -0.1)">
       <use xlink:href="#DejaVuSans-32"/>
       <use x="63.623047" xlink:href="#DejaVuSans-30"/>
       <use x="127.246094" xlink:href="#DejaVuSans-30"/>
      </g>
     </g>
    </g>
    <g id="xtick_4">
     <g id="line2d_4">
      <g>
       <use style="stroke:#000000;stroke-width:0.8;" x="193.337468" xlink:href="#mae71fcea9e" y="307.584"/>
      </g>
     </g>
     <g id="text_4">
      <!-- 300 -->
      <defs>
       <path d="M 40.578125 39.3125 
Q 47.65625 37.796875 51.625 33 
Q 55.609375 28.21875 55.609375 21.1875 
Q 55.609375 10.40625 48.1875 4.484375 
Q 40.765625 -1.421875 27.09375 -1.421875 
Q 22.515625 -1.421875 17.65625 -0.515625 
Q 12.796875 0.390625 7.625 2.203125 
L 7.625 11.71875 
Q 11.71875 9.328125 16.59375 8.109375 
Q 21.484375 6.890625 26.8125 6.890625 
Q 36.078125 6.890625 40.9375 10.546875 
Q 45.796875 14.203125 45.796875 21.1875 
Q 45.796875 27.640625 41.28125 31.265625 
Q 36.765625 34.90625 28.71875 34.90625 
L 20.21875 34.90625 
L 20.21875 43.015625 
L 29.109375 43.015625 
Q 36.375 43.015625 40.234375 45.921875 
Q 44.09375 48.828125 44.09375 54.296875 
Q 44.09375 59.90625 40.109375 62.90625 
Q 36.140625 65.921875 28.71875 65.921875 
Q 24.65625 65.921875 20.015625 65.03125 
Q 15.375 64.15625 9.8125 62.3125 
L 9.8125 71.09375 
Q 15.4375 72.65625 20.34375 73.4375 
Q 25.25 74.21875 29.59375 74.21875 
Q 40.828125 74.21875 47.359375 69.109375 
Q 53.90625 64.015625 53.90625 55.328125 
Q 53.90625 49.265625 50.4375 45.09375 
Q 46.96875 40.921875 40.578125 39.3125 
z
" id="DejaVuSans-33"/>
      </defs>
      <g transform="translate(183.793718 322.182437)scale(0.1 -0.1)">
       <use xlink:href="#DejaVuSans-33"/>
       <use x="63.623047" xlink:href="#DejaVuSans-30"/>
       <use x="127.246094" xlink:href="#DejaVuSans-30"/>
      </g>
     </g>
    </g>
    <g id="xtick_5">
     <g id="line2d_5">
      <g>
       <use style="stroke:#000000;stroke-width:0.8;" x="233.172381" xlink:href="#mae71fcea9e" y="307.584"/>
      </g>
     </g>
     <g id="text_5">
      <!-- 400 -->
      <defs>
       <path d="M 37.796875 64.3125 
L 12.890625 25.390625 
L 37.796875 25.390625 
z
M 35.203125 72.90625 
L 47.609375 72.90625 
L 47.609375 25.390625 
L 58.015625 25.390625 
L 58.015625 17.1875 
L 47.609375 17.1875 
L 47.609375 0 
L 37.796875 0 
L 37.796875 17.1875 
L 4.890625 17.1875 
L 4.890625 26.703125 
z
" id="DejaVuSans-34"/>
      </defs>
      <g transform="translate(223.628631 322.182437)scale(0.1 -0.1)">
       <use xlink:href="#DejaVuSans-34"/>
       <use x="63.623047" xlink:href="#DejaVuSans-30"/>
       <use x="127.246094" xlink:href="#DejaVuSans-30"/>
      </g>
     </g>
    </g>
    <g id="xtick_6">
     <g id="line2d_6">
      <g>
       <use style="stroke:#000000;stroke-width:0.8;" x="273.007295" xlink:href="#mae71fcea9e" y="307.584"/>
      </g>
     </g>
     <g id="text_6">
      <!-- 500 -->
      <defs>
       <path d="M 10.796875 72.90625 
L 49.515625 72.90625 
L 49.515625 64.59375 
L 19.828125 64.59375 
L 19.828125 46.734375 
Q 21.96875 47.46875 24.109375 47.828125 
Q 26.265625 48.1875 28.421875 48.1875 
Q 40.625 48.1875 47.75 41.5 
Q 54.890625 34.8125 54.890625 23.390625 
Q 54.890625 11.625 47.5625 5.09375 
Q 40.234375 -1.421875 26.90625 -1.421875 
Q 22.3125 -1.421875 17.546875 -0.640625 
Q 12.796875 0.140625 7.71875 1.703125 
L 7.71875 11.625 
Q 12.109375 9.234375 16.796875 8.0625 
Q 21.484375 6.890625 26.703125 6.890625 
Q 35.15625 6.890625 40.078125 11.328125 
Q 45.015625 15.765625 45.015625 23.390625 
Q 45.015625 31 40.078125 35.4375 
Q 35.15625 39.890625 26.703125 39.890625 
Q 22.75 39.890625 18.8125 39.015625 
Q 14.890625 38.140625 10.796875 36.28125 
z
" id="DejaVuSans-35"/>
      </defs>
      <g transform="translate(263.463545 322.182437)scale(0.1 -0.1)">
       <use xlink:href="#DejaVuSans-35"/>
       <use x="63.623047" xlink:href="#DejaVuSans-30"/>
       <use x="127.246094" xlink:href="#DejaVuSans-30"/>
      </g>
     </g>
    </g>
    <g id="xtick_7">
     <g id="line2d_7">
      <g>
       <use style="stroke:#000000;stroke-width:0.8;" x="312.842209" xlink:href="#mae71fcea9e" y="307.584"/>
      </g>
     </g>
     <g id="text_7">
      <!-- 600 -->
      <defs>
       <path d="M 33.015625 40.375 
Q 26.375 40.375 22.484375 35.828125 
Q 18.609375 31.296875 18.609375 23.390625 
Q 18.609375 15.53125 22.484375 10.953125 
Q 26.375 6.390625 33.015625 6.390625 
Q 39.65625 6.390625 43.53125 10.953125 
Q 47.40625 15.53125 47.40625 23.390625 
Q 47.40625 31.296875 43.53125 35.828125 
Q 39.65625 40.375 33.015625 40.375 
z
M 52.59375 71.296875 
L 52.59375 62.3125 
Q 48.875 64.0625 45.09375 64.984375 
Q 41.3125 65.921875 37.59375 65.921875 
Q 27.828125 65.921875 22.671875 59.328125 
Q 17.53125 52.734375 16.796875 39.40625 
Q 19.671875 43.65625 24.015625 45.921875 
Q 28.375 48.1875 33.59375 48.1875 
Q 44.578125 48.1875 50.953125 41.515625 
Q 57.328125 34.859375 57.328125 23.390625 
Q 57.328125 12.15625 50.6875 5.359375 
Q 44.046875 -1.421875 33.015625 -1.421875 
Q 20.359375 -1.421875 13.671875 8.265625 
Q 6.984375 17.96875 6.984375 36.375 
Q 6.984375 53.65625 15.1875 63.9375 
Q 23.390625 74.21875 37.203125 74.21875 
Q 40.921875 74.21875 44.703125 73.484375 
Q 48.484375 72.75 52.59375 71.296875 
z
" id="DejaVuSans-36"/>
      </defs>
      <g transform="translate(303.298459 322.182437)scale(0.1 -0.1)">
       <use xlink:href="#DejaVuSans-36"/>
       <use x="63.623047" xlink:href="#DejaVuSans-30"/>
       <use x="127.246094" xlink:href="#DejaVuSans-30"/>
      </g>
     </g>
    </g>
    <g id="xtick_8">
     <g id="line2d_8">
      <g>
       <use style="stroke:#000000;stroke-width:0.8;" x="352.677122" xlink:href="#mae71fcea9e" y="307.584"/>
      </g>
     </g>
     <g id="text_8">
      <!-- 700 -->
      <defs>
       <path d="M 8.203125 72.90625 
L 55.078125 72.90625 
L 55.078125 68.703125 
L 28.609375 0 
L 18.3125 0 
L 43.21875 64.59375 
L 8.203125 64.59375 
z
" id="DejaVuSans-37"/>
      </defs>
      <g transform="translate(343.133372 322.182437)scale(0.1 -0.1)">
       <use xlink:href="#DejaVuSans-37"/>
       <use x="63.623047" xlink:href="#DejaVuSans-30"/>
       <use x="127.246094" xlink:href="#DejaVuSans-30"/>
      </g>
     </g>
    </g>
    <g id="xtick_9">
     <g id="line2d_9">
      <g>
       <use style="stroke:#000000;stroke-width:0.8;" x="392.512036" xlink:href="#mae71fcea9e" y="307.584"/>
      </g>
     </g>
     <g id="text_9">
      <!-- 800 -->
      <defs>
       <path d="M 31.78125 34.625 
Q 24.75 34.625 20.71875 30.859375 
Q 16.703125 27.09375 16.703125 20.515625 
Q 16.703125 13.921875 20.71875 10.15625 
Q 24.75 6.390625 31.78125 6.390625 
Q 38.8125 6.390625 42.859375 10.171875 
Q 46.921875 13.96875 46.921875 20.515625 
Q 46.921875 27.09375 42.890625 30.859375 
Q 38.875 34.625 31.78125 34.625 
z
M 21.921875 38.8125 
Q 15.578125 40.375 12.03125 44.71875 
Q 8.5 49.078125 8.5 55.328125 
Q 8.5 64.0625 14.71875 69.140625 
Q 20.953125 74.21875 31.78125 74.21875 
Q 42.671875 74.21875 48.875 69.140625 
Q 55.078125 64.0625 55.078125 55.328125 
Q 55.078125 49.078125 51.53125 44.71875 
Q 48 40.375 41.703125 38.8125 
Q 48.828125 37.15625 52.796875 32.3125 
Q 56.78125 27.484375 56.78125 20.515625 
Q 56.78125 9.90625 50.3125 4.234375 
Q 43.84375 -1.421875 31.78125 -1.421875 
Q 19.734375 -1.421875 13.25 4.234375 
Q 6.78125 9.90625 6.78125 20.515625 
Q 6.78125 27.484375 10.78125 32.3125 
Q 14.796875 37.15625 21.921875 38.8125 
z
M 18.3125 54.390625 
Q 18.3125 48.734375 21.84375 45.5625 
Q 25.390625 42.390625 31.78125 42.390625 
Q 38.140625 42.390625 41.71875 45.5625 
Q 45.3125 48.734375 45.3125 54.390625 
Q 45.3125 60.0625 41.71875 63.234375 
Q 38.140625 66.40625 31.78125 66.40625 
Q 25.390625 66.40625 21.84375 63.234375 
Q 18.3125 60.0625 18.3125 54.390625 
z
" id="DejaVuSans-38"/>
      </defs>
      <g transform="translate(382.968286 322.182437)scale(0.1 -0.1)">
       <use xlink:href="#DejaVuSans-38"/>
       <use x="63.623047" xlink:href="#DejaVuSans-30"/>
       <use x="127.246094" xlink:href="#DejaVuSans-30"/>
      </g>
     </g>
    </g>
   </g>
   <g id="matplotlib.axis_2">
    <g id="ytick_1">
     <g id="line2d_10">
      <defs>
       <path d="M 0 0 
L -3.5 0 
" id="mfd5f118677" style="stroke:#000000;stroke-width:0.8;"/>
      </defs>
      <g>
       <use style="stroke:#000000;stroke-width:0.8;" x="57.6" xlink:href="#mfd5f118677" y="264.834836"/>
      </g>
     </g>
     <g id="text_10">
      <!-- 50 -->
      <g transform="translate(37.875 268.634054)scale(0.1 -0.1)">
       <use xlink:href="#DejaVuSans-35"/>
       <use x="63.623047" xlink:href="#DejaVuSans-30"/>
      </g>
     </g>
    </g>
    <g id="ytick_2">
     <g id="line2d_11">
      <g>
       <use style="stroke:#000000;stroke-width:0.8;" x="57.6" xlink:href="#mfd5f118677" y="210.829963"/>
      </g>
     </g>
     <g id="text_11">
      <!-- 100 -->
      <g transform="translate(31.5125 214.629182)scale(0.1 -0.1)">
       <use xlink:href="#DejaVuSans-31"/>
       <use x="63.623047" xlink:href="#DejaVuSans-30"/>
       <use x="127.246094" xlink:href="#DejaVuSans-30"/>
      </g>
     </g>
    </g>
    <g id="ytick_3">
     <g id="line2d_12">
      <g>
       <use style="stroke:#000000;stroke-width:0.8;" x="57.6" xlink:href="#mfd5f118677" y="156.825091"/>
      </g>
     </g>
     <g id="text_12">
      <!-- 150 -->
      <g transform="translate(31.5125 160.62431)scale(0.1 -0.1)">
       <use xlink:href="#DejaVuSans-31"/>
       <use x="63.623047" xlink:href="#DejaVuSans-35"/>
       <use x="127.246094" xlink:href="#DejaVuSans-30"/>
      </g>
     </g>
    </g>
    <g id="ytick_4">
     <g id="line2d_13">
      <g>
       <use style="stroke:#000000;stroke-width:0.8;" x="57.6" xlink:href="#mfd5f118677" y="102.820219"/>
      </g>
     </g>
     <g id="text_13">
      <!-- 200 -->
      <g transform="translate(31.5125 106.619438)scale(0.1 -0.1)">
       <use xlink:href="#DejaVuSans-32"/>
       <use x="63.623047" xlink:href="#DejaVuSans-30"/>
       <use x="127.246094" xlink:href="#DejaVuSans-30"/>
      </g>
     </g>
    </g>
    <g id="ytick_5">
     <g id="line2d_14">
      <g>
       <use style="stroke:#000000;stroke-width:0.8;" x="57.6" xlink:href="#mfd5f118677" y="48.815347"/>
      </g>
     </g>
     <g id="text_14">
      <!-- 250 -->
      <g transform="translate(31.5125 52.614566)scale(0.1 -0.1)">
       <use xlink:href="#DejaVuSans-32"/>
       <use x="63.623047" xlink:href="#DejaVuSans-35"/>
       <use x="127.246094" xlink:href="#DejaVuSans-30"/>
      </g>
     </g>
    </g>
   </g>
   <g id="line2d_15">
    <path clip-path="url(#p3d1290cc30)" d="M 73.832727 295.488 
L 74.231076 295.077564 
L 75.426124 294.991156 
L 76.222822 294.645525 
L 76.621171 294.170282 
L 77.417869 293.932661 
L 78.214568 293.263 
L 78.612917 293.273801 
L 79.011266 293.457418 
L 79.807964 292.906568 
L 81.003012 292.452927 
L 84.189805 293.003777 
L 84.986503 293.003777 
L 85.384852 293.241397 
L 87.376598 293.338606 
L 87.774947 293.446616 
L 88.571645 293.306205 
L 88.969994 293.295404 
L 90.96174 292.550136 
L 91.758438 292.26931 
L 92.953486 290.940791 
L 94.546882 290.832781 
L 95.343581 290.908387 
L 96.936977 290.249529 
L 98.928723 290.249529 
L 100.920468 290.011906 
L 104.505611 289.903896 
L 105.700658 289.731081 
L 106.099007 289.839091 
L 108.887451 289.741882 
L 109.684149 289.839091 
L 111.277546 289.925499 
L 115.261037 289.871495 
L 116.057736 289.817488 
L 116.854434 289.82829 
L 118.049481 289.644673 
L 119.244529 289.342247 
L 119.642878 289.299042 
L 120.041227 289.126227 
L 120.439576 289.126227 
L 121.634624 288.813 
L 123.626369 288.39176 
L 124.423067 288.251348 
L 125.219766 288.154139 
L 125.618115 288.089334 
L 126.813162 287.657294 
L 127.609861 287.581687 
L 129.203257 287.614091 
L 131.991701 287.538484 
L 135.178494 287.074042 
L 135.975192 287.074042 
L 136.373542 287.074042 
L 137.17024 286.901227 
L 138.365287 286.858022 
L 138.763636 286.858022 
L 139.560335 286.674405 
L 141.153731 286.6096 
L 142.348779 286.6096 
L 143.543826 286.458387 
L 145.137223 286.393579 
L 146.730619 286.177561 
L 147.527317 286.199164 
L 149.120714 286.026348 
L 150.315761 285.918338 
L 154.299253 285.4863 
L 155.095951 285.453896 
L 160.672839 284.946251 
L 161.867886 284.73023 
L 162.664584 284.687026 
L 163.461283 284.546614 
L 168.241472 283.326103 
L 170.631567 283.088484 
L 171.428265 282.764451 
L 175.411757 281.576346 
L 176.606804 281.036297 
L 177.801852 280.604257 
L 178.59855 280.280228 
L 178.996899 280.17222 
L 179.793597 279.632171 
L 180.590296 279.308143 
L 184.573787 277.255956 
L 186.167183 276.715907 
L 188.158929 275.743818 
L 188.955627 275.63581 
L 189.752326 275.311782 
L 190.549024 274.987753 
L 196.524261 273.259595 
L 198.117658 272.395518 
L 198.914356 271.639449 
L 200.109403 271.0994 
L 200.507752 270.235323 
L 200.906102 270.019302 
L 202.897847 267.751099 
L 203.296196 267.211051 
L 203.694545 266.887022 
L 204.491244 265.914933 
L 204.889593 265.590905 
L 206.08464 263.754738 
L 206.881339 262.782649 
L 207.678037 262.026584 
L 209.271433 261.054494 
L 209.669782 260.514446 
L 210.068132 260.298425 
L 211.263179 259.11032 
L 212.059877 258.570271 
L 213.254925 258.246243 
L 216.840067 255.437987 
L 217.238416 254.78993 
L 222.018606 250.793569 
L 222.815304 249.821479 
L 223.612002 248.633374 
L 226.400446 244.853033 
L 228.392192 240.856676 
L 231.180636 234.592107 
L 232.375683 231.459823 
L 233.172381 229.731669 
L 233.570731 229.623661 
L 234.367429 228.219531 
L 236.757524 223.143076 
L 237.554222 221.95497 
L 239.147619 218.282637 
L 241.139364 216.554483 
L 241.537713 216.554483 
L 241.936062 216.230451 
L 243.13111 213.530207 
L 243.529459 213.314191 
L 243.927808 213.314191 
L 244.326157 212.88215 
L 244.724506 212.990158 
L 245.122856 213.314191 
L 245.919554 212.990158 
L 246.317903 212.88215 
L 246.716252 212.126077 
L 247.114601 211.694045 
L 247.51295 211.47802 
L 248.309649 210.721955 
L 249.903045 209.317825 
L 250.699743 208.021712 
L 254.683235 204.889427 
L 255.081584 204.673411 
L 255.878282 203.485298 
L 258.268377 202.081176 
L 259.065075 201.109086 
L 259.861774 200.136997 
L 260.260123 200.353022 
L 260.658472 201.001078 
L 261.056821 201.433119 
L 262.251868 200.569038 
L 262.650218 200.46103 
L 263.048567 200.028989 
L 263.845265 199.596948 
L 264.243614 199.164908 
L 264.641963 198.516851 
L 268.625455 194.196461 
L 269.023804 193.980445 
L 269.422153 193.548404 
L 270.218851 193.008356 
L 270.6172 192.252291 
L 271.015549 191.928258 
L 273.007295 189.336023 
L 274.600692 187.49986 
L 274.999041 186.851803 
L 275.39739 185.879714 
L 275.795739 185.231657 
L 276.592437 184.367576 
L 276.990786 184.367576 
L 277.389136 184.043544 
L 278.185834 182.855438 
L 278.584183 182.423397 
L 278.982532 181.127284 
L 280.177579 179.615154 
L 280.575929 179.399121 
L 282.169325 175.726797 
L 282.567674 174.754715 
L 282.966023 174.430683 
L 283.762722 173.350585 
L 284.957769 172.918537 
L 285.754467 171.946455 
L 286.152817 171.730439 
L 286.949515 170.866358 
L 287.347864 170.650342 
L 287.746213 170.002277 
L 288.144562 169.570244 
L 288.542911 169.462228 
L 288.94126 169.138196 
L 289.33961 168.598147 
L 290.534657 167.518049 
L 291.331355 166.761984 
L 291.729704 166.437952 
L 292.128054 165.789903 
L 292.526403 165.357855 
L 292.924752 165.141838 
L 293.323101 164.60179 
L 294.518148 163.521692 
L 294.916497 163.08966 
L 295.713196 162.765627 
L 296.509894 162.225579 
L 296.908243 161.577513 
L 297.704941 160.821449 
L 298.103291 160.821449 
L 298.899989 159.957367 
L 299.298338 159.849367 
L 300.095036 159.093303 
L 301.290084 157.581156 
L 301.688433 157.473156 
L 303.281829 155.85301 
L 303.680178 155.528978 
L 304.078528 154.880913 
L 305.671924 153.692815 
L 306.070273 153.476783 
L 306.468622 153.04475 
L 307.265321 152.612718 
L 307.66367 151.748637 
L 308.062019 151.424604 
L 309.257066 149.912474 
L 310.850463 148.508344 
L 312.04551 146.996198 
L 312.842209 146.348149 
L 314.435605 145.808101 
L 314.833954 145.592085 
L 316.029002 144.403971 
L 317.224049 143.863922 
L 318.020747 143.863922 
L 318.419096 143.647906 
L 318.817446 143.215857 
L 319.215795 142.999841 
L 319.614144 142.567808 
L 321.20754 141.595711 
L 322.004239 140.947662 
L 322.800937 140.839646 
L 323.199286 139.651549 
L 323.995984 139.543532 
L 324.394334 138.787467 
L 324.792683 138.355418 
L 325.191032 137.599354 
L 326.386079 136.519256 
L 326.784428 135.979207 
L 327.182777 135.223142 
L 327.581127 134.143045 
L 327.979476 134.251061 
L 328.377825 133.927029 
L 328.776174 132.846931 
L 329.174523 132.306883 
L 329.572872 132.306883 
L 329.971221 131.334785 
L 331.166269 130.254688 
L 331.564618 129.17459 
L 331.962967 128.742558 
L 332.361316 128.634541 
L 332.759665 128.310525 
L 333.158015 127.338428 
L 333.556364 126.906395 
L 333.954713 127.230428 
L 334.353062 127.230428 
L 334.751411 126.474347 
L 335.14976 127.014395 
L 335.946458 127.230428 
L 336.743157 126.582363 
L 337.141506 126.042314 
L 337.539855 125.178233 
L 338.734902 124.422168 
L 339.133252 123.882119 
L 340.726648 122.477989 
L 341.523346 120.533811 
L 341.921695 120.209795 
L 342.320045 120.96586 
L 342.718394 121.289892 
L 343.116743 121.073859 
L 343.515092 120.425811 
L 344.31179 118.913665 
L 344.710139 119.129697 
L 345.108489 119.021681 
L 345.506838 118.481632 
L 345.905187 117.617551 
L 347.100234 116.429454 
L 347.896933 114.809307 
L 348.693631 114.485275 
L 349.09198 113.83721 
L 349.888678 111.785031 
L 350.685376 111.893031 
L 351.482075 110.272885 
L 351.880424 109.624836 
L 352.278773 109.732836 
L 352.677122 109.624836 
L 353.47382 107.032593 
L 353.87217 104.116333 
L 354.270519 103.7923 
L 354.668868 104.872398 
L 355.067217 104.872398 
L 355.465566 103.576284 
L 355.863915 103.468284 
L 356.262264 103.144252 
L 356.660613 102.064154 
L 357.457312 100.876041 
L 358.25401 98.715846 
L 359.050708 100.768041 
L 359.449057 100.660024 
L 359.847407 99.471911 
L 360.245756 99.107928 
L 360.644105 98.25573 
L 361.042454 97.10867 
L 361.440803 96.443316 
L 361.839152 95.524156 
L 362.635851 94.608242 
L 363.0342 94.539104 
L 363.830898 92.894121 
L 364.229247 91.118444 
L 366.220993 87.761499 
L 366.619342 86.394105 
L 367.017691 83.95848 
L 367.41604 82.281079 
L 367.814389 82.633195 
L 368.212738 82.431221 
L 368.611088 84.463968 
L 369.009437 88.613698 
L 369.407786 90.509274 
L 369.806135 89.931418 
L 370.204484 89.097579 
L 370.602833 89.324407 
L 371.399532 88.755187 
L 371.797881 86.845585 
L 372.19623 86.914707 
L 372.594579 86.138106 
L 372.992928 85.688802 
L 373.789626 84.205827 
L 374.586325 83.931468 
L 374.984674 84.155049 
L 375.781372 84.023284 
L 376.57807 84.243618 
L 377.773118 83.081445 
L 380.163212 77.928288 
L 380.561562 76.797429 
L 380.959911 76.027322 
L 381.35826 76.027322 
L 382.553307 74.092867 
L 382.951656 73.927613 
L 383.350006 73.475045 
L 383.748355 73.416719 
L 384.545053 72.222144 
L 385.341751 71.295419 
L 385.7401 71.807384 
L 386.13845 72.011518 
L 386.536799 71.940237 
L 387.333497 69.320998 
L 387.731846 68.648096 
L 388.130195 69.068262 
L 388.528544 69.098504 
L 388.926893 68.603811 
L 389.325243 67.245054 
L 390.121941 68.476364 
L 390.52029 68.372666 
L 391.715337 66.684486 
L 392.512036 66.454412 
L 392.910385 65.98889 
L 393.707083 64.642015 
L 394.105432 64.452994 
L 395.698829 62.653552 
L 396.097178 62.332766 
L 397.292225 62.373804 
L 397.690574 62.811242 
L 398.088924 63.64508 
L 398.487273 65.193946 
L 398.487273 65.193946 
" style="fill:none;opacity:0.6;stroke:#1f77b4;stroke-linecap:square;stroke-width:0.3;"/>
   </g>
   <g id="line2d_16">
    <path clip-path="url(#p3d1290cc30)" d="M 379.764863 76.159318 
L 380.163212 69.331546 
L 380.959911 63.686612 
L 381.35826 63.386345 
L 381.756609 65.594879 
L 382.154958 66.290706 
L 382.553307 66.226727 
L 382.951656 66.47849 
L 383.350006 65.799342 
L 383.748355 65.342226 
L 384.146704 65.121315 
L 384.943402 64.185129 
L 385.7401 63.738495 
L 386.13845 63.768523 
L 386.935148 63.178636 
L 387.333497 63.17468 
L 387.731846 62.922587 
L 388.130195 63.014551 
L 389.723592 61.493802 
L 390.121941 61.381846 
L 392.113687 59.291531 
L 392.512036 58.49484 
L 392.910385 58.131501 
L 393.308734 57.933136 
L 393.707083 57.467762 
L 394.503781 57.007416 
L 394.902131 56.729398 
L 395.698829 55.592276 
L 396.097178 55.365267 
L 397.292225 54.113669 
L 397.690574 53.890879 
L 398.088924 53.820868 
L 398.487273 53.568 
L 398.487273 53.568 
" style="fill:none;opacity:0.8;stroke:#ff7f0e;stroke-linecap:square;stroke-width:0.3;"/>
   </g>
   <g id="patch_3">
    <path d="M 57.6 307.584 
L 57.6 41.472 
" style="fill:none;stroke:#000000;stroke-linecap:square;stroke-linejoin:miter;stroke-width:0.8;"/>
   </g>
   <g id="patch_4">
    <path d="M 414.72 307.584 
L 414.72 41.472 
" style="fill:none;stroke:#000000;stroke-linecap:square;stroke-linejoin:miter;stroke-width:0.8;"/>
   </g>
   <g id="patch_5">
    <path d="M 57.6 307.584 
L 414.72 307.584 
" style="fill:none;stroke:#000000;stroke-linecap:square;stroke-linejoin:miter;stroke-width:0.8;"/>
   </g>
   <g id="patch_6">
    <path d="M 57.6 41.472 
L 414.72 41.472 
" style="fill:none;stroke:#000000;stroke-linecap:square;stroke-linejoin:miter;stroke-width:0.8;"/>
   </g>
  </g>
 </g>
 <defs>
  <clipPath id="p3d1290cc30">
   <rect height="266.112" width="357.12" x="57.6" y="41.472"/>
  </clipPath>
 </defs>
</svg>
