<?xml version="1.0" encoding="utf-8" standalone="no"?>
<!DOCTYPE svg PUBLIC "-//W3C//DTD SVG 1.1//EN"
  "http://www.w3.org/Graphics/SVG/1.1/DTD/svg11.dtd">
<!-- Created with matplotlib (http://matplotlib.org/) -->
<svg height="345.6pt" version="1.1" viewBox="0 0 460.8 345.6" width="460.8pt" xmlns="http://www.w3.org/2000/svg" xmlns:xlink="http://www.w3.org/1999/xlink">
 <defs>
  <style type="text/css">
*{stroke-linecap:butt;stroke-linejoin:round;}
  </style>
 </defs>
 <g id="figure_1">
  <g id="patch_1">
   <path d="M 0 345.6 
L 460.8 345.6 
L 460.8 0 
L 0 0 
z
" style="fill:#ffffff;"/>
  </g>
  <g id="axes_1">
   <g id="patch_2">
    <path d="M 57.6 307.584 
L 414.72 307.584 
L 414.72 41.472 
L 57.6 41.472 
z
" style="fill:#ffffff;"/>
   </g>
   <g id="matplotlib.axis_1">
    <g id="xtick_1">
     <g id="line2d_1">
      <defs>
       <path d="M 0 0 
L 0 3.5 
" id="mfb815f940a" style="stroke:#000000;stroke-width:0.8;"/>
      </defs>
      <g>
       <use style="stroke:#000000;stroke-width:0.8;" x="73.832727" xlink:href="#mfb815f940a" y="307.584"/>
      </g>
     </g>
     <g id="text_1">
      <!-- 0 -->
      <defs>
       <path d="M 31.78125 66.40625 
Q 24.171875 66.40625 20.328125 58.90625 
Q 16.5 51.421875 16.5 36.375 
Q 16.5 21.390625 20.328125 13.890625 
Q 24.171875 6.390625 31.78125 6.390625 
Q 39.453125 6.390625 43.28125 13.890625 
Q 47.125 21.390625 47.125 36.375 
Q 47.125 51.421875 43.28125 58.90625 
Q 39.453125 66.40625 31.78125 66.40625 
z
M 31.78125 74.21875 
Q 44.046875 74.21875 50.515625 64.515625 
Q 56.984375 54.828125 56.984375 36.375 
Q 56.984375 17.96875 50.515625 8.265625 
Q 44.046875 -1.421875 31.78125 -1.421875 
Q 19.53125 -1.421875 13.0625 8.265625 
Q 6.59375 17.96875 6.59375 36.375 
Q 6.59375 54.828125 13.0625 64.515625 
Q 19.53125 74.21875 31.78125 74.21875 
z
" id="DejaVuSans-30"/>
      </defs>
      <g transform="translate(70.651477 322.182437)scale(0.1 -0.1)">
       <use xlink:href="#DejaVuSans-30"/>
      </g>
     </g>
    </g>
    <g id="xtick_2">
     <g id="line2d_2">
      <g>
       <use style="stroke:#000000;stroke-width:0.8;" x="113.667641" xlink:href="#mfb815f940a" y="307.584"/>
      </g>
     </g>
     <g id="text_2">
      <!-- 100 -->
      <defs>
       <path d="M 12.40625 8.296875 
L 28.515625 8.296875 
L 28.515625 63.921875 
L 10.984375 60.40625 
L 10.984375 69.390625 
L 28.421875 72.90625 
L 38.28125 72.90625 
L 38.28125 8.296875 
L 54.390625 8.296875 
L 54.390625 0 
L 12.40625 0 
z
" id="DejaVuSans-31"/>
      </defs>
      <g transform="translate(104.123891 322.182437)scale(0.1 -0.1)">
       <use xlink:href="#DejaVuSans-31"/>
       <use x="63.623047" xlink:href="#DejaVuSans-30"/>
       <use x="127.246094" xlink:href="#DejaVuSans-30"/>
      </g>
     </g>
    </g>
    <g id="xtick_3">
     <g id="line2d_3">
      <g>
       <use style="stroke:#000000;stroke-width:0.8;" x="153.502554" xlink:href="#mfb815f940a" y="307.584"/>
      </g>
     </g>
     <g id="text_3">
      <!-- 200 -->
      <defs>
       <path d="M 19.1875 8.296875 
L 53.609375 8.296875 
L 53.609375 0 
L 7.328125 0 
L 7.328125 8.296875 
Q 12.9375 14.109375 22.625 23.890625 
Q 32.328125 33.6875 34.8125 36.53125 
Q 39.546875 41.84375 41.421875 45.53125 
Q 43.3125 49.21875 43.3125 52.78125 
Q 43.3125 58.59375 39.234375 62.25 
Q 35.15625 65.921875 28.609375 65.921875 
Q 23.96875 65.921875 18.8125 64.3125 
Q 13.671875 62.703125 7.8125 59.421875 
L 7.8125 69.390625 
Q 13.765625 71.78125 18.9375 73 
Q 24.125 74.21875 28.421875 74.21875 
Q 39.75 74.21875 46.484375 68.546875 
Q 53.21875 62.890625 53.21875 53.421875 
Q 53.21875 48.921875 51.53125 44.890625 
Q 49.859375 40.875 45.40625 35.40625 
Q 44.1875 33.984375 37.640625 27.21875 
Q 31.109375 20.453125 19.1875 8.296875 
z
" id="DejaVuSans-32"/>
      </defs>
      <g transform="translate(143.958804 322.182437)scale(0.1 -0.1)">
       <use xlink:href="#DejaVuSans-32"/>
       <use x="63.623047" xlink:href="#DejaVuSans-30"/>
       <use x="127.246094" xlink:href="#DejaVuSans-30"/>
      </g>
     </g>
    </g>
    <g id="xtick_4">
     <g id="line2d_4">
      <g>
       <use style="stroke:#000000;stroke-width:0.8;" x="193.337468" xlink:href="#mfb815f940a" y="307.584"/>
      </g>
     </g>
     <g id="text_4">
      <!-- 300 -->
      <defs>
       <path d="M 40.578125 39.3125 
Q 47.65625 37.796875 51.625 33 
Q 55.609375 28.21875 55.609375 21.1875 
Q 55.609375 10.40625 48.1875 4.484375 
Q 40.765625 -1.421875 27.09375 -1.421875 
Q 22.515625 -1.421875 17.65625 -0.515625 
Q 12.796875 0.390625 7.625 2.203125 
L 7.625 11.71875 
Q 11.71875 9.328125 16.59375 8.109375 
Q 21.484375 6.890625 26.8125 6.890625 
Q 36.078125 6.890625 40.9375 10.546875 
Q 45.796875 14.203125 45.796875 21.1875 
Q 45.796875 27.640625 41.28125 31.265625 
Q 36.765625 34.90625 28.71875 34.90625 
L 20.21875 34.90625 
L 20.21875 43.015625 
L 29.109375 43.015625 
Q 36.375 43.015625 40.234375 45.921875 
Q 44.09375 48.828125 44.09375 54.296875 
Q 44.09375 59.90625 40.109375 62.90625 
Q 36.140625 65.921875 28.71875 65.921875 
Q 24.65625 65.921875 20.015625 65.03125 
Q 15.375 64.15625 9.8125 62.3125 
L 9.8125 71.09375 
Q 15.4375 72.65625 20.34375 73.4375 
Q 25.25 74.21875 29.59375 74.21875 
Q 40.828125 74.21875 47.359375 69.109375 
Q 53.90625 64.015625 53.90625 55.328125 
Q 53.90625 49.265625 50.4375 45.09375 
Q 46.96875 40.921875 40.578125 39.3125 
z
" id="DejaVuSans-33"/>
      </defs>
      <g transform="translate(183.793718 322.182437)scale(0.1 -0.1)">
       <use xlink:href="#DejaVuSans-33"/>
       <use x="63.623047" xlink:href="#DejaVuSans-30"/>
       <use x="127.246094" xlink:href="#DejaVuSans-30"/>
      </g>
     </g>
    </g>
    <g id="xtick_5">
     <g id="line2d_5">
      <g>
       <use style="stroke:#000000;stroke-width:0.8;" x="233.172381" xlink:href="#mfb815f940a" y="307.584"/>
      </g>
     </g>
     <g id="text_5">
      <!-- 400 -->
      <defs>
       <path d="M 37.796875 64.3125 
L 12.890625 25.390625 
L 37.796875 25.390625 
z
M 35.203125 72.90625 
L 47.609375 72.90625 
L 47.609375 25.390625 
L 58.015625 25.390625 
L 58.015625 17.1875 
L 47.609375 17.1875 
L 47.609375 0 
L 37.796875 0 
L 37.796875 17.1875 
L 4.890625 17.1875 
L 4.890625 26.703125 
z
" id="DejaVuSans-34"/>
      </defs>
      <g transform="translate(223.628631 322.182437)scale(0.1 -0.1)">
       <use xlink:href="#DejaVuSans-34"/>
       <use x="63.623047" xlink:href="#DejaVuSans-30"/>
       <use x="127.246094" xlink:href="#DejaVuSans-30"/>
      </g>
     </g>
    </g>
    <g id="xtick_6">
     <g id="line2d_6">
      <g>
       <use style="stroke:#000000;stroke-width:0.8;" x="273.007295" xlink:href="#mfb815f940a" y="307.584"/>
      </g>
     </g>
     <g id="text_6">
      <!-- 500 -->
      <defs>
       <path d="M 10.796875 72.90625 
L 49.515625 72.90625 
L 49.515625 64.59375 
L 19.828125 64.59375 
L 19.828125 46.734375 
Q 21.96875 47.46875 24.109375 47.828125 
Q 26.265625 48.1875 28.421875 48.1875 
Q 40.625 48.1875 47.75 41.5 
Q 54.890625 34.8125 54.890625 23.390625 
Q 54.890625 11.625 47.5625 5.09375 
Q 40.234375 -1.421875 26.90625 -1.421875 
Q 22.3125 -1.421875 17.546875 -0.640625 
Q 12.796875 0.140625 7.71875 1.703125 
L 7.71875 11.625 
Q 12.109375 9.234375 16.796875 8.0625 
Q 21.484375 6.890625 26.703125 6.890625 
Q 35.15625 6.890625 40.078125 11.328125 
Q 45.015625 15.765625 45.015625 23.390625 
Q 45.015625 31 40.078125 35.4375 
Q 35.15625 39.890625 26.703125 39.890625 
Q 22.75 39.890625 18.8125 39.015625 
Q 14.890625 38.140625 10.796875 36.28125 
z
" id="DejaVuSans-35"/>
      </defs>
      <g transform="translate(263.463545 322.182437)scale(0.1 -0.1)">
       <use xlink:href="#DejaVuSans-35"/>
       <use x="63.623047" xlink:href="#DejaVuSans-30"/>
       <use x="127.246094" xlink:href="#DejaVuSans-30"/>
      </g>
     </g>
    </g>
    <g id="xtick_7">
     <g id="line2d_7">
      <g>
       <use style="stroke:#000000;stroke-width:0.8;" x="312.842209" xlink:href="#mfb815f940a" y="307.584"/>
      </g>
     </g>
     <g id="text_7">
      <!-- 600 -->
      <defs>
       <path d="M 33.015625 40.375 
Q 26.375 40.375 22.484375 35.828125 
Q 18.609375 31.296875 18.609375 23.390625 
Q 18.609375 15.53125 22.484375 10.953125 
Q 26.375 6.390625 33.015625 6.390625 
Q 39.65625 6.390625 43.53125 10.953125 
Q 47.40625 15.53125 47.40625 23.390625 
Q 47.40625 31.296875 43.53125 35.828125 
Q 39.65625 40.375 33.015625 40.375 
z
M 52.59375 71.296875 
L 52.59375 62.3125 
Q 48.875 64.0625 45.09375 64.984375 
Q 41.3125 65.921875 37.59375 65.921875 
Q 27.828125 65.921875 22.671875 59.328125 
Q 17.53125 52.734375 16.796875 39.40625 
Q 19.671875 43.65625 24.015625 45.921875 
Q 28.375 48.1875 33.59375 48.1875 
Q 44.578125 48.1875 50.953125 41.515625 
Q 57.328125 34.859375 57.328125 23.390625 
Q 57.328125 12.15625 50.6875 5.359375 
Q 44.046875 -1.421875 33.015625 -1.421875 
Q 20.359375 -1.421875 13.671875 8.265625 
Q 6.984375 17.96875 6.984375 36.375 
Q 6.984375 53.65625 15.1875 63.9375 
Q 23.390625 74.21875 37.203125 74.21875 
Q 40.921875 74.21875 44.703125 73.484375 
Q 48.484375 72.75 52.59375 71.296875 
z
" id="DejaVuSans-36"/>
      </defs>
      <g transform="translate(303.298459 322.182437)scale(0.1 -0.1)">
       <use xlink:href="#DejaVuSans-36"/>
       <use x="63.623047" xlink:href="#DejaVuSans-30"/>
       <use x="127.246094" xlink:href="#DejaVuSans-30"/>
      </g>
     </g>
    </g>
    <g id="xtick_8">
     <g id="line2d_8">
      <g>
       <use style="stroke:#000000;stroke-width:0.8;" x="352.677122" xlink:href="#mfb815f940a" y="307.584"/>
      </g>
     </g>
     <g id="text_8">
      <!-- 700 -->
      <defs>
       <path d="M 8.203125 72.90625 
L 55.078125 72.90625 
L 55.078125 68.703125 
L 28.609375 0 
L 18.3125 0 
L 43.21875 64.59375 
L 8.203125 64.59375 
z
" id="DejaVuSans-37"/>
      </defs>
      <g transform="translate(343.133372 322.182437)scale(0.1 -0.1)">
       <use xlink:href="#DejaVuSans-37"/>
       <use x="63.623047" xlink:href="#DejaVuSans-30"/>
       <use x="127.246094" xlink:href="#DejaVuSans-30"/>
      </g>
     </g>
    </g>
    <g id="xtick_9">
     <g id="line2d_9">
      <g>
       <use style="stroke:#000000;stroke-width:0.8;" x="392.512036" xlink:href="#mfb815f940a" y="307.584"/>
      </g>
     </g>
     <g id="text_9">
      <!-- 800 -->
      <defs>
       <path d="M 31.78125 34.625 
Q 24.75 34.625 20.71875 30.859375 
Q 16.703125 27.09375 16.703125 20.515625 
Q 16.703125 13.921875 20.71875 10.15625 
Q 24.75 6.390625 31.78125 6.390625 
Q 38.8125 6.390625 42.859375 10.171875 
Q 46.921875 13.96875 46.921875 20.515625 
Q 46.921875 27.09375 42.890625 30.859375 
Q 38.875 34.625 31.78125 34.625 
z
M 21.921875 38.8125 
Q 15.578125 40.375 12.03125 44.71875 
Q 8.5 49.078125 8.5 55.328125 
Q 8.5 64.0625 14.71875 69.140625 
Q 20.953125 74.21875 31.78125 74.21875 
Q 42.671875 74.21875 48.875 69.140625 
Q 55.078125 64.0625 55.078125 55.328125 
Q 55.078125 49.078125 51.53125 44.71875 
Q 48 40.375 41.703125 38.8125 
Q 48.828125 37.15625 52.796875 32.3125 
Q 56.78125 27.484375 56.78125 20.515625 
Q 56.78125 9.90625 50.3125 4.234375 
Q 43.84375 -1.421875 31.78125 -1.421875 
Q 19.734375 -1.421875 13.25 4.234375 
Q 6.78125 9.90625 6.78125 20.515625 
Q 6.78125 27.484375 10.78125 32.3125 
Q 14.796875 37.15625 21.921875 38.8125 
z
M 18.3125 54.390625 
Q 18.3125 48.734375 21.84375 45.5625 
Q 25.390625 42.390625 31.78125 42.390625 
Q 38.140625 42.390625 41.71875 45.5625 
Q 45.3125 48.734375 45.3125 54.390625 
Q 45.3125 60.0625 41.71875 63.234375 
Q 38.140625 66.40625 31.78125 66.40625 
Q 25.390625 66.40625 21.84375 63.234375 
Q 18.3125 60.0625 18.3125 54.390625 
z
" id="DejaVuSans-38"/>
      </defs>
      <g transform="translate(382.968286 322.182437)scale(0.1 -0.1)">
       <use xlink:href="#DejaVuSans-38"/>
       <use x="63.623047" xlink:href="#DejaVuSans-30"/>
       <use x="127.246094" xlink:href="#DejaVuSans-30"/>
      </g>
     </g>
    </g>
   </g>
   <g id="matplotlib.axis_2">
    <g id="ytick_1">
     <g id="line2d_10">
      <defs>
       <path d="M 0 0 
L -3.5 0 
" id="mbfca633aa9" style="stroke:#000000;stroke-width:0.8;"/>
      </defs>
      <g>
       <use style="stroke:#000000;stroke-width:0.8;" x="57.6" xlink:href="#mbfca633aa9" y="288.77095"/>
      </g>
     </g>
     <g id="text_10">
      <!-- −2.5 -->
      <defs>
       <path d="M 10.59375 35.5 
L 73.1875 35.5 
L 73.1875 27.203125 
L 10.59375 27.203125 
z
" id="DejaVuSans-2212"/>
       <path d="M 10.6875 12.40625 
L 21 12.40625 
L 21 0 
L 10.6875 0 
z
" id="DejaVuSans-2e"/>
      </defs>
      <g transform="translate(26.317187 292.570168)scale(0.1 -0.1)">
       <use xlink:href="#DejaVuSans-2212"/>
       <use x="83.789062" xlink:href="#DejaVuSans-32"/>
       <use x="147.412109" xlink:href="#DejaVuSans-2e"/>
       <use x="179.199219" xlink:href="#DejaVuSans-35"/>
      </g>
     </g>
    </g>
    <g id="ytick_2">
     <g id="line2d_11">
      <g>
       <use style="stroke:#000000;stroke-width:0.8;" x="57.6" xlink:href="#mbfca633aa9" y="254.369002"/>
      </g>
     </g>
     <g id="text_11">
      <!-- 0.0 -->
      <g transform="translate(34.696875 258.168221)scale(0.1 -0.1)">
       <use xlink:href="#DejaVuSans-30"/>
       <use x="63.623047" xlink:href="#DejaVuSans-2e"/>
       <use x="95.410156" xlink:href="#DejaVuSans-30"/>
      </g>
     </g>
    </g>
    <g id="ytick_3">
     <g id="line2d_12">
      <g>
       <use style="stroke:#000000;stroke-width:0.8;" x="57.6" xlink:href="#mbfca633aa9" y="219.967054"/>
      </g>
     </g>
     <g id="text_12">
      <!-- 2.5 -->
      <g transform="translate(34.696875 223.766273)scale(0.1 -0.1)">
       <use xlink:href="#DejaVuSans-32"/>
       <use x="63.623047" xlink:href="#DejaVuSans-2e"/>
       <use x="95.410156" xlink:href="#DejaVuSans-35"/>
      </g>
     </g>
    </g>
    <g id="ytick_4">
     <g id="line2d_13">
      <g>
       <use style="stroke:#000000;stroke-width:0.8;" x="57.6" xlink:href="#mbfca633aa9" y="185.565107"/>
      </g>
     </g>
     <g id="text_13">
      <!-- 5.0 -->
      <g transform="translate(34.696875 189.364325)scale(0.1 -0.1)">
       <use xlink:href="#DejaVuSans-35"/>
       <use x="63.623047" xlink:href="#DejaVuSans-2e"/>
       <use x="95.410156" xlink:href="#DejaVuSans-30"/>
      </g>
     </g>
    </g>
    <g id="ytick_5">
     <g id="line2d_14">
      <g>
       <use style="stroke:#000000;stroke-width:0.8;" x="57.6" xlink:href="#mbfca633aa9" y="151.163159"/>
      </g>
     </g>
     <g id="text_14">
      <!-- 7.5 -->
      <g transform="translate(34.696875 154.962378)scale(0.1 -0.1)">
       <use xlink:href="#DejaVuSans-37"/>
       <use x="63.623047" xlink:href="#DejaVuSans-2e"/>
       <use x="95.410156" xlink:href="#DejaVuSans-35"/>
      </g>
     </g>
    </g>
    <g id="ytick_6">
     <g id="line2d_15">
      <g>
       <use style="stroke:#000000;stroke-width:0.8;" x="57.6" xlink:href="#mbfca633aa9" y="116.761211"/>
      </g>
     </g>
     <g id="text_15">
      <!-- 10.0 -->
      <g transform="translate(28.334375 120.56043)scale(0.1 -0.1)">
       <use xlink:href="#DejaVuSans-31"/>
       <use x="63.623047" xlink:href="#DejaVuSans-30"/>
       <use x="127.246094" xlink:href="#DejaVuSans-2e"/>
       <use x="159.033203" xlink:href="#DejaVuSans-30"/>
      </g>
     </g>
    </g>
    <g id="ytick_7">
     <g id="line2d_16">
      <g>
       <use style="stroke:#000000;stroke-width:0.8;" x="57.6" xlink:href="#mbfca633aa9" y="82.359264"/>
      </g>
     </g>
     <g id="text_16">
      <!-- 12.5 -->
      <g transform="translate(28.334375 86.158483)scale(0.1 -0.1)">
       <use xlink:href="#DejaVuSans-31"/>
       <use x="63.623047" xlink:href="#DejaVuSans-32"/>
       <use x="127.246094" xlink:href="#DejaVuSans-2e"/>
       <use x="159.033203" xlink:href="#DejaVuSans-35"/>
      </g>
     </g>
    </g>
    <g id="ytick_8">
     <g id="line2d_17">
      <g>
       <use style="stroke:#000000;stroke-width:0.8;" x="57.6" xlink:href="#mbfca633aa9" y="47.957316"/>
      </g>
     </g>
     <g id="text_17">
      <!-- 15.0 -->
      <g transform="translate(28.334375 51.756535)scale(0.1 -0.1)">
       <use xlink:href="#DejaVuSans-31"/>
       <use x="63.623047" xlink:href="#DejaVuSans-35"/>
       <use x="127.246094" xlink:href="#DejaVuSans-2e"/>
       <use x="159.033203" xlink:href="#DejaVuSans-30"/>
      </g>
     </g>
    </g>
   </g>
   <g id="line2d_18">
    <path clip-path="url(#p69cd21ec62)" d="M 73.832727 123.889841 
L 74.231076 160.545532 
L 75.027775 125.224507 
L 75.426124 125.361698 
L 75.824473 120.04205 
L 76.222822 129.661942 
L 76.621171 162.791152 
L 77.01952 170.278672 
L 77.417869 188.727881 
L 77.816219 216.748821 
L 78.214568 235.192256 
L 78.612917 240.416398 
L 79.011266 230.360845 
L 79.409615 248.591952 
L 79.807964 260.100229 
L 80.206313 267.474493 
L 80.604663 293.846613 
L 81.003012 295.488 
L 81.401361 288.827508 
L 81.79971 290.596453 
L 82.198059 280.569113 
L 82.596408 279.544622 
L 82.994757 283.025411 
L 83.393107 271.634789 
L 83.791456 269.908087 
L 84.189805 269.901619 
L 84.986503 256.670079 
L 85.384852 232.885949 
L 85.783201 225.337887 
L 86.18155 220.184337 
L 86.5799 206.116141 
L 86.978249 202.112855 
L 88.173296 124.979154 
L 88.571645 123.979159 
L 88.969994 122.288772 
L 89.368344 125.8502 
L 90.165042 149.176514 
L 90.563391 159.976939 
L 90.96174 158.823788 
L 91.360089 161.132708 
L 91.758438 158.155425 
L 92.156788 172.289122 
L 92.953486 223.46986 
L 93.351835 227.251597 
L 93.750184 225.700759 
L 94.148533 228.954769 
L 94.546882 222.52766 
L 94.945231 213.474307 
L 95.343581 210.202544 
L 95.74193 222.649992 
L 96.140279 226.489801 
L 96.936977 241.892241 
L 97.335326 244.484084 
L 97.733675 244.990206 
L 98.132025 241.854399 
L 98.530374 242.407583 
L 98.928723 242.412123 
L 99.327072 241.920451 
L 99.725421 248.69557 
L 100.12377 246.119691 
L 100.522119 240.933803 
L 100.920468 240.963939 
L 101.318818 246.119691 
L 101.717167 246.125882 
L 102.115516 238.872576 
L 102.513865 233.668387 
L 102.912214 238.866797 
L 103.310563 245.604211 
L 103.708912 242.515192 
L 104.107262 245.630357 
L 104.505611 250.773448 
L 105.302309 258.462971 
L 105.700658 266.112863 
L 106.099007 257.956575 
L 106.497356 259.490213 
L 106.895706 263.052467 
L 107.294055 263.036366 
L 107.692404 261.522818 
L 108.090753 257.955199 
L 108.887451 266.117267 
L 109.2858 259.49214 
L 109.684149 261.031558 
L 110.082499 252.315894 
L 110.480848 249.219031 
L 111.277546 249.228663 
L 111.675895 251.284799 
L 112.074244 252.316719 
L 112.472593 249.232516 
L 112.870943 247.177894 
L 113.269292 241.003983 
L 113.667641 231.700595 
L 114.06599 227.114816 
L 114.464339 223.9841 
L 114.862688 228.743679 
L 115.261037 218.966508 
L 115.659387 222.117176 
L 116.057736 215.447603 
L 116.854434 206.211367 
L 117.651132 203.270688 
L 118.049481 204.986934 
L 118.44783 205.712127 
L 118.84618 208.987191 
L 119.244529 205.493329 
L 119.642878 205.564749 
L 120.041227 213.852039 
L 120.439576 209.350064 
L 120.837925 212.533895 
L 121.236274 206.129215 
L 121.634624 209.819717 
L 122.032973 204.482464 
L 122.431322 204.607549 
L 122.829671 208.172139 
L 123.22802 215.206377 
L 123.626369 220.198923 
L 124.024718 222.254095 
L 124.423067 225.700759 
L 124.821417 225.700759 
L 125.618115 230.201909 
L 126.016464 236.591451 
L 126.414813 239.98486 
L 126.813162 249.602543 
L 127.211511 252.466987 
L 127.609861 249.614103 
L 128.00821 244.849295 
L 128.406559 241.984714 
L 128.804908 242.957188 
L 129.601606 233.425646 
L 129.999955 235.355871 
L 130.398305 233.468993 
L 130.796654 237.292563 
L 131.195003 234.91415 
L 131.593352 233.468993 
L 131.991701 227.778086 
L 132.788399 230.733212 
L 133.186748 235.486323 
L 133.585098 234.09098 
L 133.983447 237.432648 
L 134.780145 234.20836 
L 135.178494 235.653242 
L 135.576843 232.34804 
L 135.975192 234.249504 
L 136.373542 234.249504 
L 136.771891 241.791512 
L 137.17024 241.804172 
L 137.568589 243.68018 
L 137.966938 237.138855 
L 138.365287 239.032751 
L 138.763636 237.173807 
L 139.161985 243.730406 
L 139.560335 245.127401 
L 140.357033 245.145978 
L 141.55208 235.904376 
L 141.950429 235.922953 
L 142.348779 237.306325 
L 142.747128 240.571481 
L 143.145477 238.742262 
L 143.543826 234.172994 
L 143.942175 236.009095 
L 144.340524 236.009095 
L 144.738873 237.403062 
L 145.137223 236.045699 
L 145.933921 238.861292 
L 146.33227 242.070443 
L 146.730619 242.082553 
L 147.128968 236.148905 
L 147.527317 232.967414 
L 147.925666 233.009795 
L 148.324016 240.798259 
L 148.722365 237.609611 
L 149.120714 236.250734 
L 149.519063 231.721236 
L 149.917412 231.765821 
L 150.315761 234.955845 
L 150.71411 234.974974 
L 151.11246 233.150018 
L 151.510809 233.170797 
L 152.307507 239.572448 
L 152.705856 240.943848 
L 153.104205 238.24302 
L 153.502554 237.811344 
L 153.900904 235.145056 
L 154.299253 237.880975 
L 154.697602 239.247282 
L 155.095951 237.897074 
L 155.4943 237.913036 
L 156.290998 232.15993 
L 156.689347 227.743821 
L 157.087697 229.526805 
L 157.486046 232.209882 
L 157.884395 230.460336 
L 158.282744 230.933294 
L 158.681093 230.559965 
L 159.079442 227.948307 
L 159.477791 227.973627 
L 159.876141 219.17526 
L 160.27449 216.132475 
L 160.672839 214.902126 
L 161.071188 216.338888 
L 161.469537 220.848569 
L 161.867886 216.459294 
L 162.266235 206.391632 
L 162.664584 205.192244 
L 163.062934 202.19542 
L 163.859632 208.139666 
L 164.257981 210.341388 
L 165.054679 219.304196 
L 165.453028 219.412907 
L 165.851378 222.466151 
L 166.249727 215.271051 
L 166.648076 214.083219 
L 167.046425 218.544603 
L 167.843123 218.762713 
L 168.241472 211.680451 
L 168.639822 209.22429 
L 169.038171 204.177662 
L 169.43652 204.329856 
L 169.834869 200.159927 
L 170.233218 200.32368 
L 170.631567 196.166274 
L 171.029916 196.515938 
L 171.428265 192.569065 
L 172.224964 192.936892 
L 172.623313 189.03599 
L 173.021662 193.480584 
L 173.420011 189.612425 
L 174.216709 189.991124 
L 174.615059 182.15505 
L 175.013408 178.36464 
L 175.411757 178.584954 
L 176.208455 179.453533 
L 176.606804 179.667652 
L 177.005153 175.959946 
L 177.403503 176.404281 
L 177.801852 172.737309 
L 178.200201 173.195818 
L 178.996899 165.961775 
L 179.395248 170.508336 
L 179.793597 170.970289 
L 180.191946 171.199403 
L 180.590296 171.653921 
L 180.988645 175.84284 
L 181.386994 176.055582 
L 182.98039 177.717471 
L 183.37874 181.75282 
L 183.777089 189.357439 
L 184.573787 197.181407 
L 184.972136 193.764467 
L 185.370485 194.076972 
L 186.167183 194.386177 
L 187.76058 209.421756 
L 188.158929 209.534318 
L 188.557278 202.636731 
L 188.955627 206.206275 
L 189.353977 206.326406 
L 190.150675 213.596364 
L 190.947373 213.796721 
L 191.345722 210.523445 
L 191.744071 210.630642 
L 192.142421 207.381034 
L 192.54077 207.495246 
L 193.337468 201.187308 
L 193.735817 187.891776 
L 194.134166 181.420361 
L 194.532515 178.287718 
L 194.930864 171.870377 
L 195.329214 175.359699 
L 195.727563 152.558914 
L 196.125912 153.042606 
L 196.524261 143.500188 
L 196.92261 140.777628 
L 197.719308 122.239796 
L 198.117658 116.761211 
L 198.516007 114.858779 
L 198.914356 115.816531 
L 199.312705 107.044037 
L 199.711054 104.93066 
L 200.109403 95.590806 
L 200.507752 104.529389 
L 200.906102 89.970346 
L 201.304451 91.412347 
L 201.7028 86.481437 
L 202.101149 87.931969 
L 202.499498 92.650399 
L 202.897847 100.178516 
L 203.296196 110.427814 
L 203.694545 114.186433 
L 204.092895 126.954368 
L 204.491244 127.994548 
L 204.889593 123.181026 
L 205.686291 145.588118 
L 206.881339 156.267172 
L 207.678037 168.037179 
L 208.474735 173.881379 
L 208.873084 168.850023 
L 209.271433 172.061518 
L 209.669782 177.920167 
L 210.068132 175.663399 
L 210.466481 178.760261 
L 210.86483 179.173501 
L 211.263179 184.694185 
L 211.661528 185.070129 
L 212.059877 182.852442 
L 212.458226 170.671951 
L 212.856576 165.906873 
L 213.254925 158.705855 
L 213.653274 161.654517 
L 214.848321 163.110816 
L 215.24667 165.975121 
L 215.64502 166.433085 
L 216.043369 161.998944 
L 216.441718 162.473417 
L 216.840067 160.598787 
L 217.238416 168.509172 
L 218.035114 164.923938 
L 218.433463 156.077685 
L 219.230162 147.994604 
L 219.628511 146.264736 
L 220.02686 137.638101 
L 220.425209 131.504926 
L 220.823558 132.297547 
L 221.221907 130.676662 
L 221.620257 127.076297 
L 222.018606 118.945454 
L 222.416955 113.288405 
L 223.213653 107.160729 
L 224.408701 91.494775 
L 224.80705 90.895079 
L 225.205399 88.255209 
L 226.002097 71.972761 
L 226.400446 63.526119 
L 226.798795 59.490913 
L 227.197144 53.568 
L 227.595494 53.609693 
L 228.392192 58.058689 
L 228.790541 73.405406 
L 229.18889 76.991322 
L 229.985588 80.529351 
L 230.383938 80.548616 
L 230.782287 84.372326 
L 231.180636 92.062397 
L 231.578985 97.600561 
L 231.977334 108.343191 
L 232.774032 119.624558 
L 233.172381 120.931141 
L 233.570731 106.09908 
L 233.96908 105.514385 
L 234.367429 103.476008 
L 236.757524 159.627689 
L 237.155873 163.248289 
L 237.952571 155.534682 
L 238.749269 172.281963 
L 239.147619 186.378095 
L 239.545968 185.123107 
L 240.342666 201.724113 
L 240.741015 203.349126 
L 241.139364 206.416954 
L 241.537713 204.963814 
L 241.936062 199.325886 
L 242.334412 207.017059 
L 242.732761 220.321669 
L 243.13111 221.907738 
L 243.529459 220.565648 
L 243.927808 216.340263 
L 244.326157 216.495347 
L 244.724506 210.839942 
L 245.521205 195.33402 
L 245.919554 189.777555 
L 246.317903 187.037922 
L 246.716252 191.693334 
L 247.114601 194.720427 
L 247.51295 194.84042 
L 249.106347 195.667306 
L 249.903045 198.728808 
L 250.301394 205.849184 
L 250.699743 204.74433 
L 251.098093 202.21441 
L 251.496442 205.080644 
L 251.894791 205.17587 
L 252.29314 203.94373 
L 252.691489 206.781338 
L 253.488187 209.682661 
L 253.886537 209.852745 
L 254.683235 202.19542 
L 255.081584 199.690408 
L 255.479933 210.355289 
L 255.878282 224.73434 
L 256.276631 232.506013 
L 257.07333 230.047651 
L 257.870028 232.688481 
L 258.268377 230.182644 
L 258.666726 232.808338 
L 259.065075 236.694658 
L 259.463424 238.032068 
L 259.861774 235.58719 
L 260.260123 228.026605 
L 261.056821 203.731398 
L 261.45517 203.870797 
L 261.853519 202.797593 
L 262.251868 200.331249 
L 262.650218 195.358377 
L 263.048567 195.57291 
L 263.446916 194.430901 
L 263.845265 192.046574 
L 265.040312 200.212079 
L 265.438661 201.631643 
L 265.837011 199.423589 
L 266.633709 199.810815 
L 267.032058 197.536294 
L 267.430407 197.784816 
L 268.227105 195.736112 
L 268.625455 195.939359 
L 269.023804 193.659749 
L 269.422153 192.682733 
L 269.820502 190.420459 
L 270.218851 187.041636 
L 270.6172 185.09545 
L 271.015549 181.758877 
L 271.812248 184.694185 
L 272.210597 190.768745 
L 272.608946 193.337881 
L 273.007295 191.246105 
L 273.405644 190.312166 
L 273.803993 190.524494 
L 274.202342 182.840198 
L 274.600692 181.943817 
L 274.999041 182.299399 
L 275.39739 189.533442 
L 275.795739 194.297699 
L 276.194088 190.05594 
L 276.592437 188.051953 
L 276.990786 175.893896 
L 277.389136 169.466785 
L 277.787485 166.580873 
L 278.185834 169.115606 
L 278.584183 168.296016 
L 278.982532 176.661058 
L 279.380881 181.264863 
L 279.77923 188.026224 
L 280.177579 188.18062 
L 280.575929 185.085404 
L 281.372627 194.264399 
L 281.770976 202.086435 
L 282.169325 207.634232 
L 282.567674 215.170324 
L 282.966023 212.170609 
L 283.364373 213.353212 
L 283.762722 217.591806 
L 284.161071 215.577504 
L 284.55942 210.473356 
L 284.957769 210.57078 
L 285.356118 212.761909 
L 285.754467 212.884244 
L 286.152817 210.924571 
L 286.949515 213.187117 
L 287.347864 209.235297 
L 288.144562 213.54476 
L 288.542911 209.59418 
L 288.94126 209.691191 
L 289.33961 212.81957 
L 289.737959 210.934755 
L 290.136308 210.042918 
L 290.534657 213.116114 
L 290.933006 215.192338 
L 291.331355 215.275868 
L 291.729704 216.33421 
L 292.526403 216.601856 
L 292.924752 215.688002 
L 293.323101 220.641608 
L 293.72145 219.750736 
L 294.119799 217.878445 
L 294.518148 221.833155 
L 294.916497 222.877596 
L 296.111545 214.455176 
L 296.509894 213.561138 
L 296.908243 218.454883 
L 297.704941 218.626755 
L 298.103291 214.864419 
L 298.50164 214.972031 
L 298.899989 216.014683 
L 299.298338 211.366567 
L 299.696687 211.454087 
L 300.095036 212.500457 
L 300.891735 218.350851 
L 301.290084 219.344931 
L 301.688433 216.60516 
L 302.086782 218.543225 
L 302.485131 219.531525 
L 302.88348 215.966796 
L 303.281829 216.980552 
L 303.680178 215.234447 
L 304.476877 215.466041 
L 304.875226 215.542687 
L 305.273575 214.691723 
L 305.671924 215.669564 
L 306.070273 213.023778 
L 306.468622 212.235012 
L 306.866972 209.603951 
L 307.265321 207.873807 
L 307.66367 212.561828 
L 308.062019 212.642743 
L 309.257066 223.574443 
L 309.655416 223.633337 
L 310.053765 224.56852 
L 310.452114 222.855716 
L 310.850463 223.82833 
L 311.248812 225.664431 
L 312.04551 231.016272 
L 312.443859 231.923521 
L 312.842209 234.550728 
L 313.240558 235.424263 
L 313.638907 234.575497 
L 314.037256 231.133101 
L 314.435605 232.035671 
L 314.833954 230.347635 
L 315.232303 232.118923 
L 315.630653 234.735122 
L 316.029002 233.919521 
L 316.427351 233.94484 
L 316.8257 232.256531 
L 317.224049 231.434325 
L 317.622398 231.434325 
L 318.020747 230.584872 
L 318.419096 222.978875 
L 318.817446 225.594936 
L 319.215795 227.320814 
L 319.614144 224.857499 
L 320.012493 223.209369 
L 320.410842 218.178565 
L 320.809191 219.106454 
L 321.60589 217.539654 
L 322.004239 215.935698 
L 322.402588 210.087229 
L 322.800937 202.599024 
L 323.199286 212.895941 
L 323.597635 211.262949 
L 323.995984 202.973317 
L 324.394334 204.840104 
L 324.792683 208.252641 
L 325.191032 206.804868 
L 326.386079 207.086691 
L 326.784428 203.162391 
L 327.182777 205.801572 
L 327.581127 213.328029 
L 327.979476 210.083237 
L 328.377825 205.338244 
L 328.776174 210.417625 
L 329.174523 216.919318 
L 329.572872 216.919318 
L 329.971221 218.698723 
L 330.369571 225.090742 
L 331.166269 232.301253 
L 331.564618 237.912487 
L 331.962967 238.731802 
L 332.759665 231.746418 
L 333.158015 237.294215 
L 333.556364 239.655703 
L 333.954713 234.201066 
L 334.353062 230.322591 
L 334.751411 233.507661 
L 335.14976 226.47549 
L 336.344808 216.424203 
L 336.743157 211.076628 
L 337.141506 212.739757 
L 337.539855 224.43752 
L 337.938204 228.304022 
L 338.336553 227.552272 
L 338.734902 226.082893 
L 339.531601 221.641466 
L 339.92995 226.270317 
L 340.328299 227.833129 
L 340.726648 226.363063 
L 341.124997 226.485674 
L 341.523346 231.134615 
L 341.921695 230.424146 
L 342.718394 214.493568 
L 343.116743 210.779395 
L 343.515092 213.918092 
L 343.913441 219.31438 
L 344.31179 219.428044 
L 344.710139 210.459593 
L 345.108489 204.53269 
L 345.506838 208.376075 
L 345.905187 215.221373 
L 346.701885 210.240385 
L 347.100234 208.108153 
L 347.498583 214.885335 
L 347.896933 219.402451 
L 348.693631 204.184404 
L 349.09198 189.117729 
L 349.490329 194.508236 
L 349.888678 208.427952 
L 350.287027 208.427952 
L 350.685376 199.067324 
L 351.083726 204.303846 
L 351.482075 207.335758 
L 351.880424 204.639747 
L 352.278773 199.63867 
L 352.677122 196.82528 
L 353.075471 197.885544 
L 353.47382 200.336341 
L 353.87217 226.681352 
L 354.270519 235.016806 
L 355.067217 219.637072 
L 355.465566 225.804791 
L 356.262264 215.863592 
L 356.660613 218.688402 
L 357.058963 217.078806 
L 357.457312 217.314389 
L 358.25401 228.258612 
L 359.050708 204.682959 
L 359.449057 194.189399 
L 359.847407 197.828576 
L 360.245756 195.270582 
L 361.042454 199.671281 
L 361.440803 200.650224 
L 361.839152 198.109297 
L 362.237501 186.446212 
L 362.635851 178.718982 
L 363.0342 181.32651 
L 363.432549 186.20746 
L 363.830898 203.026709 
L 364.229247 239.233245 
L 364.627596 254.674904 
L 365.025945 255.932089 
L 365.424294 254.252586 
L 365.822644 260.512915 
L 366.220993 262.299614 
L 366.619342 268.34665 
L 367.017691 271.283338 
L 367.41604 281.323066 
L 367.814389 274.787796 
L 368.212738 273.330531 
L 368.611088 257.451004 
L 369.009437 228.022752 
L 369.407786 215.644518 
L 369.806135 218.300487 
L 370.204484 224.764887 
L 370.602833 222.909522 
L 371.001182 224.002128 
L 371.399532 226.798592 
L 371.797881 238.935463 
L 372.19623 235.918824 
L 372.594579 238.541629 
L 372.992928 238.980186 
L 373.391277 238.314301 
L 373.789626 239.444887 
L 374.984674 225.128721 
L 375.781372 212.02392 
L 376.179721 206.770879 
L 376.57807 206.17435 
L 376.976419 205.107064 
L 377.374769 202.697275 
L 377.773118 201.904382 
L 378.171467 205.899823 
L 378.569816 206.874635 
L 378.968165 212.232535 
L 379.366514 212.965983 
L 379.764863 214.487787 
L 380.561562 223.08855 
L 380.959911 230.453594 
L 381.35826 231.610463 
L 381.756609 234.86296 
L 382.951656 224.705167 
L 383.350006 229.654367 
L 383.748355 230.156911 
L 384.146704 231.195025 
L 384.545053 226.597822 
L 385.341751 238.698089 
L 385.7401 235.236152 
L 386.13845 230.758394 
L 386.536799 228.423465 
L 386.935148 233.193777 
L 387.333497 239.304664 
L 387.731846 242.303551 
L 388.528544 233.551145 
L 388.926893 232.582524 
L 389.325243 239.098115 
L 390.121941 226.668967 
L 390.52029 224.85282 
L 390.918639 226.290409 
L 391.316988 227.278707 
L 391.715337 230.891737 
L 392.113687 231.342403 
L 392.512036 232.1203 
L 392.910385 237.075419 
L 393.308734 245.276016 
L 393.707083 257.35688 
L 394.503781 254.369002 
L 394.902131 256.103135 
L 395.698829 251.87431 
L 396.097178 251.425434 
L 396.495527 251.181455 
L 396.893876 254.282034 
L 397.292225 252.531938 
L 398.088924 245.300786 
L 398.487273 235.88745 
L 398.487273 235.88745 
" style="fill:none;opacity:0.6;stroke:#1f77b4;stroke-linecap:square;stroke-width:0.3;"/>
   </g>
   <g id="line2d_19">
    <path clip-path="url(#p69cd21ec62)" d="M 379.764863 228.722418 
L 380.163212 219.110825 
L 380.561562 218.544475 
L 380.959911 222.557158 
L 381.35826 236.891656 
L 381.756609 237.215599 
L 382.553307 227.686717 
L 382.951656 237.37137 
L 383.350006 255.237156 
L 383.748355 262.789611 
L 384.146704 261.391094 
L 384.545053 259.297029 
L 384.943402 255.672499 
L 386.536799 231.325004 
L 386.935148 233.885416 
L 388.130195 251.751637 
L 388.528544 242.559907 
L 389.325243 210.465695 
L 389.723592 204.67391 
L 390.121941 217.610595 
L 390.52029 234.390158 
L 391.316988 250.277289 
L 391.715337 254.513439 
L 392.113687 253.406319 
L 392.512036 241.967147 
L 392.910385 235.518944 
L 393.308734 238.148603 
L 393.707083 237.045783 
L 394.503781 247.560082 
L 395.30048 231.888601 
L 395.698829 244.172869 
L 396.097178 247.956219 
L 396.495527 247.714671 
L 397.292225 248.299888 
L 397.690574 243.909778 
L 398.487273 233.675043 
L 398.487273 233.675043 
" style="fill:none;opacity:0.8;stroke:#ff7f0e;stroke-linecap:square;stroke-width:0.3;"/>
   </g>
   <g id="patch_3">
    <path d="M 57.6 307.584 
L 57.6 41.472 
" style="fill:none;stroke:#000000;stroke-linecap:square;stroke-linejoin:miter;stroke-width:0.8;"/>
   </g>
   <g id="patch_4">
    <path d="M 414.72 307.584 
L 414.72 41.472 
" style="fill:none;stroke:#000000;stroke-linecap:square;stroke-linejoin:miter;stroke-width:0.8;"/>
   </g>
   <g id="patch_5">
    <path d="M 57.6 307.584 
L 414.72 307.584 
" style="fill:none;stroke:#000000;stroke-linecap:square;stroke-linejoin:miter;stroke-width:0.8;"/>
   </g>
   <g id="patch_6">
    <path d="M 57.6 41.472 
L 414.72 41.472 
" style="fill:none;stroke:#000000;stroke-linecap:square;stroke-linejoin:miter;stroke-width:0.8;"/>
   </g>
  </g>
 </g>
 <defs>
  <clipPath id="p69cd21ec62">
   <rect height="266.112" width="357.12" x="57.6" y="41.472"/>
  </clipPath>
 </defs>
</svg>
