<?xml version="1.0" encoding="utf-8" standalone="no"?>
<!DOCTYPE svg PUBLIC "-//W3C//DTD SVG 1.1//EN"
  "http://www.w3.org/Graphics/SVG/1.1/DTD/svg11.dtd">
<!-- Created with matplotlib (http://matplotlib.org/) -->
<svg height="345.6pt" version="1.1" viewBox="0 0 460.8 345.6" width="460.8pt" xmlns="http://www.w3.org/2000/svg" xmlns:xlink="http://www.w3.org/1999/xlink">
 <defs>
  <style type="text/css">
*{stroke-linecap:butt;stroke-linejoin:round;}
  </style>
 </defs>
 <g id="figure_1">
  <g id="patch_1">
   <path d="M 0 345.6 
L 460.8 345.6 
L 460.8 0 
L 0 0 
z
" style="fill:#ffffff;"/>
  </g>
  <g id="axes_1">
   <g id="patch_2">
    <path d="M 57.6 307.584 
L 414.72 307.584 
L 414.72 41.472 
L 57.6 41.472 
z
" style="fill:#ffffff;"/>
   </g>
   <g id="matplotlib.axis_1">
    <g id="xtick_1">
     <g id="line2d_1">
      <defs>
       <path d="M 0 0 
L 0 3.5 
" id="m35fa72771f" style="stroke:#000000;stroke-width:0.8;"/>
      </defs>
      <g>
       <use style="stroke:#000000;stroke-width:0.8;" x="73.832727" xlink:href="#m35fa72771f" y="307.584"/>
      </g>
     </g>
     <g id="text_1">
      <!-- 0 -->
      <defs>
       <path d="M 31.78125 66.40625 
Q 24.171875 66.40625 20.328125 58.90625 
Q 16.5 51.421875 16.5 36.375 
Q 16.5 21.390625 20.328125 13.890625 
Q 24.171875 6.390625 31.78125 6.390625 
Q 39.453125 6.390625 43.28125 13.890625 
Q 47.125 21.390625 47.125 36.375 
Q 47.125 51.421875 43.28125 58.90625 
Q 39.453125 66.40625 31.78125 66.40625 
z
M 31.78125 74.21875 
Q 44.046875 74.21875 50.515625 64.515625 
Q 56.984375 54.828125 56.984375 36.375 
Q 56.984375 17.96875 50.515625 8.265625 
Q 44.046875 -1.421875 31.78125 -1.421875 
Q 19.53125 -1.421875 13.0625 8.265625 
Q 6.59375 17.96875 6.59375 36.375 
Q 6.59375 54.828125 13.0625 64.515625 
Q 19.53125 74.21875 31.78125 74.21875 
z
" id="DejaVuSans-30"/>
      </defs>
      <g transform="translate(70.651477 322.182437)scale(0.1 -0.1)">
       <use xlink:href="#DejaVuSans-30"/>
      </g>
     </g>
    </g>
    <g id="xtick_2">
     <g id="line2d_2">
      <g>
       <use style="stroke:#000000;stroke-width:0.8;" x="151.223561" xlink:href="#m35fa72771f" y="307.584"/>
      </g>
     </g>
     <g id="text_2">
      <!-- 200 -->
      <defs>
       <path d="M 19.1875 8.296875 
L 53.609375 8.296875 
L 53.609375 0 
L 7.328125 0 
L 7.328125 8.296875 
Q 12.9375 14.109375 22.625 23.890625 
Q 32.328125 33.6875 34.8125 36.53125 
Q 39.546875 41.84375 41.421875 45.53125 
Q 43.3125 49.21875 43.3125 52.78125 
Q 43.3125 58.59375 39.234375 62.25 
Q 35.15625 65.921875 28.609375 65.921875 
Q 23.96875 65.921875 18.8125 64.3125 
Q 13.671875 62.703125 7.8125 59.421875 
L 7.8125 69.390625 
Q 13.765625 71.78125 18.9375 73 
Q 24.125 74.21875 28.421875 74.21875 
Q 39.75 74.21875 46.484375 68.546875 
Q 53.21875 62.890625 53.21875 53.421875 
Q 53.21875 48.921875 51.53125 44.890625 
Q 49.859375 40.875 45.40625 35.40625 
Q 44.1875 33.984375 37.640625 27.21875 
Q 31.109375 20.453125 19.1875 8.296875 
z
" id="DejaVuSans-32"/>
      </defs>
      <g transform="translate(141.679811 322.182437)scale(0.1 -0.1)">
       <use xlink:href="#DejaVuSans-32"/>
       <use x="63.623047" xlink:href="#DejaVuSans-30"/>
       <use x="127.246094" xlink:href="#DejaVuSans-30"/>
      </g>
     </g>
    </g>
    <g id="xtick_3">
     <g id="line2d_3">
      <g>
       <use style="stroke:#000000;stroke-width:0.8;" x="228.614394" xlink:href="#m35fa72771f" y="307.584"/>
      </g>
     </g>
     <g id="text_3">
      <!-- 400 -->
      <defs>
       <path d="M 37.796875 64.3125 
L 12.890625 25.390625 
L 37.796875 25.390625 
z
M 35.203125 72.90625 
L 47.609375 72.90625 
L 47.609375 25.390625 
L 58.015625 25.390625 
L 58.015625 17.1875 
L 47.609375 17.1875 
L 47.609375 0 
L 37.796875 0 
L 37.796875 17.1875 
L 4.890625 17.1875 
L 4.890625 26.703125 
z
" id="DejaVuSans-34"/>
      </defs>
      <g transform="translate(219.070644 322.182437)scale(0.1 -0.1)">
       <use xlink:href="#DejaVuSans-34"/>
       <use x="63.623047" xlink:href="#DejaVuSans-30"/>
       <use x="127.246094" xlink:href="#DejaVuSans-30"/>
      </g>
     </g>
    </g>
    <g id="xtick_4">
     <g id="line2d_4">
      <g>
       <use style="stroke:#000000;stroke-width:0.8;" x="306.005227" xlink:href="#m35fa72771f" y="307.584"/>
      </g>
     </g>
     <g id="text_4">
      <!-- 600 -->
      <defs>
       <path d="M 33.015625 40.375 
Q 26.375 40.375 22.484375 35.828125 
Q 18.609375 31.296875 18.609375 23.390625 
Q 18.609375 15.53125 22.484375 10.953125 
Q 26.375 6.390625 33.015625 6.390625 
Q 39.65625 6.390625 43.53125 10.953125 
Q 47.40625 15.53125 47.40625 23.390625 
Q 47.40625 31.296875 43.53125 35.828125 
Q 39.65625 40.375 33.015625 40.375 
z
M 52.59375 71.296875 
L 52.59375 62.3125 
Q 48.875 64.0625 45.09375 64.984375 
Q 41.3125 65.921875 37.59375 65.921875 
Q 27.828125 65.921875 22.671875 59.328125 
Q 17.53125 52.734375 16.796875 39.40625 
Q 19.671875 43.65625 24.015625 45.921875 
Q 28.375 48.1875 33.59375 48.1875 
Q 44.578125 48.1875 50.953125 41.515625 
Q 57.328125 34.859375 57.328125 23.390625 
Q 57.328125 12.15625 50.6875 5.359375 
Q 44.046875 -1.421875 33.015625 -1.421875 
Q 20.359375 -1.421875 13.671875 8.265625 
Q 6.984375 17.96875 6.984375 36.375 
Q 6.984375 53.65625 15.1875 63.9375 
Q 23.390625 74.21875 37.203125 74.21875 
Q 40.921875 74.21875 44.703125 73.484375 
Q 48.484375 72.75 52.59375 71.296875 
z
" id="DejaVuSans-36"/>
      </defs>
      <g transform="translate(296.461477 322.182437)scale(0.1 -0.1)">
       <use xlink:href="#DejaVuSans-36"/>
       <use x="63.623047" xlink:href="#DejaVuSans-30"/>
       <use x="127.246094" xlink:href="#DejaVuSans-30"/>
      </g>
     </g>
    </g>
    <g id="xtick_5">
     <g id="line2d_5">
      <g>
       <use style="stroke:#000000;stroke-width:0.8;" x="383.39606" xlink:href="#m35fa72771f" y="307.584"/>
      </g>
     </g>
     <g id="text_5">
      <!-- 800 -->
      <defs>
       <path d="M 31.78125 34.625 
Q 24.75 34.625 20.71875 30.859375 
Q 16.703125 27.09375 16.703125 20.515625 
Q 16.703125 13.921875 20.71875 10.15625 
Q 24.75 6.390625 31.78125 6.390625 
Q 38.8125 6.390625 42.859375 10.171875 
Q 46.921875 13.96875 46.921875 20.515625 
Q 46.921875 27.09375 42.890625 30.859375 
Q 38.875 34.625 31.78125 34.625 
z
M 21.921875 38.8125 
Q 15.578125 40.375 12.03125 44.71875 
Q 8.5 49.078125 8.5 55.328125 
Q 8.5 64.0625 14.71875 69.140625 
Q 20.953125 74.21875 31.78125 74.21875 
Q 42.671875 74.21875 48.875 69.140625 
Q 55.078125 64.0625 55.078125 55.328125 
Q 55.078125 49.078125 51.53125 44.71875 
Q 48 40.375 41.703125 38.8125 
Q 48.828125 37.15625 52.796875 32.3125 
Q 56.78125 27.484375 56.78125 20.515625 
Q 56.78125 9.90625 50.3125 4.234375 
Q 43.84375 -1.421875 31.78125 -1.421875 
Q 19.734375 -1.421875 13.25 4.234375 
Q 6.78125 9.90625 6.78125 20.515625 
Q 6.78125 27.484375 10.78125 32.3125 
Q 14.796875 37.15625 21.921875 38.8125 
z
M 18.3125 54.390625 
Q 18.3125 48.734375 21.84375 45.5625 
Q 25.390625 42.390625 31.78125 42.390625 
Q 38.140625 42.390625 41.71875 45.5625 
Q 45.3125 48.734375 45.3125 54.390625 
Q 45.3125 60.0625 41.71875 63.234375 
Q 38.140625 66.40625 31.78125 66.40625 
Q 25.390625 66.40625 21.84375 63.234375 
Q 18.3125 60.0625 18.3125 54.390625 
z
" id="DejaVuSans-38"/>
      </defs>
      <g transform="translate(373.85231 322.182437)scale(0.1 -0.1)">
       <use xlink:href="#DejaVuSans-38"/>
       <use x="63.623047" xlink:href="#DejaVuSans-30"/>
       <use x="127.246094" xlink:href="#DejaVuSans-30"/>
      </g>
     </g>
    </g>
   </g>
   <g id="matplotlib.axis_2">
    <g id="ytick_1">
     <g id="line2d_6">
      <defs>
       <path d="M 0 0 
L -3.5 0 
" id="mfdc5f31e76" style="stroke:#000000;stroke-width:0.8;"/>
      </defs>
      <g>
       <use style="stroke:#000000;stroke-width:0.8;" x="57.6" xlink:href="#mfdc5f31e76" y="288.760657"/>
      </g>
     </g>
     <g id="text_6">
      <!-- −2.5 -->
      <defs>
       <path d="M 10.59375 35.5 
L 73.1875 35.5 
L 73.1875 27.203125 
L 10.59375 27.203125 
z
" id="DejaVuSans-2212"/>
       <path d="M 10.6875 12.40625 
L 21 12.40625 
L 21 0 
L 10.6875 0 
z
" id="DejaVuSans-2e"/>
       <path d="M 10.796875 72.90625 
L 49.515625 72.90625 
L 49.515625 64.59375 
L 19.828125 64.59375 
L 19.828125 46.734375 
Q 21.96875 47.46875 24.109375 47.828125 
Q 26.265625 48.1875 28.421875 48.1875 
Q 40.625 48.1875 47.75 41.5 
Q 54.890625 34.8125 54.890625 23.390625 
Q 54.890625 11.625 47.5625 5.09375 
Q 40.234375 -1.421875 26.90625 -1.421875 
Q 22.3125 -1.421875 17.546875 -0.640625 
Q 12.796875 0.140625 7.71875 1.703125 
L 7.71875 11.625 
Q 12.109375 9.234375 16.796875 8.0625 
Q 21.484375 6.890625 26.703125 6.890625 
Q 35.15625 6.890625 40.078125 11.328125 
Q 45.015625 15.765625 45.015625 23.390625 
Q 45.015625 31 40.078125 35.4375 
Q 35.15625 39.890625 26.703125 39.890625 
Q 22.75 39.890625 18.8125 39.015625 
Q 14.890625 38.140625 10.796875 36.28125 
z
" id="DejaVuSans-35"/>
      </defs>
      <g transform="translate(26.317187 292.559876)scale(0.1 -0.1)">
       <use xlink:href="#DejaVuSans-2212"/>
       <use x="83.789062" xlink:href="#DejaVuSans-32"/>
       <use x="147.412109" xlink:href="#DejaVuSans-2e"/>
       <use x="179.199219" xlink:href="#DejaVuSans-35"/>
      </g>
     </g>
    </g>
    <g id="ytick_2">
     <g id="line2d_7">
      <g>
       <use style="stroke:#000000;stroke-width:0.8;" x="57.6" xlink:href="#mfdc5f31e76" y="254.360215"/>
      </g>
     </g>
     <g id="text_7">
      <!-- 0.0 -->
      <g transform="translate(34.696875 258.159433)scale(0.1 -0.1)">
       <use xlink:href="#DejaVuSans-30"/>
       <use x="63.623047" xlink:href="#DejaVuSans-2e"/>
       <use x="95.410156" xlink:href="#DejaVuSans-30"/>
      </g>
     </g>
    </g>
    <g id="ytick_3">
     <g id="line2d_8">
      <g>
       <use style="stroke:#000000;stroke-width:0.8;" x="57.6" xlink:href="#mfdc5f31e76" y="219.959773"/>
      </g>
     </g>
     <g id="text_8">
      <!-- 2.5 -->
      <g transform="translate(34.696875 223.758991)scale(0.1 -0.1)">
       <use xlink:href="#DejaVuSans-32"/>
       <use x="63.623047" xlink:href="#DejaVuSans-2e"/>
       <use x="95.410156" xlink:href="#DejaVuSans-35"/>
      </g>
     </g>
    </g>
    <g id="ytick_4">
     <g id="line2d_9">
      <g>
       <use style="stroke:#000000;stroke-width:0.8;" x="57.6" xlink:href="#mfdc5f31e76" y="185.55933"/>
      </g>
     </g>
     <g id="text_9">
      <!-- 5.0 -->
      <g transform="translate(34.696875 189.358549)scale(0.1 -0.1)">
       <use xlink:href="#DejaVuSans-35"/>
       <use x="63.623047" xlink:href="#DejaVuSans-2e"/>
       <use x="95.410156" xlink:href="#DejaVuSans-30"/>
      </g>
     </g>
    </g>
    <g id="ytick_5">
     <g id="line2d_10">
      <g>
       <use style="stroke:#000000;stroke-width:0.8;" x="57.6" xlink:href="#mfdc5f31e76" y="151.158888"/>
      </g>
     </g>
     <g id="text_10">
      <!-- 7.5 -->
      <defs>
       <path d="M 8.203125 72.90625 
L 55.078125 72.90625 
L 55.078125 68.703125 
L 28.609375 0 
L 18.3125 0 
L 43.21875 64.59375 
L 8.203125 64.59375 
z
" id="DejaVuSans-37"/>
      </defs>
      <g transform="translate(34.696875 154.958107)scale(0.1 -0.1)">
       <use xlink:href="#DejaVuSans-37"/>
       <use x="63.623047" xlink:href="#DejaVuSans-2e"/>
       <use x="95.410156" xlink:href="#DejaVuSans-35"/>
      </g>
     </g>
    </g>
    <g id="ytick_6">
     <g id="line2d_11">
      <g>
       <use style="stroke:#000000;stroke-width:0.8;" x="57.6" xlink:href="#mfdc5f31e76" y="116.758446"/>
      </g>
     </g>
     <g id="text_11">
      <!-- 10.0 -->
      <defs>
       <path d="M 12.40625 8.296875 
L 28.515625 8.296875 
L 28.515625 63.921875 
L 10.984375 60.40625 
L 10.984375 69.390625 
L 28.421875 72.90625 
L 38.28125 72.90625 
L 38.28125 8.296875 
L 54.390625 8.296875 
L 54.390625 0 
L 12.40625 0 
z
" id="DejaVuSans-31"/>
      </defs>
      <g transform="translate(28.334375 120.557665)scale(0.1 -0.1)">
       <use xlink:href="#DejaVuSans-31"/>
       <use x="63.623047" xlink:href="#DejaVuSans-30"/>
       <use x="127.246094" xlink:href="#DejaVuSans-2e"/>
       <use x="159.033203" xlink:href="#DejaVuSans-30"/>
      </g>
     </g>
    </g>
    <g id="ytick_7">
     <g id="line2d_12">
      <g>
       <use style="stroke:#000000;stroke-width:0.8;" x="57.6" xlink:href="#mfdc5f31e76" y="82.358004"/>
      </g>
     </g>
     <g id="text_12">
      <!-- 12.5 -->
      <g transform="translate(28.334375 86.157223)scale(0.1 -0.1)">
       <use xlink:href="#DejaVuSans-31"/>
       <use x="63.623047" xlink:href="#DejaVuSans-32"/>
       <use x="127.246094" xlink:href="#DejaVuSans-2e"/>
       <use x="159.033203" xlink:href="#DejaVuSans-35"/>
      </g>
     </g>
    </g>
    <g id="ytick_8">
     <g id="line2d_13">
      <g>
       <use style="stroke:#000000;stroke-width:0.8;" x="57.6" xlink:href="#mfdc5f31e76" y="47.957562"/>
      </g>
     </g>
     <g id="text_13">
      <!-- 15.0 -->
      <g transform="translate(28.334375 51.75678)scale(0.1 -0.1)">
       <use xlink:href="#DejaVuSans-31"/>
       <use x="63.623047" xlink:href="#DejaVuSans-35"/>
       <use x="127.246094" xlink:href="#DejaVuSans-2e"/>
       <use x="159.033203" xlink:href="#DejaVuSans-30"/>
      </g>
     </g>
    </g>
   </g>
   <g id="line2d_14">
    <path clip-path="url(#pcce4852d01)" d="M 73.832727 123.886764 
L 74.219681 160.540851 
L 74.99359 125.221358 
L 75.380544 125.358557 
L 75.767498 120.039141 
L 76.154452 129.658612 
L 76.541406 162.786373 
L 76.928361 170.273564 
L 77.315315 188.721967 
L 77.702269 216.74168 
L 78.089223 235.184308 
L 78.476177 240.40822 
L 78.863131 230.35311 
L 79.250086 248.583416 
L 79.63704 260.091195 
L 80.023994 267.465131 
L 80.410948 293.836098 
L 80.797902 295.477417 
L 81.184856 288.817206 
L 81.571811 290.586077 
L 81.958765 280.559179 
L 82.345719 279.534733 
L 82.732673 283.015366 
L 83.119627 271.625246 
L 83.506581 269.898623 
L 83.893536 269.892153 
L 84.667444 256.66119 
L 85.054398 232.878103 
L 85.441352 225.33037 
L 85.828306 220.177045 
L 86.215261 206.109465 
L 86.602215 202.106355 
L 87.763077 124.976029 
L 88.150031 123.976077 
L 88.536986 122.285765 
L 88.92394 125.847037 
L 90.084802 159.972282 
L 90.471756 158.819182 
L 90.858711 161.128001 
L 91.245665 158.150848 
L 91.632619 172.283927 
L 92.406527 223.462425 
L 92.793481 227.243997 
L 93.180436 225.693227 
L 93.56739 228.947094 
L 93.954344 222.520266 
L 94.341298 213.46731 
L 94.728252 210.195689 
L 95.115206 222.642593 
L 95.502161 226.482234 
L 96.276069 241.884002 
L 96.663023 244.47573 
L 97.049977 244.981828 
L 97.436931 241.846159 
L 97.823886 242.399318 
L 98.21084 242.403858 
L 98.597794 241.912209 
L 98.984748 248.68703 
L 99.371702 246.111265 
L 99.758656 240.925603 
L 100.145611 240.955739 
L 100.532565 246.111265 
L 100.919519 246.117456 
L 101.693427 233.660507 
L 102.080381 238.858688 
L 102.467336 245.595808 
L 102.85429 242.506924 
L 103.241244 245.621951 
L 103.628198 250.76482 
L 104.402106 258.454004 
L 104.789061 266.103563 
L 105.176015 257.94763 
L 105.562969 259.481202 
L 105.949923 263.043297 
L 106.336877 263.027202 
L 106.723831 261.513718 
L 107.110786 257.946253 
L 107.884694 266.107966 
L 108.271648 259.483124 
L 108.658602 261.022482 
L 109.045556 252.307197 
L 109.432511 249.210469 
L 110.206419 249.220101 
L 110.593373 251.276147 
L 110.980327 252.308024 
L 111.367281 249.223953 
L 111.754236 247.169419 
L 112.14119 240.99578 
L 112.528144 231.6928 
L 112.915098 227.107222 
L 113.302052 223.976643 
L 113.689006 228.736013 
L 114.075961 218.95927 
L 114.462915 222.1098 
L 114.849869 215.440518 
L 115.623777 206.204687 
L 116.397686 203.264137 
L 116.78464 204.980307 
L 117.171594 205.705469 
L 117.558548 208.98039 
L 117.945502 205.486681 
L 118.332456 205.558098 
L 118.719411 213.845024 
L 119.106365 209.343247 
L 119.493319 212.526938 
L 119.880273 206.122539 
L 120.267227 209.81288 
L 120.654181 204.47586 
L 121.041136 204.600939 
L 121.42809 208.165374 
L 121.815044 215.199303 
L 122.201998 220.191631 
L 122.588952 222.246713 
L 122.975906 225.693227 
L 123.362861 225.693227 
L 124.136769 230.194179 
L 124.523723 236.583443 
L 124.910677 239.976702 
L 125.297631 249.593965 
L 125.684586 252.458282 
L 126.07154 249.605523 
L 126.458494 244.840926 
L 126.845448 241.976468 
L 127.232402 242.948901 
L 128.006311 233.417776 
L 128.393265 235.347916 
L 128.780219 233.46112 
L 129.167173 237.284525 
L 129.554127 234.906214 
L 129.941081 233.46112 
L 130.328036 227.770462 
L 131.101944 230.725461 
L 131.488898 235.478362 
L 131.875852 234.083078 
L 132.262806 237.424604 
L 133.036715 234.200454 
L 133.423669 235.645273 
L 133.810623 232.340216 
L 134.197577 234.241597 
L 134.584531 234.241597 
L 134.971486 241.783275 
L 135.35844 241.795935 
L 135.745394 243.671862 
L 136.132348 237.130822 
L 136.519302 239.024635 
L 136.906256 237.165771 
L 137.293211 243.722086 
L 137.680165 245.119016 
L 138.454073 245.137595 
L 139.614936 235.896396 
L 140.00189 235.914972 
L 140.388844 237.298284 
L 140.775798 240.563297 
L 141.162752 238.73416 
L 141.549706 234.165089 
L 141.936661 236.001109 
L 142.323615 236.001109 
L 142.710569 237.395018 
L 143.097523 236.037715 
L 143.871431 238.853183 
L 144.258386 242.062195 
L 144.64534 242.074304 
L 145.032294 236.140915 
L 145.419248 232.959561 
L 145.806202 233.001941 
L 146.193156 240.790065 
L 146.580111 237.601557 
L 146.967065 236.242738 
L 147.354019 231.71344 
L 147.740973 231.758021 
L 148.127927 234.947905 
L 148.514881 234.967035 
L 148.901836 233.142159 
L 149.28879 233.162936 
L 150.062698 239.56431 
L 150.449652 240.935648 
L 150.836606 238.234939 
L 151.223561 237.80328 
L 151.610515 235.137109 
L 151.997469 237.872909 
L 152.384423 239.239155 
L 152.771377 237.889007 
L 153.158331 237.904968 
L 153.93224 232.152115 
L 154.319194 227.736197 
L 154.706148 229.519105 
L 155.093102 232.202065 
L 155.480056 230.452595 
L 155.867011 230.925532 
L 156.253965 230.55222 
L 156.640919 227.940676 
L 157.027873 227.965994 
L 157.414827 219.168013 
L 157.801781 216.125361 
L 158.188736 214.895066 
L 158.57569 216.331765 
L 158.962644 220.841249 
L 159.349598 216.452166 
L 159.736552 206.384944 
L 160.123506 205.185609 
L 160.510461 202.188916 
L 161.284369 208.132901 
L 161.671323 210.334528 
L 162.445231 219.296944 
L 162.832186 219.405649 
L 163.21914 222.45876 
L 163.606094 215.263975 
L 163.993048 214.076194 
L 164.380002 218.537384 
L 165.15391 218.755483 
L 165.540865 211.673531 
L 165.927819 209.217478 
L 166.314773 204.171071 
L 166.701727 204.323259 
L 167.088681 200.153512 
L 167.475635 200.317258 
L 167.86259 196.160033 
L 168.249544 196.509682 
L 168.636498 192.562982 
L 169.410406 192.930793 
L 169.79736 189.030062 
L 170.184315 193.474461 
L 170.571269 189.606471 
L 171.345177 189.985154 
L 171.732131 182.149422 
L 172.119085 178.359179 
L 172.50604 178.579483 
L 173.279948 179.448024 
L 173.666902 179.662134 
L 174.053856 175.95459 
L 174.44081 176.398906 
L 174.827765 172.732094 
L 175.214719 173.190582 
L 175.988627 165.956856 
L 176.375581 170.503219 
L 176.762535 170.965152 
L 177.14949 171.194255 
L 177.536444 171.648754 
L 177.923398 175.837489 
L 178.310352 176.050222 
L 179.858169 177.712038 
L 180.245123 181.747211 
L 180.632077 189.351497 
L 181.405985 197.175122 
L 181.79294 193.758332 
L 182.179894 194.070823 
L 182.953802 194.380014 
L 184.501619 209.414936 
L 184.888573 209.527493 
L 185.275527 202.630207 
L 185.662481 206.199596 
L 186.049435 206.319721 
L 186.823344 213.589361 
L 187.597252 213.789709 
L 187.984206 210.516576 
L 188.37116 210.623769 
L 188.758115 207.374303 
L 189.145069 207.48851 
L 189.918977 201.180848 
L 190.305931 187.885898 
L 190.692885 181.414766 
L 191.07984 178.28226 
L 191.466794 171.8652 
L 191.853748 175.354369 
L 192.240702 152.554582 
L 192.627656 153.038253 
L 193.01461 143.496252 
L 193.401565 140.773811 
L 194.175473 122.236791 
L 194.562427 116.758446 
L 194.949381 114.856084 
L 195.336335 115.813806 
L 195.72329 107.041683 
L 196.110244 104.928399 
L 196.497198 95.588967 
L 196.884152 104.527146 
L 197.271106 89.968753 
L 197.65806 91.410691 
L 198.045015 86.479997 
L 198.431969 87.930465 
L 198.818923 92.648689 
L 199.205877 100.176476 
L 199.592831 110.425326 
L 199.979785 114.18378 
L 200.36674 126.951157 
L 200.753694 127.991291 
L 201.140648 123.177979 
L 201.914556 145.584091 
L 203.075419 156.262684 
L 203.849327 168.03217 
L 204.623235 173.876114 
L 205.01019 168.844978 
L 205.397144 172.056333 
L 205.784098 177.914725 
L 206.171052 175.658055 
L 206.558006 178.754783 
L 206.94496 179.168004 
L 207.331915 184.688447 
L 207.718869 185.064374 
L 208.105823 182.846784 
L 208.492777 170.666826 
L 208.879731 165.901957 
L 209.266685 158.701254 
L 209.65364 161.649787 
L 210.814502 163.106022 
L 211.201456 165.970202 
L 211.58841 166.428146 
L 211.975365 161.994199 
L 212.362319 162.468652 
L 212.749273 160.594103 
L 213.136227 168.504142 
L 213.910135 164.919065 
L 214.29709 156.073199 
L 215.070998 147.990471 
L 215.457952 146.260686 
L 215.844906 137.634422 
L 216.23186 131.501515 
L 216.618815 132.294102 
L 217.005769 130.673287 
L 217.392723 127.07308 
L 217.779677 118.942593 
L 218.166631 113.285792 
L 218.94054 107.158384 
L 220.101402 91.493115 
L 220.488356 90.893446 
L 220.87531 88.253691 
L 221.649219 71.971956 
L 222.036173 63.525683 
L 222.423127 59.490654 
L 222.810081 53.568 
L 223.197035 53.609691 
L 223.970944 58.058492 
L 224.357898 73.404538 
L 224.744852 76.990297 
L 225.51876 80.528171 
L 225.905715 80.547435 
L 226.292669 84.370978 
L 227.840485 114.88746 
L 228.22744 119.621668 
L 228.614394 120.928193 
L 229.001348 106.096781 
L 229.388302 105.512111 
L 229.775256 103.473824 
L 232.096981 159.623047 
L 232.483935 163.24349 
L 233.257844 155.53022 
L 234.031752 172.276768 
L 234.418706 186.372283 
L 234.80566 185.11735 
L 235.579569 201.71763 
L 235.966523 203.342571 
L 236.353477 206.410265 
L 236.740431 204.957188 
L 237.127385 199.319507 
L 237.51434 207.010344 
L 237.901294 220.314372 
L 238.288248 221.900371 
L 238.675202 220.558339 
L 239.062156 216.33314 
L 239.44911 216.488217 
L 239.836065 210.83306 
L 240.609973 195.327816 
L 240.996927 189.771595 
L 241.383881 187.032081 
L 241.770835 191.68729 
L 242.15779 194.71425 
L 242.544744 194.834238 
L 244.09256 195.661088 
L 244.866469 198.722456 
L 245.253423 205.84252 
L 245.640377 204.737714 
L 246.027331 202.207905 
L 246.414285 205.074013 
L 246.80124 205.169235 
L 247.188194 203.937149 
L 247.575148 206.774634 
L 248.349056 209.675829 
L 248.73601 209.845906 
L 249.509919 202.188916 
L 249.896873 199.684014 
L 250.283827 210.348428 
L 250.670781 224.726849 
L 251.057735 232.498182 
L 251.831644 230.039928 
L 252.605552 232.680642 
L 252.992506 230.174915 
L 253.37946 232.800496 
L 253.766415 236.686644 
L 254.153369 238.023997 
L 254.540323 235.579227 
L 254.927277 228.018971 
L 255.701185 203.724826 
L 256.08814 203.864219 
L 256.475094 202.791062 
L 256.862048 200.324826 
L 257.249002 195.352172 
L 257.635956 195.566696 
L 258.02291 194.424736 
L 258.409865 192.040514 
L 259.570727 200.205662 
L 259.957681 201.625164 
L 260.344635 199.417206 
L 261.118544 199.804415 
L 261.505498 197.529994 
L 261.892452 197.778505 
L 262.66636 195.72989 
L 263.053315 195.933128 
L 263.440269 193.653619 
L 263.827223 192.676645 
L 264.214177 190.41447 
L 264.601131 187.035795 
L 264.988085 185.089694 
L 265.37504 181.753267 
L 266.148948 184.688447 
L 266.535902 190.762741 
L 266.922856 193.331764 
L 267.30981 191.24008 
L 267.696765 190.306182 
L 268.083719 190.518501 
L 268.470673 182.83454 
L 268.857627 181.938199 
L 269.244581 182.293766 
L 269.631535 189.527492 
L 270.01849 194.291541 
L 270.405444 190.049967 
L 270.792398 188.046067 
L 271.179352 175.888543 
L 271.566306 169.461714 
L 271.95326 166.575927 
L 272.340215 169.110549 
L 272.727169 168.290996 
L 273.114123 176.655671 
L 273.501077 181.259275 
L 273.888031 188.02034 
L 274.274985 188.174729 
L 274.66194 185.079649 
L 275.435848 194.258242 
L 275.822802 202.079935 
L 276.209756 207.627489 
L 276.59671 215.163252 
L 276.983665 212.163668 
L 277.370619 213.34622 
L 277.757573 217.584628 
L 278.144527 215.570414 
L 278.531481 210.46649 
L 278.918435 210.56391 
L 279.30539 212.754942 
L 279.692344 212.877273 
L 280.079298 210.917685 
L 280.853206 213.180132 
L 281.24016 209.228485 
L 282.014069 213.537759 
L 282.401023 209.587352 
L 282.787977 209.684359 
L 283.174931 212.8126 
L 283.561885 210.927868 
L 283.94884 210.036071 
L 284.335794 213.109131 
L 284.722748 215.185265 
L 285.109702 215.268791 
L 285.496656 216.327087 
L 286.270565 216.594721 
L 286.657519 215.680907 
L 287.044473 220.634297 
L 287.431427 219.743464 
L 287.818381 217.871254 
L 288.205335 221.825792 
L 288.59229 222.870187 
L 289.753152 214.448135 
L 290.140106 213.554136 
L 290.52706 218.447667 
L 291.300969 218.619532 
L 291.687923 214.857361 
L 292.074877 214.964967 
L 292.461831 216.007574 
L 292.848785 211.359662 
L 293.23574 211.447177 
L 293.622694 212.493502 
L 294.396602 218.34364 
L 294.783556 219.337676 
L 295.17051 216.598025 
L 295.557465 218.536006 
L 295.944419 219.524262 
L 296.331373 215.95969 
L 296.718327 216.973401 
L 297.105281 215.227373 
L 297.87919 215.458956 
L 298.266144 215.535599 
L 298.653098 214.684672 
L 299.040052 215.66247 
L 299.427006 213.0168 
L 299.81396 212.228068 
L 300.200915 209.597122 
L 300.587869 207.867055 
L 300.974823 212.55487 
L 301.361777 212.635782 
L 302.52264 223.567004 
L 302.909594 223.625895 
L 303.296548 224.561037 
L 303.683502 222.848308 
L 304.070456 223.820879 
L 304.45741 225.6569 
L 305.231319 231.008508 
L 305.618273 231.915715 
L 306.005227 234.542807 
L 306.392181 235.416305 
L 306.779135 234.567576 
L 307.16609 231.125329 
L 307.553044 232.027862 
L 307.939998 230.339899 
L 308.326952 232.11111 
L 308.713906 234.727194 
L 309.10086 233.91163 
L 309.487814 233.936947 
L 309.874769 232.248711 
L 310.261723 231.426541 
L 310.648677 231.426541 
L 311.035631 230.577125 
L 311.422585 222.971461 
L 311.809539 225.587408 
L 312.196494 227.313209 
L 312.583448 224.850003 
L 312.970402 223.201946 
L 313.357356 218.171361 
L 313.74431 219.09921 
L 314.518219 217.532478 
L 314.905173 215.928592 
L 315.679081 202.592502 
L 316.066035 212.888968 
L 316.452989 211.256048 
L 316.839944 202.966779 
L 317.226898 204.833484 
L 317.613852 208.245872 
L 318.000806 206.798163 
L 319.161669 207.079973 
L 319.548623 203.155845 
L 319.935577 205.79491 
L 320.322531 213.321037 
L 320.709485 210.076387 
L 321.096439 205.331603 
L 321.870348 216.91217 
L 322.257302 216.91217 
L 322.644256 218.691497 
L 323.03121 225.083236 
L 323.805119 232.293432 
L 324.192073 237.90442 
L 324.579027 238.723701 
L 325.352935 231.738621 
L 325.739889 237.286175 
L 326.126844 239.647561 
L 326.513798 234.193161 
L 326.900752 230.314854 
L 327.287706 233.499786 
L 327.67466 226.467923 
L 328.835523 216.417076 
L 329.222477 211.069735 
L 329.609431 212.732791 
L 329.996385 224.430043 
L 330.383339 228.296377 
L 330.770294 227.544658 
L 331.157248 226.075344 
L 331.931156 221.634111 
L 332.31811 226.262759 
L 332.705064 227.825504 
L 333.092019 226.355501 
L 333.478973 226.478107 
L 333.865927 231.126844 
L 334.252881 230.416406 
L 335.026789 214.486526 
L 335.413744 210.772515 
L 335.800698 213.911074 
L 336.187652 219.307127 
L 336.574606 219.420786 
L 336.96156 210.452727 
L 337.348514 204.526084 
L 337.735469 208.369301 
L 338.122423 215.214299 
L 338.896331 210.233529 
L 339.283285 208.10139 
L 339.670239 214.878275 
L 340.057194 219.395193 
L 340.831102 204.177813 
L 341.218056 189.111797 
L 341.60501 194.502069 
L 341.991964 208.421175 
L 342.378919 208.421175 
L 342.765873 199.060957 
L 343.152827 204.29725 
L 343.539781 207.329029 
L 343.926735 204.633136 
L 344.313689 199.632278 
L 344.700644 196.819011 
L 345.087598 197.879229 
L 345.474552 200.329918 
L 345.861506 226.673776 
L 346.24846 235.008867 
L 347.022369 219.629805 
L 347.409323 225.797254 
L 348.183231 215.856489 
L 348.570185 218.681176 
L 348.957139 217.071651 
L 349.344094 217.307223 
L 350.118002 228.250967 
L 350.89191 204.676346 
L 351.278864 194.183246 
L 351.665819 197.822263 
L 352.052773 195.264381 
L 352.826681 199.664888 
L 353.213635 200.643787 
L 353.600589 198.102971 
L 353.987544 186.440397 
L 354.374498 178.713505 
L 354.761452 181.320919 
L 355.148406 186.201655 
L 355.53536 203.020169 
L 355.922314 239.22512 
L 356.309269 254.666105 
L 356.696223 255.923233 
L 357.083177 254.243803 
L 357.470131 260.503856 
L 357.857085 262.290479 
L 358.244039 268.337254 
L 358.630994 271.273812 
L 359.017948 281.313099 
L 359.404902 274.778112 
L 359.791856 273.320912 
L 360.17881 257.442081 
L 360.565764 228.015118 
L 360.952719 215.637425 
L 361.339673 218.293278 
L 361.726627 224.757396 
L 362.113581 222.902111 
L 362.500535 223.99467 
L 362.887489 226.791012 
L 363.274444 238.927353 
L 363.661398 235.910844 
L 364.048352 238.533533 
L 364.435306 238.972072 
L 364.82226 238.306215 
L 365.209214 239.436751 
L 366.370077 225.121213 
L 367.143985 212.016986 
L 367.530939 206.764175 
L 367.917894 206.167671 
L 368.304848 205.100433 
L 368.691802 202.690749 
L 369.078756 201.89789 
L 369.46571 205.893157 
L 369.852664 206.867926 
L 370.239619 212.225591 
L 370.626573 212.959007 
L 371.013527 214.480745 
L 371.787435 223.081131 
L 372.174389 230.445854 
L 372.561344 231.602671 
L 372.948298 234.855026 
L 374.10916 224.697677 
L 374.496114 229.646661 
L 374.883069 230.149181 
L 375.270023 231.187252 
L 375.656977 226.59025 
L 376.430885 238.689989 
L 376.817839 235.2282 
L 377.204794 230.75064 
L 377.591748 228.415814 
L 378.75261 242.295291 
L 379.526519 233.543268 
L 379.913473 232.574688 
L 380.300427 239.089996 
L 381.074335 226.661392 
L 381.461289 224.845324 
L 381.848244 226.28285 
L 382.235198 227.271103 
L 382.622152 230.883977 
L 383.009106 231.334623 
L 383.39606 232.112487 
L 383.783014 237.06739 
L 384.169969 245.267628 
L 384.556923 257.347961 
L 385.330831 254.360218 
L 385.717785 256.094272 
L 386.491694 251.86563 
L 386.878648 251.416774 
L 387.265602 251.172803 
L 387.652556 254.27325 
L 388.03951 252.523233 
L 388.813419 245.292394 
L 389.200373 235.879471 
L 389.587327 241.154161 
L 389.974281 242.31194 
L 390.361235 238.756862 
L 390.748189 239.91781 
L 391.135144 240.137832 
L 391.522098 242.420921 
L 391.909052 239.443082 
L 392.296006 233.789575 
L 392.68296 231.772333 
L 393.069914 231.188903 
L 393.843823 219.449544 
L 394.230777 216.300392 
L 394.617731 221.437064 
L 395.004685 224.148645 
L 395.391639 228.660333 
L 395.778594 231.674364 
L 396.165548 230.411866 
L 396.552502 227.516999 
L 396.939456 223.673232 
L 397.32641 226.369264 
L 397.713364 224.063882 
L 398.100319 225.307802 
L 398.487273 224.942744 
L 398.487273 224.942744 
" style="fill:none;opacity:0.6;stroke:#1f77b4;stroke-linecap:square;stroke-width:0.5;"/>
   </g>
   <g id="line2d_15">
    <path clip-path="url(#pcce4852d01)" d="M 389.587327 233.719972 
L 389.974281 238.652832 
L 390.361235 240.383204 
L 390.748189 231.603611 
L 391.135144 239.849756 
L 391.522098 234.560385 
L 391.909052 231.113761 
L 392.296006 204.204314 
L 392.68296 204.040832 
L 393.069914 196.040873 
L 393.843823 227.126612 
L 394.230777 222.496077 
L 394.617731 240.814125 
L 395.004685 211.815716 
L 395.778594 277.698391 
L 396.165548 260.817545 
L 396.552502 221.995928 
L 396.939456 257.381165 
L 397.713364 225.294089 
L 398.100319 223.517554 
L 398.487273 217.39961 
L 398.487273 217.39961 
" style="fill:none;opacity:0.8;stroke:#ff7f0e;stroke-linecap:square;stroke-width:0.5;"/>
   </g>
   <g id="line2d_16">
    <path clip-path="url(#pcce4852d01)" d="M 73.832727 123.886764 
L 74.219681 160.540851 
L 74.99359 125.221358 
L 75.380544 125.358557 
L 75.767498 120.039141 
L 76.154452 129.658612 
L 76.541406 162.786373 
L 76.928361 170.273564 
L 77.315315 188.721967 
L 77.702269 216.74168 
L 78.089223 235.184308 
L 78.476177 240.40822 
L 78.863131 230.35311 
L 79.250086 248.583416 
L 79.63704 260.091195 
L 80.023994 267.465131 
L 80.410948 293.836098 
L 80.797902 295.477417 
L 81.184856 288.817206 
L 81.571811 290.586077 
L 81.958765 280.559179 
L 82.345719 279.534733 
L 82.732673 283.015366 
L 83.119627 271.625246 
L 83.506581 269.898623 
L 83.893536 269.892153 
L 84.667444 256.66119 
L 85.054398 232.878103 
L 85.441352 225.33037 
L 85.828306 220.177045 
L 86.215261 206.109465 
L 86.602215 202.106355 
L 87.763077 124.976029 
L 88.150031 123.976077 
L 88.536986 122.285765 
L 88.92394 125.847037 
L 90.084802 159.972282 
L 90.471756 158.819182 
L 90.858711 161.128001 
L 91.245665 158.150848 
L 91.632619 172.283927 
L 92.406527 223.462425 
L 92.793481 227.243997 
L 93.180436 225.693227 
L 93.56739 228.947094 
L 93.954344 222.520266 
L 94.341298 213.46731 
L 94.728252 210.195689 
L 95.115206 222.642593 
L 95.502161 226.482234 
L 96.276069 241.884002 
L 96.663023 244.47573 
L 97.049977 244.981828 
L 97.436931 241.846159 
L 97.823886 242.399318 
L 98.21084 242.403858 
L 98.597794 241.912209 
L 98.984748 248.68703 
L 99.371702 246.111265 
L 99.758656 240.925603 
L 100.145611 240.955739 
L 100.532565 246.111265 
L 100.919519 246.117456 
L 101.693427 233.660507 
L 102.080381 238.858688 
L 102.467336 245.595808 
L 102.85429 242.506924 
L 103.241244 245.621951 
L 103.628198 250.76482 
L 104.402106 258.454004 
L 104.789061 266.103563 
L 105.176015 257.94763 
L 105.562969 259.481202 
L 105.949923 263.043297 
L 106.336877 263.027202 
L 106.723831 261.513718 
L 107.110786 257.946253 
L 107.884694 266.107966 
L 108.271648 259.483124 
L 108.658602 261.022482 
L 109.045556 252.307197 
L 109.432511 249.210469 
L 110.206419 249.220101 
L 110.593373 251.276147 
L 110.980327 252.308024 
L 111.367281 249.223953 
L 111.754236 247.169419 
L 112.14119 240.99578 
L 112.528144 231.6928 
L 112.915098 227.107222 
L 113.302052 223.976643 
L 113.689006 228.736013 
L 114.075961 218.95927 
L 114.462915 222.1098 
L 114.849869 215.440518 
L 115.623777 206.204687 
L 116.397686 203.264137 
L 116.78464 204.980307 
L 117.171594 205.705469 
L 117.558548 208.98039 
L 117.945502 205.486681 
L 118.332456 205.558098 
L 118.719411 213.845024 
L 119.106365 209.343247 
L 119.493319 212.526938 
L 119.880273 206.122539 
L 120.267227 209.81288 
L 120.654181 204.47586 
L 121.041136 204.600939 
L 121.42809 208.165374 
L 121.815044 215.199303 
L 122.201998 220.191631 
L 122.588952 222.246713 
L 122.975906 225.693227 
L 123.362861 225.693227 
L 124.136769 230.194179 
L 124.523723 236.583443 
L 124.910677 239.976702 
L 125.297631 249.593965 
L 125.684586 252.458282 
L 126.07154 249.605523 
L 126.458494 244.840926 
L 126.845448 241.976468 
L 127.232402 242.948901 
L 128.006311 233.417776 
L 128.393265 235.347916 
L 128.780219 233.46112 
L 129.167173 237.284525 
L 129.554127 234.906214 
L 129.941081 233.46112 
L 130.328036 227.770462 
L 131.101944 230.725461 
L 131.488898 235.478362 
L 131.875852 234.083078 
L 132.262806 237.424604 
L 133.036715 234.200454 
L 133.423669 235.645273 
L 133.810623 232.340216 
L 134.197577 234.241597 
L 134.584531 234.241597 
L 134.971486 241.783275 
L 135.35844 241.795935 
L 135.745394 243.671862 
L 136.132348 237.130822 
L 136.519302 239.024635 
L 136.906256 237.165771 
L 137.293211 243.722086 
L 137.680165 245.119016 
L 138.454073 245.137595 
L 139.614936 235.896396 
L 140.00189 235.914972 
L 140.388844 237.298284 
L 140.775798 240.563297 
L 141.162752 238.73416 
L 141.549706 234.165089 
L 141.936661 236.001109 
L 142.323615 236.001109 
L 142.710569 237.395018 
L 143.097523 236.037715 
L 143.871431 238.853183 
L 144.258386 242.062195 
L 144.64534 242.074304 
L 145.032294 236.140915 
L 145.419248 232.959561 
L 145.806202 233.001941 
L 146.193156 240.790065 
L 146.580111 237.601557 
L 146.967065 236.242738 
L 147.354019 231.71344 
L 147.740973 231.758021 
L 148.127927 234.947905 
L 148.514881 234.967035 
L 148.901836 233.142159 
L 149.28879 233.162936 
L 150.062698 239.56431 
L 150.449652 240.935648 
L 150.836606 238.234939 
L 151.223561 237.80328 
L 151.610515 235.137109 
L 151.997469 237.872909 
L 152.384423 239.239155 
L 152.771377 237.889007 
L 153.158331 237.904968 
L 153.93224 232.152115 
L 154.319194 227.736197 
L 154.706148 229.519105 
L 155.093102 232.202065 
L 155.480056 230.452595 
L 155.867011 230.925532 
L 156.253965 230.55222 
L 156.640919 227.940676 
L 157.027873 227.965994 
L 157.414827 219.168013 
L 157.801781 216.125361 
L 158.188736 214.895066 
L 158.57569 216.331765 
L 158.962644 220.841249 
L 159.349598 216.452166 
L 159.736552 206.384944 
L 160.123506 205.185609 
L 160.510461 202.188916 
L 161.284369 208.132901 
L 161.671323 210.334528 
L 162.445231 219.296944 
L 162.832186 219.405649 
L 163.21914 222.45876 
L 163.606094 215.263975 
L 163.993048 214.076194 
L 164.380002 218.537384 
L 165.15391 218.755483 
L 165.540865 211.673531 
L 165.927819 209.217478 
L 166.314773 204.171071 
L 166.701727 204.323259 
L 167.088681 200.153512 
L 167.475635 200.317258 
L 167.86259 196.160033 
L 168.249544 196.509682 
L 168.636498 192.562982 
L 169.410406 192.930793 
L 169.79736 189.030062 
L 170.184315 193.474461 
L 170.571269 189.606471 
L 171.345177 189.985154 
L 171.732131 182.149422 
L 172.119085 178.359179 
L 172.50604 178.579483 
L 173.279948 179.448024 
L 173.666902 179.662134 
L 174.053856 175.95459 
L 174.44081 176.398906 
L 174.827765 172.732094 
L 175.214719 173.190582 
L 175.988627 165.956856 
L 176.375581 170.503219 
L 176.762535 170.965152 
L 177.14949 171.194255 
L 177.536444 171.648754 
L 177.923398 175.837489 
L 178.310352 176.050222 
L 179.858169 177.712038 
L 180.245123 181.747211 
L 180.632077 189.351497 
L 181.405985 197.175122 
L 181.79294 193.758332 
L 182.179894 194.070823 
L 182.953802 194.380014 
L 184.501619 209.414936 
L 184.888573 209.527493 
L 185.275527 202.630207 
L 185.662481 206.199596 
L 186.049435 206.319721 
L 186.823344 213.589361 
L 187.597252 213.789709 
L 187.984206 210.516576 
L 188.37116 210.623769 
L 188.758115 207.374303 
L 189.145069 207.48851 
L 189.918977 201.180848 
L 190.305931 187.885898 
L 190.692885 181.414766 
L 191.07984 178.28226 
L 191.466794 171.8652 
L 191.853748 175.354369 
L 192.240702 152.554582 
L 192.627656 153.038253 
L 193.01461 143.496252 
L 193.401565 140.773811 
L 194.175473 122.236791 
L 194.562427 116.758446 
L 194.949381 114.856084 
L 195.336335 115.813806 
L 195.72329 107.041683 
L 196.110244 104.928399 
L 196.497198 95.588967 
L 196.884152 104.527146 
L 197.271106 89.968753 
L 197.65806 91.410691 
L 198.045015 86.479997 
L 198.431969 87.930465 
L 198.818923 92.648689 
L 199.205877 100.176476 
L 199.592831 110.425326 
L 199.979785 114.18378 
L 200.36674 126.951157 
L 200.753694 127.991291 
L 201.140648 123.177979 
L 201.914556 145.584091 
L 203.075419 156.262684 
L 203.849327 168.03217 
L 204.623235 173.876114 
L 205.01019 168.844978 
L 205.397144 172.056333 
L 205.784098 177.914725 
L 206.171052 175.658055 
L 206.558006 178.754783 
L 206.94496 179.168004 
L 207.331915 184.688447 
L 207.718869 185.064374 
L 208.105823 182.846784 
L 208.492777 170.666826 
L 208.879731 165.901957 
L 209.266685 158.701254 
L 209.65364 161.649787 
L 210.814502 163.106022 
L 211.201456 165.970202 
L 211.58841 166.428146 
L 211.975365 161.994199 
L 212.362319 162.468652 
L 212.749273 160.594103 
L 213.136227 168.504142 
L 213.910135 164.919065 
L 214.29709 156.073199 
L 215.070998 147.990471 
L 215.457952 146.260686 
L 215.844906 137.634422 
L 216.23186 131.501515 
L 216.618815 132.294102 
L 217.005769 130.673287 
L 217.392723 127.07308 
L 217.779677 118.942593 
L 218.166631 113.285792 
L 218.94054 107.158384 
L 220.101402 91.493115 
L 220.488356 90.893446 
L 220.87531 88.253691 
L 221.649219 71.971956 
L 222.036173 63.525683 
L 222.423127 59.490654 
L 222.810081 53.568 
L 223.197035 53.609691 
L 223.970944 58.058492 
L 224.357898 73.404538 
L 224.744852 76.990297 
L 225.51876 80.528171 
L 225.905715 80.547435 
L 226.292669 84.370978 
L 227.840485 114.88746 
L 228.22744 119.621668 
L 228.614394 120.928193 
L 229.001348 106.096781 
L 229.388302 105.512111 
L 229.775256 103.473824 
L 232.096981 159.623047 
L 232.483935 163.24349 
L 233.257844 155.53022 
L 234.031752 172.276768 
L 234.418706 186.372283 
L 234.80566 185.11735 
L 235.579569 201.71763 
L 235.966523 203.342571 
L 236.353477 206.410265 
L 236.740431 204.957188 
L 237.127385 199.319507 
L 237.51434 207.010344 
L 237.901294 220.314372 
L 238.288248 221.900371 
L 238.675202 220.558339 
L 239.062156 216.33314 
L 239.44911 216.488217 
L 239.836065 210.83306 
L 240.609973 195.327816 
L 240.996927 189.771595 
L 241.383881 187.032081 
L 241.770835 191.68729 
L 242.15779 194.71425 
L 242.544744 194.834238 
L 244.09256 195.661088 
L 244.866469 198.722456 
L 245.253423 205.84252 
L 245.640377 204.737714 
L 246.027331 202.207905 
L 246.414285 205.074013 
L 246.80124 205.169235 
L 247.188194 203.937149 
L 247.575148 206.774634 
L 248.349056 209.675829 
L 248.73601 209.845906 
L 249.509919 202.188916 
L 249.896873 199.684014 
L 250.283827 210.348428 
L 250.670781 224.726849 
L 251.057735 232.498182 
L 251.831644 230.039928 
L 252.605552 232.680642 
L 252.992506 230.174915 
L 253.37946 232.800496 
L 253.766415 236.686644 
L 254.153369 238.023997 
L 254.540323 235.579227 
L 254.927277 228.018971 
L 255.701185 203.724826 
L 256.08814 203.864219 
L 256.475094 202.791062 
L 256.862048 200.324826 
L 257.249002 195.352172 
L 257.635956 195.566696 
L 258.02291 194.424736 
L 258.409865 192.040514 
L 259.570727 200.205662 
L 259.957681 201.625164 
L 260.344635 199.417206 
L 261.118544 199.804415 
L 261.505498 197.529994 
L 261.892452 197.778505 
L 262.66636 195.72989 
L 263.053315 195.933128 
L 263.440269 193.653619 
L 263.827223 192.676645 
L 264.214177 190.41447 
L 264.601131 187.035795 
L 264.988085 185.089694 
L 265.37504 181.753267 
L 266.148948 184.688447 
L 266.535902 190.762741 
L 266.922856 193.331764 
L 267.30981 191.24008 
L 267.696765 190.306182 
L 268.083719 190.518501 
L 268.470673 182.83454 
L 268.857627 181.938199 
L 269.244581 182.293766 
L 269.631535 189.527492 
L 270.01849 194.291541 
L 270.405444 190.049967 
L 270.792398 188.046067 
L 271.179352 175.888543 
L 271.566306 169.461714 
L 271.95326 166.575927 
L 272.340215 169.110549 
L 272.727169 168.290996 
L 273.114123 176.655671 
L 273.501077 181.259275 
L 273.888031 188.02034 
L 274.274985 188.174729 
L 274.66194 185.079649 
L 275.435848 194.258242 
L 275.822802 202.079935 
L 276.209756 207.627489 
L 276.59671 215.163252 
L 276.983665 212.163668 
L 277.370619 213.34622 
L 277.757573 217.584628 
L 278.144527 215.570414 
L 278.531481 210.46649 
L 278.918435 210.56391 
L 279.30539 212.754942 
L 279.692344 212.877273 
L 280.079298 210.917685 
L 280.853206 213.180132 
L 281.24016 209.228485 
L 282.014069 213.537759 
L 282.401023 209.587352 
L 282.787977 209.684359 
L 283.174931 212.8126 
L 283.561885 210.927868 
L 283.94884 210.036071 
L 284.335794 213.109131 
L 284.722748 215.185265 
L 285.109702 215.268791 
L 285.496656 216.327087 
L 286.270565 216.594721 
L 286.657519 215.680907 
L 287.044473 220.634297 
L 287.431427 219.743464 
L 287.818381 217.871254 
L 288.205335 221.825792 
L 288.59229 222.870187 
L 289.753152 214.448135 
L 290.140106 213.554136 
L 290.52706 218.447667 
L 291.300969 218.619532 
L 291.687923 214.857361 
L 292.074877 214.964967 
L 292.461831 216.007574 
L 292.848785 211.359662 
L 293.23574 211.447177 
L 293.622694 212.493502 
L 294.396602 218.34364 
L 294.783556 219.337676 
L 295.17051 216.598025 
L 295.557465 218.536006 
L 295.944419 219.524262 
L 296.331373 215.95969 
L 296.718327 216.973401 
L 297.105281 215.227373 
L 297.87919 215.458956 
L 298.266144 215.535599 
L 298.653098 214.684672 
L 299.040052 215.66247 
L 299.427006 213.0168 
L 299.81396 212.228068 
L 300.200915 209.597122 
L 300.587869 207.867055 
L 300.974823 212.55487 
L 301.361777 212.635782 
L 302.52264 223.567004 
L 302.909594 223.625895 
L 303.296548 224.561037 
L 303.683502 222.848308 
L 304.070456 223.820879 
L 304.45741 225.6569 
L 305.231319 231.008508 
L 305.618273 231.915715 
L 306.005227 234.542807 
L 306.392181 235.416305 
L 306.779135 234.567576 
L 307.16609 231.125329 
L 307.553044 232.027862 
L 307.939998 230.339899 
L 308.326952 232.11111 
L 308.713906 234.727194 
L 309.10086 233.91163 
L 309.487814 233.936947 
L 309.874769 232.248711 
L 310.261723 231.426541 
L 310.648677 231.426541 
L 311.035631 230.577125 
L 311.422585 222.971461 
L 311.809539 225.587408 
L 312.196494 227.313209 
L 312.583448 224.850003 
L 312.970402 223.201946 
L 313.357356 218.171361 
L 313.74431 219.09921 
L 314.518219 217.532478 
L 314.905173 215.928592 
L 315.679081 202.592502 
L 316.066035 212.888968 
L 316.452989 211.256048 
L 316.839944 202.966779 
L 317.226898 204.833484 
L 317.613852 208.245872 
L 318.000806 206.798163 
L 319.161669 207.079973 
L 319.548623 203.155845 
L 319.935577 205.79491 
L 320.322531 213.321037 
L 320.709485 210.076387 
L 321.096439 205.331603 
L 321.870348 216.91217 
L 322.257302 216.91217 
L 322.644256 218.691497 
L 323.03121 225.083236 
L 323.805119 232.293432 
L 324.192073 237.90442 
L 324.579027 238.723701 
L 325.352935 231.738621 
L 325.739889 237.286175 
L 326.126844 239.647561 
L 326.513798 234.193161 
L 326.900752 230.314854 
L 327.287706 233.499786 
L 327.67466 226.467923 
L 328.835523 216.417076 
L 329.222477 211.069735 
L 329.609431 212.732791 
L 329.996385 224.430043 
L 330.383339 228.296377 
L 330.770294 227.544658 
L 331.157248 226.075344 
L 331.931156 221.634111 
L 332.31811 226.262759 
L 332.705064 227.825504 
L 333.092019 226.355501 
L 333.478973 226.478107 
L 333.865927 231.126844 
L 334.252881 230.416406 
L 335.026789 214.486526 
L 335.413744 210.772515 
L 335.800698 213.911074 
L 336.187652 219.307127 
L 336.574606 219.420786 
L 336.96156 210.452727 
L 337.348514 204.526084 
L 337.735469 208.369301 
L 338.122423 215.214299 
L 338.896331 210.233529 
L 339.283285 208.10139 
L 339.670239 214.878275 
L 340.057194 219.395193 
L 340.831102 204.177813 
L 341.218056 189.111797 
L 341.60501 194.502069 
L 341.991964 208.421175 
L 342.378919 208.421175 
L 342.765873 199.060957 
L 343.152827 204.29725 
L 343.539781 207.329029 
L 343.926735 204.633136 
L 344.313689 199.632278 
L 344.700644 196.819011 
L 345.087598 197.879229 
L 345.474552 200.329918 
L 345.861506 226.673776 
L 346.24846 235.008867 
L 347.022369 219.629805 
L 347.409323 225.797254 
L 348.183231 215.856489 
L 348.570185 218.681176 
L 348.957139 217.071651 
L 349.344094 217.307223 
L 350.118002 228.250967 
L 350.89191 204.676346 
L 351.278864 194.183246 
L 351.665819 197.822263 
L 352.052773 195.264381 
L 352.826681 199.664888 
L 353.213635 200.643787 
L 353.600589 198.102971 
L 353.987544 186.440397 
L 354.374498 178.713505 
L 354.761452 181.320919 
L 355.148406 186.201655 
L 355.53536 203.020169 
L 355.922314 239.22512 
L 356.309269 254.666105 
L 356.696223 255.923233 
L 357.083177 254.243803 
L 357.470131 260.503856 
L 357.857085 262.290479 
L 358.244039 268.337254 
L 358.630994 271.273812 
L 359.017948 281.313099 
L 359.404902 274.778112 
L 359.791856 273.320912 
L 360.17881 257.442081 
L 360.565764 228.015118 
L 360.952719 215.637425 
L 361.339673 218.293278 
L 361.726627 224.757396 
L 362.113581 222.902111 
L 362.500535 223.99467 
L 362.887489 226.791012 
L 363.274444 238.927353 
L 363.661398 235.910844 
L 364.048352 238.533533 
L 364.435306 238.972072 
L 364.82226 238.306215 
L 365.209214 239.436751 
L 366.370077 225.121213 
L 367.143985 212.016986 
L 367.530939 206.764175 
L 367.917894 206.167671 
L 368.304848 205.100433 
L 368.691802 202.690749 
L 369.078756 201.89789 
L 369.46571 205.893157 
L 369.852664 206.867926 
L 370.239619 212.225591 
L 370.626573 212.959007 
L 371.013527 214.480745 
L 371.787435 223.081131 
L 372.174389 230.445854 
L 372.561344 231.602671 
L 372.948298 234.855026 
L 374.10916 224.697677 
L 374.496114 229.646661 
L 374.883069 230.149181 
L 375.270023 231.187252 
L 375.656977 226.59025 
L 376.430885 238.689989 
L 376.817839 235.2282 
L 377.204794 230.75064 
L 377.591748 228.415814 
L 378.75261 242.295291 
L 379.526519 233.543268 
L 379.913473 232.574688 
L 380.300427 239.089996 
L 381.074335 226.661392 
L 381.461289 224.845324 
L 381.848244 226.28285 
L 382.235198 227.271103 
L 382.622152 230.883977 
L 383.009106 231.334623 
L 383.39606 232.112487 
L 383.783014 237.06739 
L 384.169969 245.267628 
L 384.556923 257.347961 
L 385.330831 254.360218 
L 385.717785 256.094272 
L 386.491694 251.86563 
L 386.878648 251.416774 
L 387.265602 251.172803 
L 387.652556 254.27325 
L 388.03951 252.523233 
L 388.813419 245.292394 
L 389.200373 235.879471 
L 389.587327 241.154161 
L 389.974281 242.31194 
L 390.361235 238.756862 
L 390.748189 239.91781 
L 391.135144 240.137832 
L 391.522098 242.420921 
L 391.909052 239.443082 
L 392.296006 233.789575 
L 392.68296 231.772333 
L 393.069914 231.188903 
L 393.843823 219.449544 
L 394.230777 216.300392 
L 394.617731 221.437064 
L 395.004685 224.148645 
L 395.391639 228.660333 
L 395.778594 231.674364 
L 396.165548 230.411866 
L 396.552502 227.516999 
L 396.939456 223.673232 
L 397.32641 226.369264 
L 397.713364 224.063882 
L 398.100319 225.307802 
L 398.487273 224.942744 
L 398.487273 224.942744 
" style="fill:none;opacity:0.6;stroke:#2ca02c;stroke-linecap:square;stroke-width:0.5;"/>
   </g>
   <g id="line2d_17">
    <path clip-path="url(#pcce4852d01)" d="M 73.832727 123.639847 
L 74.219681 160.533279 
L 74.99359 125.230649 
L 75.380544 125.368556 
L 75.767498 120.046437 
L 76.154452 129.661499 
L 76.541406 162.802776 
L 76.928361 170.258834 
L 77.315315 188.721593 
L 77.702269 216.753474 
L 78.089223 235.202821 
L 78.476177 240.421178 
L 78.863131 230.358482 
L 79.250086 248.596342 
L 79.63704 260.10957 
L 80.023994 267.48784 
L 80.410948 293.847987 
L 80.797902 295.488 
L 81.184856 288.83563 
L 81.571811 290.594975 
L 81.958765 280.574427 
L 82.345719 279.544267 
L 82.732673 283.031008 
L 83.119627 271.645192 
L 83.506581 269.895782 
L 83.893536 269.890703 
L 84.667444 256.66655 
L 85.054398 232.891656 
L 85.441352 225.334674 
L 85.828306 220.184811 
L 86.215261 206.132906 
L 86.602215 202.145326 
L 87.763077 125.002222 
L 88.150031 123.996575 
L 88.536986 122.301105 
L 88.92394 125.866419 
L 90.084802 159.985563 
L 90.471756 158.831642 
L 90.858711 161.125199 
L 91.245665 158.170703 
L 91.632619 172.292857 
L 92.406527 215.5555 
L 92.793481 227.252863 
L 93.180436 225.694427 
L 93.56739 228.959998 
L 93.954344 222.512123 
L 94.341298 213.476023 
L 94.728252 210.205905 
L 95.115206 222.628916 
L 95.502161 226.516733 
L 96.276069 241.921595 
L 96.663023 244.502422 
L 97.049977 244.998379 
L 97.436931 241.831429 
L 97.823886 242.408911 
L 98.21084 242.4528 
L 98.597794 241.92336 
L 98.984748 248.726506 
L 99.371702 246.119641 
L 99.758656 240.959122 
L 100.145611 240.987385 
L 100.532565 246.128646 
L 100.919519 246.124726 
L 101.306473 238.877388 
L 101.693427 234.595632 
L 102.080381 238.887266 
L 102.467336 245.599046 
L 102.85429 242.510284 
L 103.241244 245.620888 
L 103.628198 250.768275 
L 104.402106 258.462934 
L 104.789061 266.121836 
L 105.176015 257.962062 
L 105.562969 259.485457 
L 105.949923 263.043566 
L 106.336877 263.044924 
L 106.723831 261.530935 
L 107.110786 257.959109 
L 107.884694 266.095919 
L 108.271648 259.479148 
L 108.658602 261.017273 
L 109.045556 252.292959 
L 109.432511 249.216417 
L 110.206419 249.243653 
L 110.593373 251.299384 
L 110.980327 252.376304 
L 111.367281 249.211946 
L 111.754236 247.179557 
L 112.14119 240.990682 
L 112.528144 231.702848 
L 112.915098 227.117899 
L 113.302052 223.993863 
L 113.689006 228.748419 
L 114.075961 218.988684 
L 114.462915 222.122444 
L 114.849869 215.455259 
L 115.623777 206.204858 
L 116.397686 203.258163 
L 116.78464 205.016267 
L 117.171594 205.719235 
L 117.558548 209.005366 
L 117.945502 205.503825 
L 118.332456 205.600579 
L 118.719411 213.843624 
L 119.106365 209.372622 
L 119.493319 212.511398 
L 119.880273 206.121647 
L 120.267227 207.826722 
L 120.654181 204.480108 
L 121.041136 204.605161 
L 121.42809 208.180379 
L 121.815044 215.224518 
L 122.201998 220.192891 
L 122.588952 222.25434 
L 122.975906 225.696363 
L 123.362861 225.673273 
L 124.136769 230.205255 
L 124.523723 236.571735 
L 124.910677 240.012822 
L 125.297631 249.616191 
L 125.684586 252.459348 
L 126.07154 249.609184 
L 126.458494 244.861174 
L 126.845448 242.005226 
L 127.232402 242.951447 
L 128.006311 233.427664 
L 128.393265 235.374256 
L 128.780219 233.445237 
L 129.167173 237.294826 
L 129.554127 237.476711 
L 129.941081 233.546552 
L 130.328036 227.772762 
L 131.101944 230.754933 
L 131.488898 235.490097 
L 131.875852 234.109648 
L 132.262806 237.421008 
L 133.036715 234.218921 
L 133.423669 235.668212 
L 133.810623 232.337498 
L 134.197577 234.243487 
L 134.584531 234.281769 
L 134.971486 241.806614 
L 135.35844 241.803572 
L 135.745394 243.689682 
L 136.132348 237.147701 
L 136.519302 239.060033 
L 136.906256 237.166115 
L 137.293211 243.738981 
L 137.680165 245.133589 
L 138.454073 245.16574 
L 139.227981 239.155996 
L 139.614936 235.893175 
L 140.00189 235.907675 
L 140.388844 237.316643 
L 140.775798 240.572966 
L 141.162752 238.748549 
L 141.549706 234.164547 
L 141.936661 235.999459 
L 142.323615 236.023923 
L 142.710569 237.416717 
L 143.097523 236.032663 
L 143.871431 238.884651 
L 144.258386 242.078881 
L 144.64534 242.087223 
L 145.032294 236.160908 
L 145.419248 232.968777 
L 145.806202 233.018664 
L 146.193156 240.823934 
L 146.580111 237.62356 
L 146.967065 236.255752 
L 147.354019 231.733588 
L 147.740973 231.778388 
L 148.127927 234.013206 
L 148.514881 235.085907 
L 148.901836 233.160139 
L 149.28879 233.12909 
L 150.062698 239.574211 
L 150.449652 240.953446 
L 150.836606 238.23778 
L 151.223561 237.816894 
L 151.610515 235.173708 
L 151.997469 237.9048 
L 152.384423 239.264613 
L 152.771377 237.921056 
L 153.158331 237.953272 
L 153.93224 232.167705 
L 154.319194 227.759244 
L 154.706148 229.562832 
L 155.093102 232.220884 
L 155.480056 230.477942 
L 155.867011 230.932889 
L 156.253965 230.572908 
L 156.640919 227.963184 
L 157.027873 227.980123 
L 157.801781 216.131 
L 158.188736 214.894154 
L 158.57569 216.314043 
L 158.962644 220.900269 
L 159.349598 216.476292 
L 159.736552 206.405987 
L 160.123506 205.179241 
L 160.510461 202.194464 
L 161.284369 208.157503 
L 161.671323 210.361016 
L 162.445231 219.307783 
L 162.832186 219.434621 
L 163.21914 222.498718 
L 163.606094 215.309478 
L 163.993048 214.096577 
L 164.380002 218.558515 
L 165.15391 218.77503 
L 165.540865 211.697411 
L 165.927819 209.227557 
L 166.314773 204.191116 
L 166.701727 206.688752 
L 167.088681 200.132627 
L 167.475635 200.325873 
L 167.86259 196.186121 
L 168.249544 196.52266 
L 168.636498 192.564879 
L 169.410406 192.96354 
L 169.79736 189.074351 
L 170.184315 193.48799 
L 170.571269 189.613813 
L 171.345177 190.013565 
L 171.732131 182.171482 
L 172.119085 178.394492 
L 172.50604 178.611043 
L 173.279948 179.480542 
L 173.666902 179.686752 
L 174.053856 175.975278 
L 174.44081 176.43229 
L 174.827765 172.744987 
L 175.214719 173.212156 
L 175.988627 166.080623 
L 176.375581 170.512595 
L 176.762535 170.976188 
L 177.14949 171.21367 
L 177.536444 171.657179 
L 177.923398 175.839392 
L 178.310352 176.057662 
L 179.858169 177.730351 
L 180.245123 181.776534 
L 180.632077 189.365203 
L 181.405985 197.188993 
L 181.79294 193.75759 
L 182.179894 194.086872 
L 182.953802 194.416049 
L 184.501619 209.442881 
L 184.888573 209.567183 
L 185.275527 203.425566 
L 185.662481 206.210199 
L 186.049435 206.316112 
L 186.823344 213.619077 
L 187.597252 213.787701 
L 187.984206 210.518475 
L 188.37116 210.601503 
L 188.758115 207.382967 
L 189.145069 207.515684 
L 189.918977 201.204561 
L 190.305931 187.954064 
L 190.692885 181.443787 
L 191.07984 178.293893 
L 191.466794 171.885042 
L 191.853748 175.363214 
L 192.240702 152.576819 
L 192.627656 153.042702 
L 193.01461 143.518692 
L 193.401565 140.785084 
L 194.175473 122.246804 
L 194.562427 117.008723 
L 194.949381 114.86918 
L 195.336335 115.820066 
L 195.72329 107.050895 
L 196.110244 104.949645 
L 196.497198 95.613389 
L 196.884152 104.557708 
L 197.271106 89.983831 
L 197.65806 91.393487 
L 198.045015 86.482372 
L 198.431969 87.948981 
L 198.818923 92.649293 
L 199.205877 100.231998 
L 199.592831 110.434394 
L 199.979785 114.218621 
L 200.36674 126.962994 
L 200.753694 127.997957 
L 201.140648 123.178858 
L 201.914556 145.625047 
L 203.075419 156.273615 
L 203.849327 168.006488 
L 204.623235 173.888042 
L 205.01019 168.861316 
L 205.397144 172.06275 
L 205.784098 177.926476 
L 206.171052 175.657485 
L 206.558006 178.759953 
L 206.94496 179.185425 
L 207.331915 184.69886 
L 207.718869 185.096794 
L 208.105823 182.870379 
L 208.492777 170.677285 
L 208.879731 165.916294 
L 209.266685 158.729639 
L 209.65364 161.65934 
L 210.814502 163.123482 
L 211.201456 165.985077 
L 211.58841 166.455723 
L 211.975365 162.011784 
L 212.362319 162.477555 
L 212.749273 160.596439 
L 213.136227 168.463494 
L 213.910135 164.935154 
L 214.29709 156.086249 
L 215.070998 148.002269 
L 215.457952 146.264688 
L 215.844906 137.627965 
L 216.23186 131.510229 
L 216.618815 132.312972 
L 217.005769 130.690045 
L 217.392723 127.081912 
L 217.779677 118.967067 
L 218.166631 113.326918 
L 218.94054 107.169853 
L 220.101402 91.518442 
L 220.488356 90.920964 
L 220.87531 88.277653 
L 221.649219 71.991404 
L 222.036173 63.541798 
L 222.423127 59.520823 
L 222.810081 53.578538 
L 223.197035 53.616554 
L 223.970944 58.074489 
L 224.357898 73.420022 
L 224.744852 76.995506 
L 225.51876 80.532816 
L 225.905715 80.565977 
L 226.292669 84.399835 
L 227.840485 114.89246 
L 228.22744 119.633386 
L 228.614394 120.986694 
L 229.001348 106.139509 
L 229.388302 105.524578 
L 229.775256 103.477734 
L 232.096981 159.632902 
L 232.483935 163.254336 
L 233.257844 155.539911 
L 234.031752 172.278907 
L 234.418706 186.370216 
L 234.80566 185.110048 
L 235.579569 201.722302 
L 235.966523 203.373456 
L 236.353477 206.445 
L 236.740431 204.96518 
L 237.127385 199.310781 
L 237.51434 207.040966 
L 237.901294 220.323708 
L 238.288248 221.923497 
L 238.675202 220.595083 
L 239.062156 216.354805 
L 239.44911 216.498217 
L 239.836065 210.834917 
L 240.609973 195.358255 
L 240.996927 195.978113 
L 241.383881 187.029325 
L 241.770835 191.69519 
L 242.15779 194.739748 
L 242.544744 194.849427 
L 244.09256 195.67629 
L 244.866469 198.741044 
L 245.253423 205.869713 
L 245.640377 204.784697 
L 246.027331 202.203847 
L 246.414285 205.096644 
L 246.80124 205.1687 
L 247.188194 203.956347 
L 247.575148 206.791185 
L 248.349056 209.686606 
L 248.73601 209.847799 
L 249.509919 202.212757 
L 249.896873 199.724087 
L 250.283827 205.602991 
L 250.670781 224.7235 
L 251.057735 232.510462 
L 251.831644 230.04014 
L 252.605552 232.695005 
L 252.992506 230.198995 
L 253.37946 232.806468 
L 253.766415 236.713175 
L 254.153369 238.036979 
L 254.540323 235.618585 
L 254.927277 228.031083 
L 255.701185 203.741499 
L 256.08814 203.890557 
L 256.475094 202.770801 
L 256.862048 200.343126 
L 257.249002 195.374074 
L 257.635956 195.585691 
L 258.02291 194.445044 
L 258.409865 192.042653 
L 259.183773 197.551863 
L 259.570727 207.426558 
L 259.957681 201.65346 
L 260.344635 199.429289 
L 261.118544 199.812902 
L 261.505498 197.535715 
L 261.892452 197.789719 
L 262.66636 195.765774 
L 263.053315 195.951638 
L 263.440269 193.652936 
L 263.827223 192.674106 
L 264.214177 190.457729 
L 264.601131 187.070865 
L 264.988085 185.118984 
L 265.37504 181.781606 
L 266.148948 184.702626 
L 266.535902 190.823283 
L 266.922856 193.329927 
L 267.30981 191.251405 
L 267.696765 190.337617 
L 268.083719 190.544392 
L 268.470673 182.855392 
L 268.857627 181.786395 
L 269.244581 182.296719 
L 269.631535 189.542793 
L 270.01849 194.313318 
L 270.405444 190.056922 
L 270.792398 188.053816 
L 271.179352 175.924945 
L 271.566306 169.471628 
L 271.95326 166.580842 
L 272.340215 169.129735 
L 272.727169 168.314531 
L 273.114123 176.689495 
L 273.501077 181.271873 
L 273.888031 188.034493 
L 274.274985 188.185844 
L 274.66194 185.08037 
L 275.435848 194.280459 
L 275.822802 202.103061 
L 276.209756 207.655362 
L 276.59671 215.18664 
L 276.983665 212.183687 
L 277.370619 213.370116 
L 277.757573 217.612481 
L 278.144527 217.307876 
L 278.531481 210.452612 
L 278.918435 210.564523 
L 279.30539 212.748854 
L 279.692344 212.918143 
L 280.079298 210.945551 
L 280.853206 213.169457 
L 281.24016 209.232248 
L 282.014069 213.560179 
L 282.401023 209.60704 
L 282.787977 209.696415 
L 283.174931 212.85481 
L 283.561885 210.988801 
L 283.94884 210.04546 
L 284.335794 213.134796 
L 284.722748 215.229564 
L 285.109702 215.28135 
L 285.496656 216.332136 
L 286.270565 216.604367 
L 286.657519 215.679723 
L 287.044473 220.642948 
L 287.431427 223.149973 
L 287.818381 217.859532 
L 288.205335 221.815451 
L 288.59229 222.865945 
L 289.753152 214.453142 
L 290.140106 213.566498 
L 290.52706 218.459182 
L 291.300969 218.629709 
L 291.687923 214.881602 
L 292.074877 214.950864 
L 292.461831 216.031136 
L 292.848785 211.403433 
L 293.23574 211.486181 
L 293.622694 212.512126 
L 294.396602 218.353456 
L 294.783556 219.334009 
L 295.17051 216.614468 
L 295.557465 218.573294 
L 295.944419 219.53042 
L 296.331373 215.970227 
L 296.718327 215.182552 
L 298.266144 215.575601 
L 298.653098 214.704179 
L 299.040052 215.659291 
L 299.427006 213.016521 
L 299.81396 212.241683 
L 300.200915 209.602263 
L 300.587869 207.898615 
L 300.974823 212.568108 
L 301.361777 212.650427 
L 302.52264 223.579408 
L 302.909594 223.64508 
L 303.296548 224.58308 
L 303.683502 222.871903 
L 304.070456 223.840051 
L 304.45741 225.664301 
L 305.231319 231.025876 
L 305.618273 231.954037 
L 306.005227 235.274881 
L 306.392181 235.161586 
L 306.779135 234.556313 
L 307.16609 231.147982 
L 307.553044 232.050243 
L 307.939998 230.367271 
L 308.326952 232.122261 
L 308.713906 234.734126 
L 309.10086 233.930891 
L 309.487814 233.951821 
L 309.874769 232.281151 
L 310.261723 231.440504 
L 310.648677 231.400215 
L 311.035631 230.615954 
L 311.422585 223.024802 
L 311.809539 225.645863 
L 312.196494 227.307496 
L 312.583448 224.870924 
L 312.970402 223.221554 
L 313.357356 218.197636 
L 313.74431 219.117221 
L 314.518219 217.573985 
L 314.905173 215.932073 
L 315.292127 215.151812 
L 315.679081 202.594054 
L 316.066035 212.88117 
L 316.452989 211.258174 
L 316.839944 202.994192 
L 317.226898 204.846547 
L 317.613852 208.244618 
L 318.000806 206.808218 
L 319.161669 207.079868 
L 319.548623 203.174279 
L 319.935577 205.801993 
L 320.322531 213.349812 
L 320.709485 210.086862 
L 321.096439 205.361047 
L 321.870348 216.925929 
L 322.257302 216.926411 
L 322.644256 218.699013 
L 323.03121 225.113615 
L 323.805119 232.342401 
L 324.192073 237.921866 
L 324.579027 236.232574 
L 324.965981 235.558171 
L 325.352935 231.756404 
L 325.739889 237.283262 
L 326.126844 239.639169 
L 326.513798 234.198988 
L 326.900752 230.329389 
L 327.287706 233.496788 
L 327.67466 226.478097 
L 328.835523 216.407122 
L 329.222477 211.058758 
L 329.609431 212.773619 
L 329.996385 224.454763 
L 330.383339 228.295581 
L 330.770294 227.55389 
L 331.157248 226.099342 
L 331.931156 221.66347 
L 332.31811 226.270978 
L 332.705064 227.838876 
L 333.092019 226.36451 
L 333.478973 226.486138 
L 333.865927 227.029433 
L 334.252881 230.439884 
L 335.026789 214.482933 
L 335.413744 210.772226 
L 335.800698 213.937313 
L 336.187652 219.323186 
L 336.574606 219.433594 
L 336.96156 210.449217 
L 337.348514 204.523567 
L 337.735469 208.389441 
L 338.122423 215.236677 
L 338.896331 210.241809 
L 339.283285 208.121964 
L 339.670239 214.905285 
L 340.057194 219.432573 
L 340.831102 204.192153 
L 341.218056 189.143928 
L 341.60501 194.531877 
L 341.991964 208.433691 
L 342.378919 208.404132 
L 342.765873 199.085975 
L 343.152827 205.582102 
L 343.539781 207.339905 
L 343.926735 204.642571 
L 344.313689 199.654268 
L 344.700644 196.820809 
L 345.087598 197.891282 
L 345.474552 200.326952 
L 345.861506 226.677231 
L 346.24846 235.028436 
L 347.022369 219.646467 
L 347.409323 225.795895 
L 348.183231 215.866636 
L 348.570185 218.709118 
L 348.957139 217.084196 
L 349.344094 217.317298 
L 350.118002 228.258771 
L 350.89191 204.68996 
L 351.278864 194.204321 
L 351.665819 197.831889 
L 352.052773 195.289701 
L 352.439727 194.431593 
L 352.826681 199.657975 
L 353.213635 200.648961 
L 353.600589 198.130385 
L 353.987544 186.443363 
L 354.374498 178.736326 
L 354.761452 181.346686 
L 355.148406 186.221234 
L 355.53536 203.050154 
L 355.922314 239.2083 
L 356.309269 254.664754 
L 356.696223 255.94295 
L 357.083177 254.248937 
L 357.470131 260.499223 
L 357.857085 262.319434 
L 358.244039 268.358953 
L 358.630994 271.28952 
L 359.017948 281.326196 
L 359.404902 274.795132 
L 359.791856 273.330288 
L 360.17881 257.453967 
L 360.565764 228.03783 
L 360.952719 215.626405 
L 361.339673 218.297963 
L 361.726627 218.512155 
L 362.113581 222.916192 
L 362.500535 224.009033 
L 362.887489 226.785759 
L 363.274444 238.956324 
L 363.661398 235.934675 
L 364.048352 238.543972 
L 364.435306 238.980844 
L 364.82226 238.320351 
L 365.209214 239.466772 
L 366.370077 225.123881 
L 367.143985 212.043701 
L 367.530939 206.810495 
L 367.917894 206.189931 
L 368.304848 205.117167 
L 368.691802 202.715459 
L 369.078756 201.912765 
L 369.46571 205.904032 
L 369.852664 206.884258 
L 370.239619 212.263716 
L 370.626573 212.957656 
L 371.013527 213.128153 
L 372.174389 230.451544 
L 372.561344 231.622014 
L 372.948298 234.872433 
L 374.10916 224.694669 
L 374.496114 229.639629 
L 374.883069 230.192194 
L 375.270023 231.203486 
L 375.656977 226.626594 
L 376.430885 238.68866 
L 376.817839 235.27246 
L 377.204794 230.759344 
L 377.591748 228.442645 
L 378.75261 242.31547 
L 379.526519 233.553763 
L 379.913473 232.578621 
L 380.300427 239.16825 
L 381.074335 226.660519 
L 381.461289 224.841135 
L 381.848244 226.287322 
L 382.235198 227.287725 
L 382.622152 230.91757 
L 383.009106 231.349931 
L 383.39606 232.11461 
L 383.783014 237.084262 
L 384.169969 245.294615 
L 384.556923 257.400573 
L 385.330831 254.393208 
L 385.717785 256.123716 
L 386.491694 251.898726 
L 386.878648 251.446152 
L 387.265602 251.198638 
L 387.652556 254.274983 
L 388.03951 252.526655 
L 388.813419 245.295838 
L 389.200373 235.904165 
L 389.587327 240.061845 
L 389.974281 242.354848 
L 390.361235 238.758522 
L 390.748189 239.912771 
L 391.135144 240.163881 
L 391.522098 242.430783 
L 391.909052 239.460066 
L 392.296006 233.80279 
L 392.68296 231.778526 
L 393.069914 231.225903 
L 393.843823 219.464232 
L 394.230777 216.296822 
L 394.617731 221.438215 
L 395.004685 224.164642 
L 395.391639 228.708208 
L 395.778594 231.713217 
L 396.165548 230.432117 
L 396.552502 227.532839 
L 396.939456 223.694022 
L 397.32641 226.401575 
L 397.713364 224.072842 
L 398.100319 225.324675 
L 398.487273 224.960621 
L 398.487273 224.960621 
" style="fill:none;opacity:0.6;stroke:#d62728;stroke-linecap:square;stroke-width:0.5;"/>
   </g>
   <g id="patch_3">
    <path d="M 57.6 307.584 
L 57.6 41.472 
" style="fill:none;stroke:#000000;stroke-linecap:square;stroke-linejoin:miter;stroke-width:0.8;"/>
   </g>
   <g id="patch_4">
    <path d="M 414.72 307.584 
L 414.72 41.472 
" style="fill:none;stroke:#000000;stroke-linecap:square;stroke-linejoin:miter;stroke-width:0.8;"/>
   </g>
   <g id="patch_5">
    <path d="M 57.6 307.584 
L 414.72 307.584 
" style="fill:none;stroke:#000000;stroke-linecap:square;stroke-linejoin:miter;stroke-width:0.8;"/>
   </g>
   <g id="patch_6">
    <path d="M 57.6 41.472 
L 414.72 41.472 
" style="fill:none;stroke:#000000;stroke-linecap:square;stroke-linejoin:miter;stroke-width:0.8;"/>
   </g>
  </g>
 </g>
 <defs>
  <clipPath id="pcce4852d01">
   <rect height="266.112" width="357.12" x="57.6" y="41.472"/>
  </clipPath>
 </defs>
</svg>
