<?xml version="1.0" encoding="utf-8" standalone="no"?>
<!DOCTYPE svg PUBLIC "-//W3C//DTD SVG 1.1//EN"
  "http://www.w3.org/Graphics/SVG/1.1/DTD/svg11.dtd">
<!-- Created with matplotlib (http://matplotlib.org/) -->
<svg height="345.6pt" version="1.1" viewBox="0 0 460.8 345.6" width="460.8pt" xmlns="http://www.w3.org/2000/svg" xmlns:xlink="http://www.w3.org/1999/xlink">
 <defs>
  <style type="text/css">
*{stroke-linecap:butt;stroke-linejoin:round;}
  </style>
 </defs>
 <g id="figure_1">
  <g id="patch_1">
   <path d="M 0 345.6 
L 460.8 345.6 
L 460.8 0 
L 0 0 
z
" style="fill:#ffffff;"/>
  </g>
  <g id="axes_1">
   <g id="patch_2">
    <path d="M 57.6 307.584 
L 414.72 307.584 
L 414.72 41.472 
L 57.6 41.472 
z
" style="fill:#ffffff;"/>
   </g>
   <g id="matplotlib.axis_1">
    <g id="xtick_1">
     <g id="line2d_1">
      <defs>
       <path d="M 0 0 
L 0 3.5 
" id="mf97ec08930" style="stroke:#000000;stroke-width:0.8;"/>
      </defs>
      <g>
       <use style="stroke:#000000;stroke-width:0.8;" x="73.832727" xlink:href="#mf97ec08930" y="307.584"/>
      </g>
     </g>
     <g id="text_1">
      <!-- 0 -->
      <defs>
       <path d="M 31.78125 66.40625 
Q 24.171875 66.40625 20.328125 58.90625 
Q 16.5 51.421875 16.5 36.375 
Q 16.5 21.390625 20.328125 13.890625 
Q 24.171875 6.390625 31.78125 6.390625 
Q 39.453125 6.390625 43.28125 13.890625 
Q 47.125 21.390625 47.125 36.375 
Q 47.125 51.421875 43.28125 58.90625 
Q 39.453125 66.40625 31.78125 66.40625 
z
M 31.78125 74.21875 
Q 44.046875 74.21875 50.515625 64.515625 
Q 56.984375 54.828125 56.984375 36.375 
Q 56.984375 17.96875 50.515625 8.265625 
Q 44.046875 -1.421875 31.78125 -1.421875 
Q 19.53125 -1.421875 13.0625 8.265625 
Q 6.59375 17.96875 6.59375 36.375 
Q 6.59375 54.828125 13.0625 64.515625 
Q 19.53125 74.21875 31.78125 74.21875 
z
" id="DejaVuSans-30"/>
      </defs>
      <g transform="translate(70.651477 322.182437)scale(0.1 -0.1)">
       <use xlink:href="#DejaVuSans-30"/>
      </g>
     </g>
    </g>
    <g id="xtick_2">
     <g id="line2d_2">
      <g>
       <use style="stroke:#000000;stroke-width:0.8;" x="136.483161" xlink:href="#mf97ec08930" y="307.584"/>
      </g>
     </g>
     <g id="text_2">
      <!-- 500 -->
      <defs>
       <path d="M 10.796875 72.90625 
L 49.515625 72.90625 
L 49.515625 64.59375 
L 19.828125 64.59375 
L 19.828125 46.734375 
Q 21.96875 47.46875 24.109375 47.828125 
Q 26.265625 48.1875 28.421875 48.1875 
Q 40.625 48.1875 47.75 41.5 
Q 54.890625 34.8125 54.890625 23.390625 
Q 54.890625 11.625 47.5625 5.09375 
Q 40.234375 -1.421875 26.90625 -1.421875 
Q 22.3125 -1.421875 17.546875 -0.640625 
Q 12.796875 0.140625 7.71875 1.703125 
L 7.71875 11.625 
Q 12.109375 9.234375 16.796875 8.0625 
Q 21.484375 6.890625 26.703125 6.890625 
Q 35.15625 6.890625 40.078125 11.328125 
Q 45.015625 15.765625 45.015625 23.390625 
Q 45.015625 31 40.078125 35.4375 
Q 35.15625 39.890625 26.703125 39.890625 
Q 22.75 39.890625 18.8125 39.015625 
Q 14.890625 38.140625 10.796875 36.28125 
z
" id="DejaVuSans-35"/>
      </defs>
      <g transform="translate(126.939411 322.182437)scale(0.1 -0.1)">
       <use xlink:href="#DejaVuSans-35"/>
       <use x="63.623047" xlink:href="#DejaVuSans-30"/>
       <use x="127.246094" xlink:href="#DejaVuSans-30"/>
      </g>
     </g>
    </g>
    <g id="xtick_3">
     <g id="line2d_3">
      <g>
       <use style="stroke:#000000;stroke-width:0.8;" x="199.133594" xlink:href="#mf97ec08930" y="307.584"/>
      </g>
     </g>
     <g id="text_3">
      <!-- 1000 -->
      <defs>
       <path d="M 12.40625 8.296875 
L 28.515625 8.296875 
L 28.515625 63.921875 
L 10.984375 60.40625 
L 10.984375 69.390625 
L 28.421875 72.90625 
L 38.28125 72.90625 
L 38.28125 8.296875 
L 54.390625 8.296875 
L 54.390625 0 
L 12.40625 0 
z
" id="DejaVuSans-31"/>
      </defs>
      <g transform="translate(186.408594 322.182437)scale(0.1 -0.1)">
       <use xlink:href="#DejaVuSans-31"/>
       <use x="63.623047" xlink:href="#DejaVuSans-30"/>
       <use x="127.246094" xlink:href="#DejaVuSans-30"/>
       <use x="190.869141" xlink:href="#DejaVuSans-30"/>
      </g>
     </g>
    </g>
    <g id="xtick_4">
     <g id="line2d_4">
      <g>
       <use style="stroke:#000000;stroke-width:0.8;" x="261.784027" xlink:href="#mf97ec08930" y="307.584"/>
      </g>
     </g>
     <g id="text_4">
      <!-- 1500 -->
      <g transform="translate(249.059027 322.182437)scale(0.1 -0.1)">
       <use xlink:href="#DejaVuSans-31"/>
       <use x="63.623047" xlink:href="#DejaVuSans-35"/>
       <use x="127.246094" xlink:href="#DejaVuSans-30"/>
       <use x="190.869141" xlink:href="#DejaVuSans-30"/>
      </g>
     </g>
    </g>
    <g id="xtick_5">
     <g id="line2d_5">
      <g>
       <use style="stroke:#000000;stroke-width:0.8;" x="324.434461" xlink:href="#mf97ec08930" y="307.584"/>
      </g>
     </g>
     <g id="text_5">
      <!-- 2000 -->
      <defs>
       <path d="M 19.1875 8.296875 
L 53.609375 8.296875 
L 53.609375 0 
L 7.328125 0 
L 7.328125 8.296875 
Q 12.9375 14.109375 22.625 23.890625 
Q 32.328125 33.6875 34.8125 36.53125 
Q 39.546875 41.84375 41.421875 45.53125 
Q 43.3125 49.21875 43.3125 52.78125 
Q 43.3125 58.59375 39.234375 62.25 
Q 35.15625 65.921875 28.609375 65.921875 
Q 23.96875 65.921875 18.8125 64.3125 
Q 13.671875 62.703125 7.8125 59.421875 
L 7.8125 69.390625 
Q 13.765625 71.78125 18.9375 73 
Q 24.125 74.21875 28.421875 74.21875 
Q 39.75 74.21875 46.484375 68.546875 
Q 53.21875 62.890625 53.21875 53.421875 
Q 53.21875 48.921875 51.53125 44.890625 
Q 49.859375 40.875 45.40625 35.40625 
Q 44.1875 33.984375 37.640625 27.21875 
Q 31.109375 20.453125 19.1875 8.296875 
z
" id="DejaVuSans-32"/>
      </defs>
      <g transform="translate(311.709461 322.182437)scale(0.1 -0.1)">
       <use xlink:href="#DejaVuSans-32"/>
       <use x="63.623047" xlink:href="#DejaVuSans-30"/>
       <use x="127.246094" xlink:href="#DejaVuSans-30"/>
       <use x="190.869141" xlink:href="#DejaVuSans-30"/>
      </g>
     </g>
    </g>
    <g id="xtick_6">
     <g id="line2d_6">
      <g>
       <use style="stroke:#000000;stroke-width:0.8;" x="387.084894" xlink:href="#mf97ec08930" y="307.584"/>
      </g>
     </g>
     <g id="text_6">
      <!-- 2500 -->
      <g transform="translate(374.359894 322.182437)scale(0.1 -0.1)">
       <use xlink:href="#DejaVuSans-32"/>
       <use x="63.623047" xlink:href="#DejaVuSans-35"/>
       <use x="127.246094" xlink:href="#DejaVuSans-30"/>
       <use x="190.869141" xlink:href="#DejaVuSans-30"/>
      </g>
     </g>
    </g>
   </g>
   <g id="matplotlib.axis_2">
    <g id="ytick_1">
     <g id="line2d_7">
      <defs>
       <path d="M 0 0 
L -3.5 0 
" id="mfdad99ff9d" style="stroke:#000000;stroke-width:0.8;"/>
      </defs>
      <g>
       <use style="stroke:#000000;stroke-width:0.8;" x="57.6" xlink:href="#mfdad99ff9d" y="259.858793"/>
      </g>
     </g>
     <g id="text_7">
      <!-- 1000 -->
      <g transform="translate(25.15 263.658012)scale(0.1 -0.1)">
       <use xlink:href="#DejaVuSans-31"/>
       <use x="63.623047" xlink:href="#DejaVuSans-30"/>
       <use x="127.246094" xlink:href="#DejaVuSans-30"/>
       <use x="190.869141" xlink:href="#DejaVuSans-30"/>
      </g>
     </g>
    </g>
    <g id="ytick_2">
     <g id="line2d_8">
      <g>
       <use style="stroke:#000000;stroke-width:0.8;" x="57.6" xlink:href="#mfdad99ff9d" y="204.785355"/>
      </g>
     </g>
     <g id="text_8">
      <!-- 1500 -->
      <g transform="translate(25.15 208.584574)scale(0.1 -0.1)">
       <use xlink:href="#DejaVuSans-31"/>
       <use x="63.623047" xlink:href="#DejaVuSans-35"/>
       <use x="127.246094" xlink:href="#DejaVuSans-30"/>
       <use x="190.869141" xlink:href="#DejaVuSans-30"/>
      </g>
     </g>
    </g>
    <g id="ytick_3">
     <g id="line2d_9">
      <g>
       <use style="stroke:#000000;stroke-width:0.8;" x="57.6" xlink:href="#mfdad99ff9d" y="149.711917"/>
      </g>
     </g>
     <g id="text_9">
      <!-- 2000 -->
      <g transform="translate(25.15 153.511136)scale(0.1 -0.1)">
       <use xlink:href="#DejaVuSans-32"/>
       <use x="63.623047" xlink:href="#DejaVuSans-30"/>
       <use x="127.246094" xlink:href="#DejaVuSans-30"/>
       <use x="190.869141" xlink:href="#DejaVuSans-30"/>
      </g>
     </g>
    </g>
    <g id="ytick_4">
     <g id="line2d_10">
      <g>
       <use style="stroke:#000000;stroke-width:0.8;" x="57.6" xlink:href="#mfdad99ff9d" y="94.638479"/>
      </g>
     </g>
     <g id="text_10">
      <!-- 2500 -->
      <g transform="translate(25.15 98.437697)scale(0.1 -0.1)">
       <use xlink:href="#DejaVuSans-32"/>
       <use x="63.623047" xlink:href="#DejaVuSans-35"/>
       <use x="127.246094" xlink:href="#DejaVuSans-30"/>
       <use x="190.869141" xlink:href="#DejaVuSans-30"/>
      </g>
     </g>
    </g>
   </g>
   <g id="line2d_11">
    <path clip-path="url(#p4fa699abdb)" d="M 73.832727 217.378443 
L 73.958028 218.261823 
L 74.083329 218.311397 
L 74.20863 215.353942 
L 74.333931 220.131012 
L 74.459232 220.012058 
L 74.584532 220.377753 
L 74.709833 222.905619 
L 74.835134 222.423175 
L 74.960435 220.20261 
L 75.085736 220.190495 
L 75.336338 222.65007 
L 75.461639 222.097144 
L 75.586939 224.839791 
L 75.71224 224.832086 
L 75.837541 225.240727 
L 75.962842 224.394807 
L 76.213444 229.196105 
L 76.338745 229.017668 
L 76.464045 228.476843 
L 76.589346 231.05318 
L 76.714647 230.901177 
L 76.965249 232.067628 
L 77.09055 229.711598 
L 77.215851 232.90696 
L 77.341152 231.948675 
L 77.717054 236.187124 
L 77.967656 231.185364 
L 78.218258 231.220605 
L 78.468859 228.776453 
L 78.59416 232.042297 
L 78.719461 231.467333 
L 78.844762 234.04367 
L 79.095364 228.548441 
L 79.345965 231.186453 
L 79.471266 232.431118 
L 79.721868 228.005424 
L 79.847169 230.55202 
L 80.097771 226.228755 
L 80.348372 228.375516 
L 80.598974 227.013 
L 80.849576 230.483729 
L 81.225478 227.673881 
L 81.350779 230.467204 
L 81.47608 229.952814 
L 81.726682 226.739824 
L 81.977284 228.995093 
L 82.227885 229.570607 
L 82.353186 233.772713 
L 82.478487 233.169097 
L 82.603788 230.362557 
L 82.729089 235.129717 
L 82.85439 234.300308 
L 83.104991 232.13483 
L 83.230292 238.633495 
L 83.355593 236.332526 
L 83.480894 242.632922 
L 83.731496 231.762533 
L 83.982097 239.126951 
L 84.107398 239.385794 
L 84.358 236.396406 
L 84.483301 248.140265 
L 84.608602 241.53476 
L 84.733903 242.118531 
L 85.235106 260.274049 
L 85.360407 261.517605 
L 85.611009 270.959399 
L 85.73631 259.489804 
L 85.86161 260.077984 
L 85.986911 270.009926 
L 86.112212 265.759362 
L 86.237513 266.407026 
L 86.362814 261.466935 
L 86.488115 264.809897 
L 86.613416 271.22815 
L 86.738717 269.980191 
L 86.989318 276.499785 
L 87.114619 266.41143 
L 87.23992 267.559158 
L 87.490522 263.300883 
L 87.615823 263.570744 
L 87.741123 259.225449 
L 87.991725 270.335963 
L 88.117026 267.46003 
L 88.367628 270.989134 
L 88.492929 276.127488 
L 88.61823 269.629925 
L 88.868831 276.298214 
L 88.994132 275.376286 
L 89.244734 287.126754 
L 89.620636 275.566838 
L 89.871238 271.759066 
L 89.996539 271.287634 
L 90.12184 280.102685 
L 90.372442 274.096379 
L 90.497743 276.90733 
L 90.748344 269.805055 
L 90.873645 272.121447 
L 90.998946 270.957193 
L 91.124247 273.782457 
L 91.249548 273.10616 
L 91.374849 274.335396 
L 91.500149 269.421746 
L 91.62545 270.386633 
L 91.750751 272.49484 
L 91.876052 272.20846 
L 92.126654 274.931295 
L 92.377256 274.12557 
L 92.502556 273.869477 
L 92.627857 274.241774 
L 93.00376 268.943154 
L 93.129061 267.370811 
L 93.254362 267.849948 
L 93.379662 267.051383 
L 93.504963 270.141001 
L 93.630264 269.801754 
L 93.880866 274.149248 
L 94.006167 273.980727 
L 94.131468 277.193709 
L 94.256769 277.070345 
L 94.382069 276.367608 
L 94.632671 281.313205 
L 94.757972 277.455859 
L 94.883273 278.859129 
L 95.133875 277.860096 
L 95.259175 276.853352 
L 95.384476 273.727383 
L 95.635078 279.037567 
L 95.760379 279.086032 
L 95.88568 277.646411 
L 96.010981 278.338137 
L 96.386883 274.190002 
L 96.512184 278.896582 
L 96.762786 278.0121 
L 96.888087 278.931823 
L 97.138688 283.081061 
L 97.263989 283.163671 
L 97.514591 285.187069 
L 97.639892 288.13019 
L 97.765193 284.846712 
L 98.015795 287.083795 
L 98.141095 289.037799 
L 98.391697 293.307093 
L 98.516998 291.485266 
L 98.642299 294.82492 
L 98.7676 294.733497 
L 98.892901 295.488 
L 99.018201 290.74398 
L 99.143502 290.55012 
L 99.394104 286.674052 
L 99.519405 286.967039 
L 99.770007 282.510501 
L 100.020608 285.353392 
L 100.145909 279.363604 
L 100.27121 281.21407 
L 100.396511 280.359329 
L 100.521812 278.268744 
L 100.772414 283.261697 
L 101.023015 280.667739 
L 101.273617 277.206926 
L 101.398918 277.980159 
L 101.524219 280.175386 
L 101.64952 279.116876 
L 101.774821 275.658261 
L 102.025422 275.419245 
L 102.150723 277.317073 
L 102.526626 274.221949 
L 102.651927 278.320509 
L 102.777227 276.372011 
L 102.902528 277.091273 
L 103.15313 274.593143 
L 103.403732 275.81247 
L 103.529033 273.776951 
L 103.654334 273.868375 
L 103.779634 273.34958 
L 103.904935 270.076018 
L 104.030236 270.454924 
L 104.155537 268.722309 
L 104.280838 270.059494 
L 104.406139 267.65389 
L 104.53144 269.855725 
L 104.65674 269.953757 
L 104.782041 272.644644 
L 104.907342 271.636798 
L 105.032643 272.759195 
L 105.157944 269.803952 
L 105.283245 269.977986 
L 105.408546 270.491274 
L 105.533847 272.158893 
L 105.659147 272.30539 
L 105.909749 269.735662 
L 106.03505 271.6379 
L 106.536253 265.945511 
L 106.661554 267.375215 
L 106.786855 266.196642 
L 107.037457 266.56233 
L 107.162758 266.19995 
L 107.288059 266.561228 
L 107.53866 265.783591 
L 107.789262 269.555026 
L 107.914563 269.693805 
L 108.165165 268.535065 
L 108.290466 271.640105 
L 108.415766 271.413203 
L 108.541067 270.769942 
L 108.666368 268.641904 
L 108.791669 268.791702 
L 108.91697 267.874183 
L 109.042271 268.745442 
L 109.167572 268.303752 
L 109.292873 271.267808 
L 109.543474 271.014472 
L 109.668775 272.962964 
L 109.794076 273.124883 
L 109.919377 272.781225 
L 110.044678 273.172246 
L 110.42058 267.273882 
L 110.545881 266.386098 
L 110.671182 266.425749 
L 110.921784 264.861662 
L 111.047085 264.917838 
L 111.297686 262.143238 
L 111.422987 261.821611 
L 111.673589 262.59594 
L 111.79889 261.318239 
L 111.924191 261.237834 
L 112.174792 259.236461 
L 112.425394 260.18042 
L 112.550695 258.704456 
L 112.675996 259.076753 
L 112.801297 260.481126 
L 113.051899 258.456626 
L 113.177199 259.408289 
L 113.3025 262.091472 
L 113.803704 256.980655 
L 113.929005 257.042343 
L 114.304907 256.446445 
L 114.430208 256.672238 
L 114.555509 257.587565 
L 114.806111 260.437064 
L 115.557916 254.996908 
L 115.683217 255.152219 
L 115.933818 254.061763 
L 116.059119 252.285093 
L 116.18442 252.645275 
L 116.309721 252.335756 
L 116.435022 252.736692 
L 116.560323 251.965664 
L 116.936225 254.970474 
L 117.061526 252.921745 
L 117.312128 253.571614 
L 117.56273 257.081995 
L 117.938632 253.516541 
L 118.314535 251.466709 
L 118.439836 251.79715 
L 118.690438 249.223004 
L 118.815738 250.201109 
L 118.941039 249.074309 
L 119.191641 250.892835 
L 119.316942 249.625043 
L 119.818145 255.163231 
L 119.943446 252.576985 
L 120.068747 255.872584 
L 120.319349 254.85702 
L 120.44465 254.736963 
L 120.820552 249.606327 
L 120.945853 249.614031 
L 121.071154 249.008223 
L 121.196455 250.249581 
L 121.321756 249.562265 
L 121.447057 247.819734 
L 121.572357 247.707396 
L 121.697658 247.764661 
L 121.94826 249.793571 
L 122.073561 248.15679 
L 122.198862 248.221773 
L 122.324163 247.673244 
L 122.574764 249.781457 
L 122.700065 249.325447 
L 122.825366 247.868206 
L 122.950667 247.826349 
L 123.075968 248.852912 
L 123.201269 248.185429 
L 123.32657 248.486128 
L 123.45187 249.731896 
L 123.827773 248.13806 
L 123.953074 247.289935 
L 124.078375 247.970635 
L 124.203676 247.832951 
L 124.328977 249.275886 
L 124.955481 245.927418 
L 125.206083 245.784222 
L 125.331383 245.958263 
L 125.456684 245.93402 
L 125.581985 247.18089 
L 125.957888 244.821539 
L 126.083189 244.753249 
L 126.459091 243.669407 
L 126.584392 244.854589 
L 126.834994 243.506392 
L 126.960295 244.87551 
L 127.210896 243.31143 
L 127.461498 247.028887 
L 127.586799 249.751715 
L 127.7121 249.198775 
L 127.837401 249.706551 
L 127.962702 249.119473 
L 128.213303 251.722244 
L 128.463905 248.478424 
L 128.589206 249.143702 
L 128.714507 252.907425 
L 128.839808 252.568178 
L 128.965109 253.60906 
L 129.090409 252.091233 
L 129.21571 252.354486 
L 129.341011 251.215571 
L 129.466312 251.541601 
L 129.967516 248.100614 
L 130.092816 247.834054 
L 130.218117 247.961828 
L 130.343418 249.438901 
L 130.468719 248.266937 
L 130.59402 248.52028 
L 130.719321 248.349547 
L 130.969922 246.82731 
L 131.095223 246.774441 
L 131.220524 246.314035 
L 131.345825 244.581427 
L 131.471126 244.603451 
L 131.596427 244.38867 
L 131.847029 243.310328 
L 132.09763 243.280586 
L 132.348232 241.551285 
L 132.473533 241.593141 
L 132.598834 242.246305 
L 132.849435 240.674507 
L 133.100037 241.604153 
L 133.225338 241.509429 
L 133.350639 240.779154 
L 133.47594 240.773642 
L 133.601241 241.196602 
L 133.851842 239.727246 
L 134.102444 238.992575 
L 134.227745 239.762501 
L 134.353046 239.323016 
L 134.603648 238.217137 
L 134.728948 238.126809 
L 134.854249 236.656351 
L 134.97955 236.543999 
L 135.104851 238.696273 
L 135.355453 237.03966 
L 135.480754 237.175152 
L 135.606055 236.87444 
L 135.731355 235.926077 
L 135.856656 236.502143 
L 135.981957 239.623715 
L 136.107258 238.781089 
L 136.232559 237.082619 
L 136.35786 239.295479 
L 136.483161 237.580485 
L 136.984364 247.645707 
L 137.109665 242.265035 
L 137.234966 242.699007 
L 137.360267 240.949874 
L 137.86147 246.553045 
L 137.986771 247.18639 
L 138.112072 251.973382 
L 138.237373 250.20002 
L 138.362674 251.746473 
L 138.487974 251.704617 
L 138.613275 252.374318 
L 138.738576 248.50705 
L 139.114479 252.070312 
L 139.365081 248.532395 
L 139.615682 254.299684 
L 139.740983 253.029687 
L 139.866284 253.72472 
L 140.116886 249.769342 
L 140.242187 249.986328 
L 140.367487 247.166571 
L 140.492788 247.234861 
L 140.74339 246.915433 
L 140.868691 247.390172 
L 141.244594 251.742076 
L 141.369894 251.403918 
L 141.495195 251.645146 
L 141.745797 256.476187 
L 141.996399 257.371675 
L 142.247 256.768065 
L 142.497602 252.120975 
L 142.622903 251.271747 
L 142.748204 251.184727 
L 142.873505 249.357394 
L 142.998806 249.37611 
L 143.124107 249.231825 
L 143.249407 252.712463 
L 143.374708 252.010828 
L 143.500009 250.663734 
L 143.62531 252.193676 
L 143.875912 248.551111 
L 144.001213 247.1908 
L 144.126513 247.319677 
L 144.377115 248.675578 
L 144.502416 248.667873 
L 144.627717 245.995709 
L 144.753018 246.590505 
L 144.878319 245.843706 
L 145.00362 246.001208 
L 145.12892 246.460525 
L 145.254221 245.78312 
L 145.379522 246.524406 
L 145.630124 250.649414 
L 145.755425 251.129653 
L 145.880726 251.115334 
L 146.131327 249.48736 
L 146.381929 251.96237 
L 146.50723 252.439301 
L 146.632531 254.145475 
L 146.757832 253.764371 
L 146.883133 254.657661 
L 147.008433 252.74441 
L 147.133734 254.470403 
L 147.259035 254.425253 
L 147.509637 249.934562 
L 147.634938 248.347342 
L 147.885539 249.742908 
L 148.386743 246.431886 
L 148.512044 246.520009 
L 148.637345 246.082729 
L 148.762646 246.12788 
L 148.887946 246.025451 
L 149.013247 244.139737 
L 149.263849 245.068267 
L 149.38915 246.109163 
L 149.514451 243.483252 
L 149.639752 244.200309 
L 149.765052 243.590105 
L 150.015654 244.30606 
L 150.140955 243.750915 
L 150.266256 244.765363 
L 150.391557 242.152683 
L 150.642159 242.448971 
L 150.767459 241.668034 
L 150.89276 241.649317 
L 151.143362 240.241637 
L 151.268663 240.714158 
L 151.393964 240.452021 
L 151.519265 239.513568 
L 151.644565 241.585424 
L 151.895167 240.003716 
L 152.145769 239.413331 
L 152.27107 239.411125 
L 152.396371 239.762501 
L 152.521672 239.615997 
L 152.646972 239.673276 
L 152.772273 239.549912 
L 153.022875 238.054122 
L 153.273477 234.982124 
L 153.398778 235.268503 
L 153.524078 236.353447 
L 153.649379 235.768574 
L 153.77468 236.338025 
L 153.899981 237.916438 
L 154.025282 238.077248 
L 154.150583 240.215203 
L 154.275884 240.187666 
L 154.526485 237.85916 
L 154.651786 238.067339 
L 154.777087 239.95195 
L 154.902388 238.011163 
L 155.403591 239.971769 
L 155.654193 235.457952 
L 155.779494 235.107693 
L 155.904795 235.282823 
L 156.030096 235.21343 
L 156.531299 233.37288 
L 156.6566 233.248413 
L 156.781901 233.948946 
L 157.032503 232.992865 
L 157.157804 232.643708 
L 157.408405 231.348379 
L 157.533706 231.576378 
L 157.909609 231.384723 
L 158.03491 231.244834 
L 158.285511 231.48055 
L 158.410812 229.913162 
L 158.536113 230.097113 
L 158.661414 229.396567 
L 159.037317 230.146673 
L 159.162617 229.625681 
L 159.287918 228.361197 
L 159.413219 228.603514 
L 159.53852 227.559324 
L 159.789122 227.36326 
L 160.039724 228.989029 
L 160.165024 228.648678 
L 160.290325 227.823679 
L 160.415626 227.78622 
L 160.666228 226.865394 
L 160.791529 229.420809 
L 160.91683 228.343569 
L 161.04213 225.978719 
L 161.167431 226.370835 
L 161.418033 225.617434 
L 161.668635 224.108427 
L 161.793936 224.514863 
L 161.919237 224.405819 
L 162.169838 223.254789 
L 162.295139 223.729515 
L 162.545741 222.361486 
L 162.671042 222.077312 
L 163.046944 225.999641 
L 163.172245 226.142837 
L 163.422847 223.816536 
L 163.548148 226.117505 
L 163.673449 225.885097 
L 163.79875 223.403485 
L 164.049351 225.698942 
L 164.174652 224.411331 
L 164.299953 224.609588 
L 164.425254 227.35335 
L 164.550555 226.343298 
L 164.801156 228.811694 
L 164.926457 231.564263 
L 165.30236 226.993168 
L 165.427661 227.500943 
L 165.552962 227.085687 
L 165.803563 225.294698 
L 165.928864 225.69234 
L 166.179466 223.701978 
L 166.304767 223.969641 
L 166.430068 223.244866 
L 166.680669 223.220637 
L 166.80597 222.900106 
L 166.931271 223.123707 
L 167.307174 225.255047 
L 167.432475 225.22751 
L 167.557776 225.215395 
L 167.683076 224.647034 
L 167.808377 226.248574 
L 167.933678 225.424677 
L 168.18428 222.697439 
L 168.434882 222.932053 
L 168.685483 220.683951 
L 168.936085 219.808289 
L 169.186687 220.578215 
L 169.437289 222.948578 
L 169.68789 221.716027 
L 169.813191 220.518731 
L 169.938492 222.179755 
L 170.063793 221.456082 
L 170.314395 223.568705 
L 170.439695 223.622676 
L 170.690297 222.012329 
L 171.0662 225.021536 
L 171.442102 223.389165 
L 171.692704 221.836097 
L 171.818005 225.212088 
L 171.943306 225.389436 
L 172.319208 228.473549 
L 172.444509 229.066126 
L 172.56981 228.026346 
L 172.695111 230.011195 
L 172.820412 229.917573 
L 172.945713 228.150812 
L 173.071014 230.623604 
L 173.321615 229.953916 
L 173.446916 229.19831 
L 173.572217 227.308186 
L 173.94812 230.28987 
L 174.449323 224.541297 
L 174.574624 222.445199 
L 174.825226 222.642366 
L 174.950527 222.494773 
L 175.075828 220.952717 
L 175.201128 221.990292 
L 175.45173 225.312325 
L 175.577031 224.862931 
L 175.702332 225.837728 
L 175.827633 225.036958 
L 175.952934 226.215538 
L 176.078234 223.870506 
L 176.203535 223.968539 
L 176.328836 221.990292 
L 176.454137 221.855916 
L 176.704739 223.296645 
L 176.955341 226.740927 
L 177.205942 228.253255 
L 177.331243 231.875974 
L 177.456544 231.183159 
L 177.581845 237.821714 
L 177.707146 237.897708 
L 177.832447 246.700652 
L 177.957747 240.855149 
L 178.083048 246.557455 
L 178.33365 240.163424 
L 178.458951 237.334859 
L 178.584252 238.62688 
L 178.709553 238.502414 
L 178.960154 246.252346 
L 179.085455 246.220413 
L 179.336057 240.296711 
L 179.461358 242.315698 
L 179.586659 240.38482 
L 179.71196 236.719142 
L 179.83726 236.406315 
L 179.962561 235.748742 
L 180.087862 237.342564 
L 180.338464 241.177334 
L 180.463765 241.658124 
L 180.589066 237.981421 
L 180.714367 239.382486 
L 180.839667 242.870843 
L 181.090269 240.817703 
L 181.466172 236.065965 
L 181.716773 237.599215 
L 181.967375 245.588157 
L 182.092676 244.831449 
L 182.343278 240.541233 
L 182.468579 243.22 
L 182.59388 242.191231 
L 182.844481 248.928921 
L 183.220384 241.687866 
L 183.345685 242.735364 
L 183.470986 238.392267 
L 183.596286 238.320669 
L 183.721587 237.030853 
L 183.846888 237.426277 
L 183.972189 235.122013 
L 184.09749 237.734693 
L 184.222791 235.03389 
L 184.348092 236.741166 
L 184.473393 236.134256 
L 184.723994 231.860565 
L 184.849295 234.629646 
L 184.974596 233.203249 
L 185.099897 228.512097 
L 185.225198 228.457024 
L 185.475799 235.81593 
L 185.726401 231.093934 
L 185.851702 231.966302 
L 186.102304 229.467062 
L 186.227605 234.624146 
L 186.352906 233.457695 
L 186.478206 230.796543 
L 186.603507 232.126009 
L 186.728808 231.461821 
L 186.97941 236.052748 
L 187.104711 236.105617 
L 187.480613 242.038126 
L 187.731215 242.381783 
L 187.856516 238.650007 
L 187.981817 238.359231 
L 188.107118 232.656925 
L 188.357719 232.952111 
L 188.48302 231.542239 
L 188.733622 231.109356 
L 188.858923 234.045875 
L 188.984224 231.750418 
L 189.360126 236.527488 
L 189.610728 235.663927 
L 189.736029 237.240135 
L 189.86133 233.280347 
L 189.986631 233.0138 
L 190.237232 230.633527 
L 190.487834 230.622502 
L 190.613135 232.361725 
L 190.738436 230.88796 
L 190.863737 231.48496 
L 191.114338 229.341493 
L 191.239639 229.315059 
L 191.36494 228.900906 
L 191.490241 229.258883 
L 191.615542 228.94057 
L 191.740843 227.687098 
L 191.866144 227.643037 
L 191.991445 227.310391 
L 192.116745 228.016436 
L 192.367347 227.511955 
L 192.617949 225.217601 
L 192.868551 225.05238 
L 192.993851 225.201076 
L 193.119152 223.945399 
L 193.369754 225.016037 
L 193.620356 225.447804 
L 193.996258 221.869133 
L 194.121559 221.931924 
L 194.497462 221.092605 
L 194.622763 222.118066 
L 194.748064 221.112424 
L 194.873364 221.252313 
L 194.998665 222.053083 
L 195.249267 220.070439 
L 195.499869 219.962497 
L 195.62517 220.463658 
L 195.875771 219.573676 
L 196.001072 219.369907 
L 196.126373 218.864323 
L 196.251674 219.580278 
L 196.376975 218.653952 
L 196.627577 219.728987 
L 196.752877 222.038763 
L 197.12878 219.008622 
L 197.254081 218.984393 
L 197.379382 216.246143 
L 197.504683 216.43008 
L 197.755284 215.340725 
L 197.880585 214.726111 
L 198.131187 215.481717 
L 198.256488 216.5953 
L 198.381789 216.118369 
L 198.50709 213.981517 
L 198.882992 215.438758 
L 199.008293 214.867102 
L 199.133594 213.702842 
L 199.258895 214.326277 
L 199.384196 215.9146 
L 199.509497 216.011529 
L 199.760098 217.760662 
L 199.885399 220.361229 
L 200.136001 217.169174 
L 200.261302 219.07581 
L 200.386603 219.151818 
L 200.511903 216.815594 
L 201.013107 219.441505 
L 201.138408 218.887463 
L 201.38901 215.802248 
L 201.51431 215.429951 
L 201.639611 216.030246 
L 201.764912 215.158994 
L 201.890213 215.545597 
L 202.015514 216.728587 
L 202.140815 219.203584 
L 202.266116 219.150715 
L 202.516717 220.802919 
L 202.642018 220.427314 
L 202.767319 220.933987 
L 203.017921 223.437623 
L 203.143222 224.083082 
L 203.393823 227.341236 
L 203.519124 225.053483 
L 203.644425 224.982987 
L 203.895027 224.536887 
L 204.020328 224.851919 
L 204.270929 223.243764 
L 204.646832 229.233551 
L 204.772133 229.218129 
L 204.897434 228.41186 
L 205.022735 225.148207 
L 205.148036 225.16363 
L 205.273336 223.988358 
L 205.398637 225.831113 
L 205.523938 224.151373 
L 205.649239 225.175744 
L 205.899841 222.096042 
L 206.025142 221.88235 
L 206.150442 220.428417 
L 206.275743 220.680657 
L 206.401044 224.004882 
L 206.526345 222.957384 
L 206.651646 225.303518 
L 206.902248 223.306555 
L 207.027549 223.616061 
L 207.152849 219.967997 
L 207.27815 219.599007 
L 207.403451 218.661656 
L 207.654053 219.371009 
L 207.904655 221.036429 
L 208.029955 222.246943 
L 208.155256 222.249148 
L 208.280557 222.986024 
L 208.405858 220.560587 
L 208.531159 220.90645 
L 208.907062 218.387392 
L 209.282964 222.594997 
L 209.408265 222.641263 
L 209.658867 217.345407 
L 209.784168 217.419196 
L 210.16007 219.655183 
L 210.410672 216.435592 
L 210.661274 215.55552 
L 210.786575 215.491626 
L 210.911875 215.153481 
L 211.162477 215.367159 
L 211.287778 215.190927 
L 211.53838 213.799772 
L 211.663681 213.803079 
L 211.788981 214.349403 
L 211.914282 214.314162 
L 212.039583 215.570942 
L 212.164884 214.574107 
L 212.415486 214.775671 
L 212.540787 214.644603 
L 212.666088 215.857321 
L 212.791388 215.075281 
L 213.167291 215.421144 
L 213.417893 211.623268 
L 213.543194 212.596976 
L 213.793795 211.773066 
L 214.044397 208.55568 
L 214.294999 209.266136 
L 214.4203 209.07557 
L 214.670901 209.174705 
L 214.796202 209.533785 
L 215.046804 212.129955 
L 215.172105 210.606615 
L 215.297406 211.320364 
L 215.673308 210.183654 
L 215.798609 209.037022 
L 215.92391 209.088788 
L 216.049211 209.645035 
L 216.299813 212.213654 
L 216.425114 212.182823 
L 216.550414 212.650947 
L 216.926317 209.090993 
L 217.051618 209.484224 
L 217.176919 212.144274 
L 217.30222 212.074881 
L 217.552821 214.836257 
L 217.678122 214.371441 
L 217.928724 214.476815 
L 218.179326 214.460653 
L 218.304627 212.761094 
L 218.429927 214.235962 
L 218.555228 213.898906 
L 218.680529 212.672971 
L 218.931131 218.277245 
L 219.181733 217.999673 
L 219.307033 218.60548 
L 219.557635 220.940602 
L 219.682936 220.219135 
L 219.808237 217.244067 
L 219.933538 217.142727 
L 220.058839 216.788057 
L 220.30944 214.792196 
L 220.434741 215.107214 
L 220.560042 215.916805 
L 220.810644 214.043205 
L 220.935945 214.01786 
L 221.186546 215.023502 
L 221.311847 214.777876 
L 221.562449 213.809694 
L 221.68775 213.756813 
L 221.813051 212.733557 
L 221.938352 212.663062 
L 222.188953 214.304253 
L 222.439555 210.646266 
L 222.564856 211.855677 
L 222.690157 210.987732 
L 222.940759 212.863523 
L 223.316661 213.806387 
L 223.441962 215.53238 
L 223.817865 208.92467 
L 223.943166 209.260623 
L 224.068466 208.478583 
L 224.319068 209.505146 
L 224.444369 209.078878 
L 224.56967 207.85625 
L 224.694971 207.863955 
L 224.820272 208.014855 
L 225.070873 207.800074 
L 225.321475 206.329616 
L 225.697378 205.357011 
L 225.822679 205.355922 
L 225.947979 204.459325 
L 226.07328 204.765523 
L 226.198581 203.921807 
L 226.449183 204.993534 
L 226.574484 203.334716 
L 226.699785 205.257889 
L 226.825085 203.541792 
L 226.950386 203.450375 
L 227.075687 203.751074 
L 227.200988 202.810416 
L 227.326289 202.911756 
L 227.576891 202.546074 
L 227.702192 202.430414 
L 227.827492 202.605544 
L 228.078094 201.377417 
L 228.328696 204.518795 
L 228.453997 203.067066 
L 228.579298 206.123642 
L 228.704598 205.122411 
L 228.829899 203.024108 
L 228.9552 203.168393 
L 229.080501 202.780687 
L 229.205802 202.009659 
L 229.456404 200.21867 
L 229.581705 199.910253 
L 229.832306 198.592901 
L 229.957607 199.004849 
L 230.082908 198.780145 
L 230.208209 197.82077 
L 230.33351 198.099445 
L 230.584111 199.460859 
L 230.709412 198.318636 
L 230.834713 199.740623 
L 230.960014 198.519098 
L 231.085315 199.091869 
L 231.210616 197.761287 
L 231.335917 197.862627 
L 231.461218 197.164299 
L 231.711819 197.937519 
L 231.83712 197.047537 
L 231.962421 198.871576 
L 232.087722 198.178748 
L 232.213023 198.916726 
L 232.714226 194.500942 
L 232.839527 194.998808 
L 232.964828 199.018066 
L 233.090129 196.571708 
L 233.340731 200.202145 
L 233.716633 196.107981 
L 233.841934 196.106878 
L 233.967235 195.405243 
L 234.092536 195.726877 
L 234.343137 194.03833 
L 234.468438 195.676214 
L 234.844341 191.843097 
L 235.094943 190.169972 
L 235.220244 190.833045 
L 235.345544 190.058723 
L 235.470845 190.051005 
L 235.721447 187.296231 
L 235.846748 188.211558 
L 235.972049 186.339061 
L 236.09735 186.469027 
L 236.22265 186.152906 
L 236.473252 188.207148 
L 236.598553 188.307385 
L 236.849155 187.15524 
L 236.974456 188.443966 
L 237.099756 187.777572 
L 237.225057 190.384753 
L 237.350358 189.318526 
L 237.475659 190.314258 
L 237.60096 192.790357 
L 237.851562 188.992495 
L 237.976863 189.055273 
L 238.227464 192.391626 
L 238.352765 189.765729 
L 238.478066 190.826444 
L 238.728668 188.063951 
L 239.229871 196.734724 
L 239.605774 192.316734 
L 239.731075 193.078942 
L 239.856376 192.122874 
L 239.981676 192.219804 
L 240.106977 192.0733 
L 240.733482 187.974739 
L 240.984083 184.937996 
L 241.109384 184.68355 
L 241.234685 185.370865 
L 241.735889 183.248333 
L 241.861189 183.594196 
L 241.98649 184.304651 
L 242.237092 183.675703 
L 242.362393 184.371839 
L 242.612995 184.327778 
L 242.863596 181.690855 
L 242.988897 181.969529 
L 243.239499 183.757211 
L 243.3648 183.033552 
L 243.615402 183.91583 
L 243.740702 183.399234 
L 243.866003 184.365224 
L 244.116605 187.621172 
L 244.241906 188.697296 
L 244.367207 188.004481 
L 244.492508 189.056376 
L 244.743109 186.776341 
L 244.86841 187.516524 
L 244.993711 190.413393 
L 245.244313 189.566356 
L 245.369614 190.139128 
L 245.620215 189.390124 
L 245.870817 187.703782 
L 245.996118 187.693859 
L 246.24672 184.519432 
L 246.372021 183.953276 
L 246.497321 184.58221 
L 246.622622 184.078845 
L 246.873224 182.23168 
L 246.998525 179.945029 
L 247.123826 180.295302 
L 247.374428 182.553313 
L 247.625029 183.552339 
L 247.75033 182.90247 
L 248.000932 184.788184 
L 248.126233 183.306714 
L 248.251534 183.431181 
L 248.376834 185.10651 
L 248.502135 183.802375 
L 248.752737 187.663028 
L 248.878038 187.558381 
L 249.12864 182.403515 
L 249.253941 181.639089 
L 249.379241 182.969658 
L 249.629843 179.104608 
L 249.755144 177.854444 
L 249.880445 177.836816 
L 250.005746 176.734245 
L 250.131047 177.647367 
L 250.63225 174.830917 
L 250.882852 176.528271 
L 251.133454 175.273697 
L 251.258754 175.820034 
L 251.384055 174.991727 
L 251.509356 177.562552 
L 251.634657 174.97851 
L 251.759958 174.837519 
L 251.885259 175.300144 
L 252.261161 171.941753 
L 252.637064 173.793329 
L 252.887666 171.216992 
L 253.012967 171.46813 
L 253.138267 171.438388 
L 253.263568 170.944932 
L 253.51417 171.101332 
L 254.015373 173.390188 
L 254.265975 170.819363 
L 254.391276 171.452708 
L 254.641878 174.439891 
L 254.767179 174.459723 
L 254.89248 173.223865 
L 255.01778 173.834083 
L 255.143081 170.568225 
L 255.268382 170.683885 
L 255.769586 167.592068 
L 255.894886 167.112918 
L 256.145488 167.217566 
L 256.270789 166.414591 
L 256.521391 168.218797 
L 256.646692 168.285985 
L 256.771993 168.792658 
L 256.897293 167.568928 
L 257.147895 167.541391 
L 257.273196 167.074369 
L 257.398497 169.626477 
L 257.649099 166.412386 
L 257.774399 166.68665 
L 257.8997 167.478613 
L 258.275603 166.800105 
L 258.400904 168.606516 
L 258.651506 173.772394 
L 258.776806 172.567394 
L 258.902107 174.583087 
L 259.027408 172.381252 
L 259.152709 173.658953 
L 259.27801 178.141925 
L 259.403311 176.675878 
L 259.528612 177.067993 
L 260.029815 169.565891 
L 260.155116 169.619862 
L 260.405718 167.486318 
L 260.656319 167.251704 
L 260.78162 168.574569 
L 260.906921 167.359646 
L 261.032222 167.748468 
L 261.157523 166.497201 
L 261.282824 166.771466 
L 261.408125 166.767055 
L 261.658726 165.193066 
L 261.784027 166.704278 
L 261.909328 163.600333 
L 262.034629 163.611345 
L 262.285231 163.145426 
L 262.410532 163.241253 
L 262.535832 164.292058 
L 262.661133 164.229281 
L 262.911735 167.210951 
L 263.162337 163.78318 
L 263.287638 165.047664 
L 263.412938 163.809614 
L 263.66354 165.414462 
L 263.788841 164.513455 
L 264.039443 166.339685 
L 264.290045 163.773271 
L 264.540646 161.728938 
L 264.665947 161.963552 
L 264.916549 166.780272 
L 265.04185 166.018065 
L 265.167151 163.790885 
L 265.417752 170.013094 
L 265.918956 164.59827 
L 266.169558 163.822832 
L 266.294858 162.979103 
L 266.420159 163.437317 
L 266.54546 163.082648 
L 266.670761 164.757977 
L 267.046664 162.494467 
L 267.171964 162.524196 
L 267.297265 162.803973 
L 267.422566 162.416254 
L 267.547867 164.282149 
L 267.673168 163.126709 
L 267.798469 163.410883 
L 267.92377 163.096967 
L 268.049071 161.095594 
L 268.174371 161.007484 
L 268.299672 161.989986 
L 268.424973 163.937389 
L 268.675575 162.370001 
L 268.800876 163.7193 
L 269.051477 161.553809 
L 269.42738 159.414751 
L 269.552681 159.649365 
L 269.803283 158.130449 
L 269.928584 157.97624 
L 270.053884 158.056645 
L 270.179185 157.655709 
L 270.429787 155.280949 
L 270.555088 155.079372 
L 270.680389 155.13224 
L 270.80569 155.892256 
L 270.93099 157.410084 
L 271.181592 156.565252 
L 271.306893 156.101538 
L 271.557495 154.17507 
L 271.682796 153.801671 
L 271.808097 153.83031 
L 271.933397 155.221466 
L 272.058698 154.169558 
L 272.183999 154.424003 
L 272.3093 154.012055 
L 272.434601 154.09246 
L 272.559902 152.650641 
L 272.685203 152.507445 
L 272.810503 151.315662 
L 273.061105 152.173697 
L 273.186406 153.709151 
L 273.311707 152.704612 
L 273.437008 153.602299 
L 273.562309 153.283986 
L 273.68761 152.234283 
L 273.81291 152.655038 
L 273.938211 151.74193 
L 274.063512 154.324869 
L 274.188813 152.110919 
L 274.314114 152.616489 
L 274.564716 151.142724 
L 274.690016 151.035884 
L 274.815317 152.097702 
L 274.940618 152.034911 
L 275.065919 153.021836 
L 275.19122 153.008619 
L 275.441822 157.956408 
L 275.567123 156.431979 
L 275.692423 158.50054 
L 275.817724 158.497233 
L 275.943025 159.672505 
L 276.193627 156.659977 
L 276.318928 157.009147 
L 276.569529 154.648694 
L 276.69483 154.661911 
L 276.945432 151.738622 
L 277.196034 150.552338 
L 277.321335 150.989618 
L 277.571936 149.709712 
L 277.697237 149.6987 
L 277.822538 150.070997 
L 277.947839 149.340722 
L 278.323742 149.632614 
L 278.449042 149.970759 
L 278.574343 148.862689 
L 278.699644 149.542286 
L 278.824945 150.985221 
L 279.075547 149.992797 
L 279.326149 151.459947 
L 279.57675 149.538992 
L 279.702051 148.46065 
L 279.827352 148.566387 
L 280.077954 151.609745 
L 280.203255 149.899161 
L 280.328555 153.458013 
L 280.453856 151.600938 
L 280.704458 152.764082 
L 280.829759 155.642221 
L 280.95506 155.641118 
L 281.080361 153.247629 
L 281.205662 153.58689 
L 281.330962 156.860452 
L 281.456263 153.138585 
L 281.832166 163.508916 
L 281.957467 163.182885 
L 282.082768 164.858215 
L 282.208068 164.828473 
L 282.583971 156.179738 
L 282.709272 157.740524 
L 282.959874 153.613324 
L 283.085175 153.938252 
L 283.210475 151.358607 
L 283.335776 151.661511 
L 283.461077 150.3012 
L 283.586378 147.72376 
L 283.711679 147.750195 
L 283.83698 148.379142 
L 284.087581 146.274237 
L 284.212882 146.196024 
L 284.463484 145.341283 
L 284.588785 145.498799 
L 284.964688 145.160654 
L 285.089988 144.006303 
L 285.215289 144.345564 
L 285.34059 143.901669 
L 285.591192 142.066632 
L 285.716493 142.328768 
L 285.841794 141.689911 
L 286.092395 142.270387 
L 286.217696 143.825674 
L 286.468298 141.524691 
L 286.593599 141.790162 
L 286.7189 141.410134 
L 286.844201 143.068952 
L 286.969501 143.122923 
L 287.094802 146.832676 
L 287.220103 145.820433 
L 287.470705 150.854139 
L 287.596006 152.714522 
L 287.971908 141.930051 
L 288.22251 140.661157 
L 288.347811 140.693104 
L 288.723714 139.735907 
L 288.849014 140.861605 
L 288.974315 143.224277 
L 289.224917 143.301374 
L 289.475519 149.424435 
L 289.72612 142.867402 
L 290.102023 147.175231 
L 290.352625 150.519289 
L 290.477926 147.57286 
L 290.728527 147.228099 
L 290.853828 146.174 
L 290.979129 142.756152 
L 291.10443 144.004098 
L 291.229731 143.423622 
L 291.480333 149.473996 
L 291.605633 147.371296 
L 291.730934 150.263754 
L 291.981536 144.201265 
L 292.106837 145.139719 
L 292.232138 142.825532 
L 292.48274 144.563653 
L 292.60804 142.156933 
L 292.733341 142.163548 
L 292.983943 139.028772 
L 293.234545 138.65977 
L 293.359846 138.732484 
L 293.485146 138.978109 
L 293.610447 137.562711 
L 293.735748 137.63322 
L 293.861049 136.992158 
L 294.111651 137.514253 
L 294.236952 138.201568 
L 294.362253 136.781787 
L 294.612854 138.859142 
L 294.738155 138.582672 
L 294.863456 141.862849 
L 294.988757 140.962958 
L 295.114058 144.847827 
L 295.239359 145.279608 
L 295.364659 142.447736 
L 295.48996 143.830084 
L 295.615261 140.769098 
L 295.740562 141.530204 
L 295.865863 138.752303 
L 295.991164 139.879103 
L 296.116465 137.805029 
L 296.241766 138.210389 
L 296.367066 139.633478 
L 296.617668 143.52718 
L 296.742969 142.990752 
L 296.86827 140.212851 
L 297.118872 143.137256 
L 297.494774 140.831863 
L 297.620075 141.304397 
L 297.870677 139.668732 
L 297.995978 138.47032 
L 298.121279 139.531049 
L 298.246579 139.155431 
L 298.37188 137.966968 
L 298.497181 138.147597 
L 298.622482 140.770201 
L 298.747783 138.653181 
L 298.873084 138.995723 
L 299.123685 137.273038 
L 299.248986 136.748737 
L 299.374287 137.714728 
L 299.499588 137.07146 
L 299.624889 137.942712 
L 299.75019 140.293256 
L 300.000792 137.101202 
L 300.251393 140.883655 
L 300.376694 140.018992 
L 300.501995 136.923854 
L 300.752597 138.794146 
L 300.877898 138.864655 
L 301.003198 136.373119 
L 301.128499 136.193593 
L 301.2538 135.480946 
L 301.504402 135.849922 
L 301.629703 135.302495 
L 301.755004 135.826795 
L 302.005605 138.234618 
L 302.130906 136.110983 
L 302.256207 136.407271 
L 302.381508 137.883256 
L 302.506809 137.405208 
L 302.63211 137.639808 
L 302.757411 137.147455 
L 303.008012 139.486974 
L 303.133313 140.979469 
L 303.258614 140.883655 
L 303.509216 137.721316 
L 303.759818 140.412224 
L 304.13572 136.357711 
L 304.261021 137.596863 
L 304.386322 136.180362 
L 304.511623 136.03168 
L 304.762224 138.442783 
L 304.887525 138.533111 
L 305.012826 143.363063 
L 305.138127 142.760536 
L 305.263428 141.184354 
L 305.388729 141.254836 
L 305.639331 142.138217 
L 305.764631 140.75256 
L 305.889932 144.570255 
L 306.015233 144.060274 
L 306.391136 137.71142 
L 306.516437 137.882153 
L 306.767038 135.762928 
L 306.892339 135.582272 
L 307.268242 138.460424 
L 307.518844 142.261594 
L 307.769445 137.753263 
L 307.894746 137.746675 
L 308.270649 139.433003 
L 308.39595 138.714843 
L 308.646551 141.167816 
L 308.771852 138.236823 
L 308.897153 140.451861 
L 309.022454 140.233773 
L 309.147755 140.526781 
L 309.398357 138.428477 
L 309.523657 139.03649 
L 309.648958 140.943112 
L 309.89956 152.918291 
L 310.150162 164.294263 
L 310.400763 151.071126 
L 310.526064 150.937852 
L 310.651365 152.776197 
L 310.776666 159.201073 
L 310.901967 155.34483 
L 311.027268 155.094794 
L 311.152569 158.389291 
L 311.40317 153.081306 
L 311.528471 156.096025 
L 311.779073 154.002132 
L 311.904374 154.885512 
L 312.154976 150.228499 
L 312.280276 150.791362 
L 312.405577 154.334778 
L 312.530878 153.350071 
L 312.78148 156.45731 
L 313.032082 157.274605 
L 313.157383 162.73458 
L 313.282683 162.479045 
L 313.407984 158.520359 
L 313.533285 158.102912 
L 313.783887 151.138314 
L 313.909188 151.923661 
L 314.28509 148.071828 
L 314.410391 147.788757 
L 314.660993 150.346364 
L 314.911595 146.064955 
L 315.036896 146.004369 
L 315.162196 146.322695 
L 315.287497 147.625741 
L 315.538099 141.43439 
L 315.788701 142.454351 
L 315.914002 139.760136 
L 316.039302 139.863694 
L 316.164603 140.970649 
L 316.415205 137.618887 
L 316.665807 138.704947 
L 316.791108 138.785352 
L 316.916409 141.056567 
L 317.041709 140.710717 
L 317.16701 141.450901 
L 317.417612 147.174129 
L 317.542913 143.853211 
L 317.668214 144.156115 
L 317.793515 140.505832 
L 317.918815 140.763586 
L 318.044116 139.890128 
L 318.169417 140.174289 
L 318.294718 139.893436 
L 318.54532 139.854847 
L 318.670621 139.78657 
L 318.795922 140.855016 
L 318.921222 138.407556 
L 319.171824 144.246416 
L 319.297125 139.612556 
L 319.673028 144.466723 
L 319.798328 143.958948 
L 319.923629 148.349401 
L 320.04893 147.295301 
L 320.299532 141.663477 
L 320.550134 149.100596 
L 320.926036 142.63057 
L 321.051337 142.99406 
L 321.301939 143.488618 
L 321.42724 141.080796 
L 321.928443 148.317454 
L 322.053744 147.871367 
L 322.429647 158.300066 
L 322.554948 158.119423 
L 322.680248 156.466117 
L 322.805549 161.797229 
L 322.93085 158.321 
L 323.056151 162.893198 
L 323.306753 162.783051 
L 323.432054 165.206283 
L 323.557354 164.14226 
L 323.682655 159.966588 
L 323.807956 163.251176 
L 323.933257 160.326771 
L 324.058558 162.604614 
L 324.183859 161.457981 
L 324.30916 156.294295 
L 324.434461 156.38902 
L 324.559761 160.392856 
L 324.810363 159.024841 
L 325.060965 165.855049 
L 325.311567 166.029077 
L 325.436867 168.538226 
L 325.687469 162.909723 
L 325.81277 161.213458 
L 325.938071 157.772471 
L 326.063372 158.762691 
L 326.188673 158.76819 
L 326.313974 155.714922 
L 326.439274 158.383778 
L 326.564575 157.444222 
L 326.689876 155.032016 
L 326.815177 155.434042 
L 326.940478 157.176573 
L 327.19108 151.204412 
L 327.566982 149.518057 
L 327.692283 151.996362 
L 327.817584 150.894893 
L 327.942885 150.860755 
L 328.068186 147.267764 
L 328.318787 147.957271 
L 328.819991 144.028327 
L 328.945292 144.226597 
L 329.070593 145.668429 
L 329.195893 145.753245 
L 329.446495 145.63097 
L 329.697097 142.668029 
L 329.822398 143.131744 
L 329.947699 141.695424 
L 330.073 142.427917 
L 330.1983 144.736578 
L 330.323601 142.369536 
L 330.448902 145.095657 
L 330.574203 144.468928 
L 330.699504 145.086851 
L 330.950106 140.63362 
L 331.075406 140.593955 
L 331.200707 140.819762 
L 331.451309 138.609106 
L 331.57661 138.432887 
L 331.701911 139.635683 
L 331.827212 139.624657 
L 331.952513 140.042118 
L 332.203114 139.231452 
L 332.453716 142.51932 
L 332.579017 140.742664 
L 332.829619 144.081196 
L 332.954919 144.135193 
L 333.205521 143.247403 
L 333.330822 140.416634 
L 333.456123 142.611853 
L 333.581424 142.650389 
L 333.706725 144.577973 
L 333.832026 142.369536 
L 333.957326 144.511887 
L 334.082627 144.465621 
L 334.207928 145.301632 
L 334.333229 143.949025 
L 334.45853 144.420457 
L 334.709132 139.739214 
L 334.834432 139.787673 
L 334.959733 138.800761 
L 335.210335 139.03208 
L 335.335636 138.771019 
L 335.460937 138.117856 
L 335.586238 138.79307 
L 335.836839 137.361161 
L 335.96214 136.591208 
L 336.087441 136.992158 
L 336.338043 141.003698 
L 336.588645 141.836415 
L 336.713945 141.121563 
L 336.839246 141.86726 
L 337.089848 139.91987 
L 337.215149 140.299872 
L 337.34045 137.230065 
L 337.591052 149.652433 
L 337.966954 138.822785 
L 338.092255 138.372301 
L 338.342857 139.958406 
L 338.468158 138.726971 
L 338.593458 138.928548 
L 338.84406 134.604181 
L 338.969361 132.954183 
L 339.094662 132.922236 
L 339.219963 131.675366 
L 339.345264 131.896762 
L 339.470565 131.329516 
L 339.595865 131.672058 
L 339.721166 130.654302 
L 339.846467 131.518966 
L 339.971768 130.432906 
L 340.097069 131.154373 
L 340.22237 131.077276 
L 340.347671 131.363642 
L 340.598272 130.590408 
L 340.723573 130.894415 
L 340.848874 132.41555 
L 340.974175 131.670956 
L 341.099476 131.620292 
L 341.224777 129.569345 
L 341.350078 129.78746 
L 341.475378 129.693825 
L 341.600679 130.382243 
L 341.72598 129.247724 
L 341.851281 129.439379 
L 341.976582 128.767499 
L 342.101883 130.089262 
L 342.352484 129.112246 
L 342.603086 129.594703 
L 342.728387 129.125476 
L 342.978989 130.714888 
L 343.10429 131.092685 
L 343.229591 129.843636 
L 343.605493 130.89221 
L 343.856095 129.529707 
L 343.981396 129.171729 
L 344.106697 129.206984 
L 344.231997 129.742283 
L 344.357298 135.634038 
L 344.482599 132.194153 
L 344.6079 135.721058 
L 344.733201 135.858742 
L 344.858502 133.491687 
L 344.983803 134.383887 
L 345.234404 134.317788 
L 345.485006 130.196101 
L 345.735608 133.619447 
L 345.98621 130.836034 
L 346.11151 133.065432 
L 346.236811 131.1775 
L 346.487413 133.135914 
L 346.738015 132.003601 
L 346.863316 132.777937 
L 346.988617 131.685289 
L 347.113917 134.651537 
L 347.239218 134.381682 
L 347.364519 135.111943 
L 347.48982 135.064587 
L 347.615121 135.778337 
L 347.865723 133.81882 
L 348.116324 134.163593 
L 348.241625 133.043381 
L 348.617528 135.057972 
L 348.742829 135.78826 
L 348.86813 135.816899 
L 349.244032 139.946304 
L 349.369333 140.329613 
L 349.619935 134.339812 
L 349.870536 131.26452 
L 350.121138 131.625805 
L 350.246439 129.842534 
L 350.37174 130.222535 
L 350.497041 129.10122 
L 350.622342 129.676211 
L 350.872943 127.358716 
L 350.998244 127.162652 
L 351.248846 126.21207 
L 351.374147 127.493092 
L 351.499448 127.169267 
L 351.750049 128.665043 
L 351.87535 128.569229 
L 352.501855 121.125495 
L 352.627156 121.40858 
L 352.752456 119.782811 
L 352.877757 121.813913 
L 353.003058 120.850128 
L 353.128359 121.286305 
L 353.378961 119.888548 
L 353.629562 120.967992 
L 354.005465 120.095638 
L 354.130766 122.184018 
L 354.256067 122.256705 
L 354.381368 123.40553 
L 354.75727 119.88965 
L 354.882571 120.082407 
L 355.007872 119.203437 
L 355.133173 120.093433 
L 355.258474 120.093433 
L 355.383775 119.386271 
L 355.509075 119.923802 
L 355.634376 119.461191 
L 355.884978 120.204682 
L 356.010279 119.764094 
L 356.13558 120.667293 
L 356.260881 119.827961 
L 356.386182 120.500971 
L 356.636783 116.84738 
L 356.762084 117.033549 
L 356.887385 117.25274 
L 357.137987 118.995245 
L 357.388588 118.777156 
L 357.513889 116.952041 
L 357.63919 117.48734 
L 357.889792 117.254945 
L 358.516296 111.24312 
L 358.641597 111.466722 
L 358.892199 110.249593 
L 359.0175 109.466464 
L 359.142801 109.74842 
L 359.268101 109.639375 
L 359.518703 108.985109 
L 359.644004 109.658119 
L 359.769305 106.098164 
L 359.894606 107.64463 
L 360.019907 107.512433 
L 360.395809 109.730806 
L 360.52111 109.522613 
L 360.771712 108.575366 
L 360.897013 109.458746 
L 361.022314 107.27673 
L 361.398216 108.575366 
L 361.523517 111.819186 
L 361.648818 111.331243 
L 362.024721 112.086836 
L 362.275322 109.934588 
L 362.400623 109.171251 
L 362.651225 110.186802 
L 362.776526 110.041428 
L 362.901827 110.835582 
L 363.027127 110.335511 
L 363.152428 110.550292 
L 363.277729 110.371868 
L 363.40303 110.744152 
L 363.653632 113.479107 
L 363.904234 111.269554 
L 364.154835 112.463556 
L 364.280136 110.517243 
L 364.405437 111.304809 
L 364.656039 106.907727 
L 364.78134 107.035515 
L 364.90664 106.890114 
L 365.031941 107.393492 
L 365.282543 106.625772 
L 365.407844 106.960623 
L 365.533145 106.807503 
L 365.658446 105.731366 
L 365.783747 105.72147 
L 365.909047 105.992427 
L 366.034348 105.693934 
L 366.28495 106.655514 
L 366.410251 105.397618 
L 366.535552 105.579377 
L 366.660853 110.386174 
L 366.911454 107.665552 
L 367.162056 105.827207 
L 367.537959 103.910635 
L 367.913861 104.353428 
L 368.164463 101.34972 
L 368.289764 101.676853 
L 368.415065 102.42255 
L 368.665666 101.931299 
L 368.916268 102.415961 
L 369.041569 101.208729 
L 369.16687 101.476405 
L 369.292171 102.077803 
L 369.417472 102.001808 
L 369.542773 99.764719 
L 369.668073 101.574424 
L 369.918675 101.853099 
L 370.169277 101.34972 
L 370.294578 103.518533 
L 370.419879 101.171296 
L 370.545179 103.483278 
L 371.046383 102.068983 
L 371.171684 104.579234 
L 371.422286 102.631845 
L 371.547586 102.841113 
L 371.798188 100.384833 
L 371.923489 99.124759 
L 372.04879 99.139092 
L 372.174091 98.977152 
L 372.299392 97.521014 
L 372.549993 97.663108 
L 372.675294 97.952808 
L 372.800595 97.157551 
L 372.925896 97.080426 
L 373.301799 97.909836 
L 373.5524 97.109066 
L 373.677701 97.704977 
L 373.928303 96.741192 
L 374.178905 97.500092 
L 374.304205 101.444458 
L 374.429506 101.10189 
L 374.554807 98.401086 
L 374.680108 98.536565 
L 374.805409 98.151051 
L 375.056011 102.838908 
L 375.181312 102.528287 
L 375.306612 99.869353 
L 375.557214 101.360746 
L 375.807816 100.78027 
L 375.933117 100.553361 
L 376.309019 97.221418 
L 376.559621 99.281159 
L 376.684922 98.434136 
L 376.810223 98.482594 
L 376.935524 98.886851 
L 377.186125 95.026198 
L 377.311426 94.818005 
L 377.436727 95.120909 
L 377.81263 93.906013 
L 377.937931 93.730869 
L 378.063231 94.57238 
L 378.188532 94.393956 
L 378.313833 95.006379 
L 378.439134 94.986533 
L 378.940338 91.430989 
L 379.190939 90.481537 
L 379.31624 88.903123 
L 379.566842 89.711611 
L 379.817444 88.553966 
L 379.942744 89.028706 
L 380.068045 88.781978 
L 380.318647 88.100148 
L 380.569249 87.798347 
L 380.69455 86.354336 
L 380.819851 87.481137 
L 380.945151 87.024038 
L 381.070452 88.343595 
L 381.195753 87.985618 
L 381.321054 85.708864 
L 381.446355 86.616473 
L 381.822257 85.84324 
L 382.072859 84.600807 
L 382.19816 84.654778 
L 382.323461 84.242829 
L 382.574063 85.573385 
L 382.699364 85.293608 
L 382.824664 85.951182 
L 382.949965 87.520775 
L 383.075266 85.205512 
L 383.200567 85.953387 
L 383.325868 85.591026 
L 383.451169 83.73063 
L 383.57647 83.945411 
L 383.827071 83.357244 
L 383.952372 83.467391 
L 384.077673 80.645415 
L 384.202974 80.752254 
L 384.328275 78.382994 
L 384.829478 80.39979 
L 385.08008 77.951227 
L 385.330682 76.562263 
L 385.455983 76.701049 
L 385.581283 77.895051 
L 385.831885 73.692958 
L 386.082487 74.894651 
L 386.207788 74.308662 
L 386.58369 74.756968 
L 386.708991 74.523443 
L 386.834292 73.981529 
L 386.959593 75.515868 
L 387.460796 69.966681 
L 387.711398 67.354 
L 387.836699 66.959666 
L 387.962 67.296722 
L 388.212602 63.110038 
L 388.463203 64.191688 
L 388.588504 61.312433 
L 388.713805 61.811402 
L 389.089708 57.284381 
L 389.215009 57.459498 
L 389.340309 57.271151 
L 389.46561 53.568 
L 389.716212 59.123829 
L 389.841513 58.971812 
L 389.966814 59.17339 
L 390.092115 65.765691 
L 390.217416 78.233209 
L 390.342716 73.144429 
L 390.468017 74.629207 
L 390.593318 85.716582 
L 390.969221 76.691153 
L 391.219822 69.172526 
L 391.345123 69.060174 
L 391.721026 72.462599 
L 391.846327 72.172926 
L 392.096929 63.841401 
L 392.472831 75.068692 
L 392.598132 73.572889 
L 392.848734 69.51176 
L 392.974035 69.657162 
L 393.099335 68.316683 
L 393.224636 63.073681 
L 393.349937 63.464708 
L 393.600539 67.159038 
L 393.72584 67.395843 
L 393.851141 66.880363 
L 393.976442 71.186014 
L 394.101742 70.743222 
L 394.227043 71.295059 
L 394.477645 84.916914 
L 394.602946 77.174686 
L 394.853548 83.073057 
L 394.978848 79.122075 
L 395.22945 85.619665 
L 395.605353 76.702152 
L 395.730654 83.131438 
L 395.855955 82.174268 
L 395.981255 77.359725 
L 396.106556 78.976701 
L 396.231857 76.575494 
L 396.357158 77.422517 
L 396.733061 71.657446 
L 397.234264 79.817109 
L 397.359565 79.284015 
L 397.484866 76.250566 
L 397.610167 75.923433 
L 397.735468 78.331228 
L 397.860768 77.587737 
L 398.11137 80.349127 
L 398.361972 75.623836 
L 398.487273 75.702036 
L 398.487273 75.702036 
" style="fill:none;stroke:#1f77b4;stroke-linecap:square;stroke-width:1.5;"/>
   </g>
   <g id="line2d_12">
    <path clip-path="url(#p4fa699abdb)" d="M 392.598132 176.114642 
L 392.723433 81.881421 
L 392.974035 79.165263 
L 393.224636 79.078592 
L 393.475238 78.727069 
L 393.851141 78.764125 
L 393.976442 79.416186 
L 394.101742 79.325078 
L 394.227043 78.774639 
L 394.352344 78.765362 
L 394.477645 78.882689 
L 394.602946 78.800374 
L 394.853548 79.790674 
L 394.978848 78.786203 
L 395.730654 78.722712 
L 397.986069 78.719109 
L 398.487273 78.718947 
L 398.487273 78.718947 
" style="fill:none;stroke:#ff7f0e;stroke-linecap:square;stroke-width:1.5;"/>
   </g>
   <g id="patch_3">
    <path d="M 57.6 307.584 
L 57.6 41.472 
" style="fill:none;stroke:#000000;stroke-linecap:square;stroke-linejoin:miter;stroke-width:0.8;"/>
   </g>
   <g id="patch_4">
    <path d="M 414.72 307.584 
L 414.72 41.472 
" style="fill:none;stroke:#000000;stroke-linecap:square;stroke-linejoin:miter;stroke-width:0.8;"/>
   </g>
   <g id="patch_5">
    <path d="M 57.6 307.584 
L 414.72 307.584 
" style="fill:none;stroke:#000000;stroke-linecap:square;stroke-linejoin:miter;stroke-width:0.8;"/>
   </g>
   <g id="patch_6">
    <path d="M 57.6 41.472 
L 414.72 41.472 
" style="fill:none;stroke:#000000;stroke-linecap:square;stroke-linejoin:miter;stroke-width:0.8;"/>
   </g>
  </g>
 </g>
 <defs>
  <clipPath id="p4fa699abdb">
   <rect height="266.112" width="357.12" x="57.6" y="41.472"/>
  </clipPath>
 </defs>
</svg>
