<?xml version="1.0" encoding="utf-8" standalone="no"?>
<!DOCTYPE svg PUBLIC "-//W3C//DTD SVG 1.1//EN"
  "http://www.w3.org/Graphics/SVG/1.1/DTD/svg11.dtd">
<!-- Created with matplotlib (http://matplotlib.org/) -->
<svg height="345.6pt" version="1.1" viewBox="0 0 460.8 345.6" width="460.8pt" xmlns="http://www.w3.org/2000/svg" xmlns:xlink="http://www.w3.org/1999/xlink">
 <defs>
  <style type="text/css">
*{stroke-linecap:butt;stroke-linejoin:round;}
  </style>
 </defs>
 <g id="figure_1">
  <g id="patch_1">
   <path d="M 0 345.6 
L 460.8 345.6 
L 460.8 0 
L 0 0 
z
" style="fill:#ffffff;"/>
  </g>
  <g id="axes_1">
   <g id="patch_2">
    <path d="M 57.6 307.584 
L 414.72 307.584 
L 414.72 41.472 
L 57.6 41.472 
z
" style="fill:#ffffff;"/>
   </g>
   <g id="matplotlib.axis_1">
    <g id="xtick_1">
     <g id="line2d_1">
      <defs>
       <path d="M 0 0 
L 0 3.5 
" id="mc179932dc6" style="stroke:#000000;stroke-width:0.8;"/>
      </defs>
      <g>
       <use style="stroke:#000000;stroke-width:0.8;" x="73.832727" xlink:href="#mc179932dc6" y="307.584"/>
      </g>
     </g>
     <g id="text_1">
      <!-- 0 -->
      <defs>
       <path d="M 31.78125 66.40625 
Q 24.171875 66.40625 20.328125 58.90625 
Q 16.5 51.421875 16.5 36.375 
Q 16.5 21.390625 20.328125 13.890625 
Q 24.171875 6.390625 31.78125 6.390625 
Q 39.453125 6.390625 43.28125 13.890625 
Q 47.125 21.390625 47.125 36.375 
Q 47.125 51.421875 43.28125 58.90625 
Q 39.453125 66.40625 31.78125 66.40625 
z
M 31.78125 74.21875 
Q 44.046875 74.21875 50.515625 64.515625 
Q 56.984375 54.828125 56.984375 36.375 
Q 56.984375 17.96875 50.515625 8.265625 
Q 44.046875 -1.421875 31.78125 -1.421875 
Q 19.53125 -1.421875 13.0625 8.265625 
Q 6.59375 17.96875 6.59375 36.375 
Q 6.59375 54.828125 13.0625 64.515625 
Q 19.53125 74.21875 31.78125 74.21875 
z
" id="DejaVuSans-30"/>
      </defs>
      <g transform="translate(70.651477 322.182437)scale(0.1 -0.1)">
       <use xlink:href="#DejaVuSans-30"/>
      </g>
     </g>
    </g>
    <g id="xtick_2">
     <g id="line2d_2">
      <g>
       <use style="stroke:#000000;stroke-width:0.8;" x="113.667641" xlink:href="#mc179932dc6" y="307.584"/>
      </g>
     </g>
     <g id="text_2">
      <!-- 100 -->
      <defs>
       <path d="M 12.40625 8.296875 
L 28.515625 8.296875 
L 28.515625 63.921875 
L 10.984375 60.40625 
L 10.984375 69.390625 
L 28.421875 72.90625 
L 38.28125 72.90625 
L 38.28125 8.296875 
L 54.390625 8.296875 
L 54.390625 0 
L 12.40625 0 
z
" id="DejaVuSans-31"/>
      </defs>
      <g transform="translate(104.123891 322.182437)scale(0.1 -0.1)">
       <use xlink:href="#DejaVuSans-31"/>
       <use x="63.623047" xlink:href="#DejaVuSans-30"/>
       <use x="127.246094" xlink:href="#DejaVuSans-30"/>
      </g>
     </g>
    </g>
    <g id="xtick_3">
     <g id="line2d_3">
      <g>
       <use style="stroke:#000000;stroke-width:0.8;" x="153.502554" xlink:href="#mc179932dc6" y="307.584"/>
      </g>
     </g>
     <g id="text_3">
      <!-- 200 -->
      <defs>
       <path d="M 19.1875 8.296875 
L 53.609375 8.296875 
L 53.609375 0 
L 7.328125 0 
L 7.328125 8.296875 
Q 12.9375 14.109375 22.625 23.890625 
Q 32.328125 33.6875 34.8125 36.53125 
Q 39.546875 41.84375 41.421875 45.53125 
Q 43.3125 49.21875 43.3125 52.78125 
Q 43.3125 58.59375 39.234375 62.25 
Q 35.15625 65.921875 28.609375 65.921875 
Q 23.96875 65.921875 18.8125 64.3125 
Q 13.671875 62.703125 7.8125 59.421875 
L 7.8125 69.390625 
Q 13.765625 71.78125 18.9375 73 
Q 24.125 74.21875 28.421875 74.21875 
Q 39.75 74.21875 46.484375 68.546875 
Q 53.21875 62.890625 53.21875 53.421875 
Q 53.21875 48.921875 51.53125 44.890625 
Q 49.859375 40.875 45.40625 35.40625 
Q 44.1875 33.984375 37.640625 27.21875 
Q 31.109375 20.453125 19.1875 8.296875 
z
" id="DejaVuSans-32"/>
      </defs>
      <g transform="translate(143.958804 322.182437)scale(0.1 -0.1)">
       <use xlink:href="#DejaVuSans-32"/>
       <use x="63.623047" xlink:href="#DejaVuSans-30"/>
       <use x="127.246094" xlink:href="#DejaVuSans-30"/>
      </g>
     </g>
    </g>
    <g id="xtick_4">
     <g id="line2d_4">
      <g>
       <use style="stroke:#000000;stroke-width:0.8;" x="193.337468" xlink:href="#mc179932dc6" y="307.584"/>
      </g>
     </g>
     <g id="text_4">
      <!-- 300 -->
      <defs>
       <path d="M 40.578125 39.3125 
Q 47.65625 37.796875 51.625 33 
Q 55.609375 28.21875 55.609375 21.1875 
Q 55.609375 10.40625 48.1875 4.484375 
Q 40.765625 -1.421875 27.09375 -1.421875 
Q 22.515625 -1.421875 17.65625 -0.515625 
Q 12.796875 0.390625 7.625 2.203125 
L 7.625 11.71875 
Q 11.71875 9.328125 16.59375 8.109375 
Q 21.484375 6.890625 26.8125 6.890625 
Q 36.078125 6.890625 40.9375 10.546875 
Q 45.796875 14.203125 45.796875 21.1875 
Q 45.796875 27.640625 41.28125 31.265625 
Q 36.765625 34.90625 28.71875 34.90625 
L 20.21875 34.90625 
L 20.21875 43.015625 
L 29.109375 43.015625 
Q 36.375 43.015625 40.234375 45.921875 
Q 44.09375 48.828125 44.09375 54.296875 
Q 44.09375 59.90625 40.109375 62.90625 
Q 36.140625 65.921875 28.71875 65.921875 
Q 24.65625 65.921875 20.015625 65.03125 
Q 15.375 64.15625 9.8125 62.3125 
L 9.8125 71.09375 
Q 15.4375 72.65625 20.34375 73.4375 
Q 25.25 74.21875 29.59375 74.21875 
Q 40.828125 74.21875 47.359375 69.109375 
Q 53.90625 64.015625 53.90625 55.328125 
Q 53.90625 49.265625 50.4375 45.09375 
Q 46.96875 40.921875 40.578125 39.3125 
z
" id="DejaVuSans-33"/>
      </defs>
      <g transform="translate(183.793718 322.182437)scale(0.1 -0.1)">
       <use xlink:href="#DejaVuSans-33"/>
       <use x="63.623047" xlink:href="#DejaVuSans-30"/>
       <use x="127.246094" xlink:href="#DejaVuSans-30"/>
      </g>
     </g>
    </g>
    <g id="xtick_5">
     <g id="line2d_5">
      <g>
       <use style="stroke:#000000;stroke-width:0.8;" x="233.172381" xlink:href="#mc179932dc6" y="307.584"/>
      </g>
     </g>
     <g id="text_5">
      <!-- 400 -->
      <defs>
       <path d="M 37.796875 64.3125 
L 12.890625 25.390625 
L 37.796875 25.390625 
z
M 35.203125 72.90625 
L 47.609375 72.90625 
L 47.609375 25.390625 
L 58.015625 25.390625 
L 58.015625 17.1875 
L 47.609375 17.1875 
L 47.609375 0 
L 37.796875 0 
L 37.796875 17.1875 
L 4.890625 17.1875 
L 4.890625 26.703125 
z
" id="DejaVuSans-34"/>
      </defs>
      <g transform="translate(223.628631 322.182437)scale(0.1 -0.1)">
       <use xlink:href="#DejaVuSans-34"/>
       <use x="63.623047" xlink:href="#DejaVuSans-30"/>
       <use x="127.246094" xlink:href="#DejaVuSans-30"/>
      </g>
     </g>
    </g>
    <g id="xtick_6">
     <g id="line2d_6">
      <g>
       <use style="stroke:#000000;stroke-width:0.8;" x="273.007295" xlink:href="#mc179932dc6" y="307.584"/>
      </g>
     </g>
     <g id="text_6">
      <!-- 500 -->
      <defs>
       <path d="M 10.796875 72.90625 
L 49.515625 72.90625 
L 49.515625 64.59375 
L 19.828125 64.59375 
L 19.828125 46.734375 
Q 21.96875 47.46875 24.109375 47.828125 
Q 26.265625 48.1875 28.421875 48.1875 
Q 40.625 48.1875 47.75 41.5 
Q 54.890625 34.8125 54.890625 23.390625 
Q 54.890625 11.625 47.5625 5.09375 
Q 40.234375 -1.421875 26.90625 -1.421875 
Q 22.3125 -1.421875 17.546875 -0.640625 
Q 12.796875 0.140625 7.71875 1.703125 
L 7.71875 11.625 
Q 12.109375 9.234375 16.796875 8.0625 
Q 21.484375 6.890625 26.703125 6.890625 
Q 35.15625 6.890625 40.078125 11.328125 
Q 45.015625 15.765625 45.015625 23.390625 
Q 45.015625 31 40.078125 35.4375 
Q 35.15625 39.890625 26.703125 39.890625 
Q 22.75 39.890625 18.8125 39.015625 
Q 14.890625 38.140625 10.796875 36.28125 
z
" id="DejaVuSans-35"/>
      </defs>
      <g transform="translate(263.463545 322.182437)scale(0.1 -0.1)">
       <use xlink:href="#DejaVuSans-35"/>
       <use x="63.623047" xlink:href="#DejaVuSans-30"/>
       <use x="127.246094" xlink:href="#DejaVuSans-30"/>
      </g>
     </g>
    </g>
    <g id="xtick_7">
     <g id="line2d_7">
      <g>
       <use style="stroke:#000000;stroke-width:0.8;" x="312.842209" xlink:href="#mc179932dc6" y="307.584"/>
      </g>
     </g>
     <g id="text_7">
      <!-- 600 -->
      <defs>
       <path d="M 33.015625 40.375 
Q 26.375 40.375 22.484375 35.828125 
Q 18.609375 31.296875 18.609375 23.390625 
Q 18.609375 15.53125 22.484375 10.953125 
Q 26.375 6.390625 33.015625 6.390625 
Q 39.65625 6.390625 43.53125 10.953125 
Q 47.40625 15.53125 47.40625 23.390625 
Q 47.40625 31.296875 43.53125 35.828125 
Q 39.65625 40.375 33.015625 40.375 
z
M 52.59375 71.296875 
L 52.59375 62.3125 
Q 48.875 64.0625 45.09375 64.984375 
Q 41.3125 65.921875 37.59375 65.921875 
Q 27.828125 65.921875 22.671875 59.328125 
Q 17.53125 52.734375 16.796875 39.40625 
Q 19.671875 43.65625 24.015625 45.921875 
Q 28.375 48.1875 33.59375 48.1875 
Q 44.578125 48.1875 50.953125 41.515625 
Q 57.328125 34.859375 57.328125 23.390625 
Q 57.328125 12.15625 50.6875 5.359375 
Q 44.046875 -1.421875 33.015625 -1.421875 
Q 20.359375 -1.421875 13.671875 8.265625 
Q 6.984375 17.96875 6.984375 36.375 
Q 6.984375 53.65625 15.1875 63.9375 
Q 23.390625 74.21875 37.203125 74.21875 
Q 40.921875 74.21875 44.703125 73.484375 
Q 48.484375 72.75 52.59375 71.296875 
z
" id="DejaVuSans-36"/>
      </defs>
      <g transform="translate(303.298459 322.182437)scale(0.1 -0.1)">
       <use xlink:href="#DejaVuSans-36"/>
       <use x="63.623047" xlink:href="#DejaVuSans-30"/>
       <use x="127.246094" xlink:href="#DejaVuSans-30"/>
      </g>
     </g>
    </g>
    <g id="xtick_8">
     <g id="line2d_8">
      <g>
       <use style="stroke:#000000;stroke-width:0.8;" x="352.677122" xlink:href="#mc179932dc6" y="307.584"/>
      </g>
     </g>
     <g id="text_8">
      <!-- 700 -->
      <defs>
       <path d="M 8.203125 72.90625 
L 55.078125 72.90625 
L 55.078125 68.703125 
L 28.609375 0 
L 18.3125 0 
L 43.21875 64.59375 
L 8.203125 64.59375 
z
" id="DejaVuSans-37"/>
      </defs>
      <g transform="translate(343.133372 322.182437)scale(0.1 -0.1)">
       <use xlink:href="#DejaVuSans-37"/>
       <use x="63.623047" xlink:href="#DejaVuSans-30"/>
       <use x="127.246094" xlink:href="#DejaVuSans-30"/>
      </g>
     </g>
    </g>
    <g id="xtick_9">
     <g id="line2d_9">
      <g>
       <use style="stroke:#000000;stroke-width:0.8;" x="392.512036" xlink:href="#mc179932dc6" y="307.584"/>
      </g>
     </g>
     <g id="text_9">
      <!-- 800 -->
      <defs>
       <path d="M 31.78125 34.625 
Q 24.75 34.625 20.71875 30.859375 
Q 16.703125 27.09375 16.703125 20.515625 
Q 16.703125 13.921875 20.71875 10.15625 
Q 24.75 6.390625 31.78125 6.390625 
Q 38.8125 6.390625 42.859375 10.171875 
Q 46.921875 13.96875 46.921875 20.515625 
Q 46.921875 27.09375 42.890625 30.859375 
Q 38.875 34.625 31.78125 34.625 
z
M 21.921875 38.8125 
Q 15.578125 40.375 12.03125 44.71875 
Q 8.5 49.078125 8.5 55.328125 
Q 8.5 64.0625 14.71875 69.140625 
Q 20.953125 74.21875 31.78125 74.21875 
Q 42.671875 74.21875 48.875 69.140625 
Q 55.078125 64.0625 55.078125 55.328125 
Q 55.078125 49.078125 51.53125 44.71875 
Q 48 40.375 41.703125 38.8125 
Q 48.828125 37.15625 52.796875 32.3125 
Q 56.78125 27.484375 56.78125 20.515625 
Q 56.78125 9.90625 50.3125 4.234375 
Q 43.84375 -1.421875 31.78125 -1.421875 
Q 19.734375 -1.421875 13.25 4.234375 
Q 6.78125 9.90625 6.78125 20.515625 
Q 6.78125 27.484375 10.78125 32.3125 
Q 14.796875 37.15625 21.921875 38.8125 
z
M 18.3125 54.390625 
Q 18.3125 48.734375 21.84375 45.5625 
Q 25.390625 42.390625 31.78125 42.390625 
Q 38.140625 42.390625 41.71875 45.5625 
Q 45.3125 48.734375 45.3125 54.390625 
Q 45.3125 60.0625 41.71875 63.234375 
Q 38.140625 66.40625 31.78125 66.40625 
Q 25.390625 66.40625 21.84375 63.234375 
Q 18.3125 60.0625 18.3125 54.390625 
z
" id="DejaVuSans-38"/>
      </defs>
      <g transform="translate(382.968286 322.182437)scale(0.1 -0.1)">
       <use xlink:href="#DejaVuSans-38"/>
       <use x="63.623047" xlink:href="#DejaVuSans-30"/>
       <use x="127.246094" xlink:href="#DejaVuSans-30"/>
      </g>
     </g>
    </g>
   </g>
   <g id="matplotlib.axis_2">
    <g id="ytick_1">
     <g id="line2d_10">
      <defs>
       <path d="M 0 0 
L -3.5 0 
" id="m9ae510177d" style="stroke:#000000;stroke-width:0.8;"/>
      </defs>
      <g>
       <use style="stroke:#000000;stroke-width:0.8;" x="57.6" xlink:href="#m9ae510177d" y="270.7383"/>
      </g>
     </g>
     <g id="text_10">
      <!-- 0 -->
      <g transform="translate(44.2375 274.537518)scale(0.1 -0.1)">
       <use xlink:href="#DejaVuSans-30"/>
      </g>
     </g>
    </g>
    <g id="ytick_2">
     <g id="line2d_11">
      <g>
       <use style="stroke:#000000;stroke-width:0.8;" x="57.6" xlink:href="#m9ae510177d" y="224.405574"/>
      </g>
     </g>
     <g id="text_11">
      <!-- 10 -->
      <g transform="translate(37.875 228.204793)scale(0.1 -0.1)">
       <use xlink:href="#DejaVuSans-31"/>
       <use x="63.623047" xlink:href="#DejaVuSans-30"/>
      </g>
     </g>
    </g>
    <g id="ytick_3">
     <g id="line2d_12">
      <g>
       <use style="stroke:#000000;stroke-width:0.8;" x="57.6" xlink:href="#m9ae510177d" y="178.072848"/>
      </g>
     </g>
     <g id="text_12">
      <!-- 20 -->
      <g transform="translate(37.875 181.872067)scale(0.1 -0.1)">
       <use xlink:href="#DejaVuSans-32"/>
       <use x="63.623047" xlink:href="#DejaVuSans-30"/>
      </g>
     </g>
    </g>
    <g id="ytick_4">
     <g id="line2d_13">
      <g>
       <use style="stroke:#000000;stroke-width:0.8;" x="57.6" xlink:href="#m9ae510177d" y="131.740123"/>
      </g>
     </g>
     <g id="text_13">
      <!-- 30 -->
      <g transform="translate(37.875 135.539341)scale(0.1 -0.1)">
       <use xlink:href="#DejaVuSans-33"/>
       <use x="63.623047" xlink:href="#DejaVuSans-30"/>
      </g>
     </g>
    </g>
    <g id="ytick_5">
     <g id="line2d_14">
      <g>
       <use style="stroke:#000000;stroke-width:0.8;" x="57.6" xlink:href="#m9ae510177d" y="85.407397"/>
      </g>
     </g>
     <g id="text_14">
      <!-- 40 -->
      <g transform="translate(37.875 89.206616)scale(0.1 -0.1)">
       <use xlink:href="#DejaVuSans-34"/>
       <use x="63.623047" xlink:href="#DejaVuSans-30"/>
      </g>
     </g>
    </g>
   </g>
   <g id="line2d_15">
    <path clip-path="url(#p0284089216)" d="M 73.832727 125.676866 
L 74.231076 161.852294 
L 75.027775 126.994051 
L 75.426124 127.129438 
L 75.824473 121.879501 
L 76.222822 131.373341 
L 76.621171 164.068495 
L 77.01952 171.457907 
L 77.417869 189.665397 
L 77.816219 217.319209 
L 78.214568 235.520994 
L 78.612917 240.676689 
L 79.011266 230.752883 
L 79.409615 248.745126 
L 79.807964 260.102621 
L 80.206313 267.380267 
L 80.604663 293.406859 
L 81.003012 295.026739 
L 81.401361 288.453513 
L 81.79971 290.199281 
L 82.198059 280.30332 
L 82.596408 279.292253 
L 82.994757 282.727435 
L 83.393107 271.486054 
L 83.791456 269.781975 
L 84.189805 269.775592 
L 84.986503 256.717414 
L 85.384852 233.244904 
L 85.783201 225.795738 
L 86.18155 220.70971 
L 86.5799 206.825839 
L 86.978249 202.875002 
L 88.173296 126.75191 
L 88.571645 125.765017 
L 88.969994 124.09678 
L 89.368344 127.611546 
L 90.165042 150.632236 
L 90.563391 161.291154 
L 90.96174 160.153109 
L 91.360089 162.43178 
L 91.758438 159.493504 
L 92.156788 173.442015 
L 92.953486 223.952187 
L 93.351835 227.684376 
L 93.750184 226.153855 
L 94.148533 229.365229 
L 94.546882 223.02233 
L 94.945231 214.087597 
L 95.343581 210.858699 
L 95.74193 223.14306 
L 96.140279 226.932559 
L 96.936977 242.133196 
L 97.335326 244.691081 
L 97.733675 245.19057 
L 98.132025 242.09585 
L 98.530374 242.641785 
L 98.928723 242.646266 
L 99.327072 242.161036 
L 99.725421 248.847386 
L 100.12377 246.305256 
L 100.522119 241.187315 
L 100.920468 241.217057 
L 101.318818 246.305256 
L 101.717167 246.311367 
L 102.115516 239.153093 
L 102.513865 234.017091 
L 102.912214 239.147391 
L 103.310563 245.79653 
L 103.708912 242.747985 
L 104.107262 245.822335 
L 104.505611 250.898041 
L 105.302309 258.486814 
L 105.700658 266.036477 
L 106.099007 257.987053 
L 106.497356 259.500598 
L 106.895706 263.016178 
L 107.294055 263.000288 
L 107.692404 261.506571 
L 108.090753 257.985695 
L 108.887451 266.040823 
L 109.2858 259.502499 
L 109.684149 261.021748 
L 110.082499 252.420276 
L 110.480848 249.363989 
L 111.277546 249.373495 
L 111.675895 251.402691 
L 112.074244 252.421092 
L 112.472593 249.377297 
L 112.870943 247.349596 
L 113.269292 241.256575 
L 113.667641 232.075079 
L 114.06599 227.549387 
L 114.464339 224.459689 
L 114.862688 229.156908 
L 115.261037 219.507837 
L 115.659387 222.617225 
L 116.057736 216.035039 
L 116.854434 206.919815 
L 117.651132 204.017665 
L 118.049481 205.711425 
L 118.44783 206.427119 
L 118.84618 209.65927 
L 119.244529 206.211185 
L 119.642878 206.281671 
L 120.041227 214.46038 
L 120.439576 210.017391 
L 120.837925 213.159508 
L 121.236274 206.838742 
L 121.634624 210.480888 
L 122.032973 205.213564 
L 122.431322 205.337012 
L 122.829671 208.854898 
L 123.22802 215.796972 
L 123.626369 220.724106 
L 124.024718 222.752351 
L 124.423067 226.153855 
L 124.821417 226.153855 
L 125.618115 230.59603 
L 126.016464 236.901857 
L 126.414813 240.250805 
L 126.813162 249.742475 
L 127.211511 252.56939 
L 127.609861 249.753884 
L 128.00821 245.051504 
L 128.406559 242.224456 
L 128.804908 243.18419 
L 129.601606 233.77753 
L 129.999955 235.682465 
L 130.398305 233.820311 
L 130.796654 237.593784 
L 131.195003 235.246531 
L 131.593352 233.820311 
L 131.991701 228.203963 
L 132.788399 231.120372 
L 133.186748 235.81121 
L 133.585098 234.434148 
L 133.983447 237.732032 
L 134.780145 234.549987 
L 135.178494 235.975941 
L 135.576843 232.714045 
L 135.975192 234.590594 
L 136.373542 234.590594 
L 136.771891 242.033786 
L 137.17024 242.046282 
L 137.568589 243.897706 
L 137.966938 237.442088 
L 138.365287 239.31117 
L 138.763636 237.476584 
L 139.161985 243.947277 
L 139.560335 245.325968 
L 140.357033 245.344301 
L 141.55208 236.223782 
L 141.950429 236.242118 
L 142.348779 237.607363 
L 142.747128 240.829739 
L 143.145477 239.024489 
L 143.543826 234.515088 
L 143.942175 236.32713 
L 144.340524 236.32713 
L 144.738873 237.702834 
L 145.137223 236.363257 
L 145.933921 239.141958 
L 146.33227 242.309062 
L 146.730619 242.321014 
L 147.128968 236.465111 
L 147.527317 233.325301 
L 147.925666 233.367127 
L 148.324016 241.053547 
L 148.722365 237.906676 
L 149.120714 236.565603 
L 149.519063 232.095454 
L 149.917412 232.139454 
L 150.315761 235.287682 
L 150.71411 235.306558 
L 151.11246 233.505515 
L 151.510809 233.526021 
L 152.307507 239.843796 
L 152.705856 241.197228 
L 153.104205 238.531787 
L 153.502554 238.105767 
L 153.900904 235.474413 
L 154.299253 238.174485 
L 154.697602 239.522891 
L 155.095951 238.190372 
L 155.4943 238.206127 
L 156.290998 232.5284 
L 156.689347 228.170148 
L 157.087697 229.929771 
L 157.486046 232.577694 
L 157.884395 230.851074 
L 158.282744 231.317832 
L 158.681093 230.949397 
L 159.079442 228.371956 
L 159.477791 228.396943 
L 159.876141 219.713856 
L 160.27449 216.710935 
L 160.672839 215.496708 
L 161.071188 216.914648 
L 161.469537 221.365241 
L 161.867886 217.033474 
L 162.266235 207.097718 
L 162.664584 205.914045 
L 163.062934 202.956486 
L 163.859632 208.822849 
L 164.257981 210.995725 
L 165.054679 219.8411 
L 165.453028 219.948388 
L 165.851378 222.961627 
L 166.249727 215.860799 
L 166.648076 214.688532 
L 167.046425 219.091461 
L 167.843123 219.30671 
L 168.241472 212.317241 
L 168.639822 209.893263 
L 169.038171 204.912757 
L 169.43652 205.062959 
L 169.834869 200.947661 
L 170.233218 201.109268 
L 170.631567 197.006333 
L 171.029916 197.351415 
L 171.428265 193.456257 
L 172.224964 193.819266 
L 172.623313 189.96947 
L 173.021662 194.355829 
L 173.420011 190.538351 
L 174.216709 190.912088 
L 174.615059 183.178685 
L 175.013408 179.437932 
L 175.411757 179.655364 
L 176.208455 180.512561 
L 176.606804 180.723878 
L 177.005153 177.064746 
L 177.403503 177.50326 
L 177.801852 173.884338 
L 178.200201 174.336832 
L 178.996899 167.197576 
L 179.395248 171.684565 
L 179.793597 172.140462 
L 180.191946 172.366573 
L 180.590296 172.815143 
L 180.988645 176.949172 
L 181.386994 177.159128 
L 182.98039 178.799245 
L 183.37874 182.781724 
L 183.777089 190.28671 
L 184.573787 198.00817 
L 184.972136 194.635997 
L 185.370485 194.944409 
L 186.167183 195.24956 
L 187.76058 210.088142 
L 188.158929 210.199231 
L 188.557278 203.392013 
L 188.955627 206.914791 
L 189.353977 207.033347 
L 190.150675 214.208054 
L 190.947373 214.405788 
L 191.345722 211.175396 
L 191.744071 211.281191 
L 192.142421 208.074156 
L 192.54077 208.186875 
L 193.337468 201.961583 
L 193.735817 188.840244 
L 194.134166 182.453623 
L 194.532515 179.36202 
L 194.930864 173.028758 
L 195.329214 176.472366 
L 195.727563 153.970319 
L 196.125912 154.447672 
L 196.524261 145.030284 
L 196.92261 142.343393 
L 197.719308 124.04844 
L 198.117658 118.641651 
L 198.516007 116.764138 
L 198.914356 117.709337 
L 199.312705 109.051785 
L 199.711054 106.966102 
L 200.109403 97.748604 
L 200.507752 106.570087 
L 200.906102 92.201788 
L 201.304451 93.624906 
L 201.7028 88.758594 
L 202.101149 90.190126 
L 202.499498 94.846728 
L 202.897847 102.276218 
L 203.296196 112.391229 
L 203.694545 116.100601 
L 204.092895 128.701243 
L 204.491244 129.727798 
L 204.889593 124.977343 
L 205.686291 147.090852 
L 206.881339 157.62999 
L 207.678037 169.245789 
L 208.474735 175.013413 
L 208.873084 170.047983 
L 209.271433 173.217398 
L 209.669782 178.999285 
L 210.068132 176.772082 
L 210.466481 179.828371 
L 210.86483 180.236202 
L 211.263179 185.684554 
L 211.661528 186.055568 
L 212.059877 183.86694 
L 212.458226 171.84604 
L 212.856576 167.143395 
L 213.254925 160.036722 
L 213.653274 162.946745 
L 214.848321 164.383967 
L 215.24667 167.210744 
L 215.64502 167.662708 
L 216.043369 163.286662 
L 216.441718 163.754922 
L 216.840067 161.904849 
L 217.238416 169.711593 
L 218.035114 166.173337 
L 218.433463 157.442984 
L 219.230162 149.465805 
L 219.628511 147.758604 
L 220.02686 139.244994 
L 220.425209 133.192183 
L 220.823558 133.974413 
L 221.221907 132.374771 
L 221.620257 128.82158 
L 222.018606 120.797272 
L 222.416955 115.214347 
L 223.213653 109.166953 
L 224.408701 93.706244 
L 224.80705 93.114412 
L 225.205399 90.509133 
L 226.002097 74.440014 
L 226.400446 66.104033 
L 226.798795 62.121696 
L 227.197144 56.276392 
L 227.595494 56.317539 
L 228.392192 60.708246 
L 228.790541 75.853888 
L 229.18889 79.392825 
L 229.985588 82.884499 
L 230.383938 82.903499 
L 230.782287 86.677118 
L 231.180636 94.266438 
L 231.578985 99.73204 
L 231.977334 110.333914 
L 232.774032 121.467473 
L 233.172381 122.756936 
L 233.570731 108.119206 
L 233.96908 107.542168 
L 234.367429 105.530506 
L 236.757524 160.946474 
L 237.155873 164.519637 
L 237.952571 156.907092 
L 238.749269 173.434954 
L 239.147619 187.346401 
L 239.545968 186.107859 
L 240.342666 202.491355 
L 240.741015 204.095075 
L 241.139364 207.122709 
L 241.537713 205.688607 
L 241.936062 200.124549 
L 242.334412 207.714952 
L 242.732761 220.845243 
L 243.13111 222.41053 
L 243.529459 221.086023 
L 243.927808 216.916004 
L 244.326157 217.069057 
L 244.724506 211.487749 
L 245.521205 196.184984 
L 245.919554 190.701319 
L 246.317903 187.997584 
L 246.716252 192.591999 
L 247.114601 195.579428 
L 247.51295 195.697848 
L 249.106347 196.513898 
L 249.903045 199.535293 
L 250.301394 206.562378 
L 250.699743 205.472001 
L 251.098093 202.975226 
L 251.496442 205.803907 
L 251.894791 205.897886 
L 252.29314 204.681887 
L 252.691489 207.48232 
L 253.488187 210.345629 
L 253.886537 210.513484 
L 254.683235 202.956486 
L 255.081584 200.484297 
L 255.479933 211.009445 
L 255.878282 225.200097 
L 256.276631 232.869947 
L 257.07333 230.443795 
L 257.870028 233.050024 
L 258.268377 230.577017 
L 258.666726 233.168311 
L 259.065075 237.003711 
L 259.463424 238.323599 
L 259.861774 235.910753 
L 260.260123 228.449229 
L 261.056821 204.472338 
L 261.45517 204.609912 
L 261.853519 203.55077 
L 262.251868 201.11674 
L 262.650218 196.209022 
L 263.048567 196.420745 
L 263.446916 195.293693 
L 263.845265 192.940612 
L 265.040312 200.999134 
L 265.438661 202.400097 
L 265.837011 200.220973 
L 266.633709 200.603122 
L 267.032058 198.358404 
L 267.430407 198.603669 
L 268.227105 196.581804 
L 268.625455 196.782392 
L 269.023804 194.532645 
L 269.422153 193.568429 
L 269.820502 191.3358 
L 270.218851 188.001243 
L 270.6172 186.08056 
L 271.015549 182.787707 
L 271.812248 185.684554 
L 272.210597 191.679525 
L 272.608946 194.214999 
L 273.007295 192.150631 
L 273.405644 191.228922 
L 273.803993 191.438471 
L 274.202342 183.854859 
L 274.600692 182.970223 
L 274.999041 183.321142 
L 275.39739 190.460407 
L 275.795739 195.162239 
L 276.194088 190.976061 
L 276.592437 188.998325 
L 276.990786 176.999562 
L 277.389136 170.656659 
L 277.787485 167.808558 
L 278.185834 170.310079 
L 278.584183 169.50123 
L 278.982532 177.756677 
L 279.380881 182.300163 
L 279.77923 188.972936 
L 280.177579 189.125308 
L 280.575929 186.070645 
L 281.372627 195.129373 
L 281.770976 202.848928 
L 282.169325 208.324039 
L 282.567674 215.761393 
L 282.966023 212.80098 
L 283.364373 213.968087 
L 283.762722 218.151145 
L 284.161071 216.163237 
L 284.55942 211.125964 
L 284.957769 211.222114 
L 285.356118 213.384531 
L 285.754467 213.505266 
L 286.152817 211.57127 
L 286.949515 213.804169 
L 287.347864 209.904128 
L 288.144562 214.157125 
L 288.542911 210.258308 
L 288.94126 210.354047 
L 289.33961 213.441439 
L 289.737959 211.581318 
L 290.136308 210.701166 
L 290.534657 213.734098 
L 290.933006 215.78312 
L 291.331355 215.865554 
L 291.729704 216.91003 
L 292.526403 217.174167 
L 292.924752 216.272289 
L 293.323101 221.160989 
L 293.72145 220.281792 
L 294.119799 218.43403 
L 294.518148 222.336925 
L 294.916497 223.367681 
L 296.111545 215.055614 
L 296.509894 214.173288 
L 296.908243 219.002916 
L 297.704941 219.172534 
L 298.103291 215.459495 
L 298.50164 215.565696 
L 298.899989 216.59469 
L 299.298338 212.007473 
L 299.696687 212.093844 
L 300.095036 213.126505 
L 300.891735 218.900244 
L 301.290084 219.8813 
L 301.688433 217.177428 
L 302.086782 219.0901 
L 302.485131 220.065451 
L 302.88348 216.547428 
L 303.281829 217.5479 
L 303.680178 215.824677 
L 304.476877 216.053235 
L 304.875226 216.128878 
L 305.273575 215.289064 
L 305.671924 216.254089 
L 306.070273 213.642972 
L 306.468622 212.864537 
L 306.866972 210.26795 
L 307.265321 208.560475 
L 307.66367 213.187071 
L 308.062019 213.266929 
L 309.257066 224.055397 
L 309.655416 224.11352 
L 310.053765 225.036453 
L 310.452114 223.346087 
L 310.850463 224.30596 
L 311.248812 226.118002 
L 312.04551 231.399727 
L 312.443859 232.295087 
L 312.842209 234.887871 
L 313.240558 235.749959 
L 313.638907 234.912315 
L 314.037256 231.515022 
L 314.435605 232.405765 
L 314.833954 230.739848 
L 315.232303 232.48793 
L 315.630653 235.069848 
L 316.029002 234.264936 
L 316.427351 234.289924 
L 316.8257 232.623732 
L 317.224049 231.812299 
L 317.622398 231.812299 
L 318.020747 230.973978 
L 318.419096 223.467635 
L 318.817446 226.04942 
L 319.215795 227.752684 
L 319.614144 225.321645 
L 320.012493 223.695106 
L 320.410842 218.73022 
L 320.809191 219.645951 
L 321.60589 218.099676 
L 322.004239 216.516737 
L 322.402588 210.744897 
L 322.800937 203.354804 
L 323.199286 213.516807 
L 323.597635 211.905212 
L 323.995984 203.724193 
L 324.394334 205.56652 
L 324.792683 208.934345 
L 325.191032 207.50554 
L 326.386079 207.783671 
L 326.784428 203.910787 
L 327.182777 206.51539 
L 327.581127 213.943236 
L 327.979476 210.740956 
L 328.377825 206.058133 
L 328.776174 211.070961 
L 329.174523 217.48747 
L 329.572872 217.48747 
L 329.971221 219.243559 
L 330.369571 225.551829 
L 331.166269 232.66787 
L 331.564618 238.205584 
L 331.962967 239.014165 
L 332.759665 232.120304 
L 333.158015 237.595415 
L 333.556364 239.925961 
L 333.954713 234.542793 
L 334.353062 230.71513 
L 334.751411 233.858471 
L 335.14976 226.918437 
L 336.344808 216.99884 
L 336.743157 211.721331 
L 337.141506 213.362672 
L 337.539855 224.907168 
L 337.938204 228.723011 
L 338.336553 227.98111 
L 338.734902 226.530985 
L 339.531601 222.14775 
L 339.92995 226.715949 
L 340.328299 228.258286 
L 340.726648 226.807481 
L 341.124997 226.928485 
L 341.523346 231.516515 
L 341.921695 230.815358 
L 342.718394 215.093504 
L 343.116743 211.427991 
L 343.515092 214.525568 
L 343.913441 219.851152 
L 344.31179 219.963328 
L 344.710139 211.112382 
L 345.108489 205.263132 
L 345.506838 209.056162 
L 345.905187 215.811775 
L 346.701885 210.896045 
L 347.100234 208.791751 
L 347.498583 215.480138 
L 347.896933 219.938066 
L 348.693631 204.919411 
L 349.09198 190.050136 
L 349.490329 195.37002 
L 349.888678 209.107361 
L 350.287027 209.107361 
L 350.685376 199.869373 
L 351.083726 205.037287 
L 351.482075 208.029475 
L 351.880424 205.368786 
L 352.278773 200.433235 
L 352.677122 197.656707 
L 353.075471 198.703079 
L 353.47382 201.121764 
L 353.87217 227.121602 
L 354.270519 235.347841 
L 355.067217 220.169616 
L 355.465566 226.256526 
L 356.262264 216.445574 
L 356.660613 219.233374 
L 357.058963 217.644867 
L 357.457312 217.877366 
L 358.25401 228.678193 
L 359.050708 205.411435 
L 359.449057 195.055361 
L 359.847407 198.646857 
L 360.245756 196.122372 
L 361.042454 200.46542 
L 361.440803 201.431537 
L 361.839152 198.9239 
L 362.237501 187.413627 
L 362.635851 179.787631 
L 363.0342 182.360999 
L 363.432549 187.177998 
L 363.830898 203.776885 
L 364.229247 239.509038 
L 364.627596 254.748379 
L 365.025945 255.989092 
L 365.424294 254.331594 
L 365.822644 260.5099 
L 366.220993 262.273189 
L 366.619342 268.240996 
L 367.017691 271.139208 
L 367.41604 281.047394 
L 367.814389 274.597751 
L 368.212738 273.159577 
L 368.611088 257.488106 
L 369.009437 228.445424 
L 369.407786 216.229375 
L 369.806135 218.850544 
L 370.204484 225.230246 
L 370.602833 223.399191 
L 371.001182 224.477478 
L 371.399532 227.237304 
L 371.797881 239.215157 
L 372.19623 236.238041 
L 372.594579 238.826483 
L 372.992928 239.259295 
L 373.391277 238.602134 
L 373.789626 239.717905 
L 374.984674 225.589313 
L 375.781372 212.656212 
L 376.179721 207.471998 
L 376.57807 206.883286 
L 376.976419 205.829981 
L 377.374769 203.451767 
L 377.773118 202.669262 
L 378.171467 206.612353 
L 378.569816 207.574395 
L 378.968165 212.862094 
L 379.366514 213.585932 
L 379.764863 215.087799 
L 380.561562 223.57587 
L 380.959911 230.844419 
L 381.35826 231.986128 
L 381.756609 235.196013 
L 382.951656 225.171305 
L 383.350006 230.055662 
L 383.748355 230.551623 
L 384.146704 231.576136 
L 384.545053 227.039163 
L 385.341751 238.980895 
L 385.7401 235.564315 
L 386.13845 231.145227 
L 386.536799 228.840887 
L 386.935148 233.548698 
L 387.333497 239.579522 
L 387.731846 242.539116 
L 388.528544 233.901384 
L 388.926893 232.945453 
L 389.325243 239.375677 
L 390.121941 227.10938 
L 390.52029 225.317027 
L 390.918639 226.73578 
L 391.316988 227.711127 
L 391.715337 231.276822 
L 392.113687 231.72158 
L 392.512036 232.489286 
L 392.910385 237.379485 
L 393.308734 245.472635 
L 393.707083 257.395215 
L 394.503781 254.446485 
L 394.902131 256.157898 
L 395.698829 251.984479 
L 396.097178 251.541484 
L 396.495527 251.300702 
L 396.893876 254.360656 
L 397.292225 252.63349 
L 398.088924 245.497081 
L 398.487273 236.20708 
L 398.487273 236.20708 
" style="fill:none;opacity:0.6;stroke:#1f77b4;stroke-linecap:square;stroke-width:0.5;"/>
   </g>
   <g id="line2d_16">
    <path clip-path="url(#p0284089216)" d="M 73.832727 115.014306 
L 74.231076 139.359013 
L 74.629426 146.2856 
L 75.027775 128.936686 
L 75.426124 127.633224 
L 75.824473 123.745861 
L 76.222822 130.39654 
L 76.621171 164.036751 
L 77.01952 170.116066 
L 77.417869 189.985792 
L 78.214568 236.894292 
L 78.612917 236.549182 
L 79.011266 230.852298 
L 80.206313 269.571852 
L 80.604663 289.00998 
L 81.003012 295.488 
L 81.79971 285.283214 
L 82.198059 284.24752 
L 82.596408 277.121677 
L 82.994757 281.084053 
L 83.393107 271.607058 
L 83.791456 271.452804 
L 84.189805 269.092933 
L 84.588154 262.6639 
L 84.986503 254.407195 
L 85.384852 235.447181 
L 86.978249 202.980656 
L 88.173296 126.579389 
L 88.571645 125.431826 
L 88.969994 123.874585 
L 89.368344 129.156928 
L 89.766693 137.234781 
L 90.165042 151.341329 
L 90.563391 161.26375 
L 90.96174 161.371715 
L 91.360089 159.835612 
L 91.758438 160.642189 
L 92.156788 172.700674 
L 92.555137 195.650277 
L 92.953486 197.023694 
L 93.351835 227.445501 
L 93.750184 228.710127 
L 94.148533 227.772647 
L 94.546882 223.775075 
L 94.945231 214.062765 
L 95.343581 211.650841 
L 96.936977 242.666043 
L 97.335326 245.252839 
L 97.733675 241.181573 
L 98.132025 244.439334 
L 98.530374 244.097384 
L 98.928723 241.259486 
L 99.327072 240.895221 
L 99.725421 248.659645 
L 100.12377 249.384438 
L 100.522119 239.641197 
L 100.920468 240.158694 
L 101.318818 244.036608 
L 101.717167 246.108163 
L 102.513865 232.99845 
L 102.912214 239.112026 
L 103.310563 241.2982 
L 103.708912 247.193834 
L 104.107262 245.687947 
L 104.505611 246.40291 
L 104.90396 255.511543 
L 105.302309 258.685388 
L 105.700658 263.305482 
L 106.099007 259.636951 
L 106.497356 258.80837 
L 106.895706 265.296387 
L 107.294055 261.835222 
L 107.692404 261.677845 
L 108.090753 256.865267 
L 108.489102 260.746317 
L 108.887451 263.461463 
L 109.2858 260.395621 
L 109.684149 258.891975 
L 110.082499 254.687087 
L 110.480848 248.265375 
L 110.879197 250.960944 
L 111.277546 249.989731 
L 111.675895 249.896668 
L 112.074244 255.53154 
L 112.472593 248.421156 
L 112.870943 244.589585 
L 114.06599 228.563101 
L 114.464339 225.43459 
L 114.862688 225.46529 
L 115.261037 225.695072 
L 115.659387 217.687175 
L 116.057736 219.391742 
L 116.456085 210.054601 
L 116.854434 208.367668 
L 117.252783 205.511618 
L 117.651132 205.364023 
L 118.049481 206.799566 
L 118.44783 206.682503 
L 118.84618 210.733135 
L 119.642878 201.765598 
L 120.041227 214.476084 
L 120.439576 211.51351 
L 120.837925 213.300612 
L 121.236274 206.750007 
L 121.634624 208.280533 
L 122.032973 208.465987 
L 122.431322 203.509421 
L 122.829671 205.103067 
L 123.22802 214.386995 
L 123.626369 218.086023 
L 124.024718 224.093468 
L 124.423067 221.489974 
L 124.821417 223.402319 
L 125.219766 227.085665 
L 125.618115 228.863975 
L 126.016464 238.339393 
L 126.414813 238.414846 
L 126.813162 248.980109 
L 127.211511 250.942368 
L 127.609861 249.535098 
L 128.00821 246.445793 
L 128.406559 241.328565 
L 128.804908 244.022506 
L 129.203257 239.747364 
L 129.999955 233.703323 
L 130.398305 236.161358 
L 130.796654 236.125433 
L 131.195003 241.900533 
L 131.593352 231.591544 
L 131.991701 231.478939 
L 132.39005 225.169781 
L 133.585098 239.543265 
L 133.983447 235.075252 
L 134.381796 234.935358 
L 134.780145 234.288147 
L 135.178494 235.596217 
L 135.576843 235.582701 
L 135.975192 229.861092 
L 136.373542 232.966804 
L 137.17024 241.395739 
L 137.568589 242.894266 
L 137.966938 238.044451 
L 138.365287 238.492713 
L 138.763636 237.290171 
L 139.560335 247.740426 
L 140.357033 245.23729 
L 140.755382 241.724044 
L 141.153731 241.108734 
L 141.55208 235.4877 
L 141.950429 236.378731 
L 142.348779 235.400684 
L 142.747128 239.509725 
L 143.145477 238.380195 
L 143.543826 239.30178 
L 143.942175 234.707767 
L 144.340524 238.253057 
L 144.738873 237.061889 
L 145.137223 238.506201 
L 145.535572 238.099457 
L 146.33227 240.853312 
L 146.730619 240.272589 
L 147.527317 233.767164 
L 147.925666 233.42411 
L 148.324016 238.662713 
L 148.722365 238.159343 
L 149.120714 236.633133 
L 149.519063 231.444244 
L 149.917412 232.302427 
L 150.315761 236.20769 
L 150.71411 232.156311 
L 151.11246 233.73105 
L 151.510809 231.527571 
L 151.909158 232.908765 
L 152.307507 239.430778 
L 152.705856 240.976405 
L 153.104205 238.364199 
L 153.502554 234.771148 
L 153.900904 234.484233 
L 154.299253 236.629806 
L 154.697602 242.382882 
L 155.095951 235.974876 
L 155.4943 239.495904 
L 155.892649 236.496814 
L 156.290998 234.461309 
L 156.689347 230.087127 
L 157.087697 227.95933 
L 157.884395 233.991047 
L 158.282744 231.636252 
L 158.681093 233.736167 
L 159.079442 228.265219 
L 159.477791 226.866744 
L 159.876141 220.986162 
L 160.672839 215.52102 
L 161.071188 217.955841 
L 161.469537 219.331538 
L 161.867886 218.605689 
L 162.266235 210.226932 
L 162.664584 205.110353 
L 163.062934 204.118375 
L 163.461283 205.633453 
L 164.257981 211.270931 
L 164.65633 217.494867 
L 165.054679 219.313926 
L 165.453028 223.254966 
L 165.851378 218.761937 
L 166.249727 218.140871 
L 166.648076 214.414316 
L 167.046425 218.799902 
L 167.444774 220.485358 
L 167.843123 218.055282 
L 168.639822 208.907466 
L 169.038171 206.200713 
L 169.43652 205.915216 
L 169.834869 205.942793 
L 170.233218 203.415547 
L 170.631567 201.843976 
L 171.029916 193.846396 
L 171.428265 194.707765 
L 171.826615 194.256472 
L 172.224964 194.61234 
L 172.623313 193.798136 
L 173.021662 193.868083 
L 173.420011 193.645834 
L 173.81836 191.043984 
L 174.216709 186.642328 
L 174.615059 186.731284 
L 175.013408 180.063133 
L 175.411757 180.402741 
L 175.810106 179.171471 
L 176.208455 184.022794 
L 176.606804 182.478561 
L 177.005153 178.681754 
L 177.403503 176.692812 
L 177.801852 177.275806 
L 178.200201 175.860607 
L 178.59855 170.378506 
L 178.996899 168.938155 
L 179.395248 171.990697 
L 179.793597 173.524882 
L 180.191946 169.093073 
L 180.590296 168.328994 
L 180.988645 176.31547 
L 181.386994 178.366414 
L 181.785343 179.040034 
L 182.183692 177.263956 
L 182.582041 181.615231 
L 182.98039 180.077087 
L 183.37874 180.869039 
L 183.777089 188.658196 
L 184.175438 194.184475 
L 184.573787 197.883697 
L 184.972136 198.666745 
L 185.370485 196.380367 
L 186.167183 194.92266 
L 186.565533 197.515894 
L 186.963882 201.56243 
L 187.362231 207.341078 
L 187.76058 210.27399 
L 188.158929 208.844554 
L 188.557278 211.967475 
L 188.955627 202.34649 
L 189.353977 207.859101 
L 189.752326 208.43879 
L 190.549024 214.382621 
L 190.947373 215.139824 
L 191.345722 215.462685 
L 191.744071 209.183692 
L 192.142421 210.413301 
L 192.54077 208.047852 
L 192.939119 208.786183 
L 193.735817 196.067086 
L 194.134166 184.404714 
L 194.930864 172.539341 
L 195.329214 173.949451 
L 196.125912 154.032312 
L 196.524261 145.00447 
L 196.92261 144.067464 
L 197.719308 126.376141 
L 198.117658 117.309539 
L 198.516007 116.434632 
L 198.914356 120.290844 
L 199.312705 108.252296 
L 199.711054 107.436687 
L 200.109403 96.936671 
L 200.507752 104.175134 
L 200.906102 98.382961 
L 201.304451 89.960162 
L 201.7028 86.339817 
L 202.101149 89.649126 
L 202.499498 97.280388 
L 202.897847 98.077527 
L 203.296196 104.810658 
L 204.092895 127.008774 
L 204.491244 130.45636 
L 204.889593 132.03329 
L 205.287942 131.586001 
L 205.686291 146.276727 
L 206.08464 151.161968 
L 206.482989 157.885599 
L 206.881339 158.769864 
L 207.279688 161.245766 
L 207.678037 159.3549 
L 208.076386 179.481014 
L 208.474735 170.873994 
L 208.873084 168.74689 
L 209.271433 168.395061 
L 209.669782 177.158182 
L 210.466481 181.095131 
L 210.86483 182.136692 
L 211.263179 187.617193 
L 212.059877 185.45961 
L 212.856576 164.616334 
L 213.254925 160.828355 
L 213.653274 161.708662 
L 214.051623 158.509412 
L 214.449972 161.062021 
L 214.848321 166.168733 
L 215.24667 168.155262 
L 215.64502 169.565195 
L 216.043369 163.216989 
L 216.441718 164.075891 
L 216.840067 163.230607 
L 217.238416 168.719822 
L 217.636765 168.837296 
L 218.035114 166.146118 
L 218.433463 156.925827 
L 219.628511 148.66772 
L 220.02686 139.134626 
L 220.425209 134.028851 
L 220.823558 133.237403 
L 221.221907 131.568936 
L 221.620257 129.246034 
L 222.018606 121.730328 
L 222.416955 120.206147 
L 222.815304 111.524947 
L 223.213653 110.697355 
L 223.612002 103.515273 
L 224.010351 100.68065 
L 224.408701 92.995975 
L 224.80705 92.542164 
L 225.603748 86.011513 
L 226.002097 77.558562 
L 226.400446 74.044706 
L 226.798795 84.25979 
L 227.197144 72.169826 
L 227.595494 53.568 
L 228.392192 62.359471 
L 228.790541 73.341736 
L 229.18889 79.301942 
L 229.587239 82.893637 
L 229.985588 81.130797 
L 230.383938 82.323032 
L 230.782287 86.299731 
L 231.180636 97.178653 
L 231.578985 104.717071 
L 231.977334 109.572689 
L 232.375683 118.125607 
L 232.774032 121.034553 
L 233.172381 120.202718 
L 233.570731 114.847653 
L 233.96908 103.999715 
L 234.765778 109.242034 
L 235.164127 124.794827 
L 235.960825 144.168094 
L 236.359175 150.85581 
L 236.757524 160.950177 
L 237.155873 163.702411 
L 237.554222 162.479766 
L 237.952571 156.679992 
L 239.147619 185.336436 
L 239.545968 189.719039 
L 239.944317 191.694478 
L 240.741015 207.815679 
L 241.537713 205.079852 
L 241.936062 202.250596 
L 242.334412 208.547643 
L 242.732761 220.842061 
L 243.13111 225.633936 
L 243.927808 215.259613 
L 244.326157 219.430573 
L 244.724506 213.51781 
L 245.122856 203.460736 
L 245.521205 196.871149 
L 245.919554 195.862592 
L 246.716252 189.489677 
L 247.51295 193.454649 
L 247.911299 197.185425 
L 248.309649 198.069536 
L 248.707998 195.828798 
L 249.106347 194.639408 
L 249.504696 198.771749 
L 249.903045 198.063191 
L 250.301394 201.400907 
L 250.699743 206.054929 
L 251.496442 204.369919 
L 252.29314 205.234053 
L 252.691489 209.951479 
L 253.089838 211.23978 
L 253.488187 211.77648 
L 253.886537 210.079239 
L 254.284886 208.996674 
L 255.081584 196.890887 
L 255.479933 206.39071 
L 255.878282 222.294479 
L 256.276631 230.136413 
L 257.07333 231.923573 
L 257.471679 232.483635 
L 257.870028 231.655168 
L 258.268377 232.450398 
L 258.666726 232.886932 
L 259.065075 237.237116 
L 259.861774 240.96819 
L 261.056821 206.759869 
L 261.45517 204.051901 
L 261.853519 203.527073 
L 262.251868 201.447117 
L 262.650218 196.857858 
L 263.048567 197.51836 
L 263.446916 192.387735 
L 263.845265 195.707639 
L 264.243614 193.51712 
L 264.641963 198.903632 
L 265.040312 198.380506 
L 265.438661 203.603573 
L 265.837011 204.36337 
L 266.633709 197.82435 
L 267.032058 196.411466 
L 267.430407 198.176449 
L 267.828756 200.793906 
L 268.227105 198.712889 
L 268.625455 201.667355 
L 269.422153 194.028046 
L 269.820502 186.917829 
L 270.218851 185.059909 
L 270.6172 185.863614 
L 271.015549 186.977852 
L 271.413898 182.390144 
L 271.812248 186.965365 
L 272.210597 187.214514 
L 272.608946 195.840048 
L 273.007295 192.721872 
L 273.405644 192.956466 
L 273.803993 191.306372 
L 274.202342 186.450868 
L 274.600692 183.593038 
L 274.999041 186.690924 
L 275.39739 188.576381 
L 275.795739 195.987984 
L 276.592437 190.094986 
L 276.990786 177.817911 
L 277.389136 169.158654 
L 277.787485 166.498884 
L 278.185834 171.699863 
L 278.584183 167.909771 
L 278.982532 176.818169 
L 279.380881 181.085905 
L 279.77923 186.652384 
L 280.177579 185.542724 
L 280.575929 186.601544 
L 281.372627 195.423327 
L 281.770976 205.428871 
L 282.169325 210.361868 
L 282.966023 215.196529 
L 283.364373 213.664955 
L 283.762722 214.929347 
L 284.161071 220.954065 
L 284.55942 214.360947 
L 284.957769 212.470926 
L 285.356118 212.364313 
L 285.754467 211.890613 
L 286.152817 213.609806 
L 286.551166 213.17868 
L 286.949515 211.488496 
L 287.347864 211.010837 
L 287.746213 208.513607 
L 288.144562 211.028339 
L 288.542911 214.669447 
L 288.94126 211.222158 
L 289.737959 213.288253 
L 290.136308 211.128107 
L 290.534657 210.319772 
L 290.933006 214.579732 
L 291.331355 215.34062 
L 291.729704 215.228714 
L 292.128054 218.296169 
L 292.526403 217.761024 
L 292.924752 218.179994 
L 293.323101 218.985895 
L 293.72145 223.425579 
L 294.119799 221.015581 
L 294.518148 219.908382 
L 294.916497 222.865764 
L 296.111545 214.63751 
L 296.509894 213.521115 
L 296.908243 217.90006 
L 297.306592 220.857173 
L 297.704941 222.722875 
L 298.103291 215.33135 
L 298.50164 215.92958 
L 298.899989 218.127492 
L 299.298338 215.129922 
L 299.696687 209.719151 
L 300.095036 211.249072 
L 300.493385 218.029036 
L 300.891735 219.98782 
L 301.688433 217.02681 
L 302.086782 216.623349 
L 302.485131 218.861387 
L 302.88348 219.123231 
L 303.281829 219.156211 
L 303.680178 216.269147 
L 304.078528 217.185603 
L 304.476877 217.460923 
L 304.875226 214.988053 
L 305.273575 215.364839 
L 305.671924 215.362925 
L 306.070273 214.679805 
L 306.468622 211.650284 
L 306.866972 212.579098 
L 307.265321 210.412125 
L 307.66367 209.110122 
L 308.858717 217.851349 
L 309.257066 222.108892 
L 309.655416 225.16542 
L 310.053765 225.512402 
L 310.452114 224.715347 
L 310.850463 224.567115 
L 311.248812 225.538631 
L 311.647161 228.357529 
L 312.04551 228.349602 
L 312.443859 229.844916 
L 312.842209 233.532132 
L 313.240558 234.695134 
L 314.037256 230.438426 
L 314.833954 232.657597 
L 315.232303 231.706031 
L 315.630653 234.492536 
L 316.029002 238.472195 
L 316.8257 232.342137 
L 317.224049 231.436821 
L 317.622398 232.957158 
L 318.020747 231.005832 
L 318.419096 226.191784 
L 318.817446 224.486824 
L 319.614144 229.035855 
L 320.012493 221.789001 
L 320.410842 220.036032 
L 320.809191 219.55532 
L 321.20754 220.301331 
L 321.60589 219.284555 
L 322.004239 216.695802 
L 322.402588 219.121728 
L 322.800937 208.778371 
L 323.199286 204.813709 
L 323.597635 214.944985 
L 324.394334 205.845879 
L 324.792683 206.826135 
L 325.191032 205.618346 
L 325.589381 208.0503 
L 325.98773 213.046647 
L 326.386079 207.626023 
L 326.784428 205.746778 
L 327.182777 206.600458 
L 327.581127 211.963322 
L 327.979476 207.795433 
L 328.377825 205.988676 
L 329.174523 214.20352 
L 329.572872 215.346006 
L 329.971221 217.452095 
L 330.369571 222.184362 
L 330.76792 228.7475 
L 331.166269 230.19082 
L 331.564618 238.417643 
L 331.962967 240.464711 
L 332.361316 235.357465 
L 332.759665 236.72273 
L 333.158015 236.755198 
L 333.556364 236.993875 
L 333.954713 234.636994 
L 334.353062 231.536589 
L 334.751411 233.173392 
L 336.344808 215.276983 
L 336.743157 213.84041 
L 337.141506 214.200653 
L 337.539855 224.816763 
L 337.938204 228.887212 
L 338.336553 229.018808 
L 338.734902 228.353786 
L 339.531601 223.203556 
L 340.328299 228.806824 
L 340.726648 227.269325 
L 341.124997 221.966131 
L 341.523346 230.62575 
L 341.921695 228.948494 
L 342.320045 230.252442 
L 343.116743 213.865703 
L 343.515092 212.372231 
L 343.913441 218.030021 
L 344.31179 221.547147 
L 344.710139 215.406334 
L 345.108489 206.733883 
L 345.506838 208.945926 
L 345.905187 214.601736 
L 346.303536 215.345224 
L 346.701885 211.173235 
L 347.100234 210.488144 
L 347.498583 212.27184 
L 347.896933 223.428703 
L 348.295282 217.102749 
L 348.693631 202.648468 
L 349.09198 194.862806 
L 349.490329 197.251616 
L 349.888678 208.152247 
L 350.287027 209.999562 
L 350.685376 200.284115 
L 351.083726 205.145663 
L 351.482075 206.51349 
L 351.880424 207.042988 
L 352.278773 199.36393 
L 352.677122 197.400175 
L 353.075471 199.081142 
L 353.47382 205.564112 
L 354.270519 236.881801 
L 354.668868 226.158861 
L 355.067217 222.211029 
L 355.465566 223.391144 
L 355.863915 221.632175 
L 356.262264 216.774418 
L 356.660613 218.654904 
L 357.058963 217.791919 
L 357.457312 218.426845 
L 357.855661 222.072452 
L 358.25401 227.168894 
L 359.050708 205.59084 
L 359.449057 197.500416 
L 359.847407 198.543324 
L 360.245756 198.721147 
L 360.644105 195.790436 
L 361.042454 201.235013 
L 361.440803 202.181732 
L 361.839152 201.796794 
L 362.237501 197.121562 
L 362.635851 183.635616 
L 363.0342 180.304992 
L 363.432549 186.051636 
L 363.830898 199.127352 
L 364.229247 232.286153 
L 364.627596 253.389245 
L 365.424294 258.834122 
L 365.822644 259.402432 
L 366.220993 262.7864 
L 367.017691 272.572449 
L 367.41604 278.496806 
L 367.814389 277.050358 
L 368.212738 271.445367 
L 368.611088 256.725868 
L 369.009437 230.114302 
L 369.407786 216.020042 
L 369.806135 217.604847 
L 370.204484 225.399895 
L 370.602833 221.980314 
L 371.001182 224.31151 
L 371.399532 227.691954 
L 371.797881 237.817955 
L 372.19623 238.152505 
L 372.594579 238.649358 
L 372.992928 240.058754 
L 373.391277 238.783205 
L 373.789626 240.219625 
L 374.187975 237.05871 
L 374.586325 230.553165 
L 374.984674 226.822058 
L 375.383023 217.561686 
L 375.781372 212.650362 
L 376.57807 206.351154 
L 376.976419 208.411983 
L 377.374769 203.431392 
L 377.773118 205.505848 
L 378.171467 205.67528 
L 378.569816 208.164141 
L 378.968165 212.239473 
L 379.366514 212.992532 
L 379.764863 215.815712 
L 380.163212 214.372878 
L 381.35826 231.216716 
L 381.756609 232.453765 
L 382.154958 232.720624 
L 382.553307 229.565998 
L 383.350006 228.313811 
L 384.146704 231.4876 
L 384.545053 228.133283 
L 385.341751 234.426172 
L 385.7401 233.669874 
L 386.13845 231.925623 
L 386.536799 229.42302 
L 386.935148 234.260624 
L 387.333497 241.044602 
L 387.731846 244.678183 
L 388.528544 233.117196 
L 388.926893 233.47484 
L 389.325243 235.42857 
L 389.723592 232.702826 
L 390.121941 225.418568 
L 390.52029 223.486414 
L 390.918639 226.54858 
L 391.316988 227.734683 
L 392.113687 232.451578 
L 392.512036 230.540236 
L 392.910385 235.426851 
L 393.707083 255.303993 
L 394.105432 256.225784 
L 394.503781 255.367974 
L 394.902131 256.302223 
L 395.30048 256.436553 
L 395.698829 250.053761 
L 396.097178 253.047981 
L 396.495527 249.364837 
L 396.893876 254.355251 
L 397.292225 253.255992 
L 398.088924 245.283295 
L 398.487273 238.610107 
L 398.487273 238.610107 
" style="fill:none;opacity:0.6;stroke:#ff7f0e;stroke-linecap:square;stroke-width:0.5;"/>
   </g>
   <g id="patch_3">
    <path d="M 57.6 307.584 
L 57.6 41.472 
" style="fill:none;stroke:#000000;stroke-linecap:square;stroke-linejoin:miter;stroke-width:0.8;"/>
   </g>
   <g id="patch_4">
    <path d="M 414.72 307.584 
L 414.72 41.472 
" style="fill:none;stroke:#000000;stroke-linecap:square;stroke-linejoin:miter;stroke-width:0.8;"/>
   </g>
   <g id="patch_5">
    <path d="M 57.6 307.584 
L 414.72 307.584 
" style="fill:none;stroke:#000000;stroke-linecap:square;stroke-linejoin:miter;stroke-width:0.8;"/>
   </g>
   <g id="patch_6">
    <path d="M 57.6 41.472 
L 414.72 41.472 
" style="fill:none;stroke:#000000;stroke-linecap:square;stroke-linejoin:miter;stroke-width:0.8;"/>
   </g>
  </g>
 </g>
 <defs>
  <clipPath id="p0284089216">
   <rect height="266.112" width="357.12" x="57.6" y="41.472"/>
  </clipPath>
 </defs>
</svg>
