<?xml version="1.0" encoding="utf-8" standalone="no"?>
<!DOCTYPE svg PUBLIC "-//W3C//DTD SVG 1.1//EN"
  "http://www.w3.org/Graphics/SVG/1.1/DTD/svg11.dtd">
<!-- Created with matplotlib (http://matplotlib.org/) -->
<svg height="345.6pt" version="1.1" viewBox="0 0 460.8 345.6" width="460.8pt" xmlns="http://www.w3.org/2000/svg" xmlns:xlink="http://www.w3.org/1999/xlink">
 <defs>
  <style type="text/css">
*{stroke-linecap:butt;stroke-linejoin:round;}
  </style>
 </defs>
 <g id="figure_1">
  <g id="patch_1">
   <path d="M 0 345.6 
L 460.8 345.6 
L 460.8 0 
L 0 0 
z
" style="fill:#ffffff;"/>
  </g>
  <g id="axes_1">
   <g id="patch_2">
    <path d="M 57.6 307.584 
L 414.72 307.584 
L 414.72 41.472 
L 57.6 41.472 
z
" style="fill:#ffffff;"/>
   </g>
   <g id="matplotlib.axis_1">
    <g id="xtick_1">
     <g id="line2d_1">
      <defs>
       <path d="M 0 0 
L 0 3.5 
" id="m257fd6b967" style="stroke:#000000;stroke-width:0.8;"/>
      </defs>
      <g>
       <use style="stroke:#000000;stroke-width:0.8;" x="73.832727" xlink:href="#m257fd6b967" y="307.584"/>
      </g>
     </g>
     <g id="text_1">
      <!-- 0 -->
      <defs>
       <path d="M 31.78125 66.40625 
Q 24.171875 66.40625 20.328125 58.90625 
Q 16.5 51.421875 16.5 36.375 
Q 16.5 21.390625 20.328125 13.890625 
Q 24.171875 6.390625 31.78125 6.390625 
Q 39.453125 6.390625 43.28125 13.890625 
Q 47.125 21.390625 47.125 36.375 
Q 47.125 51.421875 43.28125 58.90625 
Q 39.453125 66.40625 31.78125 66.40625 
z
M 31.78125 74.21875 
Q 44.046875 74.21875 50.515625 64.515625 
Q 56.984375 54.828125 56.984375 36.375 
Q 56.984375 17.96875 50.515625 8.265625 
Q 44.046875 -1.421875 31.78125 -1.421875 
Q 19.53125 -1.421875 13.0625 8.265625 
Q 6.59375 17.96875 6.59375 36.375 
Q 6.59375 54.828125 13.0625 64.515625 
Q 19.53125 74.21875 31.78125 74.21875 
z
" id="DejaVuSans-30"/>
      </defs>
      <g transform="translate(70.651477 322.182437)scale(0.1 -0.1)">
       <use xlink:href="#DejaVuSans-30"/>
      </g>
     </g>
    </g>
    <g id="xtick_2">
     <g id="line2d_2">
      <g>
       <use style="stroke:#000000;stroke-width:0.8;" x="149.158608" xlink:href="#m257fd6b967" y="307.584"/>
      </g>
     </g>
     <g id="text_2">
      <!-- 100 -->
      <defs>
       <path d="M 12.40625 8.296875 
L 28.515625 8.296875 
L 28.515625 63.921875 
L 10.984375 60.40625 
L 10.984375 69.390625 
L 28.421875 72.90625 
L 38.28125 72.90625 
L 38.28125 8.296875 
L 54.390625 8.296875 
L 54.390625 0 
L 12.40625 0 
z
" id="DejaVuSans-31"/>
      </defs>
      <g transform="translate(139.614858 322.182437)scale(0.1 -0.1)">
       <use xlink:href="#DejaVuSans-31"/>
       <use x="63.623047" xlink:href="#DejaVuSans-30"/>
       <use x="127.246094" xlink:href="#DejaVuSans-30"/>
      </g>
     </g>
    </g>
    <g id="xtick_3">
     <g id="line2d_3">
      <g>
       <use style="stroke:#000000;stroke-width:0.8;" x="224.484489" xlink:href="#m257fd6b967" y="307.584"/>
      </g>
     </g>
     <g id="text_3">
      <!-- 200 -->
      <defs>
       <path d="M 19.1875 8.296875 
L 53.609375 8.296875 
L 53.609375 0 
L 7.328125 0 
L 7.328125 8.296875 
Q 12.9375 14.109375 22.625 23.890625 
Q 32.328125 33.6875 34.8125 36.53125 
Q 39.546875 41.84375 41.421875 45.53125 
Q 43.3125 49.21875 43.3125 52.78125 
Q 43.3125 58.59375 39.234375 62.25 
Q 35.15625 65.921875 28.609375 65.921875 
Q 23.96875 65.921875 18.8125 64.3125 
Q 13.671875 62.703125 7.8125 59.421875 
L 7.8125 69.390625 
Q 13.765625 71.78125 18.9375 73 
Q 24.125 74.21875 28.421875 74.21875 
Q 39.75 74.21875 46.484375 68.546875 
Q 53.21875 62.890625 53.21875 53.421875 
Q 53.21875 48.921875 51.53125 44.890625 
Q 49.859375 40.875 45.40625 35.40625 
Q 44.1875 33.984375 37.640625 27.21875 
Q 31.109375 20.453125 19.1875 8.296875 
z
" id="DejaVuSans-32"/>
      </defs>
      <g transform="translate(214.940739 322.182437)scale(0.1 -0.1)">
       <use xlink:href="#DejaVuSans-32"/>
       <use x="63.623047" xlink:href="#DejaVuSans-30"/>
       <use x="127.246094" xlink:href="#DejaVuSans-30"/>
      </g>
     </g>
    </g>
    <g id="xtick_4">
     <g id="line2d_4">
      <g>
       <use style="stroke:#000000;stroke-width:0.8;" x="299.810369" xlink:href="#m257fd6b967" y="307.584"/>
      </g>
     </g>
     <g id="text_4">
      <!-- 300 -->
      <defs>
       <path d="M 40.578125 39.3125 
Q 47.65625 37.796875 51.625 33 
Q 55.609375 28.21875 55.609375 21.1875 
Q 55.609375 10.40625 48.1875 4.484375 
Q 40.765625 -1.421875 27.09375 -1.421875 
Q 22.515625 -1.421875 17.65625 -0.515625 
Q 12.796875 0.390625 7.625 2.203125 
L 7.625 11.71875 
Q 11.71875 9.328125 16.59375 8.109375 
Q 21.484375 6.890625 26.8125 6.890625 
Q 36.078125 6.890625 40.9375 10.546875 
Q 45.796875 14.203125 45.796875 21.1875 
Q 45.796875 27.640625 41.28125 31.265625 
Q 36.765625 34.90625 28.71875 34.90625 
L 20.21875 34.90625 
L 20.21875 43.015625 
L 29.109375 43.015625 
Q 36.375 43.015625 40.234375 45.921875 
Q 44.09375 48.828125 44.09375 54.296875 
Q 44.09375 59.90625 40.109375 62.90625 
Q 36.140625 65.921875 28.71875 65.921875 
Q 24.65625 65.921875 20.015625 65.03125 
Q 15.375 64.15625 9.8125 62.3125 
L 9.8125 71.09375 
Q 15.4375 72.65625 20.34375 73.4375 
Q 25.25 74.21875 29.59375 74.21875 
Q 40.828125 74.21875 47.359375 69.109375 
Q 53.90625 64.015625 53.90625 55.328125 
Q 53.90625 49.265625 50.4375 45.09375 
Q 46.96875 40.921875 40.578125 39.3125 
z
" id="DejaVuSans-33"/>
      </defs>
      <g transform="translate(290.266619 322.182437)scale(0.1 -0.1)">
       <use xlink:href="#DejaVuSans-33"/>
       <use x="63.623047" xlink:href="#DejaVuSans-30"/>
       <use x="127.246094" xlink:href="#DejaVuSans-30"/>
      </g>
     </g>
    </g>
    <g id="xtick_5">
     <g id="line2d_5">
      <g>
       <use style="stroke:#000000;stroke-width:0.8;" x="375.13625" xlink:href="#m257fd6b967" y="307.584"/>
      </g>
     </g>
     <g id="text_5">
      <!-- 400 -->
      <defs>
       <path d="M 37.796875 64.3125 
L 12.890625 25.390625 
L 37.796875 25.390625 
z
M 35.203125 72.90625 
L 47.609375 72.90625 
L 47.609375 25.390625 
L 58.015625 25.390625 
L 58.015625 17.1875 
L 47.609375 17.1875 
L 47.609375 0 
L 37.796875 0 
L 37.796875 17.1875 
L 4.890625 17.1875 
L 4.890625 26.703125 
z
" id="DejaVuSans-34"/>
      </defs>
      <g transform="translate(365.5925 322.182437)scale(0.1 -0.1)">
       <use xlink:href="#DejaVuSans-34"/>
       <use x="63.623047" xlink:href="#DejaVuSans-30"/>
       <use x="127.246094" xlink:href="#DejaVuSans-30"/>
      </g>
     </g>
    </g>
   </g>
   <g id="matplotlib.axis_2">
    <g id="ytick_1">
     <g id="line2d_6">
      <defs>
       <path d="M 0 0 
L -3.5 0 
" id="m1a927dea62" style="stroke:#000000;stroke-width:0.8;"/>
      </defs>
      <g>
       <use style="stroke:#000000;stroke-width:0.8;" x="57.6" xlink:href="#m1a927dea62" y="285.170082"/>
      </g>
     </g>
     <g id="text_6">
      <!-- 4 -->
      <g transform="translate(44.2375 288.969301)scale(0.1 -0.1)">
       <use xlink:href="#DejaVuSans-34"/>
      </g>
     </g>
    </g>
    <g id="ytick_2">
     <g id="line2d_7">
      <g>
       <use style="stroke:#000000;stroke-width:0.8;" x="57.6" xlink:href="#m1a927dea62" y="251.110952"/>
      </g>
     </g>
     <g id="text_7">
      <!-- 5 -->
      <defs>
       <path d="M 10.796875 72.90625 
L 49.515625 72.90625 
L 49.515625 64.59375 
L 19.828125 64.59375 
L 19.828125 46.734375 
Q 21.96875 47.46875 24.109375 47.828125 
Q 26.265625 48.1875 28.421875 48.1875 
Q 40.625 48.1875 47.75 41.5 
Q 54.890625 34.8125 54.890625 23.390625 
Q 54.890625 11.625 47.5625 5.09375 
Q 40.234375 -1.421875 26.90625 -1.421875 
Q 22.3125 -1.421875 17.546875 -0.640625 
Q 12.796875 0.140625 7.71875 1.703125 
L 7.71875 11.625 
Q 12.109375 9.234375 16.796875 8.0625 
Q 21.484375 6.890625 26.703125 6.890625 
Q 35.15625 6.890625 40.078125 11.328125 
Q 45.015625 15.765625 45.015625 23.390625 
Q 45.015625 31 40.078125 35.4375 
Q 35.15625 39.890625 26.703125 39.890625 
Q 22.75 39.890625 18.8125 39.015625 
Q 14.890625 38.140625 10.796875 36.28125 
z
" id="DejaVuSans-35"/>
      </defs>
      <g transform="translate(44.2375 254.910171)scale(0.1 -0.1)">
       <use xlink:href="#DejaVuSans-35"/>
      </g>
     </g>
    </g>
    <g id="ytick_3">
     <g id="line2d_8">
      <g>
       <use style="stroke:#000000;stroke-width:0.8;" x="57.6" xlink:href="#m1a927dea62" y="217.051823"/>
      </g>
     </g>
     <g id="text_8">
      <!-- 6 -->
      <defs>
       <path d="M 33.015625 40.375 
Q 26.375 40.375 22.484375 35.828125 
Q 18.609375 31.296875 18.609375 23.390625 
Q 18.609375 15.53125 22.484375 10.953125 
Q 26.375 6.390625 33.015625 6.390625 
Q 39.65625 6.390625 43.53125 10.953125 
Q 47.40625 15.53125 47.40625 23.390625 
Q 47.40625 31.296875 43.53125 35.828125 
Q 39.65625 40.375 33.015625 40.375 
z
M 52.59375 71.296875 
L 52.59375 62.3125 
Q 48.875 64.0625 45.09375 64.984375 
Q 41.3125 65.921875 37.59375 65.921875 
Q 27.828125 65.921875 22.671875 59.328125 
Q 17.53125 52.734375 16.796875 39.40625 
Q 19.671875 43.65625 24.015625 45.921875 
Q 28.375 48.1875 33.59375 48.1875 
Q 44.578125 48.1875 50.953125 41.515625 
Q 57.328125 34.859375 57.328125 23.390625 
Q 57.328125 12.15625 50.6875 5.359375 
Q 44.046875 -1.421875 33.015625 -1.421875 
Q 20.359375 -1.421875 13.671875 8.265625 
Q 6.984375 17.96875 6.984375 36.375 
Q 6.984375 53.65625 15.1875 63.9375 
Q 23.390625 74.21875 37.203125 74.21875 
Q 40.921875 74.21875 44.703125 73.484375 
Q 48.484375 72.75 52.59375 71.296875 
z
" id="DejaVuSans-36"/>
      </defs>
      <g transform="translate(44.2375 220.851041)scale(0.1 -0.1)">
       <use xlink:href="#DejaVuSans-36"/>
      </g>
     </g>
    </g>
    <g id="ytick_4">
     <g id="line2d_9">
      <g>
       <use style="stroke:#000000;stroke-width:0.8;" x="57.6" xlink:href="#m1a927dea62" y="182.992693"/>
      </g>
     </g>
     <g id="text_9">
      <!-- 7 -->
      <defs>
       <path d="M 8.203125 72.90625 
L 55.078125 72.90625 
L 55.078125 68.703125 
L 28.609375 0 
L 18.3125 0 
L 43.21875 64.59375 
L 8.203125 64.59375 
z
" id="DejaVuSans-37"/>
      </defs>
      <g transform="translate(44.2375 186.791912)scale(0.1 -0.1)">
       <use xlink:href="#DejaVuSans-37"/>
      </g>
     </g>
    </g>
    <g id="ytick_5">
     <g id="line2d_10">
      <g>
       <use style="stroke:#000000;stroke-width:0.8;" x="57.6" xlink:href="#m1a927dea62" y="148.933563"/>
      </g>
     </g>
     <g id="text_10">
      <!-- 8 -->
      <defs>
       <path d="M 31.78125 34.625 
Q 24.75 34.625 20.71875 30.859375 
Q 16.703125 27.09375 16.703125 20.515625 
Q 16.703125 13.921875 20.71875 10.15625 
Q 24.75 6.390625 31.78125 6.390625 
Q 38.8125 6.390625 42.859375 10.171875 
Q 46.921875 13.96875 46.921875 20.515625 
Q 46.921875 27.09375 42.890625 30.859375 
Q 38.875 34.625 31.78125 34.625 
z
M 21.921875 38.8125 
Q 15.578125 40.375 12.03125 44.71875 
Q 8.5 49.078125 8.5 55.328125 
Q 8.5 64.0625 14.71875 69.140625 
Q 20.953125 74.21875 31.78125 74.21875 
Q 42.671875 74.21875 48.875 69.140625 
Q 55.078125 64.0625 55.078125 55.328125 
Q 55.078125 49.078125 51.53125 44.71875 
Q 48 40.375 41.703125 38.8125 
Q 48.828125 37.15625 52.796875 32.3125 
Q 56.78125 27.484375 56.78125 20.515625 
Q 56.78125 9.90625 50.3125 4.234375 
Q 43.84375 -1.421875 31.78125 -1.421875 
Q 19.734375 -1.421875 13.25 4.234375 
Q 6.78125 9.90625 6.78125 20.515625 
Q 6.78125 27.484375 10.78125 32.3125 
Q 14.796875 37.15625 21.921875 38.8125 
z
M 18.3125 54.390625 
Q 18.3125 48.734375 21.84375 45.5625 
Q 25.390625 42.390625 31.78125 42.390625 
Q 38.140625 42.390625 41.71875 45.5625 
Q 45.3125 48.734375 45.3125 54.390625 
Q 45.3125 60.0625 41.71875 63.234375 
Q 38.140625 66.40625 31.78125 66.40625 
Q 25.390625 66.40625 21.84375 63.234375 
Q 18.3125 60.0625 18.3125 54.390625 
z
" id="DejaVuSans-38"/>
      </defs>
      <g transform="translate(44.2375 152.732782)scale(0.1 -0.1)">
       <use xlink:href="#DejaVuSans-38"/>
      </g>
     </g>
    </g>
    <g id="ytick_6">
     <g id="line2d_11">
      <g>
       <use style="stroke:#000000;stroke-width:0.8;" x="57.6" xlink:href="#m1a927dea62" y="114.874434"/>
      </g>
     </g>
     <g id="text_11">
      <!-- 9 -->
      <defs>
       <path d="M 10.984375 1.515625 
L 10.984375 10.5 
Q 14.703125 8.734375 18.5 7.8125 
Q 22.3125 6.890625 25.984375 6.890625 
Q 35.75 6.890625 40.890625 13.453125 
Q 46.046875 20.015625 46.78125 33.40625 
Q 43.953125 29.203125 39.59375 26.953125 
Q 35.25 24.703125 29.984375 24.703125 
Q 19.046875 24.703125 12.671875 31.3125 
Q 6.296875 37.9375 6.296875 49.421875 
Q 6.296875 60.640625 12.9375 67.421875 
Q 19.578125 74.21875 30.609375 74.21875 
Q 43.265625 74.21875 49.921875 64.515625 
Q 56.59375 54.828125 56.59375 36.375 
Q 56.59375 19.140625 48.40625 8.859375 
Q 40.234375 -1.421875 26.421875 -1.421875 
Q 22.703125 -1.421875 18.890625 -0.6875 
Q 15.09375 0.046875 10.984375 1.515625 
z
M 30.609375 32.421875 
Q 37.25 32.421875 41.125 36.953125 
Q 45.015625 41.5 45.015625 49.421875 
Q 45.015625 57.28125 41.125 61.84375 
Q 37.25 66.40625 30.609375 66.40625 
Q 23.96875 66.40625 20.09375 61.84375 
Q 16.21875 57.28125 16.21875 49.421875 
Q 16.21875 41.5 20.09375 36.953125 
Q 23.96875 32.421875 30.609375 32.421875 
z
" id="DejaVuSans-39"/>
      </defs>
      <g transform="translate(44.2375 118.673652)scale(0.1 -0.1)">
       <use xlink:href="#DejaVuSans-39"/>
      </g>
     </g>
    </g>
    <g id="ytick_7">
     <g id="line2d_12">
      <g>
       <use style="stroke:#000000;stroke-width:0.8;" x="57.6" xlink:href="#m1a927dea62" y="80.815304"/>
      </g>
     </g>
     <g id="text_12">
      <!-- 10 -->
      <g transform="translate(37.875 84.614523)scale(0.1 -0.1)">
       <use xlink:href="#DejaVuSans-31"/>
       <use x="63.623047" xlink:href="#DejaVuSans-30"/>
      </g>
     </g>
    </g>
    <g id="ytick_8">
     <g id="line2d_13">
      <g>
       <use style="stroke:#000000;stroke-width:0.8;" x="57.6" xlink:href="#m1a927dea62" y="46.756174"/>
      </g>
     </g>
     <g id="text_13">
      <!-- 11 -->
      <g transform="translate(37.875 50.555393)scale(0.1 -0.1)">
       <use xlink:href="#DejaVuSans-31"/>
       <use x="63.623047" xlink:href="#DejaVuSans-31"/>
      </g>
     </g>
    </g>
   </g>
   <g id="line2d_14">
    <path clip-path="url(#pbc3496a44d)" d="M 73.832727 165.963128 
L 74.585986 176.180867 
L 75.339245 165.963128 
L 76.092504 169.369041 
L 76.845762 169.369041 
L 77.599021 176.180867 
L 78.35228 165.963128 
L 79.105539 165.963128 
L 79.858798 176.180867 
L 81.365315 162.557215 
L 82.118574 152.339476 
L 82.871833 138.715824 
L 83.625092 131.903998 
L 84.378351 128.498085 
L 85.131609 118.280346 
L 85.884868 114.874434 
L 86.638127 104.656695 
L 87.391386 101.250782 
L 88.897903 87.62713 
L 89.651162 87.62713 
L 91.15768 67.191652 
L 91.910939 53.568 
L 92.664197 53.568 
L 93.417456 67.191652 
L 94.170715 67.191652 
L 96.430491 77.409391 
L 97.18375 77.409391 
L 97.937009 101.250782 
L 98.690268 97.844869 
L 99.443527 108.062608 
L 100.196785 121.686259 
L 100.950044 131.903998 
L 101.703303 138.715824 
L 102.456562 148.933563 
L 103.209821 155.745389 
L 103.96308 155.745389 
L 104.716338 159.151302 
L 105.469597 169.369041 
L 106.222856 176.180867 
L 106.976115 165.963128 
L 107.729374 165.963128 
L 108.482632 172.774954 
L 109.235891 169.369041 
L 109.98915 176.180867 
L 110.742409 172.774954 
L 111.495668 172.774954 
L 112.248926 176.180867 
L 113.002185 176.180867 
L 113.755444 172.774954 
L 114.508703 176.180867 
L 115.261962 169.369041 
L 116.01522 169.369041 
L 116.768479 179.58678 
L 118.274997 179.58678 
L 119.028256 182.992693 
L 119.781514 182.992693 
L 120.534773 193.210432 
L 121.288032 176.180867 
L 122.041291 176.180867 
L 122.79455 179.58678 
L 123.547808 176.180867 
L 124.301067 176.180867 
L 125.054326 182.992693 
L 125.807585 186.398606 
L 126.560844 182.992693 
L 127.314103 182.992693 
L 128.067361 186.398606 
L 128.82062 196.616345 
L 131.080397 196.616345 
L 131.833655 206.834084 
L 132.586914 206.834084 
L 135.599949 220.457736 
L 136.353208 217.051823 
L 137.106467 223.863649 
L 137.859726 227.269562 
L 140.119502 227.269562 
L 140.872761 237.487301 
L 141.62602 230.675475 
L 142.379279 237.487301 
L 143.132537 237.487301 
L 143.885796 230.675475 
L 144.639055 237.487301 
L 145.392314 237.487301 
L 146.145573 240.893214 
L 146.898831 240.893214 
L 147.65209 237.487301 
L 149.158608 251.110952 
L 149.911867 244.299127 
L 150.665126 244.299127 
L 151.418384 240.893214 
L 152.171643 244.299127 
L 152.924902 244.299127 
L 153.678161 240.893214 
L 154.43142 240.893214 
L 155.184678 237.487301 
L 156.691196 237.487301 
L 158.197714 244.299127 
L 158.950972 237.487301 
L 159.704231 237.487301 
L 160.45749 244.299127 
L 161.210749 234.081388 
L 162.717266 220.457736 
L 163.470525 220.457736 
L 164.223784 210.239997 
L 165.730302 203.428171 
L 167.236819 189.804519 
L 167.990078 193.210432 
L 168.743337 186.398606 
L 169.496596 186.398606 
L 170.249854 189.804519 
L 171.003113 186.398606 
L 171.756372 186.398606 
L 172.509631 182.992693 
L 173.26289 182.992693 
L 174.016148 172.774954 
L 174.769407 172.774954 
L 175.522666 169.369041 
L 177.029184 169.369041 
L 178.535701 155.745389 
L 180.042219 162.557215 
L 180.795478 162.557215 
L 181.548737 172.774954 
L 182.301995 169.369041 
L 183.055254 169.369041 
L 183.808513 172.774954 
L 184.561772 179.58678 
L 185.315031 182.992693 
L 186.068289 179.58678 
L 186.821548 179.58678 
L 189.834583 193.210432 
L 190.587842 189.804519 
L 191.341101 196.616345 
L 192.09436 200.022258 
L 192.847619 196.616345 
L 193.600877 196.616345 
L 195.107395 203.428171 
L 195.860654 213.64591 
L 197.367171 213.64591 
L 199.626948 223.863649 
L 200.380207 230.675475 
L 201.133466 234.081388 
L 201.886724 230.675475 
L 202.639983 237.487301 
L 203.393242 237.487301 
L 204.146501 223.863649 
L 204.89976 230.675475 
L 205.653018 230.675475 
L 206.406277 227.269562 
L 207.159536 227.269562 
L 208.666054 234.081388 
L 209.419312 230.675475 
L 210.92583 230.675475 
L 211.679089 234.081388 
L 212.432348 234.081388 
L 213.185606 230.675475 
L 213.938865 230.675475 
L 214.692124 240.893214 
L 215.445383 234.081388 
L 216.198642 247.705039 
L 216.9519 244.299127 
L 217.705159 244.299127 
L 218.458418 237.487301 
L 219.211677 237.487301 
L 220.718194 244.299127 
L 221.471453 244.299127 
L 222.224712 247.705039 
L 222.977971 254.516865 
L 223.73123 251.110952 
L 225.237747 257.922778 
L 225.991006 254.516865 
L 226.744265 261.328691 
L 227.497524 264.734604 
L 228.250783 261.328691 
L 229.004041 264.734604 
L 229.7573 264.734604 
L 230.510559 261.328691 
L 231.263818 274.952343 
L 232.770335 268.140517 
L 234.276853 268.140517 
L 235.030112 264.734604 
L 236.536629 271.54643 
L 237.289888 271.54643 
L 238.043147 274.952343 
L 238.796406 271.54643 
L 239.549665 278.358256 
L 240.302923 274.952343 
L 241.056182 278.358256 
L 241.809441 274.952343 
L 242.5627 274.952343 
L 243.315959 278.358256 
L 244.069217 278.358256 
L 244.822476 281.764169 
L 245.575735 281.764169 
L 246.328994 285.170082 
L 247.082253 285.170082 
L 247.835511 281.764169 
L 248.58877 285.170082 
L 249.342029 291.981908 
L 250.095288 285.170082 
L 251.601806 285.170082 
L 252.355064 281.764169 
L 253.108323 288.575995 
L 255.3681 288.575995 
L 256.121358 278.358256 
L 256.874617 278.358256 
L 258.381135 271.54643 
L 259.134394 274.952343 
L 259.887652 268.140517 
L 260.640911 264.734604 
L 261.39417 254.516865 
L 262.147429 251.110952 
L 262.900688 240.893214 
L 264.407205 227.269562 
L 266.666982 227.269562 
L 267.42024 220.457736 
L 268.173499 223.863649 
L 269.680017 223.863649 
L 270.433276 227.269562 
L 271.939793 227.269562 
L 272.693052 220.457736 
L 273.446311 217.051823 
L 274.19957 223.863649 
L 274.952829 220.457736 
L 275.706087 220.457736 
L 277.212605 213.64591 
L 277.965864 206.834084 
L 279.472381 213.64591 
L 280.22564 213.64591 
L 280.978899 217.051823 
L 281.732158 223.863649 
L 282.485417 227.269562 
L 283.238675 227.269562 
L 283.991934 230.675475 
L 284.745193 223.863649 
L 285.498452 230.675475 
L 287.004969 230.675475 
L 288.511487 237.487301 
L 289.264746 237.487301 
L 290.018005 234.081388 
L 290.771263 237.487301 
L 291.524522 237.487301 
L 292.277781 240.893214 
L 293.03104 237.487301 
L 293.784299 244.299127 
L 294.537557 244.299127 
L 296.044075 251.110952 
L 296.797334 251.110952 
L 297.550593 254.516865 
L 298.303852 251.110952 
L 299.810369 251.110952 
L 300.563628 254.516865 
L 301.316887 261.328691 
L 302.070146 257.922778 
L 302.823404 261.328691 
L 303.576663 261.328691 
L 304.329922 264.734604 
L 305.083181 264.734604 
L 305.83644 261.328691 
L 306.589698 261.328691 
L 307.342957 268.140517 
L 308.096216 271.54643 
L 308.849475 268.140517 
L 309.602734 271.54643 
L 310.355992 264.734604 
L 311.86251 271.54643 
L 312.615769 268.140517 
L 313.369028 271.54643 
L 314.122286 264.734604 
L 314.875545 261.328691 
L 315.628804 264.734604 
L 316.382063 261.328691 
L 317.88858 261.328691 
L 318.641839 251.110952 
L 319.395098 251.110952 
L 320.148357 254.516865 
L 320.901616 247.705039 
L 321.654874 251.110952 
L 322.408133 237.487301 
L 323.914651 223.863649 
L 324.66791 213.64591 
L 325.421169 213.64591 
L 326.174427 200.022258 
L 326.927686 189.804519 
L 329.187463 138.715824 
L 329.940721 125.092172 
L 330.69398 114.874434 
L 331.447239 101.250782 
L 332.200498 97.844869 
L 332.953757 97.844869 
L 333.707015 94.438956 
L 335.213533 80.815304 
L 335.966792 84.221217 
L 336.720051 84.221217 
L 337.473309 87.62713 
L 338.226568 87.62713 
L 338.979827 84.221217 
L 339.733086 84.221217 
L 340.486345 94.438956 
L 341.239603 101.250782 
L 341.992862 101.250782 
L 342.746121 97.844869 
L 343.49938 97.844869 
L 344.252639 101.250782 
L 345.005897 87.62713 
L 345.759156 104.656695 
L 346.512415 111.468521 
L 347.265674 114.874434 
L 348.018933 114.874434 
L 348.772192 111.468521 
L 349.52545 114.874434 
L 350.278709 111.468521 
L 351.031968 114.874434 
L 352.538486 114.874434 
L 354.045003 128.498085 
L 354.798262 131.903998 
L 355.551521 138.715824 
L 356.30478 138.715824 
L 357.058038 142.121737 
L 360.071074 142.121737 
L 360.824332 145.52765 
L 361.577591 155.745389 
L 362.33085 155.745389 
L 363.084109 159.151302 
L 363.837368 152.339476 
L 364.590626 148.933563 
L 365.343885 159.151302 
L 366.097144 165.963128 
L 366.850403 162.557215 
L 367.603662 165.963128 
L 368.35692 165.963128 
L 369.110179 172.774954 
L 369.863438 176.180867 
L 371.369956 176.180867 
L 372.123215 186.398606 
L 372.876473 193.210432 
L 373.629732 196.616345 
L 374.382991 193.210432 
L 375.13625 193.210432 
L 375.889509 206.834084 
L 376.642767 206.834084 
L 377.396026 213.64591 
L 378.149285 210.239997 
L 378.902544 210.239997 
L 379.655803 220.457736 
L 380.409061 227.269562 
L 381.16232 223.863649 
L 381.915579 230.675475 
L 382.668838 227.269562 
L 383.422097 234.081388 
L 384.175355 234.081388 
L 384.928614 237.487301 
L 385.681873 234.081388 
L 386.435132 240.893214 
L 388.694908 251.110952 
L 390.954685 251.110952 
L 391.707943 254.516865 
L 392.461202 254.516865 
L 393.214461 251.110952 
L 393.96772 251.110952 
L 394.720979 261.328691 
L 395.474238 254.516865 
L 396.980755 254.516865 
L 397.734014 251.110952 
L 398.487273 254.516865 
L 398.487273 254.516865 
" style="fill:none;opacity:0.6;stroke:#1f77b4;stroke-linecap:square;stroke-width:0.5;"/>
   </g>
   <g id="line2d_15">
    <path clip-path="url(#pbc3496a44d)" d="M 73.832727 186.147457 
L 74.585986 168.334394 
L 75.339245 158.750246 
L 76.092504 152.259017 
L 76.845762 149.250873 
L 78.35228 138.508197 
L 79.105539 141.713584 
L 79.858798 157.233677 
L 80.612057 149.328439 
L 81.365315 144.204771 
L 82.118574 136.992619 
L 82.871833 131.506849 
L 83.625092 127.884111 
L 85.884868 105.013723 
L 86.638127 103.243134 
L 88.144645 94.049069 
L 88.897903 93.39168 
L 89.651162 97.703575 
L 90.404421 99.939037 
L 91.15768 104.30498 
L 91.910939 104.29764 
L 92.664197 107.150214 
L 93.417456 107.103311 
L 94.170715 110.10335 
L 94.923974 110.92019 
L 95.677233 110.382787 
L 97.18375 108.075509 
L 97.937009 115.398065 
L 98.690268 117.406547 
L 99.443527 120.459823 
L 100.196785 125.513169 
L 103.209821 135.640097 
L 103.96308 136.366639 
L 104.716338 137.632371 
L 105.469597 140.792381 
L 106.222856 140.840258 
L 106.976115 146.185319 
L 107.729374 152.351995 
L 108.482632 156.215079 
L 109.235891 160.749844 
L 109.98915 197.39944 
L 110.742409 186.245632 
L 111.495668 180.110528 
L 113.002185 174.039202 
L 113.755444 176.238983 
L 114.508703 173.066191 
L 115.261962 169.055837 
L 116.01522 167.53714 
L 116.768479 168.160035 
L 117.521738 167.200845 
L 118.274997 169.844451 
L 119.028256 169.066458 
L 119.781514 170.227925 
L 120.534773 165.343352 
L 121.288032 164.0053 
L 122.041291 159.068563 
L 122.79455 158.420284 
L 123.547808 153.133934 
L 124.301067 148.973402 
L 125.054326 151.284707 
L 125.807585 156.185553 
L 126.560844 159.288331 
L 128.067361 170.887848 
L 128.82062 178.839794 
L 129.573879 184.093907 
L 130.327138 190.676392 
L 131.080397 191.270232 
L 131.833655 189.021875 
L 132.586914 194.028838 
L 133.340173 193.771927 
L 134.093432 198.623385 
L 134.846691 198.021457 
L 135.599949 199.997588 
L 136.353208 203.457823 
L 137.106467 215.060929 
L 137.859726 221.210032 
L 138.612985 229.932338 
L 141.62602 243.77875 
L 142.379279 245.580586 
L 143.132537 255.506389 
L 143.885796 256.595861 
L 145.392314 262.941038 
L 146.145573 202.965309 
L 146.898831 196.130103 
L 147.65209 225.130933 
L 148.405349 228.7958 
L 149.158608 230.886233 
L 149.911867 232.392895 
L 150.665126 235.375281 
L 151.418384 235.77623 
L 152.924902 243.919767 
L 153.678161 246.437005 
L 154.43142 246.396614 
L 155.184678 245.99266 
L 155.937937 247.207478 
L 157.444455 245.289407 
L 158.950972 240.802974 
L 159.704231 236.578714 
L 161.210749 229.790248 
L 161.964008 231.055769 
L 162.717266 227.061801 
L 164.977043 212.687016 
L 165.730302 201.772416 
L 166.48356 205.339173 
L 167.236819 200.755134 
L 169.496596 193.88795 
L 170.249854 190.189449 
L 171.003113 188.929953 
L 171.756372 191.057041 
L 172.509631 191.043025 
L 174.016148 193.622967 
L 174.769407 190.137787 
L 175.522666 181.78481 
L 176.275925 176.556406 
L 177.029184 166.173347 
L 177.782443 173.670441 
L 178.535701 169.00973 
L 179.28896 167.548281 
L 180.042219 163.993526 
L 180.795478 161.275116 
L 181.548737 161.441355 
L 182.301995 207.015567 
L 183.055254 206.328035 
L 183.808513 204.295045 
L 184.561772 195.036636 
L 185.315031 189.247799 
L 186.068289 177.965836 
L 186.821548 183.498508 
L 187.574807 183.80838 
L 188.328066 190.303425 
L 189.081325 190.465117 
L 189.834583 193.581927 
L 190.587842 196.114804 
L 191.341101 201.76376 
L 192.09436 208.734884 
L 192.847619 213.862677 
L 194.354136 218.097478 
L 195.107395 216.797413 
L 195.860654 219.688737 
L 196.613913 220.048078 
L 197.367171 223.630231 
L 198.873689 222.537544 
L 199.626948 223.68873 
L 201.886724 232.944444 
L 202.639983 229.386684 
L 203.393242 227.807329 
L 204.146501 221.814753 
L 204.89976 232.706648 
L 205.653018 230.856448 
L 206.406277 229.303597 
L 207.159536 228.143056 
L 209.419312 237.02871 
L 210.172571 232.330092 
L 210.92583 235.480277 
L 211.679089 230.811185 
L 212.432348 228.987375 
L 213.185606 226.756055 
L 213.938865 227.722455 
L 214.692124 224.0781 
L 215.445383 221.004133 
L 216.198642 221.498629 
L 216.9519 223.986032 
L 217.705159 225.050428 
L 218.458418 209.778103 
L 219.211677 216.927452 
L 219.964936 249.711365 
L 220.718194 251.367977 
L 221.471453 253.668353 
L 222.224712 253.285772 
L 222.977971 266.616429 
L 223.73123 260.691252 
L 224.484489 252.165166 
L 225.237747 250.104616 
L 225.991006 253.207232 
L 226.744265 254.354277 
L 227.497524 256.273923 
L 228.250783 257.701883 
L 229.004041 257.296224 
L 229.7573 255.435986 
L 230.510559 255.393533 
L 231.263818 256.221352 
L 232.017077 256.655854 
L 232.770335 254.850234 
L 233.523594 254.802811 
L 234.276853 255.626538 
L 235.030112 256.678526 
L 235.783371 257.43081 
L 236.536629 259.669909 
L 238.043147 264.825701 
L 238.796406 265.820539 
L 239.549665 269.467395 
L 240.302923 271.899986 
L 241.056182 273.478627 
L 241.809441 270.496517 
L 242.5627 268.914839 
L 243.315959 269.819639 
L 246.328994 279.875985 
L 247.082253 280.757641 
L 247.835511 281.936827 
L 248.58877 285.489106 
L 249.342029 288.084509 
L 250.095288 289.227673 
L 250.848547 288.521334 
L 252.355064 291.626808 
L 253.108323 294.263162 
L 253.861582 295.488 
L 254.614841 211.191267 
L 255.3681 226.002699 
L 256.121358 260.410207 
L 257.627876 266.950548 
L 258.381135 268.494856 
L 259.134394 279.331338 
L 259.887652 265.931154 
L 260.640911 256.598606 
L 262.147429 253.879709 
L 262.900688 248.668325 
L 263.653946 240.489074 
L 264.407205 235.570217 
L 265.160464 232.219542 
L 265.913723 228.165517 
L 266.666982 227.265037 
L 267.42024 225.043185 
L 268.173499 224.429239 
L 269.680017 222.129221 
L 270.433276 221.31191 
L 271.186534 222.726406 
L 271.939793 222.569197 
L 272.693052 222.048781 
L 273.446311 219.986299 
L 274.19957 219.790371 
L 274.952829 217.716553 
L 275.706087 215.302379 
L 276.459346 214.111598 
L 277.212605 214.850385 
L 278.719123 212.609986 
L 279.472381 214.076745 
L 280.22564 217.004546 
L 280.978899 219.311499 
L 281.732158 219.279229 
L 282.485417 221.02968 
L 283.991934 223.20726 
L 284.745193 223.670752 
L 286.251711 230.963327 
L 287.004969 233.798768 
L 287.758228 236.013506 
L 288.511487 239.755581 
L 289.264746 242.64028 
L 290.018005 242.856605 
L 290.771263 210.843019 
L 291.524522 223.011349 
L 292.277781 253.125671 
L 293.03104 257.497835 
L 293.784299 245.115827 
L 294.537557 241.168389 
L 295.290816 247.938616 
L 296.044075 249.470467 
L 296.797334 246.380292 
L 297.550593 245.719265 
L 298.303852 247.186949 
L 299.05711 246.320738 
L 299.810369 244.607137 
L 302.070146 261.589555 
L 302.823404 264.772448 
L 304.329922 274.207979 
L 305.083181 274.302564 
L 305.83644 273.632913 
L 306.589698 275.412483 
L 307.342957 278.042268 
L 308.096216 278.604634 
L 308.849475 280.226215 
L 309.602734 280.09957 
L 310.355992 279.684442 
L 311.109251 274.680468 
L 311.86251 271.52978 
L 312.615769 258.289697 
L 313.369028 270.639679 
L 314.122286 264.682361 
L 315.628804 254.89933 
L 316.382063 252.508396 
L 317.135322 251.048605 
L 317.88858 250.466669 
L 318.641839 253.986491 
L 319.395098 253.28124 
L 320.148357 254.138227 
L 320.901616 245.139717 
L 321.654874 231.830416 
L 322.408133 231.59176 
L 323.161392 219.981378 
L 323.914651 222.63731 
L 324.66791 217.587196 
L 325.421169 214.386958 
L 326.174427 216.58414 
L 326.927686 185.198337 
L 327.680945 166.788819 
L 329.187463 146.352403 
L 329.940721 140.430669 
L 330.69398 136.786233 
L 331.447239 139.047777 
L 332.200498 144.337294 
L 332.953757 146.687967 
L 333.707015 145.780407 
L 335.213533 135.21313 
L 335.966792 129.78495 
L 336.720051 125.888816 
L 337.473309 119.583477 
L 340.486345 106.290986 
L 341.992862 100.305328 
L 344.252639 89.532802 
L 345.005897 86.247804 
L 345.759156 84.110696 
L 346.512415 80.111174 
L 347.265674 90.68472 
L 348.018933 99.616887 
L 348.772192 105.496038 
L 350.278709 113.721607 
L 351.031968 114.423203 
L 351.785227 116.814218 
L 352.538486 117.592145 
L 353.291744 119.483078 
L 354.045003 119.458619 
L 354.798262 121.66147 
L 355.551521 117.581719 
L 356.30478 134.827382 
L 357.058038 144.357011 
L 357.811297 149.611237 
L 358.564556 153.341408 
L 359.317815 158.896184 
L 360.071074 162.407171 
L 360.824332 162.608539 
L 361.577591 161.917531 
L 362.33085 162.11747 
L 363.084109 191.104983 
L 363.837368 176.308022 
L 364.590626 174.424154 
L 365.343885 162.342452 
L 366.097144 155.626144 
L 366.850403 150.26036 
L 367.603662 149.55066 
L 368.35692 152.974402 
L 369.110179 155.052767 
L 369.863438 158.111842 
L 370.616697 160.614365 
L 371.369956 163.528247 
L 372.123215 164.223656 
L 372.876473 168.127521 
L 373.629732 165.867844 
L 375.13625 181.905868 
L 376.642767 188.153666 
L 377.396026 190.657602 
L 378.149285 194.359709 
L 378.902544 199.010692 
L 380.409061 205.407498 
L 381.16232 207.581407 
L 381.915579 220.394183 
L 382.668838 214.479351 
L 383.422097 227.759809 
L 384.175355 234.048533 
L 384.928614 234.946154 
L 385.681873 236.449503 
L 386.435132 241.679157 
L 387.188391 239.067042 
L 387.941649 241.535395 
L 388.694908 239.917549 
L 390.201426 243.088441 
L 390.954685 253.45495 
L 391.707943 245.750934 
L 392.461202 257.97341 
L 393.214461 261.645634 
L 393.96772 260.17998 
L 394.720979 261.195151 
L 395.474238 272.929319 
L 396.980755 262.539877 
L 397.734014 257.919751 
L 398.487273 249.78997 
L 398.487273 249.78997 
" style="fill:none;opacity:0.6;stroke:#ff7f0e;stroke-linecap:square;stroke-width:0.5;"/>
   </g>
   <g id="line2d_16">
    <path clip-path="url(#pbc3496a44d)" d="M 363.084109 198.491998 
L 364.590626 164.282399 
L 365.343885 153.364502 
L 366.097144 151.547465 
L 366.850403 159.037608 
L 367.603662 169.527498 
L 368.35692 165.019578 
L 369.110179 172.313973 
L 369.863438 173.782664 
L 370.616697 172.126133 
L 371.369956 172.631705 
L 372.123215 179.414697 
L 372.876473 175.696106 
L 373.629732 177.437202 
L 374.382991 175.526115 
L 375.13625 177.822869 
L 375.889509 181.112691 
L 376.642767 194.197968 
L 377.396026 185.984531 
L 378.149285 197.889194 
L 378.902544 202.088654 
L 379.655803 201.676645 
L 380.409061 203.373908 
L 381.16232 214.492165 
L 381.915579 212.529855 
L 383.422097 209.710655 
L 386.435132 230.700537 
L 387.188391 234.944416 
L 387.941649 232.623236 
L 388.694908 226.461758 
L 389.448167 225.408925 
L 390.201426 226.655428 
L 390.954685 228.901072 
L 391.707943 226.627916 
L 393.214461 249.018181 
L 393.96772 240.075214 
L 394.720979 239.673664 
L 395.474238 245.312371 
L 396.227496 239.791766 
L 396.980755 232.3317 
L 397.734014 226.80541 
L 398.487273 238.241043 
L 398.487273 238.241043 
" style="fill:none;opacity:0.6;stroke:#2ca02c;stroke-linecap:square;stroke-width:0.5;"/>
   </g>
   <g id="patch_3">
    <path d="M 57.6 307.584 
L 57.6 41.472 
" style="fill:none;stroke:#000000;stroke-linecap:square;stroke-linejoin:miter;stroke-width:0.8;"/>
   </g>
   <g id="patch_4">
    <path d="M 414.72 307.584 
L 414.72 41.472 
" style="fill:none;stroke:#000000;stroke-linecap:square;stroke-linejoin:miter;stroke-width:0.8;"/>
   </g>
   <g id="patch_5">
    <path d="M 57.6 307.584 
L 414.72 307.584 
" style="fill:none;stroke:#000000;stroke-linecap:square;stroke-linejoin:miter;stroke-width:0.8;"/>
   </g>
   <g id="patch_6">
    <path d="M 57.6 41.472 
L 414.72 41.472 
" style="fill:none;stroke:#000000;stroke-linecap:square;stroke-linejoin:miter;stroke-width:0.8;"/>
   </g>
  </g>
 </g>
 <defs>
  <clipPath id="pbc3496a44d">
   <rect height="266.112" width="357.12" x="57.6" y="41.472"/>
  </clipPath>
 </defs>
</svg>
