<?xml version="1.0" encoding="utf-8" standalone="no"?>
<!DOCTYPE svg PUBLIC "-//W3C//DTD SVG 1.1//EN"
  "http://www.w3.org/Graphics/SVG/1.1/DTD/svg11.dtd">
<!-- Created with matplotlib (http://matplotlib.org/) -->
<svg height="345.6pt" version="1.1" viewBox="0 0 460.8 345.6" width="460.8pt" xmlns="http://www.w3.org/2000/svg" xmlns:xlink="http://www.w3.org/1999/xlink">
 <defs>
  <style type="text/css">
*{stroke-linecap:butt;stroke-linejoin:round;}
  </style>
 </defs>
 <g id="figure_1">
  <g id="patch_1">
   <path d="M 0 345.6 
L 460.8 345.6 
L 460.8 0 
L 0 0 
z
" style="fill:#ffffff;"/>
  </g>
  <g id="axes_1">
   <g id="patch_2">
    <path d="M 57.6 307.584 
L 414.72 307.584 
L 414.72 41.472 
L 57.6 41.472 
z
" style="fill:#ffffff;"/>
   </g>
   <g id="matplotlib.axis_1">
    <g id="xtick_1">
     <g id="line2d_1">
      <defs>
       <path d="M 0 0 
L 0 3.5 
" id="m253e511a3b" style="stroke:#000000;stroke-width:0.8;"/>
      </defs>
      <g>
       <use style="stroke:#000000;stroke-width:0.8;" x="73.832727" xlink:href="#m253e511a3b" y="307.584"/>
      </g>
     </g>
     <g id="text_1">
      <!-- 0 -->
      <defs>
       <path d="M 31.78125 66.40625 
Q 24.171875 66.40625 20.328125 58.90625 
Q 16.5 51.421875 16.5 36.375 
Q 16.5 21.390625 20.328125 13.890625 
Q 24.171875 6.390625 31.78125 6.390625 
Q 39.453125 6.390625 43.28125 13.890625 
Q 47.125 21.390625 47.125 36.375 
Q 47.125 51.421875 43.28125 58.90625 
Q 39.453125 66.40625 31.78125 66.40625 
z
M 31.78125 74.21875 
Q 44.046875 74.21875 50.515625 64.515625 
Q 56.984375 54.828125 56.984375 36.375 
Q 56.984375 17.96875 50.515625 8.265625 
Q 44.046875 -1.421875 31.78125 -1.421875 
Q 19.53125 -1.421875 13.0625 8.265625 
Q 6.59375 17.96875 6.59375 36.375 
Q 6.59375 54.828125 13.0625 64.515625 
Q 19.53125 74.21875 31.78125 74.21875 
z
" id="DejaVuSans-30"/>
      </defs>
      <g transform="translate(70.651477 322.182437)scale(0.1 -0.1)">
       <use xlink:href="#DejaVuSans-30"/>
      </g>
     </g>
    </g>
    <g id="xtick_2">
     <g id="line2d_2">
      <g>
       <use style="stroke:#000000;stroke-width:0.8;" x="113.667641" xlink:href="#m253e511a3b" y="307.584"/>
      </g>
     </g>
     <g id="text_2">
      <!-- 100 -->
      <defs>
       <path d="M 12.40625 8.296875 
L 28.515625 8.296875 
L 28.515625 63.921875 
L 10.984375 60.40625 
L 10.984375 69.390625 
L 28.421875 72.90625 
L 38.28125 72.90625 
L 38.28125 8.296875 
L 54.390625 8.296875 
L 54.390625 0 
L 12.40625 0 
z
" id="DejaVuSans-31"/>
      </defs>
      <g transform="translate(104.123891 322.182437)scale(0.1 -0.1)">
       <use xlink:href="#DejaVuSans-31"/>
       <use x="63.623047" xlink:href="#DejaVuSans-30"/>
       <use x="127.246094" xlink:href="#DejaVuSans-30"/>
      </g>
     </g>
    </g>
    <g id="xtick_3">
     <g id="line2d_3">
      <g>
       <use style="stroke:#000000;stroke-width:0.8;" x="153.502554" xlink:href="#m253e511a3b" y="307.584"/>
      </g>
     </g>
     <g id="text_3">
      <!-- 200 -->
      <defs>
       <path d="M 19.1875 8.296875 
L 53.609375 8.296875 
L 53.609375 0 
L 7.328125 0 
L 7.328125 8.296875 
Q 12.9375 14.109375 22.625 23.890625 
Q 32.328125 33.6875 34.8125 36.53125 
Q 39.546875 41.84375 41.421875 45.53125 
Q 43.3125 49.21875 43.3125 52.78125 
Q 43.3125 58.59375 39.234375 62.25 
Q 35.15625 65.921875 28.609375 65.921875 
Q 23.96875 65.921875 18.8125 64.3125 
Q 13.671875 62.703125 7.8125 59.421875 
L 7.8125 69.390625 
Q 13.765625 71.78125 18.9375 73 
Q 24.125 74.21875 28.421875 74.21875 
Q 39.75 74.21875 46.484375 68.546875 
Q 53.21875 62.890625 53.21875 53.421875 
Q 53.21875 48.921875 51.53125 44.890625 
Q 49.859375 40.875 45.40625 35.40625 
Q 44.1875 33.984375 37.640625 27.21875 
Q 31.109375 20.453125 19.1875 8.296875 
z
" id="DejaVuSans-32"/>
      </defs>
      <g transform="translate(143.958804 322.182437)scale(0.1 -0.1)">
       <use xlink:href="#DejaVuSans-32"/>
       <use x="63.623047" xlink:href="#DejaVuSans-30"/>
       <use x="127.246094" xlink:href="#DejaVuSans-30"/>
      </g>
     </g>
    </g>
    <g id="xtick_4">
     <g id="line2d_4">
      <g>
       <use style="stroke:#000000;stroke-width:0.8;" x="193.337468" xlink:href="#m253e511a3b" y="307.584"/>
      </g>
     </g>
     <g id="text_4">
      <!-- 300 -->
      <defs>
       <path d="M 40.578125 39.3125 
Q 47.65625 37.796875 51.625 33 
Q 55.609375 28.21875 55.609375 21.1875 
Q 55.609375 10.40625 48.1875 4.484375 
Q 40.765625 -1.421875 27.09375 -1.421875 
Q 22.515625 -1.421875 17.65625 -0.515625 
Q 12.796875 0.390625 7.625 2.203125 
L 7.625 11.71875 
Q 11.71875 9.328125 16.59375 8.109375 
Q 21.484375 6.890625 26.8125 6.890625 
Q 36.078125 6.890625 40.9375 10.546875 
Q 45.796875 14.203125 45.796875 21.1875 
Q 45.796875 27.640625 41.28125 31.265625 
Q 36.765625 34.90625 28.71875 34.90625 
L 20.21875 34.90625 
L 20.21875 43.015625 
L 29.109375 43.015625 
Q 36.375 43.015625 40.234375 45.921875 
Q 44.09375 48.828125 44.09375 54.296875 
Q 44.09375 59.90625 40.109375 62.90625 
Q 36.140625 65.921875 28.71875 65.921875 
Q 24.65625 65.921875 20.015625 65.03125 
Q 15.375 64.15625 9.8125 62.3125 
L 9.8125 71.09375 
Q 15.4375 72.65625 20.34375 73.4375 
Q 25.25 74.21875 29.59375 74.21875 
Q 40.828125 74.21875 47.359375 69.109375 
Q 53.90625 64.015625 53.90625 55.328125 
Q 53.90625 49.265625 50.4375 45.09375 
Q 46.96875 40.921875 40.578125 39.3125 
z
" id="DejaVuSans-33"/>
      </defs>
      <g transform="translate(183.793718 322.182437)scale(0.1 -0.1)">
       <use xlink:href="#DejaVuSans-33"/>
       <use x="63.623047" xlink:href="#DejaVuSans-30"/>
       <use x="127.246094" xlink:href="#DejaVuSans-30"/>
      </g>
     </g>
    </g>
    <g id="xtick_5">
     <g id="line2d_5">
      <g>
       <use style="stroke:#000000;stroke-width:0.8;" x="233.172381" xlink:href="#m253e511a3b" y="307.584"/>
      </g>
     </g>
     <g id="text_5">
      <!-- 400 -->
      <defs>
       <path d="M 37.796875 64.3125 
L 12.890625 25.390625 
L 37.796875 25.390625 
z
M 35.203125 72.90625 
L 47.609375 72.90625 
L 47.609375 25.390625 
L 58.015625 25.390625 
L 58.015625 17.1875 
L 47.609375 17.1875 
L 47.609375 0 
L 37.796875 0 
L 37.796875 17.1875 
L 4.890625 17.1875 
L 4.890625 26.703125 
z
" id="DejaVuSans-34"/>
      </defs>
      <g transform="translate(223.628631 322.182437)scale(0.1 -0.1)">
       <use xlink:href="#DejaVuSans-34"/>
       <use x="63.623047" xlink:href="#DejaVuSans-30"/>
       <use x="127.246094" xlink:href="#DejaVuSans-30"/>
      </g>
     </g>
    </g>
    <g id="xtick_6">
     <g id="line2d_6">
      <g>
       <use style="stroke:#000000;stroke-width:0.8;" x="273.007295" xlink:href="#m253e511a3b" y="307.584"/>
      </g>
     </g>
     <g id="text_6">
      <!-- 500 -->
      <defs>
       <path d="M 10.796875 72.90625 
L 49.515625 72.90625 
L 49.515625 64.59375 
L 19.828125 64.59375 
L 19.828125 46.734375 
Q 21.96875 47.46875 24.109375 47.828125 
Q 26.265625 48.1875 28.421875 48.1875 
Q 40.625 48.1875 47.75 41.5 
Q 54.890625 34.8125 54.890625 23.390625 
Q 54.890625 11.625 47.5625 5.09375 
Q 40.234375 -1.421875 26.90625 -1.421875 
Q 22.3125 -1.421875 17.546875 -0.640625 
Q 12.796875 0.140625 7.71875 1.703125 
L 7.71875 11.625 
Q 12.109375 9.234375 16.796875 8.0625 
Q 21.484375 6.890625 26.703125 6.890625 
Q 35.15625 6.890625 40.078125 11.328125 
Q 45.015625 15.765625 45.015625 23.390625 
Q 45.015625 31 40.078125 35.4375 
Q 35.15625 39.890625 26.703125 39.890625 
Q 22.75 39.890625 18.8125 39.015625 
Q 14.890625 38.140625 10.796875 36.28125 
z
" id="DejaVuSans-35"/>
      </defs>
      <g transform="translate(263.463545 322.182437)scale(0.1 -0.1)">
       <use xlink:href="#DejaVuSans-35"/>
       <use x="63.623047" xlink:href="#DejaVuSans-30"/>
       <use x="127.246094" xlink:href="#DejaVuSans-30"/>
      </g>
     </g>
    </g>
    <g id="xtick_7">
     <g id="line2d_7">
      <g>
       <use style="stroke:#000000;stroke-width:0.8;" x="312.842209" xlink:href="#m253e511a3b" y="307.584"/>
      </g>
     </g>
     <g id="text_7">
      <!-- 600 -->
      <defs>
       <path d="M 33.015625 40.375 
Q 26.375 40.375 22.484375 35.828125 
Q 18.609375 31.296875 18.609375 23.390625 
Q 18.609375 15.53125 22.484375 10.953125 
Q 26.375 6.390625 33.015625 6.390625 
Q 39.65625 6.390625 43.53125 10.953125 
Q 47.40625 15.53125 47.40625 23.390625 
Q 47.40625 31.296875 43.53125 35.828125 
Q 39.65625 40.375 33.015625 40.375 
z
M 52.59375 71.296875 
L 52.59375 62.3125 
Q 48.875 64.0625 45.09375 64.984375 
Q 41.3125 65.921875 37.59375 65.921875 
Q 27.828125 65.921875 22.671875 59.328125 
Q 17.53125 52.734375 16.796875 39.40625 
Q 19.671875 43.65625 24.015625 45.921875 
Q 28.375 48.1875 33.59375 48.1875 
Q 44.578125 48.1875 50.953125 41.515625 
Q 57.328125 34.859375 57.328125 23.390625 
Q 57.328125 12.15625 50.6875 5.359375 
Q 44.046875 -1.421875 33.015625 -1.421875 
Q 20.359375 -1.421875 13.671875 8.265625 
Q 6.984375 17.96875 6.984375 36.375 
Q 6.984375 53.65625 15.1875 63.9375 
Q 23.390625 74.21875 37.203125 74.21875 
Q 40.921875 74.21875 44.703125 73.484375 
Q 48.484375 72.75 52.59375 71.296875 
z
" id="DejaVuSans-36"/>
      </defs>
      <g transform="translate(303.298459 322.182437)scale(0.1 -0.1)">
       <use xlink:href="#DejaVuSans-36"/>
       <use x="63.623047" xlink:href="#DejaVuSans-30"/>
       <use x="127.246094" xlink:href="#DejaVuSans-30"/>
      </g>
     </g>
    </g>
    <g id="xtick_8">
     <g id="line2d_8">
      <g>
       <use style="stroke:#000000;stroke-width:0.8;" x="352.677122" xlink:href="#m253e511a3b" y="307.584"/>
      </g>
     </g>
     <g id="text_8">
      <!-- 700 -->
      <defs>
       <path d="M 8.203125 72.90625 
L 55.078125 72.90625 
L 55.078125 68.703125 
L 28.609375 0 
L 18.3125 0 
L 43.21875 64.59375 
L 8.203125 64.59375 
z
" id="DejaVuSans-37"/>
      </defs>
      <g transform="translate(343.133372 322.182437)scale(0.1 -0.1)">
       <use xlink:href="#DejaVuSans-37"/>
       <use x="63.623047" xlink:href="#DejaVuSans-30"/>
       <use x="127.246094" xlink:href="#DejaVuSans-30"/>
      </g>
     </g>
    </g>
    <g id="xtick_9">
     <g id="line2d_9">
      <g>
       <use style="stroke:#000000;stroke-width:0.8;" x="392.512036" xlink:href="#m253e511a3b" y="307.584"/>
      </g>
     </g>
     <g id="text_9">
      <!-- 800 -->
      <defs>
       <path d="M 31.78125 34.625 
Q 24.75 34.625 20.71875 30.859375 
Q 16.703125 27.09375 16.703125 20.515625 
Q 16.703125 13.921875 20.71875 10.15625 
Q 24.75 6.390625 31.78125 6.390625 
Q 38.8125 6.390625 42.859375 10.171875 
Q 46.921875 13.96875 46.921875 20.515625 
Q 46.921875 27.09375 42.890625 30.859375 
Q 38.875 34.625 31.78125 34.625 
z
M 21.921875 38.8125 
Q 15.578125 40.375 12.03125 44.71875 
Q 8.5 49.078125 8.5 55.328125 
Q 8.5 64.0625 14.71875 69.140625 
Q 20.953125 74.21875 31.78125 74.21875 
Q 42.671875 74.21875 48.875 69.140625 
Q 55.078125 64.0625 55.078125 55.328125 
Q 55.078125 49.078125 51.53125 44.71875 
Q 48 40.375 41.703125 38.8125 
Q 48.828125 37.15625 52.796875 32.3125 
Q 56.78125 27.484375 56.78125 20.515625 
Q 56.78125 9.90625 50.3125 4.234375 
Q 43.84375 -1.421875 31.78125 -1.421875 
Q 19.734375 -1.421875 13.25 4.234375 
Q 6.78125 9.90625 6.78125 20.515625 
Q 6.78125 27.484375 10.78125 32.3125 
Q 14.796875 37.15625 21.921875 38.8125 
z
M 18.3125 54.390625 
Q 18.3125 48.734375 21.84375 45.5625 
Q 25.390625 42.390625 31.78125 42.390625 
Q 38.140625 42.390625 41.71875 45.5625 
Q 45.3125 48.734375 45.3125 54.390625 
Q 45.3125 60.0625 41.71875 63.234375 
Q 38.140625 66.40625 31.78125 66.40625 
Q 25.390625 66.40625 21.84375 63.234375 
Q 18.3125 60.0625 18.3125 54.390625 
z
" id="DejaVuSans-38"/>
      </defs>
      <g transform="translate(382.968286 322.182437)scale(0.1 -0.1)">
       <use xlink:href="#DejaVuSans-38"/>
       <use x="63.623047" xlink:href="#DejaVuSans-30"/>
       <use x="127.246094" xlink:href="#DejaVuSans-30"/>
      </g>
     </g>
    </g>
   </g>
   <g id="matplotlib.axis_2">
    <g id="ytick_1">
     <g id="line2d_10">
      <defs>
       <path d="M 0 0 
L -3.5 0 
" id="me75bc7bcc3" style="stroke:#000000;stroke-width:0.8;"/>
      </defs>
      <g>
       <use style="stroke:#000000;stroke-width:0.8;" x="57.6" xlink:href="#me75bc7bcc3" y="288.770946"/>
      </g>
     </g>
     <g id="text_10">
      <!-- −2.5 -->
      <defs>
       <path d="M 10.59375 35.5 
L 73.1875 35.5 
L 73.1875 27.203125 
L 10.59375 27.203125 
z
" id="DejaVuSans-2212"/>
       <path d="M 10.6875 12.40625 
L 21 12.40625 
L 21 0 
L 10.6875 0 
z
" id="DejaVuSans-2e"/>
      </defs>
      <g transform="translate(26.317187 292.570165)scale(0.1 -0.1)">
       <use xlink:href="#DejaVuSans-2212"/>
       <use x="83.789062" xlink:href="#DejaVuSans-32"/>
       <use x="147.412109" xlink:href="#DejaVuSans-2e"/>
       <use x="179.199219" xlink:href="#DejaVuSans-35"/>
      </g>
     </g>
    </g>
    <g id="ytick_2">
     <g id="line2d_11">
      <g>
       <use style="stroke:#000000;stroke-width:0.8;" x="57.6" xlink:href="#me75bc7bcc3" y="254.368999"/>
      </g>
     </g>
     <g id="text_11">
      <!-- 0.0 -->
      <g transform="translate(34.696875 258.168218)scale(0.1 -0.1)">
       <use xlink:href="#DejaVuSans-30"/>
       <use x="63.623047" xlink:href="#DejaVuSans-2e"/>
       <use x="95.410156" xlink:href="#DejaVuSans-30"/>
      </g>
     </g>
    </g>
    <g id="ytick_3">
     <g id="line2d_12">
      <g>
       <use style="stroke:#000000;stroke-width:0.8;" x="57.6" xlink:href="#me75bc7bcc3" y="219.967052"/>
      </g>
     </g>
     <g id="text_12">
      <!-- 2.5 -->
      <g transform="translate(34.696875 223.766271)scale(0.1 -0.1)">
       <use xlink:href="#DejaVuSans-32"/>
       <use x="63.623047" xlink:href="#DejaVuSans-2e"/>
       <use x="95.410156" xlink:href="#DejaVuSans-35"/>
      </g>
     </g>
    </g>
    <g id="ytick_4">
     <g id="line2d_13">
      <g>
       <use style="stroke:#000000;stroke-width:0.8;" x="57.6" xlink:href="#me75bc7bcc3" y="185.565105"/>
      </g>
     </g>
     <g id="text_13">
      <!-- 5.0 -->
      <g transform="translate(34.696875 189.364324)scale(0.1 -0.1)">
       <use xlink:href="#DejaVuSans-35"/>
       <use x="63.623047" xlink:href="#DejaVuSans-2e"/>
       <use x="95.410156" xlink:href="#DejaVuSans-30"/>
      </g>
     </g>
    </g>
    <g id="ytick_5">
     <g id="line2d_14">
      <g>
       <use style="stroke:#000000;stroke-width:0.8;" x="57.6" xlink:href="#me75bc7bcc3" y="151.163158"/>
      </g>
     </g>
     <g id="text_14">
      <!-- 7.5 -->
      <g transform="translate(34.696875 154.962376)scale(0.1 -0.1)">
       <use xlink:href="#DejaVuSans-37"/>
       <use x="63.623047" xlink:href="#DejaVuSans-2e"/>
       <use x="95.410156" xlink:href="#DejaVuSans-35"/>
      </g>
     </g>
    </g>
    <g id="ytick_6">
     <g id="line2d_15">
      <g>
       <use style="stroke:#000000;stroke-width:0.8;" x="57.6" xlink:href="#me75bc7bcc3" y="116.761211"/>
      </g>
     </g>
     <g id="text_15">
      <!-- 10.0 -->
      <g transform="translate(28.334375 120.560429)scale(0.1 -0.1)">
       <use xlink:href="#DejaVuSans-31"/>
       <use x="63.623047" xlink:href="#DejaVuSans-30"/>
       <use x="127.246094" xlink:href="#DejaVuSans-2e"/>
       <use x="159.033203" xlink:href="#DejaVuSans-30"/>
      </g>
     </g>
    </g>
    <g id="ytick_7">
     <g id="line2d_16">
      <g>
       <use style="stroke:#000000;stroke-width:0.8;" x="57.6" xlink:href="#me75bc7bcc3" y="82.359263"/>
      </g>
     </g>
     <g id="text_16">
      <!-- 12.5 -->
      <g transform="translate(28.334375 86.158482)scale(0.1 -0.1)">
       <use xlink:href="#DejaVuSans-31"/>
       <use x="63.623047" xlink:href="#DejaVuSans-32"/>
       <use x="127.246094" xlink:href="#DejaVuSans-2e"/>
       <use x="159.033203" xlink:href="#DejaVuSans-35"/>
      </g>
     </g>
    </g>
    <g id="ytick_8">
     <g id="line2d_17">
      <g>
       <use style="stroke:#000000;stroke-width:0.8;" x="57.6" xlink:href="#me75bc7bcc3" y="47.957316"/>
      </g>
     </g>
     <g id="text_17">
      <!-- 15.0 -->
      <g transform="translate(28.334375 51.756535)scale(0.1 -0.1)">
       <use xlink:href="#DejaVuSans-31"/>
       <use x="63.623047" xlink:href="#DejaVuSans-35"/>
       <use x="127.246094" xlink:href="#DejaVuSans-2e"/>
       <use x="159.033203" xlink:href="#DejaVuSans-30"/>
      </g>
     </g>
    </g>
   </g>
   <g id="line2d_18">
    <path clip-path="url(#paa4b3e3d16)" d="M 73.832727 123.88984 
L 74.231076 160.545531 
L 75.027775 125.224493 
L 75.426124 125.361697 
L 75.824473 120.042049 
L 76.222822 129.661941 
L 76.621171 162.791151 
L 77.01952 170.27867 
L 77.417869 188.72788 
L 77.816219 216.748818 
L 78.214568 235.192254 
L 78.612917 240.416394 
L 79.011266 230.360845 
L 79.409615 248.591948 
L 79.807964 260.10023 
L 80.206313 267.474489 
L 80.604663 293.84661 
L 81.003012 295.488 
L 81.401361 288.827498 
L 81.79971 290.596447 
L 82.198059 280.569109 
L 82.596408 279.544619 
L 82.994757 283.025404 
L 83.393107 271.634786 
L 83.791456 269.908087 
L 84.189805 269.901617 
L 84.986503 256.670075 
L 85.384852 232.885948 
L 85.783201 225.337885 
L 86.18155 220.184335 
L 86.5799 206.116139 
L 86.978249 202.112853 
L 88.173296 124.979153 
L 88.571645 123.979158 
L 88.969994 122.288771 
L 89.368344 125.850199 
L 90.165042 149.176513 
L 90.563391 159.976938 
L 90.96174 158.823787 
L 91.360089 161.132707 
L 91.758438 158.155423 
L 92.156788 172.28912 
L 92.953486 223.469858 
L 93.351835 227.251595 
L 93.750184 225.700757 
L 94.148533 228.954767 
L 94.546882 222.527658 
L 94.945231 213.474305 
L 95.343581 210.202542 
L 95.74193 222.64999 
L 96.140279 226.489799 
L 96.936977 241.89224 
L 97.335326 244.484082 
L 97.733675 244.990202 
L 98.132025 241.854396 
L 98.530374 242.407579 
L 98.928723 242.41212 
L 99.327072 241.920449 
L 99.725421 248.695566 
L 100.12377 246.119689 
L 100.522119 240.9338 
L 100.920468 240.963937 
L 101.318818 246.119689 
L 101.717167 246.12588 
L 102.115516 238.872575 
L 102.513865 233.668386 
L 102.912214 238.866794 
L 103.310563 245.604209 
L 103.708912 242.51519 
L 104.107262 245.630354 
L 104.505611 250.773448 
L 105.302309 258.462967 
L 105.700658 266.112861 
L 106.099007 257.956572 
L 106.497356 259.49021 
L 106.895706 263.052461 
L 107.294055 263.036366 
L 107.692404 261.522816 
L 108.090753 257.955194 
L 108.887451 266.117264 
L 109.2858 259.492133 
L 109.684149 261.031558 
L 110.082499 252.315892 
L 110.480848 249.219029 
L 111.277546 249.228661 
L 111.675895 251.284797 
L 112.074244 252.316718 
L 112.472593 249.232513 
L 112.870943 247.177889 
L 113.269292 241.00398 
L 113.667641 231.700593 
L 114.06599 227.114814 
L 114.464339 223.984098 
L 114.862688 228.743677 
L 115.261037 218.966505 
L 115.659387 222.117174 
L 116.057736 215.4476 
L 116.854434 206.211365 
L 117.651132 203.270686 
L 118.049481 204.986932 
L 118.44783 205.712125 
L 118.84618 208.987189 
L 119.244529 205.493327 
L 119.642878 205.564747 
L 120.041227 213.852037 
L 120.439576 209.350062 
L 120.837925 212.533893 
L 121.236274 206.129213 
L 121.634624 209.819715 
L 122.032973 204.482462 
L 122.431322 204.607547 
L 122.829671 208.172137 
L 123.22802 215.206374 
L 123.626369 220.198921 
L 124.024718 222.254092 
L 124.423067 225.700757 
L 124.821417 225.700757 
L 125.618115 230.201907 
L 126.016464 236.59145 
L 126.414813 239.984857 
L 126.813162 249.602541 
L 127.211511 252.466983 
L 127.609861 249.614099 
L 128.00821 244.849294 
L 128.406559 241.98471 
L 128.804908 242.957186 
L 129.601606 233.425644 
L 129.999955 235.355868 
L 130.398305 233.46899 
L 130.796654 237.292563 
L 131.195003 234.914148 
L 131.593352 233.46899 
L 131.991701 227.778084 
L 132.788399 230.733212 
L 133.186748 235.486321 
L 133.585098 234.090976 
L 133.983447 237.432647 
L 134.780145 234.208357 
L 135.178494 235.653239 
L 135.576843 232.348037 
L 135.975192 234.249502 
L 136.373542 234.249502 
L 136.771891 241.791509 
L 137.17024 241.80417 
L 137.568589 243.680179 
L 137.966938 237.138853 
L 138.365287 239.032748 
L 138.763636 237.173803 
L 139.161985 243.730405 
L 139.560335 245.127397 
L 140.357033 245.145976 
L 141.55208 235.904373 
L 141.950429 235.922949 
L 142.348779 237.306322 
L 142.747128 240.571478 
L 143.145477 238.742261 
L 143.543826 234.17299 
L 143.942175 236.009091 
L 144.340524 236.009091 
L 144.738873 237.403061 
L 145.137223 236.045698 
L 145.933921 238.861289 
L 146.33227 242.070442 
L 146.730619 242.082551 
L 147.128968 236.148903 
L 147.527317 232.967409 
L 147.925666 233.009791 
L 148.324016 240.798256 
L 148.722365 237.609608 
L 149.120714 236.25073 
L 149.519063 231.721234 
L 149.917412 231.765817 
L 150.315761 234.955841 
L 150.71411 234.974971 
L 151.11246 233.150015 
L 151.510809 233.170793 
L 152.307507 239.572447 
L 152.705856 240.943846 
L 153.104205 238.243018 
L 153.502554 237.81134 
L 153.900904 235.145052 
L 154.299253 237.880972 
L 154.697602 239.247278 
L 155.095951 237.897071 
L 155.4943 237.913032 
L 156.290998 232.159928 
L 156.689347 227.743817 
L 157.087697 229.526803 
L 157.486046 232.20988 
L 157.884395 230.460334 
L 158.282744 230.933291 
L 158.681093 230.559963 
L 159.079442 227.948304 
L 159.477791 227.973624 
L 159.876141 219.175258 
L 160.27449 216.132473 
L 160.672839 214.902124 
L 161.071188 216.338886 
L 161.469537 220.848567 
L 161.867886 216.459292 
L 162.266235 206.39163 
L 162.664584 205.192242 
L 163.062934 202.195418 
L 163.859632 208.139664 
L 164.257981 210.341386 
L 165.054679 219.304194 
L 165.453028 219.412904 
L 165.851378 222.466149 
L 166.249727 215.271049 
L 166.648076 214.083217 
L 167.046425 218.544601 
L 167.843123 218.76271 
L 168.241472 211.680448 
L 168.639822 209.224288 
L 169.038171 204.17766 
L 169.43652 204.329854 
L 169.834869 200.159925 
L 170.233218 200.323678 
L 170.631567 196.166272 
L 171.029916 196.515936 
L 171.428265 192.569063 
L 172.224964 192.93689 
L 172.623313 189.035988 
L 173.021662 193.480582 
L 173.420011 189.612423 
L 174.216709 189.991122 
L 174.615059 182.155048 
L 175.013408 178.364638 
L 175.411757 178.584952 
L 176.208455 179.453531 
L 176.606804 179.667651 
L 177.005153 175.959944 
L 177.403503 176.404279 
L 177.801852 172.737307 
L 178.200201 173.195816 
L 178.996899 165.961773 
L 179.395248 170.508334 
L 179.793597 170.970288 
L 180.191946 171.199401 
L 180.590296 171.65392 
L 180.988645 175.842838 
L 181.386994 176.05558 
L 182.98039 177.717469 
L 183.37874 181.752819 
L 183.777089 189.357437 
L 184.573787 197.181405 
L 184.972136 193.764465 
L 185.370485 194.07697 
L 186.167183 194.386175 
L 187.76058 209.421754 
L 188.158929 209.534316 
L 188.557278 202.636729 
L 188.955627 206.206273 
L 189.353977 206.326404 
L 190.150675 213.596362 
L 190.947373 213.796719 
L 191.345722 210.523442 
L 191.744071 210.63064 
L 192.142421 207.381032 
L 192.54077 207.495244 
L 193.337468 201.187306 
L 193.735817 187.891774 
L 194.134166 181.42036 
L 194.532515 178.287716 
L 194.930864 171.870376 
L 195.329214 175.359697 
L 195.727563 152.558913 
L 196.125912 153.042605 
L 196.524261 143.500186 
L 196.92261 140.777626 
L 197.719308 122.239795 
L 198.117658 116.761211 
L 198.516007 114.858765 
L 198.914356 115.81653 
L 199.312705 107.044023 
L 199.711054 104.930646 
L 200.109403 95.590806 
L 200.507752 104.529375 
L 200.906102 89.970345 
L 201.304451 91.412347 
L 201.7028 86.481437 
L 202.101149 87.931968 
L 202.499498 92.650399 
L 202.897847 100.178515 
L 203.296196 110.427813 
L 203.694545 114.186432 
L 204.092895 126.954367 
L 204.491244 127.994547 
L 204.889593 123.181025 
L 205.686291 145.588117 
L 206.881339 156.267177 
L 207.678037 168.037177 
L 208.474735 173.881377 
L 208.873084 168.850022 
L 209.271433 172.061517 
L 209.669782 177.920165 
L 210.068132 175.663397 
L 210.466481 178.76026 
L 210.86483 179.173499 
L 211.263179 184.694184 
L 211.661528 185.070127 
L 212.059877 182.85244 
L 212.458226 170.671949 
L 212.856576 165.906872 
L 213.254925 158.705854 
L 213.653274 161.654515 
L 214.848321 163.110815 
L 215.24667 165.97512 
L 215.64502 166.433083 
L 216.043369 161.998943 
L 216.441718 162.473416 
L 216.840067 160.598785 
L 217.238416 168.50917 
L 218.035114 164.923937 
L 218.433463 156.077683 
L 219.230162 147.994602 
L 219.628511 146.264741 
L 220.02686 137.6381 
L 220.425209 131.504925 
L 220.823558 132.297546 
L 221.221907 130.676661 
L 221.620257 127.076296 
L 222.018606 118.945453 
L 222.416955 113.288404 
L 223.213653 107.160728 
L 224.408701 91.494774 
L 224.80705 90.895079 
L 225.205399 88.255208 
L 226.002097 71.972761 
L 226.400446 63.526119 
L 226.798795 59.490913 
L 227.197144 53.568 
L 227.595494 53.609693 
L 228.392192 58.058689 
L 228.790541 73.405405 
L 229.18889 76.991321 
L 229.985588 80.52935 
L 230.383938 80.548615 
L 230.782287 84.372325 
L 231.180636 92.062396 
L 231.578985 97.600561 
L 231.977334 108.34319 
L 232.774032 119.624557 
L 233.172381 120.93114 
L 233.570731 106.099079 
L 233.96908 105.514384 
L 234.367429 103.476007 
L 236.757524 159.627687 
L 237.155873 163.248288 
L 237.952571 155.53468 
L 238.749269 172.281962 
L 239.147619 186.378093 
L 239.545968 185.123106 
L 240.342666 201.724111 
L 240.741015 203.349124 
L 241.139364 206.416951 
L 241.537713 204.963812 
L 241.936062 199.325884 
L 242.334412 207.017057 
L 242.732761 220.321667 
L 243.13111 221.907736 
L 243.529459 220.565645 
L 243.927808 216.34026 
L 244.326157 216.495345 
L 244.724506 210.83994 
L 245.521205 195.334018 
L 245.919554 189.777553 
L 246.317903 187.03792 
L 246.716252 191.693332 
L 247.114601 194.720425 
L 247.51295 194.840418 
L 249.106347 195.667304 
L 249.903045 198.728806 
L 250.301394 205.849182 
L 250.699743 204.744328 
L 251.098093 202.214408 
L 251.496442 205.080642 
L 251.894791 205.175868 
L 252.29314 203.943727 
L 252.691489 206.781336 
L 253.488187 209.682659 
L 253.886537 209.852743 
L 254.683235 202.195418 
L 255.081584 199.690406 
L 255.479933 210.355287 
L 255.878282 224.734337 
L 256.276631 232.506011 
L 257.07333 230.047649 
L 257.870028 232.688479 
L 258.268377 230.182642 
L 258.666726 232.808337 
L 259.065075 236.694655 
L 259.463424 238.032067 
L 259.861774 235.58719 
L 260.260123 228.026603 
L 261.056821 203.731396 
L 261.45517 203.870795 
L 261.853519 202.797591 
L 262.251868 200.331247 
L 262.650218 195.358375 
L 263.048567 195.572908 
L 263.446916 194.430899 
L 263.845265 192.046572 
L 265.040312 200.212077 
L 265.438661 201.631641 
L 265.837011 199.423587 
L 266.633709 199.810813 
L 267.032058 197.536292 
L 267.430407 197.784815 
L 268.227105 195.73611 
L 268.625455 195.939357 
L 269.023804 193.659748 
L 269.422153 192.682731 
L 269.820502 190.420457 
L 270.218851 187.041634 
L 270.6172 185.095448 
L 271.015549 181.758875 
L 271.812248 184.694184 
L 272.210597 190.768743 
L 272.608946 193.337879 
L 273.007295 191.246103 
L 273.405644 190.312164 
L 273.803993 190.524492 
L 274.202342 182.840196 
L 274.600692 181.943815 
L 274.999041 182.299398 
L 275.39739 189.53344 
L 275.795739 194.297697 
L 276.194088 190.055938 
L 276.592437 188.051951 
L 276.990786 175.893895 
L 277.389136 169.466784 
L 277.787485 166.580872 
L 278.185834 169.115604 
L 278.584183 168.296015 
L 278.982532 176.661056 
L 279.380881 181.264862 
L 279.77923 188.026223 
L 280.177579 188.180618 
L 280.575929 185.085402 
L 281.372627 194.264397 
L 281.770976 202.086433 
L 282.169325 207.634229 
L 282.567674 215.170321 
L 282.966023 212.170607 
L 283.364373 213.35321 
L 283.762722 217.591803 
L 284.161071 215.577501 
L 284.55942 210.473354 
L 284.957769 210.570778 
L 285.356118 212.761907 
L 285.754467 212.884242 
L 286.152817 210.924569 
L 286.949515 213.187115 
L 287.347864 209.235295 
L 288.144562 213.544758 
L 288.542911 209.594178 
L 288.94126 209.691189 
L 289.33961 212.819567 
L 289.737959 210.934753 
L 290.136308 210.042916 
L 290.534657 213.116111 
L 290.933006 215.192336 
L 291.331355 215.275866 
L 291.729704 216.334207 
L 292.526403 216.601854 
L 292.924752 215.688 
L 293.323101 220.641606 
L 293.72145 219.750734 
L 294.119799 217.878443 
L 294.518148 221.833153 
L 294.916497 222.877594 
L 296.111545 214.455174 
L 296.509894 213.561136 
L 296.908243 218.45488 
L 297.704941 218.626753 
L 298.103291 214.864417 
L 298.50164 214.972028 
L 298.899989 216.014681 
L 299.298338 211.366565 
L 299.696687 211.454085 
L 300.095036 212.500455 
L 300.891735 218.350849 
L 301.290084 219.344929 
L 301.688433 216.605158 
L 302.086782 218.543223 
L 302.485131 219.531523 
L 302.88348 215.966794 
L 303.281829 216.98055 
L 303.680178 215.234445 
L 304.476877 215.466039 
L 304.875226 215.542685 
L 305.273575 214.691721 
L 305.671924 215.669561 
L 306.070273 213.023776 
L 306.468622 212.23501 
L 306.866972 209.603948 
L 307.265321 207.873805 
L 307.66367 212.561826 
L 308.062019 212.642741 
L 309.257066 223.574441 
L 309.655416 223.633335 
L 310.053765 224.568518 
L 310.452114 222.855714 
L 310.850463 223.828328 
L 311.248812 225.664428 
L 312.04551 231.016271 
L 312.443859 231.923518 
L 312.842209 234.550724 
L 313.240558 235.42426 
L 313.638907 234.575495 
L 314.037256 231.133097 
L 314.435605 232.03567 
L 314.833954 230.347633 
L 315.232303 232.118921 
L 315.630653 234.73512 
L 316.029002 233.91952 
L 316.427351 233.944838 
L 316.8257 232.256528 
L 317.224049 231.434322 
L 317.622398 231.434322 
L 318.020747 230.584869 
L 318.419096 222.978873 
L 318.817446 225.594934 
L 319.215795 227.320811 
L 319.614144 224.857496 
L 320.012493 223.209367 
L 320.410842 218.178563 
L 320.809191 219.106452 
L 321.60589 217.539651 
L 322.004239 215.935695 
L 322.402588 210.087227 
L 322.800937 202.599022 
L 323.199286 212.895938 
L 323.597635 211.262947 
L 323.995984 202.973315 
L 324.394334 204.840101 
L 324.792683 208.252639 
L 325.191032 206.804866 
L 326.386079 207.086689 
L 326.784428 203.162389 
L 327.182777 205.80157 
L 327.581127 213.328026 
L 327.979476 210.083234 
L 328.377825 205.338242 
L 328.776174 210.417623 
L 329.174523 216.919316 
L 329.572872 216.919316 
L 329.971221 218.698721 
L 330.369571 225.09074 
L 331.166269 232.301251 
L 331.564618 237.912484 
L 331.962967 238.731802 
L 332.759665 231.746416 
L 333.158015 237.294213 
L 333.556364 239.655702 
L 333.954713 234.201064 
L 334.353062 230.322587 
L 334.751411 233.507658 
L 335.14976 226.475488 
L 336.344808 216.4242 
L 336.743157 211.076626 
L 337.141506 212.739755 
L 337.539855 224.437518 
L 337.938204 228.304021 
L 338.336553 227.552269 
L 338.734902 226.082891 
L 339.531601 221.641464 
L 339.92995 226.270315 
L 340.328299 227.833128 
L 340.726648 226.36306 
L 341.124997 226.485671 
L 341.523346 231.134612 
L 341.921695 230.424143 
L 342.718394 214.493566 
L 343.116743 210.779393 
L 343.515092 213.918089 
L 343.913441 219.314378 
L 344.31179 219.428042 
L 344.710139 210.459591 
L 345.108489 204.532688 
L 345.506838 208.376073 
L 345.905187 215.221371 
L 346.701885 210.240383 
L 347.100234 208.108151 
L 347.498583 214.885333 
L 347.896933 219.402448 
L 348.693631 204.184402 
L 349.09198 189.117727 
L 349.490329 194.508235 
L 349.888678 208.42795 
L 350.287027 208.42795 
L 350.685376 199.067322 
L 351.083726 204.303844 
L 351.482075 207.335756 
L 351.880424 204.639745 
L 352.278773 199.638668 
L 352.677122 196.825278 
L 353.075471 197.885542 
L 353.47382 200.336339 
L 353.87217 226.68135 
L 354.270519 235.016805 
L 355.067217 219.63707 
L 355.465566 225.804789 
L 356.262264 215.863589 
L 356.660613 218.6884 
L 357.058963 217.078804 
L 357.457312 217.314387 
L 358.25401 228.25861 
L 359.050708 204.682956 
L 359.449057 194.189397 
L 359.847407 197.828574 
L 360.245756 195.27058 
L 361.042454 199.671279 
L 361.440803 200.650222 
L 361.839152 198.109295 
L 362.237501 186.44621 
L 362.635851 178.71898 
L 363.0342 181.326508 
L 363.432549 186.207458 
L 363.830898 203.026707 
L 364.229247 239.233243 
L 364.627596 254.674903 
L 365.025945 255.932086 
L 365.424294 254.252582 
L 365.822644 260.512909 
L 366.220993 262.29961 
L 366.619342 268.346651 
L 367.017691 271.283337 
L 367.41604 281.323063 
L 367.814389 274.78779 
L 368.212738 273.330526 
L 368.611088 257.451 
L 369.009437 228.02275 
L 369.407786 215.644515 
L 369.806135 218.300485 
L 370.204484 224.764885 
L 370.602833 222.909519 
L 371.001182 224.002126 
L 371.399532 226.79859 
L 371.797881 238.935462 
L 372.19623 235.918822 
L 372.594579 238.541625 
L 372.992928 238.980183 
L 373.391277 238.314297 
L 373.789626 239.444882 
L 374.984674 225.128719 
L 375.781372 212.023918 
L 376.179721 206.770877 
L 376.57807 206.174348 
L 376.976419 205.107062 
L 377.374769 202.697273 
L 377.773118 201.90438 
L 378.171467 205.899821 
L 378.569816 206.874633 
L 378.968165 212.232533 
L 379.366514 212.965981 
L 379.764863 214.487785 
L 380.561562 223.088547 
L 380.959911 230.453592 
L 381.35826 231.61046 
L 381.756609 234.862957 
L 382.951656 224.705164 
L 383.350006 229.654365 
L 383.748355 230.156907 
L 384.146704 231.195022 
L 384.545053 226.59782 
L 385.341751 238.698088 
L 385.7401 235.236148 
L 386.13845 230.758392 
L 386.536799 228.423463 
L 386.935148 233.193775 
L 387.333497 239.30466 
L 387.731846 242.303548 
L 388.528544 233.551142 
L 388.926893 232.582519 
L 389.325243 239.098112 
L 390.121941 226.668965 
L 390.52029 224.852818 
L 390.918639 226.290407 
L 391.316988 227.278703 
L 391.715337 230.891735 
L 392.113687 231.3424 
L 392.512036 232.120299 
L 392.910385 237.075418 
L 393.308734 245.276015 
L 393.707083 257.356876 
L 394.503781 254.369003 
L 394.902131 256.103132 
L 395.698829 251.874306 
L 396.097178 251.42543 
L 396.495527 251.181448 
L 396.893876 254.282031 
L 397.292225 252.531937 
L 398.088924 245.300782 
L 398.487273 235.887447 
L 398.487273 235.887447 
" style="fill:none;opacity:0.6;stroke:#1f77b4;stroke-linecap:square;stroke-width:0.5;"/>
   </g>
   <g id="line2d_19">
    <path clip-path="url(#paa4b3e3d16)" d="M 73.832727 116.201305 
L 74.231076 123.882504 
L 74.629426 157.641069 
L 75.027775 138.949222 
L 75.426124 125.72415 
L 75.824473 125.218168 
L 76.222822 119.962587 
L 76.621171 130.060246 
L 77.01952 164.302706 
L 77.417869 173.130639 
L 77.816219 193.929687 
L 78.214568 222.271907 
L 78.612917 240.622833 
L 79.011266 245.672273 
L 79.409615 234.742115 
L 79.807964 251.083079 
L 80.604663 267.677454 
L 81.003012 289.963864 
L 81.401361 292.512173 
L 81.79971 287.628501 
L 82.198059 288.138151 
L 82.596408 278.863054 
L 82.994757 277.072445 
L 83.393107 279.251373 
L 83.791456 269.182625 
L 84.189805 267.187456 
L 84.588154 266.540208 
L 85.384852 254.070687 
L 85.783201 230.411486 
L 86.5799 216.526854 
L 86.978249 202.385424 
L 87.376598 198.912257 
L 88.571645 120.247599 
L 89.368344 118.891057 
L 89.766693 124.028199 
L 90.563391 150.230301 
L 90.96174 162.525863 
L 91.360089 161.95063 
L 91.758438 164.575474 
L 92.156788 160.950641 
L 92.555137 175.613843 
L 92.953486 196.16204 
L 93.351835 224.253204 
L 93.750184 227.867196 
L 94.148533 227.398395 
L 94.546882 230.20949 
L 94.945231 223.111697 
L 95.343581 213.497219 
L 95.74193 209.598519 
L 96.140279 222.148942 
L 96.538628 226.159111 
L 97.335326 242.175182 
L 97.733675 244.841948 
L 98.132025 245.188138 
L 98.530374 241.747041 
L 98.928723 241.867782 
L 99.327072 241.464736 
L 99.725421 240.858239 
L 100.12377 247.34237 
L 100.522119 244.871292 
L 100.920468 239.945907 
L 101.318818 239.651059 
L 101.717167 244.459909 
L 102.115516 244.598108 
L 102.912214 232.339089 
L 103.310563 237.191694 
L 103.708912 243.807547 
L 104.107262 241.249057 
L 104.505611 244.527619 
L 105.302309 252.931824 
L 105.700658 256.949411 
L 106.099007 264.092654 
L 106.497356 256.708375 
L 106.895706 257.988799 
L 107.294055 260.73927 
L 107.692404 260.803078 
L 108.090753 259.434026 
L 108.489102 255.938454 
L 109.2858 263.243392 
L 109.684149 257.419957 
L 110.082499 258.758993 
L 110.480848 250.20449 
L 110.879197 247.118477 
L 111.277546 246.724827 
L 111.675895 246.781261 
L 112.074244 250.407872 
L 112.472593 252.435537 
L 112.870943 251.167996 
L 113.269292 248.151793 
L 113.667641 241.206269 
L 114.06599 231.1729 
L 114.464339 225.904191 
L 114.862688 222.304443 
L 115.261037 227.209633 
L 115.659387 217.366145 
L 116.057736 221.126529 
L 116.456085 214.005592 
L 116.854434 210.189267 
L 117.252783 204.84394 
L 118.049481 202.236612 
L 118.44783 204.43385 
L 118.84618 205.468517 
L 119.244529 209.224767 
L 119.642878 205.685219 
L 120.041227 205.972386 
L 120.439576 214.440275 
L 120.837925 209.739105 
L 121.236274 213.376606 
L 121.634624 206.282874 
L 122.032973 210.302617 
L 122.431322 204.343604 
L 122.829671 204.785384 
L 123.22802 208.321556 
L 123.626369 215.766113 
L 124.024718 221.049049 
L 124.423067 223.297421 
L 124.821417 226.708971 
L 125.219766 226.435373 
L 126.016464 230.478159 
L 126.414813 236.733654 
L 126.813162 239.967068 
L 127.211511 249.343644 
L 127.609861 252.053944 
L 128.00821 249.395419 
L 128.406559 244.374293 
L 128.804908 241.010181 
L 129.203257 241.534883 
L 129.999955 231.945377 
L 130.398305 233.717509 
L 130.796654 231.822016 
L 131.195003 237.72781 
L 131.593352 235.67608 
L 131.991701 235.321669 
L 132.39005 228.635316 
L 133.186748 230.452225 
L 133.585098 235.152907 
L 133.983447 233.707391 
L 134.381796 237.088439 
L 134.780145 235.055086 
L 135.178494 233.644659 
L 135.576843 234.853656 
L 135.975192 231.432969 
L 136.373542 233.362053 
L 136.771891 233.221626 
L 137.17024 240.820959 
L 137.568589 240.897136 
L 137.966938 242.98799 
L 138.365287 236.343023 
L 138.763636 238.102296 
L 139.161985 235.888373 
L 139.560335 242.454856 
L 139.958684 243.823675 
L 140.357033 244.124343 
L 140.755382 244.056119 
L 141.950429 234.457227 
L 142.348779 234.389226 
L 142.747128 235.750781 
L 143.145477 239.151682 
L 143.543826 237.526374 
L 143.942175 233.108037 
L 144.340524 234.811639 
L 144.738873 234.680786 
L 145.137223 236.243545 
L 145.535572 234.9338 
L 146.33227 237.759801 
L 146.730619 241.0092 
L 147.128968 241.076292 
L 147.527317 235.244251 
L 147.925666 231.897227 
L 148.324016 231.642027 
L 148.722365 239.365536 
L 149.120714 236.410122 
L 149.519063 235.40284 
L 149.917412 230.625325 
L 150.315761 232.449443 
L 150.71411 235.818619 
L 151.11246 236.732119 
L 151.510809 234.271241 
L 151.909158 233.695062 
L 152.705856 239.260352 
L 153.104205 240.55014 
L 153.502554 237.785103 
L 153.900904 237.160066 
L 154.299253 234.211736 
L 154.697602 236.837279 
L 155.095951 238.085702 
L 155.4943 236.894405 
L 155.892649 236.910943 
L 156.689347 231.031001 
L 157.087697 226.450212 
L 157.486046 228.225948 
L 157.884395 230.926592 
L 158.282744 229.44048 
L 158.681093 230.108331 
L 159.079442 229.688992 
L 159.477791 227.105854 
L 159.876141 227.132573 
L 160.27449 218.050197 
L 160.672839 215.041024 
L 161.071188 213.577166 
L 161.469537 215.302919 
L 161.867886 220.20896 
L 162.266235 215.959514 
L 162.664584 205.764923 
L 163.062934 204.452846 
L 163.461283 201.12934 
L 164.257981 207.937227 
L 164.65633 210.630896 
L 165.453028 220.117327 
L 165.851378 220.25229 
L 166.249727 223.308369 
L 166.648076 215.58553 
L 167.046425 214.293882 
L 167.444774 218.45845 
L 167.843123 218.565388 
L 168.241472 218.873235 
L 168.639822 211.450545 
L 169.038171 208.911789 
L 169.43652 204.4207 
L 169.834869 204.688517 
L 170.233218 200.326677 
L 170.631567 200.603555 
L 171.029916 196.109888 
L 171.428265 196.701 
L 171.826615 192.492929 
L 172.224964 192.977362 
L 172.623313 193.188706 
L 173.021662 189.286958 
L 173.420011 194.205644 
L 173.81836 190.032565 
L 174.216709 190.619361 
L 174.615059 190.690351 
L 175.013408 182.498084 
L 175.411757 178.658088 
L 175.810106 178.779558 
L 177.005153 180.662725 
L 177.403503 176.880944 
L 177.801852 177.495712 
L 178.200201 173.535296 
L 178.59855 174.232852 
L 179.395248 166.774939 
L 179.793597 171.625928 
L 180.988645 173.289871 
L 181.386994 177.750993 
L 181.785343 177.927029 
L 182.183692 178.475012 
L 183.37874 179.454699 
L 183.777089 183.665021 
L 184.175438 191.606974 
L 184.972136 199.822404 
L 185.370485 195.906142 
L 185.768834 196.016738 
L 186.167183 195.672842 
L 186.565533 195.674889 
L 188.158929 211.100294 
L 188.557278 210.026092 
L 188.955627 202.831095 
L 189.353977 206.855007 
L 189.752326 206.608607 
L 190.549024 214.347356 
L 191.345722 214.583533 
L 191.744071 210.96931 
L 192.142421 210.965255 
L 192.54077 207.352292 
L 192.939119 207.541152 
L 193.735817 201.001267 
L 194.134166 186.946549 
L 194.532515 180.358645 
L 194.930864 176.971836 
L 195.329214 170.618354 
L 195.727563 174.941228 
L 196.125912 151.250821 
L 196.524261 152.588644 
L 196.92261 142.269155 
L 197.320959 140.335201 
L 198.117658 122.270149 
L 198.516007 116.855278 
L 198.914356 115.058134 
L 199.312705 116.247512 
L 199.711054 108.165173 
L 200.109403 106.227478 
L 200.507752 97.244053 
L 200.906102 105.340736 
L 201.304451 91.967698 
L 201.7028 93.110187 
L 202.101149 88.154159 
L 202.499498 89.358432 
L 202.897847 93.590631 
L 203.296196 101.006871 
L 203.694545 111.454922 
L 204.092895 115.970387 
L 204.491244 129.231825 
L 204.889593 130.688367 
L 205.287942 126.335092 
L 206.08464 148.513104 
L 207.279688 159.897922 
L 207.678037 160.517119 
L 208.076386 167.092313 
L 208.474735 168.877718 
L 208.873084 173.428151 
L 209.271433 168.838867 
L 209.669782 172.907694 
L 210.068132 179.162738 
L 210.466481 177.092977 
L 210.86483 180.673033 
L 211.263179 180.895021 
L 211.661528 186.824181 
L 212.059877 187.03143 
L 212.458226 184.742714 
L 212.856576 171.596112 
L 213.254925 166.466607 
L 213.653274 158.506839 
L 214.051623 161.883058 
L 214.449972 162.540194 
L 215.24667 164.432915 
L 215.64502 167.656129 
L 216.043369 168.227419 
L 216.441718 163.674795 
L 216.840067 164.174544 
L 217.238416 162.006345 
L 217.636765 170.468374 
L 218.035114 168.390686 
L 218.433463 166.948882 
L 218.831813 157.415112 
L 219.628511 148.659232 
L 220.02686 146.990132 
L 220.425209 138.241693 
L 220.823558 132.194121 
L 221.221907 132.901113 
L 221.620257 131.428416 
L 222.018606 128.192065 
L 222.416955 120.243741 
L 222.815304 114.591089 
L 223.612002 108.310487 
L 224.80705 93.235436 
L 225.205399 92.332618 
L 225.603748 89.788955 
L 226.002097 83.323275 
L 226.400446 74.913981 
L 226.798795 83.693667 
L 227.595494 55.605498 
L 227.993843 54.120058 
L 228.392192 55.57286 
L 228.790541 57.816472 
L 229.18889 71.230664 
L 229.587239 76.024226 
L 230.383938 81.377024 
L 230.782287 81.887284 
L 231.180636 85.534472 
L 231.977334 98.647367 
L 232.375683 109.545022 
L 233.172381 122.05725 
L 233.570731 123.702256 
L 233.96908 109.366466 
L 234.367429 108.125855 
L 234.765778 105.353912 
L 236.359175 143.760172 
L 237.155873 163.822281 
L 237.554222 167.529883 
L 238.35092 158.73632 
L 239.147619 175.250912 
L 239.545968 190.219494 
L 239.944317 188.676095 
L 240.741015 205.3059 
L 241.139364 206.641905 
L 241.537713 209.475202 
L 241.936062 207.265993 
L 242.334412 200.89215 
L 242.732761 208.502716 
L 243.13111 221.723068 
L 243.529459 223.476206 
L 243.927808 222.231012 
L 244.326157 217.364452 
L 244.724506 217.067531 
L 245.122856 210.753809 
L 245.919554 195.080785 
L 246.317903 189.429071 
L 246.716252 186.390023 
L 247.114601 191.553195 
L 247.51295 195.016986 
L 248.309649 196.080669 
L 249.504696 196.640213 
L 250.301394 199.801407 
L 250.699743 207.271095 
L 251.098093 206.000034 
L 251.496442 203.461141 
L 251.894791 206.170056 
L 252.29314 205.995283 
L 252.691489 204.728278 
L 253.089838 207.596198 
L 253.886537 210.527304 
L 254.284886 210.624187 
L 255.081584 202.433652 
L 255.479933 199.635548 
L 255.878282 210.775065 
L 256.276631 225.524206 
L 256.67498 233.824031 
L 257.07333 232.822641 
L 257.471679 231.28996 
L 258.268377 232.821063 
L 258.666726 230.057301 
L 259.065075 232.518952 
L 259.463424 236.156298 
L 259.861774 237.537187 
L 260.260123 235.122654 
L 260.658472 227.353845 
L 261.45517 201.699856 
L 261.853519 201.769259 
L 262.251868 200.819004 
L 262.650218 198.980675 
L 263.048567 194.257494 
L 263.446916 194.921166 
L 263.845265 193.936754 
L 264.243614 191.847295 
L 265.438661 200.441463 
L 265.837011 201.747389 
L 266.23536 199.737299 
L 267.032058 200.267041 
L 267.430407 197.951303 
L 267.828756 198.301125 
L 268.625455 196.215661 
L 269.023804 196.471933 
L 269.422153 194.103414 
L 269.820502 193.193719 
L 270.218851 190.798441 
L 270.6172 187.333614 
L 271.015549 185.362849 
L 271.413898 181.906237 
L 272.210597 185.338656 
L 272.608946 192.058908 
L 273.007295 194.864106 
L 273.405644 192.835611 
L 273.803993 191.778174 
L 274.202342 191.756245 
L 274.600692 183.476886 
L 274.999041 182.614134 
L 275.39739 182.766561 
L 275.795739 190.646513 
L 276.194088 195.781615 
L 276.592437 191.565767 
L 276.990786 189.49766 
L 277.389136 176.234759 
L 277.787485 169.481003 
L 278.185834 166.181123 
L 278.584183 169.137317 
L 278.982532 168.642818 
L 279.380881 178.036766 
L 279.77923 183.035064 
L 280.177579 190.58379 
L 280.575929 190.650397 
L 280.974278 187.324211 
L 281.770976 196.248266 
L 282.169325 204.436078 
L 282.567674 210.045672 
L 282.966023 217.741347 
L 283.364373 214.262196 
L 283.762722 215.240846 
L 284.161071 218.337223 
L 284.55942 216.259828 
L 284.957769 211.39275 
L 285.356118 211.102734 
L 285.754467 213.04496 
L 286.152817 213.144343 
L 286.551166 211.161468 
L 287.347864 213.377915 
L 287.746213 209.305587 
L 288.542911 213.677762 
L 288.94126 209.696202 
L 289.33961 209.890926 
L 289.737959 212.974347 
L 290.136308 211.060986 
L 290.534657 210.282243 
L 290.933006 213.378279 
L 291.331355 215.499956 
L 291.729704 215.689043 
L 292.128054 216.774212 
L 292.924752 216.879451 
L 293.323101 215.83915 
L 293.72145 220.88628 
L 294.119799 219.860786 
L 294.518148 218.073353 
L 294.916497 221.969018 
L 295.314847 222.891642 
L 296.509894 214.049188 
L 296.908243 213.061951 
L 297.306592 218.138254 
L 297.704941 218.332696 
L 298.103291 218.690617 
L 298.50164 214.745651 
L 298.899989 214.858043 
L 299.298338 215.786306 
L 299.696687 211.034582 
L 300.095036 211.258803 
L 300.493385 212.230174 
L 301.290084 218.547915 
L 301.688433 219.685603 
L 302.086782 216.872932 
L 302.485131 218.789876 
L 302.88348 219.585066 
L 303.281829 216.675033 
L 303.680178 217.735126 
L 304.078528 216.294522 
L 305.273575 215.869367 
L 305.671924 214.877934 
L 306.070273 215.830788 
L 306.468622 212.999301 
L 306.866972 212.226611 
L 307.265321 209.376016 
L 307.66367 207.636697 
L 308.062019 212.534159 
L 308.460368 212.660205 
L 309.655416 224.20352 
L 310.053765 224.240383 
L 310.452114 225.039526 
L 310.850463 223.03239 
L 311.248812 223.876986 
L 311.647161 225.535813 
L 312.443859 230.914628 
L 312.842209 231.821604 
L 313.240558 234.39999 
L 313.638907 235.137985 
L 314.037256 234.224197 
L 314.435605 230.602448 
L 314.833954 231.326811 
L 315.232303 229.428091 
L 315.630653 231.274577 
L 316.029002 233.853323 
L 316.427351 233.160566 
L 316.8257 233.254559 
L 317.224049 231.457741 
L 317.622398 230.590858 
L 318.020747 230.503121 
L 318.419096 229.646097 
L 318.817446 221.930915 
L 319.215795 224.633724 
L 319.614144 226.200246 
L 320.012493 224.0175 
L 320.410842 222.486142 
L 320.809191 217.27312 
L 321.20754 218.302752 
L 321.60589 217.428888 
L 322.004239 216.896062 
L 322.402588 216.643146 
L 323.199286 203.146759 
L 323.597635 213.477632 
L 323.995984 211.434022 
L 324.394334 203.238593 
L 324.792683 205.066341 
L 325.191032 208.334486 
L 325.589381 207.035449 
L 325.98773 207.319014 
L 326.386079 207.334382 
L 326.784428 207.474676 
L 327.182777 203.352743 
L 327.581127 206.179964 
L 327.979476 213.877624 
L 328.377825 210.623367 
L 328.776174 205.90261 
L 329.174523 210.94408 
L 329.572872 217.443848 
L 329.971221 217.627069 
L 330.369571 219.559679 
L 330.76792 225.842626 
L 331.166269 228.956868 
L 331.564618 232.982762 
L 331.962967 238.369333 
L 332.361316 239.032322 
L 332.759665 235.775076 
L 333.158015 231.511402 
L 333.556364 236.645859 
L 333.954713 238.767533 
L 334.751411 229.548217 
L 335.14976 232.430642 
L 335.548109 225.223646 
L 336.344808 218.86169 
L 336.743157 215.061017 
L 337.141506 209.660284 
L 337.539855 211.609163 
L 337.938204 223.773925 
L 338.336553 228.097423 
L 338.734902 227.891353 
L 339.133252 226.326158 
L 339.92995 221.290599 
L 340.328299 225.868804 
L 340.726648 227.38674 
L 341.124997 226.104118 
L 341.523346 227.281427 
L 341.921695 232.056426 
L 342.320045 232.044848 
L 343.116743 214.676892 
L 343.515092 210.206377 
L 343.913441 213.18824 
L 344.31179 218.840915 
L 344.710139 219.295182 
L 345.108489 210.253263 
L 345.506838 204.058022 
L 345.905187 207.831519 
L 346.303536 214.964223 
L 346.701885 212.371489 
L 347.100234 210.52153 
L 347.498583 208.118702 
L 347.896933 215.137087 
L 348.295282 219.732083 
L 349.09198 204.204166 
L 349.490329 187.92743 
L 349.888678 193.701604 
L 350.287027 208.080586 
L 350.685376 208.78348 
L 351.083726 199.654767 
L 351.482075 205.102459 
L 351.880424 207.811584 
L 352.278773 205.263485 
L 352.677122 200.051314 
L 353.075471 196.961465 
L 353.47382 197.980785 
L 353.87217 200.628431 
L 354.270519 227.783358 
L 354.668868 236.330838 
L 355.465566 221.033904 
L 355.863915 226.365597 
L 356.660613 215.668384 
L 357.058963 218.284612 
L 357.457312 216.486507 
L 357.855661 216.993752 
L 358.652359 228.260396 
L 359.847407 192.565684 
L 360.245756 196.474965 
L 360.644105 195.01356 
L 361.440803 199.657198 
L 361.839152 201.054649 
L 362.237501 198.574621 
L 362.635851 186.325889 
L 363.0342 178.215177 
L 363.432549 180.856576 
L 363.830898 186.218836 
L 364.229247 204.436327 
L 364.627596 240.877287 
L 365.025945 256.593405 
L 365.424294 258.78354 
L 365.822644 256.55002 
L 366.220993 261.199937 
L 366.619342 262.010917 
L 367.017691 267.160291 
L 367.41604 269.546914 
L 367.814389 278.316915 
L 368.212738 272.836663 
L 368.611088 271.372831 
L 369.009437 256.076682 
L 369.407786 226.499353 
L 369.806135 212.713967 
L 370.204484 214.578943 
L 370.602833 221.630349 
L 371.001182 220.742974 
L 371.399532 222.729973 
L 371.797881 225.819923 
L 372.19623 238.2356 
L 372.594579 235.507764 
L 372.992928 238.486192 
L 373.391277 238.518161 
L 373.789626 237.790884 
L 374.187975 238.711585 
L 375.383023 223.794276 
L 376.179721 210.216485 
L 376.57807 204.857503 
L 376.976419 204.522452 
L 377.374769 203.754486 
L 377.773118 201.740591 
L 378.171467 201.297325 
L 378.569816 205.748323 
L 378.968165 206.986165 
L 379.366514 212.894341 
L 379.764863 213.586119 
L 380.163212 215.189422 
L 380.959911 224.092582 
L 381.35826 231.46228 
L 381.756609 232.46126 
L 382.154958 235.618151 
L 383.350006 224.227598 
L 383.748355 229.01234 
L 384.146704 229.439474 
L 384.545053 230.738087 
L 384.943402 226.026927 
L 385.7401 237.966503 
L 386.13845 234.837718 
L 386.536799 230.344306 
L 386.935148 227.63396 
L 387.333497 232.21914 
L 387.731846 238.301958 
L 388.130195 241.564584 
L 388.926893 232.930062 
L 389.325243 231.560068 
L 389.723592 237.887379 
L 390.52029 225.734333 
L 390.918639 223.566951 
L 391.715337 226.128199 
L 392.113687 230.05103 
L 392.512036 230.665878 
L 392.910385 231.624933 
L 393.308734 236.531418 
L 393.707083 244.589833 
L 394.105432 256.310355 
L 394.902131 253.944585 
L 395.30048 255.023711 
L 396.097178 250.434811 
L 396.495527 249.693295 
L 396.893876 249.295446 
L 397.292225 252.220511 
L 397.690574 250.615824 
L 398.487273 243.520904 
L 398.487273 243.520904 
" style="fill:none;opacity:0.6;stroke:#ff7f0e;stroke-linecap:square;stroke-width:0.5;"/>
   </g>
   <g id="patch_3">
    <path d="M 57.6 307.584 
L 57.6 41.472 
" style="fill:none;stroke:#000000;stroke-linecap:square;stroke-linejoin:miter;stroke-width:0.8;"/>
   </g>
   <g id="patch_4">
    <path d="M 414.72 307.584 
L 414.72 41.472 
" style="fill:none;stroke:#000000;stroke-linecap:square;stroke-linejoin:miter;stroke-width:0.8;"/>
   </g>
   <g id="patch_5">
    <path d="M 57.6 307.584 
L 414.72 307.584 
" style="fill:none;stroke:#000000;stroke-linecap:square;stroke-linejoin:miter;stroke-width:0.8;"/>
   </g>
   <g id="patch_6">
    <path d="M 57.6 41.472 
L 414.72 41.472 
" style="fill:none;stroke:#000000;stroke-linecap:square;stroke-linejoin:miter;stroke-width:0.8;"/>
   </g>
  </g>
 </g>
 <defs>
  <clipPath id="paa4b3e3d16">
   <rect height="266.112" width="357.12" x="57.6" y="41.472"/>
  </clipPath>
 </defs>
</svg>
