<?xml version="1.0" encoding="utf-8" standalone="no"?>
<!DOCTYPE svg PUBLIC "-//W3C//DTD SVG 1.1//EN"
  "http://www.w3.org/Graphics/SVG/1.1/DTD/svg11.dtd">
<!-- Created with matplotlib (http://matplotlib.org/) -->
<svg height="345.6pt" version="1.1" viewBox="0 0 460.8 345.6" width="460.8pt" xmlns="http://www.w3.org/2000/svg" xmlns:xlink="http://www.w3.org/1999/xlink">
 <defs>
  <style type="text/css">
*{stroke-linecap:butt;stroke-linejoin:round;}
  </style>
 </defs>
 <g id="figure_1">
  <g id="patch_1">
   <path d="M 0 345.6 
L 460.8 345.6 
L 460.8 0 
L 0 0 
z
" style="fill:#ffffff;"/>
  </g>
  <g id="axes_1">
   <g id="patch_2">
    <path d="M 57.6 307.584 
L 414.72 307.584 
L 414.72 41.472 
L 57.6 41.472 
z
" style="fill:#ffffff;"/>
   </g>
   <g id="matplotlib.axis_1">
    <g id="xtick_1">
     <g id="line2d_1">
      <defs>
       <path d="M 0 0 
L 0 3.5 
" id="mba70b89433" style="stroke:#000000;stroke-width:0.8;"/>
      </defs>
      <g>
       <use style="stroke:#000000;stroke-width:0.8;" x="73.832727" xlink:href="#mba70b89433" y="307.584"/>
      </g>
     </g>
     <g id="text_1">
      <!-- 0 -->
      <defs>
       <path d="M 31.78125 66.40625 
Q 24.171875 66.40625 20.328125 58.90625 
Q 16.5 51.421875 16.5 36.375 
Q 16.5 21.390625 20.328125 13.890625 
Q 24.171875 6.390625 31.78125 6.390625 
Q 39.453125 6.390625 43.28125 13.890625 
Q 47.125 21.390625 47.125 36.375 
Q 47.125 51.421875 43.28125 58.90625 
Q 39.453125 66.40625 31.78125 66.40625 
z
M 31.78125 74.21875 
Q 44.046875 74.21875 50.515625 64.515625 
Q 56.984375 54.828125 56.984375 36.375 
Q 56.984375 17.96875 50.515625 8.265625 
Q 44.046875 -1.421875 31.78125 -1.421875 
Q 19.53125 -1.421875 13.0625 8.265625 
Q 6.59375 17.96875 6.59375 36.375 
Q 6.59375 54.828125 13.0625 64.515625 
Q 19.53125 74.21875 31.78125 74.21875 
z
" id="DejaVuSans-30"/>
      </defs>
      <g transform="translate(70.651477 322.182437)scale(0.1 -0.1)">
       <use xlink:href="#DejaVuSans-30"/>
      </g>
     </g>
    </g>
    <g id="xtick_2">
     <g id="line2d_2">
      <g>
       <use style="stroke:#000000;stroke-width:0.8;" x="151.223561" xlink:href="#mba70b89433" y="307.584"/>
      </g>
     </g>
     <g id="text_2">
      <!-- 200 -->
      <defs>
       <path d="M 19.1875 8.296875 
L 53.609375 8.296875 
L 53.609375 0 
L 7.328125 0 
L 7.328125 8.296875 
Q 12.9375 14.109375 22.625 23.890625 
Q 32.328125 33.6875 34.8125 36.53125 
Q 39.546875 41.84375 41.421875 45.53125 
Q 43.3125 49.21875 43.3125 52.78125 
Q 43.3125 58.59375 39.234375 62.25 
Q 35.15625 65.921875 28.609375 65.921875 
Q 23.96875 65.921875 18.8125 64.3125 
Q 13.671875 62.703125 7.8125 59.421875 
L 7.8125 69.390625 
Q 13.765625 71.78125 18.9375 73 
Q 24.125 74.21875 28.421875 74.21875 
Q 39.75 74.21875 46.484375 68.546875 
Q 53.21875 62.890625 53.21875 53.421875 
Q 53.21875 48.921875 51.53125 44.890625 
Q 49.859375 40.875 45.40625 35.40625 
Q 44.1875 33.984375 37.640625 27.21875 
Q 31.109375 20.453125 19.1875 8.296875 
z
" id="DejaVuSans-32"/>
      </defs>
      <g transform="translate(141.679811 322.182437)scale(0.1 -0.1)">
       <use xlink:href="#DejaVuSans-32"/>
       <use x="63.623047" xlink:href="#DejaVuSans-30"/>
       <use x="127.246094" xlink:href="#DejaVuSans-30"/>
      </g>
     </g>
    </g>
    <g id="xtick_3">
     <g id="line2d_3">
      <g>
       <use style="stroke:#000000;stroke-width:0.8;" x="228.614394" xlink:href="#mba70b89433" y="307.584"/>
      </g>
     </g>
     <g id="text_3">
      <!-- 400 -->
      <defs>
       <path d="M 37.796875 64.3125 
L 12.890625 25.390625 
L 37.796875 25.390625 
z
M 35.203125 72.90625 
L 47.609375 72.90625 
L 47.609375 25.390625 
L 58.015625 25.390625 
L 58.015625 17.1875 
L 47.609375 17.1875 
L 47.609375 0 
L 37.796875 0 
L 37.796875 17.1875 
L 4.890625 17.1875 
L 4.890625 26.703125 
z
" id="DejaVuSans-34"/>
      </defs>
      <g transform="translate(219.070644 322.182437)scale(0.1 -0.1)">
       <use xlink:href="#DejaVuSans-34"/>
       <use x="63.623047" xlink:href="#DejaVuSans-30"/>
       <use x="127.246094" xlink:href="#DejaVuSans-30"/>
      </g>
     </g>
    </g>
    <g id="xtick_4">
     <g id="line2d_4">
      <g>
       <use style="stroke:#000000;stroke-width:0.8;" x="306.005227" xlink:href="#mba70b89433" y="307.584"/>
      </g>
     </g>
     <g id="text_4">
      <!-- 600 -->
      <defs>
       <path d="M 33.015625 40.375 
Q 26.375 40.375 22.484375 35.828125 
Q 18.609375 31.296875 18.609375 23.390625 
Q 18.609375 15.53125 22.484375 10.953125 
Q 26.375 6.390625 33.015625 6.390625 
Q 39.65625 6.390625 43.53125 10.953125 
Q 47.40625 15.53125 47.40625 23.390625 
Q 47.40625 31.296875 43.53125 35.828125 
Q 39.65625 40.375 33.015625 40.375 
z
M 52.59375 71.296875 
L 52.59375 62.3125 
Q 48.875 64.0625 45.09375 64.984375 
Q 41.3125 65.921875 37.59375 65.921875 
Q 27.828125 65.921875 22.671875 59.328125 
Q 17.53125 52.734375 16.796875 39.40625 
Q 19.671875 43.65625 24.015625 45.921875 
Q 28.375 48.1875 33.59375 48.1875 
Q 44.578125 48.1875 50.953125 41.515625 
Q 57.328125 34.859375 57.328125 23.390625 
Q 57.328125 12.15625 50.6875 5.359375 
Q 44.046875 -1.421875 33.015625 -1.421875 
Q 20.359375 -1.421875 13.671875 8.265625 
Q 6.984375 17.96875 6.984375 36.375 
Q 6.984375 53.65625 15.1875 63.9375 
Q 23.390625 74.21875 37.203125 74.21875 
Q 40.921875 74.21875 44.703125 73.484375 
Q 48.484375 72.75 52.59375 71.296875 
z
" id="DejaVuSans-36"/>
      </defs>
      <g transform="translate(296.461477 322.182437)scale(0.1 -0.1)">
       <use xlink:href="#DejaVuSans-36"/>
       <use x="63.623047" xlink:href="#DejaVuSans-30"/>
       <use x="127.246094" xlink:href="#DejaVuSans-30"/>
      </g>
     </g>
    </g>
    <g id="xtick_5">
     <g id="line2d_5">
      <g>
       <use style="stroke:#000000;stroke-width:0.8;" x="383.39606" xlink:href="#mba70b89433" y="307.584"/>
      </g>
     </g>
     <g id="text_5">
      <!-- 800 -->
      <defs>
       <path d="M 31.78125 34.625 
Q 24.75 34.625 20.71875 30.859375 
Q 16.703125 27.09375 16.703125 20.515625 
Q 16.703125 13.921875 20.71875 10.15625 
Q 24.75 6.390625 31.78125 6.390625 
Q 38.8125 6.390625 42.859375 10.171875 
Q 46.921875 13.96875 46.921875 20.515625 
Q 46.921875 27.09375 42.890625 30.859375 
Q 38.875 34.625 31.78125 34.625 
z
M 21.921875 38.8125 
Q 15.578125 40.375 12.03125 44.71875 
Q 8.5 49.078125 8.5 55.328125 
Q 8.5 64.0625 14.71875 69.140625 
Q 20.953125 74.21875 31.78125 74.21875 
Q 42.671875 74.21875 48.875 69.140625 
Q 55.078125 64.0625 55.078125 55.328125 
Q 55.078125 49.078125 51.53125 44.71875 
Q 48 40.375 41.703125 38.8125 
Q 48.828125 37.15625 52.796875 32.3125 
Q 56.78125 27.484375 56.78125 20.515625 
Q 56.78125 9.90625 50.3125 4.234375 
Q 43.84375 -1.421875 31.78125 -1.421875 
Q 19.734375 -1.421875 13.25 4.234375 
Q 6.78125 9.90625 6.78125 20.515625 
Q 6.78125 27.484375 10.78125 32.3125 
Q 14.796875 37.15625 21.921875 38.8125 
z
M 18.3125 54.390625 
Q 18.3125 48.734375 21.84375 45.5625 
Q 25.390625 42.390625 31.78125 42.390625 
Q 38.140625 42.390625 41.71875 45.5625 
Q 45.3125 48.734375 45.3125 54.390625 
Q 45.3125 60.0625 41.71875 63.234375 
Q 38.140625 66.40625 31.78125 66.40625 
Q 25.390625 66.40625 21.84375 63.234375 
Q 18.3125 60.0625 18.3125 54.390625 
z
" id="DejaVuSans-38"/>
      </defs>
      <g transform="translate(373.85231 322.182437)scale(0.1 -0.1)">
       <use xlink:href="#DejaVuSans-38"/>
       <use x="63.623047" xlink:href="#DejaVuSans-30"/>
       <use x="127.246094" xlink:href="#DejaVuSans-30"/>
      </g>
     </g>
    </g>
   </g>
   <g id="matplotlib.axis_2">
    <g id="ytick_1">
     <g id="line2d_6">
      <defs>
       <path d="M 0 0 
L -3.5 0 
" id="mbfc6894ca1" style="stroke:#000000;stroke-width:0.8;"/>
      </defs>
      <g>
       <use style="stroke:#000000;stroke-width:0.8;" x="57.6" xlink:href="#mbfc6894ca1" y="271.05025"/>
      </g>
     </g>
     <g id="text_6">
      <!-- 0 -->
      <g transform="translate(44.2375 274.849468)scale(0.1 -0.1)">
       <use xlink:href="#DejaVuSans-30"/>
      </g>
     </g>
    </g>
    <g id="ytick_2">
     <g id="line2d_7">
      <g>
       <use style="stroke:#000000;stroke-width:0.8;" x="57.6" xlink:href="#mbfc6894ca1" y="224.432698"/>
      </g>
     </g>
     <g id="text_7">
      <!-- 10 -->
      <defs>
       <path d="M 12.40625 8.296875 
L 28.515625 8.296875 
L 28.515625 63.921875 
L 10.984375 60.40625 
L 10.984375 69.390625 
L 28.421875 72.90625 
L 38.28125 72.90625 
L 38.28125 8.296875 
L 54.390625 8.296875 
L 54.390625 0 
L 12.40625 0 
z
" id="DejaVuSans-31"/>
      </defs>
      <g transform="translate(37.875 228.231917)scale(0.1 -0.1)">
       <use xlink:href="#DejaVuSans-31"/>
       <use x="63.623047" xlink:href="#DejaVuSans-30"/>
      </g>
     </g>
    </g>
    <g id="ytick_3">
     <g id="line2d_8">
      <g>
       <use style="stroke:#000000;stroke-width:0.8;" x="57.6" xlink:href="#mbfc6894ca1" y="177.815146"/>
      </g>
     </g>
     <g id="text_8">
      <!-- 20 -->
      <g transform="translate(37.875 181.614365)scale(0.1 -0.1)">
       <use xlink:href="#DejaVuSans-32"/>
       <use x="63.623047" xlink:href="#DejaVuSans-30"/>
      </g>
     </g>
    </g>
    <g id="ytick_4">
     <g id="line2d_9">
      <g>
       <use style="stroke:#000000;stroke-width:0.8;" x="57.6" xlink:href="#mbfc6894ca1" y="131.197594"/>
      </g>
     </g>
     <g id="text_9">
      <!-- 30 -->
      <defs>
       <path d="M 40.578125 39.3125 
Q 47.65625 37.796875 51.625 33 
Q 55.609375 28.21875 55.609375 21.1875 
Q 55.609375 10.40625 48.1875 4.484375 
Q 40.765625 -1.421875 27.09375 -1.421875 
Q 22.515625 -1.421875 17.65625 -0.515625 
Q 12.796875 0.390625 7.625 2.203125 
L 7.625 11.71875 
Q 11.71875 9.328125 16.59375 8.109375 
Q 21.484375 6.890625 26.8125 6.890625 
Q 36.078125 6.890625 40.9375 10.546875 
Q 45.796875 14.203125 45.796875 21.1875 
Q 45.796875 27.640625 41.28125 31.265625 
Q 36.765625 34.90625 28.71875 34.90625 
L 20.21875 34.90625 
L 20.21875 43.015625 
L 29.109375 43.015625 
Q 36.375 43.015625 40.234375 45.921875 
Q 44.09375 48.828125 44.09375 54.296875 
Q 44.09375 59.90625 40.109375 62.90625 
Q 36.140625 65.921875 28.71875 65.921875 
Q 24.65625 65.921875 20.015625 65.03125 
Q 15.375 64.15625 9.8125 62.3125 
L 9.8125 71.09375 
Q 15.4375 72.65625 20.34375 73.4375 
Q 25.25 74.21875 29.59375 74.21875 
Q 40.828125 74.21875 47.359375 69.109375 
Q 53.90625 64.015625 53.90625 55.328125 
Q 53.90625 49.265625 50.4375 45.09375 
Q 46.96875 40.921875 40.578125 39.3125 
z
" id="DejaVuSans-33"/>
      </defs>
      <g transform="translate(37.875 134.996813)scale(0.1 -0.1)">
       <use xlink:href="#DejaVuSans-33"/>
       <use x="63.623047" xlink:href="#DejaVuSans-30"/>
      </g>
     </g>
    </g>
    <g id="ytick_5">
     <g id="line2d_10">
      <g>
       <use style="stroke:#000000;stroke-width:0.8;" x="57.6" xlink:href="#mbfc6894ca1" y="84.580043"/>
      </g>
     </g>
     <g id="text_10">
      <!-- 40 -->
      <g transform="translate(37.875 88.379261)scale(0.1 -0.1)">
       <use xlink:href="#DejaVuSans-34"/>
       <use x="63.623047" xlink:href="#DejaVuSans-30"/>
      </g>
     </g>
    </g>
   </g>
   <g id="line2d_11">
    <path clip-path="url(#pc9974983fc)" d="M 73.832727 125.097064 
L 74.219681 161.494877 
L 74.99359 126.422347 
L 75.380544 126.558566 
L 75.767498 121.276356 
L 76.154452 130.828558 
L 76.541406 163.724702 
L 76.928361 171.15954 
L 77.315315 189.478959 
L 77.702269 217.30277 
L 78.089223 235.616449 
L 78.476177 240.803838 
L 78.863131 230.819026 
L 79.250086 248.921875 
L 79.63704 260.349189 
L 80.023994 267.671574 
L 80.410948 293.858162 
L 80.797902 295.488 
L 81.184856 288.874366 
L 81.571811 290.630865 
L 81.958765 280.67407 
L 82.345719 279.656788 
L 82.732673 283.113087 
L 83.119627 271.802601 
L 83.506581 270.088046 
L 83.893536 270.081624 
L 84.667444 256.943172 
L 85.054398 233.326366 
L 85.441352 225.831408 
L 85.828306 220.714114 
L 86.215261 206.744893 
L 86.602215 202.769769 
L 87.763077 126.178717 
L 88.150031 125.185758 
L 88.536986 123.507265 
L 88.92394 127.043638 
L 90.084802 160.930288 
L 90.471756 159.785246 
L 90.858711 162.077926 
L 91.245665 159.121587 
L 91.632619 173.155845 
L 92.406527 223.976524 
L 92.793481 227.731657 
L 93.180436 226.191726 
L 93.56739 229.422842 
L 93.954344 223.04095 
L 94.341298 214.051293 
L 94.728252 210.802545 
L 95.115206 223.162423 
L 95.502161 226.975218 
L 96.276069 242.269299 
L 96.663023 244.842908 
L 97.049977 245.345468 
L 97.436931 242.231723 
L 97.823886 242.781014 
L 98.21084 242.785523 
L 98.597794 242.29731 
L 98.984748 249.024764 
L 99.371702 246.467006 
L 99.758656 241.317603 
L 100.145611 241.347528 
L 100.532565 246.467006 
L 100.919519 246.473155 
L 101.693427 234.1033 
L 102.080381 239.265139 
L 102.467336 245.955153 
L 102.85429 242.887867 
L 103.241244 245.981116 
L 103.628198 251.088025 
L 104.402106 258.72345 
L 104.789061 266.319524 
L 105.176015 258.220616 
L 105.562969 259.743465 
L 105.949923 263.280657 
L 106.336877 263.26467 
L 106.723831 261.76177 
L 107.110786 258.21925 
L 107.884694 266.323896 
L 108.271648 259.745378 
L 108.658602 261.273966 
L 109.045556 252.619618 
L 109.432511 249.544542 
L 110.206419 249.554107 
L 110.593373 251.595777 
L 110.980327 252.620438 
L 111.367281 249.557933 
L 111.754236 247.517766 
L 112.14119 241.387289 
L 112.528144 232.149351 
L 112.915098 227.595837 
L 113.302052 224.487146 
L 113.689006 229.21324 
L 114.075961 219.504853 
L 114.462915 222.633355 
L 114.849869 216.010706 
L 115.623777 206.839446 
L 116.397686 203.919456 
L 116.78464 205.623628 
L 117.171594 206.343722 
L 117.558548 209.595742 
L 117.945502 206.126461 
L 118.332456 206.19738 
L 118.719411 214.426367 
L 119.106365 209.956065 
L 119.493319 213.117498 
L 119.880273 206.757875 
L 120.267227 210.422411 
L 120.654181 205.122707 
L 121.041136 205.246913 
L 121.42809 208.786425 
L 121.815044 215.771176 
L 122.201998 220.728598 
L 122.588952 222.769312 
L 122.975906 226.191726 
L 123.362861 226.191726 
L 124.136769 230.661209 
L 124.523723 237.005801 
L 124.910677 240.375336 
L 125.297631 249.925356 
L 125.684586 252.769648 
L 126.07154 249.936835 
L 126.458494 245.205547 
L 126.845448 242.36112 
L 127.232402 243.326754 
L 128.006311 233.862267 
L 128.393265 235.778912 
L 128.780219 233.905311 
L 129.167173 237.701981 
L 129.554127 235.340299 
L 129.941081 233.905311 
L 130.328036 228.254438 
L 131.101944 231.188774 
L 131.488898 235.908449 
L 131.875852 234.522921 
L 132.262806 237.841079 
L 133.036715 234.639472 
L 133.423669 236.074193 
L 133.810623 232.792244 
L 134.197577 234.680329 
L 134.584531 234.680329 
L 134.971486 242.169277 
L 135.35844 242.18185 
L 135.745394 244.044656 
L 136.132348 237.549353 
L 136.519302 239.429924 
L 136.906256 237.584061 
L 137.293211 244.094532 
L 137.680165 245.481698 
L 138.454073 245.500143 
L 139.614936 236.323558 
L 140.00189 236.342006 
L 140.388844 237.715643 
L 140.775798 240.957829 
L 141.162752 239.141481 
L 141.549706 234.604359 
L 141.936661 236.42754 
L 142.323615 236.42754 
L 142.710569 237.811701 
L 143.097523 236.463889 
L 143.871431 239.259673 
L 144.258386 242.446246 
L 144.64534 242.458272 
L 145.032294 236.566369 
L 145.419248 233.407258 
L 145.806202 233.449342 
L 146.193156 241.183013 
L 146.580111 238.016797 
L 146.967065 236.66748 
L 147.354019 232.16985 
L 147.740973 232.214122 
L 148.127927 235.381703 
L 148.514881 235.400695 
L 148.901836 233.58858 
L 149.28879 233.609212 
L 150.062698 239.965825 
L 150.449652 241.327577 
L 150.836606 238.64575 
L 151.223561 238.217111 
L 151.610515 235.569582 
L 151.997469 238.286252 
L 152.384423 239.642947 
L 152.771377 238.302237 
L 153.158331 238.318089 
L 153.93224 232.605458 
L 154.319194 228.220414 
L 154.706148 229.990855 
L 155.093102 232.655056 
L 155.480056 230.917821 
L 155.867011 231.387448 
L 156.253965 231.016749 
L 156.640919 228.423462 
L 157.027873 228.448603 
L 157.414827 219.712138 
L 157.801781 216.690757 
L 158.188736 215.469066 
L 158.57569 216.895722 
L 158.962644 221.373674 
L 159.349598 217.015278 
L 159.736552 207.018443 
L 160.123506 205.827494 
L 160.510461 202.851754 
L 161.284369 208.75418 
L 161.671323 210.940413 
L 162.445231 219.840164 
L 162.832186 219.948112 
L 163.21914 222.979874 
L 163.606094 215.835395 
L 163.993048 214.655921 
L 164.380002 219.085917 
L 165.15391 219.302489 
L 165.540865 212.270053 
L 165.927819 209.831174 
L 166.314773 204.82005 
L 166.701727 204.971176 
L 167.088681 200.830579 
L 167.475635 200.99318 
L 167.86259 196.865023 
L 168.249544 197.212226 
L 168.636498 193.293123 
L 169.410406 193.658363 
L 169.79736 189.784901 
L 170.184315 194.198225 
L 170.571269 190.35728 
L 171.345177 190.733314 
L 171.732131 182.95237 
L 172.119085 179.188622 
L 172.50604 179.40739 
L 173.279948 180.269857 
L 173.666902 180.482473 
L 174.053856 176.800847 
L 174.44081 177.242056 
L 174.827765 173.600887 
L 175.214719 174.056163 
L 175.988627 166.873019 
L 176.375581 171.387592 
L 176.762535 171.846291 
L 177.14949 172.073792 
L 177.536444 172.52512 
L 177.923398 176.684562 
L 178.310352 176.895809 
L 179.858169 178.546008 
L 180.245123 182.552969 
L 180.632077 190.104091 
L 181.405985 197.873018 
L 181.79294 194.480115 
L 182.179894 194.790423 
L 182.953802 195.09745 
L 184.501619 210.027251 
L 184.888573 210.139023 
L 185.275527 203.289958 
L 185.662481 206.834392 
L 186.049435 206.953677 
L 186.823344 214.172489 
L 187.597252 214.371439 
L 187.984206 211.121188 
L 188.37116 211.227634 
L 188.758115 208.000884 
L 189.145069 208.114296 
L 189.918977 201.850734 
L 190.305931 188.648733 
L 190.692885 182.222851 
L 191.07984 179.112243 
L 191.466794 172.740047 
L 191.853748 176.204825 
L 192.240702 153.564448 
L 192.627656 154.044737 
L 193.01461 144.569456 
L 193.401565 141.866047 
L 194.175473 123.458628 
L 194.562427 118.018601 
L 194.949381 116.129546 
L 195.336335 117.080555 
L 195.72329 108.369782 
L 196.110244 106.271278 
L 196.497198 96.997116 
L 196.884152 105.872828 
L 197.271106 91.416201 
L 197.65806 92.848068 
L 198.045015 87.951841 
L 198.431969 89.392172 
L 198.818923 94.077401 
L 199.205877 101.552563 
L 199.592831 111.729755 
L 199.979785 115.46193 
L 200.36674 128.140034 
L 200.753694 129.172899 
L 201.140648 124.393241 
L 201.914556 146.64269 
L 203.075419 157.246617 
L 203.849327 168.933824 
L 204.623235 174.736904 
L 205.01019 169.740949 
L 205.397144 172.929847 
L 205.784098 178.747278 
L 206.171052 176.506384 
L 206.558006 179.581461 
L 206.94496 179.991799 
L 207.331915 185.473644 
L 207.718869 185.846939 
L 208.105823 183.644856 
L 208.492777 171.550059 
L 208.879731 166.818505 
L 209.266685 159.668144 
L 209.65364 162.596057 
L 210.814502 164.042114 
L 211.201456 166.886268 
L 211.58841 167.34101 
L 211.975365 162.938063 
L 212.362319 163.409202 
L 212.749273 161.547756 
L 213.136227 169.40249 
L 213.910135 165.842484 
L 214.29709 157.058462 
L 215.070998 149.032244 
L 215.457952 147.314548 
L 215.844906 138.748601 
L 216.23186 132.658581 
L 216.618815 133.44562 
L 217.005769 131.836144 
L 217.392723 128.26111 
L 217.779677 120.187473 
L 218.166631 114.570228 
L 218.94054 108.485658 
L 220.101402 92.929906 
L 220.488356 92.334436 
L 220.87531 89.713141 
L 221.649219 73.545239 
L 222.036173 65.158013 
L 222.423127 61.151195 
L 222.810081 55.269957 
L 223.197035 55.311357 
L 223.970944 59.729055 
L 224.357898 74.967804 
L 224.744852 78.528496 
L 225.51876 82.041635 
L 225.905715 82.060752 
L 226.292669 85.857569 
L 227.840485 116.160702 
L 228.22744 120.861794 
L 228.614394 122.159184 
L 229.001348 107.43147 
L 229.388302 106.850885 
L 229.775256 104.826856 
L 232.096981 160.583489 
L 232.483935 164.178618 
L 233.257844 156.519276 
L 234.031752 173.148741 
L 234.418706 187.145708 
L 234.80566 185.899551 
L 235.579569 202.383763 
L 235.966523 203.997342 
L 236.353477 207.043589 
L 236.740431 205.60067 
L 237.127385 200.002408 
L 237.51434 207.639472 
L 237.901294 220.85048 
L 238.288248 222.42539 
L 238.675202 221.09274 
L 239.062156 216.897087 
L 239.44911 217.05108 
L 239.836065 211.435462 
L 240.609973 196.038625 
L 240.996927 190.521249 
L 241.383881 187.800893 
L 241.770835 192.423552 
L 242.15779 195.429346 
L 242.544744 195.548493 
L 244.09256 196.369561 
L 244.866469 199.40953 
L 245.253423 206.479813 
L 245.640377 205.382732 
L 246.027331 202.870609 
L 246.414285 205.716678 
L 246.80124 205.811236 
L 247.188194 204.587762 
L 247.575148 207.40541 
L 248.349056 210.286321 
L 248.73601 210.455208 
L 249.509919 202.851754 
L 249.896873 200.364367 
L 250.283827 210.954218 
L 250.670781 225.232105 
L 251.057735 232.949105 
L 251.831644 230.508038 
L 252.605552 233.130289 
L 252.992506 230.642079 
L 253.37946 233.249303 
L 253.766415 237.108281 
L 254.153369 238.436282 
L 254.540323 236.008604 
L 254.927277 228.501211 
L 255.701185 204.376924 
L 256.08814 204.515344 
L 256.475094 203.449691 
L 256.862048 201.000698 
L 257.249002 196.06281 
L 257.635956 196.275835 
L 258.02291 195.141854 
L 258.409865 192.774308 
L 259.570727 200.882369 
L 259.957681 202.291944 
L 260.344635 200.099424 
L 261.118544 200.483923 
L 261.505498 198.225405 
L 261.892452 198.472178 
L 262.66636 196.437884 
L 263.053315 196.639705 
L 263.440269 194.376128 
L 263.827223 193.405984 
L 264.214177 191.15963 
L 264.601131 187.804575 
L 264.988085 185.872085 
L 265.37504 182.558988 
L 266.148948 185.473644 
L 266.535902 191.505469 
L 266.922856 194.056529 
L 267.30981 191.979471 
L 267.696765 191.052095 
L 268.083719 191.262933 
L 268.470673 183.632702 
L 268.857627 182.742627 
L 269.244581 183.095703 
L 269.631535 190.278856 
L 270.01849 195.009592 
L 270.405444 190.79768 
L 270.792398 188.807786 
L 271.179352 176.735262 
L 271.566306 170.353366 
L 271.95326 167.487757 
L 272.340215 170.004656 
L 272.727169 169.190835 
L 273.114123 177.497032 
L 273.501077 182.068448 
L 273.888031 188.782241 
L 274.274985 188.935549 
L 274.66194 185.862108 
L 275.435848 194.976524 
L 275.822802 202.743534 
L 276.209756 208.252303 
L 276.59671 215.735378 
L 276.983665 212.756766 
L 277.370619 213.931047 
L 277.757573 218.13982 
L 278.144527 216.139692 
L 278.531481 211.071453 
L 278.918435 211.168194 
L 279.30539 213.343904 
L 279.692344 213.465381 
L 280.079298 211.519496 
L 280.853206 213.766121 
L 281.24016 209.842106 
L 282.014069 214.121247 
L 282.401023 210.198463 
L 282.787977 210.29479 
L 283.174931 213.401162 
L 283.561885 211.529606 
L 283.94884 210.644043 
L 284.335794 213.69562 
L 284.722748 215.757238 
L 285.109702 215.840179 
L 285.496656 216.891076 
L 286.270565 217.156837 
L 286.657519 216.249414 
L 287.044473 221.168168 
L 287.431427 220.283565 
L 287.818381 218.424444 
L 288.205335 222.351332 
L 288.59229 223.388425 
L 289.753152 215.02526 
L 290.140106 214.13751 
L 290.52706 218.996827 
L 291.300969 219.167488 
L 291.687923 215.431623 
L 292.074877 215.538478 
L 292.461831 216.573797 
L 292.848785 211.958381 
L 293.23574 212.045283 
L 293.622694 213.084292 
L 294.396602 218.893525 
L 294.783556 219.880612 
L 295.17051 217.160118 
L 295.557465 219.084547 
L 295.944419 220.065895 
L 296.331373 216.526245 
L 296.718327 217.532867 
L 297.105281 215.799051 
L 297.87919 216.029014 
L 298.266144 216.105121 
L 298.653098 215.260145 
L 299.040052 216.231102 
L 299.427006 213.603934 
L 299.81396 212.820714 
L 300.200915 210.208164 
L 300.587869 208.490193 
L 300.974823 213.14523 
L 301.361777 213.225579 
L 302.52264 224.080369 
L 302.909594 224.138849 
L 303.296548 225.067455 
L 303.683502 223.366698 
L 304.070456 224.332472 
L 304.45741 226.155653 
L 305.231319 231.469846 
L 305.618273 232.370711 
L 306.005227 234.979434 
L 306.392181 235.846822 
L 306.779135 235.004028 
L 307.16609 231.585851 
L 307.553044 232.48207 
L 307.939998 230.805911 
L 308.326952 232.564739 
L 308.713906 235.162529 
L 309.10086 234.35267 
L 309.487814 234.377811 
L 309.874769 232.701376 
L 310.261723 231.884955 
L 310.648677 231.884955 
L 311.035631 231.041481 
L 311.422585 223.488993 
L 311.809539 226.08665 
L 312.196494 227.800384 
L 312.583448 225.3544 
L 312.970402 223.717863 
L 313.357356 218.722455 
L 313.74431 219.643815 
L 314.518219 218.088036 
L 314.905173 216.495365 
L 315.679081 203.25252 
L 316.066035 213.476994 
L 316.452989 211.855492 
L 316.839944 203.62418 
L 317.226898 205.477832 
L 317.613852 208.866361 
L 318.000806 207.428772 
L 319.161669 207.708613 
L 319.548623 203.811922 
L 319.935577 206.432536 
L 320.322531 213.906044 
L 320.709485 210.684078 
L 321.096439 205.972467 
L 321.870348 217.472066 
L 322.257302 217.472066 
L 322.644256 219.23895 
L 323.03121 225.586 
L 323.805119 232.745786 
L 324.192073 238.317542 
L 324.579027 239.131094 
L 325.352935 232.194854 
L 325.739889 237.703622 
L 326.126844 240.048495 
L 326.513798 234.632235 
L 326.900752 230.781041 
L 327.287706 233.943705 
L 327.67466 226.961009 
L 328.835523 216.980432 
L 329.222477 211.67048 
L 329.609431 213.321911 
L 329.996385 224.937376 
L 330.383339 228.776676 
L 330.770294 228.030214 
L 331.157248 226.571175 
L 331.931156 222.160994 
L 332.31811 226.757276 
L 332.705064 228.309094 
L 333.092019 226.84937 
L 333.478973 226.971119 
L 333.865927 231.587353 
L 334.252881 230.881885 
L 335.026789 215.063383 
L 335.413744 211.375337 
L 335.800698 214.491955 
L 336.187652 219.850278 
L 336.574606 219.963143 
L 336.96156 211.057787 
L 337.348514 205.17258 
L 337.735469 208.988927 
L 338.122423 215.786069 
L 338.896331 210.840121 
L 339.283285 208.72289 
L 339.670239 215.452394 
L 340.057194 219.937727 
L 340.831102 204.826746 
L 341.218056 189.866064 
L 341.60501 195.218651 
L 341.991964 209.04044 
L 342.378919 209.04044 
L 342.765873 199.745663 
L 343.152827 204.945346 
L 343.539781 207.955928 
L 343.926735 205.278883 
L 344.313689 200.312991 
L 344.700644 197.519395 
L 345.087598 198.5722 
L 345.474552 201.005753 
L 345.861506 227.165422 
L 346.24846 235.442232 
L 347.022369 220.1707 
L 347.409323 226.295029 
L 348.183231 216.423765 
L 348.570185 219.228702 
L 348.957139 217.63043 
L 349.344094 217.864359 
L 350.118002 228.731583 
L 350.89191 205.321794 
L 351.278864 194.902057 
L 351.665819 198.515631 
L 352.052773 195.975628 
L 352.826681 200.345374 
L 353.213635 201.31743 
L 353.600589 198.794378 
L 353.987544 187.213346 
L 354.374498 179.540471 
L 354.761452 182.129658 
L 355.148406 186.976269 
L 355.53536 203.677196 
L 355.922314 239.629009 
L 356.309269 254.962033 
L 356.696223 256.210373 
L 357.083177 254.542685 
L 357.470131 260.758972 
L 357.857085 262.533101 
L 358.244039 268.537595 
L 358.630994 271.453622 
L 359.017948 281.422718 
L 359.404902 274.933427 
L 359.791856 273.486412 
L 360.17881 257.718602 
L 360.565764 228.497383 
L 360.952719 216.206237 
L 361.339673 218.843519 
L 361.726627 225.262439 
L 362.113581 223.420128 
L 362.500535 224.505044 
L 362.887489 227.281835 
L 363.274444 239.333322 
L 363.661398 236.337904 
L 364.048352 238.942258 
L 364.435306 239.377731 
L 364.82226 238.71653 
L 365.209214 239.83916 
L 366.370077 225.623713 
L 367.143985 212.611108 
L 367.530939 207.395024 
L 367.917894 206.802693 
L 368.304848 205.742913 
L 368.691802 203.350079 
L 369.078756 202.562764 
L 369.46571 206.530095 
L 369.852664 207.498051 
L 370.239619 212.818255 
L 370.626573 213.546544 
L 371.013527 215.057643 
L 371.787435 223.597893 
L 372.174389 230.911125 
L 372.561344 232.059853 
L 372.948298 235.28947 
L 374.10916 225.203137 
L 374.496114 230.11752 
L 374.883069 230.616529 
L 375.270023 231.64734 
L 375.656977 227.082477 
L 376.430885 239.097619 
L 376.817839 235.660036 
L 377.204794 231.213782 
L 377.591748 228.895277 
L 378.75261 242.677714 
L 379.526519 233.986883 
L 379.913473 233.025075 
L 380.300427 239.494829 
L 381.074335 227.153125 
L 381.461289 225.349755 
L 381.848244 226.777229 
L 382.235198 227.758571 
L 382.622152 231.346187 
L 383.009106 231.793678 
L 383.39606 232.566104 
L 383.783014 237.486365 
L 384.169969 245.629267 
L 384.556923 257.62514 
L 385.330831 254.658282 
L 385.717785 256.380216 
L 386.491694 252.181141 
L 386.878648 251.735424 
L 387.265602 251.493161 
L 387.652556 254.571926 
L 388.03951 252.834142 
L 388.813419 245.653864 
L 389.200373 236.306753 
L 389.587327 241.544561 
L 389.974281 242.694246 
L 390.361235 239.164026 
L 390.748189 240.316854 
L 391.135144 240.535341 
L 391.522098 242.802465 
L 391.909052 239.845446 
L 392.296006 234.231468 
L 392.68296 232.22833 
L 393.069914 231.648976 
L 393.843823 219.991699 
L 394.230777 216.864566 
L 394.617731 221.965321 
L 395.004685 224.657944 
L 395.391639 229.138089 
L 395.778594 232.131043 
L 396.165548 230.877373 
L 396.552502 228.002748 
L 396.939456 224.185854 
L 397.32641 226.863037 
L 397.713364 224.573776 
L 398.100319 225.808996 
L 398.487273 225.446491 
L 398.487273 225.446491 
" style="fill:none;opacity:0.6;stroke:#1f77b4;stroke-linecap:square;stroke-width:0.5;"/>
   </g>
   <g id="line2d_12">
    <path clip-path="url(#pc9974983fc)" d="M 73.832727 121.817978 
L 74.219681 133.339783 
L 74.606636 157.109873 
L 74.99359 130.825277 
L 75.380544 120.082748 
L 76.154452 122.555491 
L 76.541406 135.985592 
L 76.928361 170.985407 
L 77.315315 184.875559 
L 78.089223 226.065243 
L 78.476177 233.088472 
L 78.863131 234.457515 
L 79.250086 233.963831 
L 79.63704 260.829001 
L 80.023994 274.335912 
L 80.410948 278.656853 
L 80.797902 293.436799 
L 81.184856 291.222868 
L 81.571811 282.838717 
L 81.958765 281.940953 
L 82.345719 274.078223 
L 82.732673 276.974697 
L 83.119627 282.330618 
L 83.506581 267.321543 
L 83.893536 261.92516 
L 84.28049 261.952441 
L 85.054398 246.817455 
L 85.441352 226.541392 
L 85.828306 219.182297 
L 86.215261 214.835842 
L 86.989169 182.80373 
L 87.376123 147.793947 
L 87.763077 128.44393 
L 88.150031 119.115503 
L 88.536986 124.247739 
L 88.92394 127.528141 
L 89.310894 133.654839 
L 90.084802 152.684261 
L 90.471756 158.634941 
L 90.858711 155.707944 
L 91.245665 163.743917 
L 91.632619 167.292676 
L 92.019573 187.975996 
L 92.406527 194.87716 
L 92.793481 227.18465 
L 93.180436 228.829826 
L 93.56739 223.665265 
L 93.954344 226.154479 
L 94.341298 221.394281 
L 94.728252 211.029294 
L 95.115206 215.54941 
L 95.502161 226.74553 
L 95.889115 228.269549 
L 96.663023 243.462364 
L 97.049977 239.494004 
L 97.436931 240.352425 
L 97.823886 238.32333 
L 98.597794 243.714792 
L 98.984748 243.668689 
L 99.371702 246.524815 
L 100.145611 235.177107 
L 100.532565 237.137045 
L 100.919519 244.506706 
L 101.306473 245.640991 
L 101.693427 244.156475 
L 102.080381 233.307601 
L 102.467336 237.761355 
L 102.85429 245.232111 
L 103.241244 242.487961 
L 104.789061 256.309726 
L 105.176015 263.562182 
L 105.562969 255.452273 
L 106.336877 262.505463 
L 106.723831 261.451111 
L 107.49774 258.475902 
L 107.884694 262.620748 
L 108.271648 265.188254 
L 108.658602 256.477084 
L 109.045556 256.46412 
L 109.432511 249.685958 
L 109.819465 250.541819 
L 110.206419 250.620242 
L 110.593373 249.043583 
L 110.980327 257.027902 
L 111.367281 251.96151 
L 111.754236 245.410112 
L 112.14119 243.436752 
L 112.528144 238.692487 
L 112.915098 229.774175 
L 113.689006 222.817674 
L 114.075961 227.64543 
L 114.462915 214.851669 
L 114.849869 217.415458 
L 115.236823 209.888925 
L 115.623777 210.641678 
L 116.010731 208.719854 
L 116.397686 208.091089 
L 116.78464 203.479416 
L 117.171594 205.236021 
L 117.558548 203.720556 
L 117.945502 208.558138 
L 118.332456 202.815152 
L 118.719411 204.444723 
L 119.106365 213.071452 
L 119.493319 207.713779 
L 119.880273 210.781116 
L 120.267227 206.250414 
L 120.654181 211.498663 
L 121.041136 205.359797 
L 121.42809 204.710444 
L 121.815044 207.592689 
L 122.201998 214.903845 
L 122.588952 217.571954 
L 122.975906 223.118547 
L 123.362861 225.522736 
L 123.749815 225.392265 
L 124.136769 226.577977 
L 125.297631 237.332627 
L 125.684586 247.20612 
L 126.07154 250.062806 
L 126.458494 246.636567 
L 126.845448 241.493263 
L 127.232402 237.944628 
L 127.619356 239.396003 
L 128.393265 231.982131 
L 128.780219 234.914583 
L 129.167173 232.230878 
L 129.554127 242.427363 
L 129.941081 234.896906 
L 130.328036 231.948156 
L 130.71499 226.657774 
L 131.101944 230.739046 
L 131.488898 232.365008 
L 131.875852 235.110469 
L 132.262806 231.698094 
L 132.649761 235.499227 
L 133.423669 232.55074 
L 133.810623 234.165968 
L 134.197577 230.433696 
L 134.584531 233.152576 
L 134.971486 234.469807 
L 135.35844 240.999566 
L 135.745394 239.357076 
L 136.132348 240.891231 
L 136.519302 234.846553 
L 136.906256 238.210036 
L 137.293211 236.321611 
L 137.680165 242.690511 
L 138.067119 242.785138 
L 138.454073 244.309172 
L 138.841027 250.832138 
L 139.227981 241.651658 
L 139.614936 236.403769 
L 140.00189 234.014336 
L 140.775798 238.604187 
L 141.162752 240.655359 
L 141.936661 231.358719 
L 142.323615 234.506387 
L 142.710569 234.104763 
L 143.097523 235.190222 
L 143.484477 235.319141 
L 143.871431 238.801018 
L 144.64534 242.55188 
L 145.032294 239.288637 
L 145.419248 232.48869 
L 145.806202 232.235706 
L 146.193156 234.871881 
L 146.580111 241.512482 
L 146.967065 235.289964 
L 147.354019 233.252789 
L 147.740973 230.531419 
L 148.127927 236.251225 
L 148.514881 235.619655 
L 149.28879 232.462851 
L 149.675744 233.909899 
L 150.062698 237.861772 
L 150.836606 240.024532 
L 151.223561 236.425938 
L 151.610515 236.492576 
L 151.997469 233.690837 
L 152.384423 237.631138 
L 152.771377 237.022593 
L 153.158331 236.111431 
L 153.545286 237.298879 
L 153.93224 235.296414 
L 154.706148 224.922331 
L 155.093102 226.824083 
L 155.480056 231.221149 
L 155.867011 230.325739 
L 156.253965 230.877075 
L 156.640919 229.077097 
L 157.027873 225.546686 
L 157.414827 231.916502 
L 157.801781 218.275181 
L 158.188736 215.642456 
L 158.57569 215.751334 
L 158.962644 217.532898 
L 159.349598 220.907466 
L 160.123506 201.924103 
L 160.510461 203.794196 
L 160.897415 201.005384 
L 161.284369 203.333091 
L 162.058277 209.149389 
L 162.445231 215.510069 
L 162.832186 219.627223 
L 163.21914 216.063811 
L 163.606094 218.376674 
L 163.993048 211.799884 
L 164.380002 214.009724 
L 164.766956 219.290952 
L 165.540865 214.101823 
L 165.927819 206.200737 
L 166.701727 203.959077 
L 167.088681 205.544822 
L 167.475635 201.154856 
L 167.86259 200.416436 
L 168.249544 193.956312 
L 168.636498 194.265632 
L 169.023452 188.355453 
L 169.410406 193.569678 
L 169.79736 191.945416 
L 170.184315 188.30374 
L 170.571269 192.074122 
L 171.345177 184.97655 
L 171.732131 185.976516 
L 172.119085 176.446819 
L 172.50604 175.7785 
L 172.892994 177.527654 
L 173.279948 177.936632 
L 174.053856 175.579586 
L 174.44081 170.587935 
L 174.827765 171.978198 
L 175.214719 167.655995 
L 175.601673 169.740433 
L 175.988627 166.032613 
L 176.375581 168.786774 
L 176.762535 170.465027 
L 177.14949 167.404487 
L 177.536444 169.707614 
L 177.923398 171.148506 
L 178.310352 177.143822 
L 178.697306 178.164239 
L 179.08426 173.382278 
L 179.471215 176.253676 
L 179.858169 177.721535 
L 180.245123 180.589643 
L 180.632077 180.860508 
L 181.019031 187.846916 
L 181.405985 191.381769 
L 181.79294 196.70264 
L 182.179894 191.441245 
L 182.566848 191.215114 
L 182.953802 190.769858 
L 183.340756 192.009995 
L 184.114665 201.438195 
L 184.888573 206.623963 
L 185.275527 210.263759 
L 185.662481 202.338251 
L 186.049435 207.925203 
L 186.43639 206.923441 
L 187.210298 211.820739 
L 187.597252 209.376124 
L 187.984206 213.248119 
L 188.37116 210.118154 
L 188.758115 209.975471 
L 189.145069 204.61072 
L 189.532023 206.630303 
L 189.918977 200.399271 
L 190.305931 196.843443 
L 190.692885 180.734452 
L 191.07984 176.040331 
L 191.466794 174.367076 
L 191.853748 168.066102 
L 192.240702 172.346701 
L 192.627656 144.433814 
L 193.01461 146.785872 
L 193.401565 135.570888 
L 193.788519 133.175422 
L 194.175473 124.012405 
L 194.562427 127.296888 
L 194.949381 123.549349 
L 195.336335 109.372398 
L 196.110244 104.931386 
L 196.497198 105.482149 
L 196.884152 99.015329 
L 197.271106 103.119333 
L 197.65806 84.575188 
L 198.045015 87.819232 
L 198.431969 86.432481 
L 199.205877 95.75857 
L 199.592831 102.132348 
L 199.979785 112.142841 
L 200.36674 114.632291 
L 200.753694 127.020218 
L 201.140648 127.817207 
L 201.527602 122.840262 
L 202.30151 151.728583 
L 202.688465 157.373927 
L 203.075419 159.291221 
L 203.462373 158.694586 
L 203.849327 158.993886 
L 204.236281 173.158175 
L 204.623235 171.074252 
L 205.01019 170.302969 
L 205.397144 165.929257 
L 205.784098 171.909662 
L 206.171052 180.063207 
L 206.94496 177.011097 
L 207.331915 179.875728 
L 207.718869 186.299601 
L 208.105823 187.413113 
L 208.492777 178.0658 
L 208.879731 162.37879 
L 209.266685 160.327091 
L 209.65364 156.662199 
L 210.040594 162.305141 
L 210.427548 161.040419 
L 210.814502 160.431879 
L 211.201456 158.622546 
L 211.58841 160.068186 
L 211.975365 158.702384 
L 212.362319 155.575211 
L 212.749273 160.296477 
L 213.136227 157.425925 
L 213.523181 174.123713 
L 214.684044 151.647403 
L 215.070998 148.975 
L 215.457952 148.03699 
L 215.844906 148.018024 
L 216.23186 133.200043 
L 216.618815 129.703611 
L 217.005769 129.171307 
L 217.392723 127.739734 
L 218.166631 111.856105 
L 218.553585 107.904788 
L 218.94054 107.13474 
L 219.327494 104.249027 
L 220.488356 87.436733 
L 220.87531 86.521842 
L 221.262265 84.520113 
L 221.649219 79.014919 
L 222.036173 71.657536 
L 222.423127 98.764053 
L 223.197035 55.935173 
L 223.58399 53.568 
L 223.970944 61.63175 
L 224.357898 66.906705 
L 224.744852 82.370446 
L 225.131806 82.711012 
L 225.51876 79.569808 
L 225.905715 79.717195 
L 226.292669 80.470864 
L 226.679623 86.824974 
L 227.840485 113.677156 
L 228.22744 118.05527 
L 228.614394 120.185553 
L 229.001348 119.626894 
L 229.388302 103.928699 
L 229.775256 105.169734 
L 230.16221 105.420246 
L 230.936119 128.439422 
L 231.323073 136.288058 
L 231.710027 140.502041 
L 232.096981 156.892785 
L 232.483935 158.075856 
L 233.257844 157.181877 
L 233.644798 155.092371 
L 234.418706 177.872115 
L 234.80566 189.058049 
L 235.192615 188.912005 
L 235.966523 205.594455 
L 236.353477 199.755822 
L 237.127385 202.747718 
L 237.51434 201.307462 
L 238.288248 221.866126 
L 238.675202 216.834254 
L 239.062156 213.877769 
L 239.44911 212.179772 
L 239.836065 213.909298 
L 240.223019 206.458099 
L 240.609973 195.346405 
L 240.996927 193.707889 
L 241.770835 187.868087 
L 242.15779 191.902398 
L 242.544744 194.221352 
L 242.931698 193.41532 
L 243.318652 191.643057 
L 243.705606 195.019915 
L 244.09256 193.160914 
L 244.479515 194.707927 
L 244.866469 195.770481 
L 245.640377 205.33362 
L 246.027331 201.676583 
L 246.414285 196.653963 
L 246.80124 201.822032 
L 247.188194 203.355898 
L 247.575148 202.459817 
L 247.962102 204.902031 
L 248.349056 205.430418 
L 248.73601 207.02938 
L 249.122965 206.848071 
L 249.896873 196.337524 
L 250.283827 198.726028 
L 251.057735 227.463984 
L 251.44469 232.164449 
L 251.831644 228.050189 
L 252.218598 227.900752 
L 252.605552 228.904675 
L 252.992506 235.99364 
L 253.37946 232.569976 
L 253.766415 233.873969 
L 254.153369 235.862506 
L 254.540323 239.13247 
L 255.314231 220.629119 
L 255.701185 207.725285 
L 256.08814 201.440556 
L 256.475094 205.418503 
L 256.862048 202.273271 
L 257.249002 195.545506 
L 257.635956 190.933846 
L 258.02291 194.620736 
L 258.409865 194.026502 
L 258.796819 188.617915 
L 259.183773 190.661292 
L 259.957681 202.204473 
L 260.344635 203.559609 
L 260.73159 198.522824 
L 261.118544 197.441465 
L 261.505498 197.364815 
L 261.892452 193.865982 
L 262.279406 199.647784 
L 262.66636 196.584831 
L 263.053315 196.042599 
L 263.827223 192.420823 
L 264.214177 186.903429 
L 264.601131 184.968121 
L 264.988085 182.178002 
L 265.37504 183.386236 
L 265.761994 180.289214 
L 266.148948 181.881031 
L 266.535902 181.271148 
L 266.922856 187.987884 
L 267.30981 190.027979 
L 267.696765 187.466676 
L 268.083719 186.418998 
L 268.470673 187.765149 
L 268.857627 179.795304 
L 269.244581 184.276542 
L 269.631535 183.30157 
L 270.405444 193.928374 
L 271.179352 184.395316 
L 271.95326 165.389057 
L 272.340215 166.421362 
L 272.727169 170.158969 
L 273.114123 171.014963 
L 273.501077 176.4063 
L 273.888031 177.817671 
L 274.274985 183.288944 
L 274.66194 182.784221 
L 275.048894 181.814753 
L 275.822802 197.847015 
L 276.209756 205.158824 
L 276.59671 208.045386 
L 276.983665 213.013448 
L 277.370619 207.331867 
L 277.757573 209.158605 
L 278.144527 219.785956 
L 278.531481 215.941134 
L 278.918435 210.598505 
L 279.30539 211.315123 
L 279.692344 213.103258 
L 280.079298 211.735037 
L 280.466252 206.83757 
L 280.853206 211.317955 
L 281.24016 212.312671 
L 281.627115 207.593449 
L 282.014069 208.90182 
L 282.401023 212.638432 
L 282.787977 205.843499 
L 283.174931 207.369501 
L 283.561885 210.332829 
L 283.94884 207.66861 
L 284.335794 207.459493 
L 284.722748 211.840532 
L 285.109702 212.845384 
L 285.496656 212.533142 
L 285.88361 213.700484 
L 286.270565 213.306991 
L 286.657519 213.843767 
L 287.044473 213.501321 
L 287.431427 223.377417 
L 287.818381 220.215305 
L 288.205335 218.236792 
L 288.59229 223.031463 
L 288.979244 223.090107 
L 289.753152 213.451199 
L 290.140106 213.559681 
L 290.52706 212.960139 
L 290.914015 218.362097 
L 291.300969 215.746777 
L 291.687923 217.506917 
L 292.074877 212.161945 
L 292.461831 213.116742 
L 292.848785 212.369039 
L 293.23574 206.583413 
L 293.622694 208.143501 
L 294.396602 215.294684 
L 294.783556 216.723469 
L 295.17051 215.127758 
L 295.557465 212.038414 
L 295.944419 216.556779 
L 296.331373 218.651451 
L 296.718327 217.867222 
L 297.105281 217.858081 
L 297.492235 216.001512 
L 297.87919 215.920167 
L 298.653098 214.280296 
L 299.040052 211.204156 
L 299.427006 215.800945 
L 299.81396 212.066378 
L 300.200915 211.298216 
L 300.587869 206.5491 
L 300.974823 206.470654 
L 301.361777 209.575065 
L 301.748731 209.624 
L 302.135685 213.378519 
L 302.52264 219.791691 
L 302.909594 222.687612 
L 303.296548 222.409661 
L 303.683502 221.951779 
L 304.070456 219.300671 
L 304.45741 221.28186 
L 305.231319 226.420471 
L 305.618273 228.176783 
L 306.005227 236.429937 
L 306.392181 235.159853 
L 306.779135 234.69833 
L 307.16609 234.010859 
L 307.553044 231.434453 
L 307.939998 233.288075 
L 308.326952 229.579627 
L 309.10086 233.187555 
L 309.487814 232.07981 
L 310.261723 232.123014 
L 310.648677 229.52437 
L 311.035631 229.490351 
L 311.422585 228.47338 
L 311.809539 220.784575 
L 312.196494 224.965162 
L 312.583448 226.823816 
L 312.970402 221.939753 
L 313.357356 219.682818 
L 313.74431 215.544564 
L 314.131264 218.161613 
L 314.518219 217.656406 
L 314.905173 215.052846 
L 315.292127 217.830477 
L 316.066035 202.352291 
L 316.452989 215.399405 
L 316.839944 210.969827 
L 317.226898 199.267722 
L 317.613852 200.142939 
L 318.000806 207.664555 
L 318.38776 205.340582 
L 318.774714 206.199319 
L 319.161669 204.066408 
L 319.548623 206.903279 
L 319.935577 201.06867 
L 320.322531 203.560832 
L 320.709485 209.16494 
L 321.483394 203.110904 
L 321.870348 210.965866 
L 322.257302 215.935136 
L 322.644256 213.107023 
L 323.03121 214.165136 
L 323.418164 222.869707 
L 324.192073 232.09673 
L 324.579027 243.107892 
L 325.739889 230.442583 
L 326.126844 238.840888 
L 326.513798 241.253361 
L 326.900752 232.785291 
L 327.287706 228.109909 
L 327.67466 232.130727 
L 328.061614 224.437108 
L 329.609431 211.321334 
L 329.996385 213.954201 
L 330.383339 223.607283 
L 330.770294 225.910045 
L 331.157248 225.913704 
L 331.544202 226.126955 
L 332.31811 220.409297 
L 332.705064 223.68909 
L 333.092019 224.50576 
L 333.478973 224.921989 
L 333.865927 230.198211 
L 334.252881 232.106027 
L 334.639835 230.189008 
L 335.413744 213.69931 
L 335.800698 211.205845 
L 336.187652 213.668456 
L 336.574606 219.59597 
L 336.96156 217.193057 
L 337.348514 207.22431 
L 337.735469 202.457937 
L 338.122423 209.665657 
L 338.509377 212.788073 
L 338.896331 206.786181 
L 339.283285 206.769865 
L 339.670239 208.911196 
L 340.057194 218.000378 
L 340.444148 218.096091 
L 340.831102 204.061482 
L 341.218056 196.742572 
L 341.60501 186.527795 
L 342.378919 208.860603 
L 343.152827 198.004129 
L 343.539781 206.601823 
L 343.926735 209.509312 
L 345.087598 193.437834 
L 345.474552 195.247326 
L 345.861506 203.566287 
L 346.24846 230.909583 
L 346.635414 237.260938 
L 347.022369 225.734374 
L 347.409323 219.853403 
L 347.796277 223.177067 
L 348.183231 215.892417 
L 348.570185 211.564554 
L 348.957139 218.130484 
L 349.344094 218.94819 
L 350.118002 218.37571 
L 350.504956 217.081605 
L 350.89191 203.955116 
L 351.278864 201.515463 
L 351.665819 195.446649 
L 352.052773 199.317297 
L 352.439727 193.635352 
L 352.826681 199.393627 
L 353.213635 201.666709 
L 353.600589 200.187042 
L 353.987544 195.451086 
L 354.374498 181.066197 
L 354.761452 173.192727 
L 355.148406 184.000742 
L 355.53536 188.497416 
L 355.922314 210.005125 
L 356.309269 244.770922 
L 356.696223 256.331975 
L 357.083177 252.404234 
L 357.470131 252.995582 
L 357.857085 259.568841 
L 358.244039 263.325597 
L 358.630994 272.262639 
L 359.017948 275.788703 
L 359.404902 281.116832 
L 360.17881 257.872843 
L 360.952719 215.146248 
L 361.339673 218.763797 
L 361.726627 220.621797 
L 362.113581 226.22908 
L 362.500535 223.404941 
L 362.887489 224.256933 
L 363.274444 226.892352 
L 363.661398 239.552871 
L 364.048352 232.866538 
L 364.435306 238.892259 
L 364.82226 239.001879 
L 365.209214 238.070916 
L 365.596169 237.622588 
L 365.983123 233.956394 
L 366.370077 226.705909 
L 366.757031 222.976731 
L 367.917894 202.339403 
L 368.304848 203.930695 
L 368.691802 202.917427 
L 369.078756 201.203809 
L 369.46571 200.674568 
L 369.852664 205.276407 
L 370.239619 205.448063 
L 370.626573 211.618144 
L 371.013527 214.319614 
L 371.400481 215.546227 
L 371.787435 220.520255 
L 372.174389 223.996312 
L 372.561344 230.272247 
L 372.948298 230.114172 
L 373.335252 231.569992 
L 373.722206 231.452099 
L 374.10916 228.639879 
L 374.496114 224.606057 
L 374.883069 228.078255 
L 375.270023 228.723474 
L 375.656977 227.327298 
L 376.043931 222.31232 
L 376.430885 230.81226 
L 376.817839 235.938018 
L 377.591748 227.696037 
L 377.978702 226.815107 
L 378.75261 238.291049 
L 379.139564 238.633707 
L 379.526519 233.741666 
L 379.913473 232.952493 
L 380.300427 237.175286 
L 380.687381 239.965465 
L 381.074335 230.906729 
L 381.461289 225.133844 
L 381.848244 225.843056 
L 382.235198 228.465906 
L 382.622152 226.569912 
L 383.009106 229.763168 
L 383.39606 228.500699 
L 383.783014 230.738531 
L 384.169969 236.497962 
L 384.943877 254.019712 
L 385.717785 253.935913 
L 386.104739 255.965034 
L 386.878648 248.645346 
L 387.265602 249.093227 
L 387.652556 251.643093 
L 388.03951 256.143657 
L 388.426464 251.971729 
L 388.813419 243.741444 
L 389.200373 240.442119 
L 389.587327 240.875202 
L 389.974281 241.814196 
L 390.361235 240.898718 
L 390.748189 237.081139 
L 391.135144 240.326755 
L 391.522098 241.512055 
L 391.909052 242.239099 
L 392.296006 238.197232 
L 392.68296 231.559007 
L 393.069914 230.331096 
L 393.456869 230.538297 
L 393.843823 224.630723 
L 394.230777 216.673872 
L 394.617731 215.202042 
L 395.004685 223.250152 
L 395.391639 225.04371 
L 396.165548 229.437962 
L 396.552502 229.356871 
L 396.939456 227.869605 
L 397.32641 223.242923 
L 397.713364 223.949756 
L 398.100319 220.867787 
L 398.487273 224.012517 
L 398.487273 224.012517 
" style="fill:none;opacity:0.6;stroke:#ff7f0e;stroke-linecap:square;stroke-width:0.5;"/>
   </g>
   <g id="patch_3">
    <path d="M 57.6 307.584 
L 57.6 41.472 
" style="fill:none;stroke:#000000;stroke-linecap:square;stroke-linejoin:miter;stroke-width:0.8;"/>
   </g>
   <g id="patch_4">
    <path d="M 414.72 307.584 
L 414.72 41.472 
" style="fill:none;stroke:#000000;stroke-linecap:square;stroke-linejoin:miter;stroke-width:0.8;"/>
   </g>
   <g id="patch_5">
    <path d="M 57.6 307.584 
L 414.72 307.584 
" style="fill:none;stroke:#000000;stroke-linecap:square;stroke-linejoin:miter;stroke-width:0.8;"/>
   </g>
   <g id="patch_6">
    <path d="M 57.6 41.472 
L 414.72 41.472 
" style="fill:none;stroke:#000000;stroke-linecap:square;stroke-linejoin:miter;stroke-width:0.8;"/>
   </g>
  </g>
 </g>
 <defs>
  <clipPath id="pc9974983fc">
   <rect height="266.112" width="357.12" x="57.6" y="41.472"/>
  </clipPath>
 </defs>
</svg>
