<?xml version="1.0" encoding="utf-8" standalone="no"?>
<!DOCTYPE svg PUBLIC "-//W3C//DTD SVG 1.1//EN"
  "http://www.w3.org/Graphics/SVG/1.1/DTD/svg11.dtd">
<!-- Created with matplotlib (http://matplotlib.org/) -->
<svg height="345.6pt" version="1.1" viewBox="0 0 460.8 345.6" width="460.8pt" xmlns="http://www.w3.org/2000/svg" xmlns:xlink="http://www.w3.org/1999/xlink">
 <defs>
  <style type="text/css">
*{stroke-linecap:butt;stroke-linejoin:round;}
  </style>
 </defs>
 <g id="figure_1">
  <g id="patch_1">
   <path d="M 0 345.6 
L 460.8 345.6 
L 460.8 0 
L 0 0 
z
" style="fill:#ffffff;"/>
  </g>
  <g id="axes_1">
   <g id="patch_2">
    <path d="M 57.6 307.584 
L 414.72 307.584 
L 414.72 41.472 
L 57.6 41.472 
z
" style="fill:#ffffff;"/>
   </g>
   <g id="matplotlib.axis_1">
    <g id="xtick_1">
     <g id="line2d_1">
      <defs>
       <path d="M 0 0 
L 0 3.5 
" id="me451a1e49e" style="stroke:#000000;stroke-width:0.8;"/>
      </defs>
      <g>
       <use style="stroke:#000000;stroke-width:0.8;" x="73.832727" xlink:href="#me451a1e49e" y="307.584"/>
      </g>
     </g>
     <g id="text_1">
      <!-- 0 -->
      <defs>
       <path d="M 31.78125 66.40625 
Q 24.171875 66.40625 20.328125 58.90625 
Q 16.5 51.421875 16.5 36.375 
Q 16.5 21.390625 20.328125 13.890625 
Q 24.171875 6.390625 31.78125 6.390625 
Q 39.453125 6.390625 43.28125 13.890625 
Q 47.125 21.390625 47.125 36.375 
Q 47.125 51.421875 43.28125 58.90625 
Q 39.453125 66.40625 31.78125 66.40625 
z
M 31.78125 74.21875 
Q 44.046875 74.21875 50.515625 64.515625 
Q 56.984375 54.828125 56.984375 36.375 
Q 56.984375 17.96875 50.515625 8.265625 
Q 44.046875 -1.421875 31.78125 -1.421875 
Q 19.53125 -1.421875 13.0625 8.265625 
Q 6.59375 17.96875 6.59375 36.375 
Q 6.59375 54.828125 13.0625 64.515625 
Q 19.53125 74.21875 31.78125 74.21875 
z
" id="DejaVuSans-30"/>
      </defs>
      <g transform="translate(70.651477 322.182437)scale(0.1 -0.1)">
       <use xlink:href="#DejaVuSans-30"/>
      </g>
     </g>
    </g>
    <g id="xtick_2">
     <g id="line2d_2">
      <g>
       <use style="stroke:#000000;stroke-width:0.8;" x="149.158608" xlink:href="#me451a1e49e" y="307.584"/>
      </g>
     </g>
     <g id="text_2">
      <!-- 100 -->
      <defs>
       <path d="M 12.40625 8.296875 
L 28.515625 8.296875 
L 28.515625 63.921875 
L 10.984375 60.40625 
L 10.984375 69.390625 
L 28.421875 72.90625 
L 38.28125 72.90625 
L 38.28125 8.296875 
L 54.390625 8.296875 
L 54.390625 0 
L 12.40625 0 
z
" id="DejaVuSans-31"/>
      </defs>
      <g transform="translate(139.614858 322.182437)scale(0.1 -0.1)">
       <use xlink:href="#DejaVuSans-31"/>
       <use x="63.623047" xlink:href="#DejaVuSans-30"/>
       <use x="127.246094" xlink:href="#DejaVuSans-30"/>
      </g>
     </g>
    </g>
    <g id="xtick_3">
     <g id="line2d_3">
      <g>
       <use style="stroke:#000000;stroke-width:0.8;" x="224.484489" xlink:href="#me451a1e49e" y="307.584"/>
      </g>
     </g>
     <g id="text_3">
      <!-- 200 -->
      <defs>
       <path d="M 19.1875 8.296875 
L 53.609375 8.296875 
L 53.609375 0 
L 7.328125 0 
L 7.328125 8.296875 
Q 12.9375 14.109375 22.625 23.890625 
Q 32.328125 33.6875 34.8125 36.53125 
Q 39.546875 41.84375 41.421875 45.53125 
Q 43.3125 49.21875 43.3125 52.78125 
Q 43.3125 58.59375 39.234375 62.25 
Q 35.15625 65.921875 28.609375 65.921875 
Q 23.96875 65.921875 18.8125 64.3125 
Q 13.671875 62.703125 7.8125 59.421875 
L 7.8125 69.390625 
Q 13.765625 71.78125 18.9375 73 
Q 24.125 74.21875 28.421875 74.21875 
Q 39.75 74.21875 46.484375 68.546875 
Q 53.21875 62.890625 53.21875 53.421875 
Q 53.21875 48.921875 51.53125 44.890625 
Q 49.859375 40.875 45.40625 35.40625 
Q 44.1875 33.984375 37.640625 27.21875 
Q 31.109375 20.453125 19.1875 8.296875 
z
" id="DejaVuSans-32"/>
      </defs>
      <g transform="translate(214.940739 322.182437)scale(0.1 -0.1)">
       <use xlink:href="#DejaVuSans-32"/>
       <use x="63.623047" xlink:href="#DejaVuSans-30"/>
       <use x="127.246094" xlink:href="#DejaVuSans-30"/>
      </g>
     </g>
    </g>
    <g id="xtick_4">
     <g id="line2d_4">
      <g>
       <use style="stroke:#000000;stroke-width:0.8;" x="299.810369" xlink:href="#me451a1e49e" y="307.584"/>
      </g>
     </g>
     <g id="text_4">
      <!-- 300 -->
      <defs>
       <path d="M 40.578125 39.3125 
Q 47.65625 37.796875 51.625 33 
Q 55.609375 28.21875 55.609375 21.1875 
Q 55.609375 10.40625 48.1875 4.484375 
Q 40.765625 -1.421875 27.09375 -1.421875 
Q 22.515625 -1.421875 17.65625 -0.515625 
Q 12.796875 0.390625 7.625 2.203125 
L 7.625 11.71875 
Q 11.71875 9.328125 16.59375 8.109375 
Q 21.484375 6.890625 26.8125 6.890625 
Q 36.078125 6.890625 40.9375 10.546875 
Q 45.796875 14.203125 45.796875 21.1875 
Q 45.796875 27.640625 41.28125 31.265625 
Q 36.765625 34.90625 28.71875 34.90625 
L 20.21875 34.90625 
L 20.21875 43.015625 
L 29.109375 43.015625 
Q 36.375 43.015625 40.234375 45.921875 
Q 44.09375 48.828125 44.09375 54.296875 
Q 44.09375 59.90625 40.109375 62.90625 
Q 36.140625 65.921875 28.71875 65.921875 
Q 24.65625 65.921875 20.015625 65.03125 
Q 15.375 64.15625 9.8125 62.3125 
L 9.8125 71.09375 
Q 15.4375 72.65625 20.34375 73.4375 
Q 25.25 74.21875 29.59375 74.21875 
Q 40.828125 74.21875 47.359375 69.109375 
Q 53.90625 64.015625 53.90625 55.328125 
Q 53.90625 49.265625 50.4375 45.09375 
Q 46.96875 40.921875 40.578125 39.3125 
z
" id="DejaVuSans-33"/>
      </defs>
      <g transform="translate(290.266619 322.182437)scale(0.1 -0.1)">
       <use xlink:href="#DejaVuSans-33"/>
       <use x="63.623047" xlink:href="#DejaVuSans-30"/>
       <use x="127.246094" xlink:href="#DejaVuSans-30"/>
      </g>
     </g>
    </g>
    <g id="xtick_5">
     <g id="line2d_5">
      <g>
       <use style="stroke:#000000;stroke-width:0.8;" x="375.13625" xlink:href="#me451a1e49e" y="307.584"/>
      </g>
     </g>
     <g id="text_5">
      <!-- 400 -->
      <defs>
       <path d="M 37.796875 64.3125 
L 12.890625 25.390625 
L 37.796875 25.390625 
z
M 35.203125 72.90625 
L 47.609375 72.90625 
L 47.609375 25.390625 
L 58.015625 25.390625 
L 58.015625 17.1875 
L 47.609375 17.1875 
L 47.609375 0 
L 37.796875 0 
L 37.796875 17.1875 
L 4.890625 17.1875 
L 4.890625 26.703125 
z
" id="DejaVuSans-34"/>
      </defs>
      <g transform="translate(365.5925 322.182437)scale(0.1 -0.1)">
       <use xlink:href="#DejaVuSans-34"/>
       <use x="63.623047" xlink:href="#DejaVuSans-30"/>
       <use x="127.246094" xlink:href="#DejaVuSans-30"/>
      </g>
     </g>
    </g>
   </g>
   <g id="matplotlib.axis_2">
    <g id="ytick_1">
     <g id="line2d_6">
      <defs>
       <path d="M 0 0 
L -3.5 0 
" id="m1a0ff015f7" style="stroke:#000000;stroke-width:0.8;"/>
      </defs>
      <g>
       <use style="stroke:#000000;stroke-width:0.8;" x="57.6" xlink:href="#m1a0ff015f7" y="288.576"/>
      </g>
     </g>
     <g id="text_6">
      <!-- 4 -->
      <g transform="translate(44.2375 292.375219)scale(0.1 -0.1)">
       <use xlink:href="#DejaVuSans-34"/>
      </g>
     </g>
    </g>
    <g id="ytick_2">
     <g id="line2d_7">
      <g>
       <use style="stroke:#000000;stroke-width:0.8;" x="57.6" xlink:href="#m1a0ff015f7" y="254.016"/>
      </g>
     </g>
     <g id="text_7">
      <!-- 5 -->
      <defs>
       <path d="M 10.796875 72.90625 
L 49.515625 72.90625 
L 49.515625 64.59375 
L 19.828125 64.59375 
L 19.828125 46.734375 
Q 21.96875 47.46875 24.109375 47.828125 
Q 26.265625 48.1875 28.421875 48.1875 
Q 40.625 48.1875 47.75 41.5 
Q 54.890625 34.8125 54.890625 23.390625 
Q 54.890625 11.625 47.5625 5.09375 
Q 40.234375 -1.421875 26.90625 -1.421875 
Q 22.3125 -1.421875 17.546875 -0.640625 
Q 12.796875 0.140625 7.71875 1.703125 
L 7.71875 11.625 
Q 12.109375 9.234375 16.796875 8.0625 
Q 21.484375 6.890625 26.703125 6.890625 
Q 35.15625 6.890625 40.078125 11.328125 
Q 45.015625 15.765625 45.015625 23.390625 
Q 45.015625 31 40.078125 35.4375 
Q 35.15625 39.890625 26.703125 39.890625 
Q 22.75 39.890625 18.8125 39.015625 
Q 14.890625 38.140625 10.796875 36.28125 
z
" id="DejaVuSans-35"/>
      </defs>
      <g transform="translate(44.2375 257.815219)scale(0.1 -0.1)">
       <use xlink:href="#DejaVuSans-35"/>
      </g>
     </g>
    </g>
    <g id="ytick_3">
     <g id="line2d_8">
      <g>
       <use style="stroke:#000000;stroke-width:0.8;" x="57.6" xlink:href="#m1a0ff015f7" y="219.456"/>
      </g>
     </g>
     <g id="text_8">
      <!-- 6 -->
      <defs>
       <path d="M 33.015625 40.375 
Q 26.375 40.375 22.484375 35.828125 
Q 18.609375 31.296875 18.609375 23.390625 
Q 18.609375 15.53125 22.484375 10.953125 
Q 26.375 6.390625 33.015625 6.390625 
Q 39.65625 6.390625 43.53125 10.953125 
Q 47.40625 15.53125 47.40625 23.390625 
Q 47.40625 31.296875 43.53125 35.828125 
Q 39.65625 40.375 33.015625 40.375 
z
M 52.59375 71.296875 
L 52.59375 62.3125 
Q 48.875 64.0625 45.09375 64.984375 
Q 41.3125 65.921875 37.59375 65.921875 
Q 27.828125 65.921875 22.671875 59.328125 
Q 17.53125 52.734375 16.796875 39.40625 
Q 19.671875 43.65625 24.015625 45.921875 
Q 28.375 48.1875 33.59375 48.1875 
Q 44.578125 48.1875 50.953125 41.515625 
Q 57.328125 34.859375 57.328125 23.390625 
Q 57.328125 12.15625 50.6875 5.359375 
Q 44.046875 -1.421875 33.015625 -1.421875 
Q 20.359375 -1.421875 13.671875 8.265625 
Q 6.984375 17.96875 6.984375 36.375 
Q 6.984375 53.65625 15.1875 63.9375 
Q 23.390625 74.21875 37.203125 74.21875 
Q 40.921875 74.21875 44.703125 73.484375 
Q 48.484375 72.75 52.59375 71.296875 
z
" id="DejaVuSans-36"/>
      </defs>
      <g transform="translate(44.2375 223.255219)scale(0.1 -0.1)">
       <use xlink:href="#DejaVuSans-36"/>
      </g>
     </g>
    </g>
    <g id="ytick_4">
     <g id="line2d_9">
      <g>
       <use style="stroke:#000000;stroke-width:0.8;" x="57.6" xlink:href="#m1a0ff015f7" y="184.896"/>
      </g>
     </g>
     <g id="text_9">
      <!-- 7 -->
      <defs>
       <path d="M 8.203125 72.90625 
L 55.078125 72.90625 
L 55.078125 68.703125 
L 28.609375 0 
L 18.3125 0 
L 43.21875 64.59375 
L 8.203125 64.59375 
z
" id="DejaVuSans-37"/>
      </defs>
      <g transform="translate(44.2375 188.695219)scale(0.1 -0.1)">
       <use xlink:href="#DejaVuSans-37"/>
      </g>
     </g>
    </g>
    <g id="ytick_5">
     <g id="line2d_10">
      <g>
       <use style="stroke:#000000;stroke-width:0.8;" x="57.6" xlink:href="#m1a0ff015f7" y="150.336"/>
      </g>
     </g>
     <g id="text_10">
      <!-- 8 -->
      <defs>
       <path d="M 31.78125 34.625 
Q 24.75 34.625 20.71875 30.859375 
Q 16.703125 27.09375 16.703125 20.515625 
Q 16.703125 13.921875 20.71875 10.15625 
Q 24.75 6.390625 31.78125 6.390625 
Q 38.8125 6.390625 42.859375 10.171875 
Q 46.921875 13.96875 46.921875 20.515625 
Q 46.921875 27.09375 42.890625 30.859375 
Q 38.875 34.625 31.78125 34.625 
z
M 21.921875 38.8125 
Q 15.578125 40.375 12.03125 44.71875 
Q 8.5 49.078125 8.5 55.328125 
Q 8.5 64.0625 14.71875 69.140625 
Q 20.953125 74.21875 31.78125 74.21875 
Q 42.671875 74.21875 48.875 69.140625 
Q 55.078125 64.0625 55.078125 55.328125 
Q 55.078125 49.078125 51.53125 44.71875 
Q 48 40.375 41.703125 38.8125 
Q 48.828125 37.15625 52.796875 32.3125 
Q 56.78125 27.484375 56.78125 20.515625 
Q 56.78125 9.90625 50.3125 4.234375 
Q 43.84375 -1.421875 31.78125 -1.421875 
Q 19.734375 -1.421875 13.25 4.234375 
Q 6.78125 9.90625 6.78125 20.515625 
Q 6.78125 27.484375 10.78125 32.3125 
Q 14.796875 37.15625 21.921875 38.8125 
z
M 18.3125 54.390625 
Q 18.3125 48.734375 21.84375 45.5625 
Q 25.390625 42.390625 31.78125 42.390625 
Q 38.140625 42.390625 41.71875 45.5625 
Q 45.3125 48.734375 45.3125 54.390625 
Q 45.3125 60.0625 41.71875 63.234375 
Q 38.140625 66.40625 31.78125 66.40625 
Q 25.390625 66.40625 21.84375 63.234375 
Q 18.3125 60.0625 18.3125 54.390625 
z
" id="DejaVuSans-38"/>
      </defs>
      <g transform="translate(44.2375 154.135219)scale(0.1 -0.1)">
       <use xlink:href="#DejaVuSans-38"/>
      </g>
     </g>
    </g>
    <g id="ytick_6">
     <g id="line2d_11">
      <g>
       <use style="stroke:#000000;stroke-width:0.8;" x="57.6" xlink:href="#m1a0ff015f7" y="115.776"/>
      </g>
     </g>
     <g id="text_11">
      <!-- 9 -->
      <defs>
       <path d="M 10.984375 1.515625 
L 10.984375 10.5 
Q 14.703125 8.734375 18.5 7.8125 
Q 22.3125 6.890625 25.984375 6.890625 
Q 35.75 6.890625 40.890625 13.453125 
Q 46.046875 20.015625 46.78125 33.40625 
Q 43.953125 29.203125 39.59375 26.953125 
Q 35.25 24.703125 29.984375 24.703125 
Q 19.046875 24.703125 12.671875 31.3125 
Q 6.296875 37.9375 6.296875 49.421875 
Q 6.296875 60.640625 12.9375 67.421875 
Q 19.578125 74.21875 30.609375 74.21875 
Q 43.265625 74.21875 49.921875 64.515625 
Q 56.59375 54.828125 56.59375 36.375 
Q 56.59375 19.140625 48.40625 8.859375 
Q 40.234375 -1.421875 26.421875 -1.421875 
Q 22.703125 -1.421875 18.890625 -0.6875 
Q 15.09375 0.046875 10.984375 1.515625 
z
M 30.609375 32.421875 
Q 37.25 32.421875 41.125 36.953125 
Q 45.015625 41.5 45.015625 49.421875 
Q 45.015625 57.28125 41.125 61.84375 
Q 37.25 66.40625 30.609375 66.40625 
Q 23.96875 66.40625 20.09375 61.84375 
Q 16.21875 57.28125 16.21875 49.421875 
Q 16.21875 41.5 20.09375 36.953125 
Q 23.96875 32.421875 30.609375 32.421875 
z
" id="DejaVuSans-39"/>
      </defs>
      <g transform="translate(44.2375 119.575219)scale(0.1 -0.1)">
       <use xlink:href="#DejaVuSans-39"/>
      </g>
     </g>
    </g>
    <g id="ytick_7">
     <g id="line2d_12">
      <g>
       <use style="stroke:#000000;stroke-width:0.8;" x="57.6" xlink:href="#m1a0ff015f7" y="81.216"/>
      </g>
     </g>
     <g id="text_12">
      <!-- 10 -->
      <g transform="translate(37.875 85.015219)scale(0.1 -0.1)">
       <use xlink:href="#DejaVuSans-31"/>
       <use x="63.623047" xlink:href="#DejaVuSans-30"/>
      </g>
     </g>
    </g>
    <g id="ytick_8">
     <g id="line2d_13">
      <g>
       <use style="stroke:#000000;stroke-width:0.8;" x="57.6" xlink:href="#m1a0ff015f7" y="46.656"/>
      </g>
     </g>
     <g id="text_13">
      <!-- 11 -->
      <g transform="translate(37.875 50.455219)scale(0.1 -0.1)">
       <use xlink:href="#DejaVuSans-31"/>
       <use x="63.623047" xlink:href="#DejaVuSans-31"/>
      </g>
     </g>
    </g>
   </g>
   <g id="line2d_14">
    <path clip-path="url(#pbef202ef4b)" d="M 73.832727 167.616 
L 74.585986 177.984 
L 75.339245 167.616 
L 76.092504 171.072 
L 76.845762 171.072 
L 77.599021 177.984 
L 78.35228 167.616 
L 79.105539 167.616 
L 79.858798 177.984 
L 81.365315 164.16 
L 82.118574 153.792 
L 82.871833 139.968 
L 83.625092 133.056 
L 84.378351 129.6 
L 85.131609 119.232 
L 85.884868 115.776 
L 86.638127 105.408 
L 87.391386 101.952 
L 88.897903 88.128 
L 89.651162 88.128 
L 91.15768 67.392 
L 91.910939 53.568 
L 92.664197 53.568 
L 93.417456 67.392 
L 94.170715 67.392 
L 96.430491 77.76 
L 97.18375 77.76 
L 97.937009 101.952 
L 98.690268 98.496 
L 99.443527 108.864 
L 100.196785 122.688 
L 100.950044 133.056 
L 101.703303 139.968 
L 102.456562 150.336 
L 103.209821 157.248 
L 103.96308 157.248 
L 104.716338 160.704 
L 105.469597 171.072 
L 106.222856 177.984 
L 106.976115 167.616 
L 107.729374 167.616 
L 108.482632 174.528 
L 109.235891 171.072 
L 109.98915 177.984 
L 110.742409 174.528 
L 111.495668 174.528 
L 112.248926 177.984 
L 113.002185 177.984 
L 113.755444 174.528 
L 114.508703 177.984 
L 115.261962 171.072 
L 116.01522 171.072 
L 116.768479 181.44 
L 118.274997 181.44 
L 119.028256 184.896 
L 119.781514 184.896 
L 120.534773 195.264 
L 121.288032 177.984 
L 122.041291 177.984 
L 122.79455 181.44 
L 123.547808 177.984 
L 124.301067 177.984 
L 125.054326 184.896 
L 125.807585 188.352 
L 126.560844 184.896 
L 127.314103 184.896 
L 128.067361 188.352 
L 128.82062 198.72 
L 131.080397 198.72 
L 131.833655 209.088 
L 132.586914 209.088 
L 135.599949 222.912 
L 136.353208 219.456 
L 137.106467 226.368 
L 137.859726 229.824 
L 140.119502 229.824 
L 140.872761 240.192 
L 141.62602 233.28 
L 142.379279 240.192 
L 143.132537 240.192 
L 143.885796 233.28 
L 144.639055 240.192 
L 145.392314 240.192 
L 146.145573 243.648 
L 146.898831 243.648 
L 147.65209 240.192 
L 149.158608 254.016 
L 149.911867 247.104 
L 150.665126 247.104 
L 151.418384 243.648 
L 152.171643 247.104 
L 152.924902 247.104 
L 153.678161 243.648 
L 154.43142 243.648 
L 155.184678 240.192 
L 156.691196 240.192 
L 158.197714 247.104 
L 158.950972 240.192 
L 159.704231 240.192 
L 160.45749 247.104 
L 161.210749 236.736 
L 162.717266 222.912 
L 163.470525 222.912 
L 164.223784 212.544 
L 165.730302 205.632 
L 167.236819 191.808 
L 167.990078 195.264 
L 168.743337 188.352 
L 169.496596 188.352 
L 170.249854 191.808 
L 171.003113 188.352 
L 171.756372 188.352 
L 172.509631 184.896 
L 173.26289 184.896 
L 174.016148 174.528 
L 174.769407 174.528 
L 175.522666 171.072 
L 177.029184 171.072 
L 178.535701 157.248 
L 180.042219 164.16 
L 180.795478 164.16 
L 181.548737 174.528 
L 182.301995 171.072 
L 183.055254 171.072 
L 183.808513 174.528 
L 184.561772 181.44 
L 185.315031 184.896 
L 186.068289 181.44 
L 186.821548 181.44 
L 189.834583 195.264 
L 190.587842 191.808 
L 191.341101 198.72 
L 192.09436 202.176 
L 192.847619 198.72 
L 193.600877 198.72 
L 195.107395 205.632 
L 195.860654 216 
L 197.367171 216 
L 199.626948 226.368 
L 200.380207 233.28 
L 201.133466 236.736 
L 201.886724 233.28 
L 202.639983 240.192 
L 203.393242 240.192 
L 204.146501 226.368 
L 204.89976 233.28 
L 205.653018 233.28 
L 206.406277 229.824 
L 207.159536 229.824 
L 208.666054 236.736 
L 209.419312 233.28 
L 210.92583 233.28 
L 211.679089 236.736 
L 212.432348 236.736 
L 213.185606 233.28 
L 213.938865 233.28 
L 214.692124 243.648 
L 215.445383 236.736 
L 216.198642 250.56 
L 216.9519 247.104 
L 217.705159 247.104 
L 218.458418 240.192 
L 219.211677 240.192 
L 220.718194 247.104 
L 221.471453 247.104 
L 222.224712 250.56 
L 222.977971 257.472 
L 223.73123 254.016 
L 225.237747 260.928 
L 225.991006 257.472 
L 226.744265 264.384 
L 227.497524 267.84 
L 228.250783 264.384 
L 229.004041 267.84 
L 229.7573 267.84 
L 230.510559 264.384 
L 231.263818 278.208 
L 232.770335 271.296 
L 234.276853 271.296 
L 235.030112 267.84 
L 236.536629 274.752 
L 237.289888 274.752 
L 238.043147 278.208 
L 238.796406 274.752 
L 239.549665 281.664 
L 240.302923 278.208 
L 241.056182 281.664 
L 241.809441 278.208 
L 242.5627 278.208 
L 243.315959 281.664 
L 244.069217 281.664 
L 244.822476 285.12 
L 245.575735 285.12 
L 246.328994 288.576 
L 247.082253 288.576 
L 247.835511 285.12 
L 248.58877 288.576 
L 249.342029 295.488 
L 250.095288 288.576 
L 251.601806 288.576 
L 252.355064 285.12 
L 253.108323 292.032 
L 255.3681 292.032 
L 256.121358 281.664 
L 256.874617 281.664 
L 258.381135 274.752 
L 259.134394 278.208 
L 259.887652 271.296 
L 260.640911 267.84 
L 261.39417 257.472 
L 262.147429 254.016 
L 262.900688 243.648 
L 264.407205 229.824 
L 266.666982 229.824 
L 267.42024 222.912 
L 268.173499 226.368 
L 269.680017 226.368 
L 270.433276 229.824 
L 271.939793 229.824 
L 272.693052 222.912 
L 273.446311 219.456 
L 274.19957 226.368 
L 274.952829 222.912 
L 275.706087 222.912 
L 277.212605 216 
L 277.965864 209.088 
L 279.472381 216 
L 280.22564 216 
L 280.978899 219.456 
L 281.732158 226.368 
L 282.485417 229.824 
L 283.238675 229.824 
L 283.991934 233.28 
L 284.745193 226.368 
L 285.498452 233.28 
L 287.004969 233.28 
L 288.511487 240.192 
L 289.264746 240.192 
L 290.018005 236.736 
L 290.771263 240.192 
L 291.524522 240.192 
L 292.277781 243.648 
L 293.03104 240.192 
L 293.784299 247.104 
L 294.537557 247.104 
L 296.044075 254.016 
L 296.797334 254.016 
L 297.550593 257.472 
L 298.303852 254.016 
L 299.810369 254.016 
L 300.563628 257.472 
L 301.316887 264.384 
L 302.070146 260.928 
L 302.823404 264.384 
L 303.576663 264.384 
L 304.329922 267.84 
L 305.083181 267.84 
L 305.83644 264.384 
L 306.589698 264.384 
L 307.342957 271.296 
L 308.096216 274.752 
L 308.849475 271.296 
L 309.602734 274.752 
L 310.355992 267.84 
L 311.86251 274.752 
L 312.615769 271.296 
L 313.369028 274.752 
L 314.122286 267.84 
L 314.875545 264.384 
L 315.628804 267.84 
L 316.382063 264.384 
L 317.88858 264.384 
L 318.641839 254.016 
L 319.395098 254.016 
L 320.148357 257.472 
L 320.901616 250.56 
L 321.654874 254.016 
L 322.408133 240.192 
L 323.914651 226.368 
L 324.66791 216 
L 325.421169 216 
L 326.174427 202.176 
L 326.927686 191.808 
L 329.187463 139.968 
L 329.940721 126.144 
L 330.69398 115.776 
L 331.447239 101.952 
L 332.200498 98.496 
L 332.953757 98.496 
L 333.707015 95.04 
L 335.213533 81.216 
L 335.966792 84.672 
L 336.720051 84.672 
L 337.473309 88.128 
L 338.226568 88.128 
L 338.979827 84.672 
L 339.733086 84.672 
L 340.486345 95.04 
L 341.239603 101.952 
L 341.992862 101.952 
L 342.746121 98.496 
L 343.49938 98.496 
L 344.252639 101.952 
L 345.005897 88.128 
L 345.759156 105.408 
L 346.512415 112.32 
L 347.265674 115.776 
L 348.018933 115.776 
L 348.772192 112.32 
L 349.52545 115.776 
L 350.278709 112.32 
L 351.031968 115.776 
L 352.538486 115.776 
L 354.045003 129.6 
L 354.798262 133.056 
L 355.551521 139.968 
L 356.30478 139.968 
L 357.058038 143.424 
L 360.071074 143.424 
L 360.824332 146.88 
L 361.577591 157.248 
L 362.33085 157.248 
L 363.084109 160.704 
L 363.837368 153.792 
L 364.590626 150.336 
L 365.343885 160.704 
L 366.097144 167.616 
L 366.850403 164.16 
L 367.603662 167.616 
L 368.35692 167.616 
L 369.110179 174.528 
L 369.863438 177.984 
L 371.369956 177.984 
L 372.123215 188.352 
L 372.876473 195.264 
L 373.629732 198.72 
L 374.382991 195.264 
L 375.13625 195.264 
L 375.889509 209.088 
L 376.642767 209.088 
L 377.396026 216 
L 378.149285 212.544 
L 378.902544 212.544 
L 379.655803 222.912 
L 380.409061 229.824 
L 381.16232 226.368 
L 381.915579 233.28 
L 382.668838 229.824 
L 383.422097 236.736 
L 384.175355 236.736 
L 384.928614 240.192 
L 385.681873 236.736 
L 386.435132 243.648 
L 388.694908 254.016 
L 390.954685 254.016 
L 391.707943 257.472 
L 392.461202 257.472 
L 393.214461 254.016 
L 393.96772 254.016 
L 394.720979 264.384 
L 395.474238 257.472 
L 396.980755 257.472 
L 397.734014 254.016 
L 398.487273 257.472 
L 398.487273 257.472 
" style="fill:none;opacity:0.6;stroke:#1f77b4;stroke-linecap:square;stroke-width:0.5;"/>
   </g>
   <g id="line2d_15">
    <path clip-path="url(#pbef202ef4b)" d="M 73.832727 211.81034 
L 74.585986 201.349043 
L 75.339245 195.978228 
L 76.845762 180.589068 
L 78.35228 159.943626 
L 79.105539 150.878488 
L 79.858798 143.613686 
L 81.365315 131.822906 
L 82.118574 126.771546 
L 82.871833 123.631576 
L 83.625092 121.002768 
L 84.378351 119.473899 
L 85.884868 114.350788 
L 86.638127 111.35531 
L 88.144645 107.091934 
L 89.651162 104.047941 
L 91.15768 102.721474 
L 92.664197 102.87971 
L 94.170715 106.741975 
L 97.18375 130.613706 
L 97.937009 134.127727 
L 98.690268 143.817339 
L 99.443527 150.378006 
L 100.196785 155.722339 
L 101.703303 163.141043 
L 102.456562 169.320556 
L 103.209821 174.038338 
L 103.96308 176.869911 
L 104.716338 177.527492 
L 105.469597 177.960523 
L 106.222856 178.622241 
L 106.976115 179.46693 
L 107.729374 176.856677 
L 109.235891 169.115634 
L 109.98915 208.991028 
L 110.742409 208.863905 
L 111.495668 208.068605 
L 112.248926 212.42308 
L 113.755444 186.086264 
L 115.261962 169.575164 
L 116.01522 165.339457 
L 116.768479 162.48895 
L 117.521738 161.56066 
L 118.274997 158.018921 
L 119.028256 156.597663 
L 119.781514 155.843364 
L 120.534773 156.097824 
L 121.288032 154.022693 
L 122.041291 155.023015 
L 122.79455 156.274945 
L 123.547808 158.034461 
L 124.301067 157.605763 
L 125.054326 157.936589 
L 125.807585 158.571066 
L 126.560844 159.508485 
L 127.314103 163.166669 
L 128.82062 168.329068 
L 129.573879 168.739901 
L 130.327138 172.197744 
L 131.080397 179.153375 
L 131.833655 181.902154 
L 133.340173 184.572887 
L 134.093432 187.166759 
L 134.846691 188.373766 
L 135.599949 192.104443 
L 136.353208 193.981292 
L 137.106467 198.651828 
L 137.859726 200.823676 
L 138.612985 201.598245 
L 139.366243 201.738568 
L 140.119502 202.511473 
L 140.872761 203.692888 
L 142.379279 205.446504 
L 143.132537 207.535312 
L 143.885796 209.020526 
L 144.639055 206.381929 
L 145.392314 206.180863 
L 146.145573 209.576363 
L 146.898831 208.635038 
L 147.65209 203.743249 
L 148.405349 202.570305 
L 149.158608 200.958561 
L 149.911867 190.518424 
L 152.171643 177.05748 
L 152.924902 174.170718 
L 153.678161 172.266859 
L 154.43142 168.597205 
L 155.184678 169.770348 
L 155.937937 174.728615 
L 157.444455 179.429736 
L 158.197714 181.62843 
L 159.704231 187.04926 
L 160.45749 189.535702 
L 161.210749 190.885521 
L 162.717266 195.309127 
L 163.470525 196.129015 
L 164.223784 194.809008 
L 164.977043 194.518046 
L 165.730302 195.94283 
L 166.48356 196.663198 
L 167.236819 196.545963 
L 167.990078 196.64423 
L 168.743337 197.38523 
L 169.496596 198.34844 
L 170.249854 198.56676 
L 171.003113 198.541761 
L 171.756372 193.336466 
L 172.509631 190.587934 
L 174.016148 181.481383 
L 174.769407 177.50714 
L 176.275925 161.165531 
L 177.029184 155.812135 
L 177.782443 155.579593 
L 178.535701 161.611054 
L 179.28896 165.101279 
L 180.042219 170.781216 
L 180.795478 171.352198 
L 181.548737 170.694534 
L 182.301995 208.829282 
L 183.055254 208.246633 
L 185.315031 189.325325 
L 186.068289 189.723107 
L 186.821548 191.660337 
L 187.574807 196.436588 
L 188.328066 202.486803 
L 189.081325 199.575437 
L 189.834583 199.549004 
L 190.587842 197.49477 
L 191.341101 205.790183 
L 192.09436 210.591945 
L 192.847619 218.74753 
L 194.354136 226.207434 
L 195.107395 235.02266 
L 195.860654 233.778821 
L 196.613913 244.282256 
L 197.367171 250.211874 
L 198.12043 253.696067 
L 198.873689 255.933817 
L 199.626948 255.538441 
L 201.133466 263.124215 
L 201.886724 263.81085 
L 202.639983 263.353725 
L 203.393242 259.787382 
L 204.146501 261.728584 
L 204.89976 262.34022 
L 205.653018 260.024967 
L 206.406277 256.457404 
L 207.159536 251.639888 
L 207.912795 248.996215 
L 209.419312 245.461957 
L 210.172571 244.221809 
L 210.92583 243.229299 
L 211.679089 242.445946 
L 212.432348 245.335741 
L 213.185606 250.663791 
L 213.938865 246.569181 
L 214.692124 246.068979 
L 215.445383 245.734182 
L 216.198642 246.983443 
L 216.9519 245.920713 
L 217.705159 240.146035 
L 218.458418 220.372968 
L 219.211677 225.258149 
L 220.718194 192.457631 
L 221.471453 180.847533 
L 222.224712 183.797494 
L 222.977971 191.635404 
L 223.73123 196.939312 
L 224.484489 198.413303 
L 225.991006 232.81304 
L 226.744265 237.631265 
L 227.497524 240.534029 
L 229.004041 236.344793 
L 229.7573 239.279494 
L 230.510559 247.741071 
L 231.263818 244.234202 
L 232.017077 225.43059 
L 232.770335 218.036457 
L 233.523594 224.818278 
L 234.276853 226.994 
L 235.030112 242.115714 
L 236.536629 249.639459 
L 237.289888 252.574292 
L 238.043147 257.885945 
L 238.796406 255.059893 
L 239.549665 261.354928 
L 240.302923 264.215158 
L 241.056182 251.984375 
L 242.5627 231.869112 
L 243.315959 234.11731 
L 244.069217 242.488809 
L 244.822476 242.489518 
L 245.575735 253.499796 
L 246.328994 250.740553 
L 247.082253 261.957319 
L 247.835511 245.142107 
L 248.58877 251.773866 
L 249.342029 264.281488 
L 250.095288 259.514679 
L 250.848547 257.241333 
L 251.601806 253.64269 
L 252.355064 255.246079 
L 253.108323 256.059276 
L 253.861582 248.481297 
L 254.614841 223.831734 
L 255.3681 230.420713 
L 256.121358 214.442658 
L 256.874617 203.101422 
L 257.627876 194.776082 
L 258.381135 202.055189 
L 259.134394 208.023764 
L 259.887652 195.932843 
L 260.640911 215.308738 
L 261.39417 206.90273 
L 262.147429 207.113223 
L 262.900688 203.984179 
L 263.653946 193.940407 
L 265.160464 168.777343 
L 265.913723 171.01033 
L 266.666982 172.418569 
L 267.42024 173.377906 
L 268.173499 177.954492 
L 268.926758 181.778228 
L 269.680017 184.120261 
L 270.433276 188.157127 
L 271.186534 189.020949 
L 271.939793 193.735946 
L 272.693052 196.943695 
L 274.19957 195.928064 
L 274.952829 197.776635 
L 275.706087 201.3146 
L 276.459346 197.761952 
L 277.212605 203.336881 
L 277.965864 203.036065 
L 278.719123 206.031526 
L 279.472381 207.170324 
L 280.22564 205.583811 
L 280.978899 205.575554 
L 281.732158 205.739855 
L 282.485417 204.548338 
L 283.991934 204.380725 
L 284.745193 208.705785 
L 285.498452 209.001773 
L 286.251711 206.864959 
L 287.004969 205.277951 
L 287.758228 204.964412 
L 288.511487 205.934395 
L 289.264746 206.246797 
L 290.018005 205.999341 
L 290.771263 220.901219 
L 291.524522 226.072335 
L 292.277781 230.444015 
L 293.03104 221.966782 
L 293.784299 218.768921 
L 294.537557 214.06602 
L 296.044075 197.800761 
L 296.797334 190.965446 
L 297.550593 196.047013 
L 298.303852 197.605561 
L 299.05711 196.244075 
L 299.810369 197.740759 
L 300.563628 197.40606 
L 301.316887 199.063831 
L 302.070146 199.126322 
L 302.823404 200.491252 
L 303.576663 201.34367 
L 304.329922 199.84692 
L 305.083181 200.728639 
L 305.83644 200.279161 
L 306.589698 200.335636 
L 307.342957 198.624521 
L 308.096216 197.548905 
L 308.849475 198.241241 
L 309.602734 197.615531 
L 310.355992 196.533471 
L 311.109251 194.709175 
L 311.86251 196.404536 
L 312.615769 197.545411 
L 313.369028 197.632983 
L 314.122286 197.344575 
L 314.875545 196.815271 
L 315.628804 195.785138 
L 316.382063 195.217188 
L 317.135322 194.962547 
L 317.88858 196.515608 
L 318.641839 196.720662 
L 319.395098 196.658699 
L 320.901616 195.089818 
L 322.408133 196.317606 
L 323.161392 195.981804 
L 323.914651 193.73789 
L 325.421169 191.893819 
L 326.174427 191.335988 
L 326.927686 226.789967 
L 327.680945 234.753797 
L 328.434204 227.356928 
L 329.187463 207.764773 
L 329.940721 211.694027 
L 331.447239 186.985698 
L 332.200498 180.946377 
L 332.953757 176.662516 
L 333.707015 181.658571 
L 334.460274 185.515909 
L 335.213533 193.947872 
L 335.966792 200.986939 
L 337.473309 175.122244 
L 338.226568 164.297541 
L 338.979827 155.528589 
L 339.733086 151.860781 
L 340.486345 152.058338 
L 341.239603 152.637724 
L 341.992862 152.882049 
L 342.746121 154.862801 
L 344.252639 160.029105 
L 345.005897 159.62783 
L 345.759156 158.714849 
L 346.512415 160.493069 
L 347.265674 163.445832 
L 348.772192 176.869334 
L 349.52545 179.790901 
L 350.278709 176.154289 
L 351.031968 167.445882 
L 351.785227 177.66002 
L 352.538486 189.554505 
L 353.291744 190.246232 
L 354.045003 182.709155 
L 355.551521 173.879855 
L 356.30478 178.181612 
L 357.811297 198.321018 
L 358.564556 200.916654 
L 359.317815 195.126106 
L 360.071074 185.787788 
L 360.824332 189.865374 
L 361.577591 200.800671 
L 362.33085 201.447475 
L 363.084109 219.175074 
L 363.837368 223.369401 
L 364.590626 221.585562 
L 365.343885 210.764469 
L 366.097144 214.254364 
L 366.850403 223.188523 
L 367.603662 214.453914 
L 368.35692 219.991369 
L 369.110179 215.334957 
L 369.863438 212.044184 
L 370.616697 216.821819 
L 371.369956 222.594206 
L 372.123215 224.731728 
L 372.876473 224.687744 
L 373.629732 218.219231 
L 374.382991 213.502009 
L 375.13625 221.92125 
L 375.889509 220.396139 
L 376.642767 215.202857 
L 377.396026 222.629654 
L 378.149285 215.065006 
L 379.655803 205.786772 
L 380.409061 199.923072 
L 381.16232 192.809666 
L 381.915579 187.064718 
L 382.668838 184.114691 
L 383.422097 197.951103 
L 384.175355 204.400797 
L 384.928614 205.924162 
L 385.681873 194.556328 
L 386.435132 214.328785 
L 387.188391 212.027885 
L 387.941649 211.002021 
L 388.694908 208.73052 
L 389.448167 204.476389 
L 391.707943 185.897245 
L 392.461202 189.012725 
L 393.214461 200.412464 
L 393.96772 200.745498 
L 394.720979 200.258512 
L 395.474238 212.811189 
L 396.227496 217.848755 
L 396.980755 225.773347 
L 398.487273 205.293178 
L 398.487273 205.293178 
" style="fill:none;opacity:0.6;stroke:#ff7f0e;stroke-linecap:square;stroke-width:0.5;"/>
   </g>
   <g id="line2d_16">
    <path clip-path="url(#pbef202ef4b)" d="M 363.084109 221.648844 
L 363.837368 227.205547 
L 364.590626 210.932658 
L 365.343885 186.496637 
L 366.097144 176.879699 
L 366.850403 197.920946 
L 367.603662 187.878936 
L 368.35692 180.244218 
L 369.863438 213.428675 
L 370.616697 222.313874 
L 371.369956 213.551793 
L 372.123215 230.389121 
L 372.876473 221.304472 
L 377.396026 180.62585 
L 378.149285 183.377481 
L 378.902544 195.41313 
L 379.655803 196.720645 
L 380.409061 197.157896 
L 381.16232 210.304279 
L 383.422097 195.689458 
L 384.928614 183.613764 
L 385.681873 178.883177 
L 386.435132 177.830451 
L 387.188391 177.04601 
L 387.941649 186.919616 
L 388.694908 189.386909 
L 389.448167 189.090047 
L 390.201426 195.516835 
L 392.461202 179.842185 
L 393.96772 171.26919 
L 395.474238 165.831271 
L 396.227496 187.960774 
L 396.980755 206.121718 
L 397.734014 206.191591 
L 398.487273 201.40059 
L 398.487273 201.40059 
" style="fill:none;opacity:0.6;stroke:#2ca02c;stroke-linecap:square;stroke-width:0.5;"/>
   </g>
   <g id="patch_3">
    <path d="M 57.6 307.584 
L 57.6 41.472 
" style="fill:none;stroke:#000000;stroke-linecap:square;stroke-linejoin:miter;stroke-width:0.8;"/>
   </g>
   <g id="patch_4">
    <path d="M 414.72 307.584 
L 414.72 41.472 
" style="fill:none;stroke:#000000;stroke-linecap:square;stroke-linejoin:miter;stroke-width:0.8;"/>
   </g>
   <g id="patch_5">
    <path d="M 57.6 307.584 
L 414.72 307.584 
" style="fill:none;stroke:#000000;stroke-linecap:square;stroke-linejoin:miter;stroke-width:0.8;"/>
   </g>
   <g id="patch_6">
    <path d="M 57.6 41.472 
L 414.72 41.472 
" style="fill:none;stroke:#000000;stroke-linecap:square;stroke-linejoin:miter;stroke-width:0.8;"/>
   </g>
   <g id="text_14">
    <!-- Model Training Result2018_07_12_1531450771 -->
    <defs>
     <path d="M 9.8125 72.90625 
L 24.515625 72.90625 
L 43.109375 23.296875 
L 61.8125 72.90625 
L 76.515625 72.90625 
L 76.515625 0 
L 66.890625 0 
L 66.890625 64.015625 
L 48.09375 14.015625 
L 38.1875 14.015625 
L 19.390625 64.015625 
L 19.390625 0 
L 9.8125 0 
z
" id="DejaVuSans-4d"/>
     <path d="M 30.609375 48.390625 
Q 23.390625 48.390625 19.1875 42.75 
Q 14.984375 37.109375 14.984375 27.296875 
Q 14.984375 17.484375 19.15625 11.84375 
Q 23.34375 6.203125 30.609375 6.203125 
Q 37.796875 6.203125 41.984375 11.859375 
Q 46.1875 17.53125 46.1875 27.296875 
Q 46.1875 37.015625 41.984375 42.703125 
Q 37.796875 48.390625 30.609375 48.390625 
z
M 30.609375 56 
Q 42.328125 56 49.015625 48.375 
Q 55.71875 40.765625 55.71875 27.296875 
Q 55.71875 13.875 49.015625 6.21875 
Q 42.328125 -1.421875 30.609375 -1.421875 
Q 18.84375 -1.421875 12.171875 6.21875 
Q 5.515625 13.875 5.515625 27.296875 
Q 5.515625 40.765625 12.171875 48.375 
Q 18.84375 56 30.609375 56 
z
" id="DejaVuSans-6f"/>
     <path d="M 45.40625 46.390625 
L 45.40625 75.984375 
L 54.390625 75.984375 
L 54.390625 0 
L 45.40625 0 
L 45.40625 8.203125 
Q 42.578125 3.328125 38.25 0.953125 
Q 33.9375 -1.421875 27.875 -1.421875 
Q 17.96875 -1.421875 11.734375 6.484375 
Q 5.515625 14.40625 5.515625 27.296875 
Q 5.515625 40.1875 11.734375 48.09375 
Q 17.96875 56 27.875 56 
Q 33.9375 56 38.25 53.625 
Q 42.578125 51.265625 45.40625 46.390625 
z
M 14.796875 27.296875 
Q 14.796875 17.390625 18.875 11.75 
Q 22.953125 6.109375 30.078125 6.109375 
Q 37.203125 6.109375 41.296875 11.75 
Q 45.40625 17.390625 45.40625 27.296875 
Q 45.40625 37.203125 41.296875 42.84375 
Q 37.203125 48.484375 30.078125 48.484375 
Q 22.953125 48.484375 18.875 42.84375 
Q 14.796875 37.203125 14.796875 27.296875 
z
" id="DejaVuSans-64"/>
     <path d="M 56.203125 29.59375 
L 56.203125 25.203125 
L 14.890625 25.203125 
Q 15.484375 15.921875 20.484375 11.0625 
Q 25.484375 6.203125 34.421875 6.203125 
Q 39.59375 6.203125 44.453125 7.46875 
Q 49.3125 8.734375 54.109375 11.28125 
L 54.109375 2.78125 
Q 49.265625 0.734375 44.1875 -0.34375 
Q 39.109375 -1.421875 33.890625 -1.421875 
Q 20.796875 -1.421875 13.15625 6.1875 
Q 5.515625 13.8125 5.515625 26.8125 
Q 5.515625 40.234375 12.765625 48.109375 
Q 20.015625 56 32.328125 56 
Q 43.359375 56 49.78125 48.890625 
Q 56.203125 41.796875 56.203125 29.59375 
z
M 47.21875 32.234375 
Q 47.125 39.59375 43.09375 43.984375 
Q 39.0625 48.390625 32.421875 48.390625 
Q 24.90625 48.390625 20.390625 44.140625 
Q 15.875 39.890625 15.1875 32.171875 
z
" id="DejaVuSans-65"/>
     <path d="M 9.421875 75.984375 
L 18.40625 75.984375 
L 18.40625 0 
L 9.421875 0 
z
" id="DejaVuSans-6c"/>
     <path id="DejaVuSans-20"/>
     <path d="M -0.296875 72.90625 
L 61.375 72.90625 
L 61.375 64.59375 
L 35.5 64.59375 
L 35.5 0 
L 25.59375 0 
L 25.59375 64.59375 
L -0.296875 64.59375 
z
" id="DejaVuSans-54"/>
     <path d="M 41.109375 46.296875 
Q 39.59375 47.171875 37.8125 47.578125 
Q 36.03125 48 33.890625 48 
Q 26.265625 48 22.1875 43.046875 
Q 18.109375 38.09375 18.109375 28.8125 
L 18.109375 0 
L 9.078125 0 
L 9.078125 54.6875 
L 18.109375 54.6875 
L 18.109375 46.1875 
Q 20.953125 51.171875 25.484375 53.578125 
Q 30.03125 56 36.53125 56 
Q 37.453125 56 38.578125 55.875 
Q 39.703125 55.765625 41.0625 55.515625 
z
" id="DejaVuSans-72"/>
     <path d="M 34.28125 27.484375 
Q 23.390625 27.484375 19.1875 25 
Q 14.984375 22.515625 14.984375 16.5 
Q 14.984375 11.71875 18.140625 8.90625 
Q 21.296875 6.109375 26.703125 6.109375 
Q 34.1875 6.109375 38.703125 11.40625 
Q 43.21875 16.703125 43.21875 25.484375 
L 43.21875 27.484375 
z
M 52.203125 31.203125 
L 52.203125 0 
L 43.21875 0 
L 43.21875 8.296875 
Q 40.140625 3.328125 35.546875 0.953125 
Q 30.953125 -1.421875 24.3125 -1.421875 
Q 15.921875 -1.421875 10.953125 3.296875 
Q 6 8.015625 6 15.921875 
Q 6 25.140625 12.171875 29.828125 
Q 18.359375 34.515625 30.609375 34.515625 
L 43.21875 34.515625 
L 43.21875 35.40625 
Q 43.21875 41.609375 39.140625 45 
Q 35.0625 48.390625 27.6875 48.390625 
Q 23 48.390625 18.546875 47.265625 
Q 14.109375 46.140625 10.015625 43.890625 
L 10.015625 52.203125 
Q 14.9375 54.109375 19.578125 55.046875 
Q 24.21875 56 28.609375 56 
Q 40.484375 56 46.34375 49.84375 
Q 52.203125 43.703125 52.203125 31.203125 
z
" id="DejaVuSans-61"/>
     <path d="M 9.421875 54.6875 
L 18.40625 54.6875 
L 18.40625 0 
L 9.421875 0 
z
M 9.421875 75.984375 
L 18.40625 75.984375 
L 18.40625 64.59375 
L 9.421875 64.59375 
z
" id="DejaVuSans-69"/>
     <path d="M 54.890625 33.015625 
L 54.890625 0 
L 45.90625 0 
L 45.90625 32.71875 
Q 45.90625 40.484375 42.875 44.328125 
Q 39.84375 48.1875 33.796875 48.1875 
Q 26.515625 48.1875 22.3125 43.546875 
Q 18.109375 38.921875 18.109375 30.90625 
L 18.109375 0 
L 9.078125 0 
L 9.078125 54.6875 
L 18.109375 54.6875 
L 18.109375 46.1875 
Q 21.34375 51.125 25.703125 53.5625 
Q 30.078125 56 35.796875 56 
Q 45.21875 56 50.046875 50.171875 
Q 54.890625 44.34375 54.890625 33.015625 
z
" id="DejaVuSans-6e"/>
     <path d="M 45.40625 27.984375 
Q 45.40625 37.75 41.375 43.109375 
Q 37.359375 48.484375 30.078125 48.484375 
Q 22.859375 48.484375 18.828125 43.109375 
Q 14.796875 37.75 14.796875 27.984375 
Q 14.796875 18.265625 18.828125 12.890625 
Q 22.859375 7.515625 30.078125 7.515625 
Q 37.359375 7.515625 41.375 12.890625 
Q 45.40625 18.265625 45.40625 27.984375 
z
M 54.390625 6.78125 
Q 54.390625 -7.171875 48.1875 -13.984375 
Q 42 -20.796875 29.203125 -20.796875 
Q 24.46875 -20.796875 20.265625 -20.09375 
Q 16.0625 -19.390625 12.109375 -17.921875 
L 12.109375 -9.1875 
Q 16.0625 -11.328125 19.921875 -12.34375 
Q 23.78125 -13.375 27.78125 -13.375 
Q 36.625 -13.375 41.015625 -8.765625 
Q 45.40625 -4.15625 45.40625 5.171875 
L 45.40625 9.625 
Q 42.625 4.78125 38.28125 2.390625 
Q 33.9375 0 27.875 0 
Q 17.828125 0 11.671875 7.65625 
Q 5.515625 15.328125 5.515625 27.984375 
Q 5.515625 40.671875 11.671875 48.328125 
Q 17.828125 56 27.875 56 
Q 33.9375 56 38.28125 53.609375 
Q 42.625 51.21875 45.40625 46.390625 
L 45.40625 54.6875 
L 54.390625 54.6875 
z
" id="DejaVuSans-67"/>
     <path d="M 44.390625 34.1875 
Q 47.5625 33.109375 50.5625 29.59375 
Q 53.5625 26.078125 56.59375 19.921875 
L 66.609375 0 
L 56 0 
L 46.6875 18.703125 
Q 43.0625 26.03125 39.671875 28.421875 
Q 36.28125 30.8125 30.421875 30.8125 
L 19.671875 30.8125 
L 19.671875 0 
L 9.8125 0 
L 9.8125 72.90625 
L 32.078125 72.90625 
Q 44.578125 72.90625 50.734375 67.671875 
Q 56.890625 62.453125 56.890625 51.90625 
Q 56.890625 45.015625 53.6875 40.46875 
Q 50.484375 35.9375 44.390625 34.1875 
z
M 19.671875 64.796875 
L 19.671875 38.921875 
L 32.078125 38.921875 
Q 39.203125 38.921875 42.84375 42.21875 
Q 46.484375 45.515625 46.484375 51.90625 
Q 46.484375 58.296875 42.84375 61.546875 
Q 39.203125 64.796875 32.078125 64.796875 
z
" id="DejaVuSans-52"/>
     <path d="M 44.28125 53.078125 
L 44.28125 44.578125 
Q 40.484375 46.53125 36.375 47.5 
Q 32.28125 48.484375 27.875 48.484375 
Q 21.1875 48.484375 17.84375 46.4375 
Q 14.5 44.390625 14.5 40.28125 
Q 14.5 37.15625 16.890625 35.375 
Q 19.28125 33.59375 26.515625 31.984375 
L 29.59375 31.296875 
Q 39.15625 29.25 43.1875 25.515625 
Q 47.21875 21.78125 47.21875 15.09375 
Q 47.21875 7.46875 41.1875 3.015625 
Q 35.15625 -1.421875 24.609375 -1.421875 
Q 20.21875 -1.421875 15.453125 -0.5625 
Q 10.6875 0.296875 5.421875 2 
L 5.421875 11.28125 
Q 10.40625 8.6875 15.234375 7.390625 
Q 20.0625 6.109375 24.8125 6.109375 
Q 31.15625 6.109375 34.5625 8.28125 
Q 37.984375 10.453125 37.984375 14.40625 
Q 37.984375 18.0625 35.515625 20.015625 
Q 33.0625 21.96875 24.703125 23.78125 
L 21.578125 24.515625 
Q 13.234375 26.265625 9.515625 29.90625 
Q 5.8125 33.546875 5.8125 39.890625 
Q 5.8125 47.609375 11.28125 51.796875 
Q 16.75 56 26.8125 56 
Q 31.78125 56 36.171875 55.265625 
Q 40.578125 54.546875 44.28125 53.078125 
z
" id="DejaVuSans-73"/>
     <path d="M 8.5 21.578125 
L 8.5 54.6875 
L 17.484375 54.6875 
L 17.484375 21.921875 
Q 17.484375 14.15625 20.5 10.265625 
Q 23.53125 6.390625 29.59375 6.390625 
Q 36.859375 6.390625 41.078125 11.03125 
Q 45.3125 15.671875 45.3125 23.6875 
L 45.3125 54.6875 
L 54.296875 54.6875 
L 54.296875 0 
L 45.3125 0 
L 45.3125 8.40625 
Q 42.046875 3.421875 37.71875 1 
Q 33.40625 -1.421875 27.6875 -1.421875 
Q 18.265625 -1.421875 13.375 4.4375 
Q 8.5 10.296875 8.5 21.578125 
z
M 31.109375 56 
z
" id="DejaVuSans-75"/>
     <path d="M 18.3125 70.21875 
L 18.3125 54.6875 
L 36.8125 54.6875 
L 36.8125 47.703125 
L 18.3125 47.703125 
L 18.3125 18.015625 
Q 18.3125 11.328125 20.140625 9.421875 
Q 21.96875 7.515625 27.59375 7.515625 
L 36.8125 7.515625 
L 36.8125 0 
L 27.59375 0 
Q 17.1875 0 13.234375 3.875 
Q 9.28125 7.765625 9.28125 18.015625 
L 9.28125 47.703125 
L 2.6875 47.703125 
L 2.6875 54.6875 
L 9.28125 54.6875 
L 9.28125 70.21875 
z
" id="DejaVuSans-74"/>
     <path d="M 50.984375 -16.609375 
L 50.984375 -23.578125 
L -0.984375 -23.578125 
L -0.984375 -16.609375 
z
" id="DejaVuSans-5f"/>
    </defs>
    <g transform="translate(93.268125 35.472)scale(0.12 -0.12)">
     <use xlink:href="#DejaVuSans-4d"/>
     <use x="86.279297" xlink:href="#DejaVuSans-6f"/>
     <use x="147.460938" xlink:href="#DejaVuSans-64"/>
     <use x="210.9375" xlink:href="#DejaVuSans-65"/>
     <use x="272.460938" xlink:href="#DejaVuSans-6c"/>
     <use x="300.244141" xlink:href="#DejaVuSans-20"/>
     <use x="332.03125" xlink:href="#DejaVuSans-54"/>
     <use x="392.896484" xlink:href="#DejaVuSans-72"/>
     <use x="434.009766" xlink:href="#DejaVuSans-61"/>
     <use x="495.289062" xlink:href="#DejaVuSans-69"/>
     <use x="523.072266" xlink:href="#DejaVuSans-6e"/>
     <use x="586.451172" xlink:href="#DejaVuSans-69"/>
     <use x="614.234375" xlink:href="#DejaVuSans-6e"/>
     <use x="677.613281" xlink:href="#DejaVuSans-67"/>
     <use x="741.089844" xlink:href="#DejaVuSans-20"/>
     <use x="772.876953" xlink:href="#DejaVuSans-52"/>
     <use x="842.296875" xlink:href="#DejaVuSans-65"/>
     <use x="903.820312" xlink:href="#DejaVuSans-73"/>
     <use x="955.919922" xlink:href="#DejaVuSans-75"/>
     <use x="1019.298828" xlink:href="#DejaVuSans-6c"/>
     <use x="1047.082031" xlink:href="#DejaVuSans-74"/>
     <use x="1086.291016" xlink:href="#DejaVuSans-32"/>
     <use x="1149.914062" xlink:href="#DejaVuSans-30"/>
     <use x="1213.537109" xlink:href="#DejaVuSans-31"/>
     <use x="1277.160156" xlink:href="#DejaVuSans-38"/>
     <use x="1340.783203" xlink:href="#DejaVuSans-5f"/>
     <use x="1390.783203" xlink:href="#DejaVuSans-30"/>
     <use x="1454.40625" xlink:href="#DejaVuSans-37"/>
     <use x="1518.029297" xlink:href="#DejaVuSans-5f"/>
     <use x="1568.029297" xlink:href="#DejaVuSans-31"/>
     <use x="1631.652344" xlink:href="#DejaVuSans-32"/>
     <use x="1695.275391" xlink:href="#DejaVuSans-5f"/>
     <use x="1745.275391" xlink:href="#DejaVuSans-31"/>
     <use x="1808.898438" xlink:href="#DejaVuSans-35"/>
     <use x="1872.521484" xlink:href="#DejaVuSans-33"/>
     <use x="1936.144531" xlink:href="#DejaVuSans-31"/>
     <use x="1999.767578" xlink:href="#DejaVuSans-34"/>
     <use x="2063.390625" xlink:href="#DejaVuSans-35"/>
     <use x="2127.013672" xlink:href="#DejaVuSans-30"/>
     <use x="2190.636719" xlink:href="#DejaVuSans-37"/>
     <use x="2254.259766" xlink:href="#DejaVuSans-37"/>
     <use x="2317.882812" xlink:href="#DejaVuSans-31"/>
    </g>
   </g>
  </g>
 </g>
 <defs>
  <clipPath id="pbef202ef4b">
   <rect height="266.112" width="357.12" x="57.6" y="41.472"/>
  </clipPath>
 </defs>
</svg>
