<?xml version="1.0" encoding="utf-8" standalone="no"?>
<!DOCTYPE svg PUBLIC "-//W3C//DTD SVG 1.1//EN"
  "http://www.w3.org/Graphics/SVG/1.1/DTD/svg11.dtd">
<!-- Created with matplotlib (http://matplotlib.org/) -->
<svg height="345.6pt" version="1.1" viewBox="0 0 460.8 345.6" width="460.8pt" xmlns="http://www.w3.org/2000/svg" xmlns:xlink="http://www.w3.org/1999/xlink">
 <defs>
  <style type="text/css">
*{stroke-linecap:butt;stroke-linejoin:round;}
  </style>
 </defs>
 <g id="figure_1">
  <g id="patch_1">
   <path d="M 0 345.6 
L 460.8 345.6 
L 460.8 0 
L 0 0 
z
" style="fill:#ffffff;"/>
  </g>
  <g id="axes_1">
   <g id="patch_2">
    <path d="M 57.6 307.584 
L 414.72 307.584 
L 414.72 41.472 
L 57.6 41.472 
z
" style="fill:#ffffff;"/>
   </g>
   <g id="matplotlib.axis_1">
    <g id="xtick_1">
     <g id="line2d_1">
      <defs>
       <path d="M 0 0 
L 0 3.5 
" id="m0949cf1501" style="stroke:#000000;stroke-width:0.8;"/>
      </defs>
      <g>
       <use style="stroke:#000000;stroke-width:0.8;" x="73.832727" xlink:href="#m0949cf1501" y="307.584"/>
      </g>
     </g>
     <g id="text_1">
      <!-- 0 -->
      <defs>
       <path d="M 31.78125 66.40625 
Q 24.171875 66.40625 20.328125 58.90625 
Q 16.5 51.421875 16.5 36.375 
Q 16.5 21.390625 20.328125 13.890625 
Q 24.171875 6.390625 31.78125 6.390625 
Q 39.453125 6.390625 43.28125 13.890625 
Q 47.125 21.390625 47.125 36.375 
Q 47.125 51.421875 43.28125 58.90625 
Q 39.453125 66.40625 31.78125 66.40625 
z
M 31.78125 74.21875 
Q 44.046875 74.21875 50.515625 64.515625 
Q 56.984375 54.828125 56.984375 36.375 
Q 56.984375 17.96875 50.515625 8.265625 
Q 44.046875 -1.421875 31.78125 -1.421875 
Q 19.53125 -1.421875 13.0625 8.265625 
Q 6.59375 17.96875 6.59375 36.375 
Q 6.59375 54.828125 13.0625 64.515625 
Q 19.53125 74.21875 31.78125 74.21875 
z
" id="DejaVuSans-30"/>
      </defs>
      <g transform="translate(70.651477 322.182437)scale(0.1 -0.1)">
       <use xlink:href="#DejaVuSans-30"/>
      </g>
     </g>
    </g>
    <g id="xtick_2">
     <g id="line2d_2">
      <g>
       <use style="stroke:#000000;stroke-width:0.8;" x="149.158608" xlink:href="#m0949cf1501" y="307.584"/>
      </g>
     </g>
     <g id="text_2">
      <!-- 100 -->
      <defs>
       <path d="M 12.40625 8.296875 
L 28.515625 8.296875 
L 28.515625 63.921875 
L 10.984375 60.40625 
L 10.984375 69.390625 
L 28.421875 72.90625 
L 38.28125 72.90625 
L 38.28125 8.296875 
L 54.390625 8.296875 
L 54.390625 0 
L 12.40625 0 
z
" id="DejaVuSans-31"/>
      </defs>
      <g transform="translate(139.614858 322.182437)scale(0.1 -0.1)">
       <use xlink:href="#DejaVuSans-31"/>
       <use x="63.623047" xlink:href="#DejaVuSans-30"/>
       <use x="127.246094" xlink:href="#DejaVuSans-30"/>
      </g>
     </g>
    </g>
    <g id="xtick_3">
     <g id="line2d_3">
      <g>
       <use style="stroke:#000000;stroke-width:0.8;" x="224.484489" xlink:href="#m0949cf1501" y="307.584"/>
      </g>
     </g>
     <g id="text_3">
      <!-- 200 -->
      <defs>
       <path d="M 19.1875 8.296875 
L 53.609375 8.296875 
L 53.609375 0 
L 7.328125 0 
L 7.328125 8.296875 
Q 12.9375 14.109375 22.625 23.890625 
Q 32.328125 33.6875 34.8125 36.53125 
Q 39.546875 41.84375 41.421875 45.53125 
Q 43.3125 49.21875 43.3125 52.78125 
Q 43.3125 58.59375 39.234375 62.25 
Q 35.15625 65.921875 28.609375 65.921875 
Q 23.96875 65.921875 18.8125 64.3125 
Q 13.671875 62.703125 7.8125 59.421875 
L 7.8125 69.390625 
Q 13.765625 71.78125 18.9375 73 
Q 24.125 74.21875 28.421875 74.21875 
Q 39.75 74.21875 46.484375 68.546875 
Q 53.21875 62.890625 53.21875 53.421875 
Q 53.21875 48.921875 51.53125 44.890625 
Q 49.859375 40.875 45.40625 35.40625 
Q 44.1875 33.984375 37.640625 27.21875 
Q 31.109375 20.453125 19.1875 8.296875 
z
" id="DejaVuSans-32"/>
      </defs>
      <g transform="translate(214.940739 322.182437)scale(0.1 -0.1)">
       <use xlink:href="#DejaVuSans-32"/>
       <use x="63.623047" xlink:href="#DejaVuSans-30"/>
       <use x="127.246094" xlink:href="#DejaVuSans-30"/>
      </g>
     </g>
    </g>
    <g id="xtick_4">
     <g id="line2d_4">
      <g>
       <use style="stroke:#000000;stroke-width:0.8;" x="299.810369" xlink:href="#m0949cf1501" y="307.584"/>
      </g>
     </g>
     <g id="text_4">
      <!-- 300 -->
      <defs>
       <path d="M 40.578125 39.3125 
Q 47.65625 37.796875 51.625 33 
Q 55.609375 28.21875 55.609375 21.1875 
Q 55.609375 10.40625 48.1875 4.484375 
Q 40.765625 -1.421875 27.09375 -1.421875 
Q 22.515625 -1.421875 17.65625 -0.515625 
Q 12.796875 0.390625 7.625 2.203125 
L 7.625 11.71875 
Q 11.71875 9.328125 16.59375 8.109375 
Q 21.484375 6.890625 26.8125 6.890625 
Q 36.078125 6.890625 40.9375 10.546875 
Q 45.796875 14.203125 45.796875 21.1875 
Q 45.796875 27.640625 41.28125 31.265625 
Q 36.765625 34.90625 28.71875 34.90625 
L 20.21875 34.90625 
L 20.21875 43.015625 
L 29.109375 43.015625 
Q 36.375 43.015625 40.234375 45.921875 
Q 44.09375 48.828125 44.09375 54.296875 
Q 44.09375 59.90625 40.109375 62.90625 
Q 36.140625 65.921875 28.71875 65.921875 
Q 24.65625 65.921875 20.015625 65.03125 
Q 15.375 64.15625 9.8125 62.3125 
L 9.8125 71.09375 
Q 15.4375 72.65625 20.34375 73.4375 
Q 25.25 74.21875 29.59375 74.21875 
Q 40.828125 74.21875 47.359375 69.109375 
Q 53.90625 64.015625 53.90625 55.328125 
Q 53.90625 49.265625 50.4375 45.09375 
Q 46.96875 40.921875 40.578125 39.3125 
z
" id="DejaVuSans-33"/>
      </defs>
      <g transform="translate(290.266619 322.182437)scale(0.1 -0.1)">
       <use xlink:href="#DejaVuSans-33"/>
       <use x="63.623047" xlink:href="#DejaVuSans-30"/>
       <use x="127.246094" xlink:href="#DejaVuSans-30"/>
      </g>
     </g>
    </g>
    <g id="xtick_5">
     <g id="line2d_5">
      <g>
       <use style="stroke:#000000;stroke-width:0.8;" x="375.13625" xlink:href="#m0949cf1501" y="307.584"/>
      </g>
     </g>
     <g id="text_5">
      <!-- 400 -->
      <defs>
       <path d="M 37.796875 64.3125 
L 12.890625 25.390625 
L 37.796875 25.390625 
z
M 35.203125 72.90625 
L 47.609375 72.90625 
L 47.609375 25.390625 
L 58.015625 25.390625 
L 58.015625 17.1875 
L 47.609375 17.1875 
L 47.609375 0 
L 37.796875 0 
L 37.796875 17.1875 
L 4.890625 17.1875 
L 4.890625 26.703125 
z
" id="DejaVuSans-34"/>
      </defs>
      <g transform="translate(365.5925 322.182437)scale(0.1 -0.1)">
       <use xlink:href="#DejaVuSans-34"/>
       <use x="63.623047" xlink:href="#DejaVuSans-30"/>
       <use x="127.246094" xlink:href="#DejaVuSans-30"/>
      </g>
     </g>
    </g>
   </g>
   <g id="matplotlib.axis_2">
    <g id="ytick_1">
     <g id="line2d_6">
      <defs>
       <path d="M 0 0 
L -3.5 0 
" id="mffc5f6f187" style="stroke:#000000;stroke-width:0.8;"/>
      </defs>
      <g>
       <use style="stroke:#000000;stroke-width:0.8;" x="57.6" xlink:href="#mffc5f6f187" y="288.576"/>
      </g>
     </g>
     <g id="text_6">
      <!-- 4 -->
      <g transform="translate(44.2375 292.375219)scale(0.1 -0.1)">
       <use xlink:href="#DejaVuSans-34"/>
      </g>
     </g>
    </g>
    <g id="ytick_2">
     <g id="line2d_7">
      <g>
       <use style="stroke:#000000;stroke-width:0.8;" x="57.6" xlink:href="#mffc5f6f187" y="254.016"/>
      </g>
     </g>
     <g id="text_7">
      <!-- 5 -->
      <defs>
       <path d="M 10.796875 72.90625 
L 49.515625 72.90625 
L 49.515625 64.59375 
L 19.828125 64.59375 
L 19.828125 46.734375 
Q 21.96875 47.46875 24.109375 47.828125 
Q 26.265625 48.1875 28.421875 48.1875 
Q 40.625 48.1875 47.75 41.5 
Q 54.890625 34.8125 54.890625 23.390625 
Q 54.890625 11.625 47.5625 5.09375 
Q 40.234375 -1.421875 26.90625 -1.421875 
Q 22.3125 -1.421875 17.546875 -0.640625 
Q 12.796875 0.140625 7.71875 1.703125 
L 7.71875 11.625 
Q 12.109375 9.234375 16.796875 8.0625 
Q 21.484375 6.890625 26.703125 6.890625 
Q 35.15625 6.890625 40.078125 11.328125 
Q 45.015625 15.765625 45.015625 23.390625 
Q 45.015625 31 40.078125 35.4375 
Q 35.15625 39.890625 26.703125 39.890625 
Q 22.75 39.890625 18.8125 39.015625 
Q 14.890625 38.140625 10.796875 36.28125 
z
" id="DejaVuSans-35"/>
      </defs>
      <g transform="translate(44.2375 257.815219)scale(0.1 -0.1)">
       <use xlink:href="#DejaVuSans-35"/>
      </g>
     </g>
    </g>
    <g id="ytick_3">
     <g id="line2d_8">
      <g>
       <use style="stroke:#000000;stroke-width:0.8;" x="57.6" xlink:href="#mffc5f6f187" y="219.456"/>
      </g>
     </g>
     <g id="text_8">
      <!-- 6 -->
      <defs>
       <path d="M 33.015625 40.375 
Q 26.375 40.375 22.484375 35.828125 
Q 18.609375 31.296875 18.609375 23.390625 
Q 18.609375 15.53125 22.484375 10.953125 
Q 26.375 6.390625 33.015625 6.390625 
Q 39.65625 6.390625 43.53125 10.953125 
Q 47.40625 15.53125 47.40625 23.390625 
Q 47.40625 31.296875 43.53125 35.828125 
Q 39.65625 40.375 33.015625 40.375 
z
M 52.59375 71.296875 
L 52.59375 62.3125 
Q 48.875 64.0625 45.09375 64.984375 
Q 41.3125 65.921875 37.59375 65.921875 
Q 27.828125 65.921875 22.671875 59.328125 
Q 17.53125 52.734375 16.796875 39.40625 
Q 19.671875 43.65625 24.015625 45.921875 
Q 28.375 48.1875 33.59375 48.1875 
Q 44.578125 48.1875 50.953125 41.515625 
Q 57.328125 34.859375 57.328125 23.390625 
Q 57.328125 12.15625 50.6875 5.359375 
Q 44.046875 -1.421875 33.015625 -1.421875 
Q 20.359375 -1.421875 13.671875 8.265625 
Q 6.984375 17.96875 6.984375 36.375 
Q 6.984375 53.65625 15.1875 63.9375 
Q 23.390625 74.21875 37.203125 74.21875 
Q 40.921875 74.21875 44.703125 73.484375 
Q 48.484375 72.75 52.59375 71.296875 
z
" id="DejaVuSans-36"/>
      </defs>
      <g transform="translate(44.2375 223.255219)scale(0.1 -0.1)">
       <use xlink:href="#DejaVuSans-36"/>
      </g>
     </g>
    </g>
    <g id="ytick_4">
     <g id="line2d_9">
      <g>
       <use style="stroke:#000000;stroke-width:0.8;" x="57.6" xlink:href="#mffc5f6f187" y="184.896"/>
      </g>
     </g>
     <g id="text_9">
      <!-- 7 -->
      <defs>
       <path d="M 8.203125 72.90625 
L 55.078125 72.90625 
L 55.078125 68.703125 
L 28.609375 0 
L 18.3125 0 
L 43.21875 64.59375 
L 8.203125 64.59375 
z
" id="DejaVuSans-37"/>
      </defs>
      <g transform="translate(44.2375 188.695219)scale(0.1 -0.1)">
       <use xlink:href="#DejaVuSans-37"/>
      </g>
     </g>
    </g>
    <g id="ytick_5">
     <g id="line2d_10">
      <g>
       <use style="stroke:#000000;stroke-width:0.8;" x="57.6" xlink:href="#mffc5f6f187" y="150.336"/>
      </g>
     </g>
     <g id="text_10">
      <!-- 8 -->
      <defs>
       <path d="M 31.78125 34.625 
Q 24.75 34.625 20.71875 30.859375 
Q 16.703125 27.09375 16.703125 20.515625 
Q 16.703125 13.921875 20.71875 10.15625 
Q 24.75 6.390625 31.78125 6.390625 
Q 38.8125 6.390625 42.859375 10.171875 
Q 46.921875 13.96875 46.921875 20.515625 
Q 46.921875 27.09375 42.890625 30.859375 
Q 38.875 34.625 31.78125 34.625 
z
M 21.921875 38.8125 
Q 15.578125 40.375 12.03125 44.71875 
Q 8.5 49.078125 8.5 55.328125 
Q 8.5 64.0625 14.71875 69.140625 
Q 20.953125 74.21875 31.78125 74.21875 
Q 42.671875 74.21875 48.875 69.140625 
Q 55.078125 64.0625 55.078125 55.328125 
Q 55.078125 49.078125 51.53125 44.71875 
Q 48 40.375 41.703125 38.8125 
Q 48.828125 37.15625 52.796875 32.3125 
Q 56.78125 27.484375 56.78125 20.515625 
Q 56.78125 9.90625 50.3125 4.234375 
Q 43.84375 -1.421875 31.78125 -1.421875 
Q 19.734375 -1.421875 13.25 4.234375 
Q 6.78125 9.90625 6.78125 20.515625 
Q 6.78125 27.484375 10.78125 32.3125 
Q 14.796875 37.15625 21.921875 38.8125 
z
M 18.3125 54.390625 
Q 18.3125 48.734375 21.84375 45.5625 
Q 25.390625 42.390625 31.78125 42.390625 
Q 38.140625 42.390625 41.71875 45.5625 
Q 45.3125 48.734375 45.3125 54.390625 
Q 45.3125 60.0625 41.71875 63.234375 
Q 38.140625 66.40625 31.78125 66.40625 
Q 25.390625 66.40625 21.84375 63.234375 
Q 18.3125 60.0625 18.3125 54.390625 
z
" id="DejaVuSans-38"/>
      </defs>
      <g transform="translate(44.2375 154.135219)scale(0.1 -0.1)">
       <use xlink:href="#DejaVuSans-38"/>
      </g>
     </g>
    </g>
    <g id="ytick_6">
     <g id="line2d_11">
      <g>
       <use style="stroke:#000000;stroke-width:0.8;" x="57.6" xlink:href="#mffc5f6f187" y="115.776"/>
      </g>
     </g>
     <g id="text_11">
      <!-- 9 -->
      <defs>
       <path d="M 10.984375 1.515625 
L 10.984375 10.5 
Q 14.703125 8.734375 18.5 7.8125 
Q 22.3125 6.890625 25.984375 6.890625 
Q 35.75 6.890625 40.890625 13.453125 
Q 46.046875 20.015625 46.78125 33.40625 
Q 43.953125 29.203125 39.59375 26.953125 
Q 35.25 24.703125 29.984375 24.703125 
Q 19.046875 24.703125 12.671875 31.3125 
Q 6.296875 37.9375 6.296875 49.421875 
Q 6.296875 60.640625 12.9375 67.421875 
Q 19.578125 74.21875 30.609375 74.21875 
Q 43.265625 74.21875 49.921875 64.515625 
Q 56.59375 54.828125 56.59375 36.375 
Q 56.59375 19.140625 48.40625 8.859375 
Q 40.234375 -1.421875 26.421875 -1.421875 
Q 22.703125 -1.421875 18.890625 -0.6875 
Q 15.09375 0.046875 10.984375 1.515625 
z
M 30.609375 32.421875 
Q 37.25 32.421875 41.125 36.953125 
Q 45.015625 41.5 45.015625 49.421875 
Q 45.015625 57.28125 41.125 61.84375 
Q 37.25 66.40625 30.609375 66.40625 
Q 23.96875 66.40625 20.09375 61.84375 
Q 16.21875 57.28125 16.21875 49.421875 
Q 16.21875 41.5 20.09375 36.953125 
Q 23.96875 32.421875 30.609375 32.421875 
z
" id="DejaVuSans-39"/>
      </defs>
      <g transform="translate(44.2375 119.575219)scale(0.1 -0.1)">
       <use xlink:href="#DejaVuSans-39"/>
      </g>
     </g>
    </g>
    <g id="ytick_7">
     <g id="line2d_12">
      <g>
       <use style="stroke:#000000;stroke-width:0.8;" x="57.6" xlink:href="#mffc5f6f187" y="81.216"/>
      </g>
     </g>
     <g id="text_12">
      <!-- 10 -->
      <g transform="translate(37.875 85.015219)scale(0.1 -0.1)">
       <use xlink:href="#DejaVuSans-31"/>
       <use x="63.623047" xlink:href="#DejaVuSans-30"/>
      </g>
     </g>
    </g>
    <g id="ytick_8">
     <g id="line2d_13">
      <g>
       <use style="stroke:#000000;stroke-width:0.8;" x="57.6" xlink:href="#mffc5f6f187" y="46.656"/>
      </g>
     </g>
     <g id="text_13">
      <!-- 11 -->
      <g transform="translate(37.875 50.455219)scale(0.1 -0.1)">
       <use xlink:href="#DejaVuSans-31"/>
       <use x="63.623047" xlink:href="#DejaVuSans-31"/>
      </g>
     </g>
    </g>
   </g>
   <g id="line2d_14">
    <path clip-path="url(#p6a1403df87)" d="M 73.832727 167.616 
L 74.585986 177.984 
L 75.339245 167.616 
L 76.092504 171.072 
L 76.845762 171.072 
L 77.599021 177.984 
L 78.35228 167.616 
L 79.105539 167.616 
L 79.858798 177.984 
L 81.365315 164.16 
L 82.118574 153.792 
L 82.871833 139.968 
L 83.625092 133.056 
L 84.378351 129.6 
L 85.131609 119.232 
L 85.884868 115.776 
L 86.638127 105.408 
L 87.391386 101.952 
L 88.897903 88.128 
L 89.651162 88.128 
L 91.15768 67.392 
L 91.910939 53.568 
L 92.664197 53.568 
L 93.417456 67.392 
L 94.170715 67.392 
L 96.430491 77.76 
L 97.18375 77.76 
L 97.937009 101.952 
L 98.690268 98.496 
L 99.443527 108.864 
L 100.196785 122.688 
L 100.950044 133.056 
L 101.703303 139.968 
L 102.456562 150.336 
L 103.209821 157.248 
L 103.96308 157.248 
L 104.716338 160.704 
L 105.469597 171.072 
L 106.222856 177.984 
L 106.976115 167.616 
L 107.729374 167.616 
L 108.482632 174.528 
L 109.235891 171.072 
L 109.98915 177.984 
L 110.742409 174.528 
L 111.495668 174.528 
L 112.248926 177.984 
L 113.002185 177.984 
L 113.755444 174.528 
L 114.508703 177.984 
L 115.261962 171.072 
L 116.01522 171.072 
L 116.768479 181.44 
L 118.274997 181.44 
L 119.028256 184.896 
L 119.781514 184.896 
L 120.534773 195.264 
L 121.288032 177.984 
L 122.041291 177.984 
L 122.79455 181.44 
L 123.547808 177.984 
L 124.301067 177.984 
L 125.054326 184.896 
L 125.807585 188.352 
L 126.560844 184.896 
L 127.314103 184.896 
L 128.067361 188.352 
L 128.82062 198.72 
L 131.080397 198.72 
L 131.833655 209.088 
L 132.586914 209.088 
L 135.599949 222.912 
L 136.353208 219.456 
L 137.106467 226.368 
L 137.859726 229.824 
L 140.119502 229.824 
L 140.872761 240.192 
L 141.62602 233.28 
L 142.379279 240.192 
L 143.132537 240.192 
L 143.885796 233.28 
L 144.639055 240.192 
L 145.392314 240.192 
L 146.145573 243.648 
L 146.898831 243.648 
L 147.65209 240.192 
L 149.158608 254.016 
L 149.911867 247.104 
L 150.665126 247.104 
L 151.418384 243.648 
L 152.171643 247.104 
L 152.924902 247.104 
L 153.678161 243.648 
L 154.43142 243.648 
L 155.184678 240.192 
L 156.691196 240.192 
L 158.197714 247.104 
L 158.950972 240.192 
L 159.704231 240.192 
L 160.45749 247.104 
L 161.210749 236.736 
L 162.717266 222.912 
L 163.470525 222.912 
L 164.223784 212.544 
L 165.730302 205.632 
L 167.236819 191.808 
L 167.990078 195.264 
L 168.743337 188.352 
L 169.496596 188.352 
L 170.249854 191.808 
L 171.003113 188.352 
L 171.756372 188.352 
L 172.509631 184.896 
L 173.26289 184.896 
L 174.016148 174.528 
L 174.769407 174.528 
L 175.522666 171.072 
L 177.029184 171.072 
L 178.535701 157.248 
L 180.042219 164.16 
L 180.795478 164.16 
L 181.548737 174.528 
L 182.301995 171.072 
L 183.055254 171.072 
L 183.808513 174.528 
L 184.561772 181.44 
L 185.315031 184.896 
L 186.068289 181.44 
L 186.821548 181.44 
L 189.834583 195.264 
L 190.587842 191.808 
L 191.341101 198.72 
L 192.09436 202.176 
L 192.847619 198.72 
L 193.600877 198.72 
L 195.107395 205.632 
L 195.860654 216 
L 197.367171 216 
L 199.626948 226.368 
L 200.380207 233.28 
L 201.133466 236.736 
L 201.886724 233.28 
L 202.639983 240.192 
L 203.393242 240.192 
L 204.146501 226.368 
L 204.89976 233.28 
L 205.653018 233.28 
L 206.406277 229.824 
L 207.159536 229.824 
L 208.666054 236.736 
L 209.419312 233.28 
L 210.92583 233.28 
L 211.679089 236.736 
L 212.432348 236.736 
L 213.185606 233.28 
L 213.938865 233.28 
L 214.692124 243.648 
L 215.445383 236.736 
L 216.198642 250.56 
L 216.9519 247.104 
L 217.705159 247.104 
L 218.458418 240.192 
L 219.211677 240.192 
L 220.718194 247.104 
L 221.471453 247.104 
L 222.224712 250.56 
L 222.977971 257.472 
L 223.73123 254.016 
L 225.237747 260.928 
L 225.991006 257.472 
L 226.744265 264.384 
L 227.497524 267.84 
L 228.250783 264.384 
L 229.004041 267.84 
L 229.7573 267.84 
L 230.510559 264.384 
L 231.263818 278.208 
L 232.770335 271.296 
L 234.276853 271.296 
L 235.030112 267.84 
L 236.536629 274.752 
L 237.289888 274.752 
L 238.043147 278.208 
L 238.796406 274.752 
L 239.549665 281.664 
L 240.302923 278.208 
L 241.056182 281.664 
L 241.809441 278.208 
L 242.5627 278.208 
L 243.315959 281.664 
L 244.069217 281.664 
L 244.822476 285.12 
L 245.575735 285.12 
L 246.328994 288.576 
L 247.082253 288.576 
L 247.835511 285.12 
L 248.58877 288.576 
L 249.342029 295.488 
L 250.095288 288.576 
L 251.601806 288.576 
L 252.355064 285.12 
L 253.108323 292.032 
L 255.3681 292.032 
L 256.121358 281.664 
L 256.874617 281.664 
L 258.381135 274.752 
L 259.134394 278.208 
L 259.887652 271.296 
L 260.640911 267.84 
L 261.39417 257.472 
L 262.147429 254.016 
L 262.900688 243.648 
L 264.407205 229.824 
L 266.666982 229.824 
L 267.42024 222.912 
L 268.173499 226.368 
L 269.680017 226.368 
L 270.433276 229.824 
L 271.939793 229.824 
L 272.693052 222.912 
L 273.446311 219.456 
L 274.19957 226.368 
L 274.952829 222.912 
L 275.706087 222.912 
L 277.212605 216 
L 277.965864 209.088 
L 279.472381 216 
L 280.22564 216 
L 280.978899 219.456 
L 281.732158 226.368 
L 282.485417 229.824 
L 283.238675 229.824 
L 283.991934 233.28 
L 284.745193 226.368 
L 285.498452 233.28 
L 287.004969 233.28 
L 288.511487 240.192 
L 289.264746 240.192 
L 290.018005 236.736 
L 290.771263 240.192 
L 291.524522 240.192 
L 292.277781 243.648 
L 293.03104 240.192 
L 293.784299 247.104 
L 294.537557 247.104 
L 296.044075 254.016 
L 296.797334 254.016 
L 297.550593 257.472 
L 298.303852 254.016 
L 299.810369 254.016 
L 300.563628 257.472 
L 301.316887 264.384 
L 302.070146 260.928 
L 302.823404 264.384 
L 303.576663 264.384 
L 304.329922 267.84 
L 305.083181 267.84 
L 305.83644 264.384 
L 306.589698 264.384 
L 307.342957 271.296 
L 308.096216 274.752 
L 308.849475 271.296 
L 309.602734 274.752 
L 310.355992 267.84 
L 311.86251 274.752 
L 312.615769 271.296 
L 313.369028 274.752 
L 314.122286 267.84 
L 314.875545 264.384 
L 315.628804 267.84 
L 316.382063 264.384 
L 317.88858 264.384 
L 318.641839 254.016 
L 319.395098 254.016 
L 320.148357 257.472 
L 320.901616 250.56 
L 321.654874 254.016 
L 322.408133 240.192 
L 323.914651 226.368 
L 324.66791 216 
L 325.421169 216 
L 326.174427 202.176 
L 326.927686 191.808 
L 329.187463 139.968 
L 329.940721 126.144 
L 330.69398 115.776 
L 331.447239 101.952 
L 332.200498 98.496 
L 332.953757 98.496 
L 333.707015 95.04 
L 335.213533 81.216 
L 335.966792 84.672 
L 336.720051 84.672 
L 337.473309 88.128 
L 338.226568 88.128 
L 338.979827 84.672 
L 339.733086 84.672 
L 340.486345 95.04 
L 341.239603 101.952 
L 341.992862 101.952 
L 342.746121 98.496 
L 343.49938 98.496 
L 344.252639 101.952 
L 345.005897 88.128 
L 345.759156 105.408 
L 346.512415 112.32 
L 347.265674 115.776 
L 348.018933 115.776 
L 348.772192 112.32 
L 349.52545 115.776 
L 350.278709 112.32 
L 351.031968 115.776 
L 352.538486 115.776 
L 354.045003 129.6 
L 354.798262 133.056 
L 355.551521 139.968 
L 356.30478 139.968 
L 357.058038 143.424 
L 360.071074 143.424 
L 360.824332 146.88 
L 361.577591 157.248 
L 362.33085 157.248 
L 363.084109 160.704 
L 363.837368 153.792 
L 364.590626 150.336 
L 365.343885 160.704 
L 366.097144 167.616 
L 366.850403 164.16 
L 367.603662 167.616 
L 368.35692 167.616 
L 369.110179 174.528 
L 369.863438 177.984 
L 371.369956 177.984 
L 372.123215 188.352 
L 372.876473 195.264 
L 373.629732 198.72 
L 374.382991 195.264 
L 375.13625 195.264 
L 375.889509 209.088 
L 376.642767 209.088 
L 377.396026 216 
L 378.149285 212.544 
L 378.902544 212.544 
L 379.655803 222.912 
L 380.409061 229.824 
L 381.16232 226.368 
L 381.915579 233.28 
L 382.668838 229.824 
L 383.422097 236.736 
L 384.175355 236.736 
L 384.928614 240.192 
L 385.681873 236.736 
L 386.435132 243.648 
L 388.694908 254.016 
L 390.954685 254.016 
L 391.707943 257.472 
L 392.461202 257.472 
L 393.214461 254.016 
L 393.96772 254.016 
L 394.720979 264.384 
L 395.474238 257.472 
L 396.980755 257.472 
L 397.734014 254.016 
L 398.487273 257.472 
L 398.487273 257.472 
" style="fill:none;opacity:0.6;stroke:#1f77b4;stroke-linecap:square;stroke-width:0.5;"/>
   </g>
   <g id="line2d_15">
    <path clip-path="url(#p6a1403df87)" d="M 73.832727 176.783113 
L 74.585986 164.220697 
L 75.339245 166.176731 
L 76.092504 174.100417 
L 76.845762 172.751125 
L 77.599021 169.654629 
L 78.35228 171.307027 
L 79.105539 170.970714 
L 79.858798 171.451058 
L 80.612057 169.850553 
L 81.365315 162.635815 
L 82.118574 152.793422 
L 83.625092 136.999246 
L 84.378351 123.088214 
L 85.131609 115.821813 
L 85.884868 115.097704 
L 86.638127 111.921908 
L 88.144645 95.215889 
L 88.897903 89.293192 
L 89.651162 86.526813 
L 90.404421 76.927146 
L 91.15768 75.640526 
L 91.910939 123.697395 
L 92.664197 101.402257 
L 93.417456 84.230363 
L 94.170715 80.28125 
L 94.923974 89.195535 
L 95.677233 79.510076 
L 96.430491 80.728899 
L 97.18375 87.399468 
L 97.937009 95.09137 
L 100.196785 122.507213 
L 101.703303 139.471763 
L 102.456562 146.544168 
L 103.209821 151.075468 
L 103.96308 156.292512 
L 104.716338 159.678142 
L 106.222856 168.276383 
L 106.976115 171.026942 
L 107.729374 173.281122 
L 108.482632 174.472754 
L 109.235891 178.555252 
L 109.98915 201.557871 
L 110.742409 195.73331 
L 111.495668 185.827668 
L 112.248926 183.956142 
L 113.002185 173.187881 
L 113.755444 174.586067 
L 115.261962 173.338619 
L 116.01522 171.562937 
L 116.768479 174.579393 
L 117.521738 179.429291 
L 118.274997 185.068441 
L 119.028256 187.717652 
L 119.781514 187.346402 
L 120.534773 184.773096 
L 121.288032 182.680794 
L 122.041291 182.79849 
L 122.79455 181.840752 
L 123.547808 184.283606 
L 124.301067 179.435355 
L 125.054326 182.562998 
L 125.807585 184.352309 
L 126.560844 183.188131 
L 127.314103 184.306759 
L 128.067361 211.46783 
L 128.82062 208.472583 
L 129.573879 204.173677 
L 130.327138 205.830608 
L 131.080397 201.43177 
L 131.833655 203.768347 
L 132.586914 206.647562 
L 133.340173 213.78862 
L 134.093432 216.182151 
L 134.846691 219.230709 
L 135.599949 221.483208 
L 136.353208 223.302643 
L 137.106467 226.189834 
L 137.859726 227.443824 
L 138.612985 233.431433 
L 139.366243 231.78678 
L 140.119502 229.566712 
L 140.872761 232.535773 
L 141.62602 233.548817 
L 142.379279 234.059714 
L 143.132537 235.146026 
L 143.885796 236.5144 
L 144.639055 239.088349 
L 145.392314 239.020387 
L 146.145573 245.091564 
L 146.898831 252.701546 
L 148.405349 246.297583 
L 150.665126 240.924757 
L 151.418384 241.473557 
L 152.171643 248.399311 
L 152.924902 246.968397 
L 153.678161 244.786875 
L 154.43142 243.720783 
L 155.184678 243.021048 
L 156.691196 237.075197 
L 157.444455 242.717759 
L 158.197714 245.170995 
L 158.950972 241.654634 
L 159.704231 242.302229 
L 160.45749 241.241691 
L 161.210749 237.892218 
L 161.964008 233.36423 
L 163.470525 219.577718 
L 164.223784 204.275405 
L 164.977043 199.546977 
L 165.730302 196.448173 
L 166.48356 198.946432 
L 167.236819 195.172578 
L 167.990078 197.157434 
L 168.743337 197.72685 
L 169.496596 191.033342 
L 170.249854 189.961714 
L 171.003113 192.260949 
L 171.756372 190.480109 
L 172.509631 188.150601 
L 174.016148 179.367921 
L 174.769407 175.817926 
L 176.275925 166.636475 
L 177.029184 163.369795 
L 177.782443 160.763975 
L 178.535701 159.900582 
L 179.28896 162.748288 
L 180.042219 162.825082 
L 180.795478 170.383863 
L 181.548737 166.696411 
L 182.301995 189.886089 
L 183.055254 181.363374 
L 183.808513 181.216739 
L 184.561772 180.941334 
L 185.315031 179.906521 
L 186.068289 180.506127 
L 186.821548 181.366323 
L 187.574807 183.682961 
L 188.328066 185.002177 
L 189.081325 190.406874 
L 189.834583 188.196496 
L 190.587842 189.042801 
L 191.341101 193.252355 
L 192.09436 198.163458 
L 192.847619 201.950231 
L 193.600877 204.32776 
L 194.354136 205.621021 
L 195.860654 211.409344 
L 196.613913 218.379214 
L 197.367171 217.803865 
L 198.12043 219.368889 
L 198.873689 221.356349 
L 199.626948 224.676423 
L 200.380207 244.43189 
L 201.133466 255.829206 
L 201.886724 260.719347 
L 202.639983 250.593292 
L 203.393242 242.010014 
L 204.146501 235.05524 
L 204.89976 230.775302 
L 205.653018 229.511852 
L 206.406277 229.664881 
L 207.159536 230.455896 
L 207.912795 231.426176 
L 208.666054 232.058873 
L 209.419312 232.278775 
L 210.172571 232.806119 
L 210.92583 235.074604 
L 211.679089 235.718309 
L 212.432348 237.081229 
L 213.185606 239.032516 
L 214.692124 243.857299 
L 216.9519 249.612746 
L 217.705159 252.151263 
L 218.458418 230.583365 
L 219.211677 235.990089 
L 219.964936 237.663993 
L 220.718194 250.740932 
L 221.471453 253.557936 
L 222.224712 253.883274 
L 222.977971 253.808902 
L 223.73123 253.91035 
L 224.484489 255.81594 
L 225.991006 261.481358 
L 226.744265 263.436189 
L 227.497524 263.981858 
L 228.250783 263.904338 
L 229.004041 265.79325 
L 229.7573 269.219848 
L 230.510559 270.823566 
L 231.263818 270.470295 
L 232.770335 272.216923 
L 233.523594 272.576687 
L 234.276853 271.663509 
L 235.030112 272.459617 
L 235.783371 272.387618 
L 236.536629 247.743263 
L 237.289888 266.355036 
L 238.043147 274.227356 
L 238.796406 276.380533 
L 239.549665 280.533629 
L 240.302923 279.916274 
L 241.056182 275.929901 
L 241.809441 273.370356 
L 242.5627 279.479172 
L 244.069217 284.508037 
L 244.822476 286.168758 
L 245.575735 287.25212 
L 246.328994 285.286825 
L 247.082253 286.216598 
L 247.835511 286.451596 
L 248.58877 287.657367 
L 249.342029 287.518445 
L 250.095288 288.835783 
L 250.848547 290.598091 
L 251.601806 290.696589 
L 252.355064 291.075857 
L 253.108323 287.896254 
L 253.861582 291.490991 
L 254.614841 247.146837 
L 255.3681 258.434333 
L 256.121358 256.851692 
L 256.874617 276.541323 
L 257.627876 277.32433 
L 258.381135 270.356982 
L 259.134394 271.137055 
L 259.887652 271.211328 
L 260.640911 266.261334 
L 261.39417 253.885285 
L 262.147429 251.801848 
L 263.653946 241.056923 
L 264.407205 236.744223 
L 265.913723 232.243031 
L 267.42024 223.786745 
L 268.173499 222.527695 
L 268.926758 223.69797 
L 269.680017 226.133408 
L 270.433276 225.866341 
L 271.186534 227.64962 
L 271.939793 228.074807 
L 272.693052 221.628228 
L 273.446311 221.043288 
L 274.19957 214.146802 
L 274.952829 221.331927 
L 275.706087 216.46278 
L 276.459346 216.895482 
L 277.212605 217.770181 
L 277.965864 216.852454 
L 278.719123 217.727763 
L 279.472381 219.261905 
L 280.22564 219.986804 
L 280.978899 218.662166 
L 281.732158 222.316774 
L 282.485417 229.379258 
L 283.238675 228.465948 
L 283.991934 228.267304 
L 284.745193 228.56171 
L 285.498452 233.110116 
L 286.251711 236.766256 
L 287.004969 235.996433 
L 287.758228 237.571873 
L 288.511487 236.696416 
L 289.264746 236.521981 
L 290.018005 236.810734 
L 290.771263 226.991017 
L 291.524522 248.6615 
L 292.277781 251.072845 
L 293.03104 252.326869 
L 293.784299 251.013156 
L 294.537557 248.226524 
L 295.290816 252.625197 
L 296.044075 251.854336 
L 296.797334 251.534304 
L 297.550593 252.8582 
L 298.303852 253.38678 
L 299.05711 255.659516 
L 299.810369 257.501577 
L 300.563628 257.549978 
L 301.316887 258.31634 
L 302.070146 261.825186 
L 302.823404 260.864959 
L 303.576663 261.911638 
L 304.329922 264.040541 
L 305.083181 265.344827 
L 305.83644 265.830033 
L 306.589698 266.157661 
L 307.342957 267.530535 
L 308.096216 267.897846 
L 308.849475 247.852176 
L 309.602734 265.304073 
L 310.355992 270.271239 
L 311.109251 267.789312 
L 311.86251 269.598546 
L 312.615769 267.639514 
L 313.369028 268.607519 
L 314.122286 268.659578 
L 314.875545 267.448615 
L 315.628804 268.731 
L 316.382063 267.547954 
L 317.135322 260.532156 
L 317.88858 257.572258 
L 318.641839 256.848479 
L 319.395098 258.173693 
L 320.148357 257.728203 
L 320.901616 252.332999 
L 323.161392 226.738139 
L 323.914651 222.411679 
L 324.66791 220.046922 
L 325.421169 218.974239 
L 326.174427 219.45979 
L 326.927686 110.973349 
L 327.680945 138.106305 
L 328.434204 138.003308 
L 329.940721 121.506216 
L 331.447239 103.164805 
L 332.200498 97.863748 
L 332.953757 94.952118 
L 333.707015 93.978642 
L 334.460274 88.735065 
L 335.213533 87.48559 
L 335.966792 86.591643 
L 336.720051 87.137082 
L 337.473309 88.825966 
L 338.226568 87.432855 
L 338.979827 84.983904 
L 339.733086 83.93538 
L 340.486345 85.558742 
L 341.239603 87.867354 
L 341.992862 92.907969 
L 342.746121 100.444997 
L 343.49938 101.362904 
L 344.252639 106.885446 
L 345.005897 119.337449 
L 345.759156 97.558218 
L 346.512415 109.855281 
L 347.265674 108.520772 
L 348.018933 110.690165 
L 348.772192 111.790896 
L 350.278709 115.856321 
L 351.785227 121.41782 
L 352.538486 124.888994 
L 353.291744 129.056427 
L 354.798262 134.27512 
L 355.551521 135.552182 
L 356.30478 135.332115 
L 357.058038 135.762064 
L 357.811297 137.022284 
L 358.564556 141.129864 
L 359.317815 142.983114 
L 360.071074 148.976969 
L 360.824332 150.886876 
L 361.577591 158.603975 
L 362.33085 169.977561 
L 363.084109 152.816806 
L 363.837368 143.164784 
L 364.590626 150.092334 
L 365.343885 158.506961 
L 366.097144 157.467204 
L 368.35692 170.678977 
L 369.110179 173.345804 
L 370.616697 181.613895 
L 371.369956 184.070971 
L 372.123215 187.171488 
L 372.876473 190.881022 
L 373.629732 193.002872 
L 374.382991 196.817578 
L 375.889509 206.697462 
L 376.642767 209.949739 
L 377.396026 211.949344 
L 378.149285 213.587043 
L 378.902544 214.835875 
L 379.655803 220.742323 
L 380.409061 230.496815 
L 381.16232 221.306367 
L 381.915579 220.73766 
L 382.668838 231.103623 
L 383.422097 239.23912 
L 384.928614 243.046706 
L 385.681873 245.601884 
L 386.435132 245.553962 
L 387.188391 249.043692 
L 388.694908 256.686782 
L 389.448167 255.830343 
L 390.201426 260.448836 
L 390.954685 255.69877 
L 391.707943 252.602768 
L 392.461202 254.211051 
L 393.214461 254.378087 
L 393.96772 255.038058 
L 394.720979 256.811268 
L 395.474238 257.908126 
L 396.227496 258.155747 
L 396.980755 256.045828 
L 397.734014 257.261603 
L 398.487273 255.826898 
L 398.487273 255.826898 
" style="fill:none;opacity:0.6;stroke:#ff7f0e;stroke-linecap:square;stroke-width:0.5;"/>
   </g>
   <g id="patch_3">
    <path d="M 57.6 307.584 
L 57.6 41.472 
" style="fill:none;stroke:#000000;stroke-linecap:square;stroke-linejoin:miter;stroke-width:0.8;"/>
   </g>
   <g id="patch_4">
    <path d="M 414.72 307.584 
L 414.72 41.472 
" style="fill:none;stroke:#000000;stroke-linecap:square;stroke-linejoin:miter;stroke-width:0.8;"/>
   </g>
   <g id="patch_5">
    <path d="M 57.6 307.584 
L 414.72 307.584 
" style="fill:none;stroke:#000000;stroke-linecap:square;stroke-linejoin:miter;stroke-width:0.8;"/>
   </g>
   <g id="patch_6">
    <path d="M 57.6 41.472 
L 414.72 41.472 
" style="fill:none;stroke:#000000;stroke-linecap:square;stroke-linejoin:miter;stroke-width:0.8;"/>
   </g>
  </g>
 </g>
 <defs>
  <clipPath id="p6a1403df87">
   <rect height="266.112" width="357.12" x="57.6" y="41.472"/>
  </clipPath>
 </defs>
</svg>
