<?xml version="1.0" encoding="utf-8" standalone="no"?>
<!DOCTYPE svg PUBLIC "-//W3C//DTD SVG 1.1//EN"
  "http://www.w3.org/Graphics/SVG/1.1/DTD/svg11.dtd">
<!-- Created with matplotlib (http://matplotlib.org/) -->
<svg height="345.6pt" version="1.1" viewBox="0 0 460.8 345.6" width="460.8pt" xmlns="http://www.w3.org/2000/svg" xmlns:xlink="http://www.w3.org/1999/xlink">
 <defs>
  <style type="text/css">
*{stroke-linecap:butt;stroke-linejoin:round;}
  </style>
 </defs>
 <g id="figure_1">
  <g id="patch_1">
   <path d="M 0 345.6 
L 460.8 345.6 
L 460.8 0 
L 0 0 
z
" style="fill:#ffffff;"/>
  </g>
  <g id="axes_1">
   <g id="patch_2">
    <path d="M 57.6 307.584 
L 414.72 307.584 
L 414.72 41.472 
L 57.6 41.472 
z
" style="fill:#ffffff;"/>
   </g>
   <g id="matplotlib.axis_1">
    <g id="xtick_1">
     <g id="line2d_1">
      <defs>
       <path d="M 0 0 
L 0 3.5 
" id="m5f93757603" style="stroke:#000000;stroke-width:0.8;"/>
      </defs>
      <g>
       <use style="stroke:#000000;stroke-width:0.8;" x="73.832727" xlink:href="#m5f93757603" y="307.584"/>
      </g>
     </g>
     <g id="text_1">
      <!-- 0 -->
      <defs>
       <path d="M 31.78125 66.40625 
Q 24.171875 66.40625 20.328125 58.90625 
Q 16.5 51.421875 16.5 36.375 
Q 16.5 21.390625 20.328125 13.890625 
Q 24.171875 6.390625 31.78125 6.390625 
Q 39.453125 6.390625 43.28125 13.890625 
Q 47.125 21.390625 47.125 36.375 
Q 47.125 51.421875 43.28125 58.90625 
Q 39.453125 66.40625 31.78125 66.40625 
z
M 31.78125 74.21875 
Q 44.046875 74.21875 50.515625 64.515625 
Q 56.984375 54.828125 56.984375 36.375 
Q 56.984375 17.96875 50.515625 8.265625 
Q 44.046875 -1.421875 31.78125 -1.421875 
Q 19.53125 -1.421875 13.0625 8.265625 
Q 6.59375 17.96875 6.59375 36.375 
Q 6.59375 54.828125 13.0625 64.515625 
Q 19.53125 74.21875 31.78125 74.21875 
z
" id="DejaVuSans-30"/>
      </defs>
      <g transform="translate(70.651477 322.182437)scale(0.1 -0.1)">
       <use xlink:href="#DejaVuSans-30"/>
      </g>
     </g>
    </g>
    <g id="xtick_2">
     <g id="line2d_2">
      <g>
       <use style="stroke:#000000;stroke-width:0.8;" x="149.158608" xlink:href="#m5f93757603" y="307.584"/>
      </g>
     </g>
     <g id="text_2">
      <!-- 100 -->
      <defs>
       <path d="M 12.40625 8.296875 
L 28.515625 8.296875 
L 28.515625 63.921875 
L 10.984375 60.40625 
L 10.984375 69.390625 
L 28.421875 72.90625 
L 38.28125 72.90625 
L 38.28125 8.296875 
L 54.390625 8.296875 
L 54.390625 0 
L 12.40625 0 
z
" id="DejaVuSans-31"/>
      </defs>
      <g transform="translate(139.614858 322.182437)scale(0.1 -0.1)">
       <use xlink:href="#DejaVuSans-31"/>
       <use x="63.623047" xlink:href="#DejaVuSans-30"/>
       <use x="127.246094" xlink:href="#DejaVuSans-30"/>
      </g>
     </g>
    </g>
    <g id="xtick_3">
     <g id="line2d_3">
      <g>
       <use style="stroke:#000000;stroke-width:0.8;" x="224.484489" xlink:href="#m5f93757603" y="307.584"/>
      </g>
     </g>
     <g id="text_3">
      <!-- 200 -->
      <defs>
       <path d="M 19.1875 8.296875 
L 53.609375 8.296875 
L 53.609375 0 
L 7.328125 0 
L 7.328125 8.296875 
Q 12.9375 14.109375 22.625 23.890625 
Q 32.328125 33.6875 34.8125 36.53125 
Q 39.546875 41.84375 41.421875 45.53125 
Q 43.3125 49.21875 43.3125 52.78125 
Q 43.3125 58.59375 39.234375 62.25 
Q 35.15625 65.921875 28.609375 65.921875 
Q 23.96875 65.921875 18.8125 64.3125 
Q 13.671875 62.703125 7.8125 59.421875 
L 7.8125 69.390625 
Q 13.765625 71.78125 18.9375 73 
Q 24.125 74.21875 28.421875 74.21875 
Q 39.75 74.21875 46.484375 68.546875 
Q 53.21875 62.890625 53.21875 53.421875 
Q 53.21875 48.921875 51.53125 44.890625 
Q 49.859375 40.875 45.40625 35.40625 
Q 44.1875 33.984375 37.640625 27.21875 
Q 31.109375 20.453125 19.1875 8.296875 
z
" id="DejaVuSans-32"/>
      </defs>
      <g transform="translate(214.940739 322.182437)scale(0.1 -0.1)">
       <use xlink:href="#DejaVuSans-32"/>
       <use x="63.623047" xlink:href="#DejaVuSans-30"/>
       <use x="127.246094" xlink:href="#DejaVuSans-30"/>
      </g>
     </g>
    </g>
    <g id="xtick_4">
     <g id="line2d_4">
      <g>
       <use style="stroke:#000000;stroke-width:0.8;" x="299.810369" xlink:href="#m5f93757603" y="307.584"/>
      </g>
     </g>
     <g id="text_4">
      <!-- 300 -->
      <defs>
       <path d="M 40.578125 39.3125 
Q 47.65625 37.796875 51.625 33 
Q 55.609375 28.21875 55.609375 21.1875 
Q 55.609375 10.40625 48.1875 4.484375 
Q 40.765625 -1.421875 27.09375 -1.421875 
Q 22.515625 -1.421875 17.65625 -0.515625 
Q 12.796875 0.390625 7.625 2.203125 
L 7.625 11.71875 
Q 11.71875 9.328125 16.59375 8.109375 
Q 21.484375 6.890625 26.8125 6.890625 
Q 36.078125 6.890625 40.9375 10.546875 
Q 45.796875 14.203125 45.796875 21.1875 
Q 45.796875 27.640625 41.28125 31.265625 
Q 36.765625 34.90625 28.71875 34.90625 
L 20.21875 34.90625 
L 20.21875 43.015625 
L 29.109375 43.015625 
Q 36.375 43.015625 40.234375 45.921875 
Q 44.09375 48.828125 44.09375 54.296875 
Q 44.09375 59.90625 40.109375 62.90625 
Q 36.140625 65.921875 28.71875 65.921875 
Q 24.65625 65.921875 20.015625 65.03125 
Q 15.375 64.15625 9.8125 62.3125 
L 9.8125 71.09375 
Q 15.4375 72.65625 20.34375 73.4375 
Q 25.25 74.21875 29.59375 74.21875 
Q 40.828125 74.21875 47.359375 69.109375 
Q 53.90625 64.015625 53.90625 55.328125 
Q 53.90625 49.265625 50.4375 45.09375 
Q 46.96875 40.921875 40.578125 39.3125 
z
" id="DejaVuSans-33"/>
      </defs>
      <g transform="translate(290.266619 322.182437)scale(0.1 -0.1)">
       <use xlink:href="#DejaVuSans-33"/>
       <use x="63.623047" xlink:href="#DejaVuSans-30"/>
       <use x="127.246094" xlink:href="#DejaVuSans-30"/>
      </g>
     </g>
    </g>
    <g id="xtick_5">
     <g id="line2d_5">
      <g>
       <use style="stroke:#000000;stroke-width:0.8;" x="375.13625" xlink:href="#m5f93757603" y="307.584"/>
      </g>
     </g>
     <g id="text_5">
      <!-- 400 -->
      <defs>
       <path d="M 37.796875 64.3125 
L 12.890625 25.390625 
L 37.796875 25.390625 
z
M 35.203125 72.90625 
L 47.609375 72.90625 
L 47.609375 25.390625 
L 58.015625 25.390625 
L 58.015625 17.1875 
L 47.609375 17.1875 
L 47.609375 0 
L 37.796875 0 
L 37.796875 17.1875 
L 4.890625 17.1875 
L 4.890625 26.703125 
z
" id="DejaVuSans-34"/>
      </defs>
      <g transform="translate(365.5925 322.182437)scale(0.1 -0.1)">
       <use xlink:href="#DejaVuSans-34"/>
       <use x="63.623047" xlink:href="#DejaVuSans-30"/>
       <use x="127.246094" xlink:href="#DejaVuSans-30"/>
      </g>
     </g>
    </g>
   </g>
   <g id="matplotlib.axis_2">
    <g id="ytick_1">
     <g id="line2d_6">
      <defs>
       <path d="M 0 0 
L -3.5 0 
" id="m2e99ef95cf" style="stroke:#000000;stroke-width:0.8;"/>
      </defs>
      <g>
       <use style="stroke:#000000;stroke-width:0.8;" x="57.6" xlink:href="#m2e99ef95cf" y="288.576"/>
      </g>
     </g>
     <g id="text_6">
      <!-- 4 -->
      <g transform="translate(44.2375 292.375219)scale(0.1 -0.1)">
       <use xlink:href="#DejaVuSans-34"/>
      </g>
     </g>
    </g>
    <g id="ytick_2">
     <g id="line2d_7">
      <g>
       <use style="stroke:#000000;stroke-width:0.8;" x="57.6" xlink:href="#m2e99ef95cf" y="254.016"/>
      </g>
     </g>
     <g id="text_7">
      <!-- 5 -->
      <defs>
       <path d="M 10.796875 72.90625 
L 49.515625 72.90625 
L 49.515625 64.59375 
L 19.828125 64.59375 
L 19.828125 46.734375 
Q 21.96875 47.46875 24.109375 47.828125 
Q 26.265625 48.1875 28.421875 48.1875 
Q 40.625 48.1875 47.75 41.5 
Q 54.890625 34.8125 54.890625 23.390625 
Q 54.890625 11.625 47.5625 5.09375 
Q 40.234375 -1.421875 26.90625 -1.421875 
Q 22.3125 -1.421875 17.546875 -0.640625 
Q 12.796875 0.140625 7.71875 1.703125 
L 7.71875 11.625 
Q 12.109375 9.234375 16.796875 8.0625 
Q 21.484375 6.890625 26.703125 6.890625 
Q 35.15625 6.890625 40.078125 11.328125 
Q 45.015625 15.765625 45.015625 23.390625 
Q 45.015625 31 40.078125 35.4375 
Q 35.15625 39.890625 26.703125 39.890625 
Q 22.75 39.890625 18.8125 39.015625 
Q 14.890625 38.140625 10.796875 36.28125 
z
" id="DejaVuSans-35"/>
      </defs>
      <g transform="translate(44.2375 257.815219)scale(0.1 -0.1)">
       <use xlink:href="#DejaVuSans-35"/>
      </g>
     </g>
    </g>
    <g id="ytick_3">
     <g id="line2d_8">
      <g>
       <use style="stroke:#000000;stroke-width:0.8;" x="57.6" xlink:href="#m2e99ef95cf" y="219.456"/>
      </g>
     </g>
     <g id="text_8">
      <!-- 6 -->
      <defs>
       <path d="M 33.015625 40.375 
Q 26.375 40.375 22.484375 35.828125 
Q 18.609375 31.296875 18.609375 23.390625 
Q 18.609375 15.53125 22.484375 10.953125 
Q 26.375 6.390625 33.015625 6.390625 
Q 39.65625 6.390625 43.53125 10.953125 
Q 47.40625 15.53125 47.40625 23.390625 
Q 47.40625 31.296875 43.53125 35.828125 
Q 39.65625 40.375 33.015625 40.375 
z
M 52.59375 71.296875 
L 52.59375 62.3125 
Q 48.875 64.0625 45.09375 64.984375 
Q 41.3125 65.921875 37.59375 65.921875 
Q 27.828125 65.921875 22.671875 59.328125 
Q 17.53125 52.734375 16.796875 39.40625 
Q 19.671875 43.65625 24.015625 45.921875 
Q 28.375 48.1875 33.59375 48.1875 
Q 44.578125 48.1875 50.953125 41.515625 
Q 57.328125 34.859375 57.328125 23.390625 
Q 57.328125 12.15625 50.6875 5.359375 
Q 44.046875 -1.421875 33.015625 -1.421875 
Q 20.359375 -1.421875 13.671875 8.265625 
Q 6.984375 17.96875 6.984375 36.375 
Q 6.984375 53.65625 15.1875 63.9375 
Q 23.390625 74.21875 37.203125 74.21875 
Q 40.921875 74.21875 44.703125 73.484375 
Q 48.484375 72.75 52.59375 71.296875 
z
" id="DejaVuSans-36"/>
      </defs>
      <g transform="translate(44.2375 223.255219)scale(0.1 -0.1)">
       <use xlink:href="#DejaVuSans-36"/>
      </g>
     </g>
    </g>
    <g id="ytick_4">
     <g id="line2d_9">
      <g>
       <use style="stroke:#000000;stroke-width:0.8;" x="57.6" xlink:href="#m2e99ef95cf" y="184.896"/>
      </g>
     </g>
     <g id="text_9">
      <!-- 7 -->
      <defs>
       <path d="M 8.203125 72.90625 
L 55.078125 72.90625 
L 55.078125 68.703125 
L 28.609375 0 
L 18.3125 0 
L 43.21875 64.59375 
L 8.203125 64.59375 
z
" id="DejaVuSans-37"/>
      </defs>
      <g transform="translate(44.2375 188.695219)scale(0.1 -0.1)">
       <use xlink:href="#DejaVuSans-37"/>
      </g>
     </g>
    </g>
    <g id="ytick_5">
     <g id="line2d_10">
      <g>
       <use style="stroke:#000000;stroke-width:0.8;" x="57.6" xlink:href="#m2e99ef95cf" y="150.336"/>
      </g>
     </g>
     <g id="text_10">
      <!-- 8 -->
      <defs>
       <path d="M 31.78125 34.625 
Q 24.75 34.625 20.71875 30.859375 
Q 16.703125 27.09375 16.703125 20.515625 
Q 16.703125 13.921875 20.71875 10.15625 
Q 24.75 6.390625 31.78125 6.390625 
Q 38.8125 6.390625 42.859375 10.171875 
Q 46.921875 13.96875 46.921875 20.515625 
Q 46.921875 27.09375 42.890625 30.859375 
Q 38.875 34.625 31.78125 34.625 
z
M 21.921875 38.8125 
Q 15.578125 40.375 12.03125 44.71875 
Q 8.5 49.078125 8.5 55.328125 
Q 8.5 64.0625 14.71875 69.140625 
Q 20.953125 74.21875 31.78125 74.21875 
Q 42.671875 74.21875 48.875 69.140625 
Q 55.078125 64.0625 55.078125 55.328125 
Q 55.078125 49.078125 51.53125 44.71875 
Q 48 40.375 41.703125 38.8125 
Q 48.828125 37.15625 52.796875 32.3125 
Q 56.78125 27.484375 56.78125 20.515625 
Q 56.78125 9.90625 50.3125 4.234375 
Q 43.84375 -1.421875 31.78125 -1.421875 
Q 19.734375 -1.421875 13.25 4.234375 
Q 6.78125 9.90625 6.78125 20.515625 
Q 6.78125 27.484375 10.78125 32.3125 
Q 14.796875 37.15625 21.921875 38.8125 
z
M 18.3125 54.390625 
Q 18.3125 48.734375 21.84375 45.5625 
Q 25.390625 42.390625 31.78125 42.390625 
Q 38.140625 42.390625 41.71875 45.5625 
Q 45.3125 48.734375 45.3125 54.390625 
Q 45.3125 60.0625 41.71875 63.234375 
Q 38.140625 66.40625 31.78125 66.40625 
Q 25.390625 66.40625 21.84375 63.234375 
Q 18.3125 60.0625 18.3125 54.390625 
z
" id="DejaVuSans-38"/>
      </defs>
      <g transform="translate(44.2375 154.135219)scale(0.1 -0.1)">
       <use xlink:href="#DejaVuSans-38"/>
      </g>
     </g>
    </g>
    <g id="ytick_6">
     <g id="line2d_11">
      <g>
       <use style="stroke:#000000;stroke-width:0.8;" x="57.6" xlink:href="#m2e99ef95cf" y="115.776"/>
      </g>
     </g>
     <g id="text_11">
      <!-- 9 -->
      <defs>
       <path d="M 10.984375 1.515625 
L 10.984375 10.5 
Q 14.703125 8.734375 18.5 7.8125 
Q 22.3125 6.890625 25.984375 6.890625 
Q 35.75 6.890625 40.890625 13.453125 
Q 46.046875 20.015625 46.78125 33.40625 
Q 43.953125 29.203125 39.59375 26.953125 
Q 35.25 24.703125 29.984375 24.703125 
Q 19.046875 24.703125 12.671875 31.3125 
Q 6.296875 37.9375 6.296875 49.421875 
Q 6.296875 60.640625 12.9375 67.421875 
Q 19.578125 74.21875 30.609375 74.21875 
Q 43.265625 74.21875 49.921875 64.515625 
Q 56.59375 54.828125 56.59375 36.375 
Q 56.59375 19.140625 48.40625 8.859375 
Q 40.234375 -1.421875 26.421875 -1.421875 
Q 22.703125 -1.421875 18.890625 -0.6875 
Q 15.09375 0.046875 10.984375 1.515625 
z
M 30.609375 32.421875 
Q 37.25 32.421875 41.125 36.953125 
Q 45.015625 41.5 45.015625 49.421875 
Q 45.015625 57.28125 41.125 61.84375 
Q 37.25 66.40625 30.609375 66.40625 
Q 23.96875 66.40625 20.09375 61.84375 
Q 16.21875 57.28125 16.21875 49.421875 
Q 16.21875 41.5 20.09375 36.953125 
Q 23.96875 32.421875 30.609375 32.421875 
z
" id="DejaVuSans-39"/>
      </defs>
      <g transform="translate(44.2375 119.575219)scale(0.1 -0.1)">
       <use xlink:href="#DejaVuSans-39"/>
      </g>
     </g>
    </g>
    <g id="ytick_7">
     <g id="line2d_12">
      <g>
       <use style="stroke:#000000;stroke-width:0.8;" x="57.6" xlink:href="#m2e99ef95cf" y="81.216"/>
      </g>
     </g>
     <g id="text_12">
      <!-- 10 -->
      <g transform="translate(37.875 85.015219)scale(0.1 -0.1)">
       <use xlink:href="#DejaVuSans-31"/>
       <use x="63.623047" xlink:href="#DejaVuSans-30"/>
      </g>
     </g>
    </g>
    <g id="ytick_8">
     <g id="line2d_13">
      <g>
       <use style="stroke:#000000;stroke-width:0.8;" x="57.6" xlink:href="#m2e99ef95cf" y="46.656"/>
      </g>
     </g>
     <g id="text_13">
      <!-- 11 -->
      <g transform="translate(37.875 50.455219)scale(0.1 -0.1)">
       <use xlink:href="#DejaVuSans-31"/>
       <use x="63.623047" xlink:href="#DejaVuSans-31"/>
      </g>
     </g>
    </g>
   </g>
   <g id="line2d_14">
    <path clip-path="url(#p1aa970b62c)" d="M 73.832727 167.616 
L 74.585986 177.984 
L 75.339245 167.616 
L 76.092504 171.072 
L 76.845762 171.072 
L 77.599021 177.984 
L 78.35228 167.616 
L 79.105539 167.616 
L 79.858798 177.984 
L 81.365315 164.16 
L 82.118574 153.792 
L 82.871833 139.968 
L 83.625092 133.056 
L 84.378351 129.6 
L 85.131609 119.232 
L 85.884868 115.776 
L 86.638127 105.408 
L 87.391386 101.952 
L 88.897903 88.128 
L 89.651162 88.128 
L 91.15768 67.392 
L 91.910939 53.568 
L 92.664197 53.568 
L 93.417456 67.392 
L 94.170715 67.392 
L 96.430491 77.76 
L 97.18375 77.76 
L 97.937009 101.952 
L 98.690268 98.496 
L 99.443527 108.864 
L 100.196785 122.688 
L 100.950044 133.056 
L 101.703303 139.968 
L 102.456562 150.336 
L 103.209821 157.248 
L 103.96308 157.248 
L 104.716338 160.704 
L 105.469597 171.072 
L 106.222856 177.984 
L 106.976115 167.616 
L 107.729374 167.616 
L 108.482632 174.528 
L 109.235891 171.072 
L 109.98915 177.984 
L 110.742409 174.528 
L 111.495668 174.528 
L 112.248926 177.984 
L 113.002185 177.984 
L 113.755444 174.528 
L 114.508703 177.984 
L 115.261962 171.072 
L 116.01522 171.072 
L 116.768479 181.44 
L 118.274997 181.44 
L 119.028256 184.896 
L 119.781514 184.896 
L 120.534773 195.264 
L 121.288032 177.984 
L 122.041291 177.984 
L 122.79455 181.44 
L 123.547808 177.984 
L 124.301067 177.984 
L 125.054326 184.896 
L 125.807585 188.352 
L 126.560844 184.896 
L 127.314103 184.896 
L 128.067361 188.352 
L 128.82062 198.72 
L 131.080397 198.72 
L 131.833655 209.088 
L 132.586914 209.088 
L 135.599949 222.912 
L 136.353208 219.456 
L 137.106467 226.368 
L 137.859726 229.824 
L 140.119502 229.824 
L 140.872761 240.192 
L 141.62602 233.28 
L 142.379279 240.192 
L 143.132537 240.192 
L 143.885796 233.28 
L 144.639055 240.192 
L 145.392314 240.192 
L 146.145573 243.648 
L 146.898831 243.648 
L 147.65209 240.192 
L 149.158608 254.016 
L 149.911867 247.104 
L 150.665126 247.104 
L 151.418384 243.648 
L 152.171643 247.104 
L 152.924902 247.104 
L 153.678161 243.648 
L 154.43142 243.648 
L 155.184678 240.192 
L 156.691196 240.192 
L 158.197714 247.104 
L 158.950972 240.192 
L 159.704231 240.192 
L 160.45749 247.104 
L 161.210749 236.736 
L 162.717266 222.912 
L 163.470525 222.912 
L 164.223784 212.544 
L 165.730302 205.632 
L 167.236819 191.808 
L 167.990078 195.264 
L 168.743337 188.352 
L 169.496596 188.352 
L 170.249854 191.808 
L 171.003113 188.352 
L 171.756372 188.352 
L 172.509631 184.896 
L 173.26289 184.896 
L 174.016148 174.528 
L 174.769407 174.528 
L 175.522666 171.072 
L 177.029184 171.072 
L 178.535701 157.248 
L 180.042219 164.16 
L 180.795478 164.16 
L 181.548737 174.528 
L 182.301995 171.072 
L 183.055254 171.072 
L 183.808513 174.528 
L 184.561772 181.44 
L 185.315031 184.896 
L 186.068289 181.44 
L 186.821548 181.44 
L 189.834583 195.264 
L 190.587842 191.808 
L 191.341101 198.72 
L 192.09436 202.176 
L 192.847619 198.72 
L 193.600877 198.72 
L 195.107395 205.632 
L 195.860654 216 
L 197.367171 216 
L 199.626948 226.368 
L 200.380207 233.28 
L 201.133466 236.736 
L 201.886724 233.28 
L 202.639983 240.192 
L 203.393242 240.192 
L 204.146501 226.368 
L 204.89976 233.28 
L 205.653018 233.28 
L 206.406277 229.824 
L 207.159536 229.824 
L 208.666054 236.736 
L 209.419312 233.28 
L 210.92583 233.28 
L 211.679089 236.736 
L 212.432348 236.736 
L 213.185606 233.28 
L 213.938865 233.28 
L 214.692124 243.648 
L 215.445383 236.736 
L 216.198642 250.56 
L 216.9519 247.104 
L 217.705159 247.104 
L 218.458418 240.192 
L 219.211677 240.192 
L 220.718194 247.104 
L 221.471453 247.104 
L 222.224712 250.56 
L 222.977971 257.472 
L 223.73123 254.016 
L 225.237747 260.928 
L 225.991006 257.472 
L 226.744265 264.384 
L 227.497524 267.84 
L 228.250783 264.384 
L 229.004041 267.84 
L 229.7573 267.84 
L 230.510559 264.384 
L 231.263818 278.208 
L 232.770335 271.296 
L 234.276853 271.296 
L 235.030112 267.84 
L 236.536629 274.752 
L 237.289888 274.752 
L 238.043147 278.208 
L 238.796406 274.752 
L 239.549665 281.664 
L 240.302923 278.208 
L 241.056182 281.664 
L 241.809441 278.208 
L 242.5627 278.208 
L 243.315959 281.664 
L 244.069217 281.664 
L 244.822476 285.12 
L 245.575735 285.12 
L 246.328994 288.576 
L 247.082253 288.576 
L 247.835511 285.12 
L 248.58877 288.576 
L 249.342029 295.488 
L 250.095288 288.576 
L 251.601806 288.576 
L 252.355064 285.12 
L 253.108323 292.032 
L 255.3681 292.032 
L 256.121358 281.664 
L 256.874617 281.664 
L 258.381135 274.752 
L 259.134394 278.208 
L 259.887652 271.296 
L 260.640911 267.84 
L 261.39417 257.472 
L 262.147429 254.016 
L 262.900688 243.648 
L 264.407205 229.824 
L 266.666982 229.824 
L 267.42024 222.912 
L 268.173499 226.368 
L 269.680017 226.368 
L 270.433276 229.824 
L 271.939793 229.824 
L 272.693052 222.912 
L 273.446311 219.456 
L 274.19957 226.368 
L 274.952829 222.912 
L 275.706087 222.912 
L 277.212605 216 
L 277.965864 209.088 
L 279.472381 216 
L 280.22564 216 
L 280.978899 219.456 
L 281.732158 226.368 
L 282.485417 229.824 
L 283.238675 229.824 
L 283.991934 233.28 
L 284.745193 226.368 
L 285.498452 233.28 
L 287.004969 233.28 
L 288.511487 240.192 
L 289.264746 240.192 
L 290.018005 236.736 
L 290.771263 240.192 
L 291.524522 240.192 
L 292.277781 243.648 
L 293.03104 240.192 
L 293.784299 247.104 
L 294.537557 247.104 
L 296.044075 254.016 
L 296.797334 254.016 
L 297.550593 257.472 
L 298.303852 254.016 
L 299.810369 254.016 
L 300.563628 257.472 
L 301.316887 264.384 
L 302.070146 260.928 
L 302.823404 264.384 
L 303.576663 264.384 
L 304.329922 267.84 
L 305.083181 267.84 
L 305.83644 264.384 
L 306.589698 264.384 
L 307.342957 271.296 
L 308.096216 274.752 
L 308.849475 271.296 
L 309.602734 274.752 
L 310.355992 267.84 
L 311.86251 274.752 
L 312.615769 271.296 
L 313.369028 274.752 
L 314.122286 267.84 
L 314.875545 264.384 
L 315.628804 267.84 
L 316.382063 264.384 
L 317.88858 264.384 
L 318.641839 254.016 
L 319.395098 254.016 
L 320.148357 257.472 
L 320.901616 250.56 
L 321.654874 254.016 
L 322.408133 240.192 
L 323.914651 226.368 
L 324.66791 216 
L 325.421169 216 
L 326.174427 202.176 
L 326.927686 191.808 
L 329.187463 139.968 
L 329.940721 126.144 
L 330.69398 115.776 
L 331.447239 101.952 
L 332.200498 98.496 
L 332.953757 98.496 
L 333.707015 95.04 
L 335.213533 81.216 
L 335.966792 84.672 
L 336.720051 84.672 
L 337.473309 88.128 
L 338.226568 88.128 
L 338.979827 84.672 
L 339.733086 84.672 
L 340.486345 95.04 
L 341.239603 101.952 
L 341.992862 101.952 
L 342.746121 98.496 
L 343.49938 98.496 
L 344.252639 101.952 
L 345.005897 88.128 
L 345.759156 105.408 
L 346.512415 112.32 
L 347.265674 115.776 
L 348.018933 115.776 
L 348.772192 112.32 
L 349.52545 115.776 
L 350.278709 112.32 
L 351.031968 115.776 
L 352.538486 115.776 
L 354.045003 129.6 
L 354.798262 133.056 
L 355.551521 139.968 
L 356.30478 139.968 
L 357.058038 143.424 
L 360.071074 143.424 
L 360.824332 146.88 
L 361.577591 157.248 
L 362.33085 157.248 
L 363.084109 160.704 
L 363.837368 153.792 
L 364.590626 150.336 
L 365.343885 160.704 
L 366.097144 167.616 
L 366.850403 164.16 
L 367.603662 167.616 
L 368.35692 167.616 
L 369.110179 174.528 
L 369.863438 177.984 
L 371.369956 177.984 
L 372.123215 188.352 
L 372.876473 195.264 
L 373.629732 198.72 
L 374.382991 195.264 
L 375.13625 195.264 
L 375.889509 209.088 
L 376.642767 209.088 
L 377.396026 216 
L 378.149285 212.544 
L 378.902544 212.544 
L 379.655803 222.912 
L 380.409061 229.824 
L 381.16232 226.368 
L 381.915579 233.28 
L 382.668838 229.824 
L 383.422097 236.736 
L 384.175355 236.736 
L 384.928614 240.192 
L 385.681873 236.736 
L 386.435132 243.648 
L 388.694908 254.016 
L 390.954685 254.016 
L 391.707943 257.472 
L 392.461202 257.472 
L 393.214461 254.016 
L 393.96772 254.016 
L 394.720979 264.384 
L 395.474238 257.472 
L 396.980755 257.472 
L 397.734014 254.016 
L 398.487273 257.472 
L 398.487273 257.472 
" style="fill:none;opacity:0.6;stroke:#1f77b4;stroke-linecap:square;stroke-width:0.5;"/>
   </g>
   <g id="line2d_15">
    <path clip-path="url(#p1aa970b62c)" d="M 73.832727 183.471875 
L 74.585986 172.075136 
L 75.339245 167.528725 
L 76.092504 167.183875 
L 76.845762 167.919832 
L 77.599021 168.048653 
L 78.35228 166.60383 
L 79.105539 163.841142 
L 79.858798 160.185908 
L 81.365315 151.250727 
L 82.871833 139.911831 
L 85.131609 121.401374 
L 89.651162 75.037311 
L 90.404421 68.705659 
L 91.15768 63.558191 
L 91.910939 59.646059 
L 92.664197 57.079806 
L 93.417456 56.366442 
L 94.170715 57.87359 
L 94.923974 61.708236 
L 95.677233 67.247818 
L 97.18375 80.820097 
L 101.703303 124.72064 
L 103.209821 139.568761 
L 104.716338 151.594374 
L 105.469597 156.194064 
L 106.222856 159.473335 
L 106.976115 161.378034 
L 107.729374 161.826244 
L 108.482632 161.027021 
L 109.235891 157.212694 
L 109.98915 185.553416 
L 110.742409 181.121521 
L 114.508703 164.657602 
L 115.261962 163.193102 
L 116.01522 162.903426 
L 116.768479 163.432434 
L 118.274997 165.173311 
L 119.781514 166.068757 
L 121.288032 167.823015 
L 122.041291 169.29119 
L 122.79455 171.53774 
L 124.301067 176.73791 
L 125.807585 181.463289 
L 126.560844 183.510157 
L 127.314103 184.76278 
L 128.067361 187.034329 
L 129.573879 193.236551 
L 130.327138 195.107979 
L 131.080397 195.924505 
L 131.833655 196.451535 
L 132.586914 195.730557 
L 133.340173 198.489785 
L 134.846691 206.576206 
L 135.599949 208.747708 
L 137.859726 212.528302 
L 138.612985 213.180774 
L 140.872761 214.51324 
L 141.62602 214.452645 
L 142.379279 216.842682 
L 143.885796 223.17257 
L 144.639055 225.537921 
L 145.392314 224.740215 
L 146.145573 188.768516 
L 146.898831 196.420883 
L 148.405349 223.355344 
L 149.158608 233.006378 
L 149.911867 238.77036 
L 150.665126 241.392561 
L 151.418384 241.969096 
L 152.171643 241.105867 
L 152.924902 239.507175 
L 153.678161 237.485982 
L 155.184678 232.500836 
L 155.937937 230.51163 
L 157.444455 227.267807 
L 158.950972 223.515542 
L 159.704231 222.281771 
L 160.45749 221.530686 
L 161.210749 221.140056 
L 161.964008 220.18558 
L 162.717266 218.202339 
L 163.470525 213.588971 
L 166.48356 189.396154 
L 168.743337 175.38613 
L 169.496596 171.847934 
L 170.249854 169.111514 
L 171.003113 166.835795 
L 171.756372 165.043321 
L 173.26289 163.005598 
L 174.769407 161.41836 
L 175.522666 159.69594 
L 177.029184 158.110036 
L 177.782443 158.557174 
L 180.042219 159.039199 
L 180.795478 159.089231 
L 181.548737 158.242069 
L 182.301995 208.940255 
L 183.055254 200.840205 
L 183.808513 182.163881 
L 184.561772 173.124715 
L 185.315031 169.67124 
L 186.068289 170.579622 
L 187.574807 175.508985 
L 188.328066 177.348739 
L 189.081325 178.739888 
L 189.834583 179.09184 
L 192.09436 188.743368 
L 195.107395 197.24087 
L 196.613913 202.399462 
L 200.380207 215.48703 
L 201.886724 219.534311 
L 203.393242 222.614855 
L 204.146501 223.278616 
L 204.89976 223.278698 
L 206.406277 224.647749 
L 207.159536 225.275205 
L 207.912795 224.990555 
L 208.666054 224.829353 
L 212.432348 225.963982 
L 213.185606 226.136605 
L 213.938865 226.568664 
L 215.445383 226.539347 
L 216.198642 226.612038 
L 216.9519 226.517133 
L 217.705159 226.927653 
L 218.458418 209.460463 
L 219.211677 205.259313 
L 219.964936 209.90419 
L 221.471453 233.503861 
L 222.224712 240.804144 
L 222.977971 244.887284 
L 223.73123 247.449895 
L 224.484489 249.127622 
L 225.237747 250.405788 
L 228.250783 253.660653 
L 229.004041 254.190831 
L 229.7573 254.560466 
L 230.510559 254.727996 
L 231.263818 254.709375 
L 232.017077 254.565871 
L 232.770335 254.71127 
L 233.523594 254.323919 
L 235.030112 252.835508 
L 235.783371 254.758632 
L 238.043147 264.292348 
L 239.549665 269.022802 
L 240.302923 274.46321 
L 241.056182 274.826435 
L 242.5627 273.868383 
L 243.315959 273.713986 
L 244.822476 282.945221 
L 245.575735 285.890947 
L 246.328994 287.76394 
L 247.082253 288.81398 
L 247.835511 289.364123 
L 248.58877 289.541072 
L 249.342029 289.532074 
L 250.095288 288.733659 
L 250.848547 288.448004 
L 252.355064 288.948799 
L 253.108323 288.190759 
L 253.861582 283.2787 
L 254.614841 234.202624 
L 255.3681 250.619725 
L 256.874617 266.561508 
L 257.627876 272.29703 
L 258.381135 276.16162 
L 259.134394 276.519455 
L 259.887652 272.923251 
L 260.640911 265.950498 
L 261.39417 257.579525 
L 262.147429 250.483324 
L 262.900688 245.463836 
L 263.653946 241.642044 
L 264.407205 234.823852 
L 265.160464 233.637114 
L 265.913723 231.033931 
L 266.666982 229.122656 
L 267.42024 229.447681 
L 268.173499 230.166813 
L 268.926758 229.306369 
L 269.680017 226.777492 
L 270.433276 229.583587 
L 271.939793 224.64994 
L 272.693052 225.560218 
L 273.446311 221.429947 
L 274.19957 221.240564 
L 274.952829 225.165716 
L 275.706087 222.171326 
L 276.459346 220.300574 
L 277.212605 215.84826 
L 277.965864 217.1434 
L 279.472381 222.746427 
L 280.22564 224.506289 
L 281.732158 232.594835 
L 282.485417 232.063487 
L 283.238675 229.156192 
L 283.991934 229.556792 
L 284.745193 231.089384 
L 286.251711 236.660095 
L 287.004969 237.656726 
L 287.758228 238.441677 
L 288.511487 236.211046 
L 289.264746 243.699854 
L 290.018005 238.217473 
L 290.771263 236.684337 
L 291.524522 243.93912 
L 292.277781 239.124571 
L 293.03104 235.172821 
L 293.784299 238.908294 
L 294.537557 248.868367 
L 295.290816 248.937614 
L 296.044075 254.506117 
L 296.797334 255.533053 
L 297.550593 253.187197 
L 298.303852 251.228856 
L 299.05711 251.566587 
L 299.810369 253.18662 
L 300.563628 256.190403 
L 302.070146 265.958342 
L 302.823404 269.672556 
L 303.576663 268.14695 
L 304.329922 261.3148 
L 305.083181 260.667024 
L 305.83644 258.526173 
L 306.589698 259.523891 
L 307.342957 263.999293 
L 308.096216 269.657098 
L 308.849475 273.64881 
L 309.602734 275.641378 
L 310.355992 276.515434 
L 311.109251 276.620425 
L 311.86251 275.418081 
L 313.369028 267.327656 
L 314.122286 265.106715 
L 315.628804 265.382417 
L 316.382063 264.687823 
L 317.135322 260.702472 
L 317.88858 255.183209 
L 318.641839 254.347469 
L 319.395098 256.113922 
L 320.148357 255.831397 
L 320.901616 251.505976 
L 323.161392 230.241712 
L 323.914651 225.780203 
L 324.66791 223.646438 
L 325.421169 222.8838 
L 326.174427 223.861578 
L 326.927686 220.405911 
L 327.680945 211.759599 
L 329.940721 125.527707 
L 330.69398 112.699839 
L 331.447239 104.658704 
L 332.200498 90.094195 
L 332.953757 81.336597 
L 333.707015 82.415641 
L 334.460274 83.115525 
L 335.213533 83.038072 
L 335.966792 80.619409 
L 336.720051 77.541073 
L 337.473309 77.636358 
L 338.226568 79.079401 
L 338.979827 79.966063 
L 339.733086 81.844495 
L 341.239603 88.272815 
L 342.746121 91.527515 
L 344.252639 91.48335 
L 346.512415 97.527434 
L 348.018933 101.575259 
L 348.772192 102.424975 
L 349.52545 104.048073 
L 351.031968 108.650333 
L 352.538486 112.333203 
L 353.291744 114.800414 
L 354.798262 122.93568 
L 356.30478 128.258227 
L 357.811297 131.355712 
L 359.317815 138.016294 
L 360.071074 140.930791 
L 360.824332 142.824087 
L 361.577591 141.326035 
L 362.33085 140.803273 
L 363.084109 186.214112 
L 363.837368 180.408898 
L 366.097144 171.295607 
L 366.850403 169.191802 
L 367.603662 169.055615 
L 368.35692 169.922305 
L 369.110179 170.375474 
L 369.863438 171.252134 
L 370.616697 172.928725 
L 371.369956 175.045202 
L 372.876473 180.401383 
L 376.642767 195.154088 
L 381.16232 216.410524 
L 383.422097 228.314419 
L 384.175355 231.355116 
L 384.928614 233.280415 
L 387.188391 236.918016 
L 390.201426 245.15791 
L 390.954685 245.77047 
L 391.707943 245.658475 
L 393.96772 244.511074 
L 394.720979 244.672935 
L 395.474238 245.536494 
L 396.980755 247.586691 
L 397.734014 246.820197 
L 398.487273 235.748845 
L 398.487273 235.748845 
" style="fill:none;opacity:0.6;stroke:#ff7f0e;stroke-linecap:square;stroke-width:0.5;"/>
   </g>
   <g id="line2d_16">
    <path clip-path="url(#p1aa970b62c)" d="M 363.084109 184.474488 
L 363.837368 175.530639 
L 364.590626 170.411499 
L 366.097144 162.183684 
L 367.603662 151.177311 
L 369.110179 138.943529 
L 369.863438 132.047125 
L 371.369956 115.311476 
L 372.123215 108.244674 
L 372.876473 103.478146 
L 373.629732 101.133708 
L 374.382991 100.052323 
L 375.889509 99.136459 
L 377.396026 96.699768 
L 378.149285 96.470572 
L 378.902544 97.632442 
L 379.655803 100.277038 
L 380.409061 104.473178 
L 381.915579 115.099583 
L 383.422097 127.332508 
L 384.175355 132.43881 
L 386.435132 144.49814 
L 387.188391 146.652899 
L 387.941649 147.564116 
L 388.694908 146.558076 
L 389.448167 143.418437 
L 390.954685 136.054279 
L 391.707943 134.077135 
L 393.214461 130.752398 
L 393.96772 130.621188 
L 394.720979 131.505115 
L 395.474238 131.760943 
L 396.227496 131.399877 
L 396.980755 130.45903 
L 397.734014 124.481852 
L 398.487273 107.253367 
L 398.487273 107.253367 
" style="fill:none;opacity:0.6;stroke:#2ca02c;stroke-linecap:square;stroke-width:0.5;"/>
   </g>
   <g id="patch_3">
    <path d="M 57.6 307.584 
L 57.6 41.472 
" style="fill:none;stroke:#000000;stroke-linecap:square;stroke-linejoin:miter;stroke-width:0.8;"/>
   </g>
   <g id="patch_4">
    <path d="M 414.72 307.584 
L 414.72 41.472 
" style="fill:none;stroke:#000000;stroke-linecap:square;stroke-linejoin:miter;stroke-width:0.8;"/>
   </g>
   <g id="patch_5">
    <path d="M 57.6 307.584 
L 414.72 307.584 
" style="fill:none;stroke:#000000;stroke-linecap:square;stroke-linejoin:miter;stroke-width:0.8;"/>
   </g>
   <g id="patch_6">
    <path d="M 57.6 41.472 
L 414.72 41.472 
" style="fill:none;stroke:#000000;stroke-linecap:square;stroke-linejoin:miter;stroke-width:0.8;"/>
   </g>
   <g id="text_14">
    <!-- Model Training Result: 2018_07_14_1531619499 with epochs 1000 -->
    <defs>
     <path d="M 9.8125 72.90625 
L 24.515625 72.90625 
L 43.109375 23.296875 
L 61.8125 72.90625 
L 76.515625 72.90625 
L 76.515625 0 
L 66.890625 0 
L 66.890625 64.015625 
L 48.09375 14.015625 
L 38.1875 14.015625 
L 19.390625 64.015625 
L 19.390625 0 
L 9.8125 0 
z
" id="DejaVuSans-4d"/>
     <path d="M 30.609375 48.390625 
Q 23.390625 48.390625 19.1875 42.75 
Q 14.984375 37.109375 14.984375 27.296875 
Q 14.984375 17.484375 19.15625 11.84375 
Q 23.34375 6.203125 30.609375 6.203125 
Q 37.796875 6.203125 41.984375 11.859375 
Q 46.1875 17.53125 46.1875 27.296875 
Q 46.1875 37.015625 41.984375 42.703125 
Q 37.796875 48.390625 30.609375 48.390625 
z
M 30.609375 56 
Q 42.328125 56 49.015625 48.375 
Q 55.71875 40.765625 55.71875 27.296875 
Q 55.71875 13.875 49.015625 6.21875 
Q 42.328125 -1.421875 30.609375 -1.421875 
Q 18.84375 -1.421875 12.171875 6.21875 
Q 5.515625 13.875 5.515625 27.296875 
Q 5.515625 40.765625 12.171875 48.375 
Q 18.84375 56 30.609375 56 
z
" id="DejaVuSans-6f"/>
     <path d="M 45.40625 46.390625 
L 45.40625 75.984375 
L 54.390625 75.984375 
L 54.390625 0 
L 45.40625 0 
L 45.40625 8.203125 
Q 42.578125 3.328125 38.25 0.953125 
Q 33.9375 -1.421875 27.875 -1.421875 
Q 17.96875 -1.421875 11.734375 6.484375 
Q 5.515625 14.40625 5.515625 27.296875 
Q 5.515625 40.1875 11.734375 48.09375 
Q 17.96875 56 27.875 56 
Q 33.9375 56 38.25 53.625 
Q 42.578125 51.265625 45.40625 46.390625 
z
M 14.796875 27.296875 
Q 14.796875 17.390625 18.875 11.75 
Q 22.953125 6.109375 30.078125 6.109375 
Q 37.203125 6.109375 41.296875 11.75 
Q 45.40625 17.390625 45.40625 27.296875 
Q 45.40625 37.203125 41.296875 42.84375 
Q 37.203125 48.484375 30.078125 48.484375 
Q 22.953125 48.484375 18.875 42.84375 
Q 14.796875 37.203125 14.796875 27.296875 
z
" id="DejaVuSans-64"/>
     <path d="M 56.203125 29.59375 
L 56.203125 25.203125 
L 14.890625 25.203125 
Q 15.484375 15.921875 20.484375 11.0625 
Q 25.484375 6.203125 34.421875 6.203125 
Q 39.59375 6.203125 44.453125 7.46875 
Q 49.3125 8.734375 54.109375 11.28125 
L 54.109375 2.78125 
Q 49.265625 0.734375 44.1875 -0.34375 
Q 39.109375 -1.421875 33.890625 -1.421875 
Q 20.796875 -1.421875 13.15625 6.1875 
Q 5.515625 13.8125 5.515625 26.8125 
Q 5.515625 40.234375 12.765625 48.109375 
Q 20.015625 56 32.328125 56 
Q 43.359375 56 49.78125 48.890625 
Q 56.203125 41.796875 56.203125 29.59375 
z
M 47.21875 32.234375 
Q 47.125 39.59375 43.09375 43.984375 
Q 39.0625 48.390625 32.421875 48.390625 
Q 24.90625 48.390625 20.390625 44.140625 
Q 15.875 39.890625 15.1875 32.171875 
z
" id="DejaVuSans-65"/>
     <path d="M 9.421875 75.984375 
L 18.40625 75.984375 
L 18.40625 0 
L 9.421875 0 
z
" id="DejaVuSans-6c"/>
     <path id="DejaVuSans-20"/>
     <path d="M -0.296875 72.90625 
L 61.375 72.90625 
L 61.375 64.59375 
L 35.5 64.59375 
L 35.5 0 
L 25.59375 0 
L 25.59375 64.59375 
L -0.296875 64.59375 
z
" id="DejaVuSans-54"/>
     <path d="M 41.109375 46.296875 
Q 39.59375 47.171875 37.8125 47.578125 
Q 36.03125 48 33.890625 48 
Q 26.265625 48 22.1875 43.046875 
Q 18.109375 38.09375 18.109375 28.8125 
L 18.109375 0 
L 9.078125 0 
L 9.078125 54.6875 
L 18.109375 54.6875 
L 18.109375 46.1875 
Q 20.953125 51.171875 25.484375 53.578125 
Q 30.03125 56 36.53125 56 
Q 37.453125 56 38.578125 55.875 
Q 39.703125 55.765625 41.0625 55.515625 
z
" id="DejaVuSans-72"/>
     <path d="M 34.28125 27.484375 
Q 23.390625 27.484375 19.1875 25 
Q 14.984375 22.515625 14.984375 16.5 
Q 14.984375 11.71875 18.140625 8.90625 
Q 21.296875 6.109375 26.703125 6.109375 
Q 34.1875 6.109375 38.703125 11.40625 
Q 43.21875 16.703125 43.21875 25.484375 
L 43.21875 27.484375 
z
M 52.203125 31.203125 
L 52.203125 0 
L 43.21875 0 
L 43.21875 8.296875 
Q 40.140625 3.328125 35.546875 0.953125 
Q 30.953125 -1.421875 24.3125 -1.421875 
Q 15.921875 -1.421875 10.953125 3.296875 
Q 6 8.015625 6 15.921875 
Q 6 25.140625 12.171875 29.828125 
Q 18.359375 34.515625 30.609375 34.515625 
L 43.21875 34.515625 
L 43.21875 35.40625 
Q 43.21875 41.609375 39.140625 45 
Q 35.0625 48.390625 27.6875 48.390625 
Q 23 48.390625 18.546875 47.265625 
Q 14.109375 46.140625 10.015625 43.890625 
L 10.015625 52.203125 
Q 14.9375 54.109375 19.578125 55.046875 
Q 24.21875 56 28.609375 56 
Q 40.484375 56 46.34375 49.84375 
Q 52.203125 43.703125 52.203125 31.203125 
z
" id="DejaVuSans-61"/>
     <path d="M 9.421875 54.6875 
L 18.40625 54.6875 
L 18.40625 0 
L 9.421875 0 
z
M 9.421875 75.984375 
L 18.40625 75.984375 
L 18.40625 64.59375 
L 9.421875 64.59375 
z
" id="DejaVuSans-69"/>
     <path d="M 54.890625 33.015625 
L 54.890625 0 
L 45.90625 0 
L 45.90625 32.71875 
Q 45.90625 40.484375 42.875 44.328125 
Q 39.84375 48.1875 33.796875 48.1875 
Q 26.515625 48.1875 22.3125 43.546875 
Q 18.109375 38.921875 18.109375 30.90625 
L 18.109375 0 
L 9.078125 0 
L 9.078125 54.6875 
L 18.109375 54.6875 
L 18.109375 46.1875 
Q 21.34375 51.125 25.703125 53.5625 
Q 30.078125 56 35.796875 56 
Q 45.21875 56 50.046875 50.171875 
Q 54.890625 44.34375 54.890625 33.015625 
z
" id="DejaVuSans-6e"/>
     <path d="M 45.40625 27.984375 
Q 45.40625 37.75 41.375 43.109375 
Q 37.359375 48.484375 30.078125 48.484375 
Q 22.859375 48.484375 18.828125 43.109375 
Q 14.796875 37.75 14.796875 27.984375 
Q 14.796875 18.265625 18.828125 12.890625 
Q 22.859375 7.515625 30.078125 7.515625 
Q 37.359375 7.515625 41.375 12.890625 
Q 45.40625 18.265625 45.40625 27.984375 
z
M 54.390625 6.78125 
Q 54.390625 -7.171875 48.1875 -13.984375 
Q 42 -20.796875 29.203125 -20.796875 
Q 24.46875 -20.796875 20.265625 -20.09375 
Q 16.0625 -19.390625 12.109375 -17.921875 
L 12.109375 -9.1875 
Q 16.0625 -11.328125 19.921875 -12.34375 
Q 23.78125 -13.375 27.78125 -13.375 
Q 36.625 -13.375 41.015625 -8.765625 
Q 45.40625 -4.15625 45.40625 5.171875 
L 45.40625 9.625 
Q 42.625 4.78125 38.28125 2.390625 
Q 33.9375 0 27.875 0 
Q 17.828125 0 11.671875 7.65625 
Q 5.515625 15.328125 5.515625 27.984375 
Q 5.515625 40.671875 11.671875 48.328125 
Q 17.828125 56 27.875 56 
Q 33.9375 56 38.28125 53.609375 
Q 42.625 51.21875 45.40625 46.390625 
L 45.40625 54.6875 
L 54.390625 54.6875 
z
" id="DejaVuSans-67"/>
     <path d="M 44.390625 34.1875 
Q 47.5625 33.109375 50.5625 29.59375 
Q 53.5625 26.078125 56.59375 19.921875 
L 66.609375 0 
L 56 0 
L 46.6875 18.703125 
Q 43.0625 26.03125 39.671875 28.421875 
Q 36.28125 30.8125 30.421875 30.8125 
L 19.671875 30.8125 
L 19.671875 0 
L 9.8125 0 
L 9.8125 72.90625 
L 32.078125 72.90625 
Q 44.578125 72.90625 50.734375 67.671875 
Q 56.890625 62.453125 56.890625 51.90625 
Q 56.890625 45.015625 53.6875 40.46875 
Q 50.484375 35.9375 44.390625 34.1875 
z
M 19.671875 64.796875 
L 19.671875 38.921875 
L 32.078125 38.921875 
Q 39.203125 38.921875 42.84375 42.21875 
Q 46.484375 45.515625 46.484375 51.90625 
Q 46.484375 58.296875 42.84375 61.546875 
Q 39.203125 64.796875 32.078125 64.796875 
z
" id="DejaVuSans-52"/>
     <path d="M 44.28125 53.078125 
L 44.28125 44.578125 
Q 40.484375 46.53125 36.375 47.5 
Q 32.28125 48.484375 27.875 48.484375 
Q 21.1875 48.484375 17.84375 46.4375 
Q 14.5 44.390625 14.5 40.28125 
Q 14.5 37.15625 16.890625 35.375 
Q 19.28125 33.59375 26.515625 31.984375 
L 29.59375 31.296875 
Q 39.15625 29.25 43.1875 25.515625 
Q 47.21875 21.78125 47.21875 15.09375 
Q 47.21875 7.46875 41.1875 3.015625 
Q 35.15625 -1.421875 24.609375 -1.421875 
Q 20.21875 -1.421875 15.453125 -0.5625 
Q 10.6875 0.296875 5.421875 2 
L 5.421875 11.28125 
Q 10.40625 8.6875 15.234375 7.390625 
Q 20.0625 6.109375 24.8125 6.109375 
Q 31.15625 6.109375 34.5625 8.28125 
Q 37.984375 10.453125 37.984375 14.40625 
Q 37.984375 18.0625 35.515625 20.015625 
Q 33.0625 21.96875 24.703125 23.78125 
L 21.578125 24.515625 
Q 13.234375 26.265625 9.515625 29.90625 
Q 5.8125 33.546875 5.8125 39.890625 
Q 5.8125 47.609375 11.28125 51.796875 
Q 16.75 56 26.8125 56 
Q 31.78125 56 36.171875 55.265625 
Q 40.578125 54.546875 44.28125 53.078125 
z
" id="DejaVuSans-73"/>
     <path d="M 8.5 21.578125 
L 8.5 54.6875 
L 17.484375 54.6875 
L 17.484375 21.921875 
Q 17.484375 14.15625 20.5 10.265625 
Q 23.53125 6.390625 29.59375 6.390625 
Q 36.859375 6.390625 41.078125 11.03125 
Q 45.3125 15.671875 45.3125 23.6875 
L 45.3125 54.6875 
L 54.296875 54.6875 
L 54.296875 0 
L 45.3125 0 
L 45.3125 8.40625 
Q 42.046875 3.421875 37.71875 1 
Q 33.40625 -1.421875 27.6875 -1.421875 
Q 18.265625 -1.421875 13.375 4.4375 
Q 8.5 10.296875 8.5 21.578125 
z
M 31.109375 56 
z
" id="DejaVuSans-75"/>
     <path d="M 18.3125 70.21875 
L 18.3125 54.6875 
L 36.8125 54.6875 
L 36.8125 47.703125 
L 18.3125 47.703125 
L 18.3125 18.015625 
Q 18.3125 11.328125 20.140625 9.421875 
Q 21.96875 7.515625 27.59375 7.515625 
L 36.8125 7.515625 
L 36.8125 0 
L 27.59375 0 
Q 17.1875 0 13.234375 3.875 
Q 9.28125 7.765625 9.28125 18.015625 
L 9.28125 47.703125 
L 2.6875 47.703125 
L 2.6875 54.6875 
L 9.28125 54.6875 
L 9.28125 70.21875 
z
" id="DejaVuSans-74"/>
     <path d="M 11.71875 12.40625 
L 22.015625 12.40625 
L 22.015625 0 
L 11.71875 0 
z
M 11.71875 51.703125 
L 22.015625 51.703125 
L 22.015625 39.3125 
L 11.71875 39.3125 
z
" id="DejaVuSans-3a"/>
     <path d="M 50.984375 -16.609375 
L 50.984375 -23.578125 
L -0.984375 -23.578125 
L -0.984375 -16.609375 
z
" id="DejaVuSans-5f"/>
     <path d="M 4.203125 54.6875 
L 13.1875 54.6875 
L 24.421875 12.015625 
L 35.59375 54.6875 
L 46.1875 54.6875 
L 57.421875 12.015625 
L 68.609375 54.6875 
L 77.59375 54.6875 
L 63.28125 0 
L 52.6875 0 
L 40.921875 44.828125 
L 29.109375 0 
L 18.5 0 
z
" id="DejaVuSans-77"/>
     <path d="M 54.890625 33.015625 
L 54.890625 0 
L 45.90625 0 
L 45.90625 32.71875 
Q 45.90625 40.484375 42.875 44.328125 
Q 39.84375 48.1875 33.796875 48.1875 
Q 26.515625 48.1875 22.3125 43.546875 
Q 18.109375 38.921875 18.109375 30.90625 
L 18.109375 0 
L 9.078125 0 
L 9.078125 75.984375 
L 18.109375 75.984375 
L 18.109375 46.1875 
Q 21.34375 51.125 25.703125 53.5625 
Q 30.078125 56 35.796875 56 
Q 45.21875 56 50.046875 50.171875 
Q 54.890625 44.34375 54.890625 33.015625 
z
" id="DejaVuSans-68"/>
     <path d="M 18.109375 8.203125 
L 18.109375 -20.796875 
L 9.078125 -20.796875 
L 9.078125 54.6875 
L 18.109375 54.6875 
L 18.109375 46.390625 
Q 20.953125 51.265625 25.265625 53.625 
Q 29.59375 56 35.59375 56 
Q 45.5625 56 51.78125 48.09375 
Q 58.015625 40.1875 58.015625 27.296875 
Q 58.015625 14.40625 51.78125 6.484375 
Q 45.5625 -1.421875 35.59375 -1.421875 
Q 29.59375 -1.421875 25.265625 0.953125 
Q 20.953125 3.328125 18.109375 8.203125 
z
M 48.6875 27.296875 
Q 48.6875 37.203125 44.609375 42.84375 
Q 40.53125 48.484375 33.40625 48.484375 
Q 26.265625 48.484375 22.1875 42.84375 
Q 18.109375 37.203125 18.109375 27.296875 
Q 18.109375 17.390625 22.1875 11.75 
Q 26.265625 6.109375 33.40625 6.109375 
Q 40.53125 6.109375 44.609375 11.75 
Q 48.6875 17.390625 48.6875 27.296875 
z
" id="DejaVuSans-70"/>
     <path d="M 48.78125 52.59375 
L 48.78125 44.1875 
Q 44.96875 46.296875 41.140625 47.34375 
Q 37.3125 48.390625 33.40625 48.390625 
Q 24.65625 48.390625 19.8125 42.84375 
Q 14.984375 37.3125 14.984375 27.296875 
Q 14.984375 17.28125 19.8125 11.734375 
Q 24.65625 6.203125 33.40625 6.203125 
Q 37.3125 6.203125 41.140625 7.25 
Q 44.96875 8.296875 48.78125 10.40625 
L 48.78125 2.09375 
Q 45.015625 0.34375 40.984375 -0.53125 
Q 36.96875 -1.421875 32.421875 -1.421875 
Q 20.0625 -1.421875 12.78125 6.34375 
Q 5.515625 14.109375 5.515625 27.296875 
Q 5.515625 40.671875 12.859375 48.328125 
Q 20.21875 56 33.015625 56 
Q 37.15625 56 41.109375 55.140625 
Q 45.0625 54.296875 48.78125 52.59375 
z
" id="DejaVuSans-63"/>
    </defs>
    <g transform="translate(34.221563 35.472)scale(0.12 -0.12)">
     <use xlink:href="#DejaVuSans-4d"/>
     <use x="86.279297" xlink:href="#DejaVuSans-6f"/>
     <use x="147.460938" xlink:href="#DejaVuSans-64"/>
     <use x="210.9375" xlink:href="#DejaVuSans-65"/>
     <use x="272.460938" xlink:href="#DejaVuSans-6c"/>
     <use x="300.244141" xlink:href="#DejaVuSans-20"/>
     <use x="332.03125" xlink:href="#DejaVuSans-54"/>
     <use x="392.896484" xlink:href="#DejaVuSans-72"/>
     <use x="434.009766" xlink:href="#DejaVuSans-61"/>
     <use x="495.289062" xlink:href="#DejaVuSans-69"/>
     <use x="523.072266" xlink:href="#DejaVuSans-6e"/>
     <use x="586.451172" xlink:href="#DejaVuSans-69"/>
     <use x="614.234375" xlink:href="#DejaVuSans-6e"/>
     <use x="677.613281" xlink:href="#DejaVuSans-67"/>
     <use x="741.089844" xlink:href="#DejaVuSans-20"/>
     <use x="772.876953" xlink:href="#DejaVuSans-52"/>
     <use x="842.296875" xlink:href="#DejaVuSans-65"/>
     <use x="903.820312" xlink:href="#DejaVuSans-73"/>
     <use x="955.919922" xlink:href="#DejaVuSans-75"/>
     <use x="1019.298828" xlink:href="#DejaVuSans-6c"/>
     <use x="1047.082031" xlink:href="#DejaVuSans-74"/>
     <use x="1086.291016" xlink:href="#DejaVuSans-3a"/>
     <use x="1119.982422" xlink:href="#DejaVuSans-20"/>
     <use x="1151.769531" xlink:href="#DejaVuSans-32"/>
     <use x="1215.392578" xlink:href="#DejaVuSans-30"/>
     <use x="1279.015625" xlink:href="#DejaVuSans-31"/>
     <use x="1342.638672" xlink:href="#DejaVuSans-38"/>
     <use x="1406.261719" xlink:href="#DejaVuSans-5f"/>
     <use x="1456.261719" xlink:href="#DejaVuSans-30"/>
     <use x="1519.884766" xlink:href="#DejaVuSans-37"/>
     <use x="1583.507812" xlink:href="#DejaVuSans-5f"/>
     <use x="1633.507812" xlink:href="#DejaVuSans-31"/>
     <use x="1697.130859" xlink:href="#DejaVuSans-34"/>
     <use x="1760.753906" xlink:href="#DejaVuSans-5f"/>
     <use x="1810.753906" xlink:href="#DejaVuSans-31"/>
     <use x="1874.376953" xlink:href="#DejaVuSans-35"/>
     <use x="1938" xlink:href="#DejaVuSans-33"/>
     <use x="2001.623047" xlink:href="#DejaVuSans-31"/>
     <use x="2065.246094" xlink:href="#DejaVuSans-36"/>
     <use x="2128.869141" xlink:href="#DejaVuSans-31"/>
     <use x="2192.492188" xlink:href="#DejaVuSans-39"/>
     <use x="2256.115234" xlink:href="#DejaVuSans-34"/>
     <use x="2319.738281" xlink:href="#DejaVuSans-39"/>
     <use x="2383.361328" xlink:href="#DejaVuSans-39"/>
     <use x="2446.984375" xlink:href="#DejaVuSans-20"/>
     <use x="2478.771484" xlink:href="#DejaVuSans-77"/>
     <use x="2560.558594" xlink:href="#DejaVuSans-69"/>
     <use x="2588.341797" xlink:href="#DejaVuSans-74"/>
     <use x="2627.550781" xlink:href="#DejaVuSans-68"/>
     <use x="2690.929688" xlink:href="#DejaVuSans-20"/>
     <use x="2722.716797" xlink:href="#DejaVuSans-65"/>
     <use x="2784.240234" xlink:href="#DejaVuSans-70"/>
     <use x="2847.716797" xlink:href="#DejaVuSans-6f"/>
     <use x="2908.898438" xlink:href="#DejaVuSans-63"/>
     <use x="2963.878906" xlink:href="#DejaVuSans-68"/>
     <use x="3027.257812" xlink:href="#DejaVuSans-73"/>
     <use x="3079.357422" xlink:href="#DejaVuSans-20"/>
     <use x="3111.144531" xlink:href="#DejaVuSans-31"/>
     <use x="3174.767578" xlink:href="#DejaVuSans-30"/>
     <use x="3238.390625" xlink:href="#DejaVuSans-30"/>
     <use x="3302.013672" xlink:href="#DejaVuSans-30"/>
    </g>
   </g>
   <g id="legend_1">
    <g id="patch_7">
     <path d="M 151.739688 93.506375 
L 320.580312 93.506375 
Q 322.580312 93.506375 322.580312 91.506375 
L 322.580312 48.472 
Q 322.580312 46.472 320.580312 46.472 
L 151.739688 46.472 
Q 149.739688 46.472 149.739688 48.472 
L 149.739688 91.506375 
Q 149.739688 93.506375 151.739688 93.506375 
z
" style="fill:#ffffff;opacity:0.8;stroke:#cccccc;stroke-linejoin:miter;"/>
    </g>
    <g id="line2d_17">
     <path d="M 153.739688 54.570438 
L 173.739688 54.570438 
" style="fill:none;opacity:0.6;stroke:#1f77b4;stroke-linecap:square;stroke-width:0.5;"/>
    </g>
    <g id="line2d_18"/>
    <g id="text_15">
     <!-- Actual Data -->
     <defs>
      <path d="M 34.1875 63.1875 
L 20.796875 26.90625 
L 47.609375 26.90625 
z
M 28.609375 72.90625 
L 39.796875 72.90625 
L 67.578125 0 
L 57.328125 0 
L 50.6875 18.703125 
L 17.828125 18.703125 
L 11.1875 0 
L 0.78125 0 
z
" id="DejaVuSans-41"/>
      <path d="M 19.671875 64.796875 
L 19.671875 8.109375 
L 31.59375 8.109375 
Q 46.6875 8.109375 53.6875 14.9375 
Q 60.6875 21.78125 60.6875 36.53125 
Q 60.6875 51.171875 53.6875 57.984375 
Q 46.6875 64.796875 31.59375 64.796875 
z
M 9.8125 72.90625 
L 30.078125 72.90625 
Q 51.265625 72.90625 61.171875 64.09375 
Q 71.09375 55.28125 71.09375 36.53125 
Q 71.09375 17.671875 61.125 8.828125 
Q 51.171875 0 30.078125 0 
L 9.8125 0 
z
" id="DejaVuSans-44"/>
     </defs>
     <g transform="translate(181.739688 58.070438)scale(0.1 -0.1)">
      <use xlink:href="#DejaVuSans-41"/>
      <use x="68.392578" xlink:href="#DejaVuSans-63"/>
      <use x="123.373047" xlink:href="#DejaVuSans-74"/>
      <use x="162.582031" xlink:href="#DejaVuSans-75"/>
      <use x="225.960938" xlink:href="#DejaVuSans-61"/>
      <use x="287.240234" xlink:href="#DejaVuSans-6c"/>
      <use x="315.023438" xlink:href="#DejaVuSans-20"/>
      <use x="346.810547" xlink:href="#DejaVuSans-44"/>
      <use x="423.8125" xlink:href="#DejaVuSans-61"/>
      <use x="485.091797" xlink:href="#DejaVuSans-74"/>
      <use x="524.300781" xlink:href="#DejaVuSans-61"/>
     </g>
    </g>
    <g id="line2d_19">
     <path d="M 153.739688 69.248563 
L 173.739688 69.248563 
" style="fill:none;opacity:0.6;stroke:#ff7f0e;stroke-linecap:square;stroke-width:0.5;"/>
    </g>
    <g id="line2d_20"/>
    <g id="text_16">
     <!-- Prediction on Training Data -->
     <defs>
      <path d="M 19.671875 64.796875 
L 19.671875 37.40625 
L 32.078125 37.40625 
Q 38.96875 37.40625 42.71875 40.96875 
Q 46.484375 44.53125 46.484375 51.125 
Q 46.484375 57.671875 42.71875 61.234375 
Q 38.96875 64.796875 32.078125 64.796875 
z
M 9.8125 72.90625 
L 32.078125 72.90625 
Q 44.34375 72.90625 50.609375 67.359375 
Q 56.890625 61.8125 56.890625 51.125 
Q 56.890625 40.328125 50.609375 34.8125 
Q 44.34375 29.296875 32.078125 29.296875 
L 19.671875 29.296875 
L 19.671875 0 
L 9.8125 0 
z
" id="DejaVuSans-50"/>
     </defs>
     <g transform="translate(181.739688 72.748563)scale(0.1 -0.1)">
      <use xlink:href="#DejaVuSans-50"/>
      <use x="60.287109" xlink:href="#DejaVuSans-72"/>
      <use x="101.369141" xlink:href="#DejaVuSans-65"/>
      <use x="162.892578" xlink:href="#DejaVuSans-64"/>
      <use x="226.369141" xlink:href="#DejaVuSans-69"/>
      <use x="254.152344" xlink:href="#DejaVuSans-63"/>
      <use x="309.132812" xlink:href="#DejaVuSans-74"/>
      <use x="348.341797" xlink:href="#DejaVuSans-69"/>
      <use x="376.125" xlink:href="#DejaVuSans-6f"/>
      <use x="437.306641" xlink:href="#DejaVuSans-6e"/>
      <use x="500.685547" xlink:href="#DejaVuSans-20"/>
      <use x="532.472656" xlink:href="#DejaVuSans-6f"/>
      <use x="593.654297" xlink:href="#DejaVuSans-6e"/>
      <use x="657.033203" xlink:href="#DejaVuSans-20"/>
      <use x="688.820312" xlink:href="#DejaVuSans-54"/>
      <use x="749.685547" xlink:href="#DejaVuSans-72"/>
      <use x="790.798828" xlink:href="#DejaVuSans-61"/>
      <use x="852.078125" xlink:href="#DejaVuSans-69"/>
      <use x="879.861328" xlink:href="#DejaVuSans-6e"/>
      <use x="943.240234" xlink:href="#DejaVuSans-69"/>
      <use x="971.023438" xlink:href="#DejaVuSans-6e"/>
      <use x="1034.402344" xlink:href="#DejaVuSans-67"/>
      <use x="1097.878906" xlink:href="#DejaVuSans-20"/>
      <use x="1129.666016" xlink:href="#DejaVuSans-44"/>
      <use x="1206.667969" xlink:href="#DejaVuSans-61"/>
      <use x="1267.947266" xlink:href="#DejaVuSans-74"/>
      <use x="1307.15625" xlink:href="#DejaVuSans-61"/>
     </g>
    </g>
    <g id="line2d_21">
     <path d="M 153.739688 83.926688 
L 173.739688 83.926688 
" style="fill:none;opacity:0.6;stroke:#2ca02c;stroke-linecap:square;stroke-width:0.5;"/>
    </g>
    <g id="line2d_22"/>
    <g id="text_17">
     <!-- Prediction on Test Data -->
     <g transform="translate(181.739688 87.426688)scale(0.1 -0.1)">
      <use xlink:href="#DejaVuSans-50"/>
      <use x="60.287109" xlink:href="#DejaVuSans-72"/>
      <use x="101.369141" xlink:href="#DejaVuSans-65"/>
      <use x="162.892578" xlink:href="#DejaVuSans-64"/>
      <use x="226.369141" xlink:href="#DejaVuSans-69"/>
      <use x="254.152344" xlink:href="#DejaVuSans-63"/>
      <use x="309.132812" xlink:href="#DejaVuSans-74"/>
      <use x="348.341797" xlink:href="#DejaVuSans-69"/>
      <use x="376.125" xlink:href="#DejaVuSans-6f"/>
      <use x="437.306641" xlink:href="#DejaVuSans-6e"/>
      <use x="500.685547" xlink:href="#DejaVuSans-20"/>
      <use x="532.472656" xlink:href="#DejaVuSans-6f"/>
      <use x="593.654297" xlink:href="#DejaVuSans-6e"/>
      <use x="657.033203" xlink:href="#DejaVuSans-20"/>
      <use x="688.820312" xlink:href="#DejaVuSans-54"/>
      <use x="749.638672" xlink:href="#DejaVuSans-65"/>
      <use x="811.162109" xlink:href="#DejaVuSans-73"/>
      <use x="863.261719" xlink:href="#DejaVuSans-74"/>
      <use x="902.470703" xlink:href="#DejaVuSans-20"/>
      <use x="934.257812" xlink:href="#DejaVuSans-44"/>
      <use x="1011.259766" xlink:href="#DejaVuSans-61"/>
      <use x="1072.539062" xlink:href="#DejaVuSans-74"/>
      <use x="1111.748047" xlink:href="#DejaVuSans-61"/>
     </g>
    </g>
   </g>
  </g>
 </g>
 <defs>
  <clipPath id="p1aa970b62c">
   <rect height="266.112" width="357.12" x="57.6" y="41.472"/>
  </clipPath>
 </defs>
</svg>
