<?xml version="1.0" encoding="utf-8" standalone="no"?>
<!DOCTYPE svg PUBLIC "-//W3C//DTD SVG 1.1//EN"
  "http://www.w3.org/Graphics/SVG/1.1/DTD/svg11.dtd">
<!-- Created with matplotlib (http://matplotlib.org/) -->
<svg height="345.6pt" version="1.1" viewBox="0 0 460.8 345.6" width="460.8pt" xmlns="http://www.w3.org/2000/svg" xmlns:xlink="http://www.w3.org/1999/xlink">
 <defs>
  <style type="text/css">
*{stroke-linecap:butt;stroke-linejoin:round;}
  </style>
 </defs>
 <g id="figure_1">
  <g id="patch_1">
   <path d="M 0 345.6 
L 460.8 345.6 
L 460.8 0 
L 0 0 
z
" style="fill:#ffffff;"/>
  </g>
  <g id="axes_1">
   <g id="patch_2">
    <path d="M 57.6 307.584 
L 414.72 307.584 
L 414.72 41.472 
L 57.6 41.472 
z
" style="fill:#ffffff;"/>
   </g>
   <g id="matplotlib.axis_1">
    <g id="xtick_1">
     <g id="line2d_1">
      <defs>
       <path d="M 0 0 
L 0 3.5 
" id="md4c4ff09a7" style="stroke:#000000;stroke-width:0.8;"/>
      </defs>
      <g>
       <use style="stroke:#000000;stroke-width:0.8;" x="73.832727" xlink:href="#md4c4ff09a7" y="307.584"/>
      </g>
     </g>
     <g id="text_1">
      <!-- 0 -->
      <defs>
       <path d="M 31.78125 66.40625 
Q 24.171875 66.40625 20.328125 58.90625 
Q 16.5 51.421875 16.5 36.375 
Q 16.5 21.390625 20.328125 13.890625 
Q 24.171875 6.390625 31.78125 6.390625 
Q 39.453125 6.390625 43.28125 13.890625 
Q 47.125 21.390625 47.125 36.375 
Q 47.125 51.421875 43.28125 58.90625 
Q 39.453125 66.40625 31.78125 66.40625 
z
M 31.78125 74.21875 
Q 44.046875 74.21875 50.515625 64.515625 
Q 56.984375 54.828125 56.984375 36.375 
Q 56.984375 17.96875 50.515625 8.265625 
Q 44.046875 -1.421875 31.78125 -1.421875 
Q 19.53125 -1.421875 13.0625 8.265625 
Q 6.59375 17.96875 6.59375 36.375 
Q 6.59375 54.828125 13.0625 64.515625 
Q 19.53125 74.21875 31.78125 74.21875 
z
" id="DejaVuSans-30"/>
      </defs>
      <g transform="translate(70.651477 322.182437)scale(0.1 -0.1)">
       <use xlink:href="#DejaVuSans-30"/>
      </g>
     </g>
    </g>
    <g id="xtick_2">
     <g id="line2d_2">
      <g>
       <use style="stroke:#000000;stroke-width:0.8;" x="151.223561" xlink:href="#md4c4ff09a7" y="307.584"/>
      </g>
     </g>
     <g id="text_2">
      <!-- 200 -->
      <defs>
       <path d="M 19.1875 8.296875 
L 53.609375 8.296875 
L 53.609375 0 
L 7.328125 0 
L 7.328125 8.296875 
Q 12.9375 14.109375 22.625 23.890625 
Q 32.328125 33.6875 34.8125 36.53125 
Q 39.546875 41.84375 41.421875 45.53125 
Q 43.3125 49.21875 43.3125 52.78125 
Q 43.3125 58.59375 39.234375 62.25 
Q 35.15625 65.921875 28.609375 65.921875 
Q 23.96875 65.921875 18.8125 64.3125 
Q 13.671875 62.703125 7.8125 59.421875 
L 7.8125 69.390625 
Q 13.765625 71.78125 18.9375 73 
Q 24.125 74.21875 28.421875 74.21875 
Q 39.75 74.21875 46.484375 68.546875 
Q 53.21875 62.890625 53.21875 53.421875 
Q 53.21875 48.921875 51.53125 44.890625 
Q 49.859375 40.875 45.40625 35.40625 
Q 44.1875 33.984375 37.640625 27.21875 
Q 31.109375 20.453125 19.1875 8.296875 
z
" id="DejaVuSans-32"/>
      </defs>
      <g transform="translate(141.679811 322.182437)scale(0.1 -0.1)">
       <use xlink:href="#DejaVuSans-32"/>
       <use x="63.623047" xlink:href="#DejaVuSans-30"/>
       <use x="127.246094" xlink:href="#DejaVuSans-30"/>
      </g>
     </g>
    </g>
    <g id="xtick_3">
     <g id="line2d_3">
      <g>
       <use style="stroke:#000000;stroke-width:0.8;" x="228.614394" xlink:href="#md4c4ff09a7" y="307.584"/>
      </g>
     </g>
     <g id="text_3">
      <!-- 400 -->
      <defs>
       <path d="M 37.796875 64.3125 
L 12.890625 25.390625 
L 37.796875 25.390625 
z
M 35.203125 72.90625 
L 47.609375 72.90625 
L 47.609375 25.390625 
L 58.015625 25.390625 
L 58.015625 17.1875 
L 47.609375 17.1875 
L 47.609375 0 
L 37.796875 0 
L 37.796875 17.1875 
L 4.890625 17.1875 
L 4.890625 26.703125 
z
" id="DejaVuSans-34"/>
      </defs>
      <g transform="translate(219.070644 322.182437)scale(0.1 -0.1)">
       <use xlink:href="#DejaVuSans-34"/>
       <use x="63.623047" xlink:href="#DejaVuSans-30"/>
       <use x="127.246094" xlink:href="#DejaVuSans-30"/>
      </g>
     </g>
    </g>
    <g id="xtick_4">
     <g id="line2d_4">
      <g>
       <use style="stroke:#000000;stroke-width:0.8;" x="306.005227" xlink:href="#md4c4ff09a7" y="307.584"/>
      </g>
     </g>
     <g id="text_4">
      <!-- 600 -->
      <defs>
       <path d="M 33.015625 40.375 
Q 26.375 40.375 22.484375 35.828125 
Q 18.609375 31.296875 18.609375 23.390625 
Q 18.609375 15.53125 22.484375 10.953125 
Q 26.375 6.390625 33.015625 6.390625 
Q 39.65625 6.390625 43.53125 10.953125 
Q 47.40625 15.53125 47.40625 23.390625 
Q 47.40625 31.296875 43.53125 35.828125 
Q 39.65625 40.375 33.015625 40.375 
z
M 52.59375 71.296875 
L 52.59375 62.3125 
Q 48.875 64.0625 45.09375 64.984375 
Q 41.3125 65.921875 37.59375 65.921875 
Q 27.828125 65.921875 22.671875 59.328125 
Q 17.53125 52.734375 16.796875 39.40625 
Q 19.671875 43.65625 24.015625 45.921875 
Q 28.375 48.1875 33.59375 48.1875 
Q 44.578125 48.1875 50.953125 41.515625 
Q 57.328125 34.859375 57.328125 23.390625 
Q 57.328125 12.15625 50.6875 5.359375 
Q 44.046875 -1.421875 33.015625 -1.421875 
Q 20.359375 -1.421875 13.671875 8.265625 
Q 6.984375 17.96875 6.984375 36.375 
Q 6.984375 53.65625 15.1875 63.9375 
Q 23.390625 74.21875 37.203125 74.21875 
Q 40.921875 74.21875 44.703125 73.484375 
Q 48.484375 72.75 52.59375 71.296875 
z
" id="DejaVuSans-36"/>
      </defs>
      <g transform="translate(296.461477 322.182437)scale(0.1 -0.1)">
       <use xlink:href="#DejaVuSans-36"/>
       <use x="63.623047" xlink:href="#DejaVuSans-30"/>
       <use x="127.246094" xlink:href="#DejaVuSans-30"/>
      </g>
     </g>
    </g>
    <g id="xtick_5">
     <g id="line2d_5">
      <g>
       <use style="stroke:#000000;stroke-width:0.8;" x="383.39606" xlink:href="#md4c4ff09a7" y="307.584"/>
      </g>
     </g>
     <g id="text_5">
      <!-- 800 -->
      <defs>
       <path d="M 31.78125 34.625 
Q 24.75 34.625 20.71875 30.859375 
Q 16.703125 27.09375 16.703125 20.515625 
Q 16.703125 13.921875 20.71875 10.15625 
Q 24.75 6.390625 31.78125 6.390625 
Q 38.8125 6.390625 42.859375 10.171875 
Q 46.921875 13.96875 46.921875 20.515625 
Q 46.921875 27.09375 42.890625 30.859375 
Q 38.875 34.625 31.78125 34.625 
z
M 21.921875 38.8125 
Q 15.578125 40.375 12.03125 44.71875 
Q 8.5 49.078125 8.5 55.328125 
Q 8.5 64.0625 14.71875 69.140625 
Q 20.953125 74.21875 31.78125 74.21875 
Q 42.671875 74.21875 48.875 69.140625 
Q 55.078125 64.0625 55.078125 55.328125 
Q 55.078125 49.078125 51.53125 44.71875 
Q 48 40.375 41.703125 38.8125 
Q 48.828125 37.15625 52.796875 32.3125 
Q 56.78125 27.484375 56.78125 20.515625 
Q 56.78125 9.90625 50.3125 4.234375 
Q 43.84375 -1.421875 31.78125 -1.421875 
Q 19.734375 -1.421875 13.25 4.234375 
Q 6.78125 9.90625 6.78125 20.515625 
Q 6.78125 27.484375 10.78125 32.3125 
Q 14.796875 37.15625 21.921875 38.8125 
z
M 18.3125 54.390625 
Q 18.3125 48.734375 21.84375 45.5625 
Q 25.390625 42.390625 31.78125 42.390625 
Q 38.140625 42.390625 41.71875 45.5625 
Q 45.3125 48.734375 45.3125 54.390625 
Q 45.3125 60.0625 41.71875 63.234375 
Q 38.140625 66.40625 31.78125 66.40625 
Q 25.390625 66.40625 21.84375 63.234375 
Q 18.3125 60.0625 18.3125 54.390625 
z
" id="DejaVuSans-38"/>
      </defs>
      <g transform="translate(373.85231 322.182437)scale(0.1 -0.1)">
       <use xlink:href="#DejaVuSans-38"/>
       <use x="63.623047" xlink:href="#DejaVuSans-30"/>
       <use x="127.246094" xlink:href="#DejaVuSans-30"/>
      </g>
     </g>
    </g>
   </g>
   <g id="matplotlib.axis_2">
    <g id="ytick_1">
     <g id="line2d_6">
      <defs>
       <path d="M 0 0 
L -3.5 0 
" id="m1e77aaaeda" style="stroke:#000000;stroke-width:0.8;"/>
      </defs>
      <g>
       <use style="stroke:#000000;stroke-width:0.8;" x="57.6" xlink:href="#m1e77aaaeda" y="288.770946"/>
      </g>
     </g>
     <g id="text_6">
      <!-- −2.5 -->
      <defs>
       <path d="M 10.59375 35.5 
L 73.1875 35.5 
L 73.1875 27.203125 
L 10.59375 27.203125 
z
" id="DejaVuSans-2212"/>
       <path d="M 10.6875 12.40625 
L 21 12.40625 
L 21 0 
L 10.6875 0 
z
" id="DejaVuSans-2e"/>
       <path d="M 10.796875 72.90625 
L 49.515625 72.90625 
L 49.515625 64.59375 
L 19.828125 64.59375 
L 19.828125 46.734375 
Q 21.96875 47.46875 24.109375 47.828125 
Q 26.265625 48.1875 28.421875 48.1875 
Q 40.625 48.1875 47.75 41.5 
Q 54.890625 34.8125 54.890625 23.390625 
Q 54.890625 11.625 47.5625 5.09375 
Q 40.234375 -1.421875 26.90625 -1.421875 
Q 22.3125 -1.421875 17.546875 -0.640625 
Q 12.796875 0.140625 7.71875 1.703125 
L 7.71875 11.625 
Q 12.109375 9.234375 16.796875 8.0625 
Q 21.484375 6.890625 26.703125 6.890625 
Q 35.15625 6.890625 40.078125 11.328125 
Q 45.015625 15.765625 45.015625 23.390625 
Q 45.015625 31 40.078125 35.4375 
Q 35.15625 39.890625 26.703125 39.890625 
Q 22.75 39.890625 18.8125 39.015625 
Q 14.890625 38.140625 10.796875 36.28125 
z
" id="DejaVuSans-35"/>
      </defs>
      <g transform="translate(26.317187 292.570165)scale(0.1 -0.1)">
       <use xlink:href="#DejaVuSans-2212"/>
       <use x="83.789062" xlink:href="#DejaVuSans-32"/>
       <use x="147.412109" xlink:href="#DejaVuSans-2e"/>
       <use x="179.199219" xlink:href="#DejaVuSans-35"/>
      </g>
     </g>
    </g>
    <g id="ytick_2">
     <g id="line2d_7">
      <g>
       <use style="stroke:#000000;stroke-width:0.8;" x="57.6" xlink:href="#m1e77aaaeda" y="254.368999"/>
      </g>
     </g>
     <g id="text_7">
      <!-- 0.0 -->
      <g transform="translate(34.696875 258.168218)scale(0.1 -0.1)">
       <use xlink:href="#DejaVuSans-30"/>
       <use x="63.623047" xlink:href="#DejaVuSans-2e"/>
       <use x="95.410156" xlink:href="#DejaVuSans-30"/>
      </g>
     </g>
    </g>
    <g id="ytick_3">
     <g id="line2d_8">
      <g>
       <use style="stroke:#000000;stroke-width:0.8;" x="57.6" xlink:href="#m1e77aaaeda" y="219.967052"/>
      </g>
     </g>
     <g id="text_8">
      <!-- 2.5 -->
      <g transform="translate(34.696875 223.766271)scale(0.1 -0.1)">
       <use xlink:href="#DejaVuSans-32"/>
       <use x="63.623047" xlink:href="#DejaVuSans-2e"/>
       <use x="95.410156" xlink:href="#DejaVuSans-35"/>
      </g>
     </g>
    </g>
    <g id="ytick_4">
     <g id="line2d_9">
      <g>
       <use style="stroke:#000000;stroke-width:0.8;" x="57.6" xlink:href="#m1e77aaaeda" y="185.565105"/>
      </g>
     </g>
     <g id="text_9">
      <!-- 5.0 -->
      <g transform="translate(34.696875 189.364324)scale(0.1 -0.1)">
       <use xlink:href="#DejaVuSans-35"/>
       <use x="63.623047" xlink:href="#DejaVuSans-2e"/>
       <use x="95.410156" xlink:href="#DejaVuSans-30"/>
      </g>
     </g>
    </g>
    <g id="ytick_5">
     <g id="line2d_10">
      <g>
       <use style="stroke:#000000;stroke-width:0.8;" x="57.6" xlink:href="#m1e77aaaeda" y="151.163158"/>
      </g>
     </g>
     <g id="text_10">
      <!-- 7.5 -->
      <defs>
       <path d="M 8.203125 72.90625 
L 55.078125 72.90625 
L 55.078125 68.703125 
L 28.609375 0 
L 18.3125 0 
L 43.21875 64.59375 
L 8.203125 64.59375 
z
" id="DejaVuSans-37"/>
      </defs>
      <g transform="translate(34.696875 154.962376)scale(0.1 -0.1)">
       <use xlink:href="#DejaVuSans-37"/>
       <use x="63.623047" xlink:href="#DejaVuSans-2e"/>
       <use x="95.410156" xlink:href="#DejaVuSans-35"/>
      </g>
     </g>
    </g>
    <g id="ytick_6">
     <g id="line2d_11">
      <g>
       <use style="stroke:#000000;stroke-width:0.8;" x="57.6" xlink:href="#m1e77aaaeda" y="116.761211"/>
      </g>
     </g>
     <g id="text_11">
      <!-- 10.0 -->
      <defs>
       <path d="M 12.40625 8.296875 
L 28.515625 8.296875 
L 28.515625 63.921875 
L 10.984375 60.40625 
L 10.984375 69.390625 
L 28.421875 72.90625 
L 38.28125 72.90625 
L 38.28125 8.296875 
L 54.390625 8.296875 
L 54.390625 0 
L 12.40625 0 
z
" id="DejaVuSans-31"/>
      </defs>
      <g transform="translate(28.334375 120.560429)scale(0.1 -0.1)">
       <use xlink:href="#DejaVuSans-31"/>
       <use x="63.623047" xlink:href="#DejaVuSans-30"/>
       <use x="127.246094" xlink:href="#DejaVuSans-2e"/>
       <use x="159.033203" xlink:href="#DejaVuSans-30"/>
      </g>
     </g>
    </g>
    <g id="ytick_7">
     <g id="line2d_12">
      <g>
       <use style="stroke:#000000;stroke-width:0.8;" x="57.6" xlink:href="#m1e77aaaeda" y="82.359263"/>
      </g>
     </g>
     <g id="text_12">
      <!-- 12.5 -->
      <g transform="translate(28.334375 86.158482)scale(0.1 -0.1)">
       <use xlink:href="#DejaVuSans-31"/>
       <use x="63.623047" xlink:href="#DejaVuSans-32"/>
       <use x="127.246094" xlink:href="#DejaVuSans-2e"/>
       <use x="159.033203" xlink:href="#DejaVuSans-35"/>
      </g>
     </g>
    </g>
    <g id="ytick_8">
     <g id="line2d_13">
      <g>
       <use style="stroke:#000000;stroke-width:0.8;" x="57.6" xlink:href="#m1e77aaaeda" y="47.957316"/>
      </g>
     </g>
     <g id="text_13">
      <!-- 15.0 -->
      <g transform="translate(28.334375 51.756535)scale(0.1 -0.1)">
       <use xlink:href="#DejaVuSans-31"/>
       <use x="63.623047" xlink:href="#DejaVuSans-35"/>
       <use x="127.246094" xlink:href="#DejaVuSans-2e"/>
       <use x="159.033203" xlink:href="#DejaVuSans-30"/>
      </g>
     </g>
    </g>
   </g>
   <g id="line2d_14">
    <path clip-path="url(#p0eeb216650)" d="M 73.832727 123.88984 
L 74.219681 160.545531 
L 74.99359 125.224493 
L 75.380544 125.361697 
L 75.767498 120.042049 
L 76.154452 129.661941 
L 76.541406 162.791151 
L 76.928361 170.27867 
L 77.315315 188.72788 
L 77.702269 216.748818 
L 78.089223 235.192254 
L 78.476177 240.416394 
L 78.863131 230.360845 
L 79.250086 248.591948 
L 79.63704 260.10023 
L 80.023994 267.474489 
L 80.410948 293.84661 
L 80.797902 295.488 
L 81.184856 288.827498 
L 81.571811 290.596447 
L 81.958765 280.569109 
L 82.345719 279.544619 
L 82.732673 283.025404 
L 83.119627 271.634786 
L 83.506581 269.908087 
L 83.893536 269.901617 
L 84.667444 256.670075 
L 85.054398 232.885948 
L 85.441352 225.337885 
L 85.828306 220.184335 
L 86.215261 206.116139 
L 86.602215 202.112853 
L 87.763077 124.979153 
L 88.150031 123.979158 
L 88.536986 122.288771 
L 88.92394 125.850199 
L 90.084802 159.976938 
L 90.471756 158.823787 
L 90.858711 161.132707 
L 91.245665 158.155423 
L 91.632619 172.28912 
L 92.406527 223.469858 
L 92.793481 227.251595 
L 93.180436 225.700757 
L 93.56739 228.954767 
L 93.954344 222.527658 
L 94.341298 213.474305 
L 94.728252 210.202542 
L 95.115206 222.64999 
L 95.502161 226.489799 
L 96.276069 241.89224 
L 96.663023 244.484082 
L 97.049977 244.990202 
L 97.436931 241.854396 
L 97.823886 242.407579 
L 98.21084 242.41212 
L 98.597794 241.920449 
L 98.984748 248.695566 
L 99.371702 246.119689 
L 99.758656 240.9338 
L 100.145611 240.963937 
L 100.532565 246.119689 
L 100.919519 246.12588 
L 101.693427 233.668386 
L 102.080381 238.866794 
L 102.467336 245.604209 
L 102.85429 242.51519 
L 103.241244 245.630354 
L 103.628198 250.773448 
L 104.402106 258.462967 
L 104.789061 266.112861 
L 105.176015 257.956572 
L 105.562969 259.49021 
L 105.949923 263.052461 
L 106.336877 263.036366 
L 106.723831 261.522816 
L 107.110786 257.955194 
L 107.884694 266.117264 
L 108.271648 259.492133 
L 108.658602 261.031558 
L 109.045556 252.315892 
L 109.432511 249.219029 
L 110.206419 249.228661 
L 110.593373 251.284797 
L 110.980327 252.316718 
L 111.367281 249.232513 
L 111.754236 247.177889 
L 112.14119 241.00398 
L 112.528144 231.700593 
L 112.915098 227.114814 
L 113.302052 223.984098 
L 113.689006 228.743677 
L 114.075961 218.966505 
L 114.462915 222.117174 
L 114.849869 215.4476 
L 115.623777 206.211365 
L 116.397686 203.270686 
L 116.78464 204.986932 
L 117.171594 205.712125 
L 117.558548 208.987189 
L 117.945502 205.493327 
L 118.332456 205.564747 
L 118.719411 213.852037 
L 119.106365 209.350062 
L 119.493319 212.533893 
L 119.880273 206.129213 
L 120.267227 209.819715 
L 120.654181 204.482462 
L 121.041136 204.607547 
L 121.42809 208.172137 
L 121.815044 215.206374 
L 122.201998 220.198921 
L 122.588952 222.254092 
L 122.975906 225.700757 
L 123.362861 225.700757 
L 124.136769 230.201907 
L 124.523723 236.59145 
L 124.910677 239.984857 
L 125.297631 249.602541 
L 125.684586 252.466983 
L 126.07154 249.614099 
L 126.458494 244.849294 
L 126.845448 241.98471 
L 127.232402 242.957186 
L 128.006311 233.425644 
L 128.393265 235.355868 
L 128.780219 233.46899 
L 129.167173 237.292563 
L 129.554127 234.914148 
L 129.941081 233.46899 
L 130.328036 227.778084 
L 131.101944 230.733212 
L 131.488898 235.486321 
L 131.875852 234.090976 
L 132.262806 237.432647 
L 133.036715 234.208357 
L 133.423669 235.653239 
L 133.810623 232.348037 
L 134.197577 234.249502 
L 134.584531 234.249502 
L 134.971486 241.791509 
L 135.35844 241.80417 
L 135.745394 243.680179 
L 136.132348 237.138853 
L 136.519302 239.032748 
L 136.906256 237.173803 
L 137.293211 243.730405 
L 137.680165 245.127397 
L 138.454073 245.145976 
L 139.614936 235.904373 
L 140.00189 235.922949 
L 140.388844 237.306322 
L 140.775798 240.571478 
L 141.162752 238.742261 
L 141.549706 234.17299 
L 141.936661 236.009091 
L 142.323615 236.009091 
L 142.710569 237.403061 
L 143.097523 236.045698 
L 143.871431 238.861289 
L 144.258386 242.070442 
L 144.64534 242.082551 
L 145.032294 236.148903 
L 145.419248 232.967409 
L 145.806202 233.009791 
L 146.193156 240.798256 
L 146.580111 237.609608 
L 146.967065 236.25073 
L 147.354019 231.721234 
L 147.740973 231.765817 
L 148.127927 234.955841 
L 148.514881 234.974971 
L 148.901836 233.150015 
L 149.28879 233.170793 
L 150.062698 239.572447 
L 150.449652 240.943846 
L 150.836606 238.243018 
L 151.223561 237.81134 
L 151.610515 235.145052 
L 151.997469 237.880972 
L 152.384423 239.247278 
L 152.771377 237.897071 
L 153.158331 237.913032 
L 153.93224 232.159928 
L 154.319194 227.743817 
L 154.706148 229.526803 
L 155.093102 232.20988 
L 155.480056 230.460334 
L 155.867011 230.933291 
L 156.253965 230.559963 
L 156.640919 227.948304 
L 157.027873 227.973624 
L 157.414827 219.175258 
L 157.801781 216.132473 
L 158.188736 214.902124 
L 158.57569 216.338886 
L 158.962644 220.848567 
L 159.349598 216.459292 
L 159.736552 206.39163 
L 160.123506 205.192242 
L 160.510461 202.195418 
L 161.284369 208.139664 
L 161.671323 210.341386 
L 162.445231 219.304194 
L 162.832186 219.412904 
L 163.21914 222.466149 
L 163.606094 215.271049 
L 163.993048 214.083217 
L 164.380002 218.544601 
L 165.15391 218.76271 
L 165.540865 211.680448 
L 165.927819 209.224288 
L 166.314773 204.17766 
L 166.701727 204.329854 
L 167.088681 200.159925 
L 167.475635 200.323678 
L 167.86259 196.166272 
L 168.249544 196.515936 
L 168.636498 192.569063 
L 169.410406 192.93689 
L 169.79736 189.035988 
L 170.184315 193.480582 
L 170.571269 189.612423 
L 171.345177 189.991122 
L 171.732131 182.155048 
L 172.119085 178.364638 
L 172.50604 178.584952 
L 173.279948 179.453531 
L 173.666902 179.667651 
L 174.053856 175.959944 
L 174.44081 176.404279 
L 174.827765 172.737307 
L 175.214719 173.195816 
L 175.988627 165.961773 
L 176.375581 170.508334 
L 176.762535 170.970288 
L 177.14949 171.199401 
L 177.536444 171.65392 
L 177.923398 175.842838 
L 178.310352 176.05558 
L 179.858169 177.717469 
L 180.245123 181.752819 
L 180.632077 189.357437 
L 181.405985 197.181405 
L 181.79294 193.764465 
L 182.179894 194.07697 
L 182.953802 194.386175 
L 184.501619 209.421754 
L 184.888573 209.534316 
L 185.275527 202.636729 
L 185.662481 206.206273 
L 186.049435 206.326404 
L 186.823344 213.596362 
L 187.597252 213.796719 
L 187.984206 210.523442 
L 188.37116 210.63064 
L 188.758115 207.381032 
L 189.145069 207.495244 
L 189.918977 201.187306 
L 190.305931 187.891774 
L 190.692885 181.42036 
L 191.07984 178.287716 
L 191.466794 171.870376 
L 191.853748 175.359697 
L 192.240702 152.558913 
L 192.627656 153.042605 
L 193.01461 143.500186 
L 193.401565 140.777626 
L 194.175473 122.239795 
L 194.562427 116.761211 
L 194.949381 114.858765 
L 195.336335 115.81653 
L 195.72329 107.044023 
L 196.110244 104.930646 
L 196.497198 95.590806 
L 196.884152 104.529375 
L 197.271106 89.970345 
L 197.65806 91.412347 
L 198.045015 86.481437 
L 198.431969 87.931968 
L 198.818923 92.650399 
L 199.205877 100.178515 
L 199.592831 110.427813 
L 199.979785 114.186432 
L 200.36674 126.954367 
L 200.753694 127.994547 
L 201.140648 123.181025 
L 201.914556 145.588117 
L 203.075419 156.267177 
L 203.849327 168.037177 
L 204.623235 173.881377 
L 205.01019 168.850022 
L 205.397144 172.061517 
L 205.784098 177.920165 
L 206.171052 175.663397 
L 206.558006 178.76026 
L 206.94496 179.173499 
L 207.331915 184.694184 
L 207.718869 185.070127 
L 208.105823 182.85244 
L 208.492777 170.671949 
L 208.879731 165.906872 
L 209.266685 158.705854 
L 209.65364 161.654515 
L 210.814502 163.110815 
L 211.201456 165.97512 
L 211.58841 166.433083 
L 211.975365 161.998943 
L 212.362319 162.473416 
L 212.749273 160.598785 
L 213.136227 168.50917 
L 213.910135 164.923937 
L 214.29709 156.077683 
L 215.070998 147.994602 
L 215.457952 146.264741 
L 215.844906 137.6381 
L 216.23186 131.504925 
L 216.618815 132.297546 
L 217.005769 130.676661 
L 217.392723 127.076296 
L 217.779677 118.945453 
L 218.166631 113.288404 
L 218.94054 107.160728 
L 220.101402 91.494774 
L 220.488356 90.895079 
L 220.87531 88.255208 
L 221.649219 71.972761 
L 222.036173 63.526119 
L 222.423127 59.490913 
L 222.810081 53.568 
L 223.197035 53.609693 
L 223.970944 58.058689 
L 224.357898 73.405405 
L 224.744852 76.991321 
L 225.51876 80.52935 
L 225.905715 80.548615 
L 226.292669 84.372325 
L 227.840485 114.890143 
L 228.22744 119.624557 
L 228.614394 120.93114 
L 229.001348 106.099079 
L 229.388302 105.514384 
L 229.775256 103.476007 
L 232.096981 159.627687 
L 232.483935 163.248288 
L 233.257844 155.53468 
L 234.031752 172.281962 
L 234.418706 186.378093 
L 234.80566 185.123106 
L 235.579569 201.724111 
L 235.966523 203.349124 
L 236.353477 206.416951 
L 236.740431 204.963812 
L 237.127385 199.325884 
L 237.51434 207.017057 
L 237.901294 220.321667 
L 238.288248 221.907736 
L 238.675202 220.565645 
L 239.062156 216.34026 
L 239.44911 216.495345 
L 239.836065 210.83994 
L 240.609973 195.334018 
L 240.996927 189.777553 
L 241.383881 187.03792 
L 241.770835 191.693332 
L 242.15779 194.720425 
L 242.544744 194.840418 
L 244.09256 195.667304 
L 244.866469 198.728806 
L 245.253423 205.849182 
L 245.640377 204.744328 
L 246.027331 202.214408 
L 246.414285 205.080642 
L 246.80124 205.175868 
L 247.188194 203.943727 
L 247.575148 206.781336 
L 248.349056 209.682659 
L 248.73601 209.852743 
L 249.509919 202.195418 
L 249.896873 199.690406 
L 250.283827 210.355287 
L 250.670781 224.734337 
L 251.057735 232.506011 
L 251.831644 230.047649 
L 252.605552 232.688479 
L 252.992506 230.182642 
L 253.37946 232.808337 
L 253.766415 236.694655 
L 254.153369 238.032067 
L 254.540323 235.58719 
L 254.927277 228.026603 
L 255.701185 203.731396 
L 256.08814 203.870795 
L 256.475094 202.797591 
L 256.862048 200.331247 
L 257.249002 195.358375 
L 257.635956 195.572908 
L 258.02291 194.430899 
L 258.409865 192.046572 
L 259.570727 200.212077 
L 259.957681 201.631641 
L 260.344635 199.423587 
L 261.118544 199.810813 
L 261.505498 197.536292 
L 261.892452 197.784815 
L 262.66636 195.73611 
L 263.053315 195.939357 
L 263.440269 193.659748 
L 263.827223 192.682731 
L 264.214177 190.420457 
L 264.601131 187.041634 
L 264.988085 185.095448 
L 265.37504 181.758875 
L 266.148948 184.694184 
L 266.535902 190.768743 
L 266.922856 193.337879 
L 267.30981 191.246103 
L 267.696765 190.312164 
L 268.083719 190.524492 
L 268.470673 182.840196 
L 268.857627 181.943815 
L 269.244581 182.299398 
L 269.631535 189.53344 
L 270.01849 194.297697 
L 270.405444 190.055938 
L 270.792398 188.051951 
L 271.179352 175.893895 
L 271.566306 169.466784 
L 271.95326 166.580872 
L 272.340215 169.115604 
L 272.727169 168.296015 
L 273.114123 176.661056 
L 273.501077 181.264862 
L 273.888031 188.026223 
L 274.274985 188.180618 
L 274.66194 185.085402 
L 275.435848 194.264397 
L 275.822802 202.086433 
L 276.209756 207.634229 
L 276.59671 215.170321 
L 276.983665 212.170607 
L 277.370619 213.35321 
L 277.757573 217.591803 
L 278.144527 215.577501 
L 278.531481 210.473354 
L 278.918435 210.570778 
L 279.30539 212.761907 
L 279.692344 212.884242 
L 280.079298 210.924569 
L 280.853206 213.187115 
L 281.24016 209.235295 
L 282.014069 213.544758 
L 282.401023 209.594178 
L 282.787977 209.691189 
L 283.174931 212.819567 
L 283.561885 210.934753 
L 283.94884 210.042916 
L 284.335794 213.116111 
L 284.722748 215.192336 
L 285.109702 215.275866 
L 285.496656 216.334207 
L 286.270565 216.601854 
L 286.657519 215.688 
L 287.044473 220.641606 
L 287.431427 219.750734 
L 287.818381 217.878443 
L 288.205335 221.833153 
L 288.59229 222.877594 
L 289.753152 214.455174 
L 290.140106 213.561136 
L 290.52706 218.45488 
L 291.300969 218.626753 
L 291.687923 214.864417 
L 292.074877 214.972028 
L 292.461831 216.014681 
L 292.848785 211.366565 
L 293.23574 211.454085 
L 293.622694 212.500455 
L 294.396602 218.350849 
L 294.783556 219.344929 
L 295.17051 216.605158 
L 295.557465 218.543223 
L 295.944419 219.531523 
L 296.331373 215.966794 
L 296.718327 216.98055 
L 297.105281 215.234445 
L 297.87919 215.466039 
L 298.266144 215.542685 
L 298.653098 214.691721 
L 299.040052 215.669561 
L 299.427006 213.023776 
L 299.81396 212.23501 
L 300.200915 209.603948 
L 300.587869 207.873805 
L 300.974823 212.561826 
L 301.361777 212.642741 
L 302.52264 223.574441 
L 302.909594 223.633335 
L 303.296548 224.568518 
L 303.683502 222.855714 
L 304.070456 223.828328 
L 304.45741 225.664428 
L 305.231319 231.016271 
L 305.618273 231.923518 
L 306.005227 234.550724 
L 306.392181 235.42426 
L 306.779135 234.575495 
L 307.16609 231.133097 
L 307.553044 232.03567 
L 307.939998 230.347633 
L 308.326952 232.118921 
L 308.713906 234.73512 
L 309.10086 233.91952 
L 309.487814 233.944838 
L 309.874769 232.256528 
L 310.261723 231.434322 
L 310.648677 231.434322 
L 311.035631 230.584869 
L 311.422585 222.978873 
L 311.809539 225.594934 
L 312.196494 227.320811 
L 312.583448 224.857496 
L 312.970402 223.209367 
L 313.357356 218.178563 
L 313.74431 219.106452 
L 314.518219 217.539651 
L 314.905173 215.935695 
L 315.679081 202.599022 
L 316.066035 212.895938 
L 316.452989 211.262947 
L 316.839944 202.973315 
L 317.226898 204.840101 
L 317.613852 208.252639 
L 318.000806 206.804866 
L 319.161669 207.086689 
L 319.548623 203.162389 
L 319.935577 205.80157 
L 320.322531 213.328026 
L 320.709485 210.083234 
L 321.096439 205.338242 
L 321.870348 216.919316 
L 322.257302 216.919316 
L 322.644256 218.698721 
L 323.03121 225.09074 
L 323.805119 232.301251 
L 324.192073 237.912484 
L 324.579027 238.731802 
L 325.352935 231.746416 
L 325.739889 237.294213 
L 326.126844 239.655702 
L 326.513798 234.201064 
L 326.900752 230.322587 
L 327.287706 233.507658 
L 327.67466 226.475488 
L 328.835523 216.4242 
L 329.222477 211.076626 
L 329.609431 212.739755 
L 329.996385 224.437518 
L 330.383339 228.304021 
L 330.770294 227.552269 
L 331.157248 226.082891 
L 331.931156 221.641464 
L 332.31811 226.270315 
L 332.705064 227.833128 
L 333.092019 226.36306 
L 333.478973 226.485671 
L 333.865927 231.134612 
L 334.252881 230.424143 
L 335.026789 214.493566 
L 335.413744 210.779393 
L 335.800698 213.918089 
L 336.187652 219.314378 
L 336.574606 219.428042 
L 336.96156 210.459591 
L 337.348514 204.532688 
L 337.735469 208.376073 
L 338.122423 215.221371 
L 338.896331 210.240383 
L 339.283285 208.108151 
L 339.670239 214.885333 
L 340.057194 219.402448 
L 340.831102 204.184402 
L 341.218056 189.117727 
L 341.60501 194.508235 
L 341.991964 208.42795 
L 342.378919 208.42795 
L 342.765873 199.067322 
L 343.152827 204.303844 
L 343.539781 207.335756 
L 343.926735 204.639745 
L 344.313689 199.638668 
L 344.700644 196.825278 
L 345.087598 197.885542 
L 345.474552 200.336339 
L 345.861506 226.68135 
L 346.24846 235.016805 
L 347.022369 219.63707 
L 347.409323 225.804789 
L 348.183231 215.863589 
L 348.570185 218.6884 
L 348.957139 217.078804 
L 349.344094 217.314387 
L 350.118002 228.25861 
L 350.89191 204.682956 
L 351.278864 194.189397 
L 351.665819 197.828574 
L 352.052773 195.27058 
L 352.826681 199.671279 
L 353.213635 200.650222 
L 353.600589 198.109295 
L 353.987544 186.44621 
L 354.374498 178.71898 
L 354.761452 181.326508 
L 355.148406 186.207458 
L 355.53536 203.026707 
L 355.922314 239.233243 
L 356.309269 254.674903 
L 356.696223 255.932086 
L 357.083177 254.252582 
L 357.470131 260.512909 
L 357.857085 262.29961 
L 358.244039 268.346651 
L 358.630994 271.283337 
L 359.017948 281.323063 
L 359.404902 274.78779 
L 359.791856 273.330526 
L 360.17881 257.451 
L 360.565764 228.02275 
L 360.952719 215.644515 
L 361.339673 218.300485 
L 361.726627 224.764885 
L 362.113581 222.909519 
L 362.500535 224.002126 
L 362.887489 226.79859 
L 363.274444 238.935462 
L 363.661398 235.918822 
L 364.048352 238.541625 
L 364.435306 238.980183 
L 364.82226 238.314297 
L 365.209214 239.444882 
L 366.370077 225.128719 
L 367.143985 212.023918 
L 367.530939 206.770877 
L 367.917894 206.174348 
L 368.304848 205.107062 
L 368.691802 202.697273 
L 369.078756 201.90438 
L 369.46571 205.899821 
L 369.852664 206.874633 
L 370.239619 212.232533 
L 370.626573 212.965981 
L 371.013527 214.487785 
L 371.787435 223.088547 
L 372.174389 230.453592 
L 372.561344 231.61046 
L 372.948298 234.862957 
L 374.10916 224.705164 
L 374.496114 229.654365 
L 374.883069 230.156907 
L 375.270023 231.195022 
L 375.656977 226.59782 
L 376.430885 238.698088 
L 376.817839 235.236148 
L 377.204794 230.758392 
L 377.591748 228.423463 
L 378.75261 242.303548 
L 379.526519 233.551142 
L 379.913473 232.582519 
L 380.300427 239.098112 
L 381.074335 226.668965 
L 381.461289 224.852818 
L 381.848244 226.290407 
L 382.235198 227.278703 
L 382.622152 230.891735 
L 383.009106 231.3424 
L 383.39606 232.120299 
L 383.783014 237.075418 
L 384.169969 245.276015 
L 384.556923 257.356876 
L 385.330831 254.369003 
L 385.717785 256.103132 
L 386.491694 251.874306 
L 386.878648 251.42543 
L 387.265602 251.181448 
L 387.652556 254.282031 
L 388.03951 252.531937 
L 388.813419 245.300782 
L 389.200373 235.887447 
L 389.587327 241.162368 
L 389.974281 242.320198 
L 390.361235 238.764964 
L 390.748189 239.925963 
L 391.135144 240.145995 
L 391.522098 242.429183 
L 391.909052 239.451214 
L 392.296006 233.79746 
L 392.68296 231.78013 
L 393.069914 231.196674 
L 393.843823 219.456802 
L 394.230777 216.307511 
L 394.617731 221.444408 
L 395.004685 224.156108 
L 395.391639 228.667993 
L 395.778594 231.682156 
L 396.165548 230.419603 
L 396.552502 227.524609 
L 396.939456 223.680674 
L 397.32641 226.376824 
L 397.713364 224.071342 
L 398.100319 225.315316 
L 398.487273 224.950242 
L 398.487273 224.950242 
" style="fill:none;opacity:0.6;stroke:#1f77b4;stroke-linecap:square;stroke-width:0.5;"/>
   </g>
   <g id="line2d_15">
    <path clip-path="url(#p0eeb216650)" d="M 73.832727 150.558895 
L 74.219681 119.73167 
L 74.606636 136.612986 
L 74.99359 145.711686 
L 75.767498 122.306803 
L 76.154452 119.238417 
L 76.541406 125.778008 
L 78.089223 218.516904 
L 78.476177 237.331667 
L 78.863131 245.897652 
L 79.250086 242.279594 
L 79.63704 248.111573 
L 80.023994 260.071208 
L 81.184856 284.040269 
L 81.571811 282.258872 
L 81.958765 279.332376 
L 82.345719 275.17786 
L 82.732673 273.604258 
L 83.119627 245.769021 
L 83.506581 268.132452 
L 83.893536 272.365288 
L 85.054398 258.213441 
L 85.828306 226.777826 
L 86.602215 208.267878 
L 86.989169 194.892255 
L 88.150031 124.673892 
L 88.536986 119.665148 
L 88.92394 120.640563 
L 89.310894 125.325753 
L 89.697848 133.692723 
L 90.471756 158.084958 
L 90.858711 163.857025 
L 91.245665 166.915325 
L 91.632619 166.77841 
L 92.019573 175.308786 
L 92.406527 200.742764 
L 93.180436 225.867498 
L 93.56739 229.541644 
L 93.954344 228.202326 
L 94.341298 224.355274 
L 95.115206 211.715927 
L 95.502161 217.664936 
L 96.276069 235.188031 
L 96.663023 239.030882 
L 97.436931 241.670876 
L 97.823886 241.714436 
L 98.21084 242.654324 
L 98.597794 244.304277 
L 98.984748 244.203441 
L 99.371702 244.930147 
L 99.758656 242.588185 
L 100.145611 237.185122 
L 100.532565 234.95861 
L 101.306473 244.346603 
L 101.693427 225.623221 
L 102.080381 236.811633 
L 102.467336 240.753174 
L 102.85429 242.451158 
L 103.241244 243.079233 
L 103.628198 244.30426 
L 104.402106 251.766416 
L 105.176015 261.219615 
L 105.949923 254.447198 
L 106.336877 255.528161 
L 106.723831 258.230209 
L 107.110786 258.94037 
L 107.49774 256.583491 
L 107.884694 256.522146 
L 108.271648 258.979776 
L 109.045556 254.840355 
L 109.819465 248.241877 
L 110.206419 246.298172 
L 110.593373 245.557014 
L 110.980327 231.959258 
L 111.367281 250.485834 
L 111.754236 254.183006 
L 112.915098 235.106109 
L 113.689006 223.58073 
L 114.075961 225.669658 
L 114.462915 222.12533 
L 114.849869 216.619724 
L 115.236823 209.174196 
L 115.623777 206.640605 
L 116.010731 205.788874 
L 116.397686 206.625753 
L 116.78464 206.721068 
L 117.171594 207.463308 
L 117.558548 206.929534 
L 117.945502 206.700284 
L 118.332456 204.897388 
L 118.719411 205.864861 
L 119.106365 213.310825 
L 119.493319 215.633682 
L 119.880273 215.236266 
L 120.267227 206.793528 
L 120.654181 209.499179 
L 121.041136 207.648363 
L 121.42809 204.769328 
L 121.815044 205.401205 
L 122.975906 223.451695 
L 123.362861 226.92347 
L 124.136769 230.533864 
L 124.523723 231.49322 
L 125.297631 239.554121 
L 125.684586 245.683916 
L 126.07154 249.410232 
L 126.458494 248.657368 
L 127.232402 240.396118 
L 127.619356 239.626748 
L 128.006311 237.77447 
L 128.393265 233.378072 
L 128.780219 231.134519 
L 129.167173 229.903219 
L 129.554127 224.781204 
L 129.941081 236.846433 
L 130.328036 238.212457 
L 130.71499 230.590824 
L 131.101944 227.55131 
L 131.488898 229.006835 
L 131.875852 233.55606 
L 132.262806 234.77845 
L 132.649761 236.87974 
L 133.036715 236.754619 
L 133.423669 233.08202 
L 133.810623 230.574713 
L 134.197577 230.183449 
L 135.35844 238.884071 
L 135.745394 240.243235 
L 136.132348 240.91463 
L 136.519302 236.762273 
L 136.906256 235.361308 
L 137.293211 236.083401 
L 137.680165 241.096893 
L 138.067119 244.100748 
L 138.454073 243.929721 
L 138.841027 228.888543 
L 139.227981 243.370974 
L 139.614936 244.701148 
L 140.00189 237.600281 
L 140.388844 234.632725 
L 140.775798 235.779216 
L 141.162752 238.993126 
L 141.549706 239.133171 
L 141.936661 236.531637 
L 142.323615 235.057914 
L 142.710569 232.29634 
L 143.097523 231.153825 
L 143.484477 232.283233 
L 144.258386 238.813566 
L 144.64534 241.062037 
L 145.032294 240.919371 
L 145.806202 231.99037 
L 146.193156 230.124053 
L 146.580111 235.818757 
L 146.967065 238.70754 
L 147.354019 236.987013 
L 147.740973 231.258892 
L 148.127927 221.776303 
L 148.514881 234.687722 
L 148.901836 238.518325 
L 149.28879 234.804214 
L 149.675744 232.432074 
L 150.062698 234.249167 
L 150.449652 238.062247 
L 150.836606 240.52972 
L 151.223561 240.18961 
L 151.610515 238.724774 
L 151.997469 234.374042 
L 152.384423 232.486629 
L 153.545286 237.735668 
L 153.93224 235.912959 
L 154.706148 227.020403 
L 155.093102 225.570748 
L 155.867011 230.297807 
L 156.253965 231.061932 
L 156.640919 230.118981 
L 157.027873 227.483128 
L 157.414827 219.662975 
L 157.801781 224.483108 
L 158.188736 220.906894 
L 158.57569 214.75448 
L 158.962644 214.302556 
L 159.349598 218.437318 
L 159.736552 218.682944 
L 160.123506 211.043453 
L 160.510461 205.875609 
L 160.897415 203.341063 
L 161.284369 203.250689 
L 161.671323 205.236953 
L 162.058277 209.537203 
L 162.832186 220.004933 
L 163.21914 220.929476 
L 163.606094 222.275073 
L 163.993048 219.933371 
L 164.380002 216.854241 
L 164.766956 217.534733 
L 165.15391 219.362553 
L 165.540865 219.195317 
L 166.314773 206.786221 
L 166.701727 205.596525 
L 167.088681 205.271537 
L 168.249544 196.282761 
L 168.636498 195.116178 
L 169.023452 193.031463 
L 169.410406 192.85981 
L 169.79736 193.937437 
L 170.184315 193.055603 
L 170.571269 194.547027 
L 171.732131 191.278524 
L 172.50604 180.584878 
L 172.892994 178.392656 
L 173.666902 179.785327 
L 174.053856 179.762493 
L 174.44081 176.997492 
L 174.827765 175.933927 
L 175.214719 174.149841 
L 175.601673 173.91183 
L 175.988627 183.798118 
L 176.375581 165.423232 
L 176.762535 163.253144 
L 177.14949 168.489708 
L 177.536444 170.20558 
L 177.923398 170.070994 
L 179.08426 179.034819 
L 179.471215 180.446958 
L 179.858169 184.276108 
L 180.245123 186.88651 
L 180.632077 187.276239 
L 181.019031 189.470947 
L 181.79294 197.234226 
L 182.179894 197.00926 
L 182.566848 196.119993 
L 182.953802 196.422944 
L 183.72771 197.763102 
L 184.114665 199.890474 
L 184.888573 208.632339 
L 185.275527 208.866514 
L 185.662481 206.631291 
L 186.049435 205.815235 
L 186.43639 205.514987 
L 186.823344 208.144782 
L 187.210298 211.893538 
L 187.597252 214.197409 
L 187.984206 215.084777 
L 188.37116 213.948332 
L 188.758115 213.233959 
L 189.145069 210.896702 
L 189.532023 209.538886 
L 189.918977 206.701904 
L 190.305931 202.685777 
L 191.07984 180.566676 
L 191.466794 175.030985 
L 191.853748 171.477707 
L 192.240702 172.530281 
L 192.627656 159.824136 
L 193.401565 143.38436 
L 193.788519 140.137131 
L 194.175473 133.829206 
L 194.562427 155.349478 
L 194.949381 118.765611 
L 195.336335 108.35571 
L 195.72329 112.283081 
L 196.884152 98.714795 
L 197.271106 101.747931 
L 197.65806 96.962939 
L 198.431969 93.820302 
L 198.818923 94.810101 
L 199.205877 96.179596 
L 199.592831 100.354131 
L 201.140648 131.395175 
L 201.527602 130.755505 
L 201.914556 136.008592 
L 202.688465 153.921853 
L 203.075419 157.67679 
L 203.462373 160.217133 
L 203.849327 179.206222 
L 204.236281 163.597958 
L 204.623235 163.861553 
L 205.01019 171.518645 
L 205.397144 170.090633 
L 205.784098 169.432355 
L 206.558006 178.049718 
L 207.331915 182.746863 
L 207.718869 190.665056 
L 208.105823 195.161611 
L 208.492777 191.162954 
L 209.266685 165.895481 
L 209.65364 158.718885 
L 210.040594 159.132873 
L 210.814502 163.674146 
L 211.201456 163.842157 
L 211.58841 163.833325 
L 211.975365 164.125489 
L 212.362319 163.575209 
L 212.749273 165.440995 
L 213.136227 178.15372 
L 213.523181 163.183157 
L 213.910135 161.184491 
L 214.29709 164.172864 
L 215.070998 150.872805 
L 215.457952 146.53138 
L 215.844906 146.023128 
L 216.618815 135.739394 
L 217.392723 136.982669 
L 217.779677 132.60219 
L 218.553585 116.000348 
L 218.94054 112.056008 
L 219.327494 109.892094 
L 220.101402 102.071446 
L 220.488356 97.053437 
L 221.649219 87.24957 
L 222.036173 80.925188 
L 222.423127 127.325534 
L 222.810081 78.926851 
L 223.197035 62.214077 
L 223.970944 57.3428 
L 224.357898 58.886927 
L 225.131806 75.403651 
L 225.51876 80.098171 
L 226.679623 89.754165 
L 227.453531 99.911666 
L 228.614394 122.204795 
L 229.001348 125.214034 
L 229.775256 111.734304 
L 230.16221 108.603373 
L 230.549165 113.424742 
L 231.323073 131.822522 
L 231.710027 166.00821 
L 232.096981 143.59827 
L 232.483935 147.512282 
L 232.87089 160.203105 
L 233.257844 160.611751 
L 233.644798 155.736182 
L 234.031752 159.043674 
L 234.418706 169.940332 
L 234.80566 184.757103 
L 235.192615 191.850845 
L 235.966523 210.772362 
L 236.353477 212.695542 
L 237.51434 203.42664 
L 237.901294 206.556029 
L 238.288248 216.354565 
L 238.675202 222.448872 
L 239.062156 221.89497 
L 239.44911 215.336571 
L 239.836065 211.503874 
L 240.223019 209.825073 
L 240.609973 206.088544 
L 240.996927 200.103945 
L 241.383881 192.142845 
L 241.770835 186.601938 
L 242.15779 188.178414 
L 242.544744 192.306289 
L 242.931698 194.606528 
L 243.318652 195.062937 
L 243.705606 195.990269 
L 244.479515 199.031351 
L 245.253423 203.780139 
L 245.640377 208.204621 
L 246.027331 208.306523 
L 246.414285 204.172713 
L 246.80124 202.971895 
L 247.188194 204.741418 
L 247.575148 205.778565 
L 248.349056 208.609963 
L 248.73601 209.472827 
L 249.122965 208.888709 
L 249.896873 202.259581 
L 250.283827 202.822315 
L 250.670781 206.943927 
L 251.44469 230.612535 
L 251.831644 233.270558 
L 252.218598 231.118259 
L 252.605552 230.616737 
L 252.992506 232.930676 
L 253.37946 233.280538 
L 253.766415 234.154437 
L 254.153369 236.981898 
L 254.540323 238.272689 
L 254.927277 234.602338 
L 255.314231 226.494582 
L 256.08814 204.971567 
L 256.475094 201.432653 
L 256.862048 201.336866 
L 257.249002 200.08031 
L 257.635956 194.596981 
L 258.02291 190.757608 
L 258.409865 190.255097 
L 258.796819 191.814743 
L 259.570727 201.487708 
L 259.957681 199.724878 
L 260.344635 200.739887 
L 260.73159 200.351129 
L 261.118544 198.904527 
L 261.505498 198.540316 
L 261.892452 197.945982 
L 262.66636 198.782238 
L 263.053315 199.001981 
L 263.440269 199.66142 
L 263.827223 197.978416 
L 265.761994 183.019565 
L 266.148948 182.936311 
L 266.535902 184.450071 
L 267.30981 192.826293 
L 267.696765 193.169638 
L 268.083719 192.180253 
L 268.470673 192.436301 
L 268.857627 192.216926 
L 269.244581 181.477321 
L 269.631535 178.918474 
L 270.405444 191.982544 
L 270.792398 191.934762 
L 271.179352 188.777683 
L 271.95326 172.397565 
L 272.340215 168.437773 
L 272.727169 171.938518 
L 273.114123 174.322937 
L 273.501077 177.983905 
L 273.888031 180.510154 
L 274.274985 185.145468 
L 274.66194 188.308525 
L 275.048894 188.774001 
L 275.435848 192.438539 
L 276.209756 205.825901 
L 276.983665 213.249378 
L 277.370619 213.068362 
L 278.144527 213.681545 
L 278.531481 217.978695 
L 278.918435 214.962543 
L 279.30539 210.376419 
L 279.692344 210.39674 
L 280.079298 212.273202 
L 280.466252 212.061333 
L 280.853206 212.098078 
L 281.24016 214.005287 
L 281.627115 213.246459 
L 282.014069 211.836261 
L 282.401023 212.258618 
L 283.174931 211.36293 
L 283.561885 212.453913 
L 283.94884 212.233333 
L 284.335794 211.035648 
L 284.722748 211.726603 
L 285.496656 215.20522 
L 285.88361 216.399145 
L 286.270565 216.899179 
L 286.657519 217.127098 
L 287.044473 216.423492 
L 287.431427 215.466659 
L 287.818381 221.715253 
L 288.205335 221.488633 
L 288.59229 220.526177 
L 288.979244 221.630732 
L 289.366198 221.258195 
L 290.140106 215.559618 
L 290.52706 214.760071 
L 290.914015 218.005972 
L 291.300969 218.958549 
L 291.687923 218.015325 
L 292.074877 215.416862 
L 292.461831 214.470069 
L 292.848785 215.28453 
L 293.622694 212.404733 
L 294.009648 212.70717 
L 295.17051 217.842042 
L 295.557465 217.365174 
L 295.944419 218.315321 
L 296.331373 219.983568 
L 296.718327 212.721595 
L 297.105281 218.096076 
L 297.492235 218.270879 
L 297.87919 215.747734 
L 298.266144 214.569753 
L 298.653098 214.971464 
L 299.040052 215.101641 
L 299.427006 215.872031 
L 299.81396 215.55529 
L 300.200915 214.760973 
L 300.974823 207.901305 
L 301.361777 209.71777 
L 302.135685 216.232751 
L 302.909594 223.613837 
L 303.296548 224.690118 
L 303.683502 224.656769 
L 304.070456 223.417247 
L 304.45741 223.927989 
L 305.618273 229.397757 
L 306.005227 221.863297 
L 306.392181 234.537959 
L 306.779135 238.612632 
L 307.16609 235.733734 
L 307.553044 231.966618 
L 307.939998 231.081755 
L 308.326952 230.757572 
L 308.713906 231.476219 
L 309.10086 234.044503 
L 309.487814 235.026857 
L 309.874769 232.521278 
L 310.261723 228.752623 
L 310.648677 227.726345 
L 311.422585 231.228378 
L 311.809539 227.129788 
L 312.196494 224.594092 
L 312.583448 224.773133 
L 312.970402 223.557345 
L 313.74431 217.990545 
L 314.131264 218.439736 
L 314.518219 219.197456 
L 314.905173 218.079183 
L 315.292127 212.703164 
L 315.679081 213.999336 
L 316.066035 207.54675 
L 316.452989 207.915508 
L 316.839944 210.40943 
L 317.613852 203.653342 
L 318.38776 209.203209 
L 318.774714 210.021391 
L 319.161669 208.297845 
L 319.548623 207.796739 
L 319.935577 206.517358 
L 320.322531 206.179121 
L 320.709485 210.499125 
L 321.096439 212.852707 
L 321.483394 209.684765 
L 321.870348 208.78119 
L 322.644256 217.077006 
L 323.03121 219.062076 
L 323.805119 227.821504 
L 324.192073 232.243195 
L 324.579027 225.112489 
L 324.965981 239.048926 
L 325.352935 240.937934 
L 325.739889 234.098797 
L 326.126844 233.702185 
L 326.513798 237.479537 
L 326.900752 237.07234 
L 327.287706 232.233136 
L 327.67466 231.857323 
L 328.061614 229.39846 
L 328.835523 215.561376 
L 329.222477 212.978245 
L 329.609431 211.698378 
L 329.996385 212.058961 
L 330.770294 226.454117 
L 331.157248 229.210028 
L 331.931156 223.892041 
L 332.31811 223.370137 
L 332.705064 226.986252 
L 333.092019 229.555963 
L 333.478973 228.384324 
L 333.865927 218.822831 
L 334.252881 230.515458 
L 334.639835 233.989319 
L 335.026789 227.08338 
L 335.413744 217.000159 
L 335.800698 210.462061 
L 336.187652 211.336808 
L 336.574606 216.906843 
L 336.96156 220.808715 
L 337.348514 215.967401 
L 337.735469 205.632634 
L 338.122423 202.040846 
L 338.896331 214.453185 
L 339.283285 215.373309 
L 339.670239 212.775736 
L 340.057194 214.147321 
L 340.444148 217.113003 
L 340.831102 213.504377 
L 341.218056 205.780297 
L 341.60501 194.606981 
L 341.991964 193.253096 
L 342.378919 202.785475 
L 342.765873 208.585177 
L 343.152827 202.434905 
L 343.539781 202.95425 
L 343.926735 206.238796 
L 344.313689 206.35872 
L 345.087598 196.369624 
L 345.474552 196.035216 
L 345.861506 199.730318 
L 346.635414 234.717449 
L 347.022369 237.072176 
L 347.409323 227.326401 
L 347.796277 223.740644 
L 348.183231 222.809766 
L 348.570185 220.120739 
L 348.957139 218.766897 
L 349.344094 218.053271 
L 349.731048 216.829576 
L 350.118002 216.00308 
L 350.504956 218.46446 
L 350.89191 215.480189 
L 351.278864 208.463511 
L 351.665819 198.575047 
L 352.052773 197.039096 
L 352.439727 200.064201 
L 352.826681 196.905501 
L 353.213635 198.013462 
L 353.600589 200.223593 
L 353.987544 198.784633 
L 354.761452 179.659468 
L 355.148406 178.380268 
L 355.53536 184.598705 
L 355.922314 199.796781 
L 356.696223 251.343773 
L 357.083177 259.246297 
L 357.470131 257.167192 
L 357.857085 258.261466 
L 359.017948 269.581146 
L 359.404902 272.812136 
L 359.791856 270.605925 
L 360.17881 265.338002 
L 360.565764 254.205673 
L 361.339673 215.929878 
L 361.726627 214.098305 
L 362.113581 223.572443 
L 362.500535 226.317411 
L 362.887489 224.736162 
L 363.274444 224.959189 
L 363.661398 233.208273 
L 364.048352 237.475065 
L 364.435306 239.132298 
L 365.209214 240.158003 
L 365.596169 239.371041 
L 366.757031 225.443104 
L 367.143985 219.369424 
L 367.917894 204.557347 
L 368.304848 202.287209 
L 368.691802 202.162479 
L 369.078756 201.111765 
L 369.46571 200.412578 
L 370.239619 208.095586 
L 370.626573 212.830099 
L 371.013527 210.933713 
L 371.787435 219.007384 
L 372.174389 221.960455 
L 372.561344 227.445723 
L 373.335252 234.346906 
L 373.722206 233.658868 
L 374.496114 227.687082 
L 374.883069 228.404144 
L 375.270023 229.392345 
L 375.656977 229.840789 
L 376.043931 226.470114 
L 376.430885 227.881595 
L 376.817839 233.361491 
L 377.204794 235.536763 
L 377.978702 229.010637 
L 378.365656 230.516215 
L 379.139564 239.53728 
L 379.526519 238.006008 
L 379.913473 234.236575 
L 380.300427 222.226055 
L 380.687381 237.157074 
L 381.074335 238.965829 
L 381.848244 224.182014 
L 382.235198 224.343365 
L 383.39606 231.73356 
L 383.783014 232.786754 
L 384.169969 233.347751 
L 384.556923 237.301063 
L 384.943877 248.006993 
L 385.330831 255.378847 
L 385.717785 256.811705 
L 386.104739 255.88164 
L 386.491694 253.688707 
L 387.265602 247.759232 
L 387.652556 246.602223 
L 388.03951 248.842603 
L 388.426464 249.727494 
L 388.813419 246.340541 
L 389.200373 241.590158 
L 389.587327 224.025938 
L 389.974281 239.494174 
L 390.361235 245.190736 
L 390.748189 241.191837 
L 391.135144 238.727888 
L 391.522098 239.027899 
L 391.909052 241.277935 
L 392.296006 240.52763 
L 393.456869 228.399851 
L 394.230777 216.630016 
L 394.617731 214.195129 
L 396.165548 229.718907 
L 396.552502 230.321616 
L 396.939456 228.474408 
L 397.32641 225.713024 
L 397.713364 226.863806 
L 398.100319 227.293017 
L 398.487273 226.545373 
L 398.487273 226.545373 
" style="fill:none;opacity:0.6;stroke:#ff7f0e;stroke-linecap:square;stroke-width:0.5;"/>
   </g>
   <g id="patch_3">
    <path d="M 57.6 307.584 
L 57.6 41.472 
" style="fill:none;stroke:#000000;stroke-linecap:square;stroke-linejoin:miter;stroke-width:0.8;"/>
   </g>
   <g id="patch_4">
    <path d="M 414.72 307.584 
L 414.72 41.472 
" style="fill:none;stroke:#000000;stroke-linecap:square;stroke-linejoin:miter;stroke-width:0.8;"/>
   </g>
   <g id="patch_5">
    <path d="M 57.6 307.584 
L 414.72 307.584 
" style="fill:none;stroke:#000000;stroke-linecap:square;stroke-linejoin:miter;stroke-width:0.8;"/>
   </g>
   <g id="patch_6">
    <path d="M 57.6 41.472 
L 414.72 41.472 
" style="fill:none;stroke:#000000;stroke-linecap:square;stroke-linejoin:miter;stroke-width:0.8;"/>
   </g>
  </g>
 </g>
 <defs>
  <clipPath id="p0eeb216650">
   <rect height="266.112" width="357.12" x="57.6" y="41.472"/>
  </clipPath>
 </defs>
</svg>
