<?xml version="1.0" encoding="utf-8" standalone="no"?>
<!DOCTYPE svg PUBLIC "-//W3C//DTD SVG 1.1//EN"
  "http://www.w3.org/Graphics/SVG/1.1/DTD/svg11.dtd">
<!-- Created with matplotlib (http://matplotlib.org/) -->
<svg height="345.6pt" version="1.1" viewBox="0 0 460.8 345.6" width="460.8pt" xmlns="http://www.w3.org/2000/svg" xmlns:xlink="http://www.w3.org/1999/xlink">
 <defs>
  <style type="text/css">
*{stroke-linecap:butt;stroke-linejoin:round;}
  </style>
 </defs>
 <g id="figure_1">
  <g id="patch_1">
   <path d="M 0 345.6 
L 460.8 345.6 
L 460.8 0 
L 0 0 
z
" style="fill:#ffffff;"/>
  </g>
  <g id="axes_1">
   <g id="patch_2">
    <path d="M 57.6 307.584 
L 414.72 307.584 
L 414.72 41.472 
L 57.6 41.472 
z
" style="fill:#ffffff;"/>
   </g>
   <g id="matplotlib.axis_1">
    <g id="xtick_1">
     <g id="line2d_1">
      <defs>
       <path d="M 0 0 
L 0 3.5 
" id="m7d9df1e0c1" style="stroke:#000000;stroke-width:0.8;"/>
      </defs>
      <g>
       <use style="stroke:#000000;stroke-width:0.8;" x="73.832727" xlink:href="#m7d9df1e0c1" y="307.584"/>
      </g>
     </g>
     <g id="text_1">
      <!-- 0 -->
      <defs>
       <path d="M 31.78125 66.40625 
Q 24.171875 66.40625 20.328125 58.90625 
Q 16.5 51.421875 16.5 36.375 
Q 16.5 21.390625 20.328125 13.890625 
Q 24.171875 6.390625 31.78125 6.390625 
Q 39.453125 6.390625 43.28125 13.890625 
Q 47.125 21.390625 47.125 36.375 
Q 47.125 51.421875 43.28125 58.90625 
Q 39.453125 66.40625 31.78125 66.40625 
z
M 31.78125 74.21875 
Q 44.046875 74.21875 50.515625 64.515625 
Q 56.984375 54.828125 56.984375 36.375 
Q 56.984375 17.96875 50.515625 8.265625 
Q 44.046875 -1.421875 31.78125 -1.421875 
Q 19.53125 -1.421875 13.0625 8.265625 
Q 6.59375 17.96875 6.59375 36.375 
Q 6.59375 54.828125 13.0625 64.515625 
Q 19.53125 74.21875 31.78125 74.21875 
z
" id="DejaVuSans-30"/>
      </defs>
      <g transform="translate(70.651477 322.182437)scale(0.1 -0.1)">
       <use xlink:href="#DejaVuSans-30"/>
      </g>
     </g>
    </g>
    <g id="xtick_2">
     <g id="line2d_2">
      <g>
       <use style="stroke:#000000;stroke-width:0.8;" x="149.158608" xlink:href="#m7d9df1e0c1" y="307.584"/>
      </g>
     </g>
     <g id="text_2">
      <!-- 100 -->
      <defs>
       <path d="M 12.40625 8.296875 
L 28.515625 8.296875 
L 28.515625 63.921875 
L 10.984375 60.40625 
L 10.984375 69.390625 
L 28.421875 72.90625 
L 38.28125 72.90625 
L 38.28125 8.296875 
L 54.390625 8.296875 
L 54.390625 0 
L 12.40625 0 
z
" id="DejaVuSans-31"/>
      </defs>
      <g transform="translate(139.614858 322.182437)scale(0.1 -0.1)">
       <use xlink:href="#DejaVuSans-31"/>
       <use x="63.623047" xlink:href="#DejaVuSans-30"/>
       <use x="127.246094" xlink:href="#DejaVuSans-30"/>
      </g>
     </g>
    </g>
    <g id="xtick_3">
     <g id="line2d_3">
      <g>
       <use style="stroke:#000000;stroke-width:0.8;" x="224.484489" xlink:href="#m7d9df1e0c1" y="307.584"/>
      </g>
     </g>
     <g id="text_3">
      <!-- 200 -->
      <defs>
       <path d="M 19.1875 8.296875 
L 53.609375 8.296875 
L 53.609375 0 
L 7.328125 0 
L 7.328125 8.296875 
Q 12.9375 14.109375 22.625 23.890625 
Q 32.328125 33.6875 34.8125 36.53125 
Q 39.546875 41.84375 41.421875 45.53125 
Q 43.3125 49.21875 43.3125 52.78125 
Q 43.3125 58.59375 39.234375 62.25 
Q 35.15625 65.921875 28.609375 65.921875 
Q 23.96875 65.921875 18.8125 64.3125 
Q 13.671875 62.703125 7.8125 59.421875 
L 7.8125 69.390625 
Q 13.765625 71.78125 18.9375 73 
Q 24.125 74.21875 28.421875 74.21875 
Q 39.75 74.21875 46.484375 68.546875 
Q 53.21875 62.890625 53.21875 53.421875 
Q 53.21875 48.921875 51.53125 44.890625 
Q 49.859375 40.875 45.40625 35.40625 
Q 44.1875 33.984375 37.640625 27.21875 
Q 31.109375 20.453125 19.1875 8.296875 
z
" id="DejaVuSans-32"/>
      </defs>
      <g transform="translate(214.940739 322.182437)scale(0.1 -0.1)">
       <use xlink:href="#DejaVuSans-32"/>
       <use x="63.623047" xlink:href="#DejaVuSans-30"/>
       <use x="127.246094" xlink:href="#DejaVuSans-30"/>
      </g>
     </g>
    </g>
    <g id="xtick_4">
     <g id="line2d_4">
      <g>
       <use style="stroke:#000000;stroke-width:0.8;" x="299.810369" xlink:href="#m7d9df1e0c1" y="307.584"/>
      </g>
     </g>
     <g id="text_4">
      <!-- 300 -->
      <defs>
       <path d="M 40.578125 39.3125 
Q 47.65625 37.796875 51.625 33 
Q 55.609375 28.21875 55.609375 21.1875 
Q 55.609375 10.40625 48.1875 4.484375 
Q 40.765625 -1.421875 27.09375 -1.421875 
Q 22.515625 -1.421875 17.65625 -0.515625 
Q 12.796875 0.390625 7.625 2.203125 
L 7.625 11.71875 
Q 11.71875 9.328125 16.59375 8.109375 
Q 21.484375 6.890625 26.8125 6.890625 
Q 36.078125 6.890625 40.9375 10.546875 
Q 45.796875 14.203125 45.796875 21.1875 
Q 45.796875 27.640625 41.28125 31.265625 
Q 36.765625 34.90625 28.71875 34.90625 
L 20.21875 34.90625 
L 20.21875 43.015625 
L 29.109375 43.015625 
Q 36.375 43.015625 40.234375 45.921875 
Q 44.09375 48.828125 44.09375 54.296875 
Q 44.09375 59.90625 40.109375 62.90625 
Q 36.140625 65.921875 28.71875 65.921875 
Q 24.65625 65.921875 20.015625 65.03125 
Q 15.375 64.15625 9.8125 62.3125 
L 9.8125 71.09375 
Q 15.4375 72.65625 20.34375 73.4375 
Q 25.25 74.21875 29.59375 74.21875 
Q 40.828125 74.21875 47.359375 69.109375 
Q 53.90625 64.015625 53.90625 55.328125 
Q 53.90625 49.265625 50.4375 45.09375 
Q 46.96875 40.921875 40.578125 39.3125 
z
" id="DejaVuSans-33"/>
      </defs>
      <g transform="translate(290.266619 322.182437)scale(0.1 -0.1)">
       <use xlink:href="#DejaVuSans-33"/>
       <use x="63.623047" xlink:href="#DejaVuSans-30"/>
       <use x="127.246094" xlink:href="#DejaVuSans-30"/>
      </g>
     </g>
    </g>
    <g id="xtick_5">
     <g id="line2d_5">
      <g>
       <use style="stroke:#000000;stroke-width:0.8;" x="375.13625" xlink:href="#m7d9df1e0c1" y="307.584"/>
      </g>
     </g>
     <g id="text_5">
      <!-- 400 -->
      <defs>
       <path d="M 37.796875 64.3125 
L 12.890625 25.390625 
L 37.796875 25.390625 
z
M 35.203125 72.90625 
L 47.609375 72.90625 
L 47.609375 25.390625 
L 58.015625 25.390625 
L 58.015625 17.1875 
L 47.609375 17.1875 
L 47.609375 0 
L 37.796875 0 
L 37.796875 17.1875 
L 4.890625 17.1875 
L 4.890625 26.703125 
z
" id="DejaVuSans-34"/>
      </defs>
      <g transform="translate(365.5925 322.182437)scale(0.1 -0.1)">
       <use xlink:href="#DejaVuSans-34"/>
       <use x="63.623047" xlink:href="#DejaVuSans-30"/>
       <use x="127.246094" xlink:href="#DejaVuSans-30"/>
      </g>
     </g>
    </g>
   </g>
   <g id="matplotlib.axis_2">
    <g id="ytick_1">
     <g id="line2d_6">
      <defs>
       <path d="M 0 0 
L -3.5 0 
" id="mc44fcae00d" style="stroke:#000000;stroke-width:0.8;"/>
      </defs>
      <g>
       <use style="stroke:#000000;stroke-width:0.8;" x="57.6" xlink:href="#mc44fcae00d" y="288.576"/>
      </g>
     </g>
     <g id="text_6">
      <!-- 4 -->
      <g transform="translate(44.2375 292.375219)scale(0.1 -0.1)">
       <use xlink:href="#DejaVuSans-34"/>
      </g>
     </g>
    </g>
    <g id="ytick_2">
     <g id="line2d_7">
      <g>
       <use style="stroke:#000000;stroke-width:0.8;" x="57.6" xlink:href="#mc44fcae00d" y="254.016"/>
      </g>
     </g>
     <g id="text_7">
      <!-- 5 -->
      <defs>
       <path d="M 10.796875 72.90625 
L 49.515625 72.90625 
L 49.515625 64.59375 
L 19.828125 64.59375 
L 19.828125 46.734375 
Q 21.96875 47.46875 24.109375 47.828125 
Q 26.265625 48.1875 28.421875 48.1875 
Q 40.625 48.1875 47.75 41.5 
Q 54.890625 34.8125 54.890625 23.390625 
Q 54.890625 11.625 47.5625 5.09375 
Q 40.234375 -1.421875 26.90625 -1.421875 
Q 22.3125 -1.421875 17.546875 -0.640625 
Q 12.796875 0.140625 7.71875 1.703125 
L 7.71875 11.625 
Q 12.109375 9.234375 16.796875 8.0625 
Q 21.484375 6.890625 26.703125 6.890625 
Q 35.15625 6.890625 40.078125 11.328125 
Q 45.015625 15.765625 45.015625 23.390625 
Q 45.015625 31 40.078125 35.4375 
Q 35.15625 39.890625 26.703125 39.890625 
Q 22.75 39.890625 18.8125 39.015625 
Q 14.890625 38.140625 10.796875 36.28125 
z
" id="DejaVuSans-35"/>
      </defs>
      <g transform="translate(44.2375 257.815219)scale(0.1 -0.1)">
       <use xlink:href="#DejaVuSans-35"/>
      </g>
     </g>
    </g>
    <g id="ytick_3">
     <g id="line2d_8">
      <g>
       <use style="stroke:#000000;stroke-width:0.8;" x="57.6" xlink:href="#mc44fcae00d" y="219.456"/>
      </g>
     </g>
     <g id="text_8">
      <!-- 6 -->
      <defs>
       <path d="M 33.015625 40.375 
Q 26.375 40.375 22.484375 35.828125 
Q 18.609375 31.296875 18.609375 23.390625 
Q 18.609375 15.53125 22.484375 10.953125 
Q 26.375 6.390625 33.015625 6.390625 
Q 39.65625 6.390625 43.53125 10.953125 
Q 47.40625 15.53125 47.40625 23.390625 
Q 47.40625 31.296875 43.53125 35.828125 
Q 39.65625 40.375 33.015625 40.375 
z
M 52.59375 71.296875 
L 52.59375 62.3125 
Q 48.875 64.0625 45.09375 64.984375 
Q 41.3125 65.921875 37.59375 65.921875 
Q 27.828125 65.921875 22.671875 59.328125 
Q 17.53125 52.734375 16.796875 39.40625 
Q 19.671875 43.65625 24.015625 45.921875 
Q 28.375 48.1875 33.59375 48.1875 
Q 44.578125 48.1875 50.953125 41.515625 
Q 57.328125 34.859375 57.328125 23.390625 
Q 57.328125 12.15625 50.6875 5.359375 
Q 44.046875 -1.421875 33.015625 -1.421875 
Q 20.359375 -1.421875 13.671875 8.265625 
Q 6.984375 17.96875 6.984375 36.375 
Q 6.984375 53.65625 15.1875 63.9375 
Q 23.390625 74.21875 37.203125 74.21875 
Q 40.921875 74.21875 44.703125 73.484375 
Q 48.484375 72.75 52.59375 71.296875 
z
" id="DejaVuSans-36"/>
      </defs>
      <g transform="translate(44.2375 223.255219)scale(0.1 -0.1)">
       <use xlink:href="#DejaVuSans-36"/>
      </g>
     </g>
    </g>
    <g id="ytick_4">
     <g id="line2d_9">
      <g>
       <use style="stroke:#000000;stroke-width:0.8;" x="57.6" xlink:href="#mc44fcae00d" y="184.896"/>
      </g>
     </g>
     <g id="text_9">
      <!-- 7 -->
      <defs>
       <path d="M 8.203125 72.90625 
L 55.078125 72.90625 
L 55.078125 68.703125 
L 28.609375 0 
L 18.3125 0 
L 43.21875 64.59375 
L 8.203125 64.59375 
z
" id="DejaVuSans-37"/>
      </defs>
      <g transform="translate(44.2375 188.695219)scale(0.1 -0.1)">
       <use xlink:href="#DejaVuSans-37"/>
      </g>
     </g>
    </g>
    <g id="ytick_5">
     <g id="line2d_10">
      <g>
       <use style="stroke:#000000;stroke-width:0.8;" x="57.6" xlink:href="#mc44fcae00d" y="150.336"/>
      </g>
     </g>
     <g id="text_10">
      <!-- 8 -->
      <defs>
       <path d="M 31.78125 34.625 
Q 24.75 34.625 20.71875 30.859375 
Q 16.703125 27.09375 16.703125 20.515625 
Q 16.703125 13.921875 20.71875 10.15625 
Q 24.75 6.390625 31.78125 6.390625 
Q 38.8125 6.390625 42.859375 10.171875 
Q 46.921875 13.96875 46.921875 20.515625 
Q 46.921875 27.09375 42.890625 30.859375 
Q 38.875 34.625 31.78125 34.625 
z
M 21.921875 38.8125 
Q 15.578125 40.375 12.03125 44.71875 
Q 8.5 49.078125 8.5 55.328125 
Q 8.5 64.0625 14.71875 69.140625 
Q 20.953125 74.21875 31.78125 74.21875 
Q 42.671875 74.21875 48.875 69.140625 
Q 55.078125 64.0625 55.078125 55.328125 
Q 55.078125 49.078125 51.53125 44.71875 
Q 48 40.375 41.703125 38.8125 
Q 48.828125 37.15625 52.796875 32.3125 
Q 56.78125 27.484375 56.78125 20.515625 
Q 56.78125 9.90625 50.3125 4.234375 
Q 43.84375 -1.421875 31.78125 -1.421875 
Q 19.734375 -1.421875 13.25 4.234375 
Q 6.78125 9.90625 6.78125 20.515625 
Q 6.78125 27.484375 10.78125 32.3125 
Q 14.796875 37.15625 21.921875 38.8125 
z
M 18.3125 54.390625 
Q 18.3125 48.734375 21.84375 45.5625 
Q 25.390625 42.390625 31.78125 42.390625 
Q 38.140625 42.390625 41.71875 45.5625 
Q 45.3125 48.734375 45.3125 54.390625 
Q 45.3125 60.0625 41.71875 63.234375 
Q 38.140625 66.40625 31.78125 66.40625 
Q 25.390625 66.40625 21.84375 63.234375 
Q 18.3125 60.0625 18.3125 54.390625 
z
" id="DejaVuSans-38"/>
      </defs>
      <g transform="translate(44.2375 154.135219)scale(0.1 -0.1)">
       <use xlink:href="#DejaVuSans-38"/>
      </g>
     </g>
    </g>
    <g id="ytick_6">
     <g id="line2d_11">
      <g>
       <use style="stroke:#000000;stroke-width:0.8;" x="57.6" xlink:href="#mc44fcae00d" y="115.776"/>
      </g>
     </g>
     <g id="text_11">
      <!-- 9 -->
      <defs>
       <path d="M 10.984375 1.515625 
L 10.984375 10.5 
Q 14.703125 8.734375 18.5 7.8125 
Q 22.3125 6.890625 25.984375 6.890625 
Q 35.75 6.890625 40.890625 13.453125 
Q 46.046875 20.015625 46.78125 33.40625 
Q 43.953125 29.203125 39.59375 26.953125 
Q 35.25 24.703125 29.984375 24.703125 
Q 19.046875 24.703125 12.671875 31.3125 
Q 6.296875 37.9375 6.296875 49.421875 
Q 6.296875 60.640625 12.9375 67.421875 
Q 19.578125 74.21875 30.609375 74.21875 
Q 43.265625 74.21875 49.921875 64.515625 
Q 56.59375 54.828125 56.59375 36.375 
Q 56.59375 19.140625 48.40625 8.859375 
Q 40.234375 -1.421875 26.421875 -1.421875 
Q 22.703125 -1.421875 18.890625 -0.6875 
Q 15.09375 0.046875 10.984375 1.515625 
z
M 30.609375 32.421875 
Q 37.25 32.421875 41.125 36.953125 
Q 45.015625 41.5 45.015625 49.421875 
Q 45.015625 57.28125 41.125 61.84375 
Q 37.25 66.40625 30.609375 66.40625 
Q 23.96875 66.40625 20.09375 61.84375 
Q 16.21875 57.28125 16.21875 49.421875 
Q 16.21875 41.5 20.09375 36.953125 
Q 23.96875 32.421875 30.609375 32.421875 
z
" id="DejaVuSans-39"/>
      </defs>
      <g transform="translate(44.2375 119.575219)scale(0.1 -0.1)">
       <use xlink:href="#DejaVuSans-39"/>
      </g>
     </g>
    </g>
    <g id="ytick_7">
     <g id="line2d_12">
      <g>
       <use style="stroke:#000000;stroke-width:0.8;" x="57.6" xlink:href="#mc44fcae00d" y="81.216"/>
      </g>
     </g>
     <g id="text_12">
      <!-- 10 -->
      <g transform="translate(37.875 85.015219)scale(0.1 -0.1)">
       <use xlink:href="#DejaVuSans-31"/>
       <use x="63.623047" xlink:href="#DejaVuSans-30"/>
      </g>
     </g>
    </g>
    <g id="ytick_8">
     <g id="line2d_13">
      <g>
       <use style="stroke:#000000;stroke-width:0.8;" x="57.6" xlink:href="#mc44fcae00d" y="46.656"/>
      </g>
     </g>
     <g id="text_13">
      <!-- 11 -->
      <g transform="translate(37.875 50.455219)scale(0.1 -0.1)">
       <use xlink:href="#DejaVuSans-31"/>
       <use x="63.623047" xlink:href="#DejaVuSans-31"/>
      </g>
     </g>
    </g>
   </g>
   <g id="line2d_14">
    <path clip-path="url(#p4f018b2cc4)" d="M 73.832727 167.616 
L 74.585986 177.984 
L 75.339245 167.616 
L 76.092504 171.072 
L 76.845762 171.072 
L 77.599021 177.984 
L 78.35228 167.616 
L 79.105539 167.616 
L 79.858798 177.984 
L 81.365315 164.16 
L 82.118574 153.792 
L 82.871833 139.968 
L 83.625092 133.056 
L 84.378351 129.6 
L 85.131609 119.232 
L 85.884868 115.776 
L 86.638127 105.408 
L 87.391386 101.952 
L 88.897903 88.128 
L 89.651162 88.128 
L 91.15768 67.392 
L 91.910939 53.568 
L 92.664197 53.568 
L 93.417456 67.392 
L 94.170715 67.392 
L 96.430491 77.76 
L 97.18375 77.76 
L 97.937009 101.952 
L 98.690268 98.496 
L 99.443527 108.864 
L 100.196785 122.688 
L 100.950044 133.056 
L 101.703303 139.968 
L 102.456562 150.336 
L 103.209821 157.248 
L 103.96308 157.248 
L 104.716338 160.704 
L 105.469597 171.072 
L 106.222856 177.984 
L 106.976115 167.616 
L 107.729374 167.616 
L 108.482632 174.528 
L 109.235891 171.072 
L 109.98915 177.984 
L 110.742409 174.528 
L 111.495668 174.528 
L 112.248926 177.984 
L 113.002185 177.984 
L 113.755444 174.528 
L 114.508703 177.984 
L 115.261962 171.072 
L 116.01522 171.072 
L 116.768479 181.44 
L 118.274997 181.44 
L 119.028256 184.896 
L 119.781514 184.896 
L 120.534773 195.264 
L 121.288032 177.984 
L 122.041291 177.984 
L 122.79455 181.44 
L 123.547808 177.984 
L 124.301067 177.984 
L 125.054326 184.896 
L 125.807585 188.352 
L 126.560844 184.896 
L 127.314103 184.896 
L 128.067361 188.352 
L 128.82062 198.72 
L 131.080397 198.72 
L 131.833655 209.088 
L 132.586914 209.088 
L 135.599949 222.912 
L 136.353208 219.456 
L 137.106467 226.368 
L 137.859726 229.824 
L 140.119502 229.824 
L 140.872761 240.192 
L 141.62602 233.28 
L 142.379279 240.192 
L 143.132537 240.192 
L 143.885796 233.28 
L 144.639055 240.192 
L 145.392314 240.192 
L 146.145573 243.648 
L 146.898831 243.648 
L 147.65209 240.192 
L 149.158608 254.016 
L 149.911867 247.104 
L 150.665126 247.104 
L 151.418384 243.648 
L 152.171643 247.104 
L 152.924902 247.104 
L 153.678161 243.648 
L 154.43142 243.648 
L 155.184678 240.192 
L 156.691196 240.192 
L 158.197714 247.104 
L 158.950972 240.192 
L 159.704231 240.192 
L 160.45749 247.104 
L 161.210749 236.736 
L 162.717266 222.912 
L 163.470525 222.912 
L 164.223784 212.544 
L 165.730302 205.632 
L 167.236819 191.808 
L 167.990078 195.264 
L 168.743337 188.352 
L 169.496596 188.352 
L 170.249854 191.808 
L 171.003113 188.352 
L 171.756372 188.352 
L 172.509631 184.896 
L 173.26289 184.896 
L 174.016148 174.528 
L 174.769407 174.528 
L 175.522666 171.072 
L 177.029184 171.072 
L 178.535701 157.248 
L 180.042219 164.16 
L 180.795478 164.16 
L 181.548737 174.528 
L 182.301995 171.072 
L 183.055254 171.072 
L 183.808513 174.528 
L 184.561772 181.44 
L 185.315031 184.896 
L 186.068289 181.44 
L 186.821548 181.44 
L 189.834583 195.264 
L 190.587842 191.808 
L 191.341101 198.72 
L 192.09436 202.176 
L 192.847619 198.72 
L 193.600877 198.72 
L 195.107395 205.632 
L 195.860654 216 
L 197.367171 216 
L 199.626948 226.368 
L 200.380207 233.28 
L 201.133466 236.736 
L 201.886724 233.28 
L 202.639983 240.192 
L 203.393242 240.192 
L 204.146501 226.368 
L 204.89976 233.28 
L 205.653018 233.28 
L 206.406277 229.824 
L 207.159536 229.824 
L 208.666054 236.736 
L 209.419312 233.28 
L 210.92583 233.28 
L 211.679089 236.736 
L 212.432348 236.736 
L 213.185606 233.28 
L 213.938865 233.28 
L 214.692124 243.648 
L 215.445383 236.736 
L 216.198642 250.56 
L 216.9519 247.104 
L 217.705159 247.104 
L 218.458418 240.192 
L 219.211677 240.192 
L 220.718194 247.104 
L 221.471453 247.104 
L 222.224712 250.56 
L 222.977971 257.472 
L 223.73123 254.016 
L 225.237747 260.928 
L 225.991006 257.472 
L 226.744265 264.384 
L 227.497524 267.84 
L 228.250783 264.384 
L 229.004041 267.84 
L 229.7573 267.84 
L 230.510559 264.384 
L 231.263818 278.208 
L 232.770335 271.296 
L 234.276853 271.296 
L 235.030112 267.84 
L 236.536629 274.752 
L 237.289888 274.752 
L 238.043147 278.208 
L 238.796406 274.752 
L 239.549665 281.664 
L 240.302923 278.208 
L 241.056182 281.664 
L 241.809441 278.208 
L 242.5627 278.208 
L 243.315959 281.664 
L 244.069217 281.664 
L 244.822476 285.12 
L 245.575735 285.12 
L 246.328994 288.576 
L 247.082253 288.576 
L 247.835511 285.12 
L 248.58877 288.576 
L 249.342029 295.488 
L 250.095288 288.576 
L 251.601806 288.576 
L 252.355064 285.12 
L 253.108323 292.032 
L 255.3681 292.032 
L 256.121358 281.664 
L 256.874617 281.664 
L 258.381135 274.752 
L 259.134394 278.208 
L 259.887652 271.296 
L 260.640911 267.84 
L 261.39417 257.472 
L 262.147429 254.016 
L 262.900688 243.648 
L 264.407205 229.824 
L 266.666982 229.824 
L 267.42024 222.912 
L 268.173499 226.368 
L 269.680017 226.368 
L 270.433276 229.824 
L 271.939793 229.824 
L 272.693052 222.912 
L 273.446311 219.456 
L 274.19957 226.368 
L 274.952829 222.912 
L 275.706087 222.912 
L 277.212605 216 
L 277.965864 209.088 
L 279.472381 216 
L 280.22564 216 
L 280.978899 219.456 
L 281.732158 226.368 
L 282.485417 229.824 
L 283.238675 229.824 
L 283.991934 233.28 
L 284.745193 226.368 
L 285.498452 233.28 
L 287.004969 233.28 
L 288.511487 240.192 
L 289.264746 240.192 
L 290.018005 236.736 
L 290.771263 240.192 
L 291.524522 240.192 
L 292.277781 243.648 
L 293.03104 240.192 
L 293.784299 247.104 
L 294.537557 247.104 
L 296.044075 254.016 
L 296.797334 254.016 
L 297.550593 257.472 
L 298.303852 254.016 
L 299.810369 254.016 
L 300.563628 257.472 
L 301.316887 264.384 
L 302.070146 260.928 
L 302.823404 264.384 
L 303.576663 264.384 
L 304.329922 267.84 
L 305.083181 267.84 
L 305.83644 264.384 
L 306.589698 264.384 
L 307.342957 271.296 
L 308.096216 274.752 
L 308.849475 271.296 
L 309.602734 274.752 
L 310.355992 267.84 
L 311.86251 274.752 
L 312.615769 271.296 
L 313.369028 274.752 
L 314.122286 267.84 
L 314.875545 264.384 
L 315.628804 267.84 
L 316.382063 264.384 
L 317.88858 264.384 
L 318.641839 254.016 
L 319.395098 254.016 
L 320.148357 257.472 
L 320.901616 250.56 
L 321.654874 254.016 
L 322.408133 240.192 
L 323.914651 226.368 
L 324.66791 216 
L 325.421169 216 
L 326.174427 202.176 
L 326.927686 191.808 
L 329.187463 139.968 
L 329.940721 126.144 
L 330.69398 115.776 
L 331.447239 101.952 
L 332.200498 98.496 
L 332.953757 98.496 
L 333.707015 95.04 
L 335.213533 81.216 
L 335.966792 84.672 
L 336.720051 84.672 
L 337.473309 88.128 
L 338.226568 88.128 
L 338.979827 84.672 
L 339.733086 84.672 
L 340.486345 95.04 
L 341.239603 101.952 
L 341.992862 101.952 
L 342.746121 98.496 
L 343.49938 98.496 
L 344.252639 101.952 
L 345.005897 88.128 
L 345.759156 105.408 
L 346.512415 112.32 
L 347.265674 115.776 
L 348.018933 115.776 
L 348.772192 112.32 
L 349.52545 115.776 
L 350.278709 112.32 
L 351.031968 115.776 
L 352.538486 115.776 
L 354.045003 129.6 
L 354.798262 133.056 
L 355.551521 139.968 
L 356.30478 139.968 
L 357.058038 143.424 
L 360.071074 143.424 
L 360.824332 146.88 
L 361.577591 157.248 
L 362.33085 157.248 
L 363.084109 160.704 
L 363.837368 153.792 
L 364.590626 150.336 
L 365.343885 160.704 
L 366.097144 167.616 
L 366.850403 164.16 
L 367.603662 167.616 
L 368.35692 167.616 
L 369.110179 174.528 
L 369.863438 177.984 
L 371.369956 177.984 
L 372.123215 188.352 
L 372.876473 195.264 
L 373.629732 198.72 
L 374.382991 195.264 
L 375.13625 195.264 
L 375.889509 209.088 
L 376.642767 209.088 
L 377.396026 216 
L 378.149285 212.544 
L 378.902544 212.544 
L 379.655803 222.912 
L 380.409061 229.824 
L 381.16232 226.368 
L 381.915579 233.28 
L 382.668838 229.824 
L 383.422097 236.736 
L 384.175355 236.736 
L 384.928614 240.192 
L 385.681873 236.736 
L 386.435132 243.648 
L 388.694908 254.016 
L 390.954685 254.016 
L 391.707943 257.472 
L 392.461202 257.472 
L 393.214461 254.016 
L 393.96772 254.016 
L 394.720979 264.384 
L 395.474238 257.472 
L 396.980755 257.472 
L 397.734014 254.016 
L 398.487273 257.472 
L 398.487273 257.472 
" style="fill:none;opacity:0.6;stroke:#1f77b4;stroke-linecap:square;stroke-width:0.5;"/>
   </g>
   <g id="line2d_15">
    <path clip-path="url(#p4f018b2cc4)" d="M 73.832727 201.13036 
L 74.585986 174.382166 
L 75.339245 167.337546 
L 76.092504 172.119005 
L 76.845762 175.917198 
L 77.599021 177.142317 
L 78.35228 175.698598 
L 79.105539 170.765495 
L 80.612057 156.996994 
L 82.118574 145.606979 
L 83.625092 135.304396 
L 85.131609 122.772105 
L 85.884868 117.750935 
L 88.897903 101.379977 
L 91.15768 85.960149 
L 92.664197 78.954453 
L 93.417456 76.819074 
L 94.170715 75.51749 
L 94.923974 74.703898 
L 95.677233 74.208557 
L 96.430491 73.454423 
L 97.18375 75.427842 
L 97.937009 87.059496 
L 99.443527 117.063345 
L 101.703303 149.020508 
L 102.456562 155.628076 
L 103.209821 161.143284 
L 103.96308 165.492667 
L 104.716338 169.131157 
L 105.469597 173.61554 
L 106.222856 175.4592 
L 106.976115 174.920304 
L 107.729374 175.203191 
L 108.482632 176.699035 
L 109.235891 179.359632 
L 109.98915 207.467021 
L 110.742409 193.616387 
L 111.495668 186.372332 
L 112.248926 182.178037 
L 113.002185 181.591021 
L 114.508703 184.505799 
L 115.261962 179.687574 
L 116.01522 176.062531 
L 116.768479 179.483953 
L 117.521738 181.192646 
L 119.028256 183.098087 
L 119.781514 185.193735 
L 121.288032 188.362906 
L 122.041291 189.302089 
L 123.547808 195.595096 
L 125.054326 201.14529 
L 125.807585 200.026926 
L 126.560844 197.748966 
L 127.314103 197.965753 
L 128.067361 200.061994 
L 128.82062 204.060479 
L 129.573879 204.694495 
L 131.080397 209.097123 
L 131.833655 211.575738 
L 132.586914 216.044943 
L 133.340173 217.617268 
L 134.093432 218.465665 
L 134.846691 218.884821 
L 135.599949 220.866216 
L 136.353208 224.576261 
L 137.106467 227.458062 
L 138.612985 235.211037 
L 139.366243 237.096192 
L 140.119502 238.203334 
L 140.872761 237.797889 
L 141.62602 236.678668 
L 142.379279 236.026657 
L 143.132537 236.447263 
L 145.392314 240.438645 
L 146.145573 216.126813 
L 147.65209 243.625812 
L 148.405349 251.86279 
L 149.158608 255.617724 
L 149.911867 256.6294 
L 150.665126 255.988167 
L 151.418384 254.49435 
L 152.171643 251.376579 
L 152.924902 247.048965 
L 153.678161 244.514123 
L 154.43142 243.318123 
L 155.184678 243.200608 
L 157.444455 247.403571 
L 158.197714 247.707387 
L 158.950972 245.147133 
L 159.704231 240.180774 
L 160.45749 237.22938 
L 161.210749 236.151802 
L 161.964008 234.710835 
L 162.717266 232.117688 
L 163.470525 228.082553 
L 164.223784 224.694468 
L 164.977043 223.273623 
L 165.730302 220.961912 
L 167.236819 208.764452 
L 168.743337 198.140865 
L 169.496596 194.281203 
L 170.249854 192.814511 
L 171.003113 193.603022 
L 171.756372 196.566002 
L 172.509631 198.082395 
L 173.26289 185.093457 
L 174.016148 182.918758 
L 174.769407 185.266261 
L 176.275925 182.10622 
L 177.782443 177.729761 
L 178.535701 176.650849 
L 179.28896 176.51313 
L 180.042219 177.151759 
L 180.795478 179.11473 
L 181.548737 182.034929 
L 182.301995 219.540523 
L 183.055254 201.186802 
L 183.808513 192.758333 
L 184.561772 187.819281 
L 185.315031 190.763391 
L 186.068289 192.432962 
L 186.821548 193.542526 
L 187.574807 195.102903 
L 188.328066 197.220221 
L 189.834583 200.098546 
L 190.587842 202.276047 
L 192.09436 211.102776 
L 192.847619 212.924353 
L 193.600877 214.445625 
L 195.107395 218.830323 
L 198.12043 228.373251 
L 199.626948 234.012929 
L 200.380207 235.998856 
L 201.133466 237.660879 
L 203.393242 238.341383 
L 204.89976 236.44784 
L 205.653018 237.560716 
L 206.406277 240.079986 
L 207.159536 243.086768 
L 207.912795 244.733629 
L 208.666054 245.126385 
L 209.419312 244.884153 
L 210.172571 245.248383 
L 210.92583 244.970984 
L 212.432348 244.687783 
L 213.185606 245.070899 
L 213.938865 245.906195 
L 214.692124 246.064793 
L 215.445383 246.972879 
L 216.198642 248.75133 
L 216.9519 251.501971 
L 217.705159 253.329398 
L 218.458418 223.228419 
L 219.211677 225.361673 
L 220.718194 242.833099 
L 222.224712 250.159255 
L 222.977971 254.90263 
L 223.73123 258.055536 
L 224.484489 259.476826 
L 225.237747 260.231191 
L 225.991006 260.594514 
L 226.744265 261.112086 
L 227.497524 261.030694 
L 228.250783 262.792763 
L 229.004041 263.610196 
L 230.510559 263.871643 
L 231.263818 264.337254 
L 232.770335 265.925828 
L 234.276853 267.959265 
L 235.783371 270.398939 
L 236.536629 270.785037 
L 238.043147 275.745364 
L 238.796406 277.816259 
L 239.549665 279.504155 
L 240.302923 280.164356 
L 241.056182 280.253527 
L 243.315959 279.538136 
L 244.069217 279.76903 
L 244.822476 279.694328 
L 245.575735 278.201253 
L 246.328994 282.417746 
L 247.082253 284.743134 
L 247.835511 286.649679 
L 248.58877 287.550646 
L 250.095288 288.53345 
L 250.848547 289.391446 
L 251.601806 288.848991 
L 253.108323 286.20025 
L 253.861582 285.541466 
L 254.614841 229.340432 
L 255.3681 260.379902 
L 256.121358 277.171829 
L 256.874617 279.543524 
L 257.627876 280.665399 
L 258.381135 280.393471 
L 259.134394 277.599966 
L 259.887652 272.921175 
L 261.39417 259.153927 
L 262.147429 251.864849 
L 262.900688 247.079024 
L 264.407205 239.325406 
L 265.160464 236.121809 
L 266.666982 233.302333 
L 267.42024 231.992971 
L 268.173499 226.975131 
L 268.926758 228.3455 
L 269.680017 228.695046 
L 270.433276 228.466377 
L 271.186534 228.515865 
L 271.939793 227.774584 
L 272.693052 223.525034 
L 273.446311 227.379521 
L 274.19957 228.670409 
L 274.952829 229.399 
L 275.706087 229.955002 
L 276.459346 229.641809 
L 277.212605 229.919258 
L 277.965864 229.974728 
L 279.472381 229.454405 
L 280.22564 229.353352 
L 280.978899 231.050097 
L 281.732158 233.779629 
L 282.485417 235.830814 
L 283.991934 238.999178 
L 284.745193 238.682294 
L 285.498452 238.680976 
L 286.251711 239.327878 
L 287.004969 240.330326 
L 287.758228 240.600622 
L 288.511487 241.431337 
L 289.264746 244.300235 
L 290.018005 246.247254 
L 290.771263 229.31802 
L 291.524522 235.800575 
L 292.277781 247.122876 
L 293.03104 253.231708 
L 293.784299 255.623294 
L 294.537557 256.067779 
L 295.290816 254.181899 
L 296.044075 258.59341 
L 296.797334 260.541714 
L 298.303852 261.091025 
L 299.05711 259.291547 
L 301.316887 263.359295 
L 302.070146 263.123935 
L 302.823404 263.820062 
L 303.576663 264.894096 
L 304.329922 259.872531 
L 305.083181 260.319521 
L 305.83644 262.436806 
L 306.589698 262.602376 
L 307.342957 262.951856 
L 308.096216 263.816618 
L 308.849475 265.05904 
L 309.602734 266.608227 
L 310.355992 266.057779 
L 311.109251 267.608862 
L 311.86251 268.113925 
L 312.615769 268.325324 
L 313.369028 268.829102 
L 314.875545 271.159896 
L 315.628804 271.414504 
L 316.382063 270.388919 
L 317.135322 274.102705 
L 317.88858 271.984299 
L 319.395098 260.707613 
L 320.901616 250.66356 
L 323.161392 237.968419 
L 323.914651 237.216196 
L 326.174427 231.550102 
L 326.927686 204.424775 
L 327.680945 184.832472 
L 329.187463 155.391249 
L 330.69398 130.635459 
L 332.200498 110.48961 
L 332.953757 101.921559 
L 333.707015 94.74062 
L 334.460274 91.981327 
L 335.213533 94.814679 
L 335.966792 101.422263 
L 336.720051 110.126435 
L 337.473309 115.525644 
L 338.226568 110.273926 
L 338.979827 102.412648 
L 339.733086 102.570357 
L 340.486345 103.33194 
L 341.239603 104.735333 
L 341.992862 105.003554 
L 342.746121 103.950712 
L 343.49938 103.683151 
L 344.252639 105.935172 
L 346.512415 118.997873 
L 347.265674 118.434175 
L 348.018933 119.67017 
L 348.772192 121.255662 
L 349.52545 121.910755 
L 350.278709 122.083987 
L 351.031968 123.425615 
L 351.785227 125.084837 
L 352.538486 125.93976 
L 353.291744 128.720509 
L 354.798262 132.432877 
L 355.551521 139.930486 
L 357.811297 148.310967 
L 358.564556 148.684557 
L 359.317815 150.102914 
L 360.071074 147.755344 
L 360.824332 151.102642 
L 361.577591 161.76672 
L 362.33085 163.885224 
L 363.084109 201.374668 
L 363.837368 175.010513 
L 364.590626 157.838964 
L 365.343885 159.738177 
L 366.097144 159.799118 
L 366.850403 163.31187 
L 367.603662 172.925758 
L 368.35692 173.547447 
L 369.110179 171.621209 
L 369.863438 170.960315 
L 370.616697 172.691272 
L 371.369956 177.630192 
L 372.123215 184.247334 
L 372.876473 189.55439 
L 373.629732 192.722094 
L 374.382991 194.720315 
L 378.149285 213.620859 
L 378.902544 216.671213 
L 379.655803 220.459931 
L 380.409061 223.448767 
L 381.16232 225.88086 
L 381.915579 227.594134 
L 382.668838 228.278675 
L 383.422097 227.811449 
L 384.175355 227.950239 
L 386.435132 242.278943 
L 387.188391 245.418072 
L 387.941649 247.852192 
L 388.694908 255.55385 
L 389.448167 254.441484 
L 390.201426 253.12675 
L 390.954685 253.239865 
L 391.707943 257.385974 
L 392.461202 259.292486 
L 393.214461 255.32813 
L 393.96772 255.698227 
L 394.720979 256.808895 
L 395.474238 256.753211 
L 396.227496 258.198594 
L 396.980755 261.817243 
L 397.734014 259.341826 
L 398.487273 255.945633 
L 398.487273 255.945633 
" style="fill:none;opacity:0.6;stroke:#ff7f0e;stroke-linecap:square;stroke-width:0.5;"/>
   </g>
   <g id="line2d_16">
    <path clip-path="url(#p4f018b2cc4)" d="M 363.084109 222.452845 
L 363.837368 200.447895 
L 364.590626 165.023397 
L 365.343885 175.444286 
L 366.097144 194.550164 
L 366.850403 199.015728 
L 367.603662 192.902182 
L 368.35692 184.151819 
L 369.110179 177.005487 
L 369.863438 173.257078 
L 370.616697 179.989 
L 372.123215 200.434612 
L 373.629732 217.205132 
L 374.382991 229.890831 
L 375.13625 233.457652 
L 375.889509 236.0243 
L 376.642767 239.310146 
L 377.396026 245.986516 
L 378.149285 249.812543 
L 378.902544 247.534138 
L 379.655803 243.337454 
L 380.409061 240.883427 
L 381.16232 243.208881 
L 381.915579 244.664926 
L 382.668838 248.010675 
L 383.422097 252.45409 
L 384.175355 239.04865 
L 385.681873 207.25849 
L 386.435132 194.182771 
L 387.188391 175.577572 
L 387.941649 168.709052 
L 388.694908 168.118756 
L 390.201426 206.069873 
L 390.954685 211.362015 
L 391.707943 204.069922 
L 392.461202 191.789273 
L 393.214461 186.836576 
L 393.96772 188.908954 
L 394.720979 198.553906 
L 395.474238 212.792633 
L 396.227496 223.289163 
L 396.980755 227.559988 
L 397.734014 222.844447 
L 398.487273 212.079054 
L 398.487273 212.079054 
" style="fill:none;opacity:0.6;stroke:#2ca02c;stroke-linecap:square;stroke-width:0.5;"/>
   </g>
   <g id="patch_3">
    <path d="M 57.6 307.584 
L 57.6 41.472 
" style="fill:none;stroke:#000000;stroke-linecap:square;stroke-linejoin:miter;stroke-width:0.8;"/>
   </g>
   <g id="patch_4">
    <path d="M 414.72 307.584 
L 414.72 41.472 
" style="fill:none;stroke:#000000;stroke-linecap:square;stroke-linejoin:miter;stroke-width:0.8;"/>
   </g>
   <g id="patch_5">
    <path d="M 57.6 307.584 
L 414.72 307.584 
" style="fill:none;stroke:#000000;stroke-linecap:square;stroke-linejoin:miter;stroke-width:0.8;"/>
   </g>
   <g id="patch_6">
    <path d="M 57.6 41.472 
L 414.72 41.472 
" style="fill:none;stroke:#000000;stroke-linecap:square;stroke-linejoin:miter;stroke-width:0.8;"/>
   </g>
   <g id="text_14">
    <!-- Model Training Result2018_07_12_1531450830 -->
    <defs>
     <path d="M 9.8125 72.90625 
L 24.515625 72.90625 
L 43.109375 23.296875 
L 61.8125 72.90625 
L 76.515625 72.90625 
L 76.515625 0 
L 66.890625 0 
L 66.890625 64.015625 
L 48.09375 14.015625 
L 38.1875 14.015625 
L 19.390625 64.015625 
L 19.390625 0 
L 9.8125 0 
z
" id="DejaVuSans-4d"/>
     <path d="M 30.609375 48.390625 
Q 23.390625 48.390625 19.1875 42.75 
Q 14.984375 37.109375 14.984375 27.296875 
Q 14.984375 17.484375 19.15625 11.84375 
Q 23.34375 6.203125 30.609375 6.203125 
Q 37.796875 6.203125 41.984375 11.859375 
Q 46.1875 17.53125 46.1875 27.296875 
Q 46.1875 37.015625 41.984375 42.703125 
Q 37.796875 48.390625 30.609375 48.390625 
z
M 30.609375 56 
Q 42.328125 56 49.015625 48.375 
Q 55.71875 40.765625 55.71875 27.296875 
Q 55.71875 13.875 49.015625 6.21875 
Q 42.328125 -1.421875 30.609375 -1.421875 
Q 18.84375 -1.421875 12.171875 6.21875 
Q 5.515625 13.875 5.515625 27.296875 
Q 5.515625 40.765625 12.171875 48.375 
Q 18.84375 56 30.609375 56 
z
" id="DejaVuSans-6f"/>
     <path d="M 45.40625 46.390625 
L 45.40625 75.984375 
L 54.390625 75.984375 
L 54.390625 0 
L 45.40625 0 
L 45.40625 8.203125 
Q 42.578125 3.328125 38.25 0.953125 
Q 33.9375 -1.421875 27.875 -1.421875 
Q 17.96875 -1.421875 11.734375 6.484375 
Q 5.515625 14.40625 5.515625 27.296875 
Q 5.515625 40.1875 11.734375 48.09375 
Q 17.96875 56 27.875 56 
Q 33.9375 56 38.25 53.625 
Q 42.578125 51.265625 45.40625 46.390625 
z
M 14.796875 27.296875 
Q 14.796875 17.390625 18.875 11.75 
Q 22.953125 6.109375 30.078125 6.109375 
Q 37.203125 6.109375 41.296875 11.75 
Q 45.40625 17.390625 45.40625 27.296875 
Q 45.40625 37.203125 41.296875 42.84375 
Q 37.203125 48.484375 30.078125 48.484375 
Q 22.953125 48.484375 18.875 42.84375 
Q 14.796875 37.203125 14.796875 27.296875 
z
" id="DejaVuSans-64"/>
     <path d="M 56.203125 29.59375 
L 56.203125 25.203125 
L 14.890625 25.203125 
Q 15.484375 15.921875 20.484375 11.0625 
Q 25.484375 6.203125 34.421875 6.203125 
Q 39.59375 6.203125 44.453125 7.46875 
Q 49.3125 8.734375 54.109375 11.28125 
L 54.109375 2.78125 
Q 49.265625 0.734375 44.1875 -0.34375 
Q 39.109375 -1.421875 33.890625 -1.421875 
Q 20.796875 -1.421875 13.15625 6.1875 
Q 5.515625 13.8125 5.515625 26.8125 
Q 5.515625 40.234375 12.765625 48.109375 
Q 20.015625 56 32.328125 56 
Q 43.359375 56 49.78125 48.890625 
Q 56.203125 41.796875 56.203125 29.59375 
z
M 47.21875 32.234375 
Q 47.125 39.59375 43.09375 43.984375 
Q 39.0625 48.390625 32.421875 48.390625 
Q 24.90625 48.390625 20.390625 44.140625 
Q 15.875 39.890625 15.1875 32.171875 
z
" id="DejaVuSans-65"/>
     <path d="M 9.421875 75.984375 
L 18.40625 75.984375 
L 18.40625 0 
L 9.421875 0 
z
" id="DejaVuSans-6c"/>
     <path id="DejaVuSans-20"/>
     <path d="M -0.296875 72.90625 
L 61.375 72.90625 
L 61.375 64.59375 
L 35.5 64.59375 
L 35.5 0 
L 25.59375 0 
L 25.59375 64.59375 
L -0.296875 64.59375 
z
" id="DejaVuSans-54"/>
     <path d="M 41.109375 46.296875 
Q 39.59375 47.171875 37.8125 47.578125 
Q 36.03125 48 33.890625 48 
Q 26.265625 48 22.1875 43.046875 
Q 18.109375 38.09375 18.109375 28.8125 
L 18.109375 0 
L 9.078125 0 
L 9.078125 54.6875 
L 18.109375 54.6875 
L 18.109375 46.1875 
Q 20.953125 51.171875 25.484375 53.578125 
Q 30.03125 56 36.53125 56 
Q 37.453125 56 38.578125 55.875 
Q 39.703125 55.765625 41.0625 55.515625 
z
" id="DejaVuSans-72"/>
     <path d="M 34.28125 27.484375 
Q 23.390625 27.484375 19.1875 25 
Q 14.984375 22.515625 14.984375 16.5 
Q 14.984375 11.71875 18.140625 8.90625 
Q 21.296875 6.109375 26.703125 6.109375 
Q 34.1875 6.109375 38.703125 11.40625 
Q 43.21875 16.703125 43.21875 25.484375 
L 43.21875 27.484375 
z
M 52.203125 31.203125 
L 52.203125 0 
L 43.21875 0 
L 43.21875 8.296875 
Q 40.140625 3.328125 35.546875 0.953125 
Q 30.953125 -1.421875 24.3125 -1.421875 
Q 15.921875 -1.421875 10.953125 3.296875 
Q 6 8.015625 6 15.921875 
Q 6 25.140625 12.171875 29.828125 
Q 18.359375 34.515625 30.609375 34.515625 
L 43.21875 34.515625 
L 43.21875 35.40625 
Q 43.21875 41.609375 39.140625 45 
Q 35.0625 48.390625 27.6875 48.390625 
Q 23 48.390625 18.546875 47.265625 
Q 14.109375 46.140625 10.015625 43.890625 
L 10.015625 52.203125 
Q 14.9375 54.109375 19.578125 55.046875 
Q 24.21875 56 28.609375 56 
Q 40.484375 56 46.34375 49.84375 
Q 52.203125 43.703125 52.203125 31.203125 
z
" id="DejaVuSans-61"/>
     <path d="M 9.421875 54.6875 
L 18.40625 54.6875 
L 18.40625 0 
L 9.421875 0 
z
M 9.421875 75.984375 
L 18.40625 75.984375 
L 18.40625 64.59375 
L 9.421875 64.59375 
z
" id="DejaVuSans-69"/>
     <path d="M 54.890625 33.015625 
L 54.890625 0 
L 45.90625 0 
L 45.90625 32.71875 
Q 45.90625 40.484375 42.875 44.328125 
Q 39.84375 48.1875 33.796875 48.1875 
Q 26.515625 48.1875 22.3125 43.546875 
Q 18.109375 38.921875 18.109375 30.90625 
L 18.109375 0 
L 9.078125 0 
L 9.078125 54.6875 
L 18.109375 54.6875 
L 18.109375 46.1875 
Q 21.34375 51.125 25.703125 53.5625 
Q 30.078125 56 35.796875 56 
Q 45.21875 56 50.046875 50.171875 
Q 54.890625 44.34375 54.890625 33.015625 
z
" id="DejaVuSans-6e"/>
     <path d="M 45.40625 27.984375 
Q 45.40625 37.75 41.375 43.109375 
Q 37.359375 48.484375 30.078125 48.484375 
Q 22.859375 48.484375 18.828125 43.109375 
Q 14.796875 37.75 14.796875 27.984375 
Q 14.796875 18.265625 18.828125 12.890625 
Q 22.859375 7.515625 30.078125 7.515625 
Q 37.359375 7.515625 41.375 12.890625 
Q 45.40625 18.265625 45.40625 27.984375 
z
M 54.390625 6.78125 
Q 54.390625 -7.171875 48.1875 -13.984375 
Q 42 -20.796875 29.203125 -20.796875 
Q 24.46875 -20.796875 20.265625 -20.09375 
Q 16.0625 -19.390625 12.109375 -17.921875 
L 12.109375 -9.1875 
Q 16.0625 -11.328125 19.921875 -12.34375 
Q 23.78125 -13.375 27.78125 -13.375 
Q 36.625 -13.375 41.015625 -8.765625 
Q 45.40625 -4.15625 45.40625 5.171875 
L 45.40625 9.625 
Q 42.625 4.78125 38.28125 2.390625 
Q 33.9375 0 27.875 0 
Q 17.828125 0 11.671875 7.65625 
Q 5.515625 15.328125 5.515625 27.984375 
Q 5.515625 40.671875 11.671875 48.328125 
Q 17.828125 56 27.875 56 
Q 33.9375 56 38.28125 53.609375 
Q 42.625 51.21875 45.40625 46.390625 
L 45.40625 54.6875 
L 54.390625 54.6875 
z
" id="DejaVuSans-67"/>
     <path d="M 44.390625 34.1875 
Q 47.5625 33.109375 50.5625 29.59375 
Q 53.5625 26.078125 56.59375 19.921875 
L 66.609375 0 
L 56 0 
L 46.6875 18.703125 
Q 43.0625 26.03125 39.671875 28.421875 
Q 36.28125 30.8125 30.421875 30.8125 
L 19.671875 30.8125 
L 19.671875 0 
L 9.8125 0 
L 9.8125 72.90625 
L 32.078125 72.90625 
Q 44.578125 72.90625 50.734375 67.671875 
Q 56.890625 62.453125 56.890625 51.90625 
Q 56.890625 45.015625 53.6875 40.46875 
Q 50.484375 35.9375 44.390625 34.1875 
z
M 19.671875 64.796875 
L 19.671875 38.921875 
L 32.078125 38.921875 
Q 39.203125 38.921875 42.84375 42.21875 
Q 46.484375 45.515625 46.484375 51.90625 
Q 46.484375 58.296875 42.84375 61.546875 
Q 39.203125 64.796875 32.078125 64.796875 
z
" id="DejaVuSans-52"/>
     <path d="M 44.28125 53.078125 
L 44.28125 44.578125 
Q 40.484375 46.53125 36.375 47.5 
Q 32.28125 48.484375 27.875 48.484375 
Q 21.1875 48.484375 17.84375 46.4375 
Q 14.5 44.390625 14.5 40.28125 
Q 14.5 37.15625 16.890625 35.375 
Q 19.28125 33.59375 26.515625 31.984375 
L 29.59375 31.296875 
Q 39.15625 29.25 43.1875 25.515625 
Q 47.21875 21.78125 47.21875 15.09375 
Q 47.21875 7.46875 41.1875 3.015625 
Q 35.15625 -1.421875 24.609375 -1.421875 
Q 20.21875 -1.421875 15.453125 -0.5625 
Q 10.6875 0.296875 5.421875 2 
L 5.421875 11.28125 
Q 10.40625 8.6875 15.234375 7.390625 
Q 20.0625 6.109375 24.8125 6.109375 
Q 31.15625 6.109375 34.5625 8.28125 
Q 37.984375 10.453125 37.984375 14.40625 
Q 37.984375 18.0625 35.515625 20.015625 
Q 33.0625 21.96875 24.703125 23.78125 
L 21.578125 24.515625 
Q 13.234375 26.265625 9.515625 29.90625 
Q 5.8125 33.546875 5.8125 39.890625 
Q 5.8125 47.609375 11.28125 51.796875 
Q 16.75 56 26.8125 56 
Q 31.78125 56 36.171875 55.265625 
Q 40.578125 54.546875 44.28125 53.078125 
z
" id="DejaVuSans-73"/>
     <path d="M 8.5 21.578125 
L 8.5 54.6875 
L 17.484375 54.6875 
L 17.484375 21.921875 
Q 17.484375 14.15625 20.5 10.265625 
Q 23.53125 6.390625 29.59375 6.390625 
Q 36.859375 6.390625 41.078125 11.03125 
Q 45.3125 15.671875 45.3125 23.6875 
L 45.3125 54.6875 
L 54.296875 54.6875 
L 54.296875 0 
L 45.3125 0 
L 45.3125 8.40625 
Q 42.046875 3.421875 37.71875 1 
Q 33.40625 -1.421875 27.6875 -1.421875 
Q 18.265625 -1.421875 13.375 4.4375 
Q 8.5 10.296875 8.5 21.578125 
z
M 31.109375 56 
z
" id="DejaVuSans-75"/>
     <path d="M 18.3125 70.21875 
L 18.3125 54.6875 
L 36.8125 54.6875 
L 36.8125 47.703125 
L 18.3125 47.703125 
L 18.3125 18.015625 
Q 18.3125 11.328125 20.140625 9.421875 
Q 21.96875 7.515625 27.59375 7.515625 
L 36.8125 7.515625 
L 36.8125 0 
L 27.59375 0 
Q 17.1875 0 13.234375 3.875 
Q 9.28125 7.765625 9.28125 18.015625 
L 9.28125 47.703125 
L 2.6875 47.703125 
L 2.6875 54.6875 
L 9.28125 54.6875 
L 9.28125 70.21875 
z
" id="DejaVuSans-74"/>
     <path d="M 50.984375 -16.609375 
L 50.984375 -23.578125 
L -0.984375 -23.578125 
L -0.984375 -16.609375 
z
" id="DejaVuSans-5f"/>
    </defs>
    <g transform="translate(93.268125 35.472)scale(0.12 -0.12)">
     <use xlink:href="#DejaVuSans-4d"/>
     <use x="86.279297" xlink:href="#DejaVuSans-6f"/>
     <use x="147.460938" xlink:href="#DejaVuSans-64"/>
     <use x="210.9375" xlink:href="#DejaVuSans-65"/>
     <use x="272.460938" xlink:href="#DejaVuSans-6c"/>
     <use x="300.244141" xlink:href="#DejaVuSans-20"/>
     <use x="332.03125" xlink:href="#DejaVuSans-54"/>
     <use x="392.896484" xlink:href="#DejaVuSans-72"/>
     <use x="434.009766" xlink:href="#DejaVuSans-61"/>
     <use x="495.289062" xlink:href="#DejaVuSans-69"/>
     <use x="523.072266" xlink:href="#DejaVuSans-6e"/>
     <use x="586.451172" xlink:href="#DejaVuSans-69"/>
     <use x="614.234375" xlink:href="#DejaVuSans-6e"/>
     <use x="677.613281" xlink:href="#DejaVuSans-67"/>
     <use x="741.089844" xlink:href="#DejaVuSans-20"/>
     <use x="772.876953" xlink:href="#DejaVuSans-52"/>
     <use x="842.296875" xlink:href="#DejaVuSans-65"/>
     <use x="903.820312" xlink:href="#DejaVuSans-73"/>
     <use x="955.919922" xlink:href="#DejaVuSans-75"/>
     <use x="1019.298828" xlink:href="#DejaVuSans-6c"/>
     <use x="1047.082031" xlink:href="#DejaVuSans-74"/>
     <use x="1086.291016" xlink:href="#DejaVuSans-32"/>
     <use x="1149.914062" xlink:href="#DejaVuSans-30"/>
     <use x="1213.537109" xlink:href="#DejaVuSans-31"/>
     <use x="1277.160156" xlink:href="#DejaVuSans-38"/>
     <use x="1340.783203" xlink:href="#DejaVuSans-5f"/>
     <use x="1390.783203" xlink:href="#DejaVuSans-30"/>
     <use x="1454.40625" xlink:href="#DejaVuSans-37"/>
     <use x="1518.029297" xlink:href="#DejaVuSans-5f"/>
     <use x="1568.029297" xlink:href="#DejaVuSans-31"/>
     <use x="1631.652344" xlink:href="#DejaVuSans-32"/>
     <use x="1695.275391" xlink:href="#DejaVuSans-5f"/>
     <use x="1745.275391" xlink:href="#DejaVuSans-31"/>
     <use x="1808.898438" xlink:href="#DejaVuSans-35"/>
     <use x="1872.521484" xlink:href="#DejaVuSans-33"/>
     <use x="1936.144531" xlink:href="#DejaVuSans-31"/>
     <use x="1999.767578" xlink:href="#DejaVuSans-34"/>
     <use x="2063.390625" xlink:href="#DejaVuSans-35"/>
     <use x="2127.013672" xlink:href="#DejaVuSans-30"/>
     <use x="2190.636719" xlink:href="#DejaVuSans-38"/>
     <use x="2254.259766" xlink:href="#DejaVuSans-33"/>
     <use x="2317.882812" xlink:href="#DejaVuSans-30"/>
    </g>
   </g>
   <g id="legend_1">
    <g id="patch_7">
     <path d="M 151.739688 93.506375 
L 320.580312 93.506375 
Q 322.580312 93.506375 322.580312 91.506375 
L 322.580312 48.472 
Q 322.580312 46.472 320.580312 46.472 
L 151.739688 46.472 
Q 149.739688 46.472 149.739688 48.472 
L 149.739688 91.506375 
Q 149.739688 93.506375 151.739688 93.506375 
z
" style="fill:#ffffff;opacity:0.8;stroke:#cccccc;stroke-linejoin:miter;"/>
    </g>
    <g id="line2d_17">
     <path d="M 153.739688 54.570438 
L 173.739688 54.570438 
" style="fill:none;opacity:0.6;stroke:#1f77b4;stroke-linecap:square;stroke-width:0.5;"/>
    </g>
    <g id="line2d_18"/>
    <g id="text_15">
     <!-- Actual Data -->
     <defs>
      <path d="M 34.1875 63.1875 
L 20.796875 26.90625 
L 47.609375 26.90625 
z
M 28.609375 72.90625 
L 39.796875 72.90625 
L 67.578125 0 
L 57.328125 0 
L 50.6875 18.703125 
L 17.828125 18.703125 
L 11.1875 0 
L 0.78125 0 
z
" id="DejaVuSans-41"/>
      <path d="M 48.78125 52.59375 
L 48.78125 44.1875 
Q 44.96875 46.296875 41.140625 47.34375 
Q 37.3125 48.390625 33.40625 48.390625 
Q 24.65625 48.390625 19.8125 42.84375 
Q 14.984375 37.3125 14.984375 27.296875 
Q 14.984375 17.28125 19.8125 11.734375 
Q 24.65625 6.203125 33.40625 6.203125 
Q 37.3125 6.203125 41.140625 7.25 
Q 44.96875 8.296875 48.78125 10.40625 
L 48.78125 2.09375 
Q 45.015625 0.34375 40.984375 -0.53125 
Q 36.96875 -1.421875 32.421875 -1.421875 
Q 20.0625 -1.421875 12.78125 6.34375 
Q 5.515625 14.109375 5.515625 27.296875 
Q 5.515625 40.671875 12.859375 48.328125 
Q 20.21875 56 33.015625 56 
Q 37.15625 56 41.109375 55.140625 
Q 45.0625 54.296875 48.78125 52.59375 
z
" id="DejaVuSans-63"/>
      <path d="M 19.671875 64.796875 
L 19.671875 8.109375 
L 31.59375 8.109375 
Q 46.6875 8.109375 53.6875 14.9375 
Q 60.6875 21.78125 60.6875 36.53125 
Q 60.6875 51.171875 53.6875 57.984375 
Q 46.6875 64.796875 31.59375 64.796875 
z
M 9.8125 72.90625 
L 30.078125 72.90625 
Q 51.265625 72.90625 61.171875 64.09375 
Q 71.09375 55.28125 71.09375 36.53125 
Q 71.09375 17.671875 61.125 8.828125 
Q 51.171875 0 30.078125 0 
L 9.8125 0 
z
" id="DejaVuSans-44"/>
     </defs>
     <g transform="translate(181.739688 58.070438)scale(0.1 -0.1)">
      <use xlink:href="#DejaVuSans-41"/>
      <use x="68.392578" xlink:href="#DejaVuSans-63"/>
      <use x="123.373047" xlink:href="#DejaVuSans-74"/>
      <use x="162.582031" xlink:href="#DejaVuSans-75"/>
      <use x="225.960938" xlink:href="#DejaVuSans-61"/>
      <use x="287.240234" xlink:href="#DejaVuSans-6c"/>
      <use x="315.023438" xlink:href="#DejaVuSans-20"/>
      <use x="346.810547" xlink:href="#DejaVuSans-44"/>
      <use x="423.8125" xlink:href="#DejaVuSans-61"/>
      <use x="485.091797" xlink:href="#DejaVuSans-74"/>
      <use x="524.300781" xlink:href="#DejaVuSans-61"/>
     </g>
    </g>
    <g id="line2d_19">
     <path d="M 153.739688 69.248563 
L 173.739688 69.248563 
" style="fill:none;opacity:0.6;stroke:#ff7f0e;stroke-linecap:square;stroke-width:0.5;"/>
    </g>
    <g id="line2d_20"/>
    <g id="text_16">
     <!-- Prediction on Training Data -->
     <defs>
      <path d="M 19.671875 64.796875 
L 19.671875 37.40625 
L 32.078125 37.40625 
Q 38.96875 37.40625 42.71875 40.96875 
Q 46.484375 44.53125 46.484375 51.125 
Q 46.484375 57.671875 42.71875 61.234375 
Q 38.96875 64.796875 32.078125 64.796875 
z
M 9.8125 72.90625 
L 32.078125 72.90625 
Q 44.34375 72.90625 50.609375 67.359375 
Q 56.890625 61.8125 56.890625 51.125 
Q 56.890625 40.328125 50.609375 34.8125 
Q 44.34375 29.296875 32.078125 29.296875 
L 19.671875 29.296875 
L 19.671875 0 
L 9.8125 0 
z
" id="DejaVuSans-50"/>
     </defs>
     <g transform="translate(181.739688 72.748563)scale(0.1 -0.1)">
      <use xlink:href="#DejaVuSans-50"/>
      <use x="60.287109" xlink:href="#DejaVuSans-72"/>
      <use x="101.369141" xlink:href="#DejaVuSans-65"/>
      <use x="162.892578" xlink:href="#DejaVuSans-64"/>
      <use x="226.369141" xlink:href="#DejaVuSans-69"/>
      <use x="254.152344" xlink:href="#DejaVuSans-63"/>
      <use x="309.132812" xlink:href="#DejaVuSans-74"/>
      <use x="348.341797" xlink:href="#DejaVuSans-69"/>
      <use x="376.125" xlink:href="#DejaVuSans-6f"/>
      <use x="437.306641" xlink:href="#DejaVuSans-6e"/>
      <use x="500.685547" xlink:href="#DejaVuSans-20"/>
      <use x="532.472656" xlink:href="#DejaVuSans-6f"/>
      <use x="593.654297" xlink:href="#DejaVuSans-6e"/>
      <use x="657.033203" xlink:href="#DejaVuSans-20"/>
      <use x="688.820312" xlink:href="#DejaVuSans-54"/>
      <use x="749.685547" xlink:href="#DejaVuSans-72"/>
      <use x="790.798828" xlink:href="#DejaVuSans-61"/>
      <use x="852.078125" xlink:href="#DejaVuSans-69"/>
      <use x="879.861328" xlink:href="#DejaVuSans-6e"/>
      <use x="943.240234" xlink:href="#DejaVuSans-69"/>
      <use x="971.023438" xlink:href="#DejaVuSans-6e"/>
      <use x="1034.402344" xlink:href="#DejaVuSans-67"/>
      <use x="1097.878906" xlink:href="#DejaVuSans-20"/>
      <use x="1129.666016" xlink:href="#DejaVuSans-44"/>
      <use x="1206.667969" xlink:href="#DejaVuSans-61"/>
      <use x="1267.947266" xlink:href="#DejaVuSans-74"/>
      <use x="1307.15625" xlink:href="#DejaVuSans-61"/>
     </g>
    </g>
    <g id="line2d_21">
     <path d="M 153.739688 83.926688 
L 173.739688 83.926688 
" style="fill:none;opacity:0.6;stroke:#2ca02c;stroke-linecap:square;stroke-width:0.5;"/>
    </g>
    <g id="line2d_22"/>
    <g id="text_17">
     <!-- Prediction on Test Data -->
     <g transform="translate(181.739688 87.426688)scale(0.1 -0.1)">
      <use xlink:href="#DejaVuSans-50"/>
      <use x="60.287109" xlink:href="#DejaVuSans-72"/>
      <use x="101.369141" xlink:href="#DejaVuSans-65"/>
      <use x="162.892578" xlink:href="#DejaVuSans-64"/>
      <use x="226.369141" xlink:href="#DejaVuSans-69"/>
      <use x="254.152344" xlink:href="#DejaVuSans-63"/>
      <use x="309.132812" xlink:href="#DejaVuSans-74"/>
      <use x="348.341797" xlink:href="#DejaVuSans-69"/>
      <use x="376.125" xlink:href="#DejaVuSans-6f"/>
      <use x="437.306641" xlink:href="#DejaVuSans-6e"/>
      <use x="500.685547" xlink:href="#DejaVuSans-20"/>
      <use x="532.472656" xlink:href="#DejaVuSans-6f"/>
      <use x="593.654297" xlink:href="#DejaVuSans-6e"/>
      <use x="657.033203" xlink:href="#DejaVuSans-20"/>
      <use x="688.820312" xlink:href="#DejaVuSans-54"/>
      <use x="749.638672" xlink:href="#DejaVuSans-65"/>
      <use x="811.162109" xlink:href="#DejaVuSans-73"/>
      <use x="863.261719" xlink:href="#DejaVuSans-74"/>
      <use x="902.470703" xlink:href="#DejaVuSans-20"/>
      <use x="934.257812" xlink:href="#DejaVuSans-44"/>
      <use x="1011.259766" xlink:href="#DejaVuSans-61"/>
      <use x="1072.539062" xlink:href="#DejaVuSans-74"/>
      <use x="1111.748047" xlink:href="#DejaVuSans-61"/>
     </g>
    </g>
   </g>
  </g>
 </g>
 <defs>
  <clipPath id="p4f018b2cc4">
   <rect height="266.112" width="357.12" x="57.6" y="41.472"/>
  </clipPath>
 </defs>
</svg>
