<?xml version="1.0" encoding="utf-8" standalone="no"?>
<!DOCTYPE svg PUBLIC "-//W3C//DTD SVG 1.1//EN"
  "http://www.w3.org/Graphics/SVG/1.1/DTD/svg11.dtd">
<!-- Created with matplotlib (http://matplotlib.org/) -->
<svg height="345.6pt" version="1.1" viewBox="0 0 460.8 345.6" width="460.8pt" xmlns="http://www.w3.org/2000/svg" xmlns:xlink="http://www.w3.org/1999/xlink">
 <defs>
  <style type="text/css">
*{stroke-linecap:butt;stroke-linejoin:round;}
  </style>
 </defs>
 <g id="figure_1">
  <g id="patch_1">
   <path d="M 0 345.6 
L 460.8 345.6 
L 460.8 0 
L 0 0 
z
" style="fill:#ffffff;"/>
  </g>
  <g id="axes_1">
   <g id="patch_2">
    <path d="M 57.6 307.584 
L 414.72 307.584 
L 414.72 41.472 
L 57.6 41.472 
z
" style="fill:#ffffff;"/>
   </g>
   <g id="matplotlib.axis_1">
    <g id="xtick_1">
     <g id="line2d_1">
      <defs>
       <path d="M 0 0 
L 0 3.5 
" id="m704dbbfb36" style="stroke:#000000;stroke-width:0.8;"/>
      </defs>
      <g>
       <use style="stroke:#000000;stroke-width:0.8;" x="73.832727" xlink:href="#m704dbbfb36" y="307.584"/>
      </g>
     </g>
     <g id="text_1">
      <!-- 0 -->
      <defs>
       <path d="M 31.78125 66.40625 
Q 24.171875 66.40625 20.328125 58.90625 
Q 16.5 51.421875 16.5 36.375 
Q 16.5 21.390625 20.328125 13.890625 
Q 24.171875 6.390625 31.78125 6.390625 
Q 39.453125 6.390625 43.28125 13.890625 
Q 47.125 21.390625 47.125 36.375 
Q 47.125 51.421875 43.28125 58.90625 
Q 39.453125 66.40625 31.78125 66.40625 
z
M 31.78125 74.21875 
Q 44.046875 74.21875 50.515625 64.515625 
Q 56.984375 54.828125 56.984375 36.375 
Q 56.984375 17.96875 50.515625 8.265625 
Q 44.046875 -1.421875 31.78125 -1.421875 
Q 19.53125 -1.421875 13.0625 8.265625 
Q 6.59375 17.96875 6.59375 36.375 
Q 6.59375 54.828125 13.0625 64.515625 
Q 19.53125 74.21875 31.78125 74.21875 
z
" id="DejaVuSans-30"/>
      </defs>
      <g transform="translate(70.651477 322.182437)scale(0.1 -0.1)">
       <use xlink:href="#DejaVuSans-30"/>
      </g>
     </g>
    </g>
    <g id="xtick_2">
     <g id="line2d_2">
      <g>
       <use style="stroke:#000000;stroke-width:0.8;" x="149.158608" xlink:href="#m704dbbfb36" y="307.584"/>
      </g>
     </g>
     <g id="text_2">
      <!-- 100 -->
      <defs>
       <path d="M 12.40625 8.296875 
L 28.515625 8.296875 
L 28.515625 63.921875 
L 10.984375 60.40625 
L 10.984375 69.390625 
L 28.421875 72.90625 
L 38.28125 72.90625 
L 38.28125 8.296875 
L 54.390625 8.296875 
L 54.390625 0 
L 12.40625 0 
z
" id="DejaVuSans-31"/>
      </defs>
      <g transform="translate(139.614858 322.182437)scale(0.1 -0.1)">
       <use xlink:href="#DejaVuSans-31"/>
       <use x="63.623047" xlink:href="#DejaVuSans-30"/>
       <use x="127.246094" xlink:href="#DejaVuSans-30"/>
      </g>
     </g>
    </g>
    <g id="xtick_3">
     <g id="line2d_3">
      <g>
       <use style="stroke:#000000;stroke-width:0.8;" x="224.484489" xlink:href="#m704dbbfb36" y="307.584"/>
      </g>
     </g>
     <g id="text_3">
      <!-- 200 -->
      <defs>
       <path d="M 19.1875 8.296875 
L 53.609375 8.296875 
L 53.609375 0 
L 7.328125 0 
L 7.328125 8.296875 
Q 12.9375 14.109375 22.625 23.890625 
Q 32.328125 33.6875 34.8125 36.53125 
Q 39.546875 41.84375 41.421875 45.53125 
Q 43.3125 49.21875 43.3125 52.78125 
Q 43.3125 58.59375 39.234375 62.25 
Q 35.15625 65.921875 28.609375 65.921875 
Q 23.96875 65.921875 18.8125 64.3125 
Q 13.671875 62.703125 7.8125 59.421875 
L 7.8125 69.390625 
Q 13.765625 71.78125 18.9375 73 
Q 24.125 74.21875 28.421875 74.21875 
Q 39.75 74.21875 46.484375 68.546875 
Q 53.21875 62.890625 53.21875 53.421875 
Q 53.21875 48.921875 51.53125 44.890625 
Q 49.859375 40.875 45.40625 35.40625 
Q 44.1875 33.984375 37.640625 27.21875 
Q 31.109375 20.453125 19.1875 8.296875 
z
" id="DejaVuSans-32"/>
      </defs>
      <g transform="translate(214.940739 322.182437)scale(0.1 -0.1)">
       <use xlink:href="#DejaVuSans-32"/>
       <use x="63.623047" xlink:href="#DejaVuSans-30"/>
       <use x="127.246094" xlink:href="#DejaVuSans-30"/>
      </g>
     </g>
    </g>
    <g id="xtick_4">
     <g id="line2d_4">
      <g>
       <use style="stroke:#000000;stroke-width:0.8;" x="299.810369" xlink:href="#m704dbbfb36" y="307.584"/>
      </g>
     </g>
     <g id="text_4">
      <!-- 300 -->
      <defs>
       <path d="M 40.578125 39.3125 
Q 47.65625 37.796875 51.625 33 
Q 55.609375 28.21875 55.609375 21.1875 
Q 55.609375 10.40625 48.1875 4.484375 
Q 40.765625 -1.421875 27.09375 -1.421875 
Q 22.515625 -1.421875 17.65625 -0.515625 
Q 12.796875 0.390625 7.625 2.203125 
L 7.625 11.71875 
Q 11.71875 9.328125 16.59375 8.109375 
Q 21.484375 6.890625 26.8125 6.890625 
Q 36.078125 6.890625 40.9375 10.546875 
Q 45.796875 14.203125 45.796875 21.1875 
Q 45.796875 27.640625 41.28125 31.265625 
Q 36.765625 34.90625 28.71875 34.90625 
L 20.21875 34.90625 
L 20.21875 43.015625 
L 29.109375 43.015625 
Q 36.375 43.015625 40.234375 45.921875 
Q 44.09375 48.828125 44.09375 54.296875 
Q 44.09375 59.90625 40.109375 62.90625 
Q 36.140625 65.921875 28.71875 65.921875 
Q 24.65625 65.921875 20.015625 65.03125 
Q 15.375 64.15625 9.8125 62.3125 
L 9.8125 71.09375 
Q 15.4375 72.65625 20.34375 73.4375 
Q 25.25 74.21875 29.59375 74.21875 
Q 40.828125 74.21875 47.359375 69.109375 
Q 53.90625 64.015625 53.90625 55.328125 
Q 53.90625 49.265625 50.4375 45.09375 
Q 46.96875 40.921875 40.578125 39.3125 
z
" id="DejaVuSans-33"/>
      </defs>
      <g transform="translate(290.266619 322.182437)scale(0.1 -0.1)">
       <use xlink:href="#DejaVuSans-33"/>
       <use x="63.623047" xlink:href="#DejaVuSans-30"/>
       <use x="127.246094" xlink:href="#DejaVuSans-30"/>
      </g>
     </g>
    </g>
    <g id="xtick_5">
     <g id="line2d_5">
      <g>
       <use style="stroke:#000000;stroke-width:0.8;" x="375.13625" xlink:href="#m704dbbfb36" y="307.584"/>
      </g>
     </g>
     <g id="text_5">
      <!-- 400 -->
      <defs>
       <path d="M 37.796875 64.3125 
L 12.890625 25.390625 
L 37.796875 25.390625 
z
M 35.203125 72.90625 
L 47.609375 72.90625 
L 47.609375 25.390625 
L 58.015625 25.390625 
L 58.015625 17.1875 
L 47.609375 17.1875 
L 47.609375 0 
L 37.796875 0 
L 37.796875 17.1875 
L 4.890625 17.1875 
L 4.890625 26.703125 
z
" id="DejaVuSans-34"/>
      </defs>
      <g transform="translate(365.5925 322.182437)scale(0.1 -0.1)">
       <use xlink:href="#DejaVuSans-34"/>
       <use x="63.623047" xlink:href="#DejaVuSans-30"/>
       <use x="127.246094" xlink:href="#DejaVuSans-30"/>
      </g>
     </g>
    </g>
   </g>
   <g id="matplotlib.axis_2">
    <g id="ytick_1">
     <g id="line2d_6">
      <defs>
       <path d="M 0 0 
L -3.5 0 
" id="me082ff4ddd" style="stroke:#000000;stroke-width:0.8;"/>
      </defs>
      <g>
       <use style="stroke:#000000;stroke-width:0.8;" x="57.6" xlink:href="#me082ff4ddd" y="288.576"/>
      </g>
     </g>
     <g id="text_6">
      <!-- 4 -->
      <g transform="translate(44.2375 292.375219)scale(0.1 -0.1)">
       <use xlink:href="#DejaVuSans-34"/>
      </g>
     </g>
    </g>
    <g id="ytick_2">
     <g id="line2d_7">
      <g>
       <use style="stroke:#000000;stroke-width:0.8;" x="57.6" xlink:href="#me082ff4ddd" y="254.016"/>
      </g>
     </g>
     <g id="text_7">
      <!-- 5 -->
      <defs>
       <path d="M 10.796875 72.90625 
L 49.515625 72.90625 
L 49.515625 64.59375 
L 19.828125 64.59375 
L 19.828125 46.734375 
Q 21.96875 47.46875 24.109375 47.828125 
Q 26.265625 48.1875 28.421875 48.1875 
Q 40.625 48.1875 47.75 41.5 
Q 54.890625 34.8125 54.890625 23.390625 
Q 54.890625 11.625 47.5625 5.09375 
Q 40.234375 -1.421875 26.90625 -1.421875 
Q 22.3125 -1.421875 17.546875 -0.640625 
Q 12.796875 0.140625 7.71875 1.703125 
L 7.71875 11.625 
Q 12.109375 9.234375 16.796875 8.0625 
Q 21.484375 6.890625 26.703125 6.890625 
Q 35.15625 6.890625 40.078125 11.328125 
Q 45.015625 15.765625 45.015625 23.390625 
Q 45.015625 31 40.078125 35.4375 
Q 35.15625 39.890625 26.703125 39.890625 
Q 22.75 39.890625 18.8125 39.015625 
Q 14.890625 38.140625 10.796875 36.28125 
z
" id="DejaVuSans-35"/>
      </defs>
      <g transform="translate(44.2375 257.815219)scale(0.1 -0.1)">
       <use xlink:href="#DejaVuSans-35"/>
      </g>
     </g>
    </g>
    <g id="ytick_3">
     <g id="line2d_8">
      <g>
       <use style="stroke:#000000;stroke-width:0.8;" x="57.6" xlink:href="#me082ff4ddd" y="219.456"/>
      </g>
     </g>
     <g id="text_8">
      <!-- 6 -->
      <defs>
       <path d="M 33.015625 40.375 
Q 26.375 40.375 22.484375 35.828125 
Q 18.609375 31.296875 18.609375 23.390625 
Q 18.609375 15.53125 22.484375 10.953125 
Q 26.375 6.390625 33.015625 6.390625 
Q 39.65625 6.390625 43.53125 10.953125 
Q 47.40625 15.53125 47.40625 23.390625 
Q 47.40625 31.296875 43.53125 35.828125 
Q 39.65625 40.375 33.015625 40.375 
z
M 52.59375 71.296875 
L 52.59375 62.3125 
Q 48.875 64.0625 45.09375 64.984375 
Q 41.3125 65.921875 37.59375 65.921875 
Q 27.828125 65.921875 22.671875 59.328125 
Q 17.53125 52.734375 16.796875 39.40625 
Q 19.671875 43.65625 24.015625 45.921875 
Q 28.375 48.1875 33.59375 48.1875 
Q 44.578125 48.1875 50.953125 41.515625 
Q 57.328125 34.859375 57.328125 23.390625 
Q 57.328125 12.15625 50.6875 5.359375 
Q 44.046875 -1.421875 33.015625 -1.421875 
Q 20.359375 -1.421875 13.671875 8.265625 
Q 6.984375 17.96875 6.984375 36.375 
Q 6.984375 53.65625 15.1875 63.9375 
Q 23.390625 74.21875 37.203125 74.21875 
Q 40.921875 74.21875 44.703125 73.484375 
Q 48.484375 72.75 52.59375 71.296875 
z
" id="DejaVuSans-36"/>
      </defs>
      <g transform="translate(44.2375 223.255219)scale(0.1 -0.1)">
       <use xlink:href="#DejaVuSans-36"/>
      </g>
     </g>
    </g>
    <g id="ytick_4">
     <g id="line2d_9">
      <g>
       <use style="stroke:#000000;stroke-width:0.8;" x="57.6" xlink:href="#me082ff4ddd" y="184.896"/>
      </g>
     </g>
     <g id="text_9">
      <!-- 7 -->
      <defs>
       <path d="M 8.203125 72.90625 
L 55.078125 72.90625 
L 55.078125 68.703125 
L 28.609375 0 
L 18.3125 0 
L 43.21875 64.59375 
L 8.203125 64.59375 
z
" id="DejaVuSans-37"/>
      </defs>
      <g transform="translate(44.2375 188.695219)scale(0.1 -0.1)">
       <use xlink:href="#DejaVuSans-37"/>
      </g>
     </g>
    </g>
    <g id="ytick_5">
     <g id="line2d_10">
      <g>
       <use style="stroke:#000000;stroke-width:0.8;" x="57.6" xlink:href="#me082ff4ddd" y="150.336"/>
      </g>
     </g>
     <g id="text_10">
      <!-- 8 -->
      <defs>
       <path d="M 31.78125 34.625 
Q 24.75 34.625 20.71875 30.859375 
Q 16.703125 27.09375 16.703125 20.515625 
Q 16.703125 13.921875 20.71875 10.15625 
Q 24.75 6.390625 31.78125 6.390625 
Q 38.8125 6.390625 42.859375 10.171875 
Q 46.921875 13.96875 46.921875 20.515625 
Q 46.921875 27.09375 42.890625 30.859375 
Q 38.875 34.625 31.78125 34.625 
z
M 21.921875 38.8125 
Q 15.578125 40.375 12.03125 44.71875 
Q 8.5 49.078125 8.5 55.328125 
Q 8.5 64.0625 14.71875 69.140625 
Q 20.953125 74.21875 31.78125 74.21875 
Q 42.671875 74.21875 48.875 69.140625 
Q 55.078125 64.0625 55.078125 55.328125 
Q 55.078125 49.078125 51.53125 44.71875 
Q 48 40.375 41.703125 38.8125 
Q 48.828125 37.15625 52.796875 32.3125 
Q 56.78125 27.484375 56.78125 20.515625 
Q 56.78125 9.90625 50.3125 4.234375 
Q 43.84375 -1.421875 31.78125 -1.421875 
Q 19.734375 -1.421875 13.25 4.234375 
Q 6.78125 9.90625 6.78125 20.515625 
Q 6.78125 27.484375 10.78125 32.3125 
Q 14.796875 37.15625 21.921875 38.8125 
z
M 18.3125 54.390625 
Q 18.3125 48.734375 21.84375 45.5625 
Q 25.390625 42.390625 31.78125 42.390625 
Q 38.140625 42.390625 41.71875 45.5625 
Q 45.3125 48.734375 45.3125 54.390625 
Q 45.3125 60.0625 41.71875 63.234375 
Q 38.140625 66.40625 31.78125 66.40625 
Q 25.390625 66.40625 21.84375 63.234375 
Q 18.3125 60.0625 18.3125 54.390625 
z
" id="DejaVuSans-38"/>
      </defs>
      <g transform="translate(44.2375 154.135219)scale(0.1 -0.1)">
       <use xlink:href="#DejaVuSans-38"/>
      </g>
     </g>
    </g>
    <g id="ytick_6">
     <g id="line2d_11">
      <g>
       <use style="stroke:#000000;stroke-width:0.8;" x="57.6" xlink:href="#me082ff4ddd" y="115.776"/>
      </g>
     </g>
     <g id="text_11">
      <!-- 9 -->
      <defs>
       <path d="M 10.984375 1.515625 
L 10.984375 10.5 
Q 14.703125 8.734375 18.5 7.8125 
Q 22.3125 6.890625 25.984375 6.890625 
Q 35.75 6.890625 40.890625 13.453125 
Q 46.046875 20.015625 46.78125 33.40625 
Q 43.953125 29.203125 39.59375 26.953125 
Q 35.25 24.703125 29.984375 24.703125 
Q 19.046875 24.703125 12.671875 31.3125 
Q 6.296875 37.9375 6.296875 49.421875 
Q 6.296875 60.640625 12.9375 67.421875 
Q 19.578125 74.21875 30.609375 74.21875 
Q 43.265625 74.21875 49.921875 64.515625 
Q 56.59375 54.828125 56.59375 36.375 
Q 56.59375 19.140625 48.40625 8.859375 
Q 40.234375 -1.421875 26.421875 -1.421875 
Q 22.703125 -1.421875 18.890625 -0.6875 
Q 15.09375 0.046875 10.984375 1.515625 
z
M 30.609375 32.421875 
Q 37.25 32.421875 41.125 36.953125 
Q 45.015625 41.5 45.015625 49.421875 
Q 45.015625 57.28125 41.125 61.84375 
Q 37.25 66.40625 30.609375 66.40625 
Q 23.96875 66.40625 20.09375 61.84375 
Q 16.21875 57.28125 16.21875 49.421875 
Q 16.21875 41.5 20.09375 36.953125 
Q 23.96875 32.421875 30.609375 32.421875 
z
" id="DejaVuSans-39"/>
      </defs>
      <g transform="translate(44.2375 119.575219)scale(0.1 -0.1)">
       <use xlink:href="#DejaVuSans-39"/>
      </g>
     </g>
    </g>
    <g id="ytick_7">
     <g id="line2d_12">
      <g>
       <use style="stroke:#000000;stroke-width:0.8;" x="57.6" xlink:href="#me082ff4ddd" y="81.216"/>
      </g>
     </g>
     <g id="text_12">
      <!-- 10 -->
      <g transform="translate(37.875 85.015219)scale(0.1 -0.1)">
       <use xlink:href="#DejaVuSans-31"/>
       <use x="63.623047" xlink:href="#DejaVuSans-30"/>
      </g>
     </g>
    </g>
    <g id="ytick_8">
     <g id="line2d_13">
      <g>
       <use style="stroke:#000000;stroke-width:0.8;" x="57.6" xlink:href="#me082ff4ddd" y="46.656"/>
      </g>
     </g>
     <g id="text_13">
      <!-- 11 -->
      <g transform="translate(37.875 50.455219)scale(0.1 -0.1)">
       <use xlink:href="#DejaVuSans-31"/>
       <use x="63.623047" xlink:href="#DejaVuSans-31"/>
      </g>
     </g>
    </g>
   </g>
   <g id="line2d_14">
    <path clip-path="url(#pcaf3517fda)" d="M 73.832727 167.616 
L 74.585986 177.984 
L 75.339245 167.616 
L 76.092504 171.072 
L 76.845762 171.072 
L 77.599021 177.984 
L 78.35228 167.616 
L 79.105539 167.616 
L 79.858798 177.984 
L 81.365315 164.16 
L 82.118574 153.792 
L 82.871833 139.968 
L 83.625092 133.056 
L 84.378351 129.6 
L 85.131609 119.232 
L 85.884868 115.776 
L 86.638127 105.408 
L 87.391386 101.952 
L 88.897903 88.128 
L 89.651162 88.128 
L 91.15768 67.392 
L 91.910939 53.568 
L 92.664197 53.568 
L 93.417456 67.392 
L 94.170715 67.392 
L 96.430491 77.76 
L 97.18375 77.76 
L 97.937009 101.952 
L 98.690268 98.496 
L 99.443527 108.864 
L 100.196785 122.688 
L 100.950044 133.056 
L 101.703303 139.968 
L 102.456562 150.336 
L 103.209821 157.248 
L 103.96308 157.248 
L 104.716338 160.704 
L 105.469597 171.072 
L 106.222856 177.984 
L 106.976115 167.616 
L 107.729374 167.616 
L 108.482632 174.528 
L 109.235891 171.072 
L 109.98915 177.984 
L 110.742409 174.528 
L 111.495668 174.528 
L 112.248926 177.984 
L 113.002185 177.984 
L 113.755444 174.528 
L 114.508703 177.984 
L 115.261962 171.072 
L 116.01522 171.072 
L 116.768479 181.44 
L 118.274997 181.44 
L 119.028256 184.896 
L 119.781514 184.896 
L 120.534773 195.264 
L 121.288032 177.984 
L 122.041291 177.984 
L 122.79455 181.44 
L 123.547808 177.984 
L 124.301067 177.984 
L 125.054326 184.896 
L 125.807585 188.352 
L 126.560844 184.896 
L 127.314103 184.896 
L 128.067361 188.352 
L 128.82062 198.72 
L 131.080397 198.72 
L 131.833655 209.088 
L 132.586914 209.088 
L 135.599949 222.912 
L 136.353208 219.456 
L 137.106467 226.368 
L 137.859726 229.824 
L 140.119502 229.824 
L 140.872761 240.192 
L 141.62602 233.28 
L 142.379279 240.192 
L 143.132537 240.192 
L 143.885796 233.28 
L 144.639055 240.192 
L 145.392314 240.192 
L 146.145573 243.648 
L 146.898831 243.648 
L 147.65209 240.192 
L 149.158608 254.016 
L 149.911867 247.104 
L 150.665126 247.104 
L 151.418384 243.648 
L 152.171643 247.104 
L 152.924902 247.104 
L 153.678161 243.648 
L 154.43142 243.648 
L 155.184678 240.192 
L 156.691196 240.192 
L 158.197714 247.104 
L 158.950972 240.192 
L 159.704231 240.192 
L 160.45749 247.104 
L 161.210749 236.736 
L 162.717266 222.912 
L 163.470525 222.912 
L 164.223784 212.544 
L 165.730302 205.632 
L 167.236819 191.808 
L 167.990078 195.264 
L 168.743337 188.352 
L 169.496596 188.352 
L 170.249854 191.808 
L 171.003113 188.352 
L 171.756372 188.352 
L 172.509631 184.896 
L 173.26289 184.896 
L 174.016148 174.528 
L 174.769407 174.528 
L 175.522666 171.072 
L 177.029184 171.072 
L 178.535701 157.248 
L 180.042219 164.16 
L 180.795478 164.16 
L 181.548737 174.528 
L 182.301995 171.072 
L 183.055254 171.072 
L 183.808513 174.528 
L 184.561772 181.44 
L 185.315031 184.896 
L 186.068289 181.44 
L 186.821548 181.44 
L 189.834583 195.264 
L 190.587842 191.808 
L 191.341101 198.72 
L 192.09436 202.176 
L 192.847619 198.72 
L 193.600877 198.72 
L 195.107395 205.632 
L 195.860654 216 
L 197.367171 216 
L 199.626948 226.368 
L 200.380207 233.28 
L 201.133466 236.736 
L 201.886724 233.28 
L 202.639983 240.192 
L 203.393242 240.192 
L 204.146501 226.368 
L 204.89976 233.28 
L 205.653018 233.28 
L 206.406277 229.824 
L 207.159536 229.824 
L 208.666054 236.736 
L 209.419312 233.28 
L 210.92583 233.28 
L 211.679089 236.736 
L 212.432348 236.736 
L 213.185606 233.28 
L 213.938865 233.28 
L 214.692124 243.648 
L 215.445383 236.736 
L 216.198642 250.56 
L 216.9519 247.104 
L 217.705159 247.104 
L 218.458418 240.192 
L 219.211677 240.192 
L 220.718194 247.104 
L 221.471453 247.104 
L 222.224712 250.56 
L 222.977971 257.472 
L 223.73123 254.016 
L 225.237747 260.928 
L 225.991006 257.472 
L 226.744265 264.384 
L 227.497524 267.84 
L 228.250783 264.384 
L 229.004041 267.84 
L 229.7573 267.84 
L 230.510559 264.384 
L 231.263818 278.208 
L 232.770335 271.296 
L 234.276853 271.296 
L 235.030112 267.84 
L 236.536629 274.752 
L 237.289888 274.752 
L 238.043147 278.208 
L 238.796406 274.752 
L 239.549665 281.664 
L 240.302923 278.208 
L 241.056182 281.664 
L 241.809441 278.208 
L 242.5627 278.208 
L 243.315959 281.664 
L 244.069217 281.664 
L 244.822476 285.12 
L 245.575735 285.12 
L 246.328994 288.576 
L 247.082253 288.576 
L 247.835511 285.12 
L 248.58877 288.576 
L 249.342029 295.488 
L 250.095288 288.576 
L 251.601806 288.576 
L 252.355064 285.12 
L 253.108323 292.032 
L 255.3681 292.032 
L 256.121358 281.664 
L 256.874617 281.664 
L 258.381135 274.752 
L 259.134394 278.208 
L 259.887652 271.296 
L 260.640911 267.84 
L 261.39417 257.472 
L 262.147429 254.016 
L 262.900688 243.648 
L 264.407205 229.824 
L 266.666982 229.824 
L 267.42024 222.912 
L 268.173499 226.368 
L 269.680017 226.368 
L 270.433276 229.824 
L 271.939793 229.824 
L 272.693052 222.912 
L 273.446311 219.456 
L 274.19957 226.368 
L 274.952829 222.912 
L 275.706087 222.912 
L 277.212605 216 
L 277.965864 209.088 
L 279.472381 216 
L 280.22564 216 
L 280.978899 219.456 
L 281.732158 226.368 
L 282.485417 229.824 
L 283.238675 229.824 
L 283.991934 233.28 
L 284.745193 226.368 
L 285.498452 233.28 
L 287.004969 233.28 
L 288.511487 240.192 
L 289.264746 240.192 
L 290.018005 236.736 
L 290.771263 240.192 
L 291.524522 240.192 
L 292.277781 243.648 
L 293.03104 240.192 
L 293.784299 247.104 
L 294.537557 247.104 
L 296.044075 254.016 
L 296.797334 254.016 
L 297.550593 257.472 
L 298.303852 254.016 
L 299.810369 254.016 
L 300.563628 257.472 
L 301.316887 264.384 
L 302.070146 260.928 
L 302.823404 264.384 
L 303.576663 264.384 
L 304.329922 267.84 
L 305.083181 267.84 
L 305.83644 264.384 
L 306.589698 264.384 
L 307.342957 271.296 
L 308.096216 274.752 
L 308.849475 271.296 
L 309.602734 274.752 
L 310.355992 267.84 
L 311.86251 274.752 
L 312.615769 271.296 
L 313.369028 274.752 
L 314.122286 267.84 
L 314.875545 264.384 
L 315.628804 267.84 
L 316.382063 264.384 
L 317.88858 264.384 
L 318.641839 254.016 
L 319.395098 254.016 
L 320.148357 257.472 
L 320.901616 250.56 
L 321.654874 254.016 
L 322.408133 240.192 
L 323.914651 226.368 
L 324.66791 216 
L 325.421169 216 
L 326.174427 202.176 
L 326.927686 191.808 
L 329.187463 139.968 
L 329.940721 126.144 
L 330.69398 115.776 
L 331.447239 101.952 
L 332.200498 98.496 
L 332.953757 98.496 
L 333.707015 95.04 
L 335.213533 81.216 
L 335.966792 84.672 
L 336.720051 84.672 
L 337.473309 88.128 
L 338.226568 88.128 
L 338.979827 84.672 
L 339.733086 84.672 
L 340.486345 95.04 
L 341.239603 101.952 
L 341.992862 101.952 
L 342.746121 98.496 
L 343.49938 98.496 
L 344.252639 101.952 
L 345.005897 88.128 
L 345.759156 105.408 
L 346.512415 112.32 
L 347.265674 115.776 
L 348.018933 115.776 
L 348.772192 112.32 
L 349.52545 115.776 
L 350.278709 112.32 
L 351.031968 115.776 
L 352.538486 115.776 
L 354.045003 129.6 
L 354.798262 133.056 
L 355.551521 139.968 
L 356.30478 139.968 
L 357.058038 143.424 
L 360.071074 143.424 
L 360.824332 146.88 
L 361.577591 157.248 
L 362.33085 157.248 
L 363.084109 160.704 
L 363.837368 153.792 
L 364.590626 150.336 
L 365.343885 160.704 
L 366.097144 167.616 
L 366.850403 164.16 
L 367.603662 167.616 
L 368.35692 167.616 
L 369.110179 174.528 
L 369.863438 177.984 
L 371.369956 177.984 
L 372.123215 188.352 
L 372.876473 195.264 
L 373.629732 198.72 
L 374.382991 195.264 
L 375.13625 195.264 
L 375.889509 209.088 
L 376.642767 209.088 
L 377.396026 216 
L 378.149285 212.544 
L 378.902544 212.544 
L 379.655803 222.912 
L 380.409061 229.824 
L 381.16232 226.368 
L 381.915579 233.28 
L 382.668838 229.824 
L 383.422097 236.736 
L 384.175355 236.736 
L 384.928614 240.192 
L 385.681873 236.736 
L 386.435132 243.648 
L 388.694908 254.016 
L 390.954685 254.016 
L 391.707943 257.472 
L 392.461202 257.472 
L 393.214461 254.016 
L 393.96772 254.016 
L 394.720979 264.384 
L 395.474238 257.472 
L 396.980755 257.472 
L 397.734014 254.016 
L 398.487273 257.472 
L 398.487273 257.472 
" style="fill:none;opacity:0.6;stroke:#1f77b4;stroke-linecap:square;stroke-width:0.5;"/>
   </g>
   <g id="line2d_15">
    <path clip-path="url(#pcaf3517fda)" d="M 73.832727 168.667738 
L 74.585986 149.091732 
L 75.339245 155.347875 
L 76.092504 160.366737 
L 76.845762 167.883693 
L 77.599021 172.424617 
L 79.105539 190.22026 
L 79.858798 175.010249 
L 80.612057 162.755193 
L 81.365315 159.39982 
L 82.118574 158.536838 
L 82.871833 158.961712 
L 85.131609 127.651682 
L 86.638127 108.523738 
L 88.144645 93.066337 
L 88.897903 86.284466 
L 89.651162 80.552635 
L 90.404421 76.461469 
L 91.15768 81.623241 
L 91.910939 178.164408 
L 92.664197 128.253645 
L 93.417456 111.325351 
L 94.170715 98.414591 
L 95.677233 76.419842 
L 96.430491 81.381883 
L 97.18375 90.053721 
L 97.937009 95.200991 
L 99.443527 102.487663 
L 100.196785 108.662034 
L 102.456562 132.324673 
L 103.209821 139.068213 
L 103.96308 143.302783 
L 106.976115 155.349572 
L 107.729374 152.384566 
L 108.482632 151.561975 
L 109.235891 152.042254 
L 109.98915 196.318529 
L 110.742409 164.699064 
L 111.495668 155.748211 
L 112.248926 156.178112 
L 113.002185 155.472592 
L 113.755444 158.429589 
L 114.508703 158.521858 
L 115.261962 159.549948 
L 116.01522 160.809245 
L 116.768479 165.045051 
L 117.521738 165.915514 
L 118.274997 168.044467 
L 119.028256 168.837905 
L 119.781514 170.382758 
L 120.534773 168.737907 
L 121.288032 168.580149 
L 122.041291 168.682141 
L 122.79455 168.636064 
L 125.054326 169.565623 
L 125.807585 173.835706 
L 126.560844 176.378772 
L 127.314103 183.13075 
L 128.067361 210.107464 
L 128.82062 186.4133 
L 129.573879 174.521023 
L 130.327138 170.999767 
L 131.080397 166.567295 
L 132.586914 176.948551 
L 133.340173 183.678297 
L 134.093432 192.410599 
L 135.599949 204.138197 
L 137.106467 212.692553 
L 138.612985 220.214815 
L 139.366243 219.66992 
L 140.119502 220.719713 
L 140.872761 223.098808 
L 141.62602 224.731926 
L 142.379279 226.672304 
L 143.885796 233.425369 
L 144.639055 235.700923 
L 145.392314 237.386149 
L 146.145573 228.585227 
L 146.898831 225.673828 
L 147.65209 229.027009 
L 148.405349 227.003706 
L 149.158608 226.605644 
L 149.911867 230.451331 
L 150.665126 233.325767 
L 151.418384 234.043267 
L 152.171643 233.330958 
L 152.924902 231.904872 
L 153.678161 231.332984 
L 154.43142 231.492769 
L 155.937937 236.851274 
L 156.691196 239.042239 
L 157.444455 240.794339 
L 158.197714 238.020131 
L 158.950972 236.46572 
L 159.704231 236.0478 
L 160.45749 236.301749 
L 161.210749 238.313516 
L 161.964008 239.184869 
L 162.717266 239.7412 
L 163.470525 232.53541 
L 164.223784 214.764058 
L 164.977043 216.545112 
L 165.730302 213.62755 
L 166.48356 207.631519 
L 167.236819 199.462915 
L 167.990078 201.596713 
L 168.743337 188.016623 
L 169.496596 177.236826 
L 170.249854 175.322898 
L 171.003113 177.544597 
L 171.756372 178.718036 
L 173.26289 183.097626 
L 174.016148 182.252228 
L 174.769407 179.771537 
L 175.522666 172.315836 
L 176.275925 168.277948 
L 177.029184 171.086861 
L 177.782443 169.237945 
L 178.535701 170.171969 
L 180.042219 168.056579 
L 181.548737 167.06804 
L 182.301995 220.518449 
L 183.055254 206.685053 
L 183.808513 205.289932 
L 184.561772 192.824959 
L 185.315031 186.722224 
L 186.068289 187.61159 
L 186.821548 182.007623 
L 187.574807 180.05744 
L 188.328066 180.704013 
L 189.834583 183.869163 
L 190.587842 196.726248 
L 191.341101 194.966403 
L 192.09436 195.705954 
L 192.847619 195.528453 
L 193.600877 195.589477 
L 194.354136 197.701241 
L 195.107395 206.399331 
L 195.860654 211.185091 
L 196.613913 219.896217 
L 197.367171 226.139901 
L 198.12043 229.94958 
L 198.873689 232.855228 
L 199.626948 230.605695 
L 200.380207 225.826181 
L 201.133466 244.30279 
L 201.886724 244.806568 
L 203.393242 241.798467 
L 204.146501 240.684239 
L 204.89976 238.62511 
L 205.653018 236.91823 
L 206.406277 233.881637 
L 207.159536 233.710217 
L 207.912795 234.742591 
L 209.419312 235.81562 
L 210.172571 231.417508 
L 210.92583 229.913095 
L 211.679089 227.562938 
L 213.185606 224.300625 
L 213.938865 227.468444 
L 214.692124 229.690111 
L 215.445383 230.536036 
L 216.198642 231.109061 
L 216.9519 228.796543 
L 217.705159 224.920863 
L 218.458418 233.660465 
L 219.211677 247.100793 
L 219.964936 242.687799 
L 220.718194 234.755297 
L 221.471453 233.821453 
L 222.224712 236.830807 
L 222.977971 248.01847 
L 223.73123 253.584188 
L 224.484489 256.651961 
L 225.237747 258.920841 
L 225.991006 260.53677 
L 226.744265 261.842852 
L 228.250783 258.776728 
L 229.004041 259.048738 
L 229.7573 264.261004 
L 230.510559 267.340362 
L 231.263818 269.015238 
L 232.017077 269.911525 
L 232.770335 268.516058 
L 233.523594 266.338062 
L 235.030112 267.293082 
L 235.783371 267.454202 
L 236.536629 219.129755 
L 237.289888 259.212528 
L 238.043147 260.802601 
L 238.796406 263.25994 
L 239.549665 264.995989 
L 240.302923 263.890182 
L 241.056182 261.944399 
L 241.809441 258.893831 
L 242.5627 259.290921 
L 244.822476 269.992077 
L 245.575735 267.800947 
L 246.328994 260.74222 
L 247.082253 256.42667 
L 247.835511 263.455371 
L 248.58877 272.277107 
L 249.342029 278.896622 
L 250.095288 282.55291 
L 250.848547 283.10499 
L 251.601806 276.852242 
L 252.355064 271.639383 
L 253.108323 268.829102 
L 253.861582 267.145459 
L 254.614841 223.694459 
L 255.3681 263.311472 
L 256.121358 258.374743 
L 256.874617 269.696418 
L 257.627876 271.487179 
L 258.381135 265.027185 
L 259.134394 261.084565 
L 259.887652 257.87937 
L 260.640911 255.339336 
L 261.39417 250.87753 
L 262.147429 248.488976 
L 262.900688 247.199275 
L 263.653946 243.940422 
L 264.407205 237.386198 
L 265.160464 232.914472 
L 265.913723 230.911554 
L 266.666982 230.45115 
L 268.173499 231.364229 
L 268.926758 232.148604 
L 269.680017 231.542966 
L 270.433276 233.183878 
L 271.186534 234.396143 
L 271.939793 235.34172 
L 272.693052 222.237722 
L 273.446311 215.064495 
L 274.19957 216.592705 
L 274.952829 212.592176 
L 275.706087 207.636233 
L 276.459346 209.011347 
L 277.965864 220.558989 
L 278.719123 221.257192 
L 279.472381 223.858974 
L 280.978899 231.542389 
L 281.732158 229.30543 
L 282.485417 224.734447 
L 283.238675 224.73715 
L 283.991934 225.312185 
L 285.498452 229.653477 
L 287.758228 237.956718 
L 288.511487 240.47256 
L 289.264746 242.304536 
L 290.018005 241.88922 
L 290.771263 209.943625 
L 291.524522 243.983021 
L 292.277781 249.875462 
L 293.03104 248.103504 
L 293.784299 248.829096 
L 294.537557 250.419631 
L 295.290816 251.489595 
L 296.044075 251.628418 
L 296.797334 254.243318 
L 297.550593 257.381129 
L 298.303852 258.539983 
L 299.05711 257.970337 
L 299.810369 256.580275 
L 300.563628 254.345557 
L 301.316887 255.301615 
L 302.070146 254.152549 
L 302.823404 253.219727 
L 303.576663 252.628361 
L 304.329922 252.479568 
L 305.083181 252.474838 
L 305.83644 252.029578 
L 306.589698 251.008905 
L 307.342957 251.869266 
L 308.096216 252.345622 
L 308.849475 219.867724 
L 309.602734 257.072946 
L 310.355992 259.358256 
L 311.109251 259.834217 
L 311.86251 260.94767 
L 312.615769 261.801835 
L 313.369028 262.164812 
L 314.875545 254.886463 
L 315.628804 255.379843 
L 317.135322 260.164746 
L 317.88858 257.14539 
L 318.641839 254.868913 
L 319.395098 256.002125 
L 320.148357 260.230944 
L 320.901616 259.485197 
L 321.654874 252.302627 
L 322.408133 239.632946 
L 323.161392 234.197483 
L 323.914651 232.527962 
L 324.66791 216.77187 
L 325.421169 204.186861 
L 326.174427 194.338255 
L 326.927686 163.254142 
L 327.680945 169.439571 
L 328.434204 167.342127 
L 329.187463 161.167229 
L 329.940721 158.555394 
L 330.69398 168.891018 
L 331.447239 128.226223 
L 332.200498 114.581731 
L 332.953757 108.246981 
L 333.707015 105.285122 
L 334.460274 99.507346 
L 335.213533 98.85812 
L 335.966792 97.895158 
L 336.720051 97.864044 
L 337.473309 93.771956 
L 338.226568 91.958322 
L 338.979827 87.998102 
L 340.486345 78.735705 
L 341.239603 78.588905 
L 341.992862 80.269319 
L 342.746121 84.734306 
L 343.49938 91.584896 
L 344.252639 104.275786 
L 345.005897 185.573406 
L 345.759156 133.746919 
L 346.512415 115.559097 
L 347.265674 105.129292 
L 348.018933 97.655546 
L 348.772192 95.78898 
L 349.52545 103.231184 
L 350.278709 102.306322 
L 351.031968 100.584644 
L 351.785227 101.440951 
L 352.538486 104.678875 
L 354.798262 118.72606 
L 355.551521 121.518048 
L 356.30478 123.444435 
L 357.058038 124.818363 
L 357.811297 123.566021 
L 358.564556 125.760397 
L 359.317815 136.672359 
L 360.071074 138.465163 
L 360.824332 142.047145 
L 361.577591 133.926875 
L 362.33085 128.280243 
L 363.084109 170.968192 
L 363.837368 168.871952 
L 364.590626 178.178316 
L 365.343885 185.147246 
L 366.097144 194.126477 
L 366.850403 198.563184 
L 367.603662 202.034606 
L 369.110179 218.973991 
L 369.863438 225.625477 
L 370.616697 217.563067 
L 371.369956 197.676324 
L 372.123215 191.067669 
L 372.876473 198.124533 
L 373.629732 210.474364 
L 374.382991 220.02769 
L 375.13625 226.488508 
L 375.889509 216.871126 
L 376.642767 215.827166 
L 377.396026 224.516143 
L 378.149285 231.193106 
L 378.902544 235.618987 
L 379.655803 218.322046 
L 380.409061 197.215393 
L 381.16232 168.620112 
L 381.915579 173.335043 
L 383.422097 184.96406 
L 384.175355 193.967153 
L 384.928614 206.638778 
L 385.681873 211.750486 
L 387.188391 226.663421 
L 387.941649 232.111492 
L 388.694908 234.567497 
L 389.448167 245.104665 
L 390.201426 251.752278 
L 390.954685 256.493247 
L 391.707943 259.609321 
L 392.461202 261.507346 
L 393.214461 262.713843 
L 393.96772 260.206703 
L 394.720979 253.913349 
L 395.474238 258.765357 
L 396.227496 261.561613 
L 396.980755 263.261127 
L 397.734014 259.754439 
L 398.487273 244.621173 
L 398.487273 244.621173 
" style="fill:none;opacity:0.6;stroke:#ff7f0e;stroke-linecap:square;stroke-width:0.5;"/>
   </g>
   <g id="patch_3">
    <path d="M 57.6 307.584 
L 57.6 41.472 
" style="fill:none;stroke:#000000;stroke-linecap:square;stroke-linejoin:miter;stroke-width:0.8;"/>
   </g>
   <g id="patch_4">
    <path d="M 414.72 307.584 
L 414.72 41.472 
" style="fill:none;stroke:#000000;stroke-linecap:square;stroke-linejoin:miter;stroke-width:0.8;"/>
   </g>
   <g id="patch_5">
    <path d="M 57.6 307.584 
L 414.72 307.584 
" style="fill:none;stroke:#000000;stroke-linecap:square;stroke-linejoin:miter;stroke-width:0.8;"/>
   </g>
   <g id="patch_6">
    <path d="M 57.6 41.472 
L 414.72 41.472 
" style="fill:none;stroke:#000000;stroke-linecap:square;stroke-linejoin:miter;stroke-width:0.8;"/>
   </g>
  </g>
 </g>
 <defs>
  <clipPath id="pcaf3517fda">
   <rect height="266.112" width="357.12" x="57.6" y="41.472"/>
  </clipPath>
 </defs>
</svg>
